<?xml version="1.0" encoding="iso-8859-1"?>
<!-- Generator: Adobe Illustrator 16.0.0, SVG Export Plug-In . SVG Version: 6.00 Build 0)  -->
<!DOCTYPE svg PUBLIC "-//W3C//DTD SVG 1.1//EN" "http://www.w3.org/Graphics/SVG/1.1/DTD/svg11.dtd">
<svg version="1.1" xmlns="http://www.w3.org/2000/svg" xmlns:xlink="http://www.w3.org/1999/xlink" x="0px" y="0px" width="16px"
	 height="16px" viewBox="0 0 16 16" style="enable-background:new 0 0 16 16;" xml:space="preserve">
<g id="animal-frog" style="enable-background:new    ;">
	<g id="animal-frog_1_">
		<g>
			<path d="M15.999,4.999c0-1.656-1.344-3-3-3c-0.623,0-1.199,0.189-1.68,0.514c-0.949-0.321-2.086-0.514-3.32-0.514
				c-1.235,0-2.372,0.192-3.321,0.514C4.199,2.188,3.621,1.999,2.999,1.999c-1.657,0-3,1.344-3,3c0,0.876,0.382,1.657,0.98,2.205
				c-0.09,1.118-0.195,6.795,7.02,6.795c7.215,0,7.109-5.677,7.02-6.795C15.616,6.656,15.999,5.875,15.999,4.999z M0.999,4.999
				c0-1.104,0.896-2,2-2s2,0.896,2,2s-0.896,2-2,2S0.999,6.104,0.999,4.999z M7.999,12.999c-2.893,0-4.322-0.856-5.017-1.859
				c1.126,0.148,3.067,0.359,5.023,0.359c1.951,0,3.887-0.211,5.012-0.358C12.321,12.143,10.892,12.999,7.999,12.999z
				 M13.511,10.073c-0.969,0.139-3.244,0.426-5.512,0.426c-2.285,0-4.547-0.286-5.511-0.426C2.208,8.98,2.499,7.999,2.499,7.999
				v-0.05c0.163,0.027,0.329,0.05,0.5,0.05c1.657,0,3-1.343,3-3c0-0.64-0.204-1.229-0.544-1.716c0.743-0.18,1.61-0.284,2.544-0.284
				c0.934,0,1.801,0.104,2.545,0.284C10.202,3.77,9.999,4.359,9.999,4.999c0,1.657,1.344,3,3,3c0.172,0,0.336-0.022,0.5-0.05v0.05
				C13.499,7.999,13.79,8.98,13.511,10.073z M12.999,6.999c-1.105,0-2-0.896-2-2s0.895-2,2-2c1.104,0,2,0.896,2,2
				S14.103,6.999,12.999,6.999z"/>
		</g>
	</g>
</g>
<g id="Layer_1">
</g>
</svg>
