<?xml version="1.0" encoding="iso-8859-1"?>
<!-- Generator: Adobe Illustrator 16.0.0, SVG Export Plug-In . SVG Version: 6.00 Build 0)  -->
<!DOCTYPE svg PUBLIC "-//W3C//DTD SVG 1.1//EN" "http://www.w3.org/Graphics/SVG/1.1/DTD/svg11.dtd">
<svg version="1.1" xmlns="http://www.w3.org/2000/svg" xmlns:xlink="http://www.w3.org/1999/xlink" x="0px" y="0px" width="16px"
	 height="16px" viewBox="0 0 16 16" style="enable-background:new 0 0 16 16;" xml:space="preserve">
<g id="animal-dog" style="enable-background:new    ;">
	<g id="animal-dog_1_">
		<g>
			<path d="M14.999,0.501c-2.079,0.904-4.324,1.617-5.134,1.853C9.282,2.142,8.671,1.997,8.024,1.997
				c-0.676,0-1.315,0.154-1.921,0.386C5.21,2.124,3.023,1.438,1,0.579C1.007,0.558,0.884,1.44,1.03,1.997
				c0.366,1.392,1.168,3.6,1.417,4.277c-0.27,0.768-0.429,1.598-0.429,2.473c0,3.729,2.689,6.75,6.006,6.75
				c3.317,0,6.007-3.021,6.007-6.75c0-0.896-0.163-1.747-0.445-2.529c0.266-0.739,1.029-2.902,1.383-4.28
				C15.113,1.374,14.991,0.479,14.999,0.501z M2.03,1.997l3.083,0.881C4.227,3.435,3.478,4.221,2.941,5.187L2.03,1.997z
				 M8.024,14.497c-2.765,0-5.006-2.575-5.006-5.75c0-3.176,2.241-5.75,5.006-5.75c2.766,0,5.007,2.574,5.007,5.75
				C13.031,11.922,10.79,14.497,8.024,14.497z M13.087,5.142c-0.546-0.966-1.308-1.747-2.204-2.297l3.098-0.907L13.087,5.142z
				 M6.062,9.747c0,0,0.689,2,1.968,2s1.969-2,1.969-2s-0.973-0.5-1.969-0.5C7.059,9.247,6.062,9.747,6.062,9.747z"/>
		</g>
	</g>
</g>
<g id="Layer_1">
</g>
</svg>
