<?xml version="1.0" encoding="iso-8859-1"?>
<!-- Generator: Adobe Illustrator 16.0.0, SVG Export Plug-In . SVG Version: 6.00 Build 0)  -->
<!DOCTYPE svg PUBLIC "-//W3C//DTD SVG 1.1//EN" "http://www.w3.org/Graphics/SVG/1.1/DTD/svg11.dtd">
<svg version="1.1" xmlns="http://www.w3.org/2000/svg" xmlns:xlink="http://www.w3.org/1999/xlink" x="0px" y="0px" width="16px"
	 height="16px" viewBox="0 0 16 16" style="enable-background:new 0 0 16 16;" xml:space="preserve">
<g id="animal-goose" style="enable-background:new    ;">
	<g id="animal-goose_2_">
		<g>
			<path d="M7.999,0.499c-3.317,0-6.506,4.522-6.506,8.25s3.189,6.75,6.506,6.75s6.506-3.022,6.506-6.75S11.315,0.499,7.999,0.499z
				 M7.999,14.499c-2.765,0-5.506-2.574-5.506-5.75s2.741-7.25,5.506-7.25c2.765,0,5.506,4.074,5.506,7.25
				S10.764,14.499,7.999,14.499z M8.005,5.499c-2.21,0-4,1.791-4,4s1.791,4,4,4c2.208,0,3.999-1.791,3.999-4
				S10.213,5.499,8.005,5.499z M8.005,6.499c1.656,0,2.999,1.343,2.999,3l-2.999-1l-3,1C5.004,7.842,6.348,6.499,8.005,6.499z
				 M8.005,12.499c-1.325,0-2.437-0.864-2.834-2.055l2.834-0.945l2.833,0.945C10.44,11.635,9.329,12.499,8.005,12.499z"/>
		</g>
	</g>
</g>
<g id="Layer_1">
</g>
</svg>
