<?xml version="1.0" encoding="iso-8859-1"?>
<!-- Generator: Adobe Illustrator 16.0.0, SVG Export Plug-In . SVG Version: 6.00 Build 0)  -->
<!DOCTYPE svg PUBLIC "-//W3C//DTD SVG 1.1//EN" "http://www.w3.org/Graphics/SVG/1.1/DTD/svg11.dtd">
<svg version="1.1" xmlns="http://www.w3.org/2000/svg" xmlns:xlink="http://www.w3.org/1999/xlink" x="0px" y="0px" width="16px"
	 height="16px" viewBox="0 0 16 16" style="enable-background:new 0 0 16 16;" xml:space="preserve">
<g id="animal-mouse" style="enable-background:new    ;">
	<g id="animal-mouse_2_">
		<g>
			<path d="M12.499-0.001c-1.418,0-2.633,0.848-3.184,2.061C8.833,2.014,8.38,1.999,8.063,1.999c-0.345,0-0.846,0.017-1.377,0.069
				C6.139,0.851,4.921-0.001,3.499-0.001c-1.933,0-3.5,1.567-3.5,3.5c0,1.829,1.408,3.313,3.197,3.469
				c0.401,1.547,1.299,2.437,1.806,3.98c0.211,0.644,0.679,1.463,1.193,2.2c-0.123,0.259-0.196,0.545-0.196,0.851
				c0,1.104,0.896,2,2,2c1.104,0,2-0.896,2-2c0-0.245-0.051-0.478-0.131-0.694c0.557-0.765,1.074-1.646,1.301-2.342
				c0.41-1.252,1.287-1.73,1.633-3.348l0.061-0.653c1.76-0.185,3.137-1.654,3.137-3.463C15.999,1.566,14.433-0.001,12.499-0.001z
				 M3.661,3.77C3.327,4.3,2.964,4.896,3.021,5.951C1.87,5.728,0.999,4.716,0.999,3.499c0-1.381,1.119-2.5,2.5-2.5
				c0.916,0,1.708,0.498,2.144,1.232C4.883,2.401,4.209,2.689,3.988,3.19C3.9,3.391,3.784,3.574,3.661,3.77z M7.999,14.999
				c-0.552,0-1-0.447-1-1s0.448-1,1-1c0.553,0,1,0.447,1,1S8.552,14.999,7.999,14.999z M11.905,6.582l-0.076,0.371
				c-0.236,1.146-1.209,2.257-1.771,4.027c-0.152,0.479-0.479,1.002-0.832,1.449c-0.34-0.266-0.762-0.431-1.227-0.431
				c-0.461,0-0.881,0.162-1.219,0.425c-0.317-0.422-0.614-0.928-0.79-1.456C5.558,9.669,4.592,8.907,4.094,6.579
				C3.842,5.401,4.122,4.943,4.477,4.363C4.606,4.15,4.741,3.93,4.854,3.667C5.003,3.318,6.528,3,8.054,2.999
				c1.484,0,2.967,0.316,3.111,0.664c0.109,0.263,0.24,0.482,0.367,0.696C11.878,4.94,12.153,5.399,11.905,6.582z M12.989,5.949
				c0.057-1.052-0.297-1.646-0.623-2.176c-0.119-0.194-0.232-0.378-0.318-0.579c-0.223-0.519-0.914-0.811-1.684-0.979
				c0.438-0.727,1.225-1.217,2.135-1.217c1.381,0,2.5,1.119,2.5,2.5C14.999,4.712,14.136,5.722,12.989,5.949z"/>
		</g>
	</g>
</g>
<g id="Layer_1">
</g>
</svg>
