<?xml version="1.0" encoding="iso-8859-1"?>
<!-- Generator: Adobe Illustrator 16.0.0, SVG Export Plug-In . SVG Version: 6.00 Build 0)  -->
<!DOCTYPE svg PUBLIC "-//W3C//DTD SVG 1.1//EN" "http://www.w3.org/Graphics/SVG/1.1/DTD/svg11.dtd">
<svg version="1.1" xmlns="http://www.w3.org/2000/svg" xmlns:xlink="http://www.w3.org/1999/xlink" x="0px" y="0px" width="16px"
	 height="16px" viewBox="0 0 16 16" style="enable-background:new 0 0 16 16;" xml:space="preserve">
<g id="animal-chicken" style="enable-background:new    ;">
	<g id="animal-chicken_1_">
		<g>
			<path d="M8.005,5.999c-2.209,0-4,1.791-4,4c0,2.21,1.791,4,4,4c2.209,0,3.999-1.79,3.999-4C12.004,7.79,10.214,5.999,8.005,5.999
				z M8.005,6.999c1.656,0,2.999,1.344,2.999,3l-2.999-1l-3,1C5.004,8.343,6.348,6.999,8.005,6.999z M8.005,12.999
				c-1.325,0-2.437-0.864-2.834-2.055l2.834-0.945l2.833,0.945C10.44,12.135,9.329,12.999,8.005,12.999z M9.463,1.294
				C9.358,0.567,8.76-0.001,8.005-0.001c-0.754,0-1.352,0.565-1.458,1.29c-2.737,1.04-5.054,4.783-5.054,7.96
				c0,3.728,3.189,6.75,6.506,6.75s6.506-3.022,6.506-6.75C14.505,6.077,12.194,2.341,9.463,1.294z M7.504,1.499
				c0-0.275,0.224-0.5,0.5-0.5c0.275,0,0.5,0.225,0.5,0.5V3.5c0,0.275-0.225,0.499-0.5,0.499c-0.277,0-0.5-0.224-0.5-0.499V1.499z
				 M7.999,14.999c-2.765,0-5.506-2.574-5.506-5.75c0-2.597,1.833-5.79,4.012-6.87V3.5c0,0.827,0.671,1.499,1.5,1.499
				c0.828,0,1.499-0.672,1.499-1.499V2.383c2.175,1.086,4.001,4.274,4.001,6.866C13.505,12.425,10.764,14.999,7.999,14.999z"/>
		</g>
	</g>
</g>
<g id="Layer_1">
</g>
</svg>
