<?xml version="1.0" encoding="iso-8859-1"?>
<!-- Generator: Adobe Illustrator 16.0.0, SVG Export Plug-In . SVG Version: 6.00 Build 0)  -->
<!DOCTYPE svg PUBLIC "-//W3C//DTD SVG 1.1//EN" "http://www.w3.org/Graphics/SVG/1.1/DTD/svg11.dtd">
<svg version="1.1" xmlns="http://www.w3.org/2000/svg" xmlns:xlink="http://www.w3.org/1999/xlink" x="0px" y="0px" width="16px"
	 height="16px" viewBox="0 0 16 16" style="enable-background:new 0 0 16 16;" xml:space="preserve">
<g id="animal-shrimp" style="enable-background:new    ;">
	<g id="animal-shrimp_2_">
		<g>
			<path d="M15.997,0.807l-0.704-0.811l-3.559,3.005H6.505L6.496,2.936L5.505,3.068l0.003,0.024c-2.794,0.433-4.988,2.64-5.41,5.442
				c0,0-0.098,0.709-0.098,0.967c0,2.133,1.041,4.008,2.626,5.193l0.858,0.533c0.905,0.479,1.921,0.773,3.016,0.773
				c1.923,0,3.625-0.857,4.812-2.188l0.041,0.041l3.5-3.5l-0.707-0.707l-3.167,3.168l-3.519-2.641L7.412,9.808
				c0.859-0.279,2.407-0.895,3.489-1.996c1.075-1.095,1.66-2.651,1.92-3.508l2.77,1.204l0.403-0.955l-2.927-1.272L15.997,0.807z
				 M5.639,4.076l0.689,5.171c-0.1,0.029-0.179,0.055-0.231,0.068L1.168,8.212C1.685,6.074,3.442,4.424,5.639,4.076z M3.258,13.925
				C1.895,12.923,1,11.321,1,9.501c0-0.094,0.023-0.182,0.028-0.275l5.101,1.189L3.258,13.925z M10.249,13.487
				c-0.98,0.93-2.29,1.514-3.749,1.514c-0.851,0-1.647-0.209-2.366-0.555l2.846-3.414L10.249,13.487z M10.193,7.095
				c-0.862,0.878-2.019,1.457-2.901,1.81L6.638,4.001h5.309C11.656,4.88,11.112,6.161,10.193,7.095z"/>
		</g>
	</g>
</g>
<g id="Layer_1">
</g>
</svg>
