<?xml version="1.0" encoding="iso-8859-1"?>
<!-- Generator: Adobe Illustrator 16.0.0, SVG Export Plug-In . SVG Version: 6.00 Build 0)  -->
<!DOCTYPE svg PUBLIC "-//W3C//DTD SVG 1.1//EN" "http://www.w3.org/Graphics/SVG/1.1/DTD/svg11.dtd">
<svg version="1.1" xmlns="http://www.w3.org/2000/svg" xmlns:xlink="http://www.w3.org/1999/xlink" x="0px" y="0px" width="16px"
	 height="16px" viewBox="0 0 16 16" style="enable-background:new 0 0 16 16;" xml:space="preserve">
<g id="animal-cow-a" style="enable-background:new    ;">
	<g id="animal-cow-a_1_">
		<g>
			<path d="M4.999,8.499c-1.104,0-2,0.895-2,2s0.896,2,2,2s2-0.895,2-2S6.104,8.499,4.999,8.499z M4.999,11.499
				c-0.552,0-1-0.447-1-1s0.448-1,1-1s1,0.447,1,1S5.551,11.499,4.999,11.499z M12.999,6.599V3.5h1.5c0.275,0,0.5-0.225,0.5-0.501
				c0-0.275-0.225-0.5-0.5-0.5h-1.5c0-1.104-0.895-1.999-2-1.999h-6c-1.104,0-2,0.896-2,1.999h-1.5c-0.276,0-0.5,0.225-0.5,0.5
				c0,0.276,0.224,0.501,0.5,0.501h1.5v3.1c-1.827,0.916-3,2.322-3,3.9c0,2.762,3.582,5,8,5c4.418,0,8-2.238,8-5
				C15.999,8.921,14.827,7.515,12.999,6.599z M3.999,2.499c0-0.552,0.448-1,1-1h6c0.553,0,1,0.448,1,1v3.675
				c-0.619-0.225-1.291-0.396-2-0.511V4c0-0.276-0.225-0.5-0.5-0.5s-0.5,0.224-0.5,0.5v1.542c-0.328-0.025-0.66-0.043-1-0.043
				c-0.339,0-0.672,0.018-1,0.043V4c0-0.276-0.224-0.5-0.5-0.5c-0.276,0-0.5,0.224-0.5,0.5v1.663c-0.71,0.114-1.381,0.286-2,0.511
				V2.499z M7.999,14.499c-3.866,0-7-1.791-7-4s3.134-4,7-4c3.865,0,7,1.792,7,4S11.864,14.499,7.999,14.499z M10.999,8.499
				c-1.105,0-2,0.895-2,2s0.895,2,2,2s2-0.895,2-2S12.104,8.499,10.999,8.499z M10.999,11.499c-0.553,0-1-0.447-1-1s0.447-1,1-1
				s1,0.447,1,1S11.552,11.499,10.999,11.499z"/>
		</g>
	</g>
</g>
<g id="Layer_1">
</g>
</svg>
