<?xml version="1.0" encoding="iso-8859-1"?>
<!-- Generator: Adobe Illustrator 16.0.0, SVG Export Plug-In . SVG Version: 6.00 Build 0)  -->
<!DOCTYPE svg PUBLIC "-//W3C//DTD SVG 1.1//EN" "http://www.w3.org/Graphics/SVG/1.1/DTD/svg11.dtd">
<svg version="1.1" xmlns="http://www.w3.org/2000/svg" xmlns:xlink="http://www.w3.org/1999/xlink" x="0px" y="0px" width="16px"
	 height="16px" viewBox="0 0 16 16" style="enable-background:new 0 0 16 16;" xml:space="preserve">
<g id="animal-cat" style="enable-background:new    ;">
	<g id="animal-cat_1_">
		<g>
			<path d="M9.516,11.498c-0.547,0-0.99-0.447-0.99-1H7.534c0,0.553-0.444,1-0.991,1s-0.991-0.447-0.991-1H4.561
				c0,1.104,0.887,2,1.982,2c0.596,0,1.124-0.271,1.486-0.69c0.363,0.42,0.892,0.69,1.486,0.69c1.096,0,1.982-0.896,1.982-2h-0.991
				C10.507,11.051,10.063,11.498,9.516,11.498z M14.936,0.501c-1.63,0.715-3.371,1.313-4.429,1.649
				C9.744,1.742,8.903,1.498,8.009,1.498c-0.915,0-1.772,0.258-2.549,0.686C4.384,1.846,2.667,1.266,1.062,0.58
				c0.008-0.021-0.115,0.861,0.03,1.418c0.325,1.248,1.003,3.167,1.319,4.039C2.162,6.805,2.009,7.628,2.009,8.498
				c0,3.866,2.686,6.999,6,6.999c3.313,0,5.999-3.133,5.999-6.999c0-0.874-0.153-1.701-0.404-2.472
				c0.313-0.885,0.981-2.825,1.303-4.088C15.05,1.375,14.929,0.48,14.936,0.501z M2.083,1.998l2.535,0.73
				c-0.7,0.562-1.277,1.3-1.72,2.147L2.083,1.998z M7.993,14.498c-2.758,0-4.993-2.687-4.993-6c0-3.314,2.235-6.001,4.993-6.001
				c2.757,0,4.992,2.688,4.992,6.001C12.985,11.812,10.75,14.498,7.993,14.498z M13.116,4.87c-0.45-0.86-1.037-1.611-1.751-2.175
				l2.561-0.757L13.116,4.87z"/>
		</g>
	</g>
</g>
<g id="Layer_1">
</g>
</svg>
