<?xml version="1.0" encoding="iso-8859-1"?>
<!-- Generator: Adobe Illustrator 16.0.0, SVG Export Plug-In . SVG Version: 6.00 Build 0)  -->
<!DOCTYPE svg PUBLIC "-//W3C//DTD SVG 1.1//EN" "http://www.w3.org/Graphics/SVG/1.1/DTD/svg11.dtd">
<svg version="1.1" xmlns="http://www.w3.org/2000/svg" xmlns:xlink="http://www.w3.org/1999/xlink" x="0px" y="0px" width="16px"
	 height="16px" viewBox="0 0 16 16" style="enable-background:new 0 0 16 16;" xml:space="preserve">
<g id="animal-pig" style="enable-background:new    ;">
	<g id="animal-pig_2_">
		<g>
			<path d="M5.999,10.999h1v-1h-1V10.999z M8.999,10.999h1v-1h-1V10.999z M14.161,6.477C16.021,4.123,14.192,0,14.192,0
				c-1.947,0.722-3.26,2.477-3.844,3.401C9.61,3.156,8.827,2.999,7.999,2.999c-0.829,0-1.612,0.157-2.35,0.402
				C5.065,2.476,3.752,0.721,1.805,0c0,0-1.827,4.123,0.032,6.478C1.319,7.383,0.999,8.401,0.999,9.499c0,3.59,3.134,6.5,7,6.5
				c3.865,0,7-2.91,7-6.5C14.999,8.401,14.679,7.383,14.161,6.477z M13.624,1.396c0.328,1.121,0.67,2.952-0.063,4.195
				c-0.586-0.718-1.326-1.309-2.178-1.75L11.3,3.773C11.747,3.103,12.546,2.079,13.624,1.396z M2.374,1.396
				c1.078,0.683,1.877,1.707,2.324,2.377L4.615,3.841c-0.852,0.441-1.592,1.032-2.178,1.75C1.703,4.348,2.046,2.517,2.374,1.396z
				 M7.999,14.999c-3.314,0-6-2.463-6-5.5c0-3.039,2.686-5.5,6-5.5c3.314,0,6,2.462,6,5.5C13.999,12.536,11.313,14.999,7.999,14.999
				z M7.999,7.999c-2.209,0-4,1.12-4,2.5s1.791,2.5,4,2.5c2.209,0,4-1.119,4-2.5S10.208,7.999,7.999,7.999z M7.999,11.999
				c-1.657,0-3-0.672-3-1.5s1.343-1.5,3-1.5c1.656,0,3,0.672,3,1.5S9.655,11.999,7.999,11.999z"/>
		</g>
	</g>
</g>
<g id="Layer_1">
</g>
</svg>
