<?xml version="1.0" encoding="iso-8859-1"?>
<!-- Generator: Adobe Illustrator 16.0.0, SVG Export Plug-In . SVG Version: 6.00 Build 0)  -->
<!DOCTYPE svg PUBLIC "-//W3C//DTD SVG 1.1//EN" "http://www.w3.org/Graphics/SVG/1.1/DTD/svg11.dtd">
<svg version="1.1" xmlns="http://www.w3.org/2000/svg" xmlns:xlink="http://www.w3.org/1999/xlink" x="0px" y="0px" width="16px"
	 height="16px" viewBox="0 0 16 16" style="enable-background:new 0 0 16 16;" xml:space="preserve">
<g id="animal-cow" style="enable-background:new    ;">
	<g id="animal-cow_1_">
		<g>
			<path d="M11.905,1.999c-0.672-0.888-2.869-1-3.842-1c-0.997,0-3.25,0.111-3.933,1h-4.131V2.5c0,0,1.168,2.554,3.072,2.912
				c0.019,0.119,0.034,0.236,0.063,0.367c0.719,3.259,1.812,7.279,2.991,8.616l0.061,0.069l0.08,0.036
				c0.116,0.051,1.146,0.498,1.798,0.498c0.686,0,1.689-0.449,1.801-0.5l0.078-0.036l0.059-0.067
				c1.096-1.241,2.031-4.167,2.801-7.779l0.078-0.84c0.027-0.125,0.041-0.236,0.059-0.352c1.896-0.368,3.061-2.923,3.061-2.923
				V1.999H11.905z M3.029,4.389C2.46,4.172,1.944,3.641,1.5,2.979h2.031C3.303,3.354,3.09,3.783,3.029,4.389z M4.094,5.579
				C3.842,4.401,4.122,3.943,4.477,3.363c0.13-0.213,0.265-0.433,0.377-0.696C5.003,2.317,6.528,2,8.054,1.999
				c0.316,0,0.631,0.018,0.936,0.043c0.271,1.125,0.553,3.684-2.26,4.457C5.626,6.802,4.958,7.197,4.555,7.601
				C4.404,6.975,4.251,6.314,4.094,5.579z M11.905,5.582l-0.076,0.371c-0.387,1.873-1.404,6.335-2.422,7.653
				c-0.305,0.136-0.963,0.393-1.354,0.393c-0.368,0-1.041-0.258-1.355-0.395c-0.484-0.625-1.038-1.924-1.651-4.105h0.121
				c0,0-1.17-1,2.6-2.5c2.769-1.102,2.585-3.59,2.306-4.805c0.592,0.123,1.016,0.291,1.09,0.469c0.109,0.263,0.24,0.482,0.367,0.695
				C11.878,3.94,12.153,4.399,11.905,5.582z M12.981,4.396c-0.057-0.607-0.266-1.038-0.488-1.414h2.004
				C14.058,3.643,13.546,4.175,12.981,4.396z"/>
		</g>
	</g>
</g>
<g id="Layer_1">
</g>
</svg>
