<?xml version="1.0" encoding="iso-8859-1"?>
<!-- Generator: Adobe Illustrator 16.0.0, SVG Export Plug-In . SVG Version: 6.00 Build 0)  -->
<!DOCTYPE svg PUBLIC "-//W3C//DTD SVG 1.1//EN" "http://www.w3.org/Graphics/SVG/1.1/DTD/svg11.dtd">
<svg version="1.1" xmlns="http://www.w3.org/2000/svg" xmlns:xlink="http://www.w3.org/1999/xlink" x="0px" y="0px" width="16px"
	 height="16px" viewBox="0 0 16 16" style="enable-background:new 0 0 16 16;" xml:space="preserve">
<g id="animal-fox" style="enable-background:new    ;">
	<g id="animal-fox_1_">
		<g>
			<path d="M15.159,0.279c-0.467,0-3.658-0.083-5.593,2.169C8.444,2.234,7.813,2.219,7.813,2.219S7.029,2.282,6.01,2.464
				C4.069,0.197,1.827,0.279,1.357,0.279C0.923,0.713,1.563,3.342,2.162,4.76C1.336,5.751,0.766,6.719,0.766,6.719s0.501,3,3.038,6
				c0.988,1.479,2.77,2.753,3.477,3h1.003c0.697-0.25,2.517-1.527,3.491-3c2.521-3.5,2.992-6,2.992-6s-0.561-0.973-1.375-1.967
				C13.989,3.33,15.591,0.711,15.159,0.279z M14.182,1.257c0.106,0.948-0.86,1.867-1.346,2.864
				c-0.622-0.651-1.332-1.223-2.045-1.402c-0.013-0.004-0.024-0.006-0.037-0.009C11.305,1.71,14.182,0.77,14.182,1.257z
				 M2.337,1.257c0-0.488,1.928,0.461,2.473,1.461c-0.001,0-0.003,0.001-0.005,0.001c-0.724,0.181-1.45,0.757-2.084,1.414
				C2.232,3.135,2.23,2.209,2.337,1.257z M13.776,6.898c0.058,1.307-1.398,3.093-2.838,5.27c-0.77,1.161-2.096,2.307-2.655,2.551
				H7.28c-0.572-0.243-1.864-1.389-2.643-2.555c-1.649-2.469-2.854-3.953-2.87-5.445C1.864,6.427,3.83,3.993,5.049,3.689
				c1.267-0.316,2.166-0.47,2.732-0.47c0.567,0,1.25,0.087,2.765,0.469C11.761,3.994,13.69,6.63,13.776,6.898z M7.781,13.219
				l2.005-2H5.777L7.781,13.219z"/>
		</g>
	</g>
</g>
<g id="Layer_1">
</g>
</svg>
