<?xml version="1.0" encoding="iso-8859-1"?>
<!-- Generator: Adobe Illustrator 16.0.0, SVG Export Plug-In . SVG Version: 6.00 Build 0)  -->
<!DOCTYPE svg PUBLIC "-//W3C//DTD SVG 1.1//EN" "http://www.w3.org/Graphics/SVG/1.1/DTD/svg11.dtd">
<svg version="1.1" xmlns="http://www.w3.org/2000/svg" xmlns:xlink="http://www.w3.org/1999/xlink" x="0px" y="0px" width="16px"
	 height="16px" viewBox="0 0 16 16" style="enable-background:new 0 0 16 16;" xml:space="preserve">
<g id="animal-monkey" style="enable-background:new    ;">
	<g id="animal-monkey_2_">
		<g>
			<path d="M15.499,6c0-1.934-1.344-3.5-3-3.5c-0.283,0-0.553,0.061-0.813,0.146c-0.768-1.225-2.02-2.026-3.445-2.113L8.165,0.499
				L8.118,0.516C8.077,0.515,8.04,0.5,7.999,0.5c-1.529,0-2.875,0.852-3.688,2.146C4.051,2.56,3.782,2.5,3.499,2.5
				c-1.657,0-3,1.566-3,3.5c0,1.197,0.517,2.251,1.302,2.882c-0.178,0.432-0.302,0.881-0.302,1.354c0,2.617,2.91,5.264,6.5,5.264
				s6.5-2.646,6.5-5.264c0-0.473-0.125-0.922-0.303-1.354C14.981,8.251,15.499,7.197,15.499,6z M1.499,6c0-1.381,0.896-2.5,2-2.5
				c0.123,0,0.241,0.019,0.358,0.045C3.627,4.145,3.499,4.805,3.499,5.5c0,0.43,0.06,0.841,0.151,1.238
				C3.107,7.097,2.658,7.521,2.306,7.996C1.818,7.539,1.499,6.819,1.499,6z M7.999,14.499c-3.038,0-5.5-2.205-5.5-4.266
				c0-1.262,0.927-2.371,2.336-3.047C4.625,6.672,4.499,6.105,4.499,5.5c0-1.814,1.063-3.328,2.511-3.818
				C7.5,2.305,8.165,3.361,8.165,4.5c0-1.12,0.516-2.161,0.906-2.789c1.404,0.521,2.428,2.01,2.428,3.789
				c0,0.605-0.127,1.173-0.336,1.687c1.408,0.677,2.336,1.786,2.336,3.047C13.499,12.294,11.036,14.499,7.999,14.499z M12.347,6.738
				c0.092-0.397,0.152-0.809,0.152-1.238c0-0.694-0.129-1.354-0.357-1.955C12.257,3.518,12.376,3.5,12.499,3.5
				c1.104,0,2,1.119,2,2.5c0,0.819-0.32,1.539-0.807,1.995C13.341,7.521,12.892,7.097,12.347,6.738z"/>
		</g>
	</g>
</g>
<g id="Layer_1">
</g>
</svg>
