<?xml version="1.0" encoding="iso-8859-1"?>
<!-- Generator: Adobe Illustrator 16.0.0, SVG Export Plug-In . SVG Version: 6.00 Build 0)  -->
<!DOCTYPE svg PUBLIC "-//W3C//DTD SVG 1.1//EN" "http://www.w3.org/Graphics/SVG/1.1/DTD/svg11.dtd">
<svg version="1.1" xmlns="http://www.w3.org/2000/svg" xmlns:xlink="http://www.w3.org/1999/xlink" x="0px" y="0px" width="16px"
	 height="16px" viewBox="0 0 16 16" style="enable-background:new 0 0 16 16;" xml:space="preserve">
<g id="animal-lion" style="enable-background:new    ;">
	<g id="animal-lion_2_">
		<g>
			<path d="M15.499,0.501c-1.7,0.739-3.726,1.35-4.927,1.68C9.77,1.749,8.902,1.497,8.024,1.497c-0.902,0-1.792,0.268-2.613,0.722
				C4.189,1.889,2.185,1.294,0.5,0.579C0.507,0.558,0.384,1.44,0.53,1.997c0.305,1.159,1.154,2.882,1.642,3.822
				C1.761,6.736,1.519,7.732,1.519,8.747c0,3.729,3.189,6.75,6.506,6.75c3.317,0,6.507-3.021,6.507-6.75
				c0-1.03-0.251-2.041-0.673-2.97c0.486-0.961,1.313-2.679,1.61-3.84C15.613,1.374,15.491,0.479,15.499,0.501z M1.53,1.997
				l3.047,0.762C3.862,3.304,3.227,3.995,2.724,4.783L1.53,1.997z M8.024,14.497c-1.212,0-2.406-0.515-3.379-1.338l3.385-1.474
				l3.378,1.47C10.434,13.98,9.239,14.497,8.024,14.497z M12.179,12.373L8.53,10.786V9.634C9.486,9.22,9.999,7.747,9.999,7.747
				s-0.973-0.5-1.969-0.5c-0.972,0-1.968,0.5-1.968,0.5S6.574,9.22,7.53,9.634v1.152l-3.656,1.591
				c-0.816-0.993-1.355-2.246-1.355-3.63c0-3.176,2.741-6.25,5.506-6.25c2.766,0,5.507,3.074,5.507,6.25
				C13.531,10.13,12.993,11.381,12.179,12.373z M13.301,4.748c-0.512-0.793-1.156-1.485-1.882-2.026l3.062-0.784L13.301,4.748z"/>
		</g>
	</g>
</g>
<g id="Layer_1">
</g>
</svg>
