<?xml version="1.0" encoding="iso-8859-1"?>
<!-- Generator: Adobe Illustrator 16.0.0, SVG Export Plug-In . SVG Version: 6.00 Build 0)  -->
<!DOCTYPE svg PUBLIC "-//W3C//DTD SVG 1.1//EN" "http://www.w3.org/Graphics/SVG/1.1/DTD/svg11.dtd">
<svg version="1.1" xmlns="http://www.w3.org/2000/svg" xmlns:xlink="http://www.w3.org/1999/xlink" x="0px" y="0px" width="16px"
	 height="16px" viewBox="0 0 16 16" style="enable-background:new 0 0 16 16;" xml:space="preserve">
<g id="animal-dog" style="enable-background:new    ;">
	<g id="animal-dog_1_">
		<g>
			<path d="M6.142,9.998c0,0,0.689,2,1.968,2s1.968-2,1.968-2s-0.972-0.5-1.968-0.5C7.139,9.498,6.142,9.998,6.142,9.998z
				 M15.822,4.209c-0.557-2.168-2.216-3.055-3.833-3.137c-0.688-0.034-1.373,0.064-1.917,0.366c-0.65-0.271-1.345-0.44-2.08-0.44
				c-0.7,0-1.362,0.16-1.988,0.408C5.45,1.063,4.729,0.958,4.007,0.995C2.39,1.077,0.731,1.977,0.174,4.175
				C-0.383,6.372,0.43,8.512,1.989,8.953c0.03,0.009,0.066,0.006,0.098,0.012c0.504,3.242,2.954,6.033,5.906,6.033
				c2.961,0,5.417-2.808,5.91-6.063c0.034-0.005,0.072-0.003,0.105-0.012C15.567,8.487,16.38,6.377,15.822,4.209z M2.242,7.959
				c-1.04-0.295-1.544-1.87-1.126-3.518c0.418-1.648,2.303-2.509,3.383-2.509c1,0,1.918,0.417,1.5,2.065S3.282,8.253,2.242,7.959z
				 M7.993,13.998c-2.462,0-4.499-2.44-4.917-5.217c1.686-0.765,3.923-3.5,3.923-5.328c0-0.508-0.094-0.92-0.259-1.251
				c0.403-0.12,0.818-0.204,1.253-0.204c0.452,0,0.88,0.091,1.296,0.219C9.107,2.553,8.998,2.971,8.998,3.498
				c0,1.8,2.229,4.491,3.915,5.251C12.505,11.539,10.465,13.998,7.993,13.998z M13.755,7.941c-1.04,0.291-3.339-2.317-3.757-3.943
				s0.5-2,1.5-2c1.08,0,2.965,0.849,3.383,2.474C15.299,6.098,14.795,7.651,13.755,7.941z"/>
		</g>
	</g>
</g>
<g id="Layer_1">
</g>
</svg>
