<?xml version="1.0" encoding="iso-8859-1"?>
<!-- Generator: Adobe Illustrator 16.0.0, SVG Export Plug-In . SVG Version: 6.00 Build 0)  -->
<!DOCTYPE svg PUBLIC "-//W3C//DTD SVG 1.1//EN" "http://www.w3.org/Graphics/SVG/1.1/DTD/svg11.dtd">
<svg version="1.1" xmlns="http://www.w3.org/2000/svg" xmlns:xlink="http://www.w3.org/1999/xlink" x="0px" y="0px" width="16px"
	 height="16px" viewBox="0 0 16 16" style="enable-background:new 0 0 16 16;" xml:space="preserve">
<g id="animal-monkey-a" style="enable-background:new    ;">
	<g id="animal-monkey-a_1_">
		<g>
			<path d="M15.999,5.999c0-1.934-1.344-3.5-3-3.5c-0.436,0-0.846,0.113-1.219,0.307c-0.801-1.384-2.191-2.307-3.781-2.307
				c-1.591,0-2.981,0.923-3.782,2.307C3.844,2.612,3.434,2.499,2.999,2.499c-1.657,0-3,1.566-3,3.5c0,1.615,0.942,2.96,2.216,3.364
				c-0.127,0.365-0.216,0.741-0.216,1.136c0,2.485,2.686,5,6,5c3.314,0,6-2.515,6-5c0-0.395-0.09-0.771-0.217-1.136
				C15.056,8.959,15.999,7.614,15.999,5.999z M0.999,5.999c0-1.381,0.896-2.5,2-2.5c0.288,0,0.561,0.079,0.808,0.217
				C3.615,4.271,3.499,4.869,3.499,5.499c0,0.632,0.116,1.229,0.309,1.786C3.347,7.623,2.977,8.024,2.679,8.459
				C1.728,8.267,0.999,7.243,0.999,5.999z M7.999,14.499c-2.762,0-5-2.067-5-4c0-1.164,0.82-2.188,2.069-2.824
				C4.711,7.048,4.499,6.303,4.499,5.499c0-1.624,0.851-3.016,2.067-3.643c0.68,0.304,1.433,0.818,1.433,1.643
				c0-0.893,0.705-1.425,1.279-1.715c1.299,0.585,2.221,2.023,2.221,3.715c0,0.804-0.213,1.549-0.568,2.176
				c1.248,0.637,2.068,1.66,2.068,2.824C12.999,12.432,10.761,14.499,7.999,14.499z M13.319,8.459
				c-0.299-0.435-0.668-0.836-1.129-1.174c0.191-0.557,0.309-1.154,0.309-1.786c0-0.63-0.117-1.228-0.309-1.783
				c0.248-0.138,0.52-0.217,0.809-0.217c1.104,0,2,1.119,2,2.5C14.999,7.243,14.271,8.267,13.319,8.459z M7.999,11.499
				c-1.657,0-3-0.896-3-2h-1c0,1.657,1.791,3,4,3c2.209,0,4-1.343,4-3h-1C10.999,10.604,9.655,11.499,7.999,11.499z"/>
		</g>
	</g>
</g>
<g id="Layer_1">
</g>
</svg>
