<?xml version="1.0" encoding="iso-8859-1"?>
<!-- Generator: Adobe Illustrator 16.0.0, SVG Export Plug-In . SVG Version: 6.00 Build 0)  -->
<!DOCTYPE svg PUBLIC "-//W3C//DTD SVG 1.1//EN" "http://www.w3.org/Graphics/SVG/1.1/DTD/svg11.dtd">
<svg version="1.1" xmlns="http://www.w3.org/2000/svg" xmlns:xlink="http://www.w3.org/1999/xlink" x="0px" y="0px" width="16px"
	 height="16px" viewBox="0 0 16 16" style="enable-background:new 0 0 16 16;" xml:space="preserve">
<g id="animal-husky" style="enable-background:new    ;">
	<g id="animal-husky_2_">
		<g>
			<path d="M14.541,0.5c-1.478,0.692-2.52,2.276-3.074,3.309c-0.982-0.817-2.176-1.31-3.474-1.31H7.985L7.982,2.5
				C6.693,2.502,5.506,2.99,4.528,3.8C3.972,2.769,2.931,1.191,1.457,0.5c0,0-1.378,3.405,0.7,7.427
				C2.054,8.44,1.987,8.968,1.987,9.519c0,3.877,2.689,5.98,6.006,5.98c3.317,0,6.007-2.104,6.007-5.98
				c0-0.545-0.065-1.07-0.166-1.579C15.922,3.913,14.541,0.5,14.541,0.5z M1.997,2.062c0.85,0.722,1.467,1.734,1.826,2.419
				C3.295,5.078,2.87,5.789,2.557,6.577C1.799,4.71,1.835,3.08,1.997,2.062z M7.993,14.499c-2.765,0-5.006-1.65-5.006-4.977
				c0-2.887,1.689-5.293,3.942-5.881C7.448,4.081,7.985,4.72,7.985,5.499c0-0.781,0.542-1.422,1.062-1.861
				C11.305,4.22,13,6.63,13,9.522C13,12.849,10.759,14.499,7.993,14.499z M12.172,4.489c0.358-0.686,0.978-1.703,1.83-2.427
				c0.161,1.021,0.199,2.657-0.565,4.528C13.125,5.8,12.699,5.087,12.172,4.489z M6.143,10.999c0,0,0.689,2,1.969,2
				c1.279,0,1.968-2,1.968-2s-0.972-0.5-1.968-0.5C7.139,10.499,6.143,10.999,6.143,10.999z"/>
		</g>
	</g>
</g>
<g id="Layer_1">
</g>
</svg>
