<?xml version="1.0" encoding="iso-8859-1"?>
<!-- Generator: Adobe Illustrator 16.0.0, SVG Export Plug-In . SVG Version: 6.00 Build 0)  -->
<!DOCTYPE svg PUBLIC "-//W3C//DTD SVG 1.1//EN" "http://www.w3.org/Graphics/SVG/1.1/DTD/svg11.dtd">
<svg version="1.1" xmlns="http://www.w3.org/2000/svg" xmlns:xlink="http://www.w3.org/1999/xlink" x="0px" y="0px" width="16px"
	 height="16px" viewBox="0 0 16 16" style="enable-background:new 0 0 16 16;" xml:space="preserve">
<g id="animal-sheep" style="enable-background:new    ;">
	<g id="animal-sheep_1_">
		<g>
			<path d="M11.013,3.083C11.011,3.055,10.999,3.026,10.999,3c0-0.75-1.893-1-2.936-1C6.996,2,4.999,2.25,4.999,3
				c0,0.025-0.012,0.057-0.015,0.083c-1.71,0.229-4.985,1.104-4.985,4.474c0,0,2.529,1.054,4.303-0.143
				c1.741,6.533,2.463,6.087,2.463,6.087c0.116,0.051,0.646,0.498,1.298,0.498c0.686,0,1.189-0.449,1.301-0.5
				c0,0,0.598,0.447,2.344-6.077c1.773,1.184,4.291,0.134,4.291,0.134C15.999,4.186,12.722,3.311,11.013,3.083z M4.105,6.58
				C2.926,7.652,0.999,7.05,0.999,7.05c0-2.252,2.645-2.858,3.633-3.007C4.309,4.733,3.93,5.602,4.105,6.58z M10.905,6.583
				c-0.906,4.417-1.906,5.917-1.906,5.917s-0.609,0.5-1,0.5c-0.369,0-1-0.5-1-0.5s-1-1.5-1.905-5.919
				C4.853,5.399,5.122,4.944,5.477,4.364c0.13-0.213,0.265-0.434,0.377-0.696C6.003,3.318,6.528,3,8.054,2.999
				c1.484,0,1.967,0.317,2.111,0.664c0.109,0.263,0.24,0.483,0.367,0.696C10.878,4.94,11.144,5.421,10.905,6.583z M11.907,6.594
				c0.184-0.994-0.234-1.848-0.566-2.555c0.963,0.141,3.658,0.736,3.658,3.011C14.999,7.05,13.087,7.649,11.907,6.594z"/>
		</g>
	</g>
</g>
<g id="Layer_1">
</g>
</svg>
