<?xml version="1.0" encoding="iso-8859-1"?>
<!-- Generator: Adobe Illustrator 16.0.0, SVG Export Plug-In . SVG Version: 6.00 Build 0)  -->
<!DOCTYPE svg PUBLIC "-//W3C//DTD SVG 1.1//EN" "http://www.w3.org/Graphics/SVG/1.1/DTD/svg11.dtd">
<svg version="1.1" xmlns="http://www.w3.org/2000/svg" xmlns:xlink="http://www.w3.org/1999/xlink" x="0px" y="0px" width="16px"
	 height="16px" viewBox="0 0 16 16" style="enable-background:new 0 0 16 16;" xml:space="preserve">
<g id="animal-bull" style="enable-background:new    ;">
	<g id="animal-bull_2_">
		<g>
			<path d="M11.905,2.998c-0.197-0.263-0.518-0.46-0.914-0.603l0.941-1.64c0.137-0.241,0.055-0.549-0.184-0.688
				c-0.24-0.139-0.545-0.056-0.684,0.185L9.981,2.144C9.259,2.026,8.522,1.998,8.063,1.998c-0.487,0-1.278,0.029-2.04,0.157
				L4.932,0.252c-0.138-0.24-0.444-0.323-0.683-0.185C4.01,0.207,3.928,0.515,4.066,0.756l0.951,1.658
				C4.634,2.555,4.324,2.746,4.131,2.998h-4.132v0.501c0,0,1.168,2.554,3.072,2.912c0.019,0.12,0.034,0.236,0.063,0.367
				c0.37,1.678,1.339,3.558,1.869,5.169c0.499,1.519,0.55,2.799,1.123,3.447l0.061,0.069l0.08,0.035
				c0.116,0.052,1.146,0.499,1.798,0.499c0.686,0,1.689-0.449,1.801-0.501l0.078-0.035l0.059-0.067
				c0.605-0.686,0.498-1.896,0.998-3.396c0.539-1.618,1.395-3.445,1.881-5.223c0.035-0.128,0.055-0.238,0.078-0.354
				c1.885-0.382,3.041-2.92,3.041-2.92V2.998H11.905z M3.029,5.389C2.46,5.171,1.943,4.64,1.5,3.978h2.031
				C3.303,4.353,3.09,4.782,3.029,5.389z M11.905,6.581c-0.525,2.327-1.422,4.149-1.848,5.398c-0.383,1.117-0.254,2.113-0.648,2.626
				c-0.307,0.136-0.965,0.393-1.355,0.393c-0.368,0-1.041-0.259-1.355-0.395c-0.365-0.472-0.269-1.314-0.709-2.637
				c-0.432-1.299-1.398-3.061-1.896-5.389C3.842,5.4,4.122,4.942,4.477,4.362c0.13-0.213,0.265-0.433,0.377-0.696
				c0.149-0.35,1.674-0.667,3.2-0.668c1.484,0,2.967,0.316,3.111,0.664c0.109,0.263,0.24,0.483,0.367,0.695
				C11.878,4.938,12.167,5.425,11.905,6.581z M13.036,5.382c-0.055-0.62-0.299-1.029-0.537-1.399h1.998
				C14.071,4.621,13.579,5.148,13.036,5.382z"/>
		</g>
	</g>
</g>
<g id="Layer_1">
</g>
</svg>
