<?xml version="1.0" encoding="iso-8859-1"?>
<!-- Generator: Adobe Illustrator 16.0.0, SVG Export Plug-In . SVG Version: 6.00 Build 0)  -->
<!DOCTYPE svg PUBLIC "-//W3C//DTD SVG 1.1//EN" "http://www.w3.org/Graphics/SVG/1.1/DTD/svg11.dtd">
<svg version="1.1" xmlns="http://www.w3.org/2000/svg" xmlns:xlink="http://www.w3.org/1999/xlink" x="0px" y="0px" width="16px"
	 height="16px" viewBox="0 0 16 16" style="enable-background:new 0 0 16 16;" xml:space="preserve">
<g id="animal-wolf" style="enable-background:new    ;">
	<g id="animal-wolf_1_">
		<g>
			<path d="M6.143,10.999c0,0,0.689,2,1.969,2c1.279,0,1.968-2,1.968-2s-0.972-0.5-1.968-0.5
				C7.139,10.499,6.143,10.999,6.143,10.999z M14.541,0.5c-1.478,0.692-2.52,2.276-3.074,3.309c-0.982-0.817-2.176-1.31-3.474-1.31
				H7.985L7.98,2.5C6.692,2.502,5.505,2.99,4.528,3.8C3.972,2.769,2.931,1.191,1.457,0.5c0,0-1.378,3.405,0.7,7.427
				C2.054,8.44,1.987,8.968,1.987,9.519c0,3.877,2.689,5.98,6.006,5.98c3.317,0,6.007-2.104,6.007-5.98
				c0-0.545-0.065-1.07-0.166-1.579C15.922,3.913,14.541,0.5,14.541,0.5z M1.997,2.062c0.85,0.722,1.467,1.734,1.826,2.419
				C3.295,5.078,2.87,5.789,2.557,6.577C1.799,4.71,1.835,3.08,1.997,2.062z M12.963,10.024c-0.594,0.221-1.343,0.348-1.96-0.027
				c0.907,0.551,1.084,1.91,1.115,2.592c-0.902,1.273-2.411,1.91-4.125,1.91c-1.707,0-3.21-0.635-4.114-1.898
				c0.029-0.68,0.204-2.049,1.116-2.604c-0.622,0.379-1.376,0.246-1.972,0.023C3.009,9.856,2.987,9.698,2.987,9.522
				c0-2.887,1.689-5.293,3.942-5.881c0.518,0.439,1.056,1.078,1.056,1.857c0-0.781,0.542-1.422,1.062-1.861
				C11.305,4.22,13,6.63,13,9.522C13,9.7,12.979,9.858,12.963,10.024z M12.172,4.488c0.358-0.685,0.978-1.702,1.83-2.426
				c0.161,1.021,0.199,2.657-0.565,4.528C13.125,5.8,12.699,5.087,12.172,4.488z"/>
		</g>
	</g>
</g>
<g id="Layer_1">
</g>
</svg>
