<?xml version="1.0" encoding="iso-8859-1"?>
<!-- Generator: Adobe Illustrator 16.0.0, SVG Export Plug-In . SVG Version: 6.00 Build 0)  -->
<!DOCTYPE svg PUBLIC "-//W3C//DTD SVG 1.1//EN" "http://www.w3.org/Graphics/SVG/1.1/DTD/svg11.dtd">
<svg version="1.1" xmlns="http://www.w3.org/2000/svg" xmlns:xlink="http://www.w3.org/1999/xlink" x="0px" y="0px" width="16px"
	 height="16px" viewBox="0 0 16 16" style="enable-background:new 0 0 16 16;" xml:space="preserve">
<g id="animal-fish" style="enable-background:new    ;">
	<g id="animal-fish_2_">
		<g>
			<path d="M11.767,3.409c-0.818-0.286-1.574-0.41-2.271-0.41c-3.639,0-5.615,3.39-6.103,4.56l-3.393-3.56v7.5l3.403-3.121
				c0.503,1.217,2.354,4.621,5.927,4.621c0.688,0,1.439-0.126,2.258-0.418c2.881-1.029,4.412-4.115,4.412-4.629
				C15.999,7.447,14.647,4.419,11.767,3.409z M0.959,9.547V6.211l1.494,1.767L0.959,9.547z M10.999,11.711
				c-0.578,0.18-1.141,0.288-1.67,0.288c-3.22,0-4.767-3.345-5.044-4.016L4.273,7.956c0.076-0.181,1.703-3.957,5.222-3.957
				c0.482,0,0.988,0.094,1.504,0.235V11.711z M11.999,11.305V4.6c1.803,0.89,2.824,2.719,3.02,3.341
				C14.815,8.515,13.771,10.343,11.999,11.305z"/>
		</g>
	</g>
</g>
<g id="Layer_1">
</g>
</svg>
