<?xml version="1.0" encoding="iso-8859-1"?>
<!-- Generator: Adobe Illustrator 16.0.0, SVG Export Plug-In . SVG Version: 6.00 Build 0)  -->
<!DOCTYPE svg PUBLIC "-//W3C//DTD SVG 1.1//EN" "http://www.w3.org/Graphics/SVG/1.1/DTD/svg11.dtd">
<svg version="1.1" xmlns="http://www.w3.org/2000/svg" xmlns:xlink="http://www.w3.org/1999/xlink" x="0px" y="0px" width="16px"
	 height="16px" viewBox="0 0 16 16" style="enable-background:new 0 0 16 16;" xml:space="preserve">
<g id="beverage-milk-a" style="enable-background:new    ;">
	<g id="beverage-milk-a_2_">
		<g>
			<path d="M11.999,7c0-0.5-2-1-2-1V3V2.999c0.553,0,1-0.672,1-1.5c0-0.829-0.447-1.5-1-1.5h-4c-0.552,0-1,0.671-1,1.5
				c0,0.828,0.448,1.5,1,1.5V3v3c0,0-2,0.5-2,1s0,7.999,0,7.999h0.05c-0.028,0.078-0.05,0.162-0.05,0.25
				c0,0.414,0.335,0.75,0.75,0.75h6.5c0.414,0,0.75-0.336,0.75-0.75c0-0.088-0.023-0.172-0.051-0.25h0.051
				C11.999,14.999,11.999,7.5,11.999,7z M6.499,1h0.833h1.333h0.834c0.275,0,0.5,0.224,0.5,0.5S9.774,2,9.499,2h-0.5v0.002h-2V2
				h-0.5c-0.276,0-0.5-0.224-0.5-0.5S6.223,1,6.499,1z M10.999,12.499v2c0,0.277-0.225,0.5-0.5,0.5h-5c-0.276,0-0.5-0.223-0.5-0.5
				v-1h0c0,0,0-5.057,0-5.5c0-1,2-0.999,2-0.999V3.5V3h2v4c0,0,2,0,2,1C10.999,8.317,10.999,11.003,10.999,12.499z"/>
		</g>
	</g>
</g>
<g id="Layer_1">
</g>
</svg>
