<?xml version="1.0" encoding="iso-8859-1"?>
<!-- Generator: Adobe Illustrator 16.0.0, SVG Export Plug-In . SVG Version: 6.00 Build 0)  -->
<!DOCTYPE svg PUBLIC "-//W3C//DTD SVG 1.1//EN" "http://www.w3.org/Graphics/SVG/1.1/DTD/svg11.dtd">
<svg version="1.1" xmlns="http://www.w3.org/2000/svg" xmlns:xlink="http://www.w3.org/1999/xlink" x="0px" y="0px" width="16px"
	 height="16px" viewBox="0 0 16 16" style="enable-background:new 0 0 16 16;" xml:space="preserve">
<g id="beverage-water-glass" style="enable-background:new    ;">
	<g id="beverage-water-glass_1_">
		<g>
			<path d="M7.999-0.001c-3.314,0-5,1.344-5,3c0,0.001,0,0.001,0,0.001v10c0,1.658,1.686,3,5,3c3.314,0,5-1.342,5-3V3
				c0,0,0,0,0-0.001C12.999,1.342,11.313-0.001,7.999-0.001z M11.999,12.999c0,1.105-1.238,2-4,2s-4-0.895-4-2V4.913
				C4.824,5.571,6.148,6,7.999,6c1.852,0,3.174-0.429,4-1.087V12.999z M7.999,5c-2.762,0-4-0.896-4-2.001
				c0-1.104,1.238-1.999,4-1.999s4,0.895,4,1.999C11.999,4.104,10.761,5,7.999,5z"/>
		</g>
	</g>
</g>
<g id="Layer_1">
</g>
</svg>
