<?xml version="1.0" encoding="iso-8859-1"?>
<!-- Generator: Adobe Illustrator 16.0.0, SVG Export Plug-In . SVG Version: 6.00 Build 0)  -->
<!DOCTYPE svg PUBLIC "-//W3C//DTD SVG 1.1//EN" "http://www.w3.org/Graphics/SVG/1.1/DTD/svg11.dtd">
<svg version="1.1" xmlns="http://www.w3.org/2000/svg" xmlns:xlink="http://www.w3.org/1999/xlink" x="0px" y="0px" width="16px"
	 height="16px" viewBox="0 0 16 16" style="enable-background:new 0 0 16 16;" xml:space="preserve">
<g id="beverage-alt-glass-a" style="enable-background:new    ;">
	<g id="beverage-alt-glass-a_2_">
		<g>
			<path d="M13.499,3.999c0-2-1-4-1-4h-9c0,0-1,2-1,4c0,3.912,2.197,5.621,5,5.966v5.034h-2c-0.276,0-0.5,0.224-0.5,0.5
				s0.224,0.5,0.5,0.5h2h1h2c0.275,0,0.5-0.224,0.5-0.5s-0.225-0.5-0.5-0.5h-2V9.965C11.302,9.62,13.499,7.911,13.499,3.999z
				 M7.999,9.062c-2.531,0-4.5-1.438-4.5-5.063c0-2,0.472-2.517,0.552-3h7.896c0.08,0.483,0.553,1,0.553,3
				C12.499,7.624,10.53,9.062,7.999,9.062z"/>
		</g>
	</g>
</g>
<g id="Layer_1">
</g>
</svg>
