<?xml version="1.0" encoding="iso-8859-1"?>
<!-- Generator: Adobe Illustrator 16.0.0, SVG Export Plug-In . SVG Version: 6.00 Build 0)  -->
<!DOCTYPE svg PUBLIC "-//W3C//DTD SVG 1.1//EN" "http://www.w3.org/Graphics/SVG/1.1/DTD/svg11.dtd">
<svg version="1.1" xmlns="http://www.w3.org/2000/svg" xmlns:xlink="http://www.w3.org/1999/xlink" x="0px" y="0px" width="16px"
	 height="16px" viewBox="0 0 16 16" style="enable-background:new 0 0 16 16;" xml:space="preserve">
<g id="beverage-tea-a" style="enable-background:new    ;">
	<g id="beverage-tea-a_1_">
		<g>
			<path d="M6.999,0.499h-1v4h1V0.499z M9.999,1.499h-1v3h1V1.499z M11.499,14.499h-10c-0.276,0-0.5,0.224-0.5,0.5
				s0.224,0.5,0.5,0.5h10c0.275,0,0.5-0.224,0.5-0.5S11.774,14.499,11.499,14.499z M14.999,6.499h-2c-0.018,0-0.031,0.01-0.049,0.01
				c-0.002-0.003-0.002-0.006-0.002-0.01h0.051v-1h-13v1h0.05c-0.013,0.168-0.05,0.329-0.05,0.5c0,4.5,2.91,6.5,6.5,6.5
				c2.631,0,4.891-0.813,5.914-3.211c0.166,0.124,0.361,0.211,0.586,0.211h2c0.553,0,1-0.447,1-1v-2
				C15.999,6.947,15.552,6.499,14.999,6.499z M6.499,12.499c-2.621,0-4.804-1.126-5.356-4H11.89
				C11.386,11.729,9.165,12.499,6.499,12.499z M11.981,7.499H1.039c-0.01-0.17-0.04-0.319-0.04-0.5c0-0.171,0.035-0.332,0.05-0.5
				h10.899c0.016,0.168,0.051,0.329,0.051,0.5C11.999,7.174,11.989,7.334,11.981,7.499z M14.999,8.499v0.5v0.5h-0.5h-1h-0.5v-0.5
				v-0.5v-0.5c0-0.276,0.225-0.5,0.5-0.5h1c0.275,0,0.5,0.224,0.5,0.5V8.499z M3.999,1.499h-1v3h1V1.499z"/>
		</g>
	</g>
</g>
<g id="Layer_1">
</g>
</svg>
