<?xml version="1.0" encoding="iso-8859-1"?>
<!-- Generator: Adobe Illustrator 16.0.0, SVG Export Plug-In . SVG Version: 6.00 Build 0)  -->
<!DOCTYPE svg PUBLIC "-//W3C//DTD SVG 1.1//EN" "http://www.w3.org/Graphics/SVG/1.1/DTD/svg11.dtd">
<svg version="1.1" xmlns="http://www.w3.org/2000/svg" xmlns:xlink="http://www.w3.org/1999/xlink" x="0px" y="0px" width="16px"
	 height="16px" viewBox="0 0 16 16" style="enable-background:new 0 0 16 16;" xml:space="preserve">
<g id="beverage-alt-glass" style="enable-background:new    ;">
	<g id="beverage-alt-glass_1_">
		<g>
			<path d="M13.499,3.999c0-2-1-4-1-4h-9c0,0-1,2-1,4c0,3.912,2.197,5.621,5,5.966v5.034h-2c-0.276,0-0.5,0.224-0.5,0.5
				s0.224,0.5,0.5,0.5h2h1h2c0.275,0,0.5-0.224,0.5-0.5s-0.225-0.5-0.5-0.5h-2V9.965C11.302,9.62,13.499,7.911,13.499,3.999z
				 M4.051,0.999h7.896c0.074,0.44,0.467,0.922,0.537,2.515c-1,1-2.494,2.477-4.485,0.485c-2-2-4.5,0-4.5,0
				C3.499,1.999,3.971,1.482,4.051,0.999z M7.999,9.062c-2.292,0-4.107-1.198-4.432-4.112c0.395-0.288,2.616-1.766,4.432,0.05
				c1.977,1.977,3.461,0.537,4.461-0.462C12.265,7.748,10.396,9.062,7.999,9.062z"/>
		</g>
	</g>
</g>
<g id="Layer_1">
</g>
</svg>
