<?xml version="1.0" encoding="iso-8859-1"?>
<!-- Generator: Adobe Illustrator 16.0.0, SVG Export Plug-In . SVG Version: 6.00 Build 0)  -->
<!DOCTYPE svg PUBLIC "-//W3C//DTD SVG 1.1//EN" "http://www.w3.org/Graphics/SVG/1.1/DTD/svg11.dtd">
<svg version="1.1" xmlns="http://www.w3.org/2000/svg" xmlns:xlink="http://www.w3.org/1999/xlink" x="0px" y="0px" width="16px"
	 height="16px" viewBox="0 0 16 16" style="enable-background:new 0 0 16 16;" xml:space="preserve">
<g id="beverage-alt-glass-b" style="enable-background:new    ;">
	<g id="beverage-alt-glass-b_1_">
		<g>
			<path d="M2.499-0.001v1c0,0,0,0.42,0,1.5c0,3.912,2.197,7.121,5,7.466v5.034h-2c-0.276,0-0.5,0.224-0.5,0.5s0.224,0.5,0.5,0.5h2
				h1h2c0.275,0,0.5-0.224,0.5-0.5s-0.225-0.5-0.5-0.5h-2V9.965c2.803-0.345,5-3.554,5-7.466c0-0.573,0-1.5,0-1.5v-1H2.499z
				 M7.999,9.062c-1.964,0-3.576-1.778-4.206-4.265c0.714-0.451,2.616-1.388,4.206,0.202c1.817,1.817,3.217,0.747,4.209-0.215
				C11.581,7.277,9.966,9.062,7.999,9.062z M12.499,2.499c0,0.367-0.033,0.721-0.072,1.071c-1,0.997-2.473,2.384-4.428,0.429
				c-1.752-1.752-3.888-0.434-4.39-0.08c-0.068-0.459-0.11-0.932-0.11-1.42c0-0.519-0.028-1.017,0.052-1.5h8.896
				C12.526,1.482,12.499,1.98,12.499,2.499z"/>
		</g>
	</g>
</g>
<g id="Layer_1">
</g>
</svg>
