<?xml version="1.0" encoding="iso-8859-1"?>
<!-- Generator: Adobe Illustrator 16.0.0, SVG Export Plug-In . SVG Version: 6.00 Build 0)  -->
<!DOCTYPE svg PUBLIC "-//W3C//DTD SVG 1.1//EN" "http://www.w3.org/Graphics/SVG/1.1/DTD/svg11.dtd">
<svg version="1.1" xmlns="http://www.w3.org/2000/svg" xmlns:xlink="http://www.w3.org/1999/xlink" x="0px" y="0px" width="16px"
	 height="16px" viewBox="0 0 16 16" style="enable-background:new 0 0 16 16;" xml:space="preserve">
<g id="beverage-beer" style="enable-background:new    ;">
	<g id="beverage-beer_2_">
		<g>
			<path d="M5.999,11.999h1V4h-1V11.999z M2.999,11.999h1V4h-1V11.999z M13.999,4c-0.002,0-0.004,0-0.006,0h-0.994V1
				c0-0.553-0.447-1.001-1-1.001h-11c-0.552,0-1,0.448-1,1.001v13.999c0,0.553,0.448,1,1,1h11c0.553,0,1-0.447,1-1V11h1
				c1.104,0,2-0.837,2-1.867V5.866C15.999,4.835,15.103,4,13.999,4z M11.999,5.866v3.267v5.366c0,0.276-0.225,0.5-0.5,0.5h-10
				c-0.276,0-0.5-0.224-0.5-0.5v-13C0.999,1.223,1.223,1,1.499,1h10c0.275,0,0.5,0.223,0.5,0.499V5.866z M14.999,9.09
				c0,0.503-0.447,0.909-1,0.909h-1v-5h1c0.553,0,1,0.407,1,0.909V9.09z M8.999,11.999h1V4h-1V11.999z"/>
		</g>
	</g>
</g>
<g id="Layer_1">
</g>
</svg>
