<?xml version="1.0" encoding="iso-8859-1"?>
<!-- Generator: Adobe Illustrator 16.0.0, SVG Export Plug-In . SVG Version: 6.00 Build 0)  -->
<!DOCTYPE svg PUBLIC "-//W3C//DTD SVG 1.1//EN" "http://www.w3.org/Graphics/SVG/1.1/DTD/svg11.dtd">
<svg version="1.1" xmlns="http://www.w3.org/2000/svg" xmlns:xlink="http://www.w3.org/1999/xlink" x="0px" y="0px" width="16px"
	 height="16px" viewBox="0 0 16 16" style="enable-background:new 0 0 16 16;" xml:space="preserve">
<g id="beverage-tea-cup" style="enable-background:new    ;">
	<g id="beverage-tea-cup_1_">
		<g>
			<path d="M8.999,10.999h-1v1h1V10.999z M8.999,13.999h1v-1h-1V13.999z M9.999,8.999h-1v1h1V8.999z M12.999,3.999h-0.123
				c-0.467-2.278-2.461-4-4.877-4c-2.417,0-4.411,1.722-4.877,4H2.999c-0.552,0-1,0.512-1,1.143v1.715c0,0.63,0.448,1.142,1,1.142
				h0.125l0.875,7.001c0,0.552,0.448,1,1,1h6c0.553,0,1-0.448,1-1l0.875-7.001h0.125c0.553,0,1-0.512,1-1.142V5.142
				C13.999,4.511,13.552,3.999,12.999,3.999z M7.999,0.999c1.861,0,3.41,1.278,3.855,3H4.144C4.589,2.277,6.137,0.999,7.999,0.999z
				 M10.999,14.499c0,0.275-0.225,0.5-0.5,0.5h-5c-0.276,0-0.5-0.225-0.5-0.5L4.07,7.998h7.856L10.999,14.499z M12.999,6.332
				c0,0.368-0.225,0.667-0.5,0.667h-9c-0.276,0-0.5-0.299-0.5-0.667V5.666c0-0.368,0.224-0.667,0.5-0.667h9
				c0.275,0,0.5,0.299,0.5,0.667V6.332z M6.999,12.999h-1v1h1V12.999z M6.999,9.999h-1v1h1V9.999z"/>
		</g>
	</g>
</g>
<g id="Layer_1">
</g>
</svg>
