<?xml version="1.0" encoding="iso-8859-1"?>
<!-- Generator: Adobe Illustrator 16.0.0, SVG Export Plug-In . SVG Version: 6.00 Build 0)  -->
<!DOCTYPE svg PUBLIC "-//W3C//DTD SVG 1.1//EN" "http://www.w3.org/Graphics/SVG/1.1/DTD/svg11.dtd">
<svg version="1.1" xmlns="http://www.w3.org/2000/svg" xmlns:xlink="http://www.w3.org/1999/xlink" x="0px" y="0px" width="16px"
	 height="16px" viewBox="0 0 16 16" style="enable-background:new 0 0 16 16;" xml:space="preserve">
<g id="beverage-chinese-tea-s" style="enable-background:new    ;">
	<g id="beverage-chinese-tea-s_2_">
		<g>
			<path d="M9.999,4.499c0.275,0,0.5-0.224,0.5-0.5v-2c0-0.276-0.225-0.5-0.5-0.5s-0.5,0.224-0.5,0.5v2
				C9.499,4.275,9.724,4.499,9.999,4.499z M7.999,4.499c0.276,0,0.5-0.224,0.5-0.5v-3c0-0.276-0.225-0.5-0.5-0.5
				c-0.275,0-0.5,0.224-0.5,0.5v3C7.499,4.275,7.723,4.499,7.999,4.499z M5.999,4.499c0.276,0,0.5-0.224,0.5-0.5v-2
				c0-0.276-0.224-0.5-0.5-0.5c-0.276,0-0.5,0.224-0.5,0.5v2C5.499,4.275,5.723,4.499,5.999,4.499z M3.499,5.498v1.001v3
				c0,2.209,1.291,4,3.5,4h2c2.209,0,3.5-1.791,3.5-4v-3V5.498H3.499z M11.499,9.499c0,1.656-0.844,3-2.5,3h-2
				c-1.657,0-2.5-1.344-2.5-3v-1h7V9.499z M11.499,7.499h-7v-1h7V7.499z M3.499,13.692v1.038c1.305,0.483,2.843,0.769,4.5,0.769
				s3.196-0.285,4.5-0.769v-1.038c-1.254,0.504-2.809,0.807-4.5,0.807C6.307,14.499,4.752,14.196,3.499,13.692z"/>
		</g>
	</g>
</g>
<g id="Layer_1">
</g>
</svg>
