<?xml version="1.0" encoding="iso-8859-1"?>
<!-- Generator: Adobe Illustrator 16.0.0, SVG Export Plug-In . SVG Version: 6.00 Build 0)  -->
<!DOCTYPE svg PUBLIC "-//W3C//DTD SVG 1.1//EN" "http://www.w3.org/Graphics/SVG/1.1/DTD/svg11.dtd">
<svg version="1.1" xmlns="http://www.w3.org/2000/svg" xmlns:xlink="http://www.w3.org/1999/xlink" x="0px" y="0px" width="16px"
	 height="16px" viewBox="0 0 16 16" style="enable-background:new 0 0 16 16;" xml:space="preserve">
<g id="beverage-cokctail" style="enable-background:new    ;">
	<g id="beverage-cokctail_1_">
		<g>
			<path d="M8.999,15.003h-4c-0.276,0-0.5,0.223-0.5,0.5c0,0.275,0.224,0.5,0.5,0.5h4c0.275,0,0.5-0.225,0.5-0.5
				C9.499,15.226,9.274,15.003,8.999,15.003z M12.499,0.002c-1.305,0-2.404,0.838-2.816,2H3.697L2.35-0.004L1.503,0.511l0.999,1.491
				H0.499v1.054l6,7.947v3.998h1v-3.998l3.908-5.212c0.34,0.133,0.705,0.212,1.092,0.212c1.656,0,3-1.344,3-3
				C15.499,1.345,14.155,0.002,12.499,0.002z M6.999,10.003H6.997l-5.285-7h1.459l3.269,4.882l0.866-0.5L4.368,3.002h7.881
				L6.999,10.003z M12.499,5.002c-0.158,0-0.309-0.022-0.457-0.058l1.457-1.942v-1h-2.723c0.346-0.595,0.984-1,1.723-1
				c1.104,0,2,0.896,2,2S13.603,5.002,12.499,5.002z"/>
		</g>
	</g>
</g>
<g id="Layer_1">
</g>
</svg>
