<?xml version="1.0" encoding="iso-8859-1"?>
<!-- Generator: Adobe Illustrator 16.0.0, SVG Export Plug-In . SVG Version: 6.00 Build 0)  -->
<!DOCTYPE svg PUBLIC "-//W3C//DTD SVG 1.1//EN" "http://www.w3.org/Graphics/SVG/1.1/DTD/svg11.dtd">
<svg version="1.1" xmlns="http://www.w3.org/2000/svg" xmlns:xlink="http://www.w3.org/1999/xlink" x="0px" y="0px" width="16px"
	 height="16px" viewBox="0 0 16 16" style="enable-background:new 0 0 16 16;" xml:space="preserve">
<g id="beverage-coffee-cup" style="enable-background:new    ;">
	<g id="beverage-coffee-cup_1_">
		<g>
			<path d="M14.272,2.063l-0.773-2.063h-11L1.725,2.063C1.309,2.2,0.999,2.622,0.999,3.143v1.714c0,0.631,0.447,1.143,1,1.143H2.59
				l0.909,10h9l0.908-10h0.592c0.553,0,1-0.512,1-1.143V3.143C14.999,2.622,14.688,2.2,14.272,2.063z M2.999,0.999h10l0.332,1H2.666
				L2.999,0.999z M11.499,14.999h-7l-0.223-2h7.445L11.499,14.999z M11.833,12H4.166L3.832,8.999h8.333L11.833,12z M12.276,7.999
				H3.721l-0.222-2h9L12.276,7.999z M13.999,4.999h-12v-2h12V4.999z"/>
		</g>
	</g>
</g>
<g id="Layer_1">
</g>
</svg>
