<?xml version="1.0" encoding="iso-8859-1"?>
<!-- Generator: Adobe Illustrator 16.0.0, SVG Export Plug-In . SVG Version: 6.00 Build 0)  -->
<!DOCTYPE svg PUBLIC "-//W3C//DTD SVG 1.1//EN" "http://www.w3.org/Graphics/SVG/1.1/DTD/svg11.dtd">
<svg version="1.1" xmlns="http://www.w3.org/2000/svg" xmlns:xlink="http://www.w3.org/1999/xlink" x="0px" y="0px" width="16px"
	 height="16px" viewBox="0 0 16 16" style="enable-background:new 0 0 16 16;" xml:space="preserve">
<g id="beverage-coffee-b" style="enable-background:new    ;">
	<g id="beverage-coffee-b_2_">
		<g>
			<path d="M10.487,13.499H3.502c-0.275,0-0.499,0.225-0.499,0.5s0.224,0.5,0.499,0.5h6.985c0.275,0,0.498-0.225,0.498-0.5
				S10.763,13.499,10.487,13.499z M14.977,3.499h-2.238C12.904,2.32,12.981,1.5,12.981,1.5H6.995H1.008c0,0,0.998,11,3.991,11h1.996
				H8.99c1.148,0,2.001-1.623,2.619-3.619C15.384,8.11,14.977,3.499,14.977,3.499z M8.491,11.499H6.995H5.498
				c-1.282,0-2.166-2.375-2.725-4.687c0.694-0.445,2.618-1.421,4.222,0.187c1.833,1.838,3.246,0.721,4.237-0.249
				C10.673,9.081,9.785,11.499,8.491,11.499z M11.484,5.597V5.499c-0.997,1-2.494,2.5-4.49,0.5C5.189,4.189,2.982,5.65,2.577,5.945
				C2.186,4.098,2.006,2.499,2.006,2.499h4.989h4.989C11.983,2.499,11.825,3.903,11.484,5.597z M11.871,7.964
				c0.309-1.172,0.542-2.395,0.715-3.466h1.394C13.979,4.499,13.977,7.621,11.871,7.964z"/>
		</g>
	</g>
</g>
<g id="Layer_1">
</g>
</svg>
