<?xml version="1.0" encoding="iso-8859-1"?>
<!-- Generator: Adobe Illustrator 16.0.0, SVG Export Plug-In . SVG Version: 6.00 Build 0)  -->
<!DOCTYPE svg PUBLIC "-//W3C//DTD SVG 1.1//EN" "http://www.w3.org/Graphics/SVG/1.1/DTD/svg11.dtd">
<svg version="1.1" xmlns="http://www.w3.org/2000/svg" xmlns:xlink="http://www.w3.org/1999/xlink" x="0px" y="0px" width="16px"
	 height="16px" viewBox="0 0 16 16" style="enable-background:new 0 0 16 16;" xml:space="preserve">
<g id="beverage-coffee" style="enable-background:new    ;">
	<g id="beverage-coffee_1_">
		<g>
			<path d="M10.487,13.499H3.502c-0.275,0-0.499,0.225-0.499,0.5s0.223,0.5,0.499,0.5h6.985c0.275,0,0.499-0.225,0.499-0.5
				S10.763,13.499,10.487,13.499z M14.977,3.499h-2.238C12.904,2.32,12.981,1.5,12.981,1.5H6.995H1.008c0,0,0.998,11,3.991,11h1.995
				H8.99c1.148,0,2.001-1.623,2.619-3.619C15.384,8.11,14.977,3.499,14.977,3.499z M8.491,11.499H6.995H5.498
				c-2.494,0-3.492-9-3.492-9h4.989h4.989C11.983,2.499,10.986,11.499,8.491,11.499z M11.871,7.964
				c0.309-1.172,0.542-2.395,0.715-3.466h1.394C13.979,4.499,13.977,7.621,11.871,7.964z"/>
		</g>
	</g>
</g>
<g id="Layer_1">
</g>
</svg>
