<?xml version="1.0" encoding="iso-8859-1"?>
<!-- Generator: Adobe Illustrator 16.0.0, SVG Export Plug-In . SVG Version: 6.00 Build 0)  -->
<!DOCTYPE svg PUBLIC "-//W3C//DTD SVG 1.1//EN" "http://www.w3.org/Graphics/SVG/1.1/DTD/svg11.dtd">
<svg version="1.1" xmlns="http://www.w3.org/2000/svg" xmlns:xlink="http://www.w3.org/1999/xlink" x="0px" y="0px" width="16px"
	 height="16px" viewBox="0 0 16 16" style="enable-background:new 0 0 16 16;" xml:space="preserve">
<g id="beverage-chinese-tea" style="enable-background:new    ;">
	<g id="beverage-chinese-tea_1_">
		<g>
			<path d="M7.999,4.499c0.276,0,0.5-0.224,0.5-0.5v-3c0-0.276-0.225-0.5-0.5-0.5c-0.275,0-0.5,0.224-0.5,0.5v3
				C7.499,4.275,7.723,4.499,7.999,4.499z M5.999,4.499c0.276,0,0.5-0.224,0.5-0.5v-2c0-0.276-0.224-0.5-0.5-0.5
				c-0.276,0-0.5,0.224-0.5,0.5v2C5.499,4.275,5.723,4.499,5.999,4.499z M9.999,4.499c0.275,0,0.5-0.224,0.5-0.5v-2
				c0-0.276-0.225-0.5-0.5-0.5s-0.5,0.224-0.5,0.5v2C9.499,4.275,9.724,4.499,9.999,4.499z M12.999,14.499h-10
				c-0.276,0-0.5,0.224-0.5,0.5s0.224,0.5,0.5,0.5h10c0.275,0,0.5-0.224,0.5-0.5S13.274,14.499,12.999,14.499z M6.999,13.499h2
				c2.209,0,3.5-1.791,3.5-4v-3V5.498h-9v1.001v3C3.499,11.708,4.79,13.499,6.999,13.499z M4.499,6.499h7v1h-7V6.499z M4.499,8.499
				h7v1c0,1.656-0.844,3-2.5,3h-2c-1.657,0-2.5-1.344-2.5-3V8.499z"/>
		</g>
	</g>
</g>
<g id="Layer_1">
</g>
</svg>
