<?xml version="1.0" encoding="iso-8859-1"?>
<!-- Generator: Adobe Illustrator 16.0.0, SVG Export Plug-In . SVG Version: 6.00 Build 0)  -->
<!DOCTYPE svg PUBLIC "-//W3C//DTD SVG 1.1//EN" "http://www.w3.org/Graphics/SVG/1.1/DTD/svg11.dtd">
<svg version="1.1" xmlns="http://www.w3.org/2000/svg" xmlns:xlink="http://www.w3.org/1999/xlink" x="0px" y="0px" width="16px"
	 height="16px" viewBox="0 0 16 16" style="enable-background:new 0 0 16 16;" xml:space="preserve">
<g id="beverage-water" style="enable-background:new    ;">
	<g id="beverage-water_2_">
		<g>
			<path d="M12.999,0.499h-10c-0.552,0-1,0.448-1,1l1,13c0,0.553,0.448,1,1,1h8c0.553,0,1-0.447,1-1l1-13
				C13.999,0.947,13.552,0.499,12.999,0.499z M11.999,13.999c0,0.275-0.225,0.5-0.5,0.5h-7c-0.276,0-0.5-0.225-0.5-0.5l-1-12
				c0-0.276,0.224-0.5,0.5-0.5h9c0.275,0,0.5,0.224,0.5,0.5L11.999,13.999z"/>
		</g>
	</g>
</g>
<g id="Layer_1">
</g>
</svg>
