<?xml version="1.0" encoding="iso-8859-1"?>
<!-- Generator: Adobe Illustrator 16.0.0, SVG Export Plug-In . SVG Version: 6.00 Build 0)  -->
<!DOCTYPE svg PUBLIC "-//W3C//DTD SVG 1.1//EN" "http://www.w3.org/Graphics/SVG/1.1/DTD/svg11.dtd">
<svg version="1.1" xmlns="http://www.w3.org/2000/svg" xmlns:xlink="http://www.w3.org/1999/xlink" x="0px" y="0px" width="16px"
	 height="16px" viewBox="0 0 16 16" style="enable-background:new 0 0 16 16;" xml:space="preserve">
<g id="beverage-cup-straw" style="enable-background:new    ;">
	<g id="beverage-cup-straw_2_">
		<g>
			<path d="M14.499,1.997H5.917L4.834,0.001L4.003,0.512l0.806,1.484h-3.31c-0.276,0-0.5,0.224-0.5,0.5v3c0,0.276,0.224,0.5,0.5,0.5
				H3.09l0.909,10h8l0.908-10h1.592c0.275,0,0.5-0.224,0.5-0.5v-3C14.999,2.22,14.774,1.997,14.499,1.997z M1.999,4.997v-2h3.353
				l0.647,1.192v0.808H1.999z M10.999,14.997h-6l-0.9-9h1.9v7h1v-7h4.9L10.999,14.997z M13.999,4.997h-7v-1h-0.03l0.025-0.016
				L6.46,2.997h7.539V4.997z"/>
		</g>
	</g>
</g>
<g id="Layer_1">
</g>
</svg>
