<?xml version="1.0" encoding="iso-8859-1"?>
<!-- Generator: Adobe Illustrator 16.0.0, SVG Export Plug-In . SVG Version: 6.00 Build 0)  -->
<!DOCTYPE svg PUBLIC "-//W3C//DTD SVG 1.1//EN" "http://www.w3.org/Graphics/SVG/1.1/DTD/svg11.dtd">
<svg version="1.1" xmlns="http://www.w3.org/2000/svg" xmlns:xlink="http://www.w3.org/1999/xlink" x="0px" y="0px" width="16px"
	 height="16px" viewBox="0 0 16 16" style="enable-background:new 0 0 16 16;" xml:space="preserve">
<g id="beverage-water-a" style="enable-background:new    ;">
	<g id="beverage-water-a_2_">
		<g>
			<path d="M12.999,4.499c0-1.232-1.354-2.251-4-2.456V0.999h3v-1h-4v1v1c-3.314,0-5,1.119-5,2.5c0,0.021,0.009,0.042,0.01,0.063
				h-0.01v8.437c0,1.657,1.686,3,5,3c3.314,0,5-1.343,5-3V4.531h-0.006C12.993,4.521,12.999,4.51,12.999,4.499z M11.999,12.999
				c0,1.104-1.238,2-4,2s-4-0.896-4-2V6.093c0.825,0.55,2.149,0.906,4,0.906c1.852,0,3.174-0.356,4-0.906V12.999z M7.999,5.999
				c-2.762,0-4-0.672-4-1.5s1.238-1.5,4-1.5v2h1V3.033c2.061,0.145,3,0.745,3,1.466C11.999,5.327,10.761,5.999,7.999,5.999z"/>
		</g>
	</g>
</g>
<g id="Layer_1">
</g>
</svg>
