<?xml version="1.0" encoding="iso-8859-1"?>
<!-- Generator: Adobe Illustrator 16.0.0, SVG Export Plug-In . SVG Version: 6.00 Build 0)  -->
<!DOCTYPE svg PUBLIC "-//W3C//DTD SVG 1.1//EN" "http://www.w3.org/Graphics/SVG/1.1/DTD/svg11.dtd">
<svg version="1.1" xmlns="http://www.w3.org/2000/svg" xmlns:xlink="http://www.w3.org/1999/xlink" x="0px" y="0px" width="16px"
	 height="16px" viewBox="0 0 16 16" style="enable-background:new 0 0 16 16;" xml:space="preserve">
<g id="beverage-coffee-cup-a" style="enable-background:new    ;">
	<g id="beverage-coffee-cup-a_2_">
		<g>
			<path d="M4.499,0.999h7c0.275,0,0.5-0.224,0.5-0.5s-0.225-0.5-0.5-0.5h-7c-0.276,0-0.5,0.224-0.5,0.5S4.223,0.999,4.499,0.999z
				 M12.999,1.998h-10c-0.552,0-1,0.597-1,1.334v1.333c0,0.736,0.448,1.334,1,1.334v4v1v3.96c0,0.574,0.448,1.04,1,1.04h8
				c0.553,0,1-0.466,1-1.04v-3.96v-1v-4c0.553,0,1-0.598,1-1.334V3.332C13.999,2.595,13.552,1.998,12.999,1.998z M11.999,14.521
				c0,0.264-0.225,0.479-0.5,0.479h-7c-0.276,0-0.5-0.215-0.5-0.479v-3.521h1c0,1.657,1.343,3,3,3c1.656,0,3-1.343,3-3h1V14.521z
				 M5.999,10.999c0-1.104,0.895-2,2-2c1.104,0,2,0.896,2,2s-0.896,2-2,2C6.894,12.999,5.999,12.104,5.999,10.999z M11.999,9.999
				h-1.184c-0.414-1.162-1.512-2-2.816-2s-2.403,0.838-2.816,2H3.999v-4h8V9.999z M12.499,4.998h-9c-0.276,0-0.5-0.448-0.5-1
				c0-0.553,0.224-1,0.5-1h9c0.275,0,0.5,0.447,0.5,1C12.999,4.55,12.774,4.998,12.499,4.998z"/>
		</g>
	</g>
</g>
<g id="Layer_1">
</g>
</svg>
