<?xml version="1.0" encoding="iso-8859-1"?>
<!-- Generator: Adobe Illustrator 16.0.0, SVG Export Plug-In . SVG Version: 6.00 Build 0)  -->
<!DOCTYPE svg PUBLIC "-//W3C//DTD SVG 1.1//EN" "http://www.w3.org/Graphics/SVG/1.1/DTD/svg11.dtd">
<svg version="1.1" xmlns="http://www.w3.org/2000/svg" xmlns:xlink="http://www.w3.org/1999/xlink" x="0px" y="0px" width="16px"
	 height="16px" viewBox="0 0 16 16" style="enable-background:new 0 0 16 16;" xml:space="preserve">
<g id="beverage-alt-glass-c" style="enable-background:new    ;">
	<g id="beverage-alt-glass-c_2_">
		<g>
			<path d="M2.499-0.001v1c0,0,0,0.42,0,1.499c0,3.913,2.197,7.122,5,7.467v5.034h-2c-0.276,0-0.5,0.224-0.5,0.5s0.224,0.5,0.5,0.5
				h2h1h2c0.275,0,0.5-0.224,0.5-0.5s-0.225-0.5-0.5-0.5h-2V9.965c2.803-0.345,5-3.554,5-7.467c0-0.572,0-1.499,0-1.499v-1H2.499z
				 M12.499,2.498c0,3.625-1.969,6.563-4.5,6.563c-2.531,0-4.5-2.938-4.5-6.563c0-0.518-0.028-1.016,0.052-1.499h8.896
				C12.526,1.482,12.499,1.98,12.499,2.498z"/>
		</g>
	</g>
</g>
<g id="Layer_1">
</g>
</svg>
