<?xml version="1.0" encoding="iso-8859-1"?>
<!-- Generator: Adobe Illustrator 16.0.0, SVG Export Plug-In . SVG Version: 6.00 Build 0)  -->
<!DOCTYPE svg PUBLIC "-//W3C//DTD SVG 1.1//EN" "http://www.w3.org/Graphics/SVG/1.1/DTD/svg11.dtd">
<svg version="1.1" xmlns="http://www.w3.org/2000/svg" xmlns:xlink="http://www.w3.org/1999/xlink" x="0px" y="0px" width="16px"
	 height="16px" viewBox="0 0 16 16" style="enable-background:new 0 0 16 16;" xml:space="preserve">
<g id="beverage-milk" style="enable-background:new    ;">
	<g id="beverage-milk_1_">
		<g>
			<path d="M9.999,6V2.999c0.553,0,1-0.673,1-1.5c0-0.829-0.447-1.5-1-1.5h-4c-0.552,0-1,0.671-1,1.5c0,0.827,0.448,1.5,1,1.5V3h0V6
				c0,0-2,0.5-2,1c0,0.152,0,0.958,0,2v0.221c0,2.375,0,5.777,0,5.777h0.05c-0.028,0.078-0.05,0.162-0.05,0.25
				c0,0.414,0.335,0.75,0.75,0.75h6.5c0.414,0,0.75-0.336,0.75-0.75c0-0.088-0.023-0.172-0.051-0.25h0.051c0,0,0-0.857,0-1.998v-1
				c0-0.656,0-1.344,0-2v-1c0-1.042,0-1.848,0-2C11.999,6.5,9.999,6,9.999,6z M6.499,1h0.833h1.333h0.834c0.275,0,0.5,0.224,0.5,0.5
				S9.774,2,9.499,2h-0.5h-2h-0.5c-0.276,0-0.5-0.224-0.5-0.5S6.223,1,6.499,1z M10.999,14.499c0,0.277-0.225,0.5-0.5,0.5h-5
				c-0.276,0-0.5-0.223-0.5-0.5v-1c0,0,0-0.197,0-0.498h6V14.499z M10.999,12.001h-6c0-0.617,0-1.336,0-2h6
				C10.999,10.675,10.999,11.378,10.999,12.001z M10.999,9.001h-6c0-0.514,0-0.895,0-1.002c0-1,2-0.999,2-0.999V3.5V3h2V3v4
				c0,0,2-0.001,2,0.999C10.999,8.106,10.999,8.493,10.999,9.001z"/>
		</g>
	</g>
</g>
<g id="Layer_1">
</g>
</svg>
