<?xml version="1.0" encoding="iso-8859-1"?>
<!-- Generator: Adobe Illustrator 16.0.0, SVG Export Plug-In . SVG Version: 6.00 Build 0)  -->
<!DOCTYPE svg PUBLIC "-//W3C//DTD SVG 1.1//EN" "http://www.w3.org/Graphics/SVG/1.1/DTD/svg11.dtd">
<svg version="1.1" xmlns="http://www.w3.org/2000/svg" xmlns:xlink="http://www.w3.org/1999/xlink" x="0px" y="0px" width="16px"
	 height="16px" viewBox="0 0 16 16" style="enable-background:new 0 0 16 16;" xml:space="preserve">
<g id="beverage-tea" style="enable-background:new    ;">
	<g id="beverage-tea_1_">
		<g>
			<path d="M12.499,13.499h-12c-0.276,0-0.5,0.225-0.5,0.5s0.224,0.5,0.5,0.5h12c0.275,0,0.5-0.225,0.5-0.5
				S12.774,13.499,12.499,13.499z M12.999,2.549V2.499V1.5h-13v0.999v5c0,2.762,2.238,5,5,5h3c2.053,0,3.815-1.238,4.586-3.01
				c1.893-0.045,3.414-1.586,3.414-3.491C15.999,4.238,14.692,2.793,12.999,2.549z M11.999,7.499c0,2.209-1.791,4-4,4h-3
				c-2.209,0-4-1.791-4-4v-5h11V7.499z M12.905,8.458c0.061-0.311,0.094-0.631,0.094-0.959V3.549c1.141,0.231,2,1.24,2,2.449
				C14.999,7.241,14.091,8.263,12.905,8.458z"/>
		</g>
	</g>
</g>
<g id="Layer_1">
</g>
</svg>
