<?xml version="1.0" encoding="iso-8859-1"?>
<!-- Generator: Adobe Illustrator 16.0.0, SVG Export Plug-In . SVG Version: 6.00 Build 0)  -->
<!DOCTYPE svg PUBLIC "-//W3C//DTD SVG 1.1//EN" "http://www.w3.org/Graphics/SVG/1.1/DTD/svg11.dtd">
<svg version="1.1" xmlns="http://www.w3.org/2000/svg" xmlns:xlink="http://www.w3.org/1999/xlink" x="0px" y="0px" width="16px"
	 height="16px" viewBox="0 0 16 16" style="enable-background:new 0 0 16 16;" xml:space="preserve">
<g id="beverage-empty-glass" style="enable-background:new    ;">
	<g id="beverage-empty-glass_1_">
		<g>
			<path d="M13.999,4.998h-1.5V2.999c0-1.104-0.896-2-2-2h-8c-1.104,0-2,0.896-2,2v10c0,1.104,0.896,2,2,2h8c1.104,0,2-0.896,2-2v-1
				h1.5c0.828,0,1.5-0.672,1.5-1.5v-4C15.499,5.671,14.827,4.998,13.999,4.998z M11.499,12.999c0,0.553-0.447,1-1,1h-8
				c-0.552,0-1-0.447-1-1v-10c0-0.553,0.448-1,1-1h8c0.553,0,1,0.447,1,1V12.999z M14.499,10.499c0,0.275-0.225,0.5-0.5,0.5h-1.5v-5
				h1.5c0.275,0,0.5,0.224,0.5,0.5V10.499z"/>
		</g>
	</g>
</g>
<g id="Layer_1">
</g>
</svg>
