<?xml version="1.0" encoding="iso-8859-1"?>
<!-- Generator: Adobe Illustrator 16.0.0, SVG Export Plug-In . SVG Version: 6.00 Build 0)  -->
<!DOCTYPE svg PUBLIC "-//W3C//DTD SVG 1.1//EN" "http://www.w3.org/Graphics/SVG/1.1/DTD/svg11.dtd">
<svg version="1.1" xmlns="http://www.w3.org/2000/svg" xmlns:xlink="http://www.w3.org/1999/xlink" x="0px" y="0px" width="16px"
	 height="16px" viewBox="0 0 16 16" style="enable-background:new 0 0 16 16;" xml:space="preserve">
<g id="beverage-wine" style="enable-background:new    ;">
	<g id="beverage-wine_1_">
		<g>
			<path d="M9.999,5.999v-6h-2h-2v2v1v3c0,0-1,0.501-1,2c0,0.501,0,8,0,8h3h3c0,0,0-7.499,0-8C10.999,6.5,9.999,5.999,9.999,5.999z
				 M6.999,0.999h2v1h-2V0.999z M9.999,14.999h-1h-1h-1h-1c0,0,0-6.5,0-7c0-1,1-1,1-1v-4h2v4c0,0,1,0,1,1
				C9.999,8.499,9.999,14.999,9.999,14.999z"/>
		</g>
	</g>
</g>
<g id="Layer_1">
</g>
</svg>
