<?xml version="1.0" encoding="iso-8859-1"?>
<!-- Generator: Adobe Illustrator 16.0.0, SVG Export Plug-In . SVG Version: 6.00 Build 0)  -->
<!DOCTYPE svg PUBLIC "-//W3C//DTD SVG 1.1//EN" "http://www.w3.org/Graphics/SVG/1.1/DTD/svg11.dtd">
<svg version="1.1" xmlns="http://www.w3.org/2000/svg" xmlns:xlink="http://www.w3.org/1999/xlink" x="0px" y="0px" width="16px"
	 height="16px" viewBox="0 0 16 16" style="enable-background:new 0 0 16 16;" xml:space="preserve">
<g id="beverage-coffee-a" style="enable-background:new    ;">
	<g id="beverage-coffee-a_2_">
		<g>
			<path d="M14.977,4.499h-2.237c0.168-1.184,0.242-2,0.242-2H6.995H1.008c0,0,0.998,11,3.991,11h1.996H8.99
				c1.149,0,2.003-1.622,2.62-3.619C15.383,9.109,14.977,4.499,14.977,4.499z M8.491,12.499H6.995H5.498c-2.494,0-3.492-9-3.492-9
				h4.989h4.989C11.983,3.499,10.985,12.499,8.491,12.499z M11.872,8.965c0.308-1.169,0.543-2.396,0.716-3.466h1.392
				C13.979,5.499,13.977,8.62,11.872,8.965z"/>
		</g>
	</g>
</g>
<g id="Layer_1">
</g>
</svg>
