<?xml version="1.0" encoding="iso-8859-1"?>
<!-- Generator: Adobe Illustrator 16.0.0, SVG Export Plug-In . SVG Version: 6.00 Build 0)  -->
<!DOCTYPE svg PUBLIC "-//W3C//DTD SVG 1.1//EN" "http://www.w3.org/Graphics/SVG/1.1/DTD/svg11.dtd">
<svg version="1.1" xmlns="http://www.w3.org/2000/svg" xmlns:xlink="http://www.w3.org/1999/xlink" x="0px" y="0px" width="16px"
	 height="16px" viewBox="0 0 16 16" style="enable-background:new 0 0 16 16;" xml:space="preserve">
<g id="building-museum" style="enable-background:new    ;">
	<g id="building-museum_2_">
		<g>
			<path d="M11.499,8.499v5c0,0.275,0.225,0.5,0.5,0.5s0.5-0.225,0.5-0.5v-5c0-0.275-0.225-0.5-0.5-0.5S11.499,8.224,11.499,8.499z
				 M8.499,8.499v5c0,0.275,0.225,0.5,0.5,0.5s0.5-0.225,0.5-0.5v-5c0-0.275-0.225-0.5-0.5-0.5S8.499,8.224,8.499,8.499z
				 M13.499,8.499v5c0,0.275,0.225,0.5,0.5,0.5s0.5-0.225,0.5-0.5v-5c0-0.275-0.225-0.5-0.5-0.5S13.499,8.224,13.499,8.499z
				 M0.999,6.999h14c0.275,0,0.5-0.224,0.5-0.499c0-0.276-0.225-0.5-0.5-0.5h-14c-0.276,0-0.5,0.224-0.5,0.5
				C0.499,6.775,0.723,6.999,0.999,6.999z M7.999,2.999c1.209,0,2.219,0.859,2.45,2h1c-0.221-1.529-1.422-2.732-2.949-2.953V0.5
				c0-0.276-0.225-0.5-0.5-0.5c-0.275,0-0.5,0.224-0.5,0.5v1.546C5.971,2.266,4.77,3.469,4.549,4.999h1
				C5.781,3.858,6.79,2.999,7.999,2.999z M1.499,8.499v5c0,0.275,0.224,0.5,0.5,0.5c0.276,0,0.5-0.225,0.5-0.5v-5
				c0-0.275-0.224-0.5-0.5-0.5C1.723,7.999,1.499,8.224,1.499,8.499z M14.999,14.999h-14c-0.276,0-0.5,0.225-0.5,0.5
				s0.224,0.5,0.5,0.5h14c0.275,0,0.5-0.225,0.5-0.5S15.274,14.999,14.999,14.999z M6.499,8.499v5c0,0.275,0.224,0.5,0.5,0.5
				c0.276,0,0.5-0.225,0.5-0.5v-5c0-0.275-0.224-0.5-0.5-0.5C6.723,7.999,6.499,8.224,6.499,8.499z M3.499,8.499v5
				c0,0.275,0.224,0.5,0.5,0.5c0.276,0,0.5-0.225,0.5-0.5v-5c0-0.275-0.224-0.5-0.5-0.5C3.723,7.999,3.499,8.224,3.499,8.499z"/>
		</g>
	</g>
</g>
<g id="Layer_1">
</g>
</svg>
