<?xml version="1.0" encoding="iso-8859-1"?>
<!-- Generator: Adobe Illustrator 16.0.0, SVG Export Plug-In . SVG Version: 6.00 Build 0)  -->
<!DOCTYPE svg PUBLIC "-//W3C//DTD SVG 1.1//EN" "http://www.w3.org/Graphics/SVG/1.1/DTD/svg11.dtd">
<svg version="1.1" xmlns="http://www.w3.org/2000/svg" xmlns:xlink="http://www.w3.org/1999/xlink" x="0px" y="0px" width="16px"
	 height="16px" viewBox="0 0 16 16" style="enable-background:new 0 0 16 16;" xml:space="preserve">
<g id="building-drawer" style="enable-background:new    ;">
	<g id="building-drawer_2_">
		<g>
			<path d="M14.999-0.001h-2h-10h-2h-1v1h1v1v9v2c0,0.931,0.639,1.706,1.5,1.93v1.07h1v-1h9v1h1v-1.07
				c0.861-0.224,1.5-0.999,1.5-1.93v-2v-9v-1h1v-1H14.999z M13.999,10.999v2c0,0.553-0.447,1-1,1h-0.5h-9h-0.5c-0.552,0-1-0.447-1-1
				v-2v-2h12V10.999z M13.999,7.999h-12v-3h12V7.999z M13.999,3.999h-12v-3h12V3.999z M9.999,1.999h-4v1h4V1.999z M9.999,9.999h-4v1
				h4V9.999z M9.999,5.999h-4v1h4V5.999z"/>
		</g>
	</g>
</g>
<g id="Layer_1">
</g>
</svg>
