<?xml version="1.0" encoding="iso-8859-1"?>
<!-- Generator: Adobe Illustrator 16.0.0, SVG Export Plug-In . SVG Version: 6.00 Build 0)  -->
<!DOCTYPE svg PUBLIC "-//W3C//DTD SVG 1.1//EN" "http://www.w3.org/Graphics/SVG/1.1/DTD/svg11.dtd">
<svg version="1.1" xmlns="http://www.w3.org/2000/svg" xmlns:xlink="http://www.w3.org/1999/xlink" x="0px" y="0px" width="16px"
	 height="16px" viewBox="0 0 16 16" style="enable-background:new 0 0 16 16;" xml:space="preserve">
<g id="building-house-a" style="enable-background:new    ;">
	<g id="building-house-a_1_">
		<g>
			<path d="M3.009,12.002h2.994v-1H3.009V12.002z M6.003,6c0,1.104,0.9,2.001,2.012,2.001c1.11,0,2.011-0.897,2.011-2.001
				s-0.9-2-2.011-2C6.903,4,6.003,4.896,6.003,6z M8.015,5.001c0.56,0,1.014,0.447,1.014,0.999c0,0.553-0.454,1-1.014,1
				C7.454,7,7,6.553,7,6C7,5.449,7.454,5.001,8.015,5.001z M3.009,10.002h2.994V9.001H3.009V10.002z M15.844,6.125L8.373,0.14
				C8.27,0.037,8.134-0.007,7.999-0.003C7.863-0.007,7.728,0.037,7.624,0.14L0.152,6.125c-0.198,0.199-0.198,0.521,0,0.721
				c0.199,0.199,0.521,0.199,0.72,0l0.141-0.112v8.268c0,0.552,0.446,1,0.998,1h4.99h4.989h1.996c0.552,0,0.998-0.448,0.998-1V6.734
				l0.141,0.112c0.198,0.199,0.521,0.199,0.719,0C16.043,6.647,16.043,6.325,15.844,6.125z M10.992,15.002H7.999v-5h2.993V15.002z
				 M13.986,14.502c0,0.275-0.223,0.5-0.499,0.5H11.99V9.001H7.001v6.001H2.51c-0.276,0-0.499-0.225-0.499-0.5V5.934l5.988-4.797
				l5.987,4.797V14.502z"/>
		</g>
	</g>
</g>
<g id="Layer_1">
</g>
</svg>
