<?xml version="1.0" encoding="iso-8859-1"?>
<!-- Generator: Adobe Illustrator 16.0.0, SVG Export Plug-In . SVG Version: 6.00 Build 0)  -->
<!DOCTYPE svg PUBLIC "-//W3C//DTD SVG 1.1//EN" "http://www.w3.org/Graphics/SVG/1.1/DTD/svg11.dtd">
<svg version="1.1" xmlns="http://www.w3.org/2000/svg" xmlns:xlink="http://www.w3.org/1999/xlink" x="0px" y="0px" width="16px"
	 height="16px" viewBox="0 0 16 16" style="enable-background:new 0 0 16 16;" xml:space="preserve">
<g id="building-house" style="enable-background:new    ;">
	<g id="building-house_2_">
		<g>
			<path d="M15.844,6.125L8.373,0.14C8.27,0.037,8.134-0.007,7.999-0.003C7.863-0.007,7.727,0.037,7.624,0.14L0.153,6.125
				c-0.199,0.199-0.199,0.521,0,0.721c0.198,0.199,0.521,0.199,0.719,0l0.14-0.112v8.268c0,0.552,0.447,1,0.998,1H7h4.99h1.996
				c0.552,0,0.998-0.448,0.998-1V6.734l0.141,0.112c0.198,0.199,0.521,0.199,0.719,0C16.043,6.647,16.043,6.325,15.844,6.125z
				 M10.992,15.002H7.999V9.001h2.994V15.002z M13.986,14.502c0,0.275-0.223,0.5-0.499,0.5H11.99v-7H7v7H2.509
				c-0.276,0-0.499-0.225-0.499-0.5V5.934l5.988-4.797l5.988,4.797V14.502z M3.008,11.001h2.994V8.002H3.008V11.001z M4.006,9.001
				h0.998v1H4.006V9.001z"/>
		</g>
	</g>
</g>
<g id="Layer_1">
</g>
</svg>
