<?xml version="1.0" encoding="iso-8859-1"?>
<!-- Generator: Adobe Illustrator 16.0.0, SVG Export Plug-In . SVG Version: 6.00 Build 0)  -->
<!DOCTYPE svg PUBLIC "-//W3C//DTD SVG 1.1//EN" "http://www.w3.org/Graphics/SVG/1.1/DTD/svg11.dtd">
<svg version="1.1" xmlns="http://www.w3.org/2000/svg" xmlns:xlink="http://www.w3.org/1999/xlink" x="0px" y="0px" width="16px"
	 height="16px" viewBox="0 0 16 16" style="enable-background:new 0 0 16 16;" xml:space="preserve">
<g id="building-apartment" style="enable-background:new    ;">
	<g id="building-apartment_1_">
		<g>
			<path d="M11.499,5.999h-1v1h1V5.999z M14.499-0.001h-13v1h13V-0.001z M11.499,7.999h-1v0.999h1V7.999z M8.499,3.999h-1v1h1V3.999
				z M11.499,3.999h-1v1h1V3.999z M5.499,7.999h-1v0.999h1V7.999z M8.499,5.999h-1v1h1V5.999z M5.499,5.999h-1v1h1V5.999z
				 M13.499,14.999V1.998h-11v13.001h-2v1h2h11h2v-1H13.499z M9.499,14.999h-3v-3h3V14.999z M12.499,14.999h-2v-4h-5v4h-2V2.998h9
				V14.999z M5.499,3.999h-1v1h1V3.999z M8.499,7.999h-1v0.999h1V7.999z"/>
		</g>
	</g>
</g>
<g id="Layer_1">
</g>
</svg>
