<?xml version="1.0" encoding="iso-8859-1"?>
<!-- Generator: Adobe Illustrator 16.0.0, SVG Export Plug-In . SVG Version: 6.00 Build 0)  -->
<!DOCTYPE svg PUBLIC "-//W3C//DTD SVG 1.1//EN" "http://www.w3.org/Graphics/SVG/1.1/DTD/svg11.dtd">
<svg version="1.1" xmlns="http://www.w3.org/2000/svg" xmlns:xlink="http://www.w3.org/1999/xlink" x="0px" y="0px" width="16px"
	 height="16px" viewBox="0 0 16 16" style="enable-background:new 0 0 16 16;" xml:space="preserve">
<g id="building-office-a" style="enable-background:new    ;">
	<g id="building-office-a_1_">
		<g>
			<path d="M0.999,1.5c0-0.277,0.224-0.501,0.5-0.501h6c0.276,0,0.5,0.224,0.5,0.501V14h1V0.999c0-0.552-0.447-1-1-1h-7
				c-0.553,0-1,0.448-1,1V14h1V1.5z M6.999,1.999h-2v2h2V1.999z M3.999,7.999h-2v2h2V7.999z M1.999,13h2v-2.001h-2V13z M6.999,7.999
				h-2v2h2V7.999z M4.999,13h2v-2.001h-2V13z M6.999,5h-2v2h2V5z M3.999,5h-2v2h2V5z M13.999,2.999h-2V5h2V2.999z M14.999,0.999h-4
				c-0.553,0-1,0.448-1,1V14h1V2.499c0-0.276,0.225-0.5,0.5-0.5h3c0.275,0,0.5,0.224,0.5,0.5V14h1V1.999
				C15.999,1.447,15.552,0.999,14.999,0.999z M11.999,10.999h2v-2h-2V10.999z M3.999,1.999h-2v2h2V1.999z M11.999,7.999h2V6h-2
				V7.999z M15.499,14.999h-15c-0.276,0-0.5,0.225-0.5,0.5c0,0.276,0.224,0.5,0.5,0.5h15c0.275,0,0.5-0.224,0.5-0.5
				C15.999,15.224,15.774,14.999,15.499,14.999z"/>
		</g>
	</g>
</g>
<g id="Layer_1">
</g>
</svg>
