<?xml version="1.0" encoding="iso-8859-1"?>
<!-- Generator: Adobe Illustrator 16.0.0, SVG Export Plug-In . SVG Version: 6.00 Build 0)  -->
<!DOCTYPE svg PUBLIC "-//W3C//DTD SVG 1.1//EN" "http://www.w3.org/Graphics/SVG/1.1/DTD/svg11.dtd">
<svg version="1.1" xmlns="http://www.w3.org/2000/svg" xmlns:xlink="http://www.w3.org/1999/xlink" x="0px" y="0px" width="16px"
	 height="16px" viewBox="0 0 16 16" style="enable-background:new 0 0 16 16;" xml:space="preserve">
<g id="building-cabinet" style="enable-background:new    ;">
	<g id="building-cabinet_1_">
		<g>
			<path d="M5.499,8.999h1V6h-1V8.999z M14.999,0h-6.5h-1h-6.5c-0.276,0-0.5,0.224-0.5,0.5v11.5v1v2.5c0,0.275,0.224,0.5,0.5,0.5h14
				c0.275,0,0.5-0.225,0.5-0.5v-2.5v-1V0.5C15.499,0.223,15.274,0,14.999,0z M1.499,1.5c0-0.276,0.224-0.501,0.5-0.501h5.5v11h-6
				V1.5z M14.499,14.499c0,0.277-0.225,0.5-0.5,0.5h-12c-0.276,0-0.5-0.223-0.5-0.5v-1.5h6h1h6V14.499z M14.499,11.999h-6v-11h5.5
				c0.275,0,0.5,0.225,0.5,0.501V11.999z M9.499,8.999h1V6h-1V8.999z"/>
		</g>
	</g>
</g>
<g id="Layer_1">
</g>
</svg>
