<?xml version="1.0" encoding="iso-8859-1"?>
<!-- Generator: Adobe Illustrator 16.0.0, SVG Export Plug-In . SVG Version: 6.00 Build 0)  -->
<!DOCTYPE svg PUBLIC "-//W3C//DTD SVG 1.1//EN" "http://www.w3.org/Graphics/SVG/1.1/DTD/svg11.dtd">
<svg version="1.1" xmlns="http://www.w3.org/2000/svg" xmlns:xlink="http://www.w3.org/1999/xlink" x="0px" y="0px" width="16px"
	 height="16px" viewBox="0 0 16 16" style="enable-background:new 0 0 16 16;" xml:space="preserve">
<g id="building-sofa-twin-a" style="enable-background:new    ;">
	<g id="building-sofa-twin-a_2_">
		<g>
			<path d="M11.499,4.499h-1v1h1V4.499z M15.499,9.499c0-0.738-0.404-1.376-1-1.723V5.499v-2c0-1.657-1.344-3-3-3h-1
				c-1.045,0-1.963,0.535-2.5,1.346c-0.537-0.811-1.455-1.346-2.5-1.346h-1c-1.657,0-3,1.343-3,3v2v2.277
				c-0.596,0.347-1,0.984-1,1.723c0,0.204,0.04,0.397,0.097,0.584c-0.059,0.127-0.097,0.266-0.097,0.416v2
				c0,0.552,0.447,0.999,1,0.999v2.001h1v-2.001h5h1h5v2.001h1v-2.001c0.553,0,1-0.447,1-0.999v-2c0-0.15-0.037-0.289-0.098-0.416
				C15.46,9.896,15.499,9.703,15.499,9.499z M2.499,8.499c0.552,0,1,0.447,1,1c0,0.552-0.448,1-1,1s-1-0.448-1-1
				C1.499,8.946,1.947,8.499,2.499,8.499z M7.499,12.499h-5.5c-0.276,0-0.5-0.224-0.5-0.5v-0.777c0.295,0.171,0.634,0.276,1,0.276
				c0.738,0,1.376-0.404,1.723-0.999h3.277V12.499z M7.499,5.499v2.771v1.229h-2h-1c0-1.105-0.896-2.001-2-2.001V5.499v-2
				c0-1.104,0.895-2,2-2h1c1.104,0,2,0.896,2,2V5.499z M8.499,8.271V5.499v-2c0-1.104,0.895-2,2-2h1c1.104,0,2,0.896,2,2v2v1.999
				c-1.105,0-2,0.896-2,2.001h-1h-2V8.271z M14.499,11.999c0,0.276-0.225,0.5-0.5,0.5h-5.5v-2h3.277
				c0.346,0.595,0.984,0.999,1.723,0.999c0.365,0,0.705-0.105,1-0.276V11.999z M13.499,10.499c-0.553,0-1-0.448-1-1
				c0-0.553,0.447-1,1-1s1,0.447,1,1C14.499,10.051,14.052,10.499,13.499,10.499z M4.499,5.499h1v-1h-1V5.499z"/>
		</g>
	</g>
</g>
<g id="Layer_1">
</g>
</svg>
