<?xml version="1.0" encoding="iso-8859-1"?>
<!-- Generator: Adobe Illustrator 16.0.0, SVG Export Plug-In . SVG Version: 6.00 Build 0)  -->
<!DOCTYPE svg PUBLIC "-//W3C//DTD SVG 1.1//EN" "http://www.w3.org/Graphics/SVG/1.1/DTD/svg11.dtd">
<svg version="1.1" xmlns="http://www.w3.org/2000/svg" xmlns:xlink="http://www.w3.org/1999/xlink" x="0px" y="0px" width="16px"
	 height="16px" viewBox="0 0 16 16" style="enable-background:new 0 0 16 16;" xml:space="preserve">
<g id="building-desk-c" style="enable-background:new    ;">
	<g id="building-desk-c_2_">
		<g>
			<path d="M6.499,11.999h-2v1h2V11.999z M11.499,11.999h-2v1h2V11.999z M4.499,8.999h7v-1h-7V8.999z M9.499-0.001h-3
				c-2.209,0-4,1.791-4,4v5.999v0.501v5.5h5h1h5v-5.5V9.998V3.999C13.499,1.79,11.708-0.001,9.499-0.001z M7.499,14.999h-4v-4.001h4
				V14.999z M12.499,14.999h-4v-4.001h4V14.999z M12.499,9.998h-4h-1h-4V3.999c0-1.657,1.343-3,3-3h3c1.656,0,3,1.343,3,3V9.998z"/>
		</g>
	</g>
</g>
<g id="Layer_1">
</g>
</svg>
