<?xml version="1.0" encoding="iso-8859-1"?>
<!-- Generator: Adobe Illustrator 16.0.0, SVG Export Plug-In . SVG Version: 6.00 Build 0)  -->
<!DOCTYPE svg PUBLIC "-//W3C//DTD SVG 1.1//EN" "http://www.w3.org/Graphics/SVG/1.1/DTD/svg11.dtd">
<svg version="1.1" xmlns="http://www.w3.org/2000/svg" xmlns:xlink="http://www.w3.org/1999/xlink" x="0px" y="0px" width="16px"
	 height="16px" viewBox="0 0 16 16" style="enable-background:new 0 0 16 16;" xml:space="preserve">
<g id="building-bed" style="enable-background:new    ;">
	<g id="building-bed_1_">
		<g>
			<path d="M15.776,10.999l-1.777-8V0.998c0-0.552-0.447-0.999-1-0.999h-10c-0.552,0-1,0.447-1,0.999v2.001l-1.778,8h-0.222v4h1v1h1
				v-1h12v1h1v-1h1v-4H15.776z M2.999,1.499c0-0.276,0.224-0.501,0.5-0.501h9c0.275,0,0.5,0.225,0.5,0.501v1
				c0,0.275-0.225,0.5-0.5,0.5h-1.5v-0.5c0-0.276-0.225-0.5-0.5-0.5h-5c-0.276,0-0.5,0.224-0.5,0.5v0.5h-1.5
				c-0.276,0-0.5-0.225-0.5-0.5V1.499z M9.999,2.999v1h-4v-1H9.999z M2.999,3.999h2v0.5c0,0.276,0.224,0.5,0.5,0.5h5
				c0.275,0,0.5-0.224,0.5-0.5v-0.5h2l0.857,3H2.142L2.999,3.999z M14.999,13.998h-1h-12h-1v-1.999h14V13.998z M0.999,10.999l1-3.5
				v0.5h12v-0.5l1,3.5H0.999z"/>
		</g>
	</g>
</g>
<g id="Layer_1">
</g>
</svg>
