<?xml version="1.0" encoding="iso-8859-1"?>
<!-- Generator: Adobe Illustrator 16.0.0, SVG Export Plug-In . SVG Version: 6.00 Build 0)  -->
<!DOCTYPE svg PUBLIC "-//W3C//DTD SVG 1.1//EN" "http://www.w3.org/Graphics/SVG/1.1/DTD/svg11.dtd">
<svg version="1.1" xmlns="http://www.w3.org/2000/svg" xmlns:xlink="http://www.w3.org/1999/xlink" x="0px" y="0px" width="16px"
	 height="16px" viewBox="0 0 16 16" style="enable-background:new 0 0 16 16;" xml:space="preserve">
<g id="building-bulb" style="enable-background:new    ;">
	<g id="building-bulb_1_">
		<g>
			<path d="M7.999,0.999c-3.314,0-6,2.687-6,6c0,2.215,1.214,4.129,3,5.167v2.833h6v-2.833c1.785-1.038,3-2.952,3-5.167
				C13.999,3.686,11.313,0.999,7.999,0.999z M9.999,13.999h-4v-1h2h1h1V13.999z M9.999,11.577v0.422h-1h-1h-2v-0.422
				c-1.765-0.772-3-2.528-3-4.578c0-2.761,2.238-5,5-5s5,2.239,5,5C12.999,9.049,11.763,10.805,9.999,11.577z"/>
		</g>
	</g>
</g>
<g id="Layer_1">
</g>
</svg>
