<?xml version="1.0" encoding="iso-8859-1"?>
<!-- Generator: Adobe Illustrator 16.0.0, SVG Export Plug-In . SVG Version: 6.00 Build 0)  -->
<!DOCTYPE svg PUBLIC "-//W3C//DTD SVG 1.1//EN" "http://www.w3.org/Graphics/SVG/1.1/DTD/svg11.dtd">
<svg version="1.1" xmlns="http://www.w3.org/2000/svg" xmlns:xlink="http://www.w3.org/1999/xlink" x="0px" y="0px" width="16px"
	 height="16px" viewBox="0 0 16 16" style="enable-background:new 0 0 16 16;" xml:space="preserve">
<g id="building-drawer-a" style="enable-background:new    ;">
	<g id="building-drawer-a_1_">
		<g>
			<path d="M12.999,1.999h-10v5h10V1.999z M11.999,5.999h-8v-3h8V5.999z M8.999,3.999h-2v1h2V3.999z M14.999-0.001h-2h-10h-2h-1v1h1
				v1v9v2c0,0.931,0.639,1.706,1.5,1.929v1.071h1v-1h9v1h1v-1.07c0.861-0.224,1.5-0.999,1.5-1.93v-2v-9v-1h1v-1H14.999z
				 M13.999,10.999v2c0,0.553-0.447,1-1,1h-0.5h-9h-0.5c-0.552,0-1-0.447-1-1v-2v-10h12V10.999z M12.999,7.999h-10v5h10V7.999z
				 M11.999,11.999h-8v-3h8V11.999z M8.999,9.999h-2v1h2V9.999z"/>
		</g>
	</g>
</g>
<g id="Layer_1">
</g>
</svg>
