<?xml version="1.0" encoding="iso-8859-1"?>
<!-- Generator: Adobe Illustrator 16.0.0, SVG Export Plug-In . SVG Version: 6.00 Build 0)  -->
<!DOCTYPE svg PUBLIC "-//W3C//DTD SVG 1.1//EN" "http://www.w3.org/Graphics/SVG/1.1/DTD/svg11.dtd">
<svg version="1.1" xmlns="http://www.w3.org/2000/svg" xmlns:xlink="http://www.w3.org/1999/xlink" x="0px" y="0px" width="16px"
	 height="16px" viewBox="0 0 16 16" style="enable-background:new 0 0 16 16;" xml:space="preserve">
<g id="building-office-b" style="enable-background:new    ;">
	<g id="building-office-b_2_">
		<g>
			<path d="M2.999,11.999h-1v1h1V11.999z M13.999,11.999h-1v1h1V11.999z M2.999,8.999h-1v1h1V8.999z M13.999,6h-1v1h1V6z
				 M11.999,2.999v-3h-8v3h-4v12v0.5v0.5h4h2h1h2h1h2h4v-0.5v-0.5v-12H11.999z M3.999,14.999h-3V4h3V14.999z M8.999,14.999h-2v-2h2
				V14.999z M10.999,2.999v12h-1v-2v-1h-1h-2h-1v1v2h-1v-12v-2h6V2.999z M14.999,14.999h-3V4h3V14.999z M2.999,6h-1v1h1V6z
				 M13.999,8.999h-1v1h1V8.999z M9.999,8.999h-4v1h4V8.999z M9.999,6h-4v1h4V6z M9.999,2.999h-4V4h4V2.999z"/>
		</g>
	</g>
</g>
<g id="Layer_1">
</g>
</svg>
