<?xml version="1.0" encoding="iso-8859-1"?>
<!-- Generator: Adobe Illustrator 16.0.0, SVG Export Plug-In . SVG Version: 6.00 Build 0)  -->
<!DOCTYPE svg PUBLIC "-//W3C//DTD SVG 1.1//EN" "http://www.w3.org/Graphics/SVG/1.1/DTD/svg11.dtd">
<svg version="1.1" xmlns="http://www.w3.org/2000/svg" xmlns:xlink="http://www.w3.org/1999/xlink" x="0px" y="0px" width="16px"
	 height="16px" viewBox="0 0 16 16" style="enable-background:new 0 0 16 16;" xml:space="preserve">
<g id="building-office" style="enable-background:new    ;">
	<g id="building-office_2_">
		<g>
			<path d="M13.499,14.999v-15h-11v15h-2v1h15v-1H13.499z M9.499,14.999h-3v-4h3V14.999z M12.499,14.999h-2v-5h-5v5h-2v-14h9V14.999
				z M11.499,1.998h-3v3.001h3V1.998z M10.499,3.999h-1V2.998h1V3.999z M7.499,1.998h-3v3.001h3V1.998z M6.499,3.999h-1V2.998h1
				V3.999z M11.499,5.999h-3v2.999h3V5.999z M10.499,7.999h-1v-1h1V7.999z M7.499,5.999h-3v2.999h3V5.999z M6.499,7.999h-1v-1h1
				V7.999z"/>
		</g>
	</g>
</g>
<g id="Layer_1">
</g>
</svg>
