<?xml version="1.0" encoding="iso-8859-1"?>
<!-- Generator: Adobe Illustrator 16.0.0, SVG Export Plug-In . SVG Version: 6.00 Build 0)  -->
<!DOCTYPE svg PUBLIC "-//W3C//DTD SVG 1.1//EN" "http://www.w3.org/Graphics/SVG/1.1/DTD/svg11.dtd">
<svg version="1.1" xmlns="http://www.w3.org/2000/svg" xmlns:xlink="http://www.w3.org/1999/xlink" x="0px" y="0px" width="16px"
	 height="16px" viewBox="0 0 16 16" style="enable-background:new 0 0 16 16;" xml:space="preserve">
<g id="building-sofa-a" style="enable-background:new    ;">
	<g id="building-sofa-a_1_">
		<g>
			<path d="M15.999,7.499c0-1.209-0.859-2.218-2-2.45v-0.05c0-2.762-2.238-5-5-5h-2c-2.762,0-5,2.238-5,5v0.05
				c-1.141,0.232-2,1.241-2,2.45c0,0.863,0.438,1.624,1.104,2.073C1.04,9.703,0.999,9.845,0.999,9.999v2v1v0.999
				c0,0.554,0.447,1.001,1,1.001h0.5v1h1v-1h3.5h2h3.5v1h1v-1h0.5c0.553,0,1-0.447,1-1.001v-0.999v-1v-2
				c0-0.154-0.041-0.296-0.104-0.427C15.562,9.123,15.999,8.362,15.999,7.499z M2.999,4.999c0-2.21,1.791-4.001,4-4.001h2
				c2.209,0,4,1.791,4,4.001v0.05c-1.141,0.232-2,1.241-2,2.45c0,0.284,0.057,0.554,0.145,0.809
				C10.194,8.137,9.11,7.999,7.999,7.999c-1.104,0-2.191,0.14-3.147,0.312c0.089-0.256,0.147-0.526,0.147-0.812
				c0-1.209-0.859-2.218-2-2.45V4.999z M0.999,7.499c0-0.829,0.671-1.5,1.5-1.5c0.828,0,1.5,0.671,1.5,1.5
				c0,0.828-0.672,1.5-1.5,1.5C1.67,8.999,0.999,8.327,0.999,7.499z M13.999,13.499c0,0.275-0.225,0.499-0.5,0.499h-1h-9h-1
				c-0.276,0-0.5-0.224-0.5-0.499v-0.5h12V13.499z M13.999,11.999h-12v-1.501c0-0.275,0.224-0.499,0.5-0.499
				c0.502,0,0.967-0.151,1.359-0.406c1.058-0.277,2.591-0.594,4.141-0.594c1.551,0,3.082,0.316,4.139,0.593
				c0.393,0.256,0.859,0.407,1.361,0.407c0.275,0,0.5,0.224,0.5,0.499V11.999z M13.499,8.999c-0.828,0-1.5-0.672-1.5-1.5
				c0-0.829,0.672-1.5,1.5-1.5s1.5,0.671,1.5,1.5C14.999,8.327,14.327,8.999,13.499,8.999z"/>
		</g>
	</g>
</g>
<g id="Layer_1">
</g>
</svg>
