<?xml version="1.0" encoding="iso-8859-1"?>
<!-- Generator: Adobe Illustrator 16.0.0, SVG Export Plug-In . SVG Version: 6.00 Build 0)  -->
<!DOCTYPE svg PUBLIC "-//W3C//DTD SVG 1.1//EN" "http://www.w3.org/Graphics/SVG/1.1/DTD/svg11.dtd">
<svg version="1.1" xmlns="http://www.w3.org/2000/svg" xmlns:xlink="http://www.w3.org/1999/xlink" x="0px" y="0px" width="16px"
	 height="16px" viewBox="0 0 16 16" style="enable-background:new 0 0 16 16;" xml:space="preserve">
<g id="building-sofa-twin" style="enable-background:new    ;">
	<g id="building-sofa-twin_1_">
		<g>
			<path d="M15.499,9.499c0-0.738-0.404-1.376-1-1.723V4.5V4.499v-1c0-1.656-1.344-3-3-3h-3h-1h-3c-1.657,0-3,1.343-3,3v4.277
				c-0.595,0.347-1,0.984-1,1.723c0,0.204,0.04,0.397,0.097,0.584c-0.059,0.127-0.097,0.266-0.097,0.416v2
				c0,0.552,0.448,0.999,1,0.999v2.001h1v-2.001h5h1h5v2.001h1v-2.001c0.553,0,1-0.447,1-0.999v-2c0-0.15-0.037-0.289-0.098-0.416
				C15.46,9.896,15.499,9.703,15.499,9.499z M2.499,8.499c0.552,0,1,0.447,1,1s-0.448,1-1,1s-1-0.447-1-1S1.947,8.499,2.499,8.499z
				 M7.499,12.499h-5.5c-0.276,0-0.5-0.225-0.5-0.5v-0.777c0.295,0.171,0.634,0.277,1,0.277c0.738,0,1.376-0.405,1.723-1h3.277
				V12.499z M7.499,9.499h-3c0-1.105-0.896-2.001-2-2.001v-3V3.499c0-1.104,0.896-2,2-2h3v5h1v-5h3c1.104,0,2,0.896,2,2v1
				c0,0,0,0,0,0.001v2.221v0.777c-1.105,0-2,0.896-2,2.001h-3H7.499z M14.499,11.999c0,0.275-0.225,0.5-0.5,0.5h-5.5v-2h3.277
				c0.346,0.595,0.984,1,1.723,1c0.365,0,0.705-0.106,1-0.277V11.999z M13.499,10.499c-0.553,0-1-0.447-1-1s0.447-1,1-1s1,0.447,1,1
				S14.052,10.499,13.499,10.499z"/>
		</g>
	</g>
</g>
<g id="Layer_1">
</g>
</svg>
