<?xml version="1.0" encoding="iso-8859-1"?>
<!-- Generator: Adobe Illustrator 16.0.0, SVG Export Plug-In . SVG Version: 6.00 Build 0)  -->
<!DOCTYPE svg PUBLIC "-//W3C//DTD SVG 1.1//EN" "http://www.w3.org/Graphics/SVG/1.1/DTD/svg11.dtd">
<svg version="1.1" xmlns="http://www.w3.org/2000/svg" xmlns:xlink="http://www.w3.org/1999/xlink" x="0px" y="0px" width="16px"
	 height="16px" viewBox="0 0 16 16" style="enable-background:new 0 0 16 16;" xml:space="preserve">
<g id="business-tie" style="enable-background:new    ;">
	<g id="business-tie_1_">
		<g>
			<path d="M10.999-0.001h-6l1,4.999l-1,2.001v5.5c0,0,0.283,0.657,0.527,1.027c0.972,1.472,2.473,2.473,2.473,2.473
				s1.5-1.001,2.48-2.481c0.242-0.364,0.52-1.019,0.52-1.019v-5.5l-1-2.001L10.999-0.001z M9.999,0.999l-0.857,3H6.856l-0.857-3
				H9.999z M5.999,6.999l1-2.001h2L9.675,6.35L5.999,8.644V6.999z M9.999,12.499l-2,2.499l-1.663-2.077l3.663-2.126V12.499z
				 M9.999,9.646l-4,2.321V9.813l4-2.496V9.646z"/>
		</g>
	</g>
</g>
<g id="Layer_1">
</g>
</svg>
