<?xml version="1.0" encoding="iso-8859-1"?>
<!-- Generator: Adobe Illustrator 16.0.0, SVG Export Plug-In . SVG Version: 6.00 Build 0)  -->
<!DOCTYPE svg PUBLIC "-//W3C//DTD SVG 1.1//EN" "http://www.w3.org/Graphics/SVG/1.1/DTD/svg11.dtd">
<svg version="1.1" xmlns="http://www.w3.org/2000/svg" xmlns:xlink="http://www.w3.org/1999/xlink" x="0px" y="0px" width="16px"
	 height="16px" viewBox="0 0 16 16" style="enable-background:new 0 0 16 16;" xml:space="preserve">
<g id="com-chat" style="enable-background:new    ;">
	<g id="com-chat_2_">
		<g>
			<path d="M3.999,5.498c-0.552,0-1,0.448-1,1c0,0.553,0.448,1,1,1s1-0.447,1-1C4.999,5.946,4.551,5.498,3.999,5.498z M7.999,5.498
				c-0.552,0-1,0.448-1,1c0,0.553,0.448,1,1,1c0.553,0,1-0.447,1-1C8.999,5.946,8.552,5.498,7.999,5.498z M11.999,5.498
				c-0.553,0-1,0.448-1,1c0,0.553,0.447,1,1,1s1-0.447,1-1C12.999,5.946,12.552,5.498,11.999,5.498z M10.999,0.499h-6
				c-2.762,0-5,2.238-5,4.999v2c0,2.05,1.235,3.806,3,4.578v3.423l4.125-3.001h3.875c2.762,0,5-2.238,5-5v-2
				C15.999,2.737,13.761,0.499,10.999,0.499z M14.999,7.498c0,2.21-1.791,4-4,4h-4.2l-2.8,2.001v-2.142
				c-1.722-0.446-3-1.997-3-3.859v-2c0-2.209,1.791-4,4-4h6c2.209,0,4,1.791,4,4V7.498z"/>
		</g>
	</g>
</g>
<g id="Layer_1">
</g>
</svg>
