<?xml version="1.0" encoding="iso-8859-1"?>
<!-- Generator: Adobe Illustrator 16.0.0, SVG Export Plug-In . SVG Version: 6.00 Build 0)  -->
<!DOCTYPE svg PUBLIC "-//W3C//DTD SVG 1.1//EN" "http://www.w3.org/Graphics/SVG/1.1/DTD/svg11.dtd">
<svg version="1.1" xmlns="http://www.w3.org/2000/svg" xmlns:xlink="http://www.w3.org/1999/xlink" x="0px" y="0px" width="16px"
	 height="16px" viewBox="0 0 16 16" style="enable-background:new 0 0 16 16;" xml:space="preserve">
<g id="com-bubble-line" style="enable-background:new    ;">
	<g id="com-bubble-line_1_">
		<g>
			<path d="M11.499,4.999h-7c-0.276,0-0.5,0.225-0.5,0.5c0,0.276,0.224,0.5,0.5,0.5h7c0.276,0,0.5-0.224,0.5-0.5
				C11.999,5.223,11.775,4.999,11.499,4.999z M10.499,7.999h-5c-0.276,0-0.5,0.223-0.5,0.5c0,0.275,0.224,0.5,0.5,0.5h5
				c0.276,0,0.5-0.225,0.5-0.5C10.999,8.222,10.775,7.999,10.499,7.999z M7.999-0.001c-4.418,0-8,3.134-8,7.001
				c0,2.208,1.173,4.175,3,5.458v3.541l4.097-2.047c0.297,0.027,0.598,0.047,0.903,0.047c4.419,0,8-3.135,8-7
				C15.999,3.132,12.418-0.001,7.999-0.001z M7.999,12.999c-0.822,0-0.977,0-1,0l-3,1.5V11.89c-1.806-1.082-3-2.859-3-4.89
				c0-3.314,3.134-6.001,7-6.001s7,2.687,7,6.001C14.999,10.312,11.865,12.999,7.999,12.999z"/>
		</g>
	</g>
</g>
<g id="Layer_1">
</g>
</svg>
