<?xml version="1.0" encoding="iso-8859-1"?>
<!-- Generator: Adobe Illustrator 16.0.0, SVG Export Plug-In . SVG Version: 6.00 Build 0)  -->
<!DOCTYPE svg PUBLIC "-//W3C//DTD SVG 1.1//EN" "http://www.w3.org/Graphics/SVG/1.1/DTD/svg11.dtd">
<svg version="1.1" xmlns="http://www.w3.org/2000/svg" xmlns:xlink="http://www.w3.org/1999/xlink" x="0px" y="0px" width="16px"
	 height="16px" viewBox="0 0 16 16" style="enable-background:new 0 0 16 16;" xml:space="preserve">
<g id="com-email-o" style="enable-background:new    ;">
	<g id="com-email-o_2_">
		<g>
			<path d="M7.999-0.001l-8,4.999v11.001h16V4.998L7.999-0.001z M7.999,0.998l6.795,4.369l-7.022,5.325l-1.78-1.438l0.003-0.004
				L5.246,8.503L5.174,8.595L1.187,5.377L7.999,0.998z M0.999,6.525l3.554,2.869l-3.554,4.57V6.525z M1.526,14.999l3.845-4.945
				l2.117,1.709l0.233,0.233l0.029-0.021l0.027,0.021l0.175-0.175l2.547-1.932l3.973,5.109H1.526z M14.999,13.965l-3.662-4.71
				l3.662-2.777V13.965z"/>
		</g>
	</g>
</g>
<g id="Layer_1">
</g>
</svg>
