<?xml version="1.0" encoding="iso-8859-1"?>
<!-- Generator: Adobe Illustrator 16.0.0, SVG Export Plug-In . SVG Version: 6.00 Build 0)  -->
<!DOCTYPE svg PUBLIC "-//W3C//DTD SVG 1.1//EN" "http://www.w3.org/Graphics/SVG/1.1/DTD/svg11.dtd">
<svg version="1.1" xmlns="http://www.w3.org/2000/svg" xmlns:xlink="http://www.w3.org/1999/xlink" x="0px" y="0px" width="16px"
	 height="16px" viewBox="0 0 16 16" style="enable-background:new 0 0 16 16;" xml:space="preserve">
<g id="com-email" style="enable-background:new    ;">
	<g id="com-email_1_">
		<g>
			<path d="M15.981,1.989c0-0.007-0.004-0.012-0.004-0.019c-0.006-0.116-0.053-0.221-0.125-0.302
				c-0.008-0.01-0.004-0.023-0.014-0.032C15.829,1.626,15.812,1.63,15.8,1.62c-0.074-0.063-0.166-0.102-0.27-0.111
				c-0.02-0.002-0.033-0.011-0.053-0.01H0.521c-0.02-0.001-0.034,0.008-0.054,0.01C0.365,1.519,0.273,1.558,0.198,1.62
				c-0.012,0.01-0.029,0.006-0.04,0.017C0.149,1.646,0.153,1.659,0.145,1.669C0.072,1.75,0.027,1.854,0.02,1.971
				c0,0.007-0.004,0.012-0.003,0.019c0,0.003-0.002,0.006-0.002,0.01v12c0,0.276,0.223,0.5,0.499,0.5h14.97
				c0.277,0,0.5-0.224,0.5-0.5v-12C15.983,1.995,15.981,1.992,15.981,1.989z M14.071,2.499l-6.072,4.87l-6.072-4.87H14.071z
				 M14.985,12.999c0,0.275-0.223,0.5-0.5,0.5H1.512c-0.276,0-0.499-0.225-0.499-0.5V3.018L7.63,8.325
				c0.007,0.007,0.003,0.019,0.011,0.025C7.74,8.45,7.87,8.493,7.999,8.491C8.128,8.493,8.257,8.45,8.356,8.351
				C8.364,8.344,8.36,8.332,8.368,8.325l6.617-5.308V12.999z"/>
		</g>
	</g>
</g>
<g id="Layer_1">
</g>
</svg>
