<?xml version="1.0" encoding="iso-8859-1"?>
<!-- Generator: Adobe Illustrator 16.0.0, SVG Export Plug-In . SVG Version: 6.00 Build 0)  -->
<!DOCTYPE svg PUBLIC "-//W3C//DTD SVG 1.1//EN" "http://www.w3.org/Graphics/SVG/1.1/DTD/svg11.dtd">
<svg version="1.1" xmlns="http://www.w3.org/2000/svg" xmlns:xlink="http://www.w3.org/1999/xlink" x="0px" y="0px" width="16px"
	 height="16px" viewBox="0 0 16 16" style="enable-background:new 0 0 16 16;" xml:space="preserve">
<g id="com-paperplane" style="enable-background:new    ;">
	<g id="com-paperplane_1_">
		<g>
			<path d="M15.886,0.219c-0.015-0.021-0.032-0.038-0.05-0.057c-0.02-0.019-0.037-0.036-0.059-0.052
				c-0.12-0.093-0.274-0.137-0.432-0.095L0.379,7.441C0.371,7.443,0.364,7.45,0.356,7.453C0.193,7.5,0.057,7.62,0.012,7.798
				C-0.01,7.887,0,7.975,0.024,8.059c0,0.003,0,0.005,0,0.008c0.001,0.006,0.006,0.01,0.008,0.016
				c0.017,0.052,0.039,0.099,0.07,0.142c0.016,0.022,0.034,0.041,0.052,0.06C0.18,8.31,0.205,8.334,0.236,8.355
				c0.026,0.018,0.053,0.029,0.082,0.042C0.341,8.408,0.36,8.425,0.386,8.432l4.539,2.164l2.64,5.016
				c0.007,0.026,0.024,0.046,0.036,0.069c0.012,0.028,0.024,0.055,0.041,0.081c0.021,0.03,0.046,0.056,0.072,0.082
				c0.019,0.018,0.037,0.036,0.059,0.052c0.044,0.031,0.091,0.053,0.142,0.069c0.006,0.002,0.01,0.007,0.016,0.008
				c0.002,0.001,0.005,0,0.007,0.001c0.084,0.023,0.172,0.034,0.261,0.012c0.177-0.045,0.297-0.181,0.344-0.343
				c0.003-0.01,0.01-0.016,0.013-0.024l7.426-14.967C16.023,0.494,15.979,0.339,15.886,0.219z M1.65,7.929l11.161-5.537L5.188,9.615
				L1.65,7.929z M8.043,14.396l-2.145-4.075l7.862-7.449L8.043,14.396z"/>
		</g>
	</g>
</g>
<g id="Layer_1">
</g>
</svg>
