<?xml version="1.0" encoding="iso-8859-1"?>
<!-- Generator: Adobe Illustrator 16.0.0, SVG Export Plug-In . SVG Version: 6.00 Build 0)  -->
<!DOCTYPE svg PUBLIC "-//W3C//DTD SVG 1.1//EN" "http://www.w3.org/Graphics/SVG/1.1/DTD/svg11.dtd">
<svg version="1.1" xmlns="http://www.w3.org/2000/svg" xmlns:xlink="http://www.w3.org/1999/xlink" x="0px" y="0px" width="16px"
	 height="16px" viewBox="0 0 16 16" style="enable-background:new 0 0 16 16;" xml:space="preserve">
<g id="com-bell" style="enable-background:new    ;">
	<g id="com-bell_2_">
		<g>
			<path d="M7.999,15.499c0.651,0,1.192-0.42,1.399-1H6.6C6.807,15.079,7.348,15.499,7.999,15.499z M13.999,12.499h-0.5v-7
				c0-2.209-1.791-4-4-4h-0.5c0-0.552-0.447-1-1-1c-0.552,0-1,0.448-1,1h-0.5c-2.209,0-4,1.791-4,4v7h-0.5
				c-0.276,0-0.5,0.225-0.5,0.5s0.224,0.5,0.5,0.5h3.5H6.6h2.797h1.102h3.5c0.275,0,0.5-0.225,0.5-0.5S14.274,12.499,13.999,12.499z
				 M12.499,12.499h-9v-7c0-1.656,1.343-2.999,3-2.999h3c1.656,0,3,1.343,3,2.999V12.499z"/>
		</g>
	</g>
</g>
<g id="Layer_1">
</g>
</svg>
