<?xml version="1.0" encoding="iso-8859-1"?>
<!-- Generator: Adobe Illustrator 16.0.0, SVG Export Plug-In . SVG Version: 6.00 Build 0)  -->
<!DOCTYPE svg PUBLIC "-//W3C//DTD SVG 1.1//EN" "http://www.w3.org/Graphics/SVG/1.1/DTD/svg11.dtd">
<svg version="1.1" xmlns="http://www.w3.org/2000/svg" xmlns:xlink="http://www.w3.org/1999/xlink" x="0px" y="0px" width="16px"
	 height="16px" viewBox="0 0 16 16" style="enable-background:new 0 0 16 16;" xml:space="preserve">
<g id="com-envelope" style="enable-background:new    ;">
	<g id="com-envelope_2_">
		<g>
			<path d="M1.999,11.499h7v-1h-7V11.499z M1.999,9.499h7v-1h-7V9.499z M9.999,7.499h4V3.5h-4V7.499z M10.999,4.499h2V6.5h-2V4.499z
				 M14.999,1.5h-14c-0.552,0-1,0.447-1,1v11c0,0.553,0.448,1,1,1h14c0.553,0,1-0.447,1-1v-11C15.999,1.947,15.552,1.5,14.999,1.5z
				 M14.999,12.999c0,0.275-0.225,0.5-0.5,0.5h-13c-0.276,0-0.5-0.225-0.5-0.5V3c0-0.276,0.224-0.5,0.5-0.5h13
				c0.275,0,0.5,0.224,0.5,0.5V12.999z"/>
		</g>
	</g>
</g>
<g id="Layer_1">
</g>
</svg>
