<?xml version="1.0" encoding="iso-8859-1"?>
<!-- Generator: Adobe Illustrator 16.0.0, SVG Export Plug-In . SVG Version: 6.00 Build 0)  -->
<!DOCTYPE svg PUBLIC "-//W3C//DTD SVG 1.1//EN" "http://www.w3.org/Graphics/SVG/1.1/DTD/svg11.dtd">
<svg version="1.1" xmlns="http://www.w3.org/2000/svg" xmlns:xlink="http://www.w3.org/1999/xlink" x="0px" y="0px" width="16px"
	 height="16px" viewBox="0 0 16 16" style="enable-background:new 0 0 16 16;" xml:space="preserve">
<g id="com-phone-a" style="enable-background:new    ;">
	<g id="com-phone-a_1_">
		<g>
			<path d="M15.76,2.339c-0.017-0.023-1.694-2.372-2.667-2.341c-2.73,0.086-5.94,2.729-8.151,4.933
				C2.73,7.132,0.075,10.329-0.012,13.06v0.022c0,0.957,2.328,2.638,2.351,2.653c0.633,0.441,1.329,0.28,1.612-0.121
				c0.172-0.244,1.957-2.917,2.158-3.244c0.087-0.144,0.13-0.317,0.13-0.507c0-0.244-0.071-0.515-0.211-0.779
				c-0.136-0.257-0.581-1.036-0.8-1.417C5.464,9.331,6.071,8.542,7.32,7.299c1.24-1.235,2.039-1.846,2.377-2.082
				c0.383,0.218,1.165,0.659,1.422,0.795c0.485,0.255,0.971,0.284,1.297,0.077c0.309-0.195,2.972-1.965,3.226-2.147
				c0.239-0.173,0.368-0.48,0.368-0.815C16.01,2.862,15.93,2.583,15.76,2.339z M15.036,3.167c-0.41,0.28-2.7,1.787-3.128,2.061
				c-0.045,0.001-0.16-0.015-0.323-0.1c-0.174-0.091-0.682-0.375-1.392-0.777L9.642,4.037L9.121,4.4
				c-0.388,0.271-1.229,0.918-2.51,2.193c-1.287,1.281-1.933,2.116-2.204,2.5L4.042,9.611l0.316,0.551
				c0.306,0.533,0.672,1.177,0.783,1.387c0.089,0.168,0.096,0.283,0.096,0.314c0,0.005,0,0.009,0,0.013
				C4.995,12.258,3.442,14.588,3.159,15c-0.04,0.006-0.127,0-0.236-0.075c-0.88-0.633-1.799-1.532-1.931-1.884
				c0.088-1.871,1.74-4.498,4.659-7.405c2.919-2.907,5.553-4.552,7.426-4.639c0.354,0.126,1.262,1.042,1.893,1.911
				c0.045,0.064,0.07,0.144,0.07,0.218C15.039,3.143,15.038,3.157,15.036,3.167z"/>
		</g>
	</g>
</g>
<g id="Layer_1">
</g>
</svg>
