<?xml version="1.0" encoding="iso-8859-1"?>
<!-- Generator: Adobe Illustrator 16.0.0, SVG Export Plug-In . SVG Version: 6.00 Build 0)  -->
<!DOCTYPE svg PUBLIC "-//W3C//DTD SVG 1.1//EN" "http://www.w3.org/Graphics/SVG/1.1/DTD/svg11.dtd">
<svg version="1.1" xmlns="http://www.w3.org/2000/svg" xmlns:xlink="http://www.w3.org/1999/xlink" x="0px" y="0px" width="16px"
	 height="16px" viewBox="0 0 16 16" style="enable-background:new 0 0 16 16;" xml:space="preserve">
<g id="com-bubble-line-a" style="enable-background:new    ;">
	<g id="com-bubble-line-a_2_">
		<g>
			<path d="M10.499,6.999h-5c-0.276,0-0.5,0.224-0.5,0.501c0,0.275,0.224,0.499,0.5,0.499h5c0.275,0,0.5-0.224,0.5-0.499
				C10.999,7.222,10.774,6.999,10.499,6.999z M12.999,0h-10c-1.657,0-3,1.343-3,2.999v6.5c0,1.656,1.343,2.5,3,2.5h5.6l4.4,4v-4
				c1.656,0,3-1.344,3-3v-6C15.999,1.342,14.655,0,12.999,0z M14.999,8.999c0,1.105-0.896,2-2,2h-1v2.777l-3-2.777h-6
				c-1.104,0-2-0.395-2-1.5v-6.5c0-1.104,0.896-2,2-2h10c1.104,0,2,0.896,2,2V8.999z M11.499,4h-7c-0.276,0-0.5,0.224-0.5,0.5
				c0,0.275,0.224,0.499,0.5,0.499h7c0.275,0,0.5-0.224,0.5-0.499C11.999,4.223,11.774,4,11.499,4z"/>
		</g>
	</g>
</g>
<g id="Layer_1">
</g>
</svg>
