<?xml version="1.0" encoding="iso-8859-1"?>
<!-- Generator: Adobe Illustrator 16.0.0, SVG Export Plug-In . SVG Version: 6.00 Build 0)  -->
<!DOCTYPE svg PUBLIC "-//W3C//DTD SVG 1.1//EN" "http://www.w3.org/Graphics/SVG/1.1/DTD/svg11.dtd">
<svg version="1.1" xmlns="http://www.w3.org/2000/svg" xmlns:xlink="http://www.w3.org/1999/xlink" x="0px" y="0px" width="16px"
	 height="16px" viewBox="0 0 16 16" style="enable-background:new 0 0 16 16;" xml:space="preserve">
<g id="com-help" style="enable-background:new    ;">
	<g id="com-help_2_">
		<g>
			<path d="M7.864,2.499c-1.034,0-1.84,0.425-2.363,1.113l0.544,0.589C6.449,3.655,6.96,3.306,7.788,3.306
				c0.85,0,1.273,0.469,1.273,1.015c0,1.157-1.959,1.266-1.959,2.65c0,0.339,0.12,0.646,0.414,0.896l0.665-0.295
				C7.995,7.441,7.897,7.223,7.897,7.048c0-1.069,2.102-1.211,2.102-2.858C9.999,3.251,9.192,2.499,7.864,2.499z M7.745,8.794
				c-0.327,0-0.599,0.273-0.599,0.6c0,0.328,0.272,0.602,0.599,0.602s0.598-0.273,0.598-0.602C8.343,9.067,8.071,8.794,7.745,8.794z
				 M12.999-0.001h-10c-1.657,0-3,1.396-3,3.121v6.76c0,1.723,1.343,3.119,3,3.119h6.25l3.75,3v-3c1.656,0,3-1.396,3-3.119V3.12
				C15.999,1.395,14.655-0.001,12.999-0.001z M14.999,9.903c0,1.158-0.896,2.096-2,2.096h-1v2l-2.4-2h-6.6c-1.104,0-2-0.938-2-2.096
				V3.094c0-1.157,0.896-2.096,2-2.096h10c1.104,0,2,0.938,2,2.096V9.903z"/>
		</g>
	</g>
</g>
<g id="Layer_1">
</g>
</svg>
