<?xml version="1.0" encoding="iso-8859-1"?>
<!-- Generator: Adobe Illustrator 16.0.0, SVG Export Plug-In . SVG Version: 6.00 Build 0)  -->
<!DOCTYPE svg PUBLIC "-//W3C//DTD SVG 1.1//EN" "http://www.w3.org/Graphics/SVG/1.1/DTD/svg11.dtd">
<svg version="1.1" xmlns="http://www.w3.org/2000/svg" xmlns:xlink="http://www.w3.org/1999/xlink" x="0px" y="0px" width="16px"
	 height="16px" viewBox="0 0 16 16" style="enable-background:new 0 0 16 16;" xml:space="preserve">
<g id="com-phone" style="enable-background:new    ;">
	<g id="com-phone_2_">
		<g>
			<path d="M13.648,0.27c-0.632-0.441-1.326-0.28-1.608,0.121c-0.172,0.244-1.953,2.914-2.153,3.241
				C9.799,3.775,9.756,3.949,9.756,4.138c0,0.243,0.071,0.514,0.211,0.778c0.136,0.257,0.58,1.034,0.798,1.416
				c-0.236,0.335-0.842,1.123-2.088,2.366c-1.238,1.234-2.035,1.844-2.373,2.081c-0.382-0.218-1.163-0.66-1.42-0.795
				C4.399,9.729,3.916,9.7,3.59,9.907c-0.308,0.194-2.966,1.964-3.219,2.146c-0.239,0.172-0.367,0.479-0.367,0.814
				c0,0.265,0.079,0.544,0.249,0.787c0.017,0.023,1.691,2.369,2.661,2.338c2.726-0.086,5.93-2.728,8.137-4.927
				c2.207-2.2,4.856-5.394,4.943-8.124V2.92C15.994,1.964,13.671,0.286,13.648,0.27z M10.344,10.36
				c-2.914,2.903-5.543,4.547-7.412,4.634c-0.354-0.126-1.26-1.041-1.89-1.909c-0.044-0.064-0.069-0.144-0.069-0.218
				c0-0.016,0.001-0.03,0.003-0.041c0.408-0.28,2.694-1.785,3.121-2.059c0.045-0.001,0.159,0.015,0.322,0.1
				c0.175,0.091,0.681,0.375,1.389,0.777l0.552,0.313l0.52-0.363c0.386-0.271,1.227-0.916,2.505-2.19
				c1.284-1.28,1.929-2.116,2.199-2.499l0.365-0.519l-0.315-0.55c-0.305-0.532-0.671-1.176-0.781-1.386
				c-0.089-0.167-0.096-0.282-0.096-0.313c0-0.005,0-0.01,0.001-0.013c0.24-0.382,1.79-2.71,2.073-3.121
				c0.04-0.007,0.127,0,0.235,0.075c0.879,0.633,1.796,1.53,1.928,1.882C14.905,4.832,13.257,7.456,10.344,10.36z"/>
		</g>
	</g>
</g>
<g id="Layer_1">
</g>
</svg>
