<?xml version="1.0" encoding="iso-8859-1"?>
<!-- Generator: Adobe Illustrator 16.0.0, SVG Export Plug-In . SVG Version: 6.00 Build 0)  -->
<!DOCTYPE svg PUBLIC "-//W3C//DTD SVG 1.1//EN" "http://www.w3.org/Graphics/SVG/1.1/DTD/svg11.dtd">
<svg version="1.1" xmlns="http://www.w3.org/2000/svg" xmlns:xlink="http://www.w3.org/1999/xlink" x="0px" y="0px" width="16px"
	 height="16px" viewBox="0 0 16 16" style="enable-background:new 0 0 16 16;" xml:space="preserve">
<g id="com-group-bubble" style="enable-background:new    ;">
	<g id="com-group-bubble_1_">
		<g>
			<path d="M15.998,12.995v-1.492v-0.006V4.496h-4v-0.5v-3.5h-12l0.001,7h-0.001v2.5h-0.006l2.506,2.506l2.006-2.004h1.495v2.998
				l5.494,0.002l2.005,2.006l2.507-2.508H15.998z M5.999,9.497H4.004l-1.506,1.506l-1.499-1.5V8.495v-1v-6h9.999v2.5v0.5H5.999
				V9.497z M10.998,5.496v4.001H6.999V5.496H10.998z M14.998,10.495v1.002v1.006l-1.5,1.5l-1.506-1.508H6.999v-2h3.999h1V9.497
				V5.496h3V10.495z"/>
		</g>
	</g>
</g>
<g id="Layer_1">
</g>
</svg>
