<?xml version="1.0" encoding="iso-8859-1"?>
<!-- Generator: Adobe Illustrator 16.0.0, SVG Export Plug-In . SVG Version: 6.00 Build 0)  -->
<!DOCTYPE svg PUBLIC "-//W3C//DTD SVG 1.1//EN" "http://www.w3.org/Graphics/SVG/1.1/DTD/svg11.dtd">
<svg version="1.1" xmlns="http://www.w3.org/2000/svg" xmlns:xlink="http://www.w3.org/1999/xlink" x="0px" y="0px" width="16px"
	 height="16px" viewBox="0 0 16 16" style="enable-background:new 0 0 16 16;" xml:space="preserve">
<g id="com-voicemail" style="enable-background:new    ;">
	<g id="com-voicemail_1_">
		<g>
			<path d="M12.499,4.5c-1.934,0-3.5,1.566-3.5,3.499c0,0.981,0.406,1.866,1.057,2.5H5.943c0.65-0.635,1.056-1.52,1.056-2.5
				c0-1.933-1.567-3.499-3.5-3.499c-1.933,0-3.5,1.566-3.5,3.499c0,1.934,1.567,3.5,3.5,3.5h9c1.934,0,3.5-1.566,3.5-3.5
				C15.999,6.066,14.433,4.5,12.499,4.5z M3.499,10.499c-1.381,0-2.5-1.119-2.5-2.5c0-1.38,1.119-2.5,2.5-2.5
				c1.38,0,2.5,1.12,2.5,2.5C5.999,9.38,4.879,10.499,3.499,10.499z M12.499,10.499c-1.381,0-2.5-1.119-2.5-2.5
				c0-1.38,1.119-2.5,2.5-2.5s2.5,1.12,2.5,2.5C14.999,9.38,13.88,10.499,12.499,10.499z"/>
		</g>
	</g>
</g>
<g id="Layer_1">
</g>
</svg>
