<?xml version="1.0" encoding="iso-8859-1"?>
<!-- Generator: Adobe Illustrator 16.0.0, SVG Export Plug-In . SVG Version: 6.00 Build 0)  -->
<!DOCTYPE svg PUBLIC "-//W3C//DTD SVG 1.1//EN" "http://www.w3.org/Graphics/SVG/1.1/DTD/svg11.dtd">
<svg version="1.1" xmlns="http://www.w3.org/2000/svg" xmlns:xlink="http://www.w3.org/1999/xlink" x="0px" y="0px" width="16px"
	 height="16px" viewBox="0 0 16 16" style="enable-background:new 0 0 16 16;" xml:space="preserve">
<g id="com-bubble-line-b" style="enable-background:new    ;">
	<g id="com-bubble-line-b_1_">
		<g>
			<path d="M10.499,7.496h-5c-0.276,0-0.5,0.225-0.5,0.5c0,0.277,0.224,0.5,0.5,0.5h5c0.275,0,0.5-0.223,0.5-0.5
				C10.999,7.72,10.774,7.496,10.499,7.496z M14.499,0.497h-13c-0.829,0-1.5,0.672-1.5,1.5v9.999c0,0.83,0.671,1.5,1.5,1.5h4.494
				l2.006,2.006l2.006-2.006h4.494c0.828,0,1.5-0.67,1.5-1.5V1.997C15.999,1.168,15.327,0.497,14.499,0.497z M14.999,11.997
				c0,0.275-0.225,0.5-0.5,0.5H9.505l-1.506,1.506l-1.505-1.506H1.499c-0.276,0-0.5-0.225-0.5-0.5v-10c0-0.276,0.224-0.5,0.5-0.5h13
				c0.275,0,0.5,0.224,0.5,0.5V11.997z M12.499,4.496h-9c-0.276,0-0.5,0.225-0.5,0.5c0,0.276,0.224,0.5,0.5,0.5h9
				c0.275,0,0.5-0.224,0.5-0.5C12.999,4.72,12.774,4.496,12.499,4.496z"/>
		</g>
	</g>
</g>
<g id="Layer_1">
</g>
</svg>
