<?xml version="1.0" encoding="iso-8859-1"?>
<!-- Generator: Adobe Illustrator 16.0.0, SVG Export Plug-In . SVG Version: 6.00 Build 0)  -->
<!DOCTYPE svg PUBLIC "-//W3C//DTD SVG 1.1//EN" "http://www.w3.org/Graphics/SVG/1.1/DTD/svg11.dtd">
<svg version="1.1" xmlns="http://www.w3.org/2000/svg" xmlns:xlink="http://www.w3.org/1999/xlink" x="0px" y="0px" width="16px"
	 height="16px" viewBox="0 0 16 16" style="enable-background:new 0 0 16 16;" xml:space="preserve">
<g id="com-email-cross" style="enable-background:new    ;">
	<g id="com-email-cross_1_">
		<g>
			<path d="M14.818,10.648c-0.203-0.204-0.533-0.204-0.737,0l-1.604,1.607l-1.604-1.607c-0.203-0.204-0.533-0.204-0.736,0
				c-0.204,0.203-0.204,0.535,0,0.738l1.604,1.608l-1.604,1.608c-0.204,0.204-0.204,0.534,0,0.738c0.203,0.204,0.533,0.204,0.736,0
				l1.604-1.608l1.604,1.608c0.204,0.204,0.534,0.204,0.737,0c0.204-0.204,0.204-0.534,0-0.738l-1.604-1.608l1.604-1.608
				C15.022,11.184,15.022,10.852,14.818,10.648z M15.502,0.505c-0.013-0.001-0.022-0.002-0.035-0.002H0.51
				c-0.02-0.001-0.035,0.008-0.054,0.01c-0.102,0.01-0.193,0.049-0.267,0.111c-0.012,0.01-0.03,0.005-0.041,0.017
				C0.139,0.649,0.143,0.664,0.134,0.674C0.062,0.755,0.017,0.858,0.01,0.975c0,0.007-0.003,0.012-0.003,0.019
				c0,0.003-0.002,0.006-0.002,0.01v12c0,0.276,0.224,0.501,0.5,0.501h7.501v-1H1.501c-0.276,0-0.5-0.225-0.5-0.501V2.021
				L7.62,7.329c0.007,0.007,0.004,0.019,0.011,0.025c0.099,0.1,0.228,0.143,0.358,0.141c0.129,0.002,0.258-0.041,0.358-0.141
				c0.007-0.007,0.004-0.018,0.011-0.025l6.638-5.324v7.499h0.998V1.003C15.993,0.73,15.773,0.51,15.502,0.505z M7.989,6.373
				L1.917,1.504H14.06L7.989,6.373z"/>
		</g>
	</g>
</g>
<g id="Layer_1">
</g>
</svg>
