<?xml version="1.0" encoding="iso-8859-1"?>
<!-- Generator: Adobe Illustrator 16.0.0, SVG Export Plug-In . SVG Version: 6.00 Build 0)  -->
<!DOCTYPE svg PUBLIC "-//W3C//DTD SVG 1.1//EN" "http://www.w3.org/Graphics/SVG/1.1/DTD/svg11.dtd">
<svg version="1.1" xmlns="http://www.w3.org/2000/svg" xmlns:xlink="http://www.w3.org/1999/xlink" x="0px" y="0px" width="16px"
	 height="16px" viewBox="0 0 16 16" style="enable-background:new 0 0 16 16;" xml:space="preserve">
<g id="com-email-minus" style="enable-background:new    ;">
	<g id="com-email-minus_1_">
		<g>
			<path d="M15.499,13.499h-4.014c-0.277,0-0.502,0.224-0.502,0.5c0,0.275,0.225,0.5,0.502,0.5h4.014c0.277,0,0.502-0.225,0.502-0.5
				C16.001,13.723,15.776,13.499,15.499,13.499z M14.987,10.5h0.998V1.999c0-0.273-0.221-0.493-0.492-0.498
				c-0.012-0.001-0.021-0.002-0.035-0.002H0.502c-0.02-0.001-0.035,0.008-0.054,0.01C0.346,1.519,0.254,1.558,0.18,1.62
				C0.168,1.63,0.151,1.625,0.14,1.637C0.131,1.646,0.134,1.66,0.126,1.669C0.054,1.751,0.008,1.854,0.001,1.971
				c0,0.007-0.003,0.012-0.003,0.019c0,0.003-0.002,0.006-0.002,0.01v12c0,0.275,0.224,0.5,0.5,0.5h7.5v-1H1.493
				c-0.276,0-0.5-0.224-0.5-0.5V3.017l6.619,5.309c0.007,0.007,0.003,0.019,0.011,0.025c0.099,0.1,0.229,0.143,0.358,0.141
				C8.11,8.493,8.239,8.45,8.339,8.351c0.006-0.007,0.004-0.019,0.01-0.025l6.639-5.324V10.5z M7.98,7.369l-6.072-4.87h12.143
				L7.98,7.369z"/>
		</g>
	</g>
</g>
<g id="Layer_1">
</g>
</svg>
