<?xml version="1.0" encoding="iso-8859-1"?>
<!-- Generator: Adobe Illustrator 16.0.0, SVG Export Plug-In . SVG Version: 6.00 Build 0)  -->
<!DOCTYPE svg PUBLIC "-//W3C//DTD SVG 1.1//EN" "http://www.w3.org/Graphics/SVG/1.1/DTD/svg11.dtd">
<svg version="1.1" xmlns="http://www.w3.org/2000/svg" xmlns:xlink="http://www.w3.org/1999/xlink" x="0px" y="0px" width="16px"
	 height="16px" viewBox="0 0 16 16" style="enable-background:new 0 0 16 16;" xml:space="preserve">
<g id="com-group-bubble-c" style="enable-background:new    ;">
	<g id="com-group-bubble-c_2_">
		<g>
			<path d="M10.874,3.997h-9.75c-0.622,0-1.125,0.49-1.125,1.097v7.809c0,0.605,0.503,1.097,1.125,1.097h2.87l2.005,2.003
				l2.004-2.003h2.871c0.621,0,1.125-0.491,1.125-1.097V5.094C11.999,4.487,11.495,3.997,10.874,3.997z M10.999,12.658
				c0,0.189-0.16,0.342-0.357,0.342H7.497l-1.498,1.495L4.501,13H1.356c-0.197,0-0.357-0.152-0.357-0.342V5.337
				c0-0.188,0.16-0.34,0.357-0.34h9.286c0.197,0,0.357,0.151,0.357,0.34V12.658z M14.874-0.004h-9.75
				c-0.622,0-1.125,0.493-1.125,1.101v1.9h1v-1.66c0-0.188,0.16-0.341,0.357-0.341h9.286c0.197,0,0.357,0.152,0.357,0.341v7.322
				c0,0.188-0.16,0.341-0.357,0.341h-1.643v0.997h2c0.621,0,1-0.46,1-1.067V1.097C15.999,0.489,15.495-0.004,14.874-0.004z"/>
		</g>
	</g>
</g>
<g id="Layer_1">
</g>
</svg>
