<?xml version="1.0" encoding="iso-8859-1"?>
<!-- Generator: Adobe Illustrator 16.0.0, SVG Export Plug-In . SVG Version: 6.00 Build 0)  -->
<!DOCTYPE svg PUBLIC "-//W3C//DTD SVG 1.1//EN" "http://www.w3.org/Graphics/SVG/1.1/DTD/svg11.dtd">
<svg version="1.1" xmlns="http://www.w3.org/2000/svg" xmlns:xlink="http://www.w3.org/1999/xlink" x="0px" y="0px" width="16px"
	 height="16px" viewBox="0 0 16 16" style="enable-background:new 0 0 16 16;" xml:space="preserve">
<g id="com-group-bubble-a" style="enable-background:new    ;">
	<g id="com-group-bubble-a_2_">
		<g>
			<path d="M12.928,2.565c0.406,0.636,0.7,1.332,0.862,2.069c0.727,0.867,1.175,1.937,1.175,3.111c0,2.056-1.332,3.818-3.244,4.644
				h0.673v1.541l-1.91-1.146c-0.38,0.072-0.771,0.115-1.176,0.115c-0.512,0-0.998-0.084-1.471-0.199
				c-0.602,0.127-1.227,0.201-1.872,0.201c-0.133,0-0.263-0.012-0.394-0.018c1.066,0.666,2.353,1.057,3.736,1.057
				c0.359,0,0.704-0.049,1.048-0.098l3.066,2.148v-3.395c1.555-1.133,2.571-2.869,2.571-4.843
				C15.993,5.575,14.769,3.667,12.928,2.565z M13.001,6.004c0-3.313-2.909-5.998-6.498-5.998S0.005,2.692,0.005,6.004
				c0,1.743,0.817,3.297,2.103,4.395v3.018L4.557,11.7c0.618,0.18,1.264,0.303,1.946,0.303C10.092,12.003,13.001,9.317,13.001,6.004
				z M4.382,10.606l-1.246,0.748V9.923C1.847,9.007,1.002,7.599,1.002,5.998c0-2.76,2.463-4.996,5.501-4.996
				s5.501,2.236,5.501,4.996c0,2.759-2.463,4.996-5.501,4.996C5.751,10.993,5.035,10.854,4.382,10.606z"/>
		</g>
	</g>
</g>
<g id="Layer_1">
</g>
</svg>
