<?xml version="1.0" encoding="iso-8859-1"?>
<!-- Generator: Adobe Illustrator 16.0.0, SVG Export Plug-In . SVG Version: 6.00 Build 0)  -->
<!DOCTYPE svg PUBLIC "-//W3C//DTD SVG 1.1//EN" "http://www.w3.org/Graphics/SVG/1.1/DTD/svg11.dtd">
<svg version="1.1" xmlns="http://www.w3.org/2000/svg" xmlns:xlink="http://www.w3.org/1999/xlink" x="0px" y="0px" width="16px"
	 height="16px" viewBox="0 0 16 16" style="enable-background:new 0 0 16 16;" xml:space="preserve">
<g id="com-help-a" style="enable-background:new    ;">
	<g id="com-help-a_1_">
		<g>
			<path d="M7.745,9.795c-0.327,0-0.599,0.272-0.599,0.6s0.272,0.601,0.599,0.601s0.598-0.273,0.598-0.601S8.071,9.795,7.745,9.795z
				 M7.864,3.499c-1.034,0-1.84,0.426-2.363,1.113l0.544,0.589C6.449,4.655,6.96,4.307,7.788,4.307c0.85,0,1.273,0.469,1.273,1.015
				c0,1.156-1.959,1.266-1.959,2.651c0,0.338,0.12,0.644,0.414,0.895l0.665-0.294C7.995,8.441,7.897,8.224,7.897,8.05
				c0-1.07,2.102-1.212,2.102-2.859C9.999,4.252,9.192,3.499,7.864,3.499z M7.999-0.001c-4.418,0-8,3.135-8,7
				c0,2.21,1.172,4.177,3,5.46v3.54l4.095-2.047C7.392,13.98,7.693,14,7.999,14c4.418,0,8-3.135,8-7.001
				C15.999,3.134,12.417-0.001,7.999-0.001z M7.999,12.999c-0.292,0-0.569-0.043-0.852-0.073l-3.148,1.573v-2.585
				c-1.81-1.085-3-2.878-3-4.915c0-3.313,3.134-6,7-6c3.865,0,7,2.688,7,6C14.999,10.313,11.864,12.999,7.999,12.999z"/>
		</g>
	</g>
</g>
<g id="Layer_1">
</g>
</svg>
