<?xml version="1.0" encoding="iso-8859-1"?>
<!-- Generator: Adobe Illustrator 16.0.0, SVG Export Plug-In . SVG Version: 6.00 Build 0)  -->
<!DOCTYPE svg PUBLIC "-//W3C//DTD SVG 1.1//EN" "http://www.w3.org/Graphics/SVG/1.1/DTD/svg11.dtd">
<svg version="1.1" xmlns="http://www.w3.org/2000/svg" xmlns:xlink="http://www.w3.org/1999/xlink" x="0px" y="0px" width="16px"
	 height="16px" viewBox="0 0 16 16" style="enable-background:new 0 0 16 16;" xml:space="preserve">
<g id="com-bubble" style="enable-background:new    ;">
	<g id="com-bubble_2_">
		<g>
			<path d="M7.999-0.001c-4.418,0-8,3.134-8,7.001c0,2.208,1.172,4.175,3,5.458v3.541l4.096-2.047
				c0.297,0.027,0.598,0.047,0.904,0.047c4.418,0,8-3.135,8-7C15.999,3.132,12.417-0.001,7.999-0.001z M7.999,12.999h-1l-3,1.5
				V11.89c-1.806-1.082-3-2.859-3-4.89c0-3.314,3.134-6.001,7-6.001c3.865,0,7,2.687,7,6.001
				C14.999,10.312,11.864,12.999,7.999,12.999z"/>
		</g>
	</g>
</g>
<g id="Layer_1">
</g>
</svg>
