<?xml version="1.0" encoding="iso-8859-1"?>
<!-- Generator: Adobe Illustrator 16.0.0, SVG Export Plug-In . SVG Version: 6.00 Build 0)  -->
<!DOCTYPE svg PUBLIC "-//W3C//DTD SVG 1.1//EN" "http://www.w3.org/Graphics/SVG/1.1/DTD/svg11.dtd">
<svg version="1.1" xmlns="http://www.w3.org/2000/svg" xmlns:xlink="http://www.w3.org/1999/xlink" x="0px" y="0px" width="16px"
	 height="16px" viewBox="0 0 16 16" style="enable-background:new 0 0 16 16;" xml:space="preserve">
<g id="com-email-tick" style="enable-background:new    ;">
	<g id="com-email-tick_2_">
		<g>
			<path d="M0.999,12.517V2.533l6.619,5.309C7.624,7.848,7.621,7.86,7.628,7.867c0.099,0.1,0.229,0.143,0.358,0.141
				C8.115,8.01,8.244,7.966,8.344,7.867C8.351,7.86,8.348,7.848,8.354,7.841l6.639-5.324v7.5h0.997V1.515
				c0-0.273-0.22-0.494-0.492-0.499c-0.012,0-0.021-0.002-0.033-0.001H0.507c-0.019-0.001-0.034,0.008-0.052,0.01
				c-0.103,0.01-0.195,0.049-0.27,0.111c-0.012,0.01-0.029,0.006-0.04,0.017C0.136,1.162,0.14,1.176,0.131,1.185
				C0.059,1.267,0.014,1.371,0.007,1.487c0,0.007-0.004,0.012-0.004,0.019c0,0.004-0.002,0.007-0.002,0.01v12
				c0,0.276,0.224,0.501,0.5,0.501h8.5v-1.001H1.499C1.223,13.016,0.999,12.791,0.999,12.517z M14.058,2.015l-6.072,4.87
				l-6.072-4.87H14.058z M15.845,11.16c-0.201-0.203-0.526-0.203-0.728,0l-2.634,2.664l-1.605-1.623c-0.2-0.204-0.526-0.204-0.728,0
				c-0.2,0.203-0.2,0.532,0,0.735l1.881,1.902c0.124,0.125,0.293,0.164,0.452,0.136c0.159,0.028,0.328-0.011,0.452-0.136
				l2.909-2.943C16.046,11.693,16.046,11.363,15.845,11.16z"/>
		</g>
	</g>
</g>
<g id="Layer_1">
</g>
</svg>
