<?xml version="1.0" encoding="iso-8859-1"?>
<!-- Generator: Adobe Illustrator 16.0.0, SVG Export Plug-In . SVG Version: 6.00 Build 0)  -->
<!DOCTYPE svg PUBLIC "-//W3C//DTD SVG 1.1//EN" "http://www.w3.org/Graphics/SVG/1.1/DTD/svg11.dtd">
<svg version="1.1" xmlns="http://www.w3.org/2000/svg" xmlns:xlink="http://www.w3.org/1999/xlink" x="0px" y="0px" width="16px"
	 height="16px" viewBox="0 0 16 16" style="enable-background:new 0 0 16 16;" xml:space="preserve">
<g id="com-group-bubble-b" style="enable-background:new    ;">
	<g id="com-group-bubble-b_1_">
		<g>
			<path d="M3.999,13.999v-2h-1c-0.776,0-1.44-0.445-1.772-1.092c-0.134-0.09-0.228-0.234-0.228-0.408v-0.5v-4V3.778
				c-0.61,0.549-1,1.336-1,2.221v4c0,1.656,1.343,3,3,3v3l3.75-3h2.25v-1H6.667L3.999,13.999z M12.999-0.001h-8
				c-1.657,0-3,1.344-3,3.001v3.999c0,1.657,1.343,3,3,3h4.25l3.75,3v-3c1.656,0,3-1.344,3-3V3
				C15.999,1.342,14.655-0.001,12.999-0.001z M14.999,6.999c0,1.106-0.896,2-2,2h-1v2l-2.668-2H4.999c-1.104,0-2-0.895-2-2V3
				c0-1.105,0.896-2,2-2h8c1.104,0,2,0.895,2,2V6.999z"/>
		</g>
	</g>
</g>
<g id="Layer_1">
</g>
</svg>
