<?xml version="1.0" encoding="iso-8859-1"?>
<!-- Generator: Adobe Illustrator 16.0.0, SVG Export Plug-In . SVG Version: 6.00 Build 0)  -->
<!DOCTYPE svg PUBLIC "-//W3C//DTD SVG 1.1//EN" "http://www.w3.org/Graphics/SVG/1.1/DTD/svg11.dtd">
<svg version="1.1" xmlns="http://www.w3.org/2000/svg" xmlns:xlink="http://www.w3.org/1999/xlink" x="0px" y="0px" width="16px"
	 height="16px" viewBox="0 0 16 16" style="enable-background:new 0 0 16 16;" xml:space="preserve">
<g id="com-fountain-pen" style="enable-background:new    ;">
	<g id="com-fountain-pen_2_">
		<g>
			<path d="M12.499,12.998h-1l2-4l-5.5-8.999l-5.5,8.999l2,4h-1c-0.552,0-1,0.448-1,1v1c0,0.553,0.448,1.001,1,1.001h9
				c0.553,0,1-0.448,1-1.001v-1C13.499,13.446,13.052,12.998,12.499,12.998z M3.499,8.998l4-6.666v2.666h1V2.319l4,6.572
				l-2.012,4.106H5.499L3.499,8.998z M11.999,14.998h-8c-0.276,0-0.5-0.224-0.5-0.5c0-0.275,0.224-0.5,0.5-0.5h8
				c0.275,0,0.5,0.225,0.5,0.5C12.499,14.774,12.274,14.998,11.999,14.998z M7.999,11.998c1.381,0,2.5-1.119,2.5-2.5
				s-1.119-2.5-2.5-2.5c-1.38,0-2.5,1.119-2.5,2.5S6.618,11.998,7.999,11.998z M7.999,7.998c0.829,0,1.5,0.672,1.5,1.499
				c0,0.829-0.672,1.501-1.5,1.501c-0.828,0-1.5-0.672-1.5-1.501C6.499,8.67,7.17,7.998,7.999,7.998z"/>
		</g>
	</g>
</g>
<g id="Layer_1">
</g>
</svg>
