<?xml version="1.0" encoding="iso-8859-1"?>
<!-- Generator: Adobe Illustrator 16.0.0, SVG Export Plug-In . SVG Version: 6.00 Build 0)  -->
<!DOCTYPE svg PUBLIC "-//W3C//DTD SVG 1.1//EN" "http://www.w3.org/Graphics/SVG/1.1/DTD/svg11.dtd">
<svg version="1.1" xmlns="http://www.w3.org/2000/svg" xmlns:xlink="http://www.w3.org/1999/xlink" x="0px" y="0px" width="16px"
	 height="16px" viewBox="0 0 16 16" style="enable-background:new 0 0 16 16;" xml:space="preserve">
<g id="com-bubble-dot-a" style="enable-background:new    ;">
	<g id="com-bubble-dot-a_1_">
		<g>
			<path d="M7.999,4.999c-0.552,0-1,0.448-1,1c0,0.553,0.448,1,1,1c0.553,0,1-0.447,1-1C8.999,5.447,8.552,4.999,7.999,4.999z
				 M3.999,4.999c-0.552,0-1,0.448-1,1c0,0.553,0.448,1,1,1s1-0.447,1-1C4.999,5.447,4.551,4.999,3.999,4.999z M12.999,0h-10
				c-1.657,0-3,1.343-3,2.999v6.5c0,1.656,1.343,2.5,3,2.5h6l4,4v-4c1.656,0,3-0.844,3-2.5v-6.5C15.999,1.342,14.655,0,12.999,0z
				 M14.999,9.499c0,1.105-0.896,1.5-2,1.5h-1v2.5l-2.5-2.5h-6.5c-1.105,0-2-0.395-2-1.5v-6.5c0-1.104,0.895-2,2-2h10
				c1.104,0,2,0.896,2,2V9.499z M11.999,4.999c-0.553,0-1,0.448-1,1c0,0.553,0.447,1,1,1s1-0.447,1-1
				C12.999,5.447,12.552,4.999,11.999,4.999z"/>
		</g>
	</g>
</g>
<g id="Layer_1">
</g>
</svg>
