<?xml version="1.0" encoding="iso-8859-1"?>
<!-- Generator: Adobe Illustrator 16.0.0, SVG Export Plug-In . SVG Version: 6.00 Build 0)  -->
<!DOCTYPE svg PUBLIC "-//W3C//DTD SVG 1.1//EN" "http://www.w3.org/Graphics/SVG/1.1/DTD/svg11.dtd">
<svg version="1.1" xmlns="http://www.w3.org/2000/svg" xmlns:xlink="http://www.w3.org/1999/xlink" x="0px" y="0px" width="16px"
	 height="16px" viewBox="0 0 16 16" style="enable-background:new 0 0 16 16;" xml:space="preserve">
<g id="com-feather-pen" style="enable-background:new    ;">
	<g id="com-feather-pen_1_">
		<g>
			<path d="M15.916,0.075c0,0-6.28-0.698-9.072,2.096c-2.628,2.633-3.807,6.307-2.191,8.48l-4.647,4.651l0.698,0.699l4.646-4.652
				c2.169,1.621,5.842,0.442,8.472-2.191c0.115-0.115,0.2-0.257,0.302-0.385l0.047,0.035l0.08-0.198
				c0.086-0.117,0.188-0.219,0.267-0.342L14.4,8.235l0.178-0.446l-1.453-0.728l2.013-0.672l0.29-0.726h0.149
				C16.23,2.942,15.916,0.075,15.916,0.075z M5.315,6.23l0.831,0.832l0.698-0.698l-1.088-1.09c0.159-0.293,0.331-0.584,0.527-0.87
				l1.259,1.261L8.24,4.966l-1.358-1.36c0.209-0.251,0.425-0.5,0.66-0.736c2.141-2.144,5.469-2.083,6.834-1.952l-9.02,9.029
				C4.711,8.977,4.773,7.625,5.315,6.23z M14.746,5.588L11.38,6.712l1.967,1.476c-0.07,0.092-0.138,0.186-0.222,0.271
				c-2.244,2.247-5.301,3.37-7.071,2.187l9.023-9.032C15.156,2.444,15.202,4.008,14.746,5.588z"/>
		</g>
	</g>
</g>
<g id="Layer_1">
</g>
</svg>
