<?xml version="1.0" encoding="iso-8859-1"?>
<!-- Generator: Adobe Illustrator 16.0.0, SVG Export Plug-In . SVG Version: 6.00 Build 0)  -->
<!DOCTYPE svg PUBLIC "-//W3C//DTD SVG 1.1//EN" "http://www.w3.org/Graphics/SVG/1.1/DTD/svg11.dtd">
<svg version="1.1" xmlns="http://www.w3.org/2000/svg" xmlns:xlink="http://www.w3.org/1999/xlink" x="0px" y="0px" width="16px"
	 height="16px" viewBox="0 0 16 16" style="enable-background:new 0 0 16 16;" xml:space="preserve">
<g id="com-megaphone" style="enable-background:new    ;">
	<g id="com-megaphone_2_">
		<g>
			<path d="M14.999,0.999V2l-14,2c-0.552,0-1,0.447-1,1v5c0,0.553,0.448,1,1,1l2,0.285v2.215c0,0.02,0.009,0.035,0.011,0.053
				c0,0.006,0.002,0.01,0.002,0.014c0.034,0.244,0.234,0.434,0.487,0.434c0.003,0,0.006-0.002,0.009-0.002l3.839,0.988
				c0.038,0.01,0.074,0.004,0.112,0.006c0.014,0.002,0.025,0.008,0.04,0.008c0.007,0,0.014-0.004,0.021-0.004
				c0.033-0.002,0.062-0.01,0.093-0.02c0.039-0.008,0.076-0.018,0.111-0.037c0.015-0.006,0.027-0.018,0.041-0.025
				c0.041-0.027,0.079-0.057,0.11-0.092c0.01-0.014,0.017-0.027,0.026-0.039c0.029-0.041,0.052-0.084,0.068-0.131
				c0.002-0.006,0.006-0.01,0.007-0.016c0.003-0.01,0-0.021,0.002-0.031c0.008-0.035,0.021-0.068,0.021-0.105v-2.5l7,1v1h1v-2V3
				V0.999H14.999z M6.999,13.876l-3-0.771v-1.676l3,0.428V13.876z M14.999,11.499c0,0.277-0.225,0.5-0.5,0.5l-13-2
				c-0.276,0-0.5-0.225-0.5-0.5v-4c0-0.276,0.224-0.5,0.5-0.5l13-2c0.275,0,0.5,0.223,0.5,0.499V11.499z"/>
		</g>
	</g>
</g>
<g id="Layer_1">
</g>
</svg>
