<?xml version="1.0" encoding="iso-8859-1"?>
<!-- Generator: Adobe Illustrator 16.0.0, SVG Export Plug-In . SVG Version: 6.00 Build 0)  -->
<!DOCTYPE svg PUBLIC "-//W3C//DTD SVG 1.1//EN" "http://www.w3.org/Graphics/SVG/1.1/DTD/svg11.dtd">
<svg version="1.1" xmlns="http://www.w3.org/2000/svg" xmlns:xlink="http://www.w3.org/1999/xlink" x="0px" y="0px" width="16px"
	 height="16px" viewBox="0 0 16 16" style="enable-background:new 0 0 16 16;" xml:space="preserve">
<g id="com-check-box" style="enable-background:new    ;">
	<g id="com-check-box_2_">
		<g>
			<path d="M12.003,13c0,0.552-0.447,0.999-1,0.999H2.004c-0.553,0-1-0.447-1-0.999V3c0-0.553,0.447-1.001,1-1.001h8.999
				c0.553,0,1,0.448,1,1.001h1c0-1.104-0.896-2.001-2-2.001H2.004c-1.104,0-2,0.896-2,2.001v10c0,1.104,0.896,1.999,2,1.999h8.999
				c1.104,0,2-0.895,2-1.999v-2h-1V13z M15.846,4.141c-0.196-0.196-0.516-0.196-0.712,0L9.493,9.31L6.887,7.145
				c-0.204-0.204-0.534-0.204-0.738,0c-0.204,0.203-0.204,0.534,0,0.738l2.955,2.455c0.107,0.108,0.25,0.155,0.392,0.149
				c0.008,0,0.015-0.004,0.023-0.005c0.102-0.009,0.198-0.048,0.282-0.116c0.017-0.014,0.041-0.008,0.057-0.023l5.988-5.489
				C16.043,4.656,16.043,4.338,15.846,4.141z"/>
		</g>
	</g>
</g>
<g id="Layer_1">
</g>
</svg>
