<?xml version="1.0" encoding="iso-8859-1"?>
<!-- Generator: Adobe Illustrator 16.0.0, SVG Export Plug-In . SVG Version: 6.00 Build 0)  -->
<!DOCTYPE svg PUBLIC "-//W3C//DTD SVG 1.1//EN" "http://www.w3.org/Graphics/SVG/1.1/DTD/svg11.dtd">
<svg version="1.1" xmlns="http://www.w3.org/2000/svg" xmlns:xlink="http://www.w3.org/1999/xlink" x="0px" y="0px" width="16px"
	 height="16px" viewBox="0 0 16 16" style="enable-background:new 0 0 16 16;" xml:space="preserve">
<g id="com-group-bubble-d" style="enable-background:new    ;">
	<g id="com-group-bubble-d_1_">
		<g>
			<path d="M14.874-0.004h-9.75c-0.622,0-1.125,0.491-1.125,1.097v7.809c0,0.606,0.503,1.098,1.125,1.098h2.871L7.994,10
				l2.005,2.002L12.003,10V9.999h2.871c0.621,0,1.125-0.491,1.125-1.098V1.093C15.999,0.487,15.495-0.004,14.874-0.004z
				 M14.999,8.659c0,0.188-0.16,0.341-0.357,0.341h-3.145l-1.498,1.495L8.501,9H5.356C5.159,9,4.999,8.848,4.999,8.659V1.337
				c0-0.188,0.16-0.341,0.357-0.341h9.286c0.197,0,0.357,0.152,0.357,0.341V8.659z M10.999,12.658c0,0.189-0.16,0.342-0.357,0.342
				H7.497l-1.498,1.495L4.501,13H1.356c-0.197,0-0.357-0.152-0.357-0.342V5.337c0-0.188,0.16-0.341,0.357-0.341h1.643v-1H1.124
				c-0.622,0-1.125,0.492-1.125,1.098v7.808c0,0.606,0.503,1.098,1.125,1.098h2.871l0,0.001l2.005,2.002L8.003,14v-0.001h2.871
				c0.621,0,1.125-0.491,1.125-1.098v-0.905h-1V12.658z"/>
		</g>
	</g>
</g>
<g id="Layer_1">
</g>
</svg>
