<?xml version="1.0" encoding="iso-8859-1"?>
<!-- Generator: Adobe Illustrator 16.0.0, SVG Export Plug-In . SVG Version: 6.00 Build 0)  -->
<!DOCTYPE svg PUBLIC "-//W3C//DTD SVG 1.1//EN" "http://www.w3.org/Graphics/SVG/1.1/DTD/svg11.dtd">
<svg version="1.1" xmlns="http://www.w3.org/2000/svg" xmlns:xlink="http://www.w3.org/1999/xlink" x="0px" y="0px" width="16px"
	 height="16px" viewBox="0 0 16 16" style="enable-background:new 0 0 16 16;" xml:space="preserve">
<g id="com-bell-a" style="enable-background:new    ;">
	<g id="com-bell-a_1_">
		<g>
			<path d="M14.499,11.999h-1v-2V6c0-2.594-1.982-4.701-4.51-4.951c0-0.017,0.01-0.031,0.01-0.049c0-0.553-0.447-1.001-1-1.001
				c-0.552,0-1,0.448-1,1.001c0,0.018,0.009,0.032,0.01,0.049C4.481,1.298,2.499,3.406,2.499,6v4v2h-1v1h4.05
				c-0.033,0.162-0.05,0.328-0.05,0.5c0,1.381,1.119,2.5,2.5,2.5c1.381,0,2.5-1.119,2.5-2.5c0-0.172-0.018-0.338-0.051-0.5h4.051
				V11.999z M7.999,14.999c-0.828,0-1.5-0.672-1.5-1.5c0-0.178,0.044-0.342,0.101-0.5h2.798c0.057,0.158,0.102,0.322,0.102,0.5
				C9.499,14.327,8.827,14.999,7.999,14.999z M12.499,9.999v2h-0.297H3.795H3.499v-2V6c0-2.209,1.791-4.001,4-4.001h1
				c2.209,0,4,1.792,4,4.001V9.999z"/>
		</g>
	</g>
</g>
<g id="Layer_1">
</g>
</svg>
