<?xml version="1.0" encoding="iso-8859-1"?>
<!-- Generator: Adobe Illustrator 16.0.0, SVG Export Plug-In . SVG Version: 6.00 Build 0)  -->
<!DOCTYPE svg PUBLIC "-//W3C//DTD SVG 1.1//EN" "http://www.w3.org/Graphics/SVG/1.1/DTD/svg11.dtd">
<svg version="1.1" xmlns="http://www.w3.org/2000/svg" xmlns:xlink="http://www.w3.org/1999/xlink" x="0px" y="0px" width="16px"
	 height="16px" viewBox="0 0 16 16" style="enable-background:new 0 0 16 16;" xml:space="preserve">
<g id="com-mic" style="enable-background:new    ;">
	<g id="com-mic_2_">
		<g>
			<path d="M7.999,11.999c1.934,0,3.5-1.566,3.5-3.5v-5c0-1.934-1.566-3.501-3.5-3.501c-1.933,0-3.5,1.567-3.5,3.501v5
				C4.499,10.433,6.066,11.999,7.999,11.999z M5.499,3.5c0-1.381,1.119-2.5,2.5-2.5c1.381,0,2.5,1.119,2.5,2.5v5
				c0,1.381-1.119,2.5-2.5,2.5c-1.38,0-2.5-1.119-2.5-2.5V3.5z M12.499,7.999v1c0,2.209-1.791,4-4,4h-1c-2.209,0-4-1.791-4-4v-1h-1
				v1c0,2.762,2.238,5,5,5v1h-0.5c-0.276,0-0.5,0.223-0.5,0.5s0.224,0.5,0.5,0.5h0.5h1h0.5c0.275,0,0.5-0.223,0.5-0.5
				s-0.225-0.5-0.5-0.5h-0.5v-1c2.762,0,5-2.238,5-5v-1H12.499z"/>
		</g>
	</g>
</g>
<g id="Layer_1">
</g>
</svg>
