<?xml version="1.0" encoding="iso-8859-1"?>
<!-- Generator: Adobe Illustrator 16.0.0, SVG Export Plug-In . SVG Version: 6.00 Build 0)  -->
<!DOCTYPE svg PUBLIC "-//W3C//DTD SVG 1.1//EN" "http://www.w3.org/Graphics/SVG/1.1/DTD/svg11.dtd">
<svg version="1.1" xmlns="http://www.w3.org/2000/svg" xmlns:xlink="http://www.w3.org/1999/xlink" x="0px" y="0px" width="16px"
	 height="16px" viewBox="0 0 16 16" style="enable-background:new 0 0 16 16;" xml:space="preserve">
<g id="com-broadcast" style="enable-background:new    ;">
	<g id="com-broadcast_2_">
		<g>
			<path d="M11.874,2.999h-0.875V3h-0.494C10.503,3,10.501,2.999,10.499,2.999h-0.5h-1h-7.5c-0.829,0-1.5,0.672-1.5,1.5v5
				c0,0.828,0.671,1.5,1.5,1.5h1.667l0.833,5l4-2l-0.75-3h1.75v0.002h2.877l4.123,2.998v-14L11.874,2.999z M4.763,14.499
				L4.18,11.001h2.039l0.616,2.463L4.763,14.499z M8.999,9.999h-7h-0.5c-0.276,0-0.5-0.225-0.5-0.5v-5c0-0.276,0.224-0.5,0.5-0.5
				h0.5h7V9.999z M10.999,9.999h-1V4h1V9.999z M14.999,11.999l-3-2.143V4.142l3-2.144V11.999z"/>
		</g>
	</g>
</g>
<g id="Layer_1">
</g>
</svg>
