<?xml version="1.0" encoding="iso-8859-1"?>
<!-- Generator: Adobe Illustrator 16.0.0, SVG Export Plug-In . SVG Version: 6.00 Build 0)  -->
<!DOCTYPE svg PUBLIC "-//W3C//DTD SVG 1.1//EN" "http://www.w3.org/Graphics/SVG/1.1/DTD/svg11.dtd">
<svg version="1.1" xmlns="http://www.w3.org/2000/svg" xmlns:xlink="http://www.w3.org/1999/xlink" x="0px" y="0px" width="16px"
	 height="16px" viewBox="0 0 16 16" style="enable-background:new 0 0 16 16;" xml:space="preserve">
<g id="com-broadcast-a" style="enable-background:new    ;">
	<g id="com-broadcast-a_1_">
		<g>
			<path d="M11.872,3H7.999h-4c-2.209,0-4,1.791-4,4c0,1.917,1.35,3.515,3.151,3.906l0.849,5.094l4-2l-0.75-3h0.75h3.875l4.125,3
				v-14L11.872,3z M4.763,14.499L4.18,11.001h2.039l0.616,2.463L4.763,14.499z M10.999,9.999h-3h-4c-1.657,0-3-1.344-3-3
				c0-1.657,1.343-3,3-3h4V3.999h3V9.999z M14.999,11.999l-3-2.143V4.142l3-2.144V11.999z"/>
		</g>
	</g>
</g>
<g id="Layer_1">
</g>
</svg>
