<?xml version="1.0" encoding="iso-8859-1"?>
<!-- Generator: Adobe Illustrator 16.0.0, SVG Export Plug-In . SVG Version: 6.00 Build 0)  -->
<!DOCTYPE svg PUBLIC "-//W3C//DTD SVG 1.1//EN" "http://www.w3.org/Graphics/SVG/1.1/DTD/svg11.dtd">
<svg version="1.1" xmlns="http://www.w3.org/2000/svg" xmlns:xlink="http://www.w3.org/1999/xlink" x="0px" y="0px" width="16px"
	 height="16px" viewBox="0 0 16 16" style="enable-background:new 0 0 16 16;" xml:space="preserve">
<g id="com-pictures" style="enable-background:new    ;">
	<g id="com-pictures_1_">
		<g>
			<path d="M0.999,11.499V2.498c0-0.275,0.224-0.5,0.5-0.5h11c0.275,0,0.5,0.225,0.5,0.5v0.5h1v-1c0-0.552-0.447-1-1-1h-12
				c-0.552,0-1,0.448-1,1v10c0,0.553,0.448,1.001,1,1.001h1v-1.001h-0.5C1.223,11.998,0.999,11.774,0.999,11.499z M6.499,6.998
				c-0.829,0-1.5,0.672-1.5,1.5c0,0.829,0.671,1.501,1.5,1.501c0.828,0,1.5-0.672,1.5-1.501C7.999,7.67,7.327,6.998,6.499,6.998z
				 M6.499,8.998c-0.276,0-0.5-0.224-0.5-0.5c0-0.275,0.224-0.5,0.5-0.5c0.276,0,0.5,0.225,0.5,0.5
				C6.999,8.774,6.775,8.998,6.499,8.998z M14.999,3.999h-11c-0.552,0-1,0.447-1,0.999v9.001c0,0.552,0.448,0.999,1,0.999h1.254
				L5.254,15l0.001-0.002h9.744c0.553,0,1-0.447,1-0.999V4.998C15.999,4.446,15.552,3.999,14.999,3.999z M14.999,13.498
				c0,0.276-0.225,0.501-0.5,0.501H6.253l3.014-3.021l1.279,1.274L10.497,12.3l0.701,0.701l0.049-0.051l0.043,0.044l0.711-0.709
				l-0.045-0.044l1.27-1.27l1.52,1.519l0.254-0.254V13.498z M14.999,11.252l-1.027-1.026l0.029-0.028L13.3,9.496l-0.029,0.028
				l-0.018-0.019l-0.746,0.747l0.02,0.018l-1.271,1.271l-1.279-1.274l0.018-0.019l-0.75-0.752L9.222,9.519L9.206,9.503l-0.709,0.708
				l0.018,0.018l-3.761,3.771H4.499c-0.276,0-0.5-0.225-0.5-0.501V5.499c0-0.276,0.224-0.501,0.5-0.501h10
				c0.275,0,0.5,0.225,0.5,0.501V11.252z"/>
		</g>
	</g>
</g>
<g id="Layer_1">
</g>
</svg>
