<?xml version="1.0" encoding="iso-8859-1"?>
<!-- Generator: Adobe Illustrator 16.0.0, SVG Export Plug-In . SVG Version: 6.00 Build 0)  -->
<!DOCTYPE svg PUBLIC "-//W3C//DTD SVG 1.1//EN" "http://www.w3.org/Graphics/SVG/1.1/DTD/svg11.dtd">
<svg version="1.1" xmlns="http://www.w3.org/2000/svg" xmlns:xlink="http://www.w3.org/1999/xlink" x="0px" y="0px" width="16px"
	 height="16px" viewBox="0 0 16 16" style="enable-background:new 0 0 16 16;" xml:space="preserve">
<g id="com-mic-mute" style="enable-background:new    ;">
	<g id="com-mic-mute_1_">
		<g>
			<path d="M3.638,10.077C3.541,9.733,3.472,9.376,3.472,8.999v-1h-1v1c0,0.664,0.136,1.295,0.371,1.875L3.638,10.077z M5.472,8.243
				V3.499C5.472,2.119,6.591,1,7.972,1c1.301,0,2.358,0.998,2.476,2.268l0.839-0.839c-0.454-1.405-1.758-2.43-3.315-2.43
				c-1.933,0-3.5,1.567-3.5,3.5v5c0,0.232,0.025,0.457,0.068,0.676L5.472,8.243z M13.413,1.707L1.882,13.237l0.702,0.703
				L14.115,2.409L13.413,1.707z M7.972,10.999c-0.497,0-0.957-0.148-1.346-0.398l-0.715,0.715c0.58,0.426,1.288,0.684,2.062,0.684
				c1.933,0,3.5-1.566,3.5-3.5V5.754l-1,1v1.745C10.472,9.88,9.353,10.999,7.972,10.999z M12.472,8.999c0,2.209-1.791,4-4,4h-1
				c-0.912,0-1.742-0.316-2.415-0.83L4.35,12.876c0.858,0.691,1.934,1.123,3.122,1.123v1h-0.5c-0.276,0-0.5,0.223-0.5,0.5
				s0.224,0.5,0.5,0.5h0.5h1h0.5c0.276,0,0.5-0.223,0.5-0.5s-0.224-0.5-0.5-0.5h-0.5v-1c2.762,0,5-2.238,5-5v-1h-1V8.999z"/>
		</g>
	</g>
</g>
<g id="Layer_1">
</g>
</svg>
