<?xml version="1.0" encoding="iso-8859-1"?>
<!-- Generator: Adobe Illustrator 16.0.0, SVG Export Plug-In . SVG Version: 6.00 Build 0)  -->
<!DOCTYPE svg PUBLIC "-//W3C//DTD SVG 1.1//EN" "http://www.w3.org/Graphics/SVG/1.1/DTD/svg11.dtd">
<svg version="1.1" xmlns="http://www.w3.org/2000/svg" xmlns:xlink="http://www.w3.org/1999/xlink" x="0px" y="0px" width="16px"
	 height="16px" viewBox="0 0 16 16" style="enable-background:new 0 0 16 16;" xml:space="preserve">
<g id="com-email-plus" style="enable-background:new    ;">
	<g id="com-email-plus_2_">
		<g>
			<path d="M14.987,9.5h0.998V0.999c0-0.272-0.221-0.493-0.492-0.498c-0.012-0.001-0.021-0.002-0.035-0.002H0.502
				c-0.02-0.001-0.035,0.008-0.054,0.01C0.346,0.519,0.255,0.558,0.181,0.62C0.168,0.63,0.151,0.625,0.14,0.637
				C0.131,0.646,0.134,0.66,0.126,0.67C0.054,0.751,0.009,0.854,0.002,0.971c0,0.007-0.004,0.012-0.004,0.019
				c0,0.004-0.002,0.006-0.002,0.01v12c0,0.276,0.224,0.5,0.5,0.5h7.5v-1H1.493c-0.276,0-0.5-0.224-0.5-0.499V2.017l6.619,5.309
				c0.007,0.007,0.003,0.019,0.011,0.025c0.099,0.1,0.229,0.143,0.358,0.141C8.11,7.493,8.239,7.45,8.339,7.351
				c0.006-0.007,0.004-0.018,0.01-0.025l6.639-5.324V9.5z M7.98,6.369l-6.071-4.87h12.143L7.98,6.369z M15.499,12.499h-1.504v-1.5
				c0-0.275-0.225-0.5-0.502-0.5s-0.502,0.225-0.502,0.5v1.5h-1.506c-0.277,0-0.502,0.225-0.502,0.5c0,0.276,0.225,0.5,0.502,0.5
				h1.506v1.5c0,0.276,0.225,0.5,0.502,0.5s0.502-0.224,0.502-0.5v-1.5h1.504c0.277,0,0.502-0.224,0.502-0.5
				C16.001,12.724,15.776,12.499,15.499,12.499z"/>
		</g>
	</g>
</g>
<g id="Layer_1">
</g>
</svg>
