<?xml version="1.0" encoding="iso-8859-1"?>
<!-- Generator: Adobe Illustrator 16.0.0, SVG Export Plug-In . SVG Version: 6.00 Build 0)  -->
<!DOCTYPE svg PUBLIC "-//W3C//DTD SVG 1.1//EN" "http://www.w3.org/Graphics/SVG/1.1/DTD/svg11.dtd">
<svg version="1.1" xmlns="http://www.w3.org/2000/svg" xmlns:xlink="http://www.w3.org/1999/xlink" x="0px" y="0px" width="16px"
	 height="16px" viewBox="0 0 16 16" style="enable-background:new 0 0 16 16;" xml:space="preserve">
<g id="doc-compose-a" style="enable-background:new    ;">
	<g id="doc-compose-a_1_">
		<g>
			<path d="M14.997,15.007h-14V1.006h9.007V0.007H0.998c-0.552,0-1,0.447-1,0.999v14.001c0,0.552,0.448,1,1,1h14
				c0.553,0,1-0.448,1-1V5.011h-1V15.007z M3.47,9.594L3.464,9.625L2.493,12.88l0.712,0.629l3.114-1.086l0.04,0.008h0.153
				l7.534-7.453l1.546-1.563c0.604-0.599,0.509-1.759-0.095-2.357l-0.672-0.633c-0.583-0.578-1.607-0.578-2.19,0l-1.448,1.684
				L3.47,9.416V9.594z M13.285,1.054c0.098-0.097,0.227-0.149,0.365-0.149s0.348,0.147,0.444,0.243l0.798,0.821
				c0.202,0.2,0.202,0.524,0.001,0.724l-1.14,1.128l-1.607-1.64L13.285,1.054z M11.615,2.865l1.544,1.561L6.16,11.397L4.573,9.795
				L11.615,2.865z M4.142,10.508l1.361,1.336l-2.001,0.669L4.142,10.508z"/>
		</g>
	</g>
</g>
<g id="Layer_1">
</g>
</svg>
