<?xml version="1.0" encoding="iso-8859-1"?>
<!-- Generator: Adobe Illustrator 16.0.0, SVG Export Plug-In . SVG Version: 6.00 Build 0)  -->
<!DOCTYPE svg PUBLIC "-//W3C//DTD SVG 1.1//EN" "http://www.w3.org/Graphics/SVG/1.1/DTD/svg11.dtd">
<svg version="1.1" xmlns="http://www.w3.org/2000/svg" xmlns:xlink="http://www.w3.org/1999/xlink" x="0px" y="0px" width="16px"
	 height="16px" viewBox="0 0 16 16" style="enable-background:new 0 0 16 16;" xml:space="preserve">
<g id="doc-attachment-a" style="enable-background:new    ;">
	<g id="doc-attachment-a_1_">
		<g>
			<path d="M10,1.003v10.02c0,1.66-1.344,3.006-3,3.006c-1.657,0-3-1.346-3-3.006V2.005h0.002c0-0.011-0.002-0.021-0.002-0.031
				c0-1.107,0.896-2.004,2-2.004c1.104,0,2,0.896,2,2.004c0,0.011-0.002,0.021-0.002,0.031H8v9.018c0,0.554-0.447,1.002-1,1.002
				s-1-0.448-1-1.002V3.007h-1v8.016h0.003C5.02,12.115,5.905,12.995,7,12.995c1.094,0,1.979-0.88,1.996-1.973H9V2.005
				c0-1.66-1.344-3.006-3-3.006S3,0.345,3,2.005v9.018H3c0.017,2.199,1.8,3.977,3.999,3.977c2.2,0,3.981-1.777,3.999-3.977H11V1.003
				H10z"/>
		</g>
	</g>
</g>
<g id="Layer_1">
</g>
</svg>
