<?xml version="1.0" encoding="iso-8859-1"?>
<!-- Generator: Adobe Illustrator 16.0.0, SVG Export Plug-In . SVG Version: 6.00 Build 0)  -->
<!DOCTYPE svg PUBLIC "-//W3C//DTD SVG 1.1//EN" "http://www.w3.org/Graphics/SVG/1.1/DTD/svg11.dtd">
<svg version="1.1" xmlns="http://www.w3.org/2000/svg" xmlns:xlink="http://www.w3.org/1999/xlink" x="0px" y="0px" width="16px"
	 height="16px" viewBox="0 0 16 16" style="enable-background:new 0 0 16 16;" xml:space="preserve">
<g id="doc-folder-cross-a" style="enable-background:new    ;">
	<g id="doc-folder-cross-a_1_">
		<g>
			<path d="M7.306,10.483l-1.694,1.693c-0.187,0.188-0.188,0.49,0,0.678c0.187,0.188,0.491,0.188,0.678,0l1.693-1.693l1.694,1.693
				c0.188,0.188,0.49,0.188,0.678,0s0.188-0.49,0-0.678l-1.693-1.693l1.693-1.693c0.188-0.188,0.188-0.49,0-0.678
				c-0.188-0.187-0.49-0.187-0.678,0L7.983,9.806L6.29,8.112c-0.187-0.187-0.491-0.187-0.678,0c-0.187,0.186-0.187,0.49,0,0.678
				L7.306,10.483z M13.499,2h-5c0-1.105-0.896-2-2-2h-4c-1.104,0-2,0.895-2,2v2.999V6v8c0,1.105,0.896,2,2,2h11c1.104,0,2-0.895,2-2
				V7V6V4.999V4C15.499,2.894,14.603,2,13.499,2z M14.499,7v1.722v5.277c0,0.553-0.447,1-1,1h-11c-0.552,0-1-0.447-1-1V7.721V7V6h13
				V7z M14.499,4.999h-13V4V2.999V2c0-0.553,0.448-1.001,1-1.001h4c0.552,0,1,0.448,1,1.001v0.999h1h4h1c0.553,0,1,0.448,1,1.001
				V4.999z"/>
		</g>
	</g>
</g>
<g id="Layer_1">
</g>
</svg>
