<?xml version="1.0" encoding="iso-8859-1"?>
<!-- Generator: Adobe Illustrator 16.0.0, SVG Export Plug-In . SVG Version: 6.00 Build 0)  -->
<!DOCTYPE svg PUBLIC "-//W3C//DTD SVG 1.1//EN" "http://www.w3.org/Graphics/SVG/1.1/DTD/svg11.dtd">
<svg version="1.1" xmlns="http://www.w3.org/2000/svg" xmlns:xlink="http://www.w3.org/1999/xlink" x="0px" y="0px" width="16px"
	 height="16px" viewBox="0 0 16 16" style="enable-background:new 0 0 16 16;" xml:space="preserve">
<g id="doc-file-tick-a" style="enable-background:new    ;">
	<g id="doc-file-tick-a_2_">
		<g>
			<path d="M14.497,3.999L10.499,0v-0.001h-8.5c-0.276,0-0.5,0.224-0.5,0.501v15c0,0.275,0.224,0.5,0.5,0.5h12
				c0.275,0,0.5-0.225,0.5-0.5V4V3.999H14.497z M10.499,1.231l2.768,2.768h-2.768V1.231z M13.499,14.499c0,0.275-0.225,0.5-0.5,0.5
				h-10c-0.276,0-0.5-0.225-0.5-0.5v-13c0-0.276,0.224-0.5,0.5-0.5h6.5v3v1h1h3V14.499z M5.667,9.001L5.001,9.667l1.557,1.557
				l-0.065,0.064l0.716,0.717l0.066-0.064l0.056,0.057l0.666-0.666L7.94,11.274l3.565-3.565l-0.717-0.717l-3.564,3.565L5.667,9.001z
				"/>
		</g>
	</g>
</g>
<g id="Layer_1">
</g>
</svg>
