<?xml version="1.0" encoding="iso-8859-1"?>
<!-- Generator: Adobe Illustrator 16.0.0, SVG Export Plug-In . SVG Version: 6.00 Build 0)  -->
<!DOCTYPE svg PUBLIC "-//W3C//DTD SVG 1.1//EN" "http://www.w3.org/Graphics/SVG/1.1/DTD/svg11.dtd">
<svg version="1.1" xmlns="http://www.w3.org/2000/svg" xmlns:xlink="http://www.w3.org/1999/xlink" x="0px" y="0px" width="16px"
	 height="16px" viewBox="0 0 16 16" style="enable-background:new 0 0 16 16;" xml:space="preserve">
<g id="doc-folder" style="enable-background:new    ;">
	<g id="doc-folder_2_">
		<g>
			<path d="M14.999,1.999h-8v-1c0-0.552-0.447-0.999-1-0.999h-5c-0.552,0-1,0.447-1,0.999v2v1v1v10c0,0.553,0.447,1,1,1h14
				c0.553,0,1-0.447,1-1v-10v-2C15.999,2.447,15.552,1.999,14.999,1.999z M14.999,5.5v0.499v8.5c0,0.277-0.225,0.5-0.5,0.5h-13
				c-0.276,0-0.5-0.223-0.5-0.5v-8.5V5.5V4.999h0.5h13h0.5V5.5z M14.499,3.999h-1h-12.5v-1v-0.5v-0.5v-0.5
				c0-0.275,0.224-0.5,0.5-0.5h4c0.276,0,0.5,0.225,0.5,0.5v0.5v0.5v0.5h7.5h1c0.275,0,0.5,0.224,0.5,0.5S14.774,3.999,14.499,3.999
				z"/>
		</g>
	</g>
</g>
<g id="Layer_1">
</g>
</svg>
