<?xml version="1.0" encoding="iso-8859-1"?>
<!-- Generator: Adobe Illustrator 16.0.0, SVG Export Plug-In . SVG Version: 6.00 Build 0)  -->
<!DOCTYPE svg PUBLIC "-//W3C//DTD SVG 1.1//EN" "http://www.w3.org/Graphics/SVG/1.1/DTD/svg11.dtd">
<svg version="1.1" xmlns="http://www.w3.org/2000/svg" xmlns:xlink="http://www.w3.org/1999/xlink" x="0px" y="0px" width="16px"
	 height="16px" viewBox="0 0 16 16" style="enable-background:new 0 0 16 16;" xml:space="preserve">
<g id="doc-book-a" style="enable-background:new    ;">
	<g id="doc-book-a_1_">
		<g>
			<path d="M15.999,5.999v-4h-2v-1c0-0.553-0.447-1-1-1h-12c-0.553,0-1,0.447-1,1v14c0,0.553,0.447,1,1,1h12c0.553,0,1-0.447,1-1v-1
				h1v-2h-1v-2h1v-2h-1v-2H15.999z M13.999,2.999h1v2h-1V2.999z M12.999,1.999v4v2v2v2v2v0.5c0,0.276-0.225,0.5-0.5,0.5h-11
				c-0.276,0-0.5-0.224-0.5-0.5v-13c0-0.276,0.224-0.5,0.5-0.5h11c0.275,0,0.5,0.224,0.5,0.5V1.999z M9.999,2.999h-6
				c-0.553,0-1,0.447-1,1v3c0,0.552,0.447,1,1,1h6c0.553,0,1-0.448,1-1v-3C10.999,3.446,10.552,2.999,9.999,2.999z M9.999,6.499
				c0,0.276-0.225,0.5-0.5,0.5h-5c-0.276,0-0.5-0.224-0.5-0.5v-2c0-0.276,0.224-0.5,0.5-0.5h5c0.275,0,0.5,0.224,0.5,0.5V6.499z
				 M10.499,11.999h-7c-0.276,0-0.5,0.224-0.5,0.5s0.224,0.5,0.5,0.5h7c0.275,0,0.5-0.224,0.5-0.5S10.774,11.999,10.499,11.999z
				 M10.499,9.999h-7c-0.276,0-0.5,0.224-0.5,0.5s0.224,0.5,0.5,0.5h7c0.275,0,0.5-0.224,0.5-0.5S10.774,9.999,10.499,9.999z"/>
		</g>
	</g>
</g>
<g id="Layer_1">
</g>
</svg>
