<?xml version="1.0" encoding="iso-8859-1"?>
<!-- Generator: Adobe Illustrator 16.0.0, SVG Export Plug-In . SVG Version: 6.00 Build 0)  -->
<!DOCTYPE svg PUBLIC "-//W3C//DTD SVG 1.1//EN" "http://www.w3.org/Graphics/SVG/1.1/DTD/svg11.dtd">
<svg version="1.1" xmlns="http://www.w3.org/2000/svg" xmlns:xlink="http://www.w3.org/1999/xlink" x="0px" y="0px" width="16px"
	 height="16px" viewBox="0 0 16 16" style="enable-background:new 0 0 16 16;" xml:space="preserve">
<g id="doc-news" style="enable-background:new    ;">
	<g id="doc-news_2_">
		<g>
			<path d="M3.499,9.999h5c0.275,0,0.5-0.224,0.5-0.5s-0.225-0.5-0.5-0.5h-5c-0.276,0-0.5,0.224-0.5,0.5S3.223,9.999,3.499,9.999z
				 M3.499,6.999h5c0.275,0,0.5-0.224,0.5-0.5s-0.225-0.5-0.5-0.5h-5c-0.276,0-0.5,0.224-0.5,0.5S3.223,6.999,3.499,6.999z
				 M3.499,12.999h5c0.275,0,0.5-0.224,0.5-0.5s-0.225-0.5-0.5-0.5h-5c-0.276,0-0.5,0.224-0.5,0.5S3.223,12.999,3.499,12.999z
				 M13.999-0.001h-12c-1.104,0-2,0.896-2,2v12c0,1.104,0.896,2,2,2h12c1.104,0,2-0.896,2-2v-12
				C15.999,0.895,15.103-0.001,13.999-0.001z M10.999,14.999h-9c-0.552,0-1-0.447-1-1v-10h10V14.999z M14.999,13.999
				c0,0.553-0.447,1-1,1h-2v-11h3V13.999z M14.999,2.999h-14v-1c0-0.552,0.448-1,1-1h12c0.553,0,1,0.448,1,1V2.999z"/>
		</g>
	</g>
</g>
<g id="Layer_1">
</g>
</svg>
