<?xml version="1.0" encoding="iso-8859-1"?>
<!-- Generator: Adobe Illustrator 16.0.0, SVG Export Plug-In . SVG Version: 6.00 Build 0)  -->
<!DOCTYPE svg PUBLIC "-//W3C//DTD SVG 1.1//EN" "http://www.w3.org/Graphics/SVG/1.1/DTD/svg11.dtd">
<svg version="1.1" xmlns="http://www.w3.org/2000/svg" xmlns:xlink="http://www.w3.org/1999/xlink" x="0px" y="0px" width="16px"
	 height="16px" viewBox="0 0 16 16" style="enable-background:new 0 0 16 16;" xml:space="preserve">
<g id="doc-binder-four" style="enable-background:new    ;">
	<g id="doc-binder-four_2_">
		<g>
			<path d="M13.999-0.001h-12c-1.105,0-2,0.896-2,2v12c0,1.105,0.895,2,2,2h12c1.104,0,2-0.895,2-2v-12
				C15.999,0.895,15.103-0.001,13.999-0.001z M14.999,13.999c0,0.553-0.447,1-1,1h-12c-0.552,0-1-0.447-1-1v-12c0-0.552,0.448-1,1-1
				h12c0.553,0,1,0.448,1,1V13.999z M11.499,12h-7c-0.276,0-0.5,0.223-0.5,0.499S4.223,13,4.499,13h7c0.275,0,0.5-0.225,0.5-0.501
				S11.774,12,11.499,12z M11.499,9h-7c-0.276,0-0.5,0.224-0.5,0.5c0,0.275,0.224,0.499,0.5,0.499h7c0.275,0,0.5-0.224,0.5-0.499
				C11.999,9.224,11.774,9,11.499,9z M11.499,2.999h-7c-0.276,0-0.5,0.224-0.5,0.5C3.999,3.776,4.223,4,4.499,4h7
				c0.275,0,0.5-0.224,0.5-0.501C11.999,3.223,11.774,2.999,11.499,2.999z M11.499,6h-7c-0.276,0-0.5,0.224-0.5,0.499
				C3.999,6.776,4.223,7,4.499,7h7c0.275,0,0.5-0.224,0.5-0.501C11.999,6.224,11.774,6,11.499,6z"/>
		</g>
	</g>
</g>
<g id="Layer_1">
</g>
</svg>
