<?xml version="1.0" encoding="iso-8859-1"?>
<!-- Generator: Adobe Illustrator 16.0.0, SVG Export Plug-In . SVG Version: 6.00 Build 0)  -->
<!DOCTYPE svg PUBLIC "-//W3C//DTD SVG 1.1//EN" "http://www.w3.org/Graphics/SVG/1.1/DTD/svg11.dtd">
<svg version="1.1" xmlns="http://www.w3.org/2000/svg" xmlns:xlink="http://www.w3.org/1999/xlink" x="0px" y="0px" width="16px"
	 height="16px" viewBox="0 0 16 16" style="enable-background:new 0 0 16 16;" xml:space="preserve">
<g id="doc-drawer-download" style="enable-background:new    ;">
	<g id="doc-drawer-download_2_">
		<g>
			<path d="M4.664,5.955L7.502,8.8C7.579,8.876,7.672,8.915,7.77,8.94c0.069,0.033,0.144,0.059,0.226,0.059h0.001
				c0,0,0.001,0,0.001,0c0,0,0.001,0,0.002,0c0.09,0,0.17-0.029,0.242-0.068C8.321,8.903,8.397,8.862,8.46,8.8l2.84-2.845
				c0.223-0.225,0.223-0.588,0-0.813c-0.225-0.225-0.588-0.225-0.813,0L8.513,7.121V0.5c0-0.276-0.23-0.5-0.514-0.5
				C7.715,0,7.485,0.223,7.485,0.5v6.657L5.475,5.142c-0.224-0.225-0.587-0.225-0.811,0C4.439,5.367,4.439,5.73,4.664,5.955z
				 M13.499,2h-1h-1v1h1.285l1.715,6h-4v2h-5v-2h-4l1.714-6h1.286V2h-1h-1l-2,7v1v5c0,0.553,0.448,1,1,1h13c0.553,0,1-0.447,1-1v-5
				v-1L13.499,2z M14.499,14.499c0,0.275-0.225,0.5-0.5,0.5h-12c-0.276,0-0.5-0.225-0.5-0.5v-4c0-0.277,0.224-0.5,0.5-0.5h2.5v2h7
				v-2h2.5c0.275,0,0.5,0.223,0.5,0.5V14.499z"/>
		</g>
	</g>
</g>
<g id="Layer_1">
</g>
</svg>
