<?xml version="1.0" encoding="iso-8859-1"?>
<!-- Generator: Adobe Illustrator 16.0.0, SVG Export Plug-In . SVG Version: 6.00 Build 0)  -->
<!DOCTYPE svg PUBLIC "-//W3C//DTD SVG 1.1//EN" "http://www.w3.org/Graphics/SVG/1.1/DTD/svg11.dtd">
<svg version="1.1" xmlns="http://www.w3.org/2000/svg" xmlns:xlink="http://www.w3.org/1999/xlink" x="0px" y="0px" width="16px"
	 height="16px" viewBox="0 0 16 16" style="enable-background:new 0 0 16 16;" xml:space="preserve">
<g id="doc-compose" style="enable-background:new    ;">
	<g id="doc-compose_2_">
		<g>
			<path d="M3.7,8.784l-0.352,0.35l-0.352,3.867l3.866-0.352l0.382-0.383l0.672-0.672L16,3.512l-3.515-3.515l-2.108,2.108V2.105
				L9.674,2.809L3.951,8.532L3.7,8.784z M12.485,1.403l2.109,2.109l-1.406,1.405L11.08,2.809L12.485,1.403z M10.377,3.512
				l2.108,2.108l-5.271,5.271L5.105,8.784L10.377,3.512z M4.402,9.487l2.109,2.107l-2.46,0.352L4.402,9.487z M13.997,14.999h-13V2h8
				V1h-9v15h15V7h-1V14.999z"/>
		</g>
	</g>
</g>
<g id="Layer_1">
</g>
</svg>
