<?xml version="1.0" encoding="iso-8859-1"?>
<!-- Generator: Adobe Illustrator 16.0.0, SVG Export Plug-In . SVG Version: 6.00 Build 0)  -->
<!DOCTYPE svg PUBLIC "-//W3C//DTD SVG 1.1//EN" "http://www.w3.org/Graphics/SVG/1.1/DTD/svg11.dtd">
<svg version="1.1" xmlns="http://www.w3.org/2000/svg" xmlns:xlink="http://www.w3.org/1999/xlink" x="0px" y="0px" width="16px"
	 height="16px" viewBox="0 0 16 16" style="enable-background:new 0 0 16 16;" xml:space="preserve">
<g id="doc-documents" style="enable-background:new    ;">
	<g id="doc-documents_2_">
		<g>
			<path d="M13.999-0.001h-8c-0.553,0-1,0.448-1,1.001v1h1V1.5c0-0.277,0.224-0.5,0.5-0.5h7c0.275,0,0.5,0.223,0.5,0.5v10
				c0,0.275-0.225,0.5-0.5,0.5h-0.5v1h1c0.553,0,1-0.447,1-1V1C14.999,0.447,14.552-0.001,13.999-0.001z M10.999,2.999h-9
				c-0.553,0-1,0.447-1,1v11c0,0.553,0.447,1,1,1h9c0.553,0,1-0.447,1-1v-11C11.999,3.446,11.552,2.999,10.999,2.999z
				 M10.999,14.499c0,0.275-0.225,0.5-0.5,0.5h-8c-0.276,0-0.5-0.225-0.5-0.5v-10c0-0.275,0.224-0.5,0.5-0.5h8
				c0.275,0,0.5,0.225,0.5,0.5V14.499z"/>
		</g>
	</g>
</g>
<g id="Layer_1">
</g>
</svg>
