<?xml version="1.0" encoding="iso-8859-1"?>
<!-- Generator: Adobe Illustrator 16.0.0, SVG Export Plug-In . SVG Version: 6.00 Build 0)  -->
<!DOCTYPE svg PUBLIC "-//W3C//DTD SVG 1.1//EN" "http://www.w3.org/Graphics/SVG/1.1/DTD/svg11.dtd">
<svg version="1.1" xmlns="http://www.w3.org/2000/svg" xmlns:xlink="http://www.w3.org/1999/xlink" x="0px" y="0px" width="16px"
	 height="16px" viewBox="0 0 16 16" style="enable-background:new 0 0 16 16;" xml:space="preserve">
<g id="doc-drawer-line" style="enable-background:new    ;">
	<g id="doc-drawer-line_2_">
		<g>
			<path d="M5.499,3.999h5c0.275,0,0.5-0.224,0.5-0.5c0-0.275-0.225-0.5-0.5-0.5h-5c-0.276,0-0.5,0.225-0.5,0.5
				C4.999,3.775,5.223,3.999,5.499,3.999z M13.999-0.001h-12l-2,9v1v5c0,0.553,0.447,1,1,1h14c0.553,0,1-0.447,1-1v-5v-1
				L13.999-0.001z M14.999,14.499c0,0.276-0.225,0.5-0.5,0.5h-13c-0.276,0-0.5-0.224-0.5-0.5v-4c0-0.275,0.224-0.5,0.5-0.5h3v2h7v-2
				h3c0.275,0,0.5,0.225,0.5,0.5V14.499z M10.499,8.999v2h-5v-2h-4.5l2-7.999h10l2,7.999H10.499z M4.499,5.999h7
				c0.275,0,0.5-0.224,0.5-0.5s-0.225-0.5-0.5-0.5h-7c-0.276,0-0.5,0.224-0.5,0.5S4.223,5.999,4.499,5.999z M12.499,6.999h-9
				c-0.276,0-0.5,0.224-0.5,0.5S3.223,8,3.499,8h9c0.275,0,0.5-0.225,0.5-0.501S12.774,6.999,12.499,6.999z"/>
		</g>
	</g>
</g>
<g id="Layer_1">
</g>
</svg>
