<?xml version="1.0" encoding="iso-8859-1"?>
<!-- Generator: Adobe Illustrator 16.0.0, SVG Export Plug-In . SVG Version: 6.00 Build 0)  -->
<!DOCTYPE svg PUBLIC "-//W3C//DTD SVG 1.1//EN" "http://www.w3.org/Graphics/SVG/1.1/DTD/svg11.dtd">
<svg version="1.1" xmlns="http://www.w3.org/2000/svg" xmlns:xlink="http://www.w3.org/1999/xlink" x="0px" y="0px" width="16px"
	 height="16px" viewBox="0 0 16 16" style="enable-background:new 0 0 16 16;" xml:space="preserve">
<g id="doc-upload" style="enable-background:new    ;">
	<g id="doc-upload_1_">
		<g>
			<path d="M3.332,6.356l4.167-4.582v10.725c0,0.276,0.224,0.5,0.5,0.5c0.275,0,0.5-0.224,0.5-0.5V1.774l4.166,4.582
				c0.191,0.19,0.5,0.19,0.691,0c0.189-0.191,0.189-0.5,0-0.69L8.376,0.19C8.37,0.184,8.372,0.172,8.366,0.166
				C8.36,0.159,8.362,0.148,8.356,0.142C8.35,0.135,8.339,0.138,8.332,0.132C8.249,0.057,8.143,0.01,8.023,0.004
				C8.017,0.004,8.013,0,8.007,0C8.004,0,8.001-0.001,7.999-0.001c-0.003,0-0.005,0.002-0.007,0.002
				c-0.01,0-0.018,0.007-0.027,0.007C7.866,0.016,7.783,0.056,7.71,0.113c-0.021,0.016-0.049,0.01-0.068,0.028
				c-0.016,0.016-0.01,0.039-0.023,0.056C7.612,0.205,7.603,0.209,7.597,0.218L2.642,5.666c-0.191,0.19-0.191,0.499,0,0.69
				C2.832,6.547,3.141,6.547,3.332,6.356z M13.999,14.999h-12c-0.276,0-0.5,0.224-0.5,0.499c0,0.276,0.224,0.501,0.5,0.501h12
				c0.275,0,0.5-0.225,0.5-0.501C14.499,15.223,14.274,14.999,13.999,14.999z"/>
		</g>
	</g>
</g>
<g id="Layer_1">
</g>
</svg>
