<?xml version="1.0" encoding="iso-8859-1"?>
<!-- Generator: Adobe Illustrator 16.0.0, SVG Export Plug-In . SVG Version: 6.00 Build 0)  -->
<!DOCTYPE svg PUBLIC "-//W3C//DTD SVG 1.1//EN" "http://www.w3.org/Graphics/SVG/1.1/DTD/svg11.dtd">
<svg version="1.1" xmlns="http://www.w3.org/2000/svg" xmlns:xlink="http://www.w3.org/1999/xlink" x="0px" y="0px" width="16px"
	 height="16px" viewBox="0 0 16 16" style="enable-background:new 0 0 16 16;" xml:space="preserve">
<g id="doc-analytic-blank" style="enable-background:new    ;">
	<g id="doc-analytic-blank_2_">
		<g>
			<path d="M15.499,0.998h-1.5h-12h-1.5c-0.276,0-0.5,0.224-0.5,0.499c0,0.276,0.224,0.5,0.5,0.5h0.5v9c0,0.553,0.448,1,1,1h4.319
				l-1.245,2.291c-0.153,0.228-0.063,0.519,0.203,0.649c0.266,0.131,0.606,0.054,0.759-0.174l1.389-2.558
				c0.045-0.066,0.063-0.138,0.068-0.209h1.013c0.006,0.071,0.023,0.143,0.068,0.209l1.389,2.558
				c0.154,0.228,0.494,0.305,0.76,0.174s0.355-0.422,0.203-0.649l-1.244-2.291h4.318c0.553,0,1-0.447,1-1v-9h0.5
				c0.275,0,0.5-0.224,0.5-0.5C15.999,1.221,15.774,0.998,15.499,0.998z M13.999,2.999v7.498c0,0.276-0.225,0.5-0.5,0.5h-11
				c-0.276,0-0.5-0.224-0.5-0.5V2.498c0-0.001,0-0.001,0-0.001V1.998h0.495c0.002,0,0.003-0.001,0.005-0.001h11
				c0.002,0,0.004,0.001,0.006,0.001h0.494V2.999z"/>
		</g>
	</g>
</g>
<g id="Layer_1">
</g>
</svg>
