<?xml version="1.0" encoding="iso-8859-1"?>
<!-- Generator: Adobe Illustrator 16.0.0, SVG Export Plug-In . SVG Version: 6.00 Build 0)  -->
<!DOCTYPE svg PUBLIC "-//W3C//DTD SVG 1.1//EN" "http://www.w3.org/Graphics/SVG/1.1/DTD/svg11.dtd">
<svg version="1.1" xmlns="http://www.w3.org/2000/svg" xmlns:xlink="http://www.w3.org/1999/xlink" x="0px" y="0px" width="16px"
	 height="16px" viewBox="0 0 16 16" style="enable-background:new 0 0 16 16;" xml:space="preserve">
<g id="doc-wboard-line" style="enable-background:new    ;">
	<g id="doc-wboard-line_2_">
		<g>
			<path d="M3.999,11.999h5v-1h-5V11.999z M3.999,9.999h8V9h-8V9.999z M3.999,8h8V7h-8V8z M11.499,1.999V1h-1.5
				c0-0.553-0.447-1.001-1-1.001h-2c-0.552,0-1,0.448-1,1.001h-1.5v0.999h-3.5v14h14v-14H11.499z M5.499,1.999h1.5V1.5
				c0-0.277,0.224-0.5,0.5-0.5h1c0.275,0,0.5,0.223,0.5,0.5v0.499h1.5v2h-2h-1h-2V1.999z M13.999,15h-12V2.999h2.5v2h7v-2h2.5V15z"
				/>
		</g>
	</g>
</g>
<g id="Layer_1">
</g>
</svg>
