<?xml version="1.0" encoding="iso-8859-1"?>
<!-- Generator: Adobe Illustrator 16.0.0, SVG Export Plug-In . SVG Version: 6.00 Build 0)  -->
<!DOCTYPE svg PUBLIC "-//W3C//DTD SVG 1.1//EN" "http://www.w3.org/Graphics/SVG/1.1/DTD/svg11.dtd">
<svg version="1.1" xmlns="http://www.w3.org/2000/svg" xmlns:xlink="http://www.w3.org/1999/xlink" x="0px" y="0px" width="16px"
	 height="16px" viewBox="0 0 16 16" style="enable-background:new 0 0 16 16;" xml:space="preserve">
<g id="doc-analytic-line" style="enable-background:new    ;">
	<g id="doc-analytic-line_2_">
		<g>
			<path d="M9.433,4.735C9.294,4.503,8.987,4.423,8.749,4.558C8.712,4.579,8.706,4.622,8.677,4.649
				c-0.086,0.039-0.162,0.09-0.215,0.165L6.091,6.837l-2.16-2.503C3.794,4.101,3.488,4.021,3.249,4.156
				C3.01,4.291,2.928,4.588,3.066,4.823l2.5,2.897C5.57,7.727,5.577,7.731,5.582,7.738c0.021,0.031,0.046,0.058,0.076,0.084
				c0.03,0.029,0.062,0.052,0.098,0.071c0.008,0.005,0.013,0.012,0.021,0.016c0.009,0.005,0.019,0.004,0.027,0.008
				c0.042,0.018,0.083,0.029,0.127,0.035c0.232,0.045,0.48-0.032,0.605-0.212l2.454-2.093l3.076,3.112
				c0.139,0.23,0.443,0.311,0.684,0.177c0.238-0.134,0.32-0.43,0.184-0.662L9.433,4.735z M15.499,0.998h-1.5h-12h-1.5
				c-0.276,0-0.5,0.224-0.5,0.499c0,0.276,0.224,0.5,0.5,0.5h0.5v9c0,0.553,0.448,1,1,1h4.319l-1.245,2.291
				c-0.153,0.228-0.063,0.519,0.203,0.649c0.266,0.131,0.606,0.054,0.759-0.174l1.389-2.558c0.045-0.066,0.063-0.138,0.068-0.209
				h1.013c0.006,0.071,0.023,0.143,0.068,0.209l1.389,2.558c0.154,0.228,0.494,0.305,0.76,0.174s0.355-0.422,0.203-0.649
				l-1.244-2.291h4.318c0.553,0,1-0.447,1-1v-9h0.5c0.275,0,0.5-0.224,0.5-0.5C15.999,1.221,15.774,0.998,15.499,0.998z
				 M13.999,2.999v7.498c0,0.276-0.225,0.5-0.5,0.5h-11c-0.276,0-0.5-0.224-0.5-0.5V2.498c0-0.001,0-0.001,0-0.001V1.998h0.495
				c0.002,0,0.003-0.001,0.005-0.001h11c0.002,0,0.004,0.001,0.006,0.001h0.494V2.999z"/>
		</g>
	</g>
</g>
<g id="Layer_1">
</g>
</svg>
