<?xml version="1.0" encoding="iso-8859-1"?>
<!-- Generator: Adobe Illustrator 16.0.0, SVG Export Plug-In . SVG Version: 6.00 Build 0)  -->
<!DOCTYPE svg PUBLIC "-//W3C//DTD SVG 1.1//EN" "http://www.w3.org/Graphics/SVG/1.1/DTD/svg11.dtd">
<svg version="1.1" xmlns="http://www.w3.org/2000/svg" xmlns:xlink="http://www.w3.org/1999/xlink" x="0px" y="0px" width="16px"
	 height="16px" viewBox="0 0 16 16" style="enable-background:new 0 0 16 16;" xml:space="preserve">
<g id="doc-book-mark" style="enable-background:new    ;">
	<g id="doc-book-mark_2_">
		<g>
			<path d="M13.999-0.001h-1h-4h-6h-1c-1.104,0-2,0.896-2,2v9.499v0.5v2.001c0,1.104,0.895,2,2,2h11h2h1v-3v-1.001V1.999v-2H13.999z
				 M3.999,0.999h4v6l-2-1.144l-2,1.144V0.999z M14.999,14.999h-1h-1h-11c-0.552,0-1-0.448-1-1c0-0.553,0.448-1,1-1h11h1h0.723
				h0.277V14.999z M14.999,1.999v9.499v0.5h-2h-11c-0.366,0-0.705,0.106-1,0.277v-0.277v-0.5V1.999c0-0.553,0.448-1,1-1h1v8l3-2l3,2
				v-8h5h1V1.999z"/>
		</g>
	</g>
</g>
<g id="Layer_1">
</g>
</svg>
