<?xml version="1.0" encoding="iso-8859-1"?>
<!-- Generator: Adobe Illustrator 16.0.0, SVG Export Plug-In . SVG Version: 6.00 Build 0)  -->
<!DOCTYPE svg PUBLIC "-//W3C//DTD SVG 1.1//EN" "http://www.w3.org/Graphics/SVG/1.1/DTD/svg11.dtd">
<svg version="1.1" xmlns="http://www.w3.org/2000/svg" xmlns:xlink="http://www.w3.org/1999/xlink" x="0px" y="0px" width="16px"
	 height="16px" viewBox="0 0 16 16" style="enable-background:new 0 0 16 16;" xml:space="preserve">
<g id="doc-paper-line" style="enable-background:new    ;">
	<g id="doc-paper-line_1_">
		<g>
			<path d="M11.499,11.999h-7c-0.276,0-0.5,0.225-0.5,0.5c0,0.276,0.224,0.5,0.5,0.5h7c0.275,0,0.5-0.224,0.5-0.5
				C11.999,12.224,11.774,11.999,11.499,11.999z M4.499,3.999h4c0.275,0,0.5-0.224,0.5-0.5c0-0.275-0.225-0.5-0.5-0.5h-4
				c-0.276,0-0.5,0.225-0.5,0.5C3.999,3.775,4.223,3.999,4.499,3.999z M11.499,8.999h-7c-0.276,0-0.5,0.224-0.5,0.5
				s0.224,0.5,0.5,0.5h7c0.275,0,0.5-0.224,0.5-0.5S11.774,8.999,11.499,8.999z M11.499,5.999h-7c-0.276,0-0.5,0.225-0.5,0.501
				c0,0.275,0.224,0.499,0.5,0.499h7c0.275,0,0.5-0.224,0.5-0.499C11.999,6.224,11.774,5.999,11.499,5.999z M12.999-0.001h-10
				c-0.553,0-1,0.448-1,1.001v13.999c0,0.553,0.447,1,1,1h10c0.553,0,1-0.447,1-1V1C13.999,0.447,13.552-0.001,12.999-0.001z
				 M12.999,14.499c0,0.276-0.225,0.5-0.5,0.5h-9c-0.276,0-0.5-0.224-0.5-0.5v-13C2.999,1.223,3.223,1,3.499,1h9
				c0.275,0,0.5,0.223,0.5,0.499V14.499z"/>
		</g>
	</g>
</g>
<g id="Layer_1">
</g>
</svg>
