<?xml version="1.0" encoding="iso-8859-1"?>
<!-- Generator: Adobe Illustrator 16.0.0, SVG Export Plug-In . SVG Version: 6.00 Build 0)  -->
<!DOCTYPE svg PUBLIC "-//W3C//DTD SVG 1.1//EN" "http://www.w3.org/Graphics/SVG/1.1/DTD/svg11.dtd">
<svg version="1.1" xmlns="http://www.w3.org/2000/svg" xmlns:xlink="http://www.w3.org/1999/xlink" x="0px" y="0px" width="16px"
	 height="16px" viewBox="0 0 16 16" style="enable-background:new 0 0 16 16;" xml:space="preserve">
<g id="doc-pie-a" style="enable-background:new    ;">
	<g id="doc-pie-a_2_">
		<g>
			<path d="M8.999,9.999v5v0.999L10.076,16c5.321-0.766,5.923-5.001,5.923-5.001v-1h-0.027H8.999z M10.004,15H9.999v-0.001v-4h4.98
				C14.82,11.677,13.939,14.403,10.004,15z M7.999-0.002c-4.418,0-8,3.582-8,8.001c0,2.031,0.76,3.883,2.008,5.292l-0.012,0.011
				l0.7,0.701l0.03-0.03c1.175,1.036,2.639,1.752,4.273,1.956v0.07h1v-0.001V8.999h6.899h1.032h0.068v-1
				C15.999,3.58,12.418-0.002,7.999-0.002z M6.999,14.897c-1.354-0.195-2.573-0.786-3.563-1.636l3.563-3.563V14.897z M7.999,7.999
				H7.554L7.53,8.042L7.499,8l-4.766,4.591c-1.079-1.224-1.734-2.828-1.734-4.592c0-3.866,3.134-7.001,7-7.001s7,3.135,7,7.001
				H7.999z"/>
		</g>
	</g>
</g>
<g id="Layer_1">
</g>
</svg>
