<?xml version="1.0" encoding="iso-8859-1"?>
<!-- Generator: Adobe Illustrator 16.0.0, SVG Export Plug-In . SVG Version: 6.00 Build 0)  -->
<!DOCTYPE svg PUBLIC "-//W3C//DTD SVG 1.1//EN" "http://www.w3.org/Graphics/SVG/1.1/DTD/svg11.dtd">
<svg version="1.1" xmlns="http://www.w3.org/2000/svg" xmlns:xlink="http://www.w3.org/1999/xlink" x="0px" y="0px" width="16px"
	 height="16px" viewBox="0 0 16 16" style="enable-background:new 0 0 16 16;" xml:space="preserve">
<g id="doc-analytic-line-a" style="enable-background:new    ;">
	<g id="doc-analytic-line-a_1_">
		<g>
			<path d="M15.499,0.998h-1.5h-12h-1.5c-0.276,0-0.5,0.224-0.5,0.499c0,0.276,0.224,0.5,0.5,0.5h0.5v9c0,0.553,0.448,1,1,1h4.318
				l-1.244,2.291c-0.153,0.228-0.063,0.519,0.203,0.649c0.266,0.131,0.605,0.054,0.759-0.174l1.389-2.558
				c0.045-0.066,0.063-0.138,0.068-0.209h1.013c0.006,0.071,0.023,0.143,0.068,0.209l1.389,2.558
				c0.154,0.228,0.494,0.305,0.76,0.174s0.355-0.422,0.203-0.649l-1.244-2.291h4.318c0.553,0,1-0.447,1-1v-9h0.5
				c0.275,0,0.5-0.224,0.5-0.5C15.999,1.221,15.774,0.998,15.499,0.998z M13.999,2.999v7.498c0,0.276-0.225,0.5-0.5,0.5h-11
				c-0.276,0-0.5-0.224-0.5-0.5V2.498c0-0.001,0-0.001,0-0.001V1.998h0.495c0.001,0,0.003-0.001,0.005-0.001h11
				c0.002,0,0.004,0.001,0.006,0.001h0.494V2.999z M12.749,3.966c-0.24-0.139-0.545-0.057-0.684,0.183l-3.088,2.82L6.536,5.23
				C6.41,5.044,6.162,4.965,5.93,5.012C5.886,5.018,5.845,5.031,5.804,5.048C5.795,5.052,5.786,5.052,5.776,5.056
				C5.768,5.06,5.764,5.068,5.755,5.072C5.719,5.092,5.688,5.117,5.657,5.147C5.628,5.173,5.604,5.201,5.583,5.231
				C5.578,5.239,5.57,5.243,5.566,5.25l-2.5,2.988C2.928,8.479,3.01,8.787,3.249,8.927c0.239,0.139,0.545,0.057,0.683-0.185
				l2.205-2.635l2.325,1.656c0.053,0.077,0.129,0.13,0.215,0.17c0.029,0.029,0.035,0.073,0.072,0.095
				c0.238,0.137,0.545,0.056,0.684-0.183l3.5-3.196C13.069,4.41,12.987,4.104,12.749,3.966z"/>
		</g>
	</g>
</g>
<g id="Layer_1">
</g>
</svg>
