<?xml version="1.0" encoding="iso-8859-1"?>
<!-- Generator: Adobe Illustrator 16.0.0, SVG Export Plug-In . SVG Version: 6.00 Build 0)  -->
<!DOCTYPE svg PUBLIC "-//W3C//DTD SVG 1.1//EN" "http://www.w3.org/Graphics/SVG/1.1/DTD/svg11.dtd">
<svg version="1.1" xmlns="http://www.w3.org/2000/svg" xmlns:xlink="http://www.w3.org/1999/xlink" x="0px" y="0px" width="16px"
	 height="16px" viewBox="0 0 16 16" style="enable-background:new 0 0 16 16;" xml:space="preserve">
<g id="doc-envelope" style="enable-background:new    ;">
	<g id="doc-envelope_2_">
		<g>
			<path d="M14.499-0.001h-13c-0.552,0-1,0.448-1,1v14c0,0.552,0.448,1,1,1h13c0.553,0,1-0.448,1-1v-14
				C15.499,0.447,15.052-0.001,14.499-0.001z M1.999,0.999h12c0.516,0-2,2-2,2h-8C3.999,2.999,1.483,0.999,1.999,0.999z
				 M1.499,1.999l2,2h4v8h-4l-2,2V1.999z M13.999,14.999h-12c-0.5,0,2-2,2-2h8C11.999,12.999,14.499,14.999,13.999,14.999z
				 M14.499,13.999l-2-2h-4v-8h4l2-2V13.999z"/>
		</g>
	</g>
</g>
<g id="Layer_1">
</g>
</svg>
