<?xml version="1.0" encoding="iso-8859-1"?>
<!-- Generator: Adobe Illustrator 16.0.0, SVG Export Plug-In . SVG Version: 6.00 Build 0)  -->
<!DOCTYPE svg PUBLIC "-//W3C//DTD SVG 1.1//EN" "http://www.w3.org/Graphics/SVG/1.1/DTD/svg11.dtd">
<svg version="1.1" xmlns="http://www.w3.org/2000/svg" xmlns:xlink="http://www.w3.org/1999/xlink" x="0px" y="0px" width="16px"
	 height="16px" viewBox="0 0 16 16" style="enable-background:new 0 0 16 16;" xml:space="preserve">
<g id="doc-download" style="enable-background:new    ;">
	<g id="doc-download_2_">
		<g>
			<path d="M7.597,12.781c0.006,0.008,0.015,0.012,0.021,0.019c0.013,0.018,0.007,0.041,0.023,0.056
				c0.019,0.02,0.048,0.014,0.069,0.029c0.072,0.058,0.155,0.096,0.252,0.104c0.011,0.001,0.019,0.008,0.03,0.008
				c0.002,0,0.004,0.002,0.007,0.002c0.002,0,0.004-0.001,0.008-0.001c0.006,0,0.011-0.004,0.018-0.004
				c0.118-0.007,0.225-0.053,0.307-0.127c0.008-0.007,0.018-0.004,0.025-0.011c0.006-0.007,0.004-0.018,0.01-0.024
				c0.006-0.006,0.004-0.018,0.01-0.023l4.98-5.477c0.189-0.19,0.189-0.5,0-0.689c-0.191-0.191-0.5-0.191-0.691,0l-4.166,4.581
				V0.498c0-0.276-0.225-0.499-0.5-0.499c-0.276,0-0.5,0.223-0.5,0.499v10.725L3.332,6.642c-0.191-0.191-0.5-0.191-0.69,0
				c-0.191,0.189-0.191,0.499,0,0.689L7.597,12.781z M13.999,14.999h-12c-0.276,0-0.5,0.224-0.5,0.5c0,0.275,0.224,0.5,0.5,0.5h12
				c0.275,0,0.5-0.225,0.5-0.5C14.499,15.223,14.274,14.999,13.999,14.999z"/>
		</g>
	</g>
</g>
<g id="Layer_1">
</g>
</svg>
