<?xml version="1.0" encoding="iso-8859-1"?>
<!-- Generator: Adobe Illustrator 16.0.0, SVG Export Plug-In . SVG Version: 6.00 Build 0)  -->
<!DOCTYPE svg PUBLIC "-//W3C//DTD SVG 1.1//EN" "http://www.w3.org/Graphics/SVG/1.1/DTD/svg11.dtd">
<svg version="1.1" xmlns="http://www.w3.org/2000/svg" xmlns:xlink="http://www.w3.org/1999/xlink" x="0px" y="0px" width="16px"
	 height="16px" viewBox="0 0 16 16" style="enable-background:new 0 0 16 16;" xml:space="preserve">
<g id="doc-folder-plus-a" style="enable-background:new    ;">
	<g id="doc-folder-plus-a_2_">
		<g>
			<path d="M13.499,2h-5c0-1.105-0.896-2-2-2h-4c-1.104,0-2,0.895-2,2v2.999V6v8c0,1.104,0.896,2,2,2h11c1.104,0,2-0.896,2-2V7V6
				V4.999V4C15.499,2.894,14.603,2,13.499,2z M14.499,7v1.722v5.277c0,0.553-0.447,1-1,1h-11c-0.552,0-1-0.447-1-1V7.721V7V6h13V7z
				 M14.499,4.999h-13V4V2.999V2c0-0.553,0.448-1,1-1h4c0.552,0,1,0.447,1,1v0.999h1h4h1c0.553,0,1,0.448,1,1.001V4.999z
				 M5.999,10.997h1.5v1.5c0,0.277,0.224,0.5,0.5,0.5c0.275,0,0.5-0.223,0.5-0.5v-1.5h1.5c0.275,0,0.5-0.223,0.5-0.5
				c0-0.275-0.225-0.5-0.5-0.5h-1.5v-1.5c0-0.275-0.225-0.5-0.5-0.5c-0.276,0-0.5,0.224-0.5,0.5v1.5h-1.5
				c-0.276,0-0.5,0.225-0.5,0.5C5.499,10.774,5.723,10.997,5.999,10.997z"/>
		</g>
	</g>
</g>
<g id="Layer_1">
</g>
</svg>
