<?xml version="1.0" encoding="iso-8859-1"?>
<!-- Generator: Adobe Illustrator 16.0.0, SVG Export Plug-In . SVG Version: 6.00 Build 0)  -->
<!DOCTYPE svg PUBLIC "-//W3C//DTD SVG 1.1//EN" "http://www.w3.org/Graphics/SVG/1.1/DTD/svg11.dtd">
<svg version="1.1" xmlns="http://www.w3.org/2000/svg" xmlns:xlink="http://www.w3.org/1999/xlink" x="0px" y="0px" width="16px"
	 height="16px" viewBox="0 0 16 16" style="enable-background:new 0 0 16 16;" xml:space="preserve">
<g id="doc-list" style="enable-background:new    ;">
	<g id="doc-list_2_">
		<g>
			<path d="M2.499,10.999h-1c-0.276,0-0.5,0.225-0.5,0.5v1c0,0.275,0.224,0.5,0.5,0.5h1c0.276,0,0.5-0.225,0.5-0.5v-1
				C2.999,11.224,2.775,10.999,2.499,10.999z M2.499,6.999h-1c-0.276,0-0.5,0.225-0.5,0.5v1c0,0.275,0.224,0.5,0.5,0.5h1
				c0.276,0,0.5-0.225,0.5-0.5v-1C2.999,7.223,2.775,6.999,2.499,6.999z M5.499,4h9c0.275,0,0.5-0.225,0.5-0.501
				c0-0.275-0.225-0.499-0.5-0.499h-9c-0.276,0-0.5,0.224-0.5,0.499C4.999,3.775,5.223,4,5.499,4z M2.499,3h-1
				c-0.276,0-0.5,0.223-0.5,0.499v1c0,0.277,0.224,0.5,0.5,0.5h1c0.276,0,0.5-0.223,0.5-0.5v-1C2.999,3.222,2.775,3,2.499,3z
				 M14.499,10.999h-9c-0.276,0-0.5,0.225-0.5,0.5c0,0.277,0.224,0.5,0.5,0.5h9c0.275,0,0.5-0.223,0.5-0.5
				C14.999,11.224,14.774,10.999,14.499,10.999z M14.499,7h-9c-0.276,0-0.5,0.224-0.5,0.499c0,0.277,0.224,0.5,0.5,0.5h9
				c0.275,0,0.5-0.223,0.5-0.5C14.999,7.223,14.774,7,14.499,7z"/>
		</g>
	</g>
</g>
<g id="Layer_1">
</g>
</svg>
