<?xml version="1.0" encoding="iso-8859-1"?>
<!-- Generator: Adobe Illustrator 16.0.0, SVG Export Plug-In . SVG Version: 6.00 Build 0)  -->
<!DOCTYPE svg PUBLIC "-//W3C//DTD SVG 1.1//EN" "http://www.w3.org/Graphics/SVG/1.1/DTD/svg11.dtd">
<svg version="1.1" xmlns="http://www.w3.org/2000/svg" xmlns:xlink="http://www.w3.org/1999/xlink" x="0px" y="0px" width="16px"
	 height="16px" viewBox="0 0 16 16" style="enable-background:new 0 0 16 16;" xml:space="preserve">
<g id="doc-newspaper-a" style="enable-background:new    ;">
	<g id="doc-newspaper-a_2_">
		<g>
			<path d="M4.999,9.993h9V8.991h-9V9.993z M4.999,12.997h9v-1.002h-9V12.997z M12.999,2.986h-7c-0.552,0-1,0.448-1,1.002v2.001
				c0,0.553,0.448,1.001,1,1.001h7c0.553,0,1-0.448,1-1.001V3.988C13.999,3.434,13.552,2.986,12.999,2.986z M12.999,5.488
				c0,0.277-0.225,0.501-0.5,0.501h-6c-0.276,0-0.5-0.224-0.5-0.501v-1c0-0.276,0.224-0.5,0.5-0.5h6c0.275,0,0.5,0.224,0.5,0.5
				V5.488z M14.499,0h-10c-0.829,0-1.5,0.692-1.5,1.548v2.44h-1.5c-0.829,0-1.5,0.671-1.5,1.501v9.008c0,0.83,0.671,1.502,1.5,1.502
				h13c0.828,0,1.5-0.693,1.5-1.549V1.547C15.999,0.692,15.327,0,14.499,0z M14.999,14.45c0,0.285-0.225,0.516-0.5,0.516l-13,0.031
				c-0.276,0-0.5-0.225-0.5-0.502V5.467c0-0.277,0.224-0.501,0.5-0.501h1.5v8.933h1V4.966V4.621V1.517C3.999,1.231,4.223,1,4.499,1
				h10c0.275,0,0.5,0.231,0.5,0.518V14.45z"/>
		</g>
	</g>
</g>
<g id="Layer_1">
</g>
</svg>
