<?xml version="1.0" encoding="iso-8859-1"?>
<!-- Generator: Adobe Illustrator 16.0.0, SVG Export Plug-In . SVG Version: 6.00 Build 0)  -->
<!DOCTYPE svg PUBLIC "-//W3C//DTD SVG 1.1//EN" "http://www.w3.org/Graphics/SVG/1.1/DTD/svg11.dtd">
<svg version="1.1" xmlns="http://www.w3.org/2000/svg" xmlns:xlink="http://www.w3.org/1999/xlink" x="0px" y="0px" width="16px"
	 height="16px" viewBox="0 0 16 16" style="enable-background:new 0 0 16 16;" xml:space="preserve">
<g id="doc-profile" style="enable-background:new    ;">
	<g id="doc-profile_2_">
		<g>
			<path d="M10.499,6.499h3c0.275,0,0.5-0.225,0.5-0.501s-0.225-0.5-0.5-0.5h-3c-0.277,0-0.5,0.224-0.5,0.5
				S10.222,6.499,10.499,6.499z M10.499,8.498h3c0.275,0,0.5-0.224,0.5-0.5c0-0.275-0.225-0.499-0.5-0.499h-3
				c-0.277,0-0.5,0.224-0.5,0.499C9.999,8.274,10.222,8.498,10.499,8.498z M10.499,4.498h3c0.275,0,0.5-0.224,0.5-0.499
				c0-0.277-0.225-0.501-0.5-0.501h-3c-0.277,0-0.5,0.224-0.5,0.501C9.999,4.274,10.222,4.498,10.499,4.498z M12.999,0.499h-10
				c-1.657,0-3,1.344-3,3v6.499v1.611v2.777c0,0.614,0.497,1.112,1.111,1.112h0.389h2.389h10.611c0.275,0,0.5-0.225,0.5-0.501
				s-0.225-0.5-0.5-0.5H4.977c0.004-0.038,0.022-0.071,0.022-0.111v-0.389c0,0.276-0.224,0.5-0.5,0.5h-3
				c-0.276,0-0.499-0.223-0.5-0.498v-0.002v-0.5v-0.777v-0.722H1.69c0,0,0,0-0.001-0.001h-0.69v-1.5V3.499c0-1.103,0.897-2,2-2h10
				c1.104,0,2,0.897,2,2V10.5c0,1.103-0.896,2-2,2h-10c-0.366,0-0.705-0.106-1-0.279v1.277h0.987c0.004,0,0.008,0.002,0.013,0.002
				h1.506c0.273,0.003,0.493,0.225,0.494,0.498V13.5h8c1.656,0,3-1.344,3-3V3.499C15.999,1.843,14.655,0.499,12.999,0.499z
				 M10.499,10.498h3c0.275,0,0.5-0.224,0.5-0.5c0-0.275-0.225-0.5-0.5-0.5h-3c-0.277,0-0.5,0.225-0.5,0.5
				C9.999,10.274,10.222,10.498,10.499,10.498z M5.499,10.498c1.933,0,3.5-1.566,3.5-3.5c0-1.933-1.567-3.5-3.5-3.5
				c-1.933,0-3.5,1.567-3.5,3.5C1.999,8.932,3.566,10.498,5.499,10.498z M5.499,4.498c1.38,0,2.5,1.119,2.5,2.5s-1.12,2.5-2.5,2.5
				c-1.381,0-2.5-1.119-2.5-2.5S4.118,4.498,5.499,4.498z"/>
		</g>
	</g>
</g>
<g id="Layer_1">
</g>
</svg>
