<?xml version="1.0" encoding="iso-8859-1"?>
<!-- Generator: Adobe Illustrator 16.0.0, SVG Export Plug-In . SVG Version: 6.00 Build 0)  -->
<!DOCTYPE svg PUBLIC "-//W3C//DTD SVG 1.1//EN" "http://www.w3.org/Graphics/SVG/1.1/DTD/svg11.dtd">
<svg version="1.1" xmlns="http://www.w3.org/2000/svg" xmlns:xlink="http://www.w3.org/1999/xlink" x="0px" y="0px" width="16px"
	 height="16px" viewBox="0 0 16 16" style="enable-background:new 0 0 16 16;" xml:space="preserve">
<g id="doc-drawer-b" style="enable-background:new    ;">
	<g id="doc-drawer-b_2_">
		<g>
			<path d="M4.999,8.999h6v-1h-6V8.999z M4.999,6h6V4.999h-6V6z M14.999-0.001h-14c-0.552,0-1,0.448-1,1.001v14c0,0.553,0.448,1,1,1
				h14c0.553,0,1-0.447,1-1V1C15.999,0.447,15.552-0.001,14.999-0.001z M14.999,14.499c0,0.277-0.225,0.5-0.5,0.5h-13
				c-0.276,0-0.5-0.223-0.5-0.5v-13c0-0.277,0.224-0.5,0.5-0.5h13c0.275,0,0.5,0.223,0.5,0.5V14.499z M12.999,2h-10
				c-0.552,0-1,0.447-1,0.999v8c0,0.553,0.448,1,1,1h2v1c0,0.553,0.448,1,1,1h4c0.553,0,1-0.447,1-1v-1h2c0.553,0,1-0.447,1-1v-8
				C13.999,2.447,13.552,2,12.999,2z M12.999,10.499c0,0.275-0.225,0.5-0.5,0.5h-2.5v1.5c0,0.277-0.225,0.5-0.5,0.5h-3
				c-0.276,0-0.5-0.223-0.5-0.5v-1.5h-2.5c-0.276,0-0.5-0.225-0.5-0.5v-7c0-0.275,0.224-0.5,0.5-0.5h9c0.275,0,0.5,0.225,0.5,0.5
				V10.499z"/>
		</g>
	</g>
</g>
<g id="Layer_1">
</g>
</svg>
