<?xml version="1.0" encoding="iso-8859-1"?>
<!-- Generator: Adobe Illustrator 16.0.0, SVG Export Plug-In . SVG Version: 6.00 Build 0)  -->
<!DOCTYPE svg PUBLIC "-//W3C//DTD SVG 1.1//EN" "http://www.w3.org/Graphics/SVG/1.1/DTD/svg11.dtd">
<svg version="1.1" xmlns="http://www.w3.org/2000/svg" xmlns:xlink="http://www.w3.org/1999/xlink" x="0px" y="0px" width="16px"
	 height="16px" viewBox="0 0 16 16" style="enable-background:new 0 0 16 16;" xml:space="preserve">
<g id="doc-bookmark" style="enable-background:new    ;">
	<g id="doc-bookmark_2_">
		<g>
			<path d="M12.499,0.499h-9c-0.552,0-1,0.447-1,1v13c0,0.553,0.947,1,1.5,1l3.945-5l4.055,5c0.553,0,1.5-0.447,1.5-1v-13
				C13.499,0.946,13.052,0.499,12.499,0.499z M12.499,13.499c0,0.276-0.225,0.5-0.5,0.5l-4-5l-4,5c-0.276,0-0.5-0.224-0.5-0.5v-11.5
				c0-0.275,0.224-0.5,0.5-0.5h8c0.275,0,0.5,0.225,0.5,0.5V13.499z"/>
		</g>
	</g>
</g>
<g id="Layer_1">
</g>
</svg>
