<?xml version="1.0" encoding="iso-8859-1"?>
<!-- Generator: Adobe Illustrator 16.0.0, SVG Export Plug-In . SVG Version: 6.00 Build 0)  -->
<!DOCTYPE svg PUBLIC "-//W3C//DTD SVG 1.1//EN" "http://www.w3.org/Graphics/SVG/1.1/DTD/svg11.dtd">
<svg version="1.1" xmlns="http://www.w3.org/2000/svg" xmlns:xlink="http://www.w3.org/1999/xlink" x="0px" y="0px" width="16px"
	 height="16px" viewBox="0 0 16 16" style="enable-background:new 0 0 16 16;" xml:space="preserve">
<g id="doc-note-pen" style="enable-background:new    ;">
	<g id="doc-note-pen_1_">
		<g>
			<path d="M13.499,5h-6c-0.276,0-0.5,0.224-0.5,0.499C6.999,5.775,7.223,6,7.499,6h6c0.275,0,0.5-0.225,0.5-0.501
				C13.999,5.223,13.774,5,13.499,5z M14.999,0.999h-1v-1h-1v1h-2v-1h-1v1h-2v-1h-1v1h-1c-0.553,0-1,0.448-1,1v13
				c0,0.553,0.447,1,1,1h9c0.553,0,1-0.447,1-1v-13C15.999,1.447,15.552,0.999,14.999,0.999z M14.999,14.499
				c0,0.275-0.225,0.5-0.5,0.5h-8c-0.276,0-0.5-0.225-0.5-0.5v-12c0-0.276,0.224-0.501,0.5-0.501h0.5h1h2h1h2h1h0.5
				c0.275,0,0.5,0.225,0.5,0.501V14.499z M2.999-0.001h-2c-0.552,0-1,0.448-1,1V7v0.999v7c0,0.553,0.448,1,1,1h2
				c0.552,0,1-0.447,1-1v-7V7V0.999C3.999,0.447,3.551-0.001,2.999-0.001z M2.999,14.499c0,0.275-0.224,0.5-0.5,0.5h-1
				c-0.276,0-0.5-0.225-0.5-0.5v-6.5h2V14.499z M2.999,7h-2V1.499c0-0.275,0.224-0.5,0.5-0.5h1c0.276,0,0.5,0.225,0.5,0.5V7z
				 M13.499,7.999h-6c-0.276,0-0.5,0.223-0.5,0.5c0,0.275,0.224,0.5,0.5,0.5h6c0.275,0,0.5-0.225,0.5-0.5
				C13.999,8.222,13.774,7.999,13.499,7.999z M13.499,10.999h-6c-0.276,0-0.5,0.225-0.5,0.5s0.224,0.5,0.5,0.5h6
				c0.275,0,0.5-0.225,0.5-0.5S13.774,10.999,13.499,10.999z"/>
		</g>
	</g>
</g>
<g id="Layer_1">
</g>
</svg>
