<?xml version="1.0" encoding="iso-8859-1"?>
<!-- Generator: Adobe Illustrator 16.0.0, SVG Export Plug-In . SVG Version: 6.00 Build 0)  -->
<!DOCTYPE svg PUBLIC "-//W3C//DTD SVG 1.1//EN" "http://www.w3.org/Graphics/SVG/1.1/DTD/svg11.dtd">
<svg version="1.1" xmlns="http://www.w3.org/2000/svg" xmlns:xlink="http://www.w3.org/1999/xlink" x="0px" y="0px" width="16px"
	 height="16px" viewBox="0 0 16 16" style="enable-background:new 0 0 16 16;" xml:space="preserve">
<g id="doc-print-a" style="enable-background:new    ;">
	<g id="doc-print-a_1_">
		<g>
			<path d="M14.999,8.997h-2v-8c0-0.552-0.447-0.999-1-0.999h-8c-0.552,0-1,0.447-1,0.999v8h-2c-0.552,0-1,0.449-1,1v3
				c0,0.553,0.448,1.002,1,1.002h2v1.5c0,0.275,0.224,0.5,0.5,0.5h9c0.275,0,0.5-0.225,0.5-0.5v-1.5h2c0.553,0,1-0.449,1-1.002v-3
				C15.999,9.446,15.552,8.997,14.999,8.997z M3.999,1.498c0-0.275,0.224-0.5,0.5-0.5h7c0.275,0,0.5,0.225,0.5,0.5v7
				c0,0.277-0.225,0.5-0.5,0.5h-7c-0.276,0-0.5-0.223-0.5-0.5V1.498z M11.999,14.999h-8v-3h8V14.999z M14.999,12.497
				c0,0.277-0.225,0.5-0.5,0.5h-1.5v-1.498c0-0.277-0.225-0.5-0.5-0.5h-9c-0.276,0-0.5,0.223-0.5,0.5v1.498h-1.5
				c-0.276,0-0.5-0.223-0.5-0.5v-2c0-0.275,0.224-0.5,0.5-0.5h13c0.275,0,0.5,0.225,0.5,0.5V12.497z"/>
		</g>
	</g>
</g>
<g id="Layer_1">
</g>
</svg>
