<?xml version="1.0" encoding="iso-8859-1"?>
<!-- Generator: Adobe Illustrator 16.0.0, SVG Export Plug-In . SVG Version: 6.00 Build 0)  -->
<!DOCTYPE svg PUBLIC "-//W3C//DTD SVG 1.1//EN" "http://www.w3.org/Graphics/SVG/1.1/DTD/svg11.dtd">
<svg version="1.1" xmlns="http://www.w3.org/2000/svg" xmlns:xlink="http://www.w3.org/1999/xlink" x="0px" y="0px" width="16px"
	 height="16px" viewBox="0 0 16 16" style="enable-background:new 0 0 16 16;" xml:space="preserve">
<g id="doc-folder-tick" style="enable-background:new    ;">
	<g id="doc-folder-tick_1_">
		<g>
			<path d="M14.999,1.999h-8V1c0-0.553-0.447-1-1-1h-5c-0.553,0-1,0.447-1,1v1.999v1v1v10c0,0.553,0.447,1,1,1h14
				c0.553,0,1-0.447,1-1v-10v-2C15.999,2.447,15.552,1.999,14.999,1.999z M14.999,5.5v0.499v8.5c0,0.275-0.224,0.5-0.5,0.5h-13
				c-0.276,0-0.5-0.225-0.5-0.5v-8.5V5.5V4.999h0.5h13h0.5V5.5z M14.499,3.999h-1h-12.5v-1v-0.5v-0.5v-0.5
				C0.999,1.223,1.223,1,1.499,1h4c0.276,0,0.5,0.224,0.5,0.499v0.5v0.5v0.5h7.5h1c0.276,0,0.5,0.225,0.5,0.5
				C14.999,3.775,14.775,3.999,14.499,3.999z M12.13,7.14l-4.69,4.689L4.82,9.642c-0.188-0.188-0.491-0.188-0.679,0
				s-0.188,0.49,0,0.678l2.988,2.496c0.007,0.008,0.004,0.02,0.011,0.025c0.099,0.1,0.228,0.148,0.357,0.148
				c0.13,0.006,0.26-0.033,0.358-0.133c0.009-0.01,0.005-0.021,0.013-0.031l4.973-4.973c0.197-0.195,0.197-0.516,0-0.712
				C12.646,6.944,12.326,6.944,12.13,7.14z"/>
		</g>
	</g>
</g>
<g id="Layer_1">
</g>
</svg>
