<?xml version="1.0" encoding="iso-8859-1"?>
<!-- Generator: Adobe Illustrator 16.0.0, SVG Export Plug-In . SVG Version: 6.00 Build 0)  -->
<!DOCTYPE svg PUBLIC "-//W3C//DTD SVG 1.1//EN" "http://www.w3.org/Graphics/SVG/1.1/DTD/svg11.dtd">
<svg version="1.1" xmlns="http://www.w3.org/2000/svg" xmlns:xlink="http://www.w3.org/1999/xlink" x="0px" y="0px" width="16px"
	 height="16px" viewBox="0 0 16 16" style="enable-background:new 0 0 16 16;" xml:space="preserve">
<g id="doc-file-cross-a" style="enable-background:new    ;">
	<g id="doc-file-cross-a_1_">
		<g>
			<path d="M9.747,6.003L7.999,7.75L6.251,6.003L5.503,6.751L7.25,8.499l-1.748,1.748l0.749,0.748l1.748-1.748l1.748,1.748
				l0.748-0.748L8.747,8.499l1.748-1.748L9.747,6.003z M14.497,3.999L10.499,0v-0.001h-8.5c-0.276,0-0.5,0.224-0.5,0.501v15
				c0,0.275,0.224,0.5,0.5,0.5h12c0.275,0,0.5-0.225,0.5-0.5V4V3.999H14.497z M10.499,1.231l2.768,2.768h-2.768V1.231z
				 M13.499,14.499c0,0.275-0.225,0.5-0.5,0.5h-10c-0.276,0-0.5-0.225-0.5-0.5v-13c0-0.276,0.224-0.5,0.5-0.5h6.5v3v1h1h3V14.499z"
				/>
		</g>
	</g>
</g>
<g id="Layer_1">
</g>
</svg>
