<?xml version="1.0" encoding="iso-8859-1"?>
<!-- Generator: Adobe Illustrator 16.0.0, SVG Export Plug-In . SVG Version: 6.00 Build 0)  -->
<!DOCTYPE svg PUBLIC "-//W3C//DTD SVG 1.1//EN" "http://www.w3.org/Graphics/SVG/1.1/DTD/svg11.dtd">
<svg version="1.1" xmlns="http://www.w3.org/2000/svg" xmlns:xlink="http://www.w3.org/1999/xlink" x="0px" y="0px" width="16px"
	 height="16px" viewBox="0 0 16 16" style="enable-background:new 0 0 16 16;" xml:space="preserve">
<g id="doc-article" style="enable-background:new    ;">
	<g id="doc-article_1_">
		<g>
			<path d="M2.999,7h4c0.552,0,1-0.448,1-1.001v-3c0-0.552-0.448-1-1-1h-4c-0.553,0-1,0.448-1,1v3C1.999,6.552,2.446,7,2.999,7z
				 M2.999,3.499c0-0.275,0.224-0.5,0.5-0.5h3c0.276,0,0.5,0.225,0.5,0.5v2c0,0.276-0.224,0.5-0.5,0.5h-3
				c-0.276,0-0.5-0.224-0.5-0.5V3.499z M13.499,11.999h-11c-0.276,0-0.5,0.225-0.5,0.501c0,0.275,0.224,0.5,0.5,0.5h11
				c0.275,0,0.5-0.225,0.5-0.5C13.999,12.224,13.774,11.999,13.499,11.999z M13.499,9.999h-11c-0.276,0-0.5,0.224-0.5,0.501
				c0,0.275,0.224,0.499,0.5,0.499h11c0.275,0,0.5-0.224,0.5-0.499C13.999,10.223,13.774,9.999,13.499,9.999z M13.499,1.999h-4
				c-0.275,0-0.5,0.225-0.5,0.501c0,0.275,0.225,0.499,0.5,0.499h4c0.275,0,0.5-0.224,0.5-0.499
				C13.999,2.224,13.774,1.999,13.499,1.999z M14.999-0.001h-14c-0.552,0-1,0.448-1,1.001v13.999c0,0.553,0.448,1,1,1h14
				c0.553,0,1-0.447,1-1V1C15.999,0.447,15.552-0.001,14.999-0.001z M14.999,14.5c0,0.275-0.225,0.499-0.5,0.499h-13
				c-0.276,0-0.5-0.224-0.5-0.499V1.499C0.999,1.224,1.223,1,1.499,1h13c0.275,0,0.5,0.224,0.5,0.499V14.5z M13.499,4h-4
				c-0.275,0-0.5,0.223-0.5,0.499S9.224,5,9.499,5h4c0.275,0,0.5-0.225,0.5-0.501S13.774,4,13.499,4z M13.499,5.999h-4
				c-0.275,0-0.5,0.225-0.5,0.5C8.999,6.775,9.224,7,9.499,7h4c0.275,0,0.5-0.225,0.5-0.501C13.999,6.224,13.774,5.999,13.499,5.999
				z M13.499,7.999h-11c-0.276,0-0.5,0.225-0.5,0.501c0,0.275,0.224,0.499,0.5,0.499h11c0.275,0,0.5-0.224,0.5-0.499
				C13.999,8.224,13.774,7.999,13.499,7.999z"/>
		</g>
	</g>
</g>
<g id="Layer_1">
</g>
</svg>
