<?xml version="1.0" encoding="iso-8859-1"?>
<!-- Generator: Adobe Illustrator 16.0.0, SVG Export Plug-In . SVG Version: 6.00 Build 0)  -->
<!DOCTYPE svg PUBLIC "-//W3C//DTD SVG 1.1//EN" "http://www.w3.org/Graphics/SVG/1.1/DTD/svg11.dtd">
<svg version="1.1" xmlns="http://www.w3.org/2000/svg" xmlns:xlink="http://www.w3.org/1999/xlink" x="0px" y="0px" width="16px"
	 height="16px" viewBox="0 0 16 16" style="enable-background:new 0 0 16 16;" xml:space="preserve">
<g id="doc-notebook" style="enable-background:new    ;">
	<g id="doc-notebook_2_">
		<g>
			<path d="M2.999,7.999h7c0.553,0,1-0.448,1-1v-3c0-0.553-0.447-1-1-1h-7c-0.552,0-1,0.447-1,1v3
				C1.999,7.551,2.447,7.999,2.999,7.999z M2.999,4.499c0-0.275,0.224-0.5,0.5-0.5h6c0.275,0,0.5,0.225,0.5,0.5V6.5
				c0,0.275-0.225,0.499-0.5,0.499h-6c-0.276,0-0.5-0.224-0.5-0.499V4.499z M2.499,10.999h8c0.275,0,0.5-0.224,0.5-0.5
				c0-0.275-0.225-0.5-0.5-0.5h-8c-0.276,0-0.5,0.225-0.5,0.5C1.999,10.775,2.223,10.999,2.499,10.999z M14.999-0.001h-14
				c-0.553,0-1,0.448-1,1v14c0,0.553,0.447,1,1,1h14c0.553,0,1-0.447,1-1v-14C15.999,0.447,15.552-0.001,14.999-0.001z
				 M11.999,2.999V5v1.999V9v1.999v2v2h-10.5c-0.276,0-0.5-0.224-0.5-0.5v-13c0-0.275,0.224-0.5,0.5-0.5h10.5V2.999z M14.999,14.499
				c0,0.276-0.225,0.5-0.5,0.5h-1.5v-2h1v-2h-1V9h1V6.999h-1V5h1V2.999h-1v-2h1.5c0.275,0,0.5,0.225,0.5,0.5V14.499z M2.499,12.999
				h8c0.275,0,0.5-0.224,0.5-0.499c0-0.277-0.225-0.501-0.5-0.501h-8c-0.276,0-0.5,0.224-0.5,0.501
				C1.999,12.775,2.223,12.999,2.499,12.999z"/>
		</g>
	</g>
</g>
<g id="Layer_1">
</g>
</svg>
