<?xml version="1.0" encoding="iso-8859-1"?>
<!-- Generator: Adobe Illustrator 16.0.0, SVG Export Plug-In . SVG Version: 6.00 Build 0)  -->
<!DOCTYPE svg PUBLIC "-//W3C//DTD SVG 1.1//EN" "http://www.w3.org/Graphics/SVG/1.1/DTD/svg11.dtd">
<svg version="1.1" xmlns="http://www.w3.org/2000/svg" xmlns:xlink="http://www.w3.org/1999/xlink" x="0px" y="0px" width="16px"
	 height="16px" viewBox="0 0 16 16" style="enable-background:new 0 0 16 16;" xml:space="preserve">
<g id="doc-briefcase" style="enable-background:new    ;">
	<g id="doc-briefcase_1_">
		<g>
			<path d="M13.999,2.499h-3v-1.5c0-0.276-0.225-0.5-0.5-0.5h-5c-0.276,0-0.5,0.224-0.5,0.5v1.5h-3c-1.105,0-2,0.896-2,2v9
				c0,1.104,0.895,2,2,2h12c1.104,0,2-0.896,2-2v-9C15.999,3.395,15.103,2.499,13.999,2.499z M5.999,1.499h4v0.998h-4V1.499z
				 M14.999,13.499c0,0.553-0.447,1-1,1h-12c-0.552,0-1-0.447-1-1v-9c0-0.552,0.448-1,1-1h12c0.553,0,1,0.448,1,1V13.499z"/>
		</g>
	</g>
</g>
<g id="Layer_1">
</g>
</svg>
