<?xml version="1.0" encoding="iso-8859-1"?>
<!-- Generator: Adobe Illustrator 16.0.0, SVG Export Plug-In . SVG Version: 6.00 Build 0)  -->
<!DOCTYPE svg PUBLIC "-//W3C//DTD SVG 1.1//EN" "http://www.w3.org/Graphics/SVG/1.1/DTD/svg11.dtd">
<svg version="1.1" xmlns="http://www.w3.org/2000/svg" xmlns:xlink="http://www.w3.org/1999/xlink" x="0px" y="0px" width="16px"
	 height="16px" viewBox="0 0 16 16" style="enable-background:new 0 0 16 16;" xml:space="preserve">
<g id="doc-file-stack" style="enable-background:new    ;">
	<g id="doc-file-stack_2_">
		<g>
			<path d="M1.499,2.999h13c0.275,0,0.5-0.224,0.5-0.499c0-0.277-0.225-0.501-0.5-0.501h-13c-0.276,0-0.5,0.224-0.5,0.501
				C0.999,2.775,1.223,2.999,1.499,2.999z M3.499,0.999h9.5c0.275,0,0.5-0.224,0.5-0.499c0-0.277-0.225-0.501-0.5-0.501h-9.5
				c-0.276,0-0.5,0.224-0.5,0.501C2.999,0.775,3.223,0.999,3.499,0.999z M-0.001,3.999v12h16v-12H-0.001z M14.999,14.999h-14v-10h14
				V14.999z"/>
		</g>
	</g>
</g>
<g id="Layer_1">
</g>
</svg>
