<?xml version="1.0" encoding="iso-8859-1"?>
<!-- Generator: Adobe Illustrator 16.0.0, SVG Export Plug-In . SVG Version: 6.00 Build 0)  -->
<!DOCTYPE svg PUBLIC "-//W3C//DTD SVG 1.1//EN" "http://www.w3.org/Graphics/SVG/1.1/DTD/svg11.dtd">
<svg version="1.1" xmlns="http://www.w3.org/2000/svg" xmlns:xlink="http://www.w3.org/1999/xlink" x="0px" y="0px" width="16px"
	 height="16px" viewBox="0 0 16 16" style="enable-background:new 0 0 16 16;" xml:space="preserve">
<g id="doc-article-b" style="enable-background:new    ;">
	<g id="doc-article-b_1_">
		<g>
			<path d="M13.999-0.001h-12c-0.828,0-1.5,0.672-1.5,1.501v12.999c0,0.828,0.672,1.5,1.5,1.5h12c0.829,0,1.5-0.672,1.5-1.5V1.5
				C15.499,0.671,14.828-0.001,13.999-0.001z M14.499,14.499c0,0.276-0.224,0.5-0.5,0.5h-12c-0.276,0-0.5-0.224-0.5-0.5V1.5
				c0-0.277,0.224-0.501,0.5-0.501h12c0.276,0,0.5,0.224,0.5,0.501V14.499z M11.999,9.999h-8c-0.276,0-0.5,0.224-0.5,0.5
				s0.224,0.5,0.5,0.5h8c0.276,0,0.5-0.224,0.5-0.5S12.275,9.999,11.999,9.999z M11.999,6.999h-8c-0.276,0-0.5,0.225-0.5,0.5
				c0,0.276,0.224,0.5,0.5,0.5h8c0.276,0,0.5-0.224,0.5-0.5C12.499,7.224,12.275,6.999,11.999,6.999z M11.999,3.999h-8
				c-0.276,0-0.5,0.224-0.5,0.5s0.224,0.5,0.5,0.5h8c0.276,0,0.5-0.224,0.5-0.5S12.275,3.999,11.999,3.999z"/>
		</g>
	</g>
</g>
<g id="Layer_1">
</g>
</svg>
