<?xml version="1.0" encoding="iso-8859-1"?>
<!-- Generator: Adobe Illustrator 16.0.0, SVG Export Plug-In . SVG Version: 6.00 Build 0)  -->
<!DOCTYPE svg PUBLIC "-//W3C//DTD SVG 1.1//EN" "http://www.w3.org/Graphics/SVG/1.1/DTD/svg11.dtd">
<svg version="1.1" xmlns="http://www.w3.org/2000/svg" xmlns:xlink="http://www.w3.org/1999/xlink" x="0px" y="0px" width="16px"
	 height="16px" viewBox="0 0 16 16" style="enable-background:new 0 0 16 16;" xml:space="preserve">
<g id="doc-file-blank-a" style="enable-background:new    ;">
	<g id="doc-file-blank-a_2_">
		<g>
			<path d="M14.497,3.999L10.499,0v-0.001h-8.5c-0.276,0-0.5,0.224-0.5,0.501v14.999c0,0.276,0.224,0.5,0.5,0.5h12
				c0.275,0,0.5-0.224,0.5-0.5V4.001V3.999H14.497z M10.499,1.231l2.768,2.768h-2.768V1.231z M13.499,14.499
				c0,0.276-0.225,0.5-0.5,0.5h-10c-0.276,0-0.5-0.224-0.5-0.5v-13c0-0.276,0.224-0.5,0.5-0.5h6.5v3V5h1h3V14.499z"/>
		</g>
	</g>
</g>
<g id="Layer_1">
</g>
</svg>
