<?xml version="1.0" encoding="iso-8859-1"?>
<!-- Generator: Adobe Illustrator 16.0.0, SVG Export Plug-In . SVG Version: 6.00 Build 0)  -->
<!DOCTYPE svg PUBLIC "-//W3C//DTD SVG 1.1//EN" "http://www.w3.org/Graphics/SVG/1.1/DTD/svg11.dtd">
<svg version="1.1" xmlns="http://www.w3.org/2000/svg" xmlns:xlink="http://www.w3.org/1999/xlink" x="0px" y="0px" width="16px"
	 height="16px" viewBox="0 0 16 16" style="enable-background:new 0 0 16 16;" xml:space="preserve">
<g id="doc-drawer-upload" style="enable-background:new    ;">
	<g id="doc-drawer-upload_1_">
		<g>
			<path d="M13.499,1.999h-1V2v0.999h0.286l1.714,6h-4v2h-5v-2h-4l1.714-6h0.286V2V1.999h-1l-2,7v1v5c0,0.553,0.447,1,1,1h13
				c0.553,0,1-0.447,1-1v-5v-1L13.499,1.999z M14.499,14.499c0,0.275-0.224,0.5-0.5,0.5h-12c-0.276,0-0.5-0.225-0.5-0.5v-4
				c0-0.275,0.224-0.5,0.5-0.5h2.5v2h7v-2h2.5c0.276,0,0.5,0.225,0.5,0.5V14.499z M5.471,3.8l1.802-1.802l0.227-0.227v0.227v6.5
				c0,0.275,0.223,0.498,0.497,0.5h0.002h0.001c0.001,0,0.001,0,0.001,0h0.002c0.274-0.002,0.497-0.225,0.497-0.5v-6.5V1.807
				L8.69,1.999h0.001L10.492,3.8c0.223,0.223,0.585,0.223,0.808,0c0.224-0.224,0.224-0.585,0-0.809l-0.992-0.993h-0.001L8.471,0.163
				C8.348,0.04,8.184-0.008,8.023,0.004C8.015,0.003,8.008,0,7.999,0C7.984,0,7.972,0.006,7.958,0.007
				C7.791-0.01,7.619,0.036,7.491,0.163L5.656,1.999H5.655L4.663,2.992c-0.224,0.224-0.224,0.585,0,0.809
				C4.886,4.023,5.248,4.023,5.471,3.8z"/>
		</g>
	</g>
</g>
<g id="Layer_1">
</g>
</svg>
