<?xml version="1.0" encoding="iso-8859-1"?>
<!-- Generator: Adobe Illustrator 16.0.0, SVG Export Plug-In . SVG Version: 6.00 Build 0)  -->
<!DOCTYPE svg PUBLIC "-//W3C//DTD SVG 1.1//EN" "http://www.w3.org/Graphics/SVG/1.1/DTD/svg11.dtd">
<svg version="1.1" xmlns="http://www.w3.org/2000/svg" xmlns:xlink="http://www.w3.org/1999/xlink" x="0px" y="0px" width="16px"
	 height="16px" viewBox="0 0 16 16" style="enable-background:new 0 0 16 16;" xml:space="preserve">
<g id="doc-article-a" style="enable-background:new    ;">
	<g id="doc-article-a_1_">
		<g>
			<path d="M11.999,9.999h-6c-0.276,0-0.5,0.223-0.5,0.5c0,0.275,0.224,0.5,0.5,0.5h6c0.276,0,0.5-0.225,0.5-0.5
				C12.499,10.222,12.275,9.999,11.999,9.999z M13.999-0.001h-12c-0.828,0-1.5,0.672-1.5,1.5v13c0,0.828,0.672,1.5,1.5,1.5h12
				c0.829,0,1.5-0.672,1.5-1.5v-13C15.499,0.67,14.828-0.001,13.999-0.001z M2.499,14.499c0,0.275-0.224,0.5-0.5,0.5
				s-0.5-0.225-0.5-0.5v-13C1.499,1.223,1.723,1,1.999,1s0.5,0.224,0.5,0.499V14.499z M14.499,14.499c0,0.275-0.224,0.5-0.5,0.5
				h-10.5V1h10.5c0.276,0,0.5,0.224,0.5,0.499V14.499z M11.999,3.999h-6c-0.276,0-0.5,0.225-0.5,0.5C5.499,4.776,5.723,5,5.999,5h6
				c0.276,0,0.5-0.224,0.5-0.501C12.499,4.223,12.275,3.999,11.999,3.999z M11.999,6.999h-6c-0.276,0-0.5,0.225-0.5,0.5
				c0,0.276,0.224,0.5,0.5,0.5h6c0.276,0,0.5-0.224,0.5-0.5C12.499,7.223,12.275,6.999,11.999,6.999z"/>
		</g>
	</g>
</g>
<g id="Layer_1">
</g>
</svg>
