<?xml version="1.0" encoding="iso-8859-1"?>
<!-- Generator: Adobe Illustrator 16.0.0, SVG Export Plug-In . SVG Version: 6.00 Build 0)  -->
<!DOCTYPE svg PUBLIC "-//W3C//DTD SVG 1.1//EN" "http://www.w3.org/Graphics/SVG/1.1/DTD/svg11.dtd">
<svg version="1.1" xmlns="http://www.w3.org/2000/svg" xmlns:xlink="http://www.w3.org/1999/xlink" x="0px" y="0px" width="16px"
	 height="16px" viewBox="0 0 16 16" style="enable-background:new 0 0 16 16;" xml:space="preserve">
<g id="doc-attachment" style="enable-background:new    ;">
	<g id="doc-attachment_2_">
		<g>
			<path d="M13.287,5.103l-0.713,0.705l-4.516,4.46L6.152,12.15c-1.183,1.168-3.099,1.167-4.281,0c-1.183-1.169-1.183-3.062,0-4.229
				l1.906-1.883l1.662-1.642L6.7,3.151l0.166-0.163l0.713-0.705l0.714-0.705L8.294,1.58c0.007-0.008,0.013-0.016,0.021-0.023
				c0.789-0.778,2.066-0.778,2.853,0c0.789,0.778,0.789,2.041,0,2.819c-0.008,0.007-0.016,0.013-0.023,0.02l0.002,0.002
				l-0.713,0.705L9.719,5.808L9.555,5.971L8.292,7.216L7.508,7.992L6.737,8.753L5.977,9.504L4.725,10.74
				c-0.394,0.389-1.033,0.389-1.427,0s-0.394-1.021,0-1.41l0.713-0.704l0.538-0.531l0.761-0.752l0.771-0.761l1.498-1.479
				l0.736-0.727l0.691-0.683L8.292,2.988L7.799,3.476l-0.81,0.8L6.152,5.103L5.076,6.165L4.177,7.053L3.298,7.922L2.585,8.626
				l0.002,0.003c-0.765,0.779-0.76,2.023,0.02,2.794c0.78,0.771,2.04,0.775,2.83,0.021l0.002,0.002l1.592-1.572L7.93,8.984
				l2.503-2.473l0.713-0.704l0.713-0.705c1.184-1.168,1.184-3.062,0-4.229c-1.182-1.168-3.098-1.168-4.281,0L6.866,1.578
				L6.152,2.283L1.158,7.216l0.001,0.002c-1.554,1.559-1.547,4.065,0.021,5.615c1.568,1.549,4.106,1.556,5.684,0.021l0.001,0.001
				l6.421-6.343L14,5.808L13.287,5.103z"/>
		</g>
	</g>
</g>
<g id="Layer_1">
</g>
</svg>
