<?xml version="1.0" encoding="iso-8859-1"?>
<!-- Generator: Adobe Illustrator 16.0.0, SVG Export Plug-In . SVG Version: 6.00 Build 0)  -->
<!DOCTYPE svg PUBLIC "-//W3C//DTD SVG 1.1//EN" "http://www.w3.org/Graphics/SVG/1.1/DTD/svg11.dtd">
<svg version="1.1" xmlns="http://www.w3.org/2000/svg" xmlns:xlink="http://www.w3.org/1999/xlink" x="0px" y="0px" width="16px"
	 height="16px" viewBox="0 0 16 16" style="enable-background:new 0 0 16 16;" xml:space="preserve">
<g id="doc-papers" style="enable-background:new    ;">
	<g id="doc-papers_2_">
		<g>
			<path d="M1.999,2.499c-0.552,0-1,0.447-1,0.999v11c0,0.553,0.448,1.001,1,1.001h11c0.553,0,1-0.448,1-1.001h-12V2.499z
				 M5.499,4.498h4c0.275,0,0.5-0.224,0.5-0.499c0-0.277-0.225-0.501-0.5-0.501h-4c-0.276,0-0.5,0.224-0.5,0.501
				C4.999,4.274,5.223,4.498,5.499,4.498z M12.499,6.498h-7c-0.276,0-0.5,0.225-0.5,0.5c0,0.276,0.224,0.5,0.5,0.5h7
				c0.275,0,0.5-0.224,0.5-0.5C12.999,6.723,12.774,6.498,12.499,6.498z M12.499,9.498h-7c-0.276,0-0.5,0.225-0.5,0.5
				c0,0.276,0.224,0.501,0.5,0.501h7c0.275,0,0.5-0.225,0.5-0.501C12.999,9.723,12.774,9.498,12.499,9.498z M13.999,0.499h-10
				c-0.552,0-1,0.447-1,1v11c0,0.552,0.448,0.999,1,0.999h10c0.553,0,1-0.447,1-0.999v-11C14.999,0.946,14.552,0.499,13.999,0.499z
				 M13.999,11.999c0,0.275-0.225,0.5-0.5,0.5h-9c-0.276,0-0.5-0.225-0.5-0.5V1.998c0-0.275,0.224-0.499,0.5-0.499h9
				c0.275,0,0.5,0.224,0.5,0.499V11.999z"/>
		</g>
	</g>
</g>
<g id="Layer_1">
</g>
</svg>
