<?xml version="1.0" encoding="iso-8859-1"?>
<!-- Generator: Adobe Illustrator 16.0.0, SVG Export Plug-In . SVG Version: 6.00 Build 0)  -->
<!DOCTYPE svg PUBLIC "-//W3C//DTD SVG 1.1//EN" "http://www.w3.org/Graphics/SVG/1.1/DTD/svg11.dtd">
<svg version="1.1" xmlns="http://www.w3.org/2000/svg" xmlns:xlink="http://www.w3.org/1999/xlink" x="0px" y="0px" width="16px"
	 height="16px" viewBox="0 0 16 16" style="enable-background:new 0 0 16 16;" xml:space="preserve">
<g id="doc-book-d" style="enable-background:new    ;">
	<g id="doc-book-d_1_">
		<g>
			<path d="M13.999-0.001h-1h-11c-1.105,0-2,0.896-2,2v9.5v0.5v2c0,1.104,0.895,2,2,2h11h2h1v-3v-1v-10v-2H13.999z M14.999,14.999
				h-1h-1h-11c-0.552,0-1-0.448-1-1c0-0.553,0.448-1,1-1h11h1h0.723h0.277V14.999z M14.999,1.999v9.5v0.5h-2h-11
				c-0.366,0-0.705,0.105-1,0.277v-0.277v-0.5v-9.5c0-0.553,0.448-1.001,1-1.001h12h1V1.999z M12.999,1.999h-10
				c-0.553,0-1,0.447-1,1v1.999c0,0.553,0.447,1.001,1,1.001h10c0.553,0,1-0.448,1-1.001V2.999
				C13.999,2.446,13.552,1.999,12.999,1.999z M12.999,4.498c0,0.277-0.225,0.5-0.5,0.5h-9c-0.276,0-0.5-0.223-0.5-0.5V3.499
				c0-0.277,0.224-0.5,0.5-0.5h9c0.275,0,0.5,0.223,0.5,0.5V4.498z"/>
		</g>
	</g>
</g>
<g id="Layer_1">
</g>
</svg>
