<?xml version="1.0" encoding="iso-8859-1"?>
<!-- Generator: Adobe Illustrator 16.0.0, SVG Export Plug-In . SVG Version: 6.00 Build 0)  -->
<!DOCTYPE svg PUBLIC "-//W3C//DTD SVG 1.1//EN" "http://www.w3.org/Graphics/SVG/1.1/DTD/svg11.dtd">
<svg version="1.1" xmlns="http://www.w3.org/2000/svg" xmlns:xlink="http://www.w3.org/1999/xlink" x="0px" y="0px" width="16px"
	 height="16px" viewBox="0 0 16 16" style="enable-background:new 0 0 16 16;" xml:space="preserve">
<g id="doc-print" style="enable-background:new    ;">
	<g id="doc-print_2_">
		<g>
			<path d="M5.999,4.999C5.997,4.999,5.996,5,5.994,5H4.999v0.998c0,0.001,0,0.001,0,0.001l0,0.001v1h2V5H6.004
				C6.002,5,6,4.999,5.999,4.999z M2.999,4.999C2.997,4.999,2.996,5,2.994,5H1.999v0.999V6v1h2V5H3.004C3.002,5,3,4.999,2.999,4.999
				z M15.499,2.999h-3.5v-3h-8v3h-3.5c-0.276,0-0.5,0.225-0.5,0.5v9c0,0.276,0.224,0.5,0.5,0.5h3.5v3h8v-3h3.5
				c0.275,0,0.5-0.224,0.5-0.5v-9C15.999,3.224,15.774,2.999,15.499,2.999z M4.999,0.999h6v2h-6V0.999z M10.999,15h-6V9.999h6V15z
				 M14.999,11.499c0,0.276-0.225,0.5-0.5,0.5h-2.5v-3h-8v3h-2.5c-0.276,0-0.5-0.224-0.5-0.5v-7c0-0.276,0.224-0.5,0.5-0.5h13
				c0.275,0,0.5,0.224,0.5,0.5V11.499z"/>
		</g>
	</g>
</g>
<g id="Layer_1">
</g>
</svg>
