<?xml version="1.0" encoding="iso-8859-1"?>
<!-- Generator: Adobe Illustrator 16.0.0, SVG Export Plug-In . SVG Version: 6.00 Build 0)  -->
<!DOCTYPE svg PUBLIC "-//W3C//DTD SVG 1.1//EN" "http://www.w3.org/Graphics/SVG/1.1/DTD/svg11.dtd">
<svg version="1.1" xmlns="http://www.w3.org/2000/svg" xmlns:xlink="http://www.w3.org/1999/xlink" x="0px" y="0px" width="16px"
	 height="16px" viewBox="0 0 16 16" style="enable-background:new 0 0 16 16;" xml:space="preserve">
<g id="doc-notebook-a" style="enable-background:new    ;">
	<g id="doc-notebook-a_1_">
		<g>
			<path d="M12.999,2.999h-7c-0.553,0-1,0.447-1,1v3c0,0.552,0.447,1,1,1h7c0.553,0,1-0.448,1-1v-3
				C13.999,3.446,13.552,2.999,12.999,2.999z M12.999,6.499c0,0.276-0.225,0.5-0.5,0.5h-6c-0.276,0-0.5-0.224-0.5-0.5v-2
				c0-0.276,0.224-0.5,0.5-0.5h6c0.275,0,0.5,0.224,0.5,0.5V6.499z M13.499,11.999h-8c-0.276,0-0.5,0.224-0.5,0.5s0.224,0.5,0.5,0.5
				h8c0.275,0,0.5-0.224,0.5-0.5S13.774,11.999,13.499,11.999z M13.499,9.999h-8c-0.276,0-0.5,0.224-0.5,0.5s0.224,0.5,0.5,0.5h8
				c0.275,0,0.5-0.224,0.5-0.5S13.774,9.999,13.499,9.999z M14.999-0.001h-14c-0.552,0-1,0.447-1,1v14c0,0.553,0.448,1,1,1h14
				c0.553,0,1-0.447,1-1v-14C15.999,0.446,15.552-0.001,14.999-0.001z M2.999,2.999h-1V5h1v1.999h-1v2h1v2h-1v2h1v2h-1.5
				c-0.276,0-0.5-0.224-0.5-0.5v-13c0-0.276,0.224-0.5,0.5-0.5h1.5V2.999z M14.999,14.499c0,0.276-0.225,0.5-0.5,0.5h-10.5v-2v-2v-2
				v-2V5V2.999v-2h10.5c0.275,0,0.5,0.224,0.5,0.5V14.499z"/>
		</g>
	</g>
</g>
<g id="Layer_1">
</g>
</svg>
