<?xml version="1.0" encoding="iso-8859-1"?>
<!-- Generator: Adobe Illustrator 16.0.0, SVG Export Plug-In . SVG Version: 6.00 Build 0)  -->
<!DOCTYPE svg PUBLIC "-//W3C//DTD SVG 1.1//EN" "http://www.w3.org/Graphics/SVG/1.1/DTD/svg11.dtd">
<svg version="1.1" xmlns="http://www.w3.org/2000/svg" xmlns:xlink="http://www.w3.org/1999/xlink" x="0px" y="0px" width="16px"
	 height="16px" viewBox="0 0 16 16" style="enable-background:new 0 0 16 16;" xml:space="preserve">
<g id="doc-folder-check-a" style="enable-background:new    ;">
	<g id="doc-folder-check-a_2_">
		<g>
			<path d="M6.593,12.745c0.016,0.021,0.01,0.051,0.03,0.072c0.101,0.1,0.233,0.145,0.365,0.143
				c0.077,0.004,0.143-0.047,0.214-0.088c0.045-0.021,0.099-0.018,0.137-0.055l4.007-3.965c0.197-0.193,0.197-0.512,0-0.707
				c-0.199-0.197-0.518-0.197-0.717,0l-3.621,3.582l-1.712-1.576c-0.188-0.213-0.493-0.213-0.681,0
				c-0.188,0.213-0.188,0.559,0,0.771L6.593,12.745z M13.499,2h-5c0-1.105-0.896-2-2-2h-4c-1.104,0-2,0.895-2,2v2.999V6v8
				c0,1.104,0.896,2,2,2h11c1.104,0,2-0.896,2-2V7V6V4.999V4C15.499,2.894,14.603,2,13.499,2z M14.499,7v1.722v5.277
				c0,0.553-0.447,1-1,1h-11c-0.552,0-1-0.447-1-1V7.721V7V6h13V7z M14.499,4.999h-13V4V2.999V2c0-0.553,0.448-1,1-1h4
				c0.552,0,1,0.447,1,1v0.999h1h4h1c0.553,0,1,0.448,1,1.001V4.999z"/>
		</g>
	</g>
</g>
<g id="Layer_1">
</g>
</svg>
