<?xml version="1.0" encoding="iso-8859-1"?>
<!-- Generator: Adobe Illustrator 16.0.0, SVG Export Plug-In . SVG Version: 6.00 Build 0)  -->
<!DOCTYPE svg PUBLIC "-//W3C//DTD SVG 1.1//EN" "http://www.w3.org/Graphics/SVG/1.1/DTD/svg11.dtd">
<svg version="1.1" xmlns="http://www.w3.org/2000/svg" xmlns:xlink="http://www.w3.org/1999/xlink" x="0px" y="0px" width="16px"
	 height="16px" viewBox="0 0 16 16" style="enable-background:new 0 0 16 16;" xml:space="preserve">
<g id="doc-binder-three" style="enable-background:new    ;">
	<g id="doc-binder-three_1_">
		<g>
			<path d="M11.499,7.999h-7c-0.276,0-0.5,0.225-0.5,0.5C3.999,8.775,4.223,9,4.499,9h7c0.276,0,0.5-0.225,0.5-0.501
				C11.999,8.224,11.775,7.999,11.499,7.999z M11.499,10.999h-7c-0.276,0-0.5,0.225-0.5,0.501c0,0.275,0.224,0.5,0.5,0.5h7
				c0.276,0,0.5-0.225,0.5-0.5C11.999,11.224,11.775,10.999,11.499,10.999z M11.499,5h-7c-0.276,0-0.5,0.224-0.5,0.5
				S4.223,6,4.499,6h7c0.276,0,0.5-0.224,0.5-0.5S11.775,5,11.499,5z M13.999-0.001h-12c-1.104,0-2,0.896-2,2v12
				c0,1.105,0.896,2,2,2h12c1.104,0,2-0.895,2-2v-12C15.999,0.895,15.104-0.001,13.999-0.001z M14.999,13.999c0,0.553-0.447,1-1,1
				h-12c-0.552,0-1-0.447-1-1v-12c0-0.552,0.448-1,1-1h12c0.553,0,1,0.448,1,1V13.999z"/>
		</g>
	</g>
</g>
<g id="Layer_1">
</g>
</svg>
