<?xml version="1.0" encoding="iso-8859-1"?>
<!-- Generator: Adobe Illustrator 16.0.0, SVG Export Plug-In . SVG Version: 6.00 Build 0)  -->
<!DOCTYPE svg PUBLIC "-//W3C//DTD SVG 1.1//EN" "http://www.w3.org/Graphics/SVG/1.1/DTD/svg11.dtd">
<svg version="1.1" xmlns="http://www.w3.org/2000/svg" xmlns:xlink="http://www.w3.org/1999/xlink" x="0px" y="0px" width="16px"
	 height="16px" viewBox="0 0 16 16" style="enable-background:new 0 0 16 16;" xml:space="preserve">
<g id="doc-newspaper-b" style="enable-background:new    ;">
	<g id="doc-newspaper-b_2_">
		<g>
			<path d="M13.999,13h-8v1h8V13z M13.999,2h-8v0.999h8V2z M3.999,0v7h-4v7c0,1.103,0.897,1.999,2,1.999h0.5h1h1h9.5
				c1.104,0,2-0.896,2-1.999V-0.001L3.999,0z M3.999,13.001V14v1.001h-2V15c-0.552,0-1-0.449-1-1V7.999l3,0.001V13.001z M14.999,14
				c0,0.551-0.449,1-1,1h-9V1l10-0.001V14z M13.999,3.999h-8v6h8V3.999z M12.995,9.002H7.002V4.996h5.993V9.002z M13.999,10.999h-8
				V12h8V10.999z"/>
		</g>
	</g>
</g>
<g id="Layer_1">
</g>
</svg>
