<?xml version="1.0" encoding="iso-8859-1"?>
<!-- Generator: Adobe Illustrator 16.0.0, SVG Export Plug-In . SVG Version: 6.00 Build 0)  -->
<!DOCTYPE svg PUBLIC "-//W3C//DTD SVG 1.1//EN" "http://www.w3.org/Graphics/SVG/1.1/DTD/svg11.dtd">
<svg version="1.1" xmlns="http://www.w3.org/2000/svg" xmlns:xlink="http://www.w3.org/1999/xlink" x="0px" y="0px" width="16px"
	 height="16px" viewBox="0 0 16 16" style="enable-background:new 0 0 16 16;" xml:space="preserve">
<g id="doc-file-line" style="enable-background:new    ;">
	<g id="doc-file-line_1_">
		<g>
			<path d="M10.999,6.998h-6c-0.276,0-0.5,0.224-0.5,0.501c0,0.275,0.224,0.499,0.5,0.499h6c0.275,0,0.5-0.224,0.5-0.499
				C11.499,7.221,11.274,6.998,10.999,6.998z M10.999,3.998h-6c-0.276,0-0.5,0.224-0.5,0.5s0.224,0.501,0.5,0.501h6
				c0.275,0,0.5-0.225,0.5-0.501S11.274,3.998,10.999,3.998z M14.499,0.498c0-0.276-0.225-0.499-0.5-0.499h-12
				c-0.276,0-0.5,0.223-0.5,0.499v15c0,0.277,0.224,0.5,0.5,0.5h8.498l0.002,0.002l4-4l-0.002-0.002h0.002V0.498z M10.499,14.765
				v-2.768h2.768L10.499,14.765z M13.499,10.997h-3h-1v1v3h-6.5c-0.276,0-0.5-0.223-0.5-0.498V1.498c0-0.275,0.224-0.5,0.5-0.5h10
				c0.275,0,0.5,0.225,0.5,0.5V10.997z"/>
		</g>
	</g>
</g>
<g id="Layer_1">
</g>
</svg>
