<?xml version="1.0" encoding="iso-8859-1"?>
<!-- Generator: Adobe Illustrator 16.0.0, SVG Export Plug-In . SVG Version: 6.00 Build 0)  -->
<!DOCTYPE svg PUBLIC "-//W3C//DTD SVG 1.1//EN" "http://www.w3.org/Graphics/SVG/1.1/DTD/svg11.dtd">
<svg version="1.1" xmlns="http://www.w3.org/2000/svg" xmlns:xlink="http://www.w3.org/1999/xlink" x="0px" y="0px" width="16px"
	 height="16px" viewBox="0 0 16 16" style="enable-background:new 0 0 16 16;" xml:space="preserve">
<g id="doc-folder-sync" style="enable-background:new    ;">
	<g id="doc-folder-sync_1_">
		<g>
			<path d="M4.183,8.878C4.17,8.919,4.151,8.958,4.14,8.999h0.359h0.684h1.316c0.276,0,0.5-0.225,0.5-0.5s-0.224-0.5-0.5-0.5H5.813
				c0.545-0.601,1.309-1,2.186-1c1.486,0,2.711,1.083,2.949,2.5h1c-0.248-1.97-1.912-3.5-3.949-3.5c-1.217,0-2.273,0.567-3,1.428
				V6.499c0-0.275-0.224-0.5-0.5-0.5c-0.276,0-0.5,0.225-0.5,0.5v2c0,0.076,0.02,0.146,0.05,0.211
				c0.002,0.002,0.004,0.006,0.006,0.008C4.086,8.78,4.13,8.833,4.183,8.878z M14.999,1.999h-8V1c0-0.553-0.448-1-1-1h-5
				c-0.552,0-1,0.447-1,1v1.999v1v1v10c0,0.553,0.448,1,1,1h14c0.553,0,1-0.447,1-1v-10v-2C15.999,2.447,15.552,1.999,14.999,1.999z
				 M14.999,5.5v0.499v8.5c0,0.275-0.225,0.5-0.5,0.5h-13c-0.276,0-0.5-0.225-0.5-0.5v-8.5V5.5V4.999h0.5h13h0.5V5.5z M14.499,3.999
				h-1h-12.5v-1v-0.5v-0.5v-0.5C0.999,1.223,1.223,1,1.499,1h4c0.276,0,0.5,0.224,0.5,0.499v0.5v0.5v0.5h7.5h1
				c0.275,0,0.5,0.225,0.5,0.5C14.999,3.775,14.774,3.999,14.499,3.999z M11.942,11.28c-0.031-0.063-0.074-0.115-0.127-0.16
				c0.012-0.041,0.031-0.08,0.041-0.121h-0.357h-0.684H9.499c-0.277,0-0.5,0.225-0.5,0.5s0.223,0.5,0.5,0.5h0.686
				c-0.547,0.602-1.309,1-2.186,1c-1.486,0-2.71-1.082-2.95-2.5h-1c0.249,1.971,1.912,3.5,3.95,3.5c1.217,0,2.273-0.568,3-1.428
				v0.928c0,0.275,0.225,0.5,0.5,0.5s0.5-0.225,0.5-0.5v-2c0-0.076-0.02-0.146-0.051-0.211
				C11.946,11.284,11.944,11.282,11.942,11.28z"/>
		</g>
	</g>
</g>
<g id="Layer_1">
</g>
</svg>
