<?xml version="1.0" encoding="iso-8859-1"?>
<!-- Generator: Adobe Illustrator 16.0.0, SVG Export Plug-In . SVG Version: 6.00 Build 0)  -->
<!DOCTYPE svg PUBLIC "-//W3C//DTD SVG 1.1//EN" "http://www.w3.org/Graphics/SVG/1.1/DTD/svg11.dtd">
<svg version="1.1" xmlns="http://www.w3.org/2000/svg" xmlns:xlink="http://www.w3.org/1999/xlink" x="0px" y="0px" width="16px"
	 height="16px" viewBox="0 0 16 16" style="enable-background:new 0 0 16 16;" xml:space="preserve">
<g id="doc-book-b" style="enable-background:new    ;">
	<g id="doc-book-b_2_">
		<g>
			<path d="M9.499,4.499h2V3.5h-2V4.499z M9.499,10.499h2v-1h-2V10.499z M9.499,6.5h2V5.499h-2V6.5z M9.499,8.499h2v-1h-2V8.499z
				 M6.499,9.499h-2v1h2V9.499z M14.499,1.499h-1c0-0.552-0.447-1-1-1h-9c-0.552,0-1,0.448-1,1h-1c-0.552,0-1,0.448-1,1v12
				c0,0.553,0.448,1,1,1h13c0.553,0,1-0.447,1-1v-12C15.499,1.947,15.052,1.499,14.499,1.499z M8.499,1.499h3.5
				c0.275,0,0.5,0.225,0.5,0.501v10c0,0.275-0.225,0.5-0.5,0.5h-3.5V1.499z M3.499,2c0-0.276,0.224-0.501,0.5-0.501h3.5v11h-3.5
				c-0.276,0-0.5-0.225-0.5-0.5V2z M14.499,13.999c0,0.275-0.225,0.5-0.5,0.5h-12c-0.276,0-0.5-0.225-0.5-0.5v-11
				c0-0.276,0.224-0.5,0.5-0.5h0.5v10c0,0.553,0.448,1,1,1h9c0.553,0,1-0.447,1-1v-10h0.5c0.275,0,0.5,0.224,0.5,0.5V13.999z
				 M6.499,7.499h-2v1h2V7.499z M6.499,5.499h-2V6.5h2V5.499z M6.499,3.5h-2v0.999h2V3.5z"/>
		</g>
	</g>
</g>
<g id="Layer_1">
</g>
</svg>
