<?xml version="1.0" encoding="iso-8859-1"?>
<!-- Generator: Adobe Illustrator 16.0.0, SVG Export Plug-In . SVG Version: 6.00 Build 0)  -->
<!DOCTYPE svg PUBLIC "-//W3C//DTD SVG 1.1//EN" "http://www.w3.org/Graphics/SVG/1.1/DTD/svg11.dtd">
<svg version="1.1" xmlns="http://www.w3.org/2000/svg" xmlns:xlink="http://www.w3.org/1999/xlink" x="0px" y="0px" width="16px"
	 height="16px" viewBox="0 0 16 16" style="enable-background:new 0 0 16 16;" xml:space="preserve">
<g id="doc-folder-cross" style="enable-background:new    ;">
	<g id="doc-folder-cross_2_">
		<g>
			<path d="M14.999,1.999h-8V1c0-0.553-0.447-1-1-1h-5c-0.553,0-1,0.447-1,1v1.999v1v1v10c0,0.553,0.447,1,1,1h14
				c0.553,0,1-0.447,1-1v-10v-2C15.999,2.447,15.552,1.999,14.999,1.999z M14.999,5.5v0.499v8.5c0,0.275-0.225,0.5-0.5,0.5h-13
				c-0.276,0-0.5-0.225-0.5-0.5v-8.5V5.5V4.999h0.5h13h0.5V5.5z M14.499,3.999h-1h-12.5v-1v-0.5v-0.5v-0.5
				C0.999,1.223,1.223,1,1.499,1h4c0.276,0,0.5,0.224,0.5,0.499v0.5v0.5v0.5h7.5h1c0.275,0,0.5,0.225,0.5,0.5
				C14.999,3.775,14.774,3.999,14.499,3.999z M10.841,7.14c-0.195-0.196-0.516-0.196-0.711,0L7.991,9.278L5.853,7.14
				c-0.197-0.196-0.516-0.196-0.713,0s-0.197,0.517,0,0.712l2.138,2.139L5.14,12.13c-0.197,0.195-0.197,0.516,0,0.711
				c0.197,0.197,0.516,0.197,0.713,0l2.138-2.137l2.139,2.137c0.195,0.197,0.516,0.197,0.711,0c0.197-0.195,0.197-0.516,0-0.711
				L8.704,9.991l2.137-2.139C11.038,7.657,11.038,7.336,10.841,7.14z"/>
		</g>
	</g>
</g>
<g id="Layer_1">
</g>
</svg>
