<?xml version="1.0" encoding="iso-8859-1"?>
<!-- Generator: Adobe Illustrator 16.0.0, SVG Export Plug-In . SVG Version: 6.00 Build 0)  -->
<!DOCTYPE svg PUBLIC "-//W3C//DTD SVG 1.1//EN" "http://www.w3.org/Graphics/SVG/1.1/DTD/svg11.dtd">
<svg version="1.1" xmlns="http://www.w3.org/2000/svg" xmlns:xlink="http://www.w3.org/1999/xlink" x="0px" y="0px" width="16px"
	 height="16px" viewBox="0 0 16 16" style="enable-background:new 0 0 16 16;" xml:space="preserve">
<g id="doc-newspaper" style="enable-background:new    ;">
	<g id="doc-newspaper_1_">
		<g>
			<path d="M4.999,7.999h9v-1h-9V7.999z M4.999,10.999h9v-1h-9V10.999z M4.999,4.999h9V4h-9V4.999z M14.499,0h-10
				c-0.829,0-1.5,0.671-1.5,1.499V4h-1.5c-0.828,0-1.5,0.671-1.5,1.5v9c0,0.828,0.671,1.5,1.5,1.5h13c0.828,0,1.5-0.672,1.5-1.5v-13
				C15.999,0.67,15.327,0,14.499,0z M14.999,14.499c0,0.275-0.225,0.5-0.5,0.5h-13c-0.276,0-0.5-0.225-0.5-0.5v-9
				c0-0.276,0.224-0.501,0.5-0.501h1.5v9h1v-12.5C3.999,1.222,4.223,1,4.499,1h10c0.275,0,0.5,0.223,0.5,0.499V14.499z"/>
		</g>
	</g>
</g>
<g id="Layer_1">
</g>
</svg>
