<?xml version="1.0" encoding="iso-8859-1"?>
<!-- Generator: Adobe Illustrator 16.0.0, SVG Export Plug-In . SVG Version: 6.00 Build 0)  -->
<!DOCTYPE svg PUBLIC "-//W3C//DTD SVG 1.1//EN" "http://www.w3.org/Graphics/SVG/1.1/DTD/svg11.dtd">
<svg version="1.1" xmlns="http://www.w3.org/2000/svg" xmlns:xlink="http://www.w3.org/1999/xlink" x="0px" y="0px" width="16px"
	 height="16px" viewBox="0 0 16 16" style="enable-background:new 0 0 16 16;" xml:space="preserve">
<g id="doc-analytic-bar" style="enable-background:new    ;">
	<g id="doc-analytic-bar_1_">
		<g>
			<path d="M4.999,6.997c-0.276,0-0.5,0.225-0.5,0.5v2c0,0.276,0.224,0.5,0.5,0.5c0.276,0,0.5-0.224,0.5-0.5v-2
				C5.499,7.221,5.275,6.997,4.999,6.997z M8.004,2.999h-0.01C7.72,3.001,7.499,3.222,7.499,3.497v6c0,0.276,0.224,0.5,0.5,0.5
				c0.275,0,0.5-0.224,0.5-0.5v-6C8.499,3.222,8.278,3.001,8.004,2.999z M10.999,4.497c-0.275,0-0.5,0.225-0.5,0.5v4.5
				c0,0.276,0.225,0.5,0.5,0.5s0.5-0.224,0.5-0.5v-4.5C11.499,4.721,11.274,4.497,10.999,4.497z M14.999,0.998h-1.5h-11h-1.5
				c-0.276,0-0.5,0.224-0.5,0.499c0,0.276,0.224,0.5,0.5,0.5h0.5v9c0,0.553,0.448,1,1,1h3.819l-1.245,2.291
				c-0.153,0.228-0.063,0.519,0.204,0.649c0.266,0.131,0.605,0.054,0.759-0.174l1.389-2.558c0.045-0.066,0.063-0.138,0.068-0.209
				h1.013c0.006,0.071,0.023,0.143,0.068,0.209l1.389,2.558c0.154,0.228,0.494,0.305,0.76,0.174s0.355-0.422,0.203-0.649
				l-1.244-2.291h3.818c0.553,0,1-0.447,1-1v-9h0.5c0.275,0,0.5-0.224,0.5-0.5C15.499,1.221,15.274,0.998,14.999,0.998z
				 M13.499,2.999v7.498c0,0.276-0.225,0.5-0.5,0.5h-10c-0.276,0-0.5-0.224-0.5-0.5V2.498c0-0.001,0-0.001,0-0.001V1.998h0.495
				c0.002,0,0.003-0.001,0.005-0.001h10c0.002,0,0.004,0.001,0.006,0.001h0.494V2.999z"/>
		</g>
	</g>
</g>
<g id="Layer_1">
</g>
</svg>
