<?xml version="1.0" encoding="iso-8859-1"?>
<!-- Generator: Adobe Illustrator 16.0.0, SVG Export Plug-In . SVG Version: 6.00 Build 0)  -->
<!DOCTYPE svg PUBLIC "-//W3C//DTD SVG 1.1//EN" "http://www.w3.org/Graphics/SVG/1.1/DTD/svg11.dtd">
<svg version="1.1" xmlns="http://www.w3.org/2000/svg" xmlns:xlink="http://www.w3.org/1999/xlink" x="0px" y="0px" width="16px"
	 height="16px" viewBox="0 0 16 16" style="enable-background:new 0 0 16 16;" xml:space="preserve">
<g id="doc-folder-s" style="enable-background:new    ;">
	<g id="doc-folder-s_1_">
		<g>
			<path d="M15.978,4.892c-0.004-0.017-0.004-0.029-0.01-0.045c-0.035-0.109-0.107-0.198-0.201-0.26
				c-0.008-0.005-0.008-0.017-0.016-0.021c-0.01-0.006-0.02-0.005-0.029-0.01c-0.033-0.017-0.068-0.025-0.104-0.034
				c-0.027-0.007-0.053-0.015-0.08-0.017C15.524,4.505,15.513,4.5,15.499,4.5h-1.5V1.499c0-0.552-0.447-1-1-1h-12
				c-0.552,0-1,0.448-1,1v13c0,0.109,0.026,0.806,0.249,0.933c0.147,0.083,0.647,0.067,0.751,0.067h11l3.932-10.261
				c0.039-0.072,0.068-0.151,0.068-0.239C15.999,4.96,15.985,4.927,15.978,4.892z M0.999,1.999c0-0.276,0.224-0.5,0.5-0.5h11
				c0.275,0,0.5,0.224,0.5,0.5V4.5h-8.5C4.47,4.5,4.445,4.51,4.418,4.515C4.396,4.519,4.374,4.522,4.352,4.529
				C4.309,4.542,4.271,4.562,4.234,4.585c-0.017,0.011-0.032,0.02-0.048,0.032C4.15,4.647,4.122,4.681,4.095,4.72
				C4.087,4.731,4.077,4.737,4.07,4.749L4.061,4.771c-0.014,0.025-0.023,0.052-0.032,0.08l-3.03,7.581V1.999z M11.173,14.499H1.499
				c-0.09,0-0.169-0.03-0.242-0.071l3.569-8.929h9.945L11.173,14.499z"/>
		</g>
	</g>
</g>
<g id="Layer_1">
</g>
</svg>
