<?xml version="1.0" encoding="iso-8859-1"?>
<!-- Generator: Adobe Illustrator 16.0.0, SVG Export Plug-In . SVG Version: 6.00 Build 0)  -->
<!DOCTYPE svg PUBLIC "-//W3C//DTD SVG 1.1//EN" "http://www.w3.org/Graphics/SVG/1.1/DTD/svg11.dtd">
<svg version="1.1" xmlns="http://www.w3.org/2000/svg" xmlns:xlink="http://www.w3.org/1999/xlink" x="0px" y="0px" width="16px"
	 height="16px" viewBox="0 0 16 16" style="enable-background:new 0 0 16 16;" xml:space="preserve">
<g id="doc-pie-b" style="enable-background:new    ;">
	<g id="doc-pie-b_1_">
		<g>
			<path d="M15.999,8.752c0-4.556-3.693-8.749-8.25-8.749c-0.775,0-0.755-0.015-1.73,0h-0.02v1v1c-3.143,0.688-6,3.65-6,7v0.999H0.1
				c0.489,3.389,3.376,6,6.899,6c1.918,0,3.646-0.783,4.908-2.034l0.854,0.41l0.613,0.396c0.205-0.189,0.398-0.391,0.582-0.601
				l0.045-0.016l-0.021-0.014C15.233,12.698,15.999,10.817,15.999,8.752z M5.999,3.004v5.999h-5C0.999,6.208,3.412,3.67,5.999,3.004
				z M6.999,15.002c-2.971,0-5.421-2.165-5.899-5h4.899v0.002l5.047,3.409C9.979,14.395,8.563,15.002,6.999,15.002z M13.128,13.597
				l-0.568-0.365l-0.844-0.542L6.999,9.254V1.003c0.197,0,0.384-0.001,0.75-0.001c4.004,0,7.25,3.746,7.25,7.75
				C14.999,10.619,14.286,12.313,13.128,13.597z"/>
		</g>
	</g>
</g>
<g id="Layer_1">
</g>
</svg>
