<?xml version="1.0" encoding="iso-8859-1"?>
<!-- Generator: Adobe Illustrator 16.0.0, SVG Export Plug-In . SVG Version: 6.00 Build 0)  -->
<!DOCTYPE svg PUBLIC "-//W3C//DTD SVG 1.1//EN" "http://www.w3.org/Graphics/SVG/1.1/DTD/svg11.dtd">
<svg version="1.1" xmlns="http://www.w3.org/2000/svg" xmlns:xlink="http://www.w3.org/1999/xlink" x="0px" y="0px" width="16px"
	 height="16px" viewBox="0 0 16 16" style="enable-background:new 0 0 16 16;" xml:space="preserve">
<g id="doc-book" style="enable-background:new    ;">
	<g id="doc-book_2_">
		<g>
			<path d="M9.999,5.5c0,0,1-0.501,2-0.501s1.5,0.501,1.5,0.501V4.499c0,0-0.563-0.5-1.594-0.5c-0.968,0-1.906,0.5-1.906,0.5V5.5z
				 M2.499,7.499v1c0,0,0.5-0.5,1.5-0.5s2,0.5,2,0.5v-1c0,0-1.063-0.5-2.094-0.5C2.938,6.999,2.499,7.499,2.499,7.499z
				 M2.499,10.499v1c0,0,0.5-0.5,1.5-0.5s2,0.5,2,0.5v-1c0,0-1.063-0.5-2.094-0.5C2.938,9.999,2.499,10.499,2.499,10.499z
				 M2.499,4.499V5.5c0,0,0.5-0.501,1.5-0.501s2,0.501,2,0.501V4.499c0,0-1.063-0.5-2.094-0.5C2.938,3.999,2.499,4.499,2.499,4.499z
				 M9.999,7.499v1c0,0,1-0.5,2-0.5s1.5,0.5,1.5,0.5v-1c0,0-0.563-0.5-1.594-0.5C10.938,6.999,9.999,7.499,9.999,7.499z
				 M9.999,10.499v1c0,0,1-0.5,2-0.5s1.5,0.5,1.5,0.5v-1c0,0-0.563-0.5-1.594-0.5C10.938,9.999,9.999,10.499,9.999,10.499z
				 M11.53,0.499C9.698,0.499,7.999,1.5,7.999,1.5S6.3,0.499,4.468,0.499C2.324,0.499,0.499,1.5,0.499,1.5v14c0,0,1.894-1,4.063-1
				c1.796,0,3.438,1,3.438,1s1.642-1,3.438-1c2.169,0,4.063,1,4.063,1v-14C15.499,1.5,13.674,0.499,11.53,0.499z M7.499,13.876
				c-0.649-0.148-1.845-0.377-3.047-0.377c-1.734,0-2.953,0.5-2.953,0.5v-11.5c0,0,1.25-0.999,3-0.999c1.187,0,2.358,0.454,3,0.751
				V13.876z M14.499,13.999c0,0-1.219-0.5-2.953-0.5c-1.202,0-2.397,0.229-3.047,0.377V2.25c0.642-0.297,1.814-0.751,3-0.751
				c1.75,0,3,0.999,3,0.999V13.999z"/>
		</g>
	</g>
</g>
<g id="Layer_1">
</g>
</svg>
