<?xml version="1.0" encoding="iso-8859-1"?>
<!-- Generator: Adobe Illustrator 16.0.0, SVG Export Plug-In . SVG Version: 6.00 Build 0)  -->
<!DOCTYPE svg PUBLIC "-//W3C//DTD SVG 1.1//EN" "http://www.w3.org/Graphics/SVG/1.1/DTD/svg11.dtd">
<svg version="1.1" xmlns="http://www.w3.org/2000/svg" xmlns:xlink="http://www.w3.org/1999/xlink" x="0px" y="0px" width="16px"
	 height="16px" viewBox="0 0 16 16" style="enable-background:new 0 0 16 16;" xml:space="preserve">
<g id="doc-box" style="enable-background:new    ;">
	<g id="doc-box_1_">
		<g>
			<path d="M14.999,0.499h-14c-0.552,0-1,0.447-1,1v4c0,0.552,0.448,1,1,1v7.999c0,0.553,0.448,1.001,1,1.001h12
				c0.553,0,1-0.448,1-1.001V6.499c0.553,0,1-0.448,1-1v-4C15.999,0.946,15.552,0.499,14.999,0.499z M13.999,13.998
				c0,0.276-0.225,0.5-0.5,0.5h-11c-0.276,0-0.5-0.224-0.5-0.5v-7c0-0.275,0.224-0.499,0.5-0.499h2.5v1.999
				c0,0.553,0.448,1.001,1,1.001h4c0.553,0,1-0.448,1-1.001V6.499h2.5c0.275,0,0.5,0.224,0.5,0.499V13.998z M5.999,7.999V7.498v-0.5
				V6.499h0.5h3h0.5v0.499v0.5v0.501c0,0.275-0.225,0.499-0.5,0.499h-3C6.223,8.498,5.999,8.274,5.999,7.999z M14.999,4.999
				c0,0.275-0.225,0.5-0.5,0.5h-4.5h-4h-4.5c-0.276,0-0.5-0.225-0.5-0.5V1.998c0-0.275,0.224-0.499,0.5-0.499h13
				c0.275,0,0.5,0.224,0.5,0.499V4.999z"/>
		</g>
	</g>
</g>
<g id="Layer_1">
</g>
</svg>
