<?xml version="1.0" encoding="iso-8859-1"?>
<!-- Generator: Adobe Illustrator 16.0.0, SVG Export Plug-In . SVG Version: 6.00 Build 0)  -->
<!DOCTYPE svg PUBLIC "-//W3C//DTD SVG 1.1//EN" "http://www.w3.org/Graphics/SVG/1.1/DTD/svg11.dtd">
<svg version="1.1" xmlns="http://www.w3.org/2000/svg" xmlns:xlink="http://www.w3.org/1999/xlink" x="0px" y="0px" width="16px"
	 height="16px" viewBox="0 0 16 16" style="enable-background:new 0 0 16 16;" xml:space="preserve">
<g id="doc-photo-stack" style="enable-background:new    ;">
	<g id="doc-photo-stack_2_">
		<g>
			<path d="M1.005,13.999v-11H0.006v11c0,1.104,0.95,2,2.123,2H13.99v-1H2.076C1.484,14.999,1.005,14.552,1.005,13.999z M14.992,0
				H3.003C2.452,0,2.004,0.448,2.004,0.999v12c0,0.553,0.447,1,0.999,1h11.989c0.552,0,0.999-0.447,0.999-1v-12
				C15.991,0.448,15.544,0,14.992,0z M14.992,12.499c0,0.275-0.224,0.5-0.499,0.5H3.503c-0.276,0-0.5-0.225-0.5-0.5v-11
				c0-0.276,0.224-0.5,0.5-0.5h10.99c0.275,0,0.499,0.224,0.499,0.5V12.499z M13.494,1.999H4.502c-0.276,0-0.5,0.225-0.5,0.5v8
				c0,0.275,0.224,0.5,0.5,0.5h8.992c0.275,0,0.499-0.225,0.499-0.5v-8C13.993,2.223,13.77,1.999,13.494,1.999z M12.994,9.499
				c0,0.275-0.224,0.5-0.499,0.5H5.501c-0.276,0-0.5-0.225-0.5-0.5v-6C5.001,3.222,5.225,3,5.501,3h6.994
				c0.275,0,0.499,0.223,0.499,0.499V9.499z"/>
		</g>
	</g>
</g>
<g id="Layer_1">
</g>
</svg>
