<?xml version="1.0" encoding="iso-8859-1"?>
<!-- Generator: Adobe Illustrator 16.0.0, SVG Export Plug-In . SVG Version: 6.00 Build 0)  -->
<!DOCTYPE svg PUBLIC "-//W3C//DTD SVG 1.1//EN" "http://www.w3.org/Graphics/SVG/1.1/DTD/svg11.dtd">
<svg version="1.1" xmlns="http://www.w3.org/2000/svg" xmlns:xlink="http://www.w3.org/1999/xlink" x="0px" y="0px" width="16px"
	 height="16px" viewBox="0 0 16 16" style="enable-background:new 0 0 16 16;" xml:space="preserve">
<g id="doc-wboard-tick" style="enable-background:new    ;">
	<g id="doc-wboard-tick_1_">
		<g>
			<path d="M11.499,1.999V1h-1.5c0-0.553-0.447-1.001-1-1.001h-2c-0.553,0-1,0.448-1,1.001h-1.5v0.999h-3.5v14h14v-14H11.499z
				 M5.499,1.999h1.5V1.5c0-0.277,0.224-0.5,0.5-0.5h1c0.275,0,0.5,0.223,0.5,0.5v0.499h1.5v2h-2h-1h-2V1.999z M13.999,15h-12V2.999
				h2.5v2h7v-2h2.5V15z M11.118,7.142l-3.686,4.612L5.82,10.142c-0.188-0.188-0.492-0.188-0.679,0s-0.188,0.491,0,0.68l1.986,1.984
				c0.009,0.011,0.005,0.025,0.015,0.035c0.009,0.01,0.024,0.006,0.035,0.015l0.001,0.001c0.188,0.188,0.491,0.188,0.679,0
				c0.004-0.004,0.002-0.011,0.006-0.015c0-0.001,0.001-0.001,0.001-0.001l3.977-4.977c0.199-0.199,0.199-0.522,0-0.723
				C11.642,6.942,11.317,6.942,11.118,7.142z"/>
		</g>
	</g>
</g>
<g id="Layer_1">
</g>
</svg>
