<?xml version="1.0" encoding="iso-8859-1"?>
<!-- Generator: Adobe Illustrator 16.0.0, SVG Export Plug-In . SVG Version: 6.00 Build 0)  -->
<!DOCTYPE svg PUBLIC "-//W3C//DTD SVG 1.1//EN" "http://www.w3.org/Graphics/SVG/1.1/DTD/svg11.dtd">
<svg version="1.1" xmlns="http://www.w3.org/2000/svg" xmlns:xlink="http://www.w3.org/1999/xlink" x="0px" y="0px" width="16px"
	 height="16px" viewBox="0 0 16 16" style="enable-background:new 0 0 16 16;" xml:space="preserve">
<g id="doc-pie" style="enable-background:new    ;">
	<g id="doc-pie_1_">
		<g>
			<path d="M7.499,0c-0.513,0-1.012,0.053-1.5,0.14V1v0.15V2.1c-3.388,0.488-6,3.375-6,6.899c0,3.865,3.134,7,7,7
				c1.918,0,3.633-0.795,4.895-2.045l0.357,0.25l0.15-0.039c-0.021,0.018-0.041,0.041-0.064,0.059l0.857,0.572
				c1.719-1.555,2.805-3.797,2.805-6.297C15.999,3.804,12.192,0,7.499,0z M6.999,14.999c-3.314,0-6-2.686-6-6
				c0-2.971,2.165-5.42,5-5.899v6.725l-0.01,0.014l0.01,0.006v0.154H6.22l4.846,3.379C9.995,14.372,8.577,14.999,6.999,14.999z
				 M13.069,13.503l-6.07-4.229V2.999V2v-0.95c0.168-0.012,0.329-0.051,0.5-0.051c4.143,0,7.5,3.358,7.5,7.5
				C14.999,10.427,14.265,12.177,13.069,13.503z"/>
		</g>
	</g>
</g>
<g id="Layer_1">
</g>
</svg>
