<?xml version="1.0" encoding="iso-8859-1"?>
<!-- Generator: Adobe Illustrator 16.0.0, SVG Export Plug-In . SVG Version: 6.00 Build 0)  -->
<!DOCTYPE svg PUBLIC "-//W3C//DTD SVG 1.1//EN" "http://www.w3.org/Graphics/SVG/1.1/DTD/svg11.dtd">
<svg version="1.1" xmlns="http://www.w3.org/2000/svg" xmlns:xlink="http://www.w3.org/1999/xlink" x="0px" y="0px" width="16px"
	 height="16px" viewBox="0 0 16 16" style="enable-background:new 0 0 16 16;" xml:space="preserve">
<g id="ecommerce-safebox" style="enable-background:new    ;">
	<g id="ecommerce-safebox_1_">
		<g>
			<path d="M13.999-0.001h-12c-1.105,0-2,0.896-2,2v3h1v-3c0-0.552,0.448-1,1-1h12c0.553,0,1,0.448,1,1v12c0,0.553-0.447,1-1,1h-12
				c-0.552,0-1-0.447-1-1v-3h-1v3c0,1.104,0.895,2,2,2h12c1.104,0,2-0.896,2-2v-12C15.999,0.895,15.103-0.001,13.999-0.001z
				 M7.999,11.999c2.209,0,4-1.791,4-4s-1.791-4-4-4c-2.209,0-4,1.791-4,4S5.79,11.999,7.999,11.999z M7.999,4.999
				c1.656,0,3,1.344,3,3c0,1.657-1.344,3-3,3c-1.657,0-3-1.343-3-3C4.999,6.343,6.342,4.999,7.999,4.999z M0.999,6.999h-1v2h1V6.999
				z M12.999,13.999c0.553,0,1-0.447,1-1V3c0-0.554-0.447-1.001-1-1.001h-10c-0.552,0-1,0.447-1,1.001v9.999c0,0.553,0.448,1,1,1
				H12.999z M2.999,3.499C2.999,3.223,3.223,3,3.499,3h9c0.275,0,0.5,0.223,0.5,0.499v9c0,0.276-0.225,0.5-0.5,0.5h-9
				c-0.276,0-0.5-0.224-0.5-0.5V3.499z"/>
		</g>
	</g>
</g>
<g id="Layer_1">
</g>
</svg>
