<?xml version="1.0" encoding="iso-8859-1"?>
<!-- Generator: Adobe Illustrator 16.0.0, SVG Export Plug-In . SVG Version: 6.00 Build 0)  -->
<!DOCTYPE svg PUBLIC "-//W3C//DTD SVG 1.1//EN" "http://www.w3.org/Graphics/SVG/1.1/DTD/svg11.dtd">
<svg version="1.1" xmlns="http://www.w3.org/2000/svg" xmlns:xlink="http://www.w3.org/1999/xlink" x="0px" y="0px" width="16px"
	 height="16px" viewBox="0 0 16 16" style="enable-background:new 0 0 16 16;" xml:space="preserve">
<g id="ecommerce-backpack-a" style="enable-background:new    ;">
	<g id="ecommerce-backpack-a_1_">
		<g>
			<path d="M14.985,10.435c-0.002-0.037-0.012-0.072-0.021-0.109c-0.004-0.009-0.006-0.019-0.01-0.027
				c-0.01-0.038-0.016-0.076-0.035-0.112l-0.92-2.637V4.5c0-0.04-0.014-0.074-0.023-0.111c0-0.003,0.002-0.007,0-0.01l-0.002-0.004
				c-0.014-0.049-0.031-0.093-0.057-0.134l-0.791-1.843c-0.078-0.229-0.318-0.379-0.572-0.388C12.534,2.009,12.519,2,12.499,2
				h-1.684c-0.414-1.163-1.512-2.001-2.816-2.001S5.596,0.837,5.183,2H3.499c-0.02,0-0.036,0.009-0.054,0.011
				C3.19,2.02,2.95,2.169,2.871,2.398l-0.79,1.843C2.056,4.282,2.037,4.326,2.024,4.375L2.022,4.379
				c-0.001,0.003,0,0.006-0.001,0.01C2.013,4.425,1.999,4.46,1.999,4.5v3.063l-0.92,2.633c-0.019,0.036-0.024,0.074-0.036,0.112
				c-0.004,0.009-0.005,0.018-0.008,0.026c-0.01,0.037-0.019,0.072-0.022,0.109c-0.003,0.022-0.013,0.042-0.013,0.064v4.992
				c0,0.275,0.224,0.498,0.5,0.498h2.5h1h6h1h2.5c0.275,0,0.5-0.224,0.5-0.5v-5C14.999,10.477,14.989,10.457,14.985,10.435z
				 M10.999,2.999h1h0.186l0.688,1.602c0.025,0.076,0.07,0.142,0.127,0.198v2.2h-2V2.999z M7.999,0.999
				c0.738,0,1.377,0.405,1.723,1.001H6.276C6.623,1.404,7.26,0.999,7.999,0.999z M5.999,2.999h4v4h-4V2.999z M2.999,4.799
				c0.056-0.057,0.102-0.122,0.127-0.198l0.687-1.602h0.186h1v4h-2V4.799z M10.999,15h-6v-2.001h6V15z M13.999,10.499V15h-2v-2.001
				v-1h-1h-6h-1v1V15h-2v-4.491c0-0.011-0.006-0.02-0.006-0.03L2.859,8h2.14v1.5c0,0.275,0.224,0.499,0.5,0.499
				c0.276,0,0.5-0.224,0.5-0.499V8h4v1.5c0,0.275,0.225,0.499,0.5,0.499s0.5-0.224,0.5-0.499V8h2.145l0.861,2.469
				C14.005,10.479,13.999,10.488,13.999,10.499z"/>
		</g>
	</g>
</g>
<g id="Layer_1">
</g>
</svg>
