<?xml version="1.0" encoding="iso-8859-1"?>
<!-- Generator: Adobe Illustrator 16.0.0, SVG Export Plug-In . SVG Version: 6.00 Build 0)  -->
<!DOCTYPE svg PUBLIC "-//W3C//DTD SVG 1.1//EN" "http://www.w3.org/Graphics/SVG/1.1/DTD/svg11.dtd">
<svg version="1.1" xmlns="http://www.w3.org/2000/svg" xmlns:xlink="http://www.w3.org/1999/xlink" x="0px" y="0px" width="16px"
	 height="16px" viewBox="0 0 16 16" style="enable-background:new 0 0 16 16;" xml:space="preserve">
<g id="ecommerce-tag-plus" style="enable-background:new    ;">
	<g id="ecommerce-tag-plus_1_">
		<g>
			<path d="M9.999,5.998c0-1.104-0.896-2-2-2c-1.104,0-2,0.896-2,2c0,1.105,0.896,2,2,2C9.103,7.998,9.999,7.103,9.999,5.998z
				 M7.999,6.998c-0.552,0-1-0.447-1-1s0.448-1,1-1c0.553,0,1,0.447,1,1S8.552,6.998,7.999,6.998z M11.999,10.997h-1v2h-2v1h2v2h1
				v-2h2v-1h-2V10.997z M7.999,0l-6,4.499v10.5c0,0.551,0.448,1,1,1h4v-1h-4v-10l5-3.75l5,3.75v3.999h1V4.499L7.999,0z"/>
		</g>
	</g>
</g>
<g id="Layer_1">
</g>
</svg>
