<?xml version="1.0" encoding="iso-8859-1"?>
<!-- Generator: Adobe Illustrator 16.0.0, SVG Export Plug-In . SVG Version: 6.00 Build 0)  -->
<!DOCTYPE svg PUBLIC "-//W3C//DTD SVG 1.1//EN" "http://www.w3.org/Graphics/SVG/1.1/DTD/svg11.dtd">
<svg version="1.1" xmlns="http://www.w3.org/2000/svg" xmlns:xlink="http://www.w3.org/1999/xlink" x="0px" y="0px" width="16px"
	 height="16px" viewBox="0 0 16 16" style="enable-background:new 0 0 16 16;" xml:space="preserve">
<g id="ecommerce-shopcart-fill" style="enable-background:new    ;">
	<g id="ecommerce-shopcart-fill_1_">
		<g>
			<path d="M6.999,13.499c-0.552,0-1,0.447-1,1c0,0.552,0.448,1,1,1s1-0.448,1-1C7.999,13.946,7.551,13.499,6.999,13.499z
				 M15.985,5.071C15.987,5.047,15.999,5.025,15.999,5c0-0.076-0.02-0.146-0.051-0.211c-0.016-0.037-0.037-0.061-0.061-0.092
				c-0.053-0.068-0.117-0.127-0.199-0.16c-0.014-0.005-0.018-0.022-0.033-0.026c-0.051-0.015-0.102-0.014-0.15-0.011
				c-0.002,0-0.004-0.001-0.006-0.001h-0.014c-0.006,0.001-0.014-0.001-0.021,0h-1.771L10.64,1.798c-0.389-0.403-1.02-0.403-1.406,0
				L6.507,4.499H5.024L4.055,0.861C3.989,0.636,3.762,0.498,3.518,0.503c-0.007,0-0.012-0.004-0.019-0.004h-3
				c-0.276,0-0.5,0.224-0.5,0.5s0.224,0.5,0.5,0.5h2.61l0.908,3.409C4.011,4.938,3.999,4.967,3.999,5
				c0,0.127,0.052,0.241,0.13,0.329l1.813,6.808c0.066,0.226,0.292,0.364,0.537,0.358c0.006,0,0.012,0.004,0.019,0.004h7
				c0,0,0.002-0.001,0.004-0.001c0.025-0.002,0.049-0.008,0.074-0.016c0.238-0.039,0.422-0.235,0.422-0.483
				c0-0.025-0.012-0.047-0.014-0.071l2.006-6.808C15.995,5.103,15.981,5.088,15.985,5.071z M9.937,2.527l2.229,1.972H7.987
				L9.937,2.527z M13.118,11.499h-6.23l-1.598-6h0.209h1.5h6.295l0.01,0.008l0.008-0.008h1.576L13.118,11.499z M11.999,13.499
				c-0.553,0-1,0.447-1,1c0,0.552,0.447,1,1,1s1-0.448,1-1C12.999,13.946,12.552,13.499,11.999,13.499z"/>
		</g>
	</g>
</g>
<g id="Layer_1">
</g>
</svg>
