<?xml version="1.0" encoding="iso-8859-1"?>
<!-- Generator: Adobe Illustrator 16.0.0, SVG Export Plug-In . SVG Version: 6.00 Build 0)  -->
<!DOCTYPE svg PUBLIC "-//W3C//DTD SVG 1.1//EN" "http://www.w3.org/Graphics/SVG/1.1/DTD/svg11.dtd">
<svg version="1.1" xmlns="http://www.w3.org/2000/svg" xmlns:xlink="http://www.w3.org/1999/xlink" x="0px" y="0px" width="16px"
	 height="16px" viewBox="0 0 16 16" style="enable-background:new 0 0 16 16;" xml:space="preserve">
<g id="ecommerce-backpack" style="enable-background:new    ;">
	<g id="ecommerce-backpack_2_">
		<g>
			<path d="M3.999,12.999h8v-1h-8V12.999z M14.985,10.435c-0.002-0.037-0.012-0.072-0.021-0.109c-0.004-0.01-0.006-0.02-0.01-0.027
				c-0.01-0.039-0.016-0.076-0.035-0.113l-0.92-2.636v-3.05c0-0.039-0.014-0.074-0.023-0.11c0-0.004,0-0.007,0-0.01l-0.002-0.004
				c-0.014-0.049-0.031-0.093-0.059-0.135l-0.789-1.842c-0.078-0.229-0.318-0.379-0.574-0.388c-0.018-0.002-0.033-0.012-0.053-0.012
				h-1.684c-0.414-1.162-1.512-2-2.816-2s-2.403,0.838-2.816,2H3.499c-0.019,0-0.035,0.01-0.054,0.012
				C3.19,2.019,2.95,2.168,2.871,2.398L2.082,4.24C2.056,4.282,2.037,4.326,2.024,4.375L2.022,4.378
				c-0.001,0.003,0,0.006-0.001,0.009C2.013,4.424,1.999,4.459,1.999,4.499v3.064l-0.92,2.633c-0.019,0.035-0.024,0.074-0.036,0.111
				c-0.004,0.01-0.005,0.018-0.008,0.027c-0.01,0.037-0.02,0.072-0.022,0.109c-0.003,0.021-0.013,0.041-0.013,0.064v4.99
				c0,0.277,0.224,0.5,0.5,0.5h13c0.275,0,0.5-0.223,0.5-0.5v-5C14.999,10.476,14.989,10.456,14.985,10.435z M10.999,2.999h1h0.186
				L12.872,4.6c0.025,0.076,0.07,0.142,0.127,0.198V7h-2V2.999z M7.999,0.999c0.738,0,1.377,0.405,1.723,1H6.276
				C6.623,1.404,7.26,0.999,7.999,0.999z M5.999,2.999h4V7h-4V2.999z M2.999,4.798C3.055,4.742,3.101,4.676,3.126,4.6l0.687-1.602
				h0.186h1V7h-2V4.798z M13.999,10.499v4.5h-12v-4.49c0-0.012-0.006-0.02-0.006-0.031l0.866-2.479h2.14v1.5
				c0,0.275,0.224,0.5,0.5,0.5c0.276,0,0.5-0.225,0.5-0.5v-1.5h4v1.5c0,0.275,0.225,0.5,0.5,0.5s0.5-0.225,0.5-0.5v-1.5h2.145
				l0.861,2.469C14.005,10.479,13.999,10.487,13.999,10.499z"/>
		</g>
	</g>
</g>
<g id="Layer_1">
</g>
</svg>
