<?xml version="1.0" encoding="iso-8859-1"?>
<!-- Generator: Adobe Illustrator 16.0.0, SVG Export Plug-In . SVG Version: 6.00 Build 0)  -->
<!DOCTYPE svg PUBLIC "-//W3C//DTD SVG 1.1//EN" "http://www.w3.org/Graphics/SVG/1.1/DTD/svg11.dtd">
<svg version="1.1" xmlns="http://www.w3.org/2000/svg" xmlns:xlink="http://www.w3.org/1999/xlink" x="0px" y="0px" width="16px"
	 height="16px" viewBox="0 0 16 16" style="enable-background:new 0 0 16 16;" xml:space="preserve">
<g id="ecommerce-bag-a" style="enable-background:new    ;">
	<g id="ecommerce-bag-a_1_">
		<g>
			<path d="M12.999,2.999h-2v-0.5c0-1.381-1.119-2.5-2.5-2.5h-1c-1.381,0-2.5,1.119-2.5,2.5v0.5h-2c-0.552,0-1,0.448-1,1v11
				c0,0.553,0.448,1,1,1h10c0.553,0,1-0.447,1-1v-11C13.999,3.447,13.552,2.999,12.999,2.999z M5.999,2.499
				c0-0.828,0.671-1.5,1.5-1.5h1c0.828,0,1.5,0.672,1.5,1.5v0.5h-4V2.499z M12.999,14.499c0,0.275-0.225,0.5-0.5,0.5h-9
				c-0.276,0-0.5-0.225-0.5-0.5v-1.5h10V14.499z M12.999,11.999h-10v-7.5c0-0.275,0.224-0.5,0.5-0.5h1.5v2h1v-2h4v2h1v-2h1.5
				c0.275,0,0.5,0.225,0.5,0.5V11.999z"/>
		</g>
	</g>
</g>
<g id="Layer_1">
</g>
</svg>
