<?xml version="1.0" encoding="iso-8859-1"?>
<!-- Generator: Adobe Illustrator 16.0.0, SVG Export Plug-In . SVG Version: 6.00 Build 0)  -->
<!DOCTYPE svg PUBLIC "-//W3C//DTD SVG 1.1//EN" "http://www.w3.org/Graphics/SVG/1.1/DTD/svg11.dtd">
<svg version="1.1" xmlns="http://www.w3.org/2000/svg" xmlns:xlink="http://www.w3.org/1999/xlink" x="0px" y="0px" width="16px"
	 height="16px" viewBox="0 0 16 16" style="enable-background:new 0 0 16 16;" xml:space="preserve">
<g id="ecommerce-bill-a" style="enable-background:new    ;">
	<g id="ecommerce-bill-a_1_">
		<g>
			<path d="M0.999-0.001v16H2.05l1.848-2l2.068,2l1.988-2l2.063,2l1.924-2l1.959,2h1.1v-16H0.999z M13.999,14.672l-1.344-1.373
				l-0.723-0.735l-0.713,0.742l-1.229,1.276l-1.342-1.301l-0.708-0.688l-0.696,0.7l-1.293,1.301L4.593,13.28l-0.736-0.712
				L3.163,13.32l-1.164,1.26V0.999h12V14.672z M11.999,6.997h-8v1h8V6.997z M11.999,2.998h-8v0.999h8V2.998z M11.999,8.998h-8v0.999
				h8V8.998z"/>
		</g>
	</g>
</g>
<g id="Layer_1">
</g>
</svg>
