<?xml version="1.0" encoding="iso-8859-1"?>
<!-- Generator: Adobe Illustrator 16.0.0, SVG Export Plug-In . SVG Version: 6.00 Build 0)  -->
<!DOCTYPE svg PUBLIC "-//W3C//DTD SVG 1.1//EN" "http://www.w3.org/Graphics/SVG/1.1/DTD/svg11.dtd">
<svg version="1.1" xmlns="http://www.w3.org/2000/svg" xmlns:xlink="http://www.w3.org/1999/xlink" x="0px" y="0px" width="16px"
	 height="16px" viewBox="0 0 16 16" style="enable-background:new 0 0 16 16;" xml:space="preserve">
<g id="ecommerce-woman-bag" style="enable-background:new    ;">
	<g id="ecommerce-woman-bag_1_">
		<g>
			<path d="M7.999,7.999c-0.552,0-1,0.447-1,1s0.448,1,1,1c0.553,0,1-0.447,1-1S8.552,7.999,7.999,7.999z M14.999,7.999
				c0-1.104-0.896-2-2-2H12.96c-0.199-3.353-2.332-6.001-4.961-6.001c-2.63,0-4.762,2.648-4.961,6.001H2.999c-1.105,0-2,0.896-2,2
				l0.014,0.086C1.007,8.13,0.999,8.175,0.999,8.222l0.385,2.197c0.006,0.006,0.014,0.012,0.021,0.018l0.594,3.563
				c0,1.105,0.895,2,2,2h8c1.104,0,2-0.895,2-2l0.594-3.563c0.006-0.006,0.014-0.012,0.021-0.018l0.385-2.197
				c0-0.047-0.008-0.092-0.014-0.137L14.999,7.999z M7.999,0.999c2.084,0,3.777,2.201,3.963,5.001H4.036
				C4.222,3.2,5.914,0.999,7.999,0.999z M12.999,13.999c0,0.553-0.447,1-1,1h-8c-0.552,0-1-0.447-1-1l-0.452-2.711
				c1.429,0.93,3.342,1.711,5.452,1.711s4.023-0.781,5.451-1.711L12.999,13.999z M13.64,10.151c-1.271,1.09-3.322,1.896-5.641,1.896
				s-4.37-0.807-5.642-1.896L1.999,7.999c0-0.552,0.448-1,1-1h10c0.553,0,1,0.447,1,1L13.64,10.151z"/>
		</g>
	</g>
</g>
<g id="Layer_1">
</g>
</svg>
