<?xml version="1.0" encoding="iso-8859-1"?>
<!-- Generator: Adobe Illustrator 16.0.0, SVG Export Plug-In . SVG Version: 6.00 Build 0)  -->
<!DOCTYPE svg PUBLIC "-//W3C//DTD SVG 1.1//EN" "http://www.w3.org/Graphics/SVG/1.1/DTD/svg11.dtd">
<svg version="1.1" xmlns="http://www.w3.org/2000/svg" xmlns:xlink="http://www.w3.org/1999/xlink" x="0px" y="0px" width="16px"
	 height="16px" viewBox="0 0 16 16" style="enable-background:new 0 0 16 16;" xml:space="preserve">
<g id="ecommerce-tag-a" style="enable-background:new    ;">
	<g id="ecommerce-tag-a_1_">
		<g>
			<path d="M3.076,9.426l3.495,3.491l0.699-0.698L3.775,8.728L3.076,9.426z M8.317,0L0.28,8.029c-0.386,0.386-0.386,1.011,0,1.396
				l6.291,6.284c0.386,0.386,1.012,0.386,1.397,0l8.038-8.03l0.001-7.681L8.317,0z M14.958,7.331l-7.339,7.331
				c-0.193,0.193-0.506,0.193-0.699,0L1.329,9.077c-0.193-0.193-0.193-0.506,0-0.698l7.338-7.332l6.34-0.048L14.958,7.331z
				 M13.42,5.42c0.784-0.783,0.784-2.054,0-2.837s-2.056-0.783-2.84,0s-0.784,2.054,0,2.837S12.636,6.203,13.42,5.42z M11.306,3.276
				c0.393-0.393,1.028-0.393,1.42,0c0.393,0.392,0.393,1.027,0,1.419c-0.392,0.392-1.027,0.392-1.42,0
				C10.914,4.304,10.914,3.668,11.306,3.276z"/>
		</g>
	</g>
</g>
<g id="Layer_1">
</g>
</svg>
