<?xml version="1.0" encoding="iso-8859-1"?>
<!-- Generator: Adobe Illustrator 16.0.0, SVG Export Plug-In . SVG Version: 6.00 Build 0)  -->
<!DOCTYPE svg PUBLIC "-//W3C//DTD SVG 1.1//EN" "http://www.w3.org/Graphics/SVG/1.1/DTD/svg11.dtd">
<svg version="1.1" xmlns="http://www.w3.org/2000/svg" xmlns:xlink="http://www.w3.org/1999/xlink" x="0px" y="0px" width="16px"
	 height="16px" viewBox="0 0 16 16" style="enable-background:new 0 0 16 16;" xml:space="preserve">
<g id="ecommerce-tag-b" style="enable-background:new    ;">
	<g id="ecommerce-tag-b_1_">
		<g>
			<path d="M8.317,0L2.024,6.287L1.678,6.633L0.28,8.029c-0.386,0.386-0.386,1.011,0,1.396l6.291,6.284
				c0.386,0.386,1.012,0.386,1.397,0l8.038-8.03l0.001-7.681L8.317,0z M7.619,14.662c-0.193,0.193-0.506,0.193-0.699,0L1.329,9.077
				c-0.193-0.193-0.193-0.506,0-0.698l1.048-1.048l6.29,6.284L7.619,14.662z M14.957,7.331l-5.591,5.586L3.076,6.633l5.591-5.586
				l6.34-0.048L14.957,7.331z M13.21,5.585c0.772-0.771,0.772-2.021,0-2.792c-0.771-0.771-2.023-0.771-2.795,0
				c-0.772,0.771-0.772,2.021,0,2.792C11.187,6.356,12.438,6.356,13.21,5.585z M11.113,3.49c0.386-0.386,1.012-0.386,1.398,0
				c0.386,0.387,0.386,1.012,0,1.397c-0.387,0.385-1.013,0.385-1.398,0C10.728,4.502,10.728,3.877,11.113,3.49z"/>
		</g>
	</g>
</g>
<g id="Layer_1">
</g>
</svg>
