<?xml version="1.0" encoding="iso-8859-1"?>
<!-- Generator: Adobe Illustrator 16.0.0, SVG Export Plug-In . SVG Version: 6.00 Build 0)  -->
<!DOCTYPE svg PUBLIC "-//W3C//DTD SVG 1.1//EN" "http://www.w3.org/Graphics/SVG/1.1/DTD/svg11.dtd">
<svg version="1.1" xmlns="http://www.w3.org/2000/svg" xmlns:xlink="http://www.w3.org/1999/xlink" x="0px" y="0px" width="16px"
	 height="16px" viewBox="0 0 16 16" style="enable-background:new 0 0 16 16;" xml:space="preserve">
<g id="ecommerce-wallet-a" style="enable-background:new    ;">
	<g id="ecommerce-wallet-a_1_">
		<g>
			<path d="M14.499,4V0.999c0-0.552-0.447-0.999-1-0.999l-12,4c-0.552,0-1,0.447-1,1v10c0,0.553,0.448,1,1,1h12h1
				c0.553,0,1-0.447,1-1v-3v-3V5C15.499,4.447,15.052,4,14.499,4z M12.999,0.999c0.275,0,0.5,0.224,0.5,0.5V4h-8.75L12.999,0.999z
				 M14.499,10.999h-2v-1h2V10.999z M14.499,8.999h-3v3h3v2.5c0,0.277-0.225,0.5-0.5,0.5h-12c-0.276,0-0.5-0.223-0.5-0.5v-9
				c0-0.276,0.224-0.5,0.5-0.5h12c0.275,0,0.5,0.224,0.5,0.5V8.999z"/>
		</g>
	</g>
</g>
<g id="Layer_1">
</g>
</svg>
