<?xml version="1.0" encoding="iso-8859-1"?>
<!-- Generator: Adobe Illustrator 16.0.0, SVG Export Plug-In . SVG Version: 6.00 Build 0)  -->
<!DOCTYPE svg PUBLIC "-//W3C//DTD SVG 1.1//EN" "http://www.w3.org/Graphics/SVG/1.1/DTD/svg11.dtd">
<svg version="1.1" xmlns="http://www.w3.org/2000/svg" xmlns:xlink="http://www.w3.org/1999/xlink" x="0px" y="0px" width="16px"
	 height="16px" viewBox="0 0 16 16" style="enable-background:new 0 0 16 16;" xml:space="preserve">
<g id="ecommerce-cash-a" style="enable-background:new    ;">
	<g id="ecommerce-cash-a_1_">
		<g>
			<path d="M6.499,4c-1.381,0-2.5,1.119-2.5,2.5c0,1.38,1.119,2.5,2.5,2.5c1.38,0,2.5-1.12,2.5-2.5C8.999,5.119,7.879,4,6.499,4z
				 M6.499,7.999c-0.829,0-1.5-0.671-1.5-1.5c0-0.829,0.671-1.5,1.5-1.5c0.828,0,1.5,0.671,1.5,1.5
				C7.999,7.328,7.327,7.999,6.499,7.999z M12.999,9.999V3c0-0.553-0.447-1.001-1-1.001h-11c-0.552,0-1,0.448-1,1.001v7
				c0,0.553,0.448,1,1,1h11C12.552,10.999,12.999,10.552,12.999,9.999z M11.499,9.999h-10c-0.276,0-0.5-0.223-0.5-0.5v-6
				c0-0.276,0.224-0.5,0.5-0.5h10c0.275,0,0.5,0.224,0.5,0.5v6C11.999,9.776,11.774,9.999,11.499,9.999z M14.999,5h-1v1h0.5
				c0.275,0,0.5,0.224,0.5,0.5v6c0,0.277-0.225,0.5-0.5,0.5h-10c-0.276,0-0.5-0.223-0.5-0.5v-0.5h-1v1c0,0.553,0.448,1,1,1h11
				c0.553,0,1-0.447,1-1V6C15.999,5.447,15.552,5,14.999,5z"/>
		</g>
	</g>
</g>
<g id="Layer_1">
</g>
</svg>
