<?xml version="1.0" encoding="iso-8859-1"?>
<!-- Generator: Adobe Illustrator 16.0.0, SVG Export Plug-In . SVG Version: 6.00 Build 0)  -->
<!DOCTYPE svg PUBLIC "-//W3C//DTD SVG 1.1//EN" "http://www.w3.org/Graphics/SVG/1.1/DTD/svg11.dtd">
<svg version="1.1" xmlns="http://www.w3.org/2000/svg" xmlns:xlink="http://www.w3.org/1999/xlink" x="0px" y="0px" width="16px"
	 height="16px" viewBox="0 0 16 16" style="enable-background:new 0 0 16 16;" xml:space="preserve">
<g id="ecommerce-shoes" style="enable-background:new    ;">
	<g id="ecommerce-shoes_2_">
		<g>
			<path d="M14.999,9.509h-0.24c0.121-0.447,0.24-0.957,0.24-1.244c0-1.341-2-2.119-2-2.119l-6-2.647
				c-0.827,1.051-1.674,1.59-2.5,1.59c-0.958,0-1.874-0.661-2.5-1.059C1.997,4.032,1.885,4.033,1.737,4.033
				c-0.296,0-0.738-0.003-0.738-0.003v5.479c-0.552,0-1,0.447-1,0.998v0.996c0,0.549,0.448,0.996,1,0.996h14
				c0.553,0,1-0.447,1-0.996v-0.996C15.999,9.956,15.552,9.509,14.999,9.509z M1.999,5.245c0.657,0.362,1.544,0.902,2.5,0.902
				c1.035,0,1.935-0.592,2.75-1.391l1.666,0.735L6.997,6.765L7.481,7.73l2.453-1.789l1.141,0.504L8.997,7.824L9.481,8.79l2.605-1.9
				l0.527,0.233l0.02,0.009l0.02,0.008c0.543,0.21,1.346,0.775,1.346,1.125c-0.002,0.152,0.133,0.754,0,1.234h-12V5.245z
				 M14.499,11.503h-13c-0.276,0-0.5-0.225-0.5-0.498c0-0.275,0.224-0.498,0.5-0.498h13c0.275,0,0.5,0.223,0.5,0.498
				C14.999,11.278,14.774,11.503,14.499,11.503z"/>
		</g>
	</g>
</g>
<g id="Layer_1">
</g>
</svg>
