<?xml version="1.0" encoding="iso-8859-1"?>
<!-- Generator: Adobe Illustrator 16.0.0, SVG Export Plug-In . SVG Version: 6.00 Build 0)  -->
<!DOCTYPE svg PUBLIC "-//W3C//DTD SVG 1.1//EN" "http://www.w3.org/Graphics/SVG/1.1/DTD/svg11.dtd">
<svg version="1.1" xmlns="http://www.w3.org/2000/svg" xmlns:xlink="http://www.w3.org/1999/xlink" x="0px" y="0px" width="16px"
	 height="16px" viewBox="0 0 16 16" style="enable-background:new 0 0 16 16;" xml:space="preserve">
<g id="ecommerce-tag-tick" style="enable-background:new    ;">
	<g id="ecommerce-tag-tick_1_">
		<g>
			<path d="M2.501,4.998l5-3.75l5,3.75v3.999h1V4.498l-6-4.499l-6,4.499v10.501c0,0.551,0.448,1,1,1h4v-1h-4V4.998z M9.501,5.997
				c0-1.104-0.896-2-2-2c-1.104,0-2,0.896-2,2s0.895,2,2,2C8.604,7.997,9.501,7.102,9.501,5.997z M7.5,6.997c-0.552,0-1-0.447-1-1
				s0.448-1,1-1c0.553,0,1,0.447,1,1S8.054,6.997,7.5,6.997z M14.497,11.75l-0.748-0.749l-3.045,3.45l-1.451-1.45L8.505,13.75
				l2.244,2.243l0.002-0.002l0.002,0.002l0.039-0.044l0.705-0.705L11.452,15.2L14.497,11.75z"/>
		</g>
	</g>
</g>
<g id="Layer_1">
</g>
</svg>
