<?xml version="1.0" encoding="iso-8859-1"?>
<!-- Generator: Adobe Illustrator 16.0.0, SVG Export Plug-In . SVG Version: 6.00 Build 0)  -->
<!DOCTYPE svg PUBLIC "-//W3C//DTD SVG 1.1//EN" "http://www.w3.org/Graphics/SVG/1.1/DTD/svg11.dtd">
<svg version="1.1" xmlns="http://www.w3.org/2000/svg" xmlns:xlink="http://www.w3.org/1999/xlink" x="0px" y="0px" width="16px"
	 height="16px" viewBox="0 0 16 16" style="enable-background:new 0 0 16 16;" xml:space="preserve">
<g id="ecommerce-hanger" style="enable-background:new    ;">
	<g id="ecommerce-hanger_1_">
		<g>
			<path d="M8.199,5.246C9.258,4.782,10,3.729,10,2.499c0-1.656-1.344-3-3-3c-1.657,0-3,1.344-3,3c0,0.171,0.018,0.338,0.045,0.5
				H5.07C5.028,2.839,5,2.673,5,2.499c0-1.104,0.895-2,2-2c1.104,0,2,0.896,2,2c0,1.104-0.896,2-2,2v1l6.5,7.001
				c-0.008-0.002,1.188,0.999-1,0.999h-11c-2.196,0-0.992-0.974-1-0.999L5.375,8H3.821L-1,12.5c0,0.552,0.448,1.999,1,1.999h14
				c0.553,0,1-1.447,1-1.999L8.199,5.246z"/>
		</g>
	</g>
</g>
<g id="Layer_1">
</g>
</svg>
