<?xml version="1.0" encoding="iso-8859-1"?>
<!-- Generator: Adobe Illustrator 16.0.0, SVG Export Plug-In . SVG Version: 6.00 Build 0)  -->
<!DOCTYPE svg PUBLIC "-//W3C//DTD SVG 1.1//EN" "http://www.w3.org/Graphics/SVG/1.1/DTD/svg11.dtd">
<svg version="1.1" xmlns="http://www.w3.org/2000/svg" xmlns:xlink="http://www.w3.org/1999/xlink" x="0px" y="0px" width="16px"
	 height="16px" viewBox="0 0 16 16" style="enable-background:new 0 0 16 16;" xml:space="preserve">
<g id="ecommerce-shopcart-a" style="enable-background:new    ;">
	<g id="ecommerce-shopcart-a_1_">
		<g>
			<path d="M2.999,13.999c0,1.105,0.895,2,2,2c1.104,0,2-0.895,2-2s-0.896-2-2-2C3.894,11.999,2.999,12.894,2.999,13.999z
				 M4.999,12.999c0.552,0,1,0.447,1,1s-0.448,1-1,1s-1-0.447-1-1S4.447,12.999,4.999,12.999z M8.999,13.999c0,1.105,0.895,2,2,2
				c1.104,0,2-0.895,2-2s-0.896-2-2-2C9.894,11.999,8.999,12.894,8.999,13.999z M10.999,12.999c0.553,0,1,0.447,1,1s-0.447,1-1,1
				s-1-0.447-1-1S10.446,12.999,10.999,12.999z M15.991,2.464c-0.002-0.025-0.008-0.048-0.014-0.071
				c-0.01-0.047-0.023-0.091-0.047-0.132c-0.006-0.009-0.012-0.017-0.018-0.024c-0.029-0.05-0.066-0.091-0.113-0.126
				c-0.008-0.007-0.016-0.012-0.023-0.018c-0.043-0.029-0.088-0.052-0.139-0.066c-0.014-0.004-0.021-0.013-0.035-0.017
				c-0.021-0.006-0.043-0.001-0.066-0.004c-0.012-0.001-0.023-0.008-0.037-0.008h-0.09c-0.008,0.001-0.014-0.001-0.02,0H2.999v-1
				h0.5c0.276,0,0.5-0.224,0.5-0.499c0-0.276-0.224-0.501-0.5-0.501h-3c-0.276,0-0.5,0.225-0.5,0.501c0,0.275,0.224,0.499,0.5,0.499
				h1.5v10.5c0,0.275,0.224,0.5,0.5,0.5h2.5h6h4c0.275,0,0.5-0.225,0.5-0.5c0-0.277-0.225-0.5-0.5-0.5h-12V9.954l10.873-0.977
				c0.008,0.002,0.014,0.008,0.023,0.01c0.283,0.074,0.576-0.09,0.652-0.365l1.432-5.98c0.008-0.025,0.002-0.05,0.006-0.076
				c0.004-0.022,0.014-0.043,0.014-0.067C15.999,2.487,15.993,2.476,15.991,2.464z M13.595,8.034L2.999,8.987V2.999H14.8
				L13.595,8.034z"/>
		</g>
	</g>
</g>
<g id="Layer_1">
</g>
</svg>
