<?xml version="1.0" encoding="iso-8859-1"?>
<!-- Generator: Adobe Illustrator 16.0.0, SVG Export Plug-In . SVG Version: 6.00 Build 0)  -->
<!DOCTYPE svg PUBLIC "-//W3C//DTD SVG 1.1//EN" "http://www.w3.org/Graphics/SVG/1.1/DTD/svg11.dtd">
<svg version="1.1" xmlns="http://www.w3.org/2000/svg" xmlns:xlink="http://www.w3.org/1999/xlink" x="0px" y="0px" width="16px"
	 height="16px" viewBox="0 0 16 16" style="enable-background:new 0 0 16 16;" xml:space="preserve">
<g id="ecommerce-basket" style="enable-background:new    ;">
	<g id="ecommerce-basket_1_">
		<g>
			<path d="M15.499,4.498h-0.5h-2.496l1.195-1.999h1.301v-1h-2v0.155l-1.701,2.844h-0.299h-1h-4h-1h-0.3l-1.7-2.844V1.499h-2v1h1.3
				l1.195,1.999H0.999h-0.5c-0.276,0-0.5,0.225-0.5,0.5c0,0.277,0.224,0.501,0.5,0.501h0.6l0.9,9h3h1h4h1h3l0.9-9h0.6
				c0.275,0,0.5-0.224,0.5-0.501C15.999,4.723,15.774,4.498,15.499,4.498z M4.999,13.499h-2l-0.25-2.001h2.25V13.499z M4.999,10.499
				H2.624l-0.25-2.001h2.625V10.499z M4.999,7.498h-2.75l-0.25-1.999h3V7.498z M9.999,13.499h-4v-2.001h4V13.499z M9.999,10.499h-4
				V8.498h4V10.499z M9.999,7.498h-4V5.499h4V7.498z M12.999,13.499h-2v-2.001h2.25L12.999,13.499z M13.374,10.499h-2.375V8.498
				h2.625L13.374,10.499z M13.749,7.498h-2.75V5.499h3L13.749,7.498z"/>
		</g>
	</g>
</g>
<g id="Layer_1">
</g>
</svg>
