<?xml version="1.0" encoding="iso-8859-1"?>
<!-- Generator: Adobe Illustrator 16.0.0, SVG Export Plug-In . SVG Version: 6.00 Build 0)  -->
<!DOCTYPE svg PUBLIC "-//W3C//DTD SVG 1.1//EN" "http://www.w3.org/Graphics/SVG/1.1/DTD/svg11.dtd">
<svg version="1.1" xmlns="http://www.w3.org/2000/svg" xmlns:xlink="http://www.w3.org/1999/xlink" x="0px" y="0px" width="16px"
	 height="16px" viewBox="0 0 16 16" style="enable-background:new 0 0 16 16;" xml:space="preserve">
<g id="ecommerce-ring" style="enable-background:new    ;">
	<g id="ecommerce-ring_2_">
		<g>
			<path d="M10.499,1.999h-5v1h5V1.999z M9.142,5.999l2.857-3.5v-2l-1.715-0.5H5.713l-1.714,0.5v2l2.857,3.5H9.142z M4.999,0.999h6
				v1.5l-2.4,2.5h-1.2l-2.4-2.5V0.999z M11.177,4.928l-0.178,1.071h-0.027c1.225,0.911,2.027,2.356,2.027,4c0,2.762-2.238,5-5,5
				s-5-2.238-5-5c0-1.644,0.803-3.089,2.027-4H4.999L4.82,4.928C3.131,5.989,1.999,7.856,1.999,9.999c0,3.313,2.686,6,6,6
				c3.314,0,6-2.687,6-6C13.999,7.856,12.866,5.989,11.177,4.928z"/>
		</g>
	</g>
</g>
<g id="Layer_1">
</g>
</svg>
