<?xml version="1.0" encoding="iso-8859-1"?>
<!-- Generator: Adobe Illustrator 16.0.0, SVG Export Plug-In . SVG Version: 6.00 Build 0)  -->
<!DOCTYPE svg PUBLIC "-//W3C//DTD SVG 1.1//EN" "http://www.w3.org/Graphics/SVG/1.1/DTD/svg11.dtd">
<svg version="1.1" xmlns="http://www.w3.org/2000/svg" xmlns:xlink="http://www.w3.org/1999/xlink" x="0px" y="0px" width="16px"
	 height="16px" viewBox="0 0 16 16" style="enable-background:new 0 0 16 16;" xml:space="preserve">
<g id="ecommerce-tag" style="enable-background:new    ;">
	<g id="ecommerce-tag_2_">
		<g>
			<path d="M5.999,5.998c0,1.105,0.896,2,2,2c1.104,0,2-0.895,2-2c0-1.104-0.896-2-2-2C6.895,3.998,5.999,4.894,5.999,5.998z
				 M8.999,5.998c0,0.553-0.447,1-1,1c-0.552,0-1-0.447-1-1s0.448-1,1-1C8.552,4.998,8.999,5.445,8.999,5.998z M7.999,0l-6,4.499
				v10.5c0,0.551,0.448,1,1,1h10c0.551,0,1-0.449,1-1v-10.5L7.999,0z M12.999,14.999h-10v-10l5-3.75l5,3.75V14.999z"/>
		</g>
	</g>
</g>
<g id="Layer_1">
</g>
</svg>
