<?xml version="1.0" encoding="iso-8859-1"?>
<!-- Generator: Adobe Illustrator 16.0.0, SVG Export Plug-In . SVG Version: 6.00 Build 0)  -->
<!DOCTYPE svg PUBLIC "-//W3C//DTD SVG 1.1//EN" "http://www.w3.org/Graphics/SVG/1.1/DTD/svg11.dtd">
<svg version="1.1" xmlns="http://www.w3.org/2000/svg" xmlns:xlink="http://www.w3.org/1999/xlink" x="0px" y="0px" width="16px"
	 height="16px" viewBox="0 0 16 16" style="enable-background:new 0 0 16 16;" xml:space="preserve">
<g id="ecommerce-tag-b-s" style="enable-background:new    ;">
	<g id="ecommerce-tag-b-s_2_">
		<g>
			<path d="M5.999,4.999c0,1.104,0.896,2,2,2s2-0.896,2-2S9.103,3,7.999,3S5.999,3.894,5.999,4.999z M8.999,4.999
				c0,0.553-0.447,1-1,1c-0.552,0-1-0.447-1-1s0.448-1,1-1C8.552,3.999,8.999,4.446,8.999,4.999z M7.999-0.001L2.499,4.5v7.5v1v2
				c0,0.553,0.448,1,1,1h9c0.553,0,1-0.447,1-1v-2v-1V4.5L7.999-0.001z M12.499,14.499c0,0.275-0.225,0.5-0.5,0.5h-8
				c-0.276,0-0.5-0.225-0.5-0.5v-1.5h9V14.499z M12.499,11.999h-9v-7l4.5-4l4.5,4V11.999z"/>
		</g>
	</g>
</g>
<g id="Layer_1">
</g>
</svg>
