<?xml version="1.0" encoding="iso-8859-1"?>
<!-- Generator: Adobe Illustrator 16.0.0, SVG Export Plug-In . SVG Version: 6.00 Build 0)  -->
<!DOCTYPE svg PUBLIC "-//W3C//DTD SVG 1.1//EN" "http://www.w3.org/Graphics/SVG/1.1/DTD/svg11.dtd">
<svg version="1.1" xmlns="http://www.w3.org/2000/svg" xmlns:xlink="http://www.w3.org/1999/xlink" x="0px" y="0px" width="16px"
	 height="16px" viewBox="0 0 16 16" style="enable-background:new 0 0 16 16;" xml:space="preserve">
<g id="ecommerce-yen" style="enable-background:new    ;">
	<g id="ecommerce-yen_2_">
		<g>
			<path d="M7.999-0.001c-4.418,0-8,3.581-8,8c0,4.418,3.582,8,8,8c4.418,0,8-3.582,8-8C15.999,3.58,12.417-0.001,7.999-0.001z
				 M7.999,14.998c-3.866,0-7-3.134-7-6.999c0-3.866,3.134-7.001,7-7.001c3.865,0,7,3.135,7,7.001
				C14.999,11.864,11.864,14.998,7.999,14.998z M10.106,4.501L8.483,7.158c0.143-0.234-1.104-0.188-0.99,0L5.882,4.501h-0.89
				l2.006,3.498h-1.5v0.5h2v1h-2v0.5h2v2h1v-2h2v-0.5h-2v-1h2v-0.5h-1.5l1.996-3.498H10.106z"/>
		</g>
	</g>
</g>
<g id="Layer_1">
</g>
</svg>
