<?xml version="1.0" encoding="iso-8859-1"?>
<!-- Generator: Adobe Illustrator 16.0.0, SVG Export Plug-In . SVG Version: 6.00 Build 0)  -->
<!DOCTYPE svg PUBLIC "-//W3C//DTD SVG 1.1//EN" "http://www.w3.org/Graphics/SVG/1.1/DTD/svg11.dtd">
<svg version="1.1" xmlns="http://www.w3.org/2000/svg" xmlns:xlink="http://www.w3.org/1999/xlink" x="0px" y="0px" width="16px"
	 height="16px" viewBox="0 0 16 16" style="enable-background:new 0 0 16 16;" xml:space="preserve">
<g id="ecommerce-pack" style="enable-background:new    ;">
	<g id="ecommerce-pack_1_">
		<g>
			<path d="M14.94,5.708c0.07-0.146,0.078-0.317-0.014-0.468l-2.424-4.996c-0.09-0.15-0.248-0.214-0.418-0.229
				C12.056,0.011,12.03,0,11.999,0h-3h-2h-3C3.968,0,3.941,0.011,3.912,0.016C3.744,0.031,3.585,0.094,3.494,0.245L1.071,5.241
				C0.98,5.391,0.987,5.563,1.058,5.708c-0.029,0.094-0.059,0.188-0.059,0.29v9c0,0.553,0.448,1,1,1h12c0.553,0,1-0.447,1-1v-9
				C14.999,5.896,14.97,5.802,14.94,5.708z M11.688,0.999L13.628,5H9.999H9.833L9.165,0.999H11.688z M7.999,0.999l1,4.001h-2
				L7.999,0.999z M6.999,5.999h2v4h-2V5.999z M4.31,0.999h2.522L6.166,5H5.999H2.37L4.31,0.999z M13.999,14.499
				c0,0.275-0.225,0.5-0.5,0.5h-11c-0.276,0-0.5-0.225-0.5-0.5v-8c0-0.277,0.224-0.501,0.5-0.501h3.5v5h4v-5h3.5
				c0.275,0,0.5,0.224,0.5,0.501V14.499z M2.999,13.999h2v-1h-2V13.999z M5.999,13.999h1v-1h-1V13.999z"/>
		</g>
	</g>
</g>
<g id="Layer_1">
</g>
</svg>
