<?xml version="1.0" encoding="iso-8859-1"?>
<!-- Generator: Adobe Illustrator 16.0.0, SVG Export Plug-In . SVG Version: 6.00 Build 0)  -->
<!DOCTYPE svg PUBLIC "-//W3C//DTD SVG 1.1//EN" "http://www.w3.org/Graphics/SVG/1.1/DTD/svg11.dtd">
<svg version="1.1" xmlns="http://www.w3.org/2000/svg" xmlns:xlink="http://www.w3.org/1999/xlink" x="0px" y="0px" width="16px"
	 height="16px" viewBox="0 0 16 16" style="enable-background:new 0 0 16 16;" xml:space="preserve">
<g id="ecommerce-coins" style="enable-background:new    ;">
	<g id="ecommerce-coins_2_">
		<g>
			<path d="M13.999,3.5c0-1.658-2.686-3.001-6-3.001c-3.313,0-6,1.343-6,3.001c0,0.171,0.046,0.336,0.101,0.5H1.999v2.499
				c0,0.001,0,0.001,0,0.001v2.999V9.5v2.999V12.5V13H2.1c0.479,1.417,2.929,2.499,5.899,2.499s5.42-1.082,5.899-2.499h0.101V4
				h-0.101C13.954,3.836,13.999,3.671,13.999,3.5z M12.999,12.499c0,1.105-2.238,2.001-5,2.001c-2.761,0-4.999-0.896-5-2.001v-1.345
				c1.074,0.81,2.91,1.345,5,1.345s3.926-0.535,5-1.345V12.499z M12.999,9.5c0,1.104-2.238,2-5,2c-2.761,0-4.999-0.896-5-2V8.154
				c1.074,0.81,2.91,1.345,5,1.345s3.926-0.535,5-1.345V9.5z M12.999,6.5c0,1.104-2.238,2-5,2c-2.761,0-4.999-0.896-5-2V5.154
				c1.074,0.81,2.91,1.345,5,1.345s3.926-0.535,5-1.345V6.5z M7.999,5.499c-2.762,0-5-0.896-5-1.999c0-1.105,2.238-2.001,5-2.001
				s5,0.896,5,2.001C12.999,4.604,10.761,5.499,7.999,5.499z"/>
		</g>
	</g>
</g>
<g id="Layer_1">
</g>
</svg>
