<?xml version="1.0" encoding="iso-8859-1"?>
<!-- Generator: Adobe Illustrator 16.0.0, SVG Export Plug-In . SVG Version: 6.00 Build 0)  -->
<!DOCTYPE svg PUBLIC "-//W3C//DTD SVG 1.1//EN" "http://www.w3.org/Graphics/SVG/1.1/DTD/svg11.dtd">
<svg version="1.1" xmlns="http://www.w3.org/2000/svg" xmlns:xlink="http://www.w3.org/1999/xlink" x="0px" y="0px" width="16px"
	 height="16px" viewBox="0 0 16 16" style="enable-background:new 0 0 16 16;" xml:space="preserve">
<g id="ecommerce-diamon" style="enable-background:new    ;">
	<g id="ecommerce-diamon_1_">
		<g>
			<path d="M15.901,5.115L13.72,0.938c-0.127-0.244-0.456-0.443-0.73-0.443h-5.03c-0.002,0-0.005-0.002-0.007-0.002
				c-0.002,0-0.004,0.002-0.006,0.002H3.008c-0.274,0-0.604,0.198-0.733,0.441L0.1,5.034C-0.03,5.276-0.004,5.658,0.156,5.881
				l7.486,9.456c0.08,0.112,0.187,0.169,0.293,0.169s0.212-0.056,0.293-0.166l0.587-0.723l0.094-0.032l-0.022-0.056l6.95-8.568
				C15.999,5.74,16.028,5.359,15.901,5.115z M13.079,1.867l1.37,2.626h-2.412L13.079,1.867z M12.154,1.494l-1.108,2.793L8.963,1.494
				H12.154z M7.957,1.499l2.241,2.994H5.716L7.957,1.499z M6.966,1.494L4.814,4.365l-1.15-2.871H6.966z M2.854,1.975l0.995,2.519
				H1.517L2.854,1.975z M1.114,5.493h2.855L3.965,5.499h0.281l3.062,7.749L1.114,5.493z M7.928,12.137L5.266,5.493h5.3L7.928,12.137
				z M8.532,13.32l3.105-7.821h0.312l-0.004-0.006h2.995L8.532,13.32z"/>
		</g>
	</g>
</g>
<g id="Layer_1">
</g>
</svg>
