<?xml version="1.0" encoding="iso-8859-1"?>
<!-- Generator: Adobe Illustrator 16.0.0, SVG Export Plug-In . SVG Version: 6.00 Build 0)  -->
<!DOCTYPE svg PUBLIC "-//W3C//DTD SVG 1.1//EN" "http://www.w3.org/Graphics/SVG/1.1/DTD/svg11.dtd">
<svg version="1.1" xmlns="http://www.w3.org/2000/svg" xmlns:xlink="http://www.w3.org/1999/xlink" x="0px" y="0px" width="16px"
	 height="16px" viewBox="0 0 16 16" style="enable-background:new 0 0 16 16;" xml:space="preserve">
<g id="ecommerce-shopcart-c" style="enable-background:new    ;">
	<g id="ecommerce-shopcart-c_2_">
		<g>
			<path d="M4.999,13.999c-0.552,0-1,0.447-1,1s0.448,1,1,1s1-0.447,1-1S5.551,13.999,4.999,13.999z M13.999,9.999
				c0.553,0,1-0.447,1-1l1-8c0-0.552-0.447-1-1-1h-12h-3v1h2v3.5v4.5v4h13v-1h-12v-2H13.999z M2.999,1.499
				c0-0.275,0.224-0.5,0.5-0.5h11c0.275,0,0.5,0.225,0.5,0.5l-1,7c0,0.275-0.225,0.5-0.5,0.5h-10c-0.276,0-0.5-0.225-0.5-0.5V1.499z
				 M11.999,13.999c-0.553,0-1,0.447-1,1s0.447,1,1,1s1-0.447,1-1S12.552,13.999,11.999,13.999z"/>
		</g>
	</g>
</g>
<g id="Layer_1">
</g>
</svg>
