<?xml version="1.0" encoding="iso-8859-1"?>
<!-- Generator: Adobe Illustrator 16.0.0, SVG Export Plug-In . SVG Version: 6.00 Build 0)  -->
<!DOCTYPE svg PUBLIC "-//W3C//DTD SVG 1.1//EN" "http://www.w3.org/Graphics/SVG/1.1/DTD/svg11.dtd">
<svg version="1.1" xmlns="http://www.w3.org/2000/svg" xmlns:xlink="http://www.w3.org/1999/xlink" x="0px" y="0px" width="16px"
	 height="16px" viewBox="0 0 16 16" style="enable-background:new 0 0 16 16;" xml:space="preserve">
<g id="ecommerce-suitcase" style="enable-background:new    ;">
	<g id="ecommerce-suitcase_2_">
		<g>
			<path d="M9.999,0h-4v0.999h4V0z M11.999,0.999h-1v1h1c0.553,0,1,0.448,1,1v10c0,0.553-0.447,1-1,1h-1h-1h-4h-1h-1
				c-0.552,0-1-0.447-1-1v-10c0-0.552,0.448-1,1-1h1v-1h-1c-1.104,0-2,0.896-2,2v10c0,1.104,0.896,2,2,2h1v1h1v-1h4v1h1v-1h1
				c1.104,0,2-0.896,2-2v-10C13.999,1.895,13.103,0.999,11.999,0.999z M11.999,2.999h-8v1h8V2.999z M3.999,5v0.999v6
				c0,0.553,0.448,1,1,1h6c0.553,0,1-0.447,1-1v-6V5h-1h-6H3.999z M10.499,5.999h0.5v0.5v0.5v4.5c0,0.275-0.225,0.5-0.5,0.5h-5
				c-0.276,0-0.5-0.225-0.5-0.5v-4.5v-0.5v-0.5h0.5H10.499z"/>
		</g>
	</g>
</g>
<g id="Layer_1">
</g>
</svg>
