<?xml version="1.0" encoding="iso-8859-1"?>
<!-- Generator: Adobe Illustrator 16.0.0, SVG Export Plug-In . SVG Version: 6.00 Build 0)  -->
<!DOCTYPE svg PUBLIC "-//W3C//DTD SVG 1.1//EN" "http://www.w3.org/Graphics/SVG/1.1/DTD/svg11.dtd">
<svg version="1.1" xmlns="http://www.w3.org/2000/svg" xmlns:xlink="http://www.w3.org/1999/xlink" x="0px" y="0px" width="16px"
	 height="16px" viewBox="0 0 16 16" style="enable-background:new 0 0 16 16;" xml:space="preserve">
<g id="ecommerce-creditcard-b" style="enable-background:new    ;">
	<g id="ecommerce-creditcard-b_2_">
		<g>
			<path d="M5.999,10.999h-4v1h4V10.999z M13.999,0.999h-12c-1.105,0-2,0.896-2,2v1v1h16v-1v-1
				C15.999,1.895,15.103,0.999,13.999,0.999z M14.999,3.999h-14v-1c0-0.552,0.448-1,1-1h12c0.553,0,1,0.448,1,1V3.999z
				 M-0.001,7.999v5c0,1.104,0.895,2,2,2h12c1.104,0,2-0.896,2-2v-5v-1h-16V7.999z M0.999,7.999h14v5c0,0.553-0.447,1-1,1h-12
				c-0.552,0-1-0.447-1-1V7.999z"/>
		</g>
	</g>
</g>
<g id="Layer_1">
</g>
</svg>
