<?xml version="1.0" encoding="iso-8859-1"?>
<!-- Generator: Adobe Illustrator 16.0.0, SVG Export Plug-In . SVG Version: 6.00 Build 0)  -->
<!DOCTYPE svg PUBLIC "-//W3C//DTD SVG 1.1//EN" "http://www.w3.org/Graphics/SVG/1.1/DTD/svg11.dtd">
<svg version="1.1" xmlns="http://www.w3.org/2000/svg" xmlns:xlink="http://www.w3.org/1999/xlink" x="0px" y="0px" width="16px"
	 height="16px" viewBox="0 0 16 16" style="enable-background:new 0 0 16 16;" xml:space="preserve">
<g id="ecommerce-bowtie" style="enable-background:new    ;">
	<g id="ecommerce-bowtie_2_">
		<g>
			<path d="M14.499,3.5l-3.775,2.265C10.54,5.603,10.286,5.5,9.999,5.5h-4c-0.288,0-0.542,0.104-0.725,0.265L1.499,3.5
				c-0.828,0-1.5,0.671-1.5,1.5v6c0,0.828,0.671,1.5,1.5,1.5l3.776-2.266c0.182,0.162,0.437,0.266,0.725,0.266h4
				c0.287,0,0.541-0.104,0.725-0.266l3.775,2.266c0.828,0,1.5-0.672,1.5-1.5V5C15.999,4.17,15.327,3.5,14.499,3.5z M4.999,7.499
				h-1.5c-0.276,0-0.5,0.225-0.5,0.5c0,0.276,0.224,0.5,0.5,0.5h1.5v1l-4,2v-7l4,2.333V7.499z M9.999,9.124
				c0,0.207-0.225,0.375-0.5,0.375h-3c-0.276,0-0.5-0.168-0.5-0.375v-2.25c0-0.207,0.224-0.374,0.5-0.374h3
				c0.275,0,0.5,0.167,0.5,0.374V9.124z M14.999,11.499l-4-2v-1h1.5c0.275,0,0.5-0.225,0.5-0.5c0-0.275-0.225-0.5-0.5-0.5h-1.5
				V6.833l4-2.333V11.499z"/>
		</g>
	</g>
</g>
<g id="Layer_1">
</g>
</svg>
