<?xml version="1.0" encoding="iso-8859-1"?>
<!-- Generator: Adobe Illustrator 16.0.0, SVG Export Plug-In . SVG Version: 6.00 Build 0)  -->
<!DOCTYPE svg PUBLIC "-//W3C//DTD SVG 1.1//EN" "http://www.w3.org/Graphics/SVG/1.1/DTD/svg11.dtd">
<svg version="1.1" xmlns="http://www.w3.org/2000/svg" xmlns:xlink="http://www.w3.org/1999/xlink" x="0px" y="0px" width="16px"
	 height="16px" viewBox="0 0 16 16" style="enable-background:new 0 0 16 16;" xml:space="preserve">
<g id="ecommerce-dollar" style="enable-background:new    ;">
	<g id="ecommerce-dollar_1_">
		<g>
			<path d="M8.163,7.494V5.233c0.615,0.083,1.186,0.343,1.623,0.799l0.549-0.633C9.798,4.87,9.073,4.518,8.163,4.445V3.49H7.495
				v0.944c-1.316,0.094-2.27,0.851-2.27,1.919c0,1.276,1.152,1.628,2.27,1.919v2.521c-0.866-0.094-1.535-0.509-1.952-0.976
				l-0.548,0.664c0.548,0.592,1.393,1.026,2.5,1.09v0.923h0.668v-0.923c1.699-0.114,2.336-1.09,2.336-2.022
				C10.499,8.189,9.292,7.795,8.163,7.494z M7.495,7.328C6.749,7.121,6.168,6.872,6.168,6.302c0-0.602,0.548-1.037,1.327-1.089
				V7.328z M8.163,10.804V8.438C8.931,8.656,9.556,8.936,9.556,9.61C9.556,10.108,9.206,10.699,8.163,10.804z M7.999-0.001
				c-4.418,0-8,3.581-8,8c0,4.418,3.582,8,8,8c4.418,0,8-3.582,8-8C15.999,3.58,12.417-0.001,7.999-0.001z M7.999,14.998
				c-3.866,0-7-3.134-7-6.999c0-3.866,3.134-7.001,7-7.001c3.865,0,7,3.135,7,7.001C14.999,11.864,11.864,14.998,7.999,14.998z"/>
		</g>
	</g>
</g>
<g id="Layer_1">
</g>
</svg>
