<?xml version="1.0" encoding="iso-8859-1"?>
<!-- Generator: Adobe Illustrator 16.0.0, SVG Export Plug-In . SVG Version: 6.00 Build 0)  -->
<!DOCTYPE svg PUBLIC "-//W3C//DTD SVG 1.1//EN" "http://www.w3.org/Graphics/SVG/1.1/DTD/svg11.dtd">
<svg version="1.1" xmlns="http://www.w3.org/2000/svg" xmlns:xlink="http://www.w3.org/1999/xlink" x="0px" y="0px" width="16px"
	 height="16px" viewBox="0 0 16 16" style="enable-background:new 0 0 16 16;" xml:space="preserve">
<g id="ecommerce-wallet" style="enable-background:new    ;">
	<g id="ecommerce-wallet_2_">
		<g>
			<path d="M14.999,4h-2.006V3.272v-1.54c0-0.957-0.734-1.733-1.639-1.733H1.639c-0.826,0-1.48,0.656-1.594,1.495h-0.045v0.238v1.54
				v1.731V15c0,0.551,0.447,0.999,1,0.999h14c0.553,0,1-0.448,1-0.999V4.999C15.999,4.446,15.552,4,14.999,4z M0.999,2.999V2.994
				V1.499c0-0.276,0.224-0.5,0.5-0.5h10c0.275,0,0.5,0.224,0.5,0.5v1.5c0,0,0,0,0,0.001v0.994h-11V2.999z M14.999,14.499
				c0,0.276-0.225,0.501-0.5,0.501h-13c-0.276,0-0.5-0.225-0.5-0.501v-9c0-0.275,0.224-0.5,0.5-0.5h13c0.275,0,0.5,0.225,0.5,0.5
				V14.499z M12.491,7.992c-0.828,0-1.5,0.671-1.5,1.499c0,0.829,0.672,1.5,1.5,1.5s1.5-0.671,1.5-1.5
				C13.991,8.663,13.319,7.992,12.491,7.992z M12.499,10.001c-0.275,0-0.5-0.225-0.5-0.5c0-0.276,0.225-0.5,0.5-0.5
				s0.5,0.224,0.5,0.5C12.999,9.776,12.774,10.001,12.499,10.001z"/>
		</g>
	</g>
</g>
<g id="Layer_1">
</g>
</svg>
