<?xml version="1.0" encoding="iso-8859-1"?>
<!-- Generator: Adobe Illustrator 16.0.0, SVG Export Plug-In . SVG Version: 6.00 Build 0)  -->
<!DOCTYPE svg PUBLIC "-//W3C//DTD SVG 1.1//EN" "http://www.w3.org/Graphics/SVG/1.1/DTD/svg11.dtd">
<svg version="1.1" xmlns="http://www.w3.org/2000/svg" xmlns:xlink="http://www.w3.org/1999/xlink" x="0px" y="0px" width="16px"
	 height="16px" viewBox="0 0 16 16" style="enable-background:new 0 0 16 16;" xml:space="preserve">
<g id="ecommerce-gift" style="enable-background:new    ;">
	<g id="ecommerce-gift_2_">
		<g>
			<path d="M11.222,2.999C11.394,2.704,11.499,2.365,11.499,2c0-1.105-0.896-2.001-2-2.001c-0.602,0-1.133,0.271-1.5,0.69
				c-0.366-0.42-0.899-0.69-1.5-0.69c-1.105,0-2,0.896-2,2.001c0,0.365,0.105,0.704,0.277,0.999H0.499V6h1v4v1v5h6h1h6v-5v-1V6h1
				V2.999H11.222z M9.499,1c0.553,0,1,0.448,1,1c0,0.553-0.447,1.001-1,1.001s-1-0.448-1-1.001C8.499,1.448,8.946,1,9.499,1z
				 M6.499,1c0.552,0,1,0.448,1,1c0,0.553-0.448,1.001-1,1.001s-1-0.448-1-1.001C5.499,1.448,5.947,1,6.499,1z M7.499,14.999h-5v-4
				h5V14.999z M7.499,9.999h-5V6h5V9.999z M13.499,14.999h-5v-4h5V14.999z M13.499,9.999h-5V6h5V9.999z M14.499,5h-13V3.999h13V5z"
				/>
		</g>
	</g>
</g>
<g id="Layer_1">
</g>
</svg>
