<?xml version="1.0" encoding="iso-8859-1"?>
<!-- Generator: Adobe Illustrator 16.0.0, SVG Export Plug-In . SVG Version: 6.00 Build 0)  -->
<!DOCTYPE svg PUBLIC "-//W3C//DTD SVG 1.1//EN" "http://www.w3.org/Graphics/SVG/1.1/DTD/svg11.dtd">
<svg version="1.1" xmlns="http://www.w3.org/2000/svg" xmlns:xlink="http://www.w3.org/1999/xlink" x="0px" y="0px" width="16px"
	 height="16px" viewBox="0 0 16 16" style="enable-background:new 0 0 16 16;" xml:space="preserve">
<g id="ecommerce-shop" style="enable-background:new    ;">
	<g id="ecommerce-shop_1_">
		<g>
			<path d="M15.165,6.999l-1.666-5h-1v-2h-9v2h-1l-2,6h1v4v1v3h13v-3v-1v-4h1v-1H15.165z M4.499,0.999h7v1h-3h-1h-3V0.999z
				 M9.728,2.999l1.299,4H8.499v-4H9.728z M7.499,2.999v4H4.97l1.3-4H7.499z M3.166,2.999h0.333h1.528l-1.299,4H1.832L3.166,2.999z
				 M13.499,14.999h-11v-2h11V14.999z M13.499,11.999h-11v-4h5h1h5V11.999z M12.271,6.999l-1.301-4h1.529h0.334l1.332,4H12.271z"/>
		</g>
	</g>
</g>
<g id="Layer_1">
</g>
</svg>
