<?xml version="1.0" encoding="iso-8859-1"?>
<!-- Generator: Adobe Illustrator 16.0.0, SVG Export Plug-In . SVG Version: 6.00 Build 0)  -->
<!DOCTYPE svg PUBLIC "-//W3C//DTD SVG 1.1//EN" "http://www.w3.org/Graphics/SVG/1.1/DTD/svg11.dtd">
<svg version="1.1" xmlns="http://www.w3.org/2000/svg" xmlns:xlink="http://www.w3.org/1999/xlink" x="0px" y="0px" width="16px"
	 height="16px" viewBox="0 0 16 16" style="enable-background:new 0 0 16 16;" xml:space="preserve">
<g id="ecommerce-short" style="enable-background:new    ;">
	<g id="ecommerce-short_1_">
		<g>
			<path d="M14.998,11.839L11.354,2.87c-0.072-0.266-0.616-0.352-0.616-0.352l-0.226-0.001V2.501H5.501v0.017L5.26,2.519
				c0,0-0.544,0.086-0.616,0.352l-3.645,8.969c-0.072,0.266,0.087,0.539,0.355,0.61l4.889,1.031c0.268,0.07,0.544-0.086,0.616-0.353
				l1.139-2.804l1.139,2.804c0.072,0.267,0.348,0.423,0.616,0.353l4.889-1.031C14.911,12.378,15.07,12.104,14.998,11.839z
				 M13.427,11.745l-2.946,0.516c-0.269,0.07-0.544-0.087-0.615-0.353L8.006,7.421l-1.858,4.487
				c-0.072,0.266-0.348,0.423-0.616,0.353l-2.946-0.516c-0.268-0.071-0.427-0.345-0.355-0.61l2.414-5.636h1.858v-1h-1.43
				l0.421-0.981L5.501,3.5h5.011l0.006,0.015l0.422,0.984H9.51v1h1.858l2.414,5.636C13.854,11.4,13.694,11.674,13.427,11.745z"/>
		</g>
	</g>
</g>
<g id="Layer_1">
</g>
</svg>
