<?xml version="1.0" encoding="iso-8859-1"?>
<!-- Generator: Adobe Illustrator 16.0.0, SVG Export Plug-In . SVG Version: 6.00 Build 0)  -->
<!DOCTYPE svg PUBLIC "-//W3C//DTD SVG 1.1//EN" "http://www.w3.org/Graphics/SVG/1.1/DTD/svg11.dtd">
<svg version="1.1" xmlns="http://www.w3.org/2000/svg" xmlns:xlink="http://www.w3.org/1999/xlink" x="0px" y="0px" width="16px"
	 height="16px" viewBox="0 0 16 16" style="enable-background:new 0 0 16 16;" xml:space="preserve">
<g id="ecommerce-tshirt" style="enable-background:new    ;">
	<g id="ecommerce-tshirt_2_">
		<g>
			<path d="M10.999,1.499c0,0-0.5,2.501-3,2.501s-3-2.501-3-2.501l-5,2.501l1,3.999l3-0.499v6.999h4h4V7.5l3,0.499l1-3.999
				L10.999,1.499z M14.319,6.872l-3.32-0.373V7.5v5.999h-3h-3V7.5V6.499L1.677,6.872L1.222,4.506l3.245-1.622
				c0.57,1.037,1.677,2.115,3.533,2.115c1.855,0,2.963-1.078,3.533-2.115l3.244,1.622L14.319,6.872z"/>
		</g>
	</g>
</g>
<g id="Layer_1">
</g>
</svg>
