<?xml version="1.0" encoding="iso-8859-1"?>
<!-- Generator: Adobe Illustrator 16.0.0, SVG Export Plug-In . SVG Version: 6.00 Build 0)  -->
<!DOCTYPE svg PUBLIC "-//W3C//DTD SVG 1.1//EN" "http://www.w3.org/Graphics/SVG/1.1/DTD/svg11.dtd">
<svg version="1.1" xmlns="http://www.w3.org/2000/svg" xmlns:xlink="http://www.w3.org/1999/xlink" x="0px" y="0px" width="16px"
	 height="16px" viewBox="0 0 16 16" style="enable-background:new 0 0 16 16;" xml:space="preserve">
<g id="ecommerce-pounds" style="enable-background:new    ;">
	<g id="ecommerce-pounds_1_">
		<g>
			<path d="M9.157,10.753c-0.572,0-0.859-0.417-1.515-0.417c-0.184,0-0.379,0.041-0.533,0.092c0.42-0.295,0.779-0.721,0.779-1.341
				c0-0.162-0.031-0.305-0.072-0.437h1.249V8.102H7.529C7.181,7.634,6.71,7.248,6.71,6.507c0-0.812,0.676-1.3,1.455-1.3
				c0.625,0,1.127,0.396,1.301,0.833l0.686-0.406C9.772,4.912,9.015,4.496,8.083,4.496c-1.24,0-2.294,0.873-2.294,2.001
				c0,0.741,0.42,1.178,0.789,1.604H5.501V8.65h1.475C7.068,8.833,7.13,9.036,7.13,9.261c0,0.608-0.481,1.167-1.352,1.543
				l0.297,0.64c0.43-0.224,0.86-0.406,1.208-0.406c0.768,0,0.911,0.468,1.833,0.468c0.646,0,1.098-0.203,1.383-0.478l-0.367-0.681
				C9.997,10.529,9.608,10.753,9.157,10.753z M7.999-0.001c-4.418,0-8,3.581-8,8c0,4.418,3.582,8,8,8c4.418,0,8-3.582,8-8
				C15.999,3.58,12.417-0.001,7.999-0.001z M7.999,14.998c-3.866,0-7-3.134-7-6.999c0-3.866,3.134-7.001,7-7.001
				c3.865,0,7,3.135,7,7.001C14.999,11.864,11.864,14.998,7.999,14.998z"/>
		</g>
	</g>
</g>
<g id="Layer_1">
</g>
</svg>
