<?xml version="1.0" encoding="iso-8859-1"?>
<!-- Generator: Adobe Illustrator 16.0.0, SVG Export Plug-In . SVG Version: 6.00 Build 0)  -->
<!DOCTYPE svg PUBLIC "-//W3C//DTD SVG 1.1//EN" "http://www.w3.org/Graphics/SVG/1.1/DTD/svg11.dtd">
<svg version="1.1" xmlns="http://www.w3.org/2000/svg" xmlns:xlink="http://www.w3.org/1999/xlink" x="0px" y="0px" width="16px"
	 height="16px" viewBox="0 0 16 16" style="enable-background:new 0 0 16 16;" xml:space="preserve">
<g id="ecommerce-digital-upload" style="enable-background:new    ;">
	<g id="ecommerce-digital-upload_2_">
		<g>
			<path d="M8.368,4.128C8.339,4.099,8.296,4.106,8.263,4.084C8.216,4.055,8.165,4.034,8.108,4.021c-0.01-0.002-0.02,0.002-0.029,0
				c-0.17-0.039-0.348-0.025-0.481,0.107L4.629,7.083c-0.205,0.204-0.205,0.535,0,0.739c0.205,0.204,0.537,0.204,0.742,0
				l2.128-2.118v7.794c0,0.275,0.223,0.5,0.5,0.5c0.276,0,0.5-0.225,0.5-0.5V5.736l2.096,2.087c0.205,0.204,0.537,0.204,0.742,0
				c0.205-0.204,0.205-0.535,0-0.739L8.368,4.128z M12.499-0.001h-9c-1.657,0-3,1.344-3,3v10c0,1.656,1.343,3,3,3h9
				c1.656,0,3-1.344,3-3v-10C15.499,1.342,14.155-0.001,12.499-0.001z M14.499,12.999c0,1.105-0.896,2-2,2h-9c-1.105,0-2-0.895-2-2
				v-10c0-1.104,0.895-2,2-2h9c1.104,0,2,0.896,2,2V12.999z M11.999,2h-8c-0.276,0-0.5,0.224-0.5,0.5c0,0.275,0.224,0.499,0.5,0.499
				h8c0.275,0,0.5-0.224,0.5-0.499C12.499,2.223,12.274,2,11.999,2z"/>
		</g>
	</g>
</g>
<g id="Layer_1">
</g>
</svg>
