<?xml version="1.0" encoding="iso-8859-1"?>
<!-- Generator: Adobe Illustrator 16.0.0, SVG Export Plug-In . SVG Version: 6.00 Build 0)  -->
<!DOCTYPE svg PUBLIC "-//W3C//DTD SVG 1.1//EN" "http://www.w3.org/Graphics/SVG/1.1/DTD/svg11.dtd">
<svg version="1.1" xmlns="http://www.w3.org/2000/svg" xmlns:xlink="http://www.w3.org/1999/xlink" x="0px" y="0px" width="16px"
	 height="16px" viewBox="0 0 16 16" style="enable-background:new 0 0 16 16;" xml:space="preserve">
<g id="ecommerce-bill" style="enable-background:new    ;">
	<g id="ecommerce-bill_2_">
		<g>
			<path d="M8.163,8.993V6.732c0.615,0.083,1.186,0.342,1.623,0.799l0.549-0.633C9.798,6.369,9.073,6.017,8.163,5.944V4.99H7.495
				v0.943c-1.316,0.094-2.27,0.851-2.27,1.919c0,1.276,1.151,1.628,2.27,1.919v2.521c-0.866-0.094-1.535-0.509-1.952-0.975
				L4.995,11.98c0.548,0.592,1.393,1.027,2.5,1.089v0.924h0.668v-0.924c1.699-0.114,2.336-1.089,2.336-2.021
				C10.499,9.688,9.292,9.295,8.163,8.993z M7.495,8.827C6.749,8.62,6.168,8.371,6.168,7.801c0-0.602,0.548-1.037,1.327-1.09V8.827z
				 M8.163,12.302V9.938c0.768,0.217,1.393,0.497,1.393,1.172C9.556,11.607,9.206,12.198,8.163,12.302z M13.899-0.001l-1.959,2
				l-1.924-2l-2.063,2l-1.988-2l-2.068,2l-1.848-2H0.999v16h14v-16H13.899z M13.999,14.999h-12V1.418l1.164,1.26l0.694,0.751
				l0.736-0.711l1.359-1.314l1.293,1.301l0.696,0.7l0.708-0.688l1.342-1.301l1.229,1.276l0.713,0.742l0.723-0.736l1.344-1.372
				V14.999z"/>
		</g>
	</g>
</g>
<g id="Layer_1">
</g>
</svg>
