<?xml version="1.0" encoding="iso-8859-1"?>
<!-- Generator: Adobe Illustrator 16.0.0, SVG Export Plug-In . SVG Version: 6.00 Build 0)  -->
<!DOCTYPE svg PUBLIC "-//W3C//DTD SVG 1.1//EN" "http://www.w3.org/Graphics/SVG/1.1/DTD/svg11.dtd">
<svg version="1.1" xmlns="http://www.w3.org/2000/svg" xmlns:xlink="http://www.w3.org/1999/xlink" x="0px" y="0px" width="16px"
	 height="16px" viewBox="0 0 16 16" style="enable-background:new 0 0 16 16;" xml:space="preserve">
<g id="ecommerce-euro" style="enable-background:new    ;">
	<g id="ecommerce-euro_2_">
		<g>
			<path d="M10.854,5.999h1.192c-0.63-1.185-1.862-2-3.298-2s-2.667,0.815-3.298,2H4.499c-0.276,0-0.5,0.224-0.5,0.5
				c0,0.275,0.224,0.5,0.5,0.5h0.575C5.025,7.241,4.999,7.491,4.999,7.748c0,0.086,0.02,0.166,0.025,0.251H4.499
				c-0.276,0-0.5,0.224-0.5,0.5s0.224,0.5,0.5,0.5h0.729c0.517,1.452,1.891,2.499,3.521,2.499c1.223,0,2.299-0.594,2.983-1.499
				h-1.409c-0.446,0.313-0.987,0.5-1.574,0.5c-1.066,0-1.979-0.613-2.437-1.5h2.687c0.276,0,0.5-0.224,0.5-0.5s-0.224-0.5-0.5-0.5
				H6.024C6.017,7.915,5.999,7.834,5.999,7.748c0-0.262,0.048-0.51,0.116-0.749h2.884c0.276,0,0.5-0.225,0.5-0.5
				c0-0.276-0.224-0.5-0.5-0.5H6.644c0.505-0.606,1.255-1,2.105-1S10.35,5.393,10.854,5.999z M7.999-0.001c-4.418,0-8,3.581-8,8
				c0,4.418,3.582,8,8,8c4.419,0,8-3.582,8-8C15.999,3.58,12.418-0.001,7.999-0.001z M7.999,14.998c-3.866,0-7-3.134-7-6.999
				c0-3.866,3.134-7.001,7-7.001s7,3.135,7,7.001C14.999,11.864,11.865,14.998,7.999,14.998z"/>
		</g>
	</g>
</g>
<g id="Layer_1">
</g>
</svg>
