<?xml version="1.0" encoding="iso-8859-1"?>
<!-- Generator: Adobe Illustrator 16.0.0, SVG Export Plug-In . SVG Version: 6.00 Build 0)  -->
<!DOCTYPE svg PUBLIC "-//W3C//DTD SVG 1.1//EN" "http://www.w3.org/Graphics/SVG/1.1/DTD/svg11.dtd">
<svg version="1.1" xmlns="http://www.w3.org/2000/svg" xmlns:xlink="http://www.w3.org/1999/xlink" x="0px" y="0px" width="16px"
	 height="16px" viewBox="0 0 16 16" style="enable-background:new 0 0 16 16;" xml:space="preserve">
<g id="ecommerce-market" style="enable-background:new    ;">
	<g id="ecommerce-market_2_">
		<g>
			<path d="M15.999,5.999l-2-6h-12l-2,6h-0.005c0.003,0.916,0.38,1.827,1.005,2.401v7.599h14V8.561
				c0.76-0.552,1.002-1.551,1.004-2.562H15.999z M2.666,0.999h10.667l1.332,4H1.332L2.666,0.999z M13.999,14.999h-12v-2h12V14.999z
				 M13.999,11.999h-12v-3.06c0.15,0.034,0.305,0.06,0.467,0.06c0.751,0,1.572-0.377,2.033-1c0.404,0.615,0.945,1,1.74,1
				c0.715,0,1.345-0.485,1.76-1c0.414,0.515,1.045,1,1.76,1c0.795,0,1.336-0.385,1.74-1c0.461,0.623,1.248,1,2,1
				c0.184,0,0.342-0.025,0.5-0.05V11.999z M13.532,7.999c-1.533,0-1.533-1-1.533-1h-1.008c0,0,0.008,1-1.232,1
				c-1.26,0-1.232-1-1.232-1H7.471c0,0,0.028,1-1.232,1c-1.24,0-1.24-1-1.24-1h-1c0,1-0.83,1-1.533,1c-0.702,0-1.287-1.139-1.456-2
				h13.977C14.987,5.999,14.999,7.999,13.532,7.999z"/>
		</g>
	</g>
</g>
<g id="Layer_1">
</g>
</svg>
