<?xml version="1.0" encoding="iso-8859-1"?>
<!-- Generator: Adobe Illustrator 16.0.0, SVG Export Plug-In . SVG Version: 6.00 Build 0)  -->
<!DOCTYPE svg PUBLIC "-//W3C//DTD SVG 1.1//EN" "http://www.w3.org/Graphics/SVG/1.1/DTD/svg11.dtd">
<svg version="1.1" xmlns="http://www.w3.org/2000/svg" xmlns:xlink="http://www.w3.org/1999/xlink" x="0px" y="0px" width="16px"
	 height="16px" viewBox="0 0 16 16" style="enable-background:new 0 0 16 16;" xml:space="preserve">
<g id="ecommerce-shirt-a" style="enable-background:new    ;">
	<g id="ecommerce-shirt-a_2_">
		<g>
			<path d="M14.499,2h-2V0.999c0-0.552-0.447-1-1-1h-7c-0.552,0-1,0.448-1,1V2h-2c-0.552,0-1,0.947-1,1.499V15
				c0,0.552,0.448,0.999,1,0.999h13c0.553,0,1-0.447,1-0.999V3C15.499,2.448,15.052,2,14.499,2z M4.499,2.178l2.715,2.714
				L4.999,5.999c-0.276,0-0.5-0.224-0.5-0.499V2.178z M7.499,15h-5.5c-0.276,0-0.5-0.225-0.5-0.501V4c0-0.277,0-1,1-1h1v2.999
				c0,0.553,0.448,1,1,1l3-1.285V15z M4.805,1.127C4.782,1.104,4.749,1.11,4.723,1.094c0.081-0.055,0.172-0.095,0.276-0.095h6
				c0.107,0,0.203,0.042,0.285,0.101c-0.033,0.02-0.076,0.015-0.104,0.043l-3.18,3.18L4.805,1.127z M11.499,2.175V5.5
				c0,0.275-0.225,0.499-0.5,0.499L8.782,4.892L11.499,2.175z M14.499,14.499c0,0.276-0.225,0.501-0.5,0.501h-5.5V5.713l3,1.286
				c0.553,0,1-0.447,1-1V3h1c1,0,1,0.723,1,1V14.499z M9.499,9.999h4v-1h-4V9.999z"/>
		</g>
	</g>
</g>
<g id="Layer_1">
</g>
</svg>
