<?xml version="1.0" encoding="iso-8859-1"?>
<!-- Generator: Adobe Illustrator 16.0.0, SVG Export Plug-In . SVG Version: 6.00 Build 0)  -->
<!DOCTYPE svg PUBLIC "-//W3C//DTD SVG 1.1//EN" "http://www.w3.org/Graphics/SVG/1.1/DTD/svg11.dtd">
<svg version="1.1" xmlns="http://www.w3.org/2000/svg" xmlns:xlink="http://www.w3.org/1999/xlink" x="0px" y="0px" width="16px"
	 height="16px" viewBox="0 0 16 16" style="enable-background:new 0 0 16 16;" xml:space="preserve">
<g id="ecommerce-bag" style="enable-background:new    ;">
	<g id="ecommerce-bag_2_">
		<g>
			<path d="M12.999,2h-2.051c-0.23-1.142-1.24-2-2.449-2h-1C6.29,0,5.281,0.858,5.049,2h-2.05c-0.552,0-1,0.447-1,0.999v12
				c0,0.553,0.448,1,1,1h10c0.553,0,1-0.447,1-1v-12C13.999,2.447,13.552,2,12.999,2z M7.499,0.999h1
				c0.65,0,1.191,0.421,1.398,1.001H6.1C6.307,1.419,6.848,0.999,7.499,0.999z M12.999,14.499c0,0.275-0.225,0.5-0.5,0.5h-9
				c-0.276,0-0.5-0.225-0.5-0.5v-1.5h10V14.499z M12.999,11.999h-10V3.5c0-0.277,0.224-0.501,0.5-0.501h1.5v3h1v-3h4v3h1v-3h1.5
				c0.275,0,0.5,0.224,0.5,0.501V11.999z"/>
		</g>
	</g>
</g>
<g id="Layer_1">
</g>
</svg>
