<?xml version="1.0" encoding="iso-8859-1"?>
<!-- Generator: Adobe Illustrator 16.0.0, SVG Export Plug-In . SVG Version: 6.00 Build 0)  -->
<!DOCTYPE svg PUBLIC "-//W3C//DTD SVG 1.1//EN" "http://www.w3.org/Graphics/SVG/1.1/DTD/svg11.dtd">
<svg version="1.1" xmlns="http://www.w3.org/2000/svg" xmlns:xlink="http://www.w3.org/1999/xlink" x="0px" y="0px" width="16px"
	 height="16px" viewBox="0 0 16 16" style="enable-background:new 0 0 16 16;" xml:space="preserve">
<g id="ecommerce-shopcart-a-download" style="enable-background:new    ;">
	<g id="ecommerce-shopcart-a-download_1_">
		<g>
			<path d="M7.162,4.146c-0.202,0.202-0.202,0.529,0,0.731L9.12,6.836c0.006,0.005,0.014,0.003,0.02,0.008
				C9.231,6.939,9.356,7,9.499,7c0.002,0,0.002-0.001,0.004-0.001c0.016,0,0.029-0.008,0.045-0.01c0.1-0.01,0.191-0.048,0.264-0.109
				c0.021-0.016,0.051-0.01,0.07-0.028l1.969-1.97c0.203-0.202,0.203-0.532,0-0.734c-0.203-0.203-0.531-0.203-0.734,0L9.999,5.264
				V0.5c0-0.276-0.225-0.5-0.5-0.5s-0.5,0.224-0.5,0.5v4.753L7.893,4.146C7.691,3.945,7.363,3.945,7.162,4.146z M15.991,2.464
				c-0.002-0.025-0.008-0.048-0.014-0.071c-0.01-0.047-0.023-0.091-0.047-0.132c-0.006-0.009-0.012-0.017-0.018-0.025
				c-0.031-0.049-0.066-0.09-0.111-0.125c-0.01-0.007-0.018-0.012-0.027-0.018c-0.043-0.029-0.088-0.052-0.137-0.066
				c-0.014-0.004-0.021-0.013-0.035-0.016c-0.021-0.006-0.043-0.002-0.066-0.004C15.524,2.005,15.513,2,15.499,2h-0.09
				c-0.008,0-0.014-0.001-0.021,0h-4.389v1H14.8l-1.205,5.035L2.999,8.987V3h5V2h-5V0.999h0.5c0.276,0,0.5-0.224,0.5-0.499
				c0-0.276-0.224-0.5-0.5-0.5h-3c-0.276,0-0.5,0.224-0.5,0.5c0,0.275,0.224,0.499,0.5,0.499h1.5v10.5c0,0.275,0.224,0.5,0.5,0.5
				h2.5h6h4c0.275,0,0.5-0.225,0.5-0.5s-0.225-0.5-0.5-0.5h-12V9.954l10.873-0.977c0.008,0.002,0.014,0.008,0.021,0.01
				c0.285,0.074,0.578-0.09,0.654-0.365l1.432-5.979c0.008-0.026,0.002-0.051,0.006-0.077c0.004-0.022,0.014-0.043,0.014-0.067
				C15.999,2.486,15.993,2.476,15.991,2.464z M8.999,13.999c0,1.104,0.895,2,2,2c1.104,0,2-0.896,2-2c0-1.105-0.896-2-2-2
				C9.894,11.999,8.999,12.894,8.999,13.999z M10.999,12.999c0.553,0,1,0.447,1,1s-0.447,1-1,1s-1-0.447-1-1
				S10.446,12.999,10.999,12.999z M2.999,13.999c0,1.104,0.895,2,2,2c1.104,0,2-0.896,2-2c0-1.105-0.896-2-2-2
				C3.894,11.999,2.999,12.894,2.999,13.999z M4.999,12.999c0.552,0,1,0.447,1,1s-0.448,1-1,1s-1-0.447-1-1
				S4.447,12.999,4.999,12.999z"/>
		</g>
	</g>
</g>
<g id="Layer_1">
</g>
</svg>
