<?xml version="1.0" encoding="iso-8859-1"?>
<!-- Generator: Adobe Illustrator 16.0.0, SVG Export Plug-In . SVG Version: 6.00 Build 0)  -->
<!DOCTYPE svg PUBLIC "-//W3C//DTD SVG 1.1//EN" "http://www.w3.org/Graphics/SVG/1.1/DTD/svg11.dtd">
<svg version="1.1" xmlns="http://www.w3.org/2000/svg" xmlns:xlink="http://www.w3.org/1999/xlink" x="0px" y="0px" width="16px"
	 height="16px" viewBox="0 0 16 16" style="enable-background:new 0 0 16 16;" xml:space="preserve">
<g id="ecommerce-digital-download" style="enable-background:new    ;">
	<g id="ecommerce-digital-download_1_">
		<g>
			<path d="M7.598,11.837c0.022,0.023,0.056,0.016,0.08,0.033c0.088,0.076,0.196,0.129,0.32,0.129c0.143,0,0.27-0.061,0.362-0.158
				c0.002-0.002,0.006-0.002,0.008-0.004l2.969-2.953c0.205-0.205,0.205-0.537,0-0.74c-0.205-0.204-0.537-0.204-0.742,0
				l-2.096,2.088V2.5c0-0.276-0.225-0.5-0.5-0.5c-0.275,0-0.5,0.224-0.5,0.5v7.763L5.371,8.144c-0.205-0.204-0.537-0.204-0.742,0
				c-0.205,0.203-0.205,0.535,0,0.74L7.598,11.837z M11.999,12.999h-8c-0.276,0-0.5,0.225-0.5,0.5s0.224,0.5,0.5,0.5h8
				c0.275,0,0.5-0.225,0.5-0.5S12.274,12.999,11.999,12.999z M12.499,0h-9c-1.657,0-3,1.342-3,2.999v10c0,1.656,1.343,3,3,3h9
				c1.656,0,3-1.344,3-3v-10C15.499,1.341,14.155,0,12.499,0z M14.499,12.999c0,1.104-0.896,2-2,2h-9c-1.105,0-2-0.896-2-2v-10
				c0-1.104,0.895-2,2-2h9c1.104,0,2,0.896,2,2V12.999z"/>
		</g>
	</g>
</g>
<g id="Layer_1">
</g>
</svg>
