<?xml version="1.0" encoding="iso-8859-1"?>
<!-- Generator: Adobe Illustrator 16.0.0, SVG Export Plug-In . SVG Version: 6.00 Build 0)  -->
<!DOCTYPE svg PUBLIC "-//W3C//DTD SVG 1.1//EN" "http://www.w3.org/Graphics/SVG/1.1/DTD/svg11.dtd">
<svg version="1.1" xmlns="http://www.w3.org/2000/svg" xmlns:xlink="http://www.w3.org/1999/xlink" x="0px" y="0px" width="16px"
	 height="16px" viewBox="0 0 16 16" style="enable-background:new 0 0 16 16;" xml:space="preserve">
<g id="ecommerce-bag-b" style="enable-background:new    ;">
	<g id="ecommerce-bag-b_1_">
		<g>
			<path d="M15.999,1.999c0-1.104-0.896-2-2-2h-12c-1.104,0-2,0.896-2,2v1.003c0,0.173,0.029,0.338,0.07,0.499
				C0.028,3.661-0.001,3.826-0.001,4v10c0,1.105,0.896,2,2,2h12c1.104,0,2-0.895,2-2V4c0-0.174-0.029-0.339-0.07-0.499
				c0.041-0.161,0.07-0.326,0.07-0.499V1.999z M14.999,13.999c0,0.553-0.447,1-1,1h-12c-0.552,0-1-0.447-1-1V4.723
				c0.295,0.172,0.634,0.278,1,0.278h12c0.365,0,0.705-0.106,1-0.278V13.999z M14.999,3.001c0,0.552-0.447,1-1,1h-12
				c-0.552,0-1-0.448-1-1V1.999c0-0.552,0.448-0.999,1-0.999h12c0.553,0,1,0.447,1,0.999V3.001z M13.499,7h-2
				c-0.275,0-0.5,0.224-0.5,0.5s0.225,0.5,0.5,0.5h0.5c0,2.209-1.791,4-4,4c-2.209,0-4-1.791-4-4h0.5c0.276,0,0.5-0.223,0.5-0.5
				S4.775,7,4.499,7h-2c-0.276,0-0.5,0.224-0.5,0.5s0.224,0.5,0.5,0.5h0.5c0,2.762,2.238,5,5,5s5-2.238,5-5h0.5
				c0.275,0,0.5-0.223,0.5-0.5S13.774,7,13.499,7z"/>
		</g>
	</g>
</g>
<g id="Layer_1">
</g>
</svg>
