<?xml version="1.0" encoding="iso-8859-1"?>
<!-- Generator: Adobe Illustrator 16.0.0, SVG Export Plug-In . SVG Version: 6.00 Build 0)  -->
<!DOCTYPE svg PUBLIC "-//W3C//DTD SVG 1.1//EN" "http://www.w3.org/Graphics/SVG/1.1/DTD/svg11.dtd">
<svg version="1.1" xmlns="http://www.w3.org/2000/svg" xmlns:xlink="http://www.w3.org/1999/xlink" x="0px" y="0px" width="16px"
	 height="16px" viewBox="0 0 16 16" style="enable-background:new 0 0 16 16;" xml:space="preserve">
<g id="ecommerce-coins-a" style="enable-background:new    ;">
	<g id="ecommerce-coins-a_1_">
		<g>
			<path d="M13.72,6c0.164-0.319,0.279-0.65,0.279-1c0-1.934-2.686-3.501-6-3.501c-3.314,0-6,1.567-6,3.501
				c0,0.35,0.115,0.681,0.278,1C2.114,6.318,1.999,6.649,1.999,6.999c0,0.351,0.115,0.682,0.279,1c-0.164,0.318-0.279,0.65-0.279,1
				s0.115,0.682,0.278,1c-0.164,0.318-0.278,0.65-0.278,1c0,1.934,2.686,3.5,6,3.5c3.314,0,6-1.566,6-3.5
				c0-0.35-0.115-0.682-0.279-1c0.164-0.318,0.279-0.65,0.279-1s-0.115-0.682-0.279-1c0.164-0.319,0.279-0.65,0.279-1
				C13.999,6.649,13.884,6.318,13.72,6z M7.999,13.499c-2.762,0-5-1.119-5-2.5c0-0.02,0.01-0.037,0.011-0.057
				c1.076,0.938,2.908,1.557,4.989,1.557c2.08,0,3.912-0.619,4.988-1.557c0,0.02,0.012,0.037,0.012,0.057
				C12.999,12.38,10.761,13.499,7.999,13.499z M7.999,11.499c-2.762,0-5-1.119-5-2.5c0-0.02,0.01-0.037,0.011-0.057
				c1.076,0.938,2.908,1.557,4.989,1.557c2.08,0,3.912-0.619,4.988-1.557c0,0.02,0.012,0.037,0.012,0.057
				C12.999,10.38,10.761,11.499,7.999,11.499z M7.999,9.499c-2.762,0-5-1.119-5-2.5c0-0.02,0.01-0.037,0.011-0.057
				C4.086,7.88,5.918,8.499,7.999,8.499c2.08,0,3.912-0.619,4.988-1.557c0,0.02,0.012,0.037,0.012,0.057
				C12.999,8.38,10.761,9.499,7.999,9.499z M7.999,7.5c-2.762,0-5-1.12-5-2.5c0-1.381,2.238-2.501,5-2.501s5,1.12,5,2.501
				C12.999,6.379,10.761,7.5,7.999,7.5z"/>
		</g>
	</g>
</g>
<g id="Layer_1">
</g>
</svg>
