<?xml version="1.0" encoding="iso-8859-1"?>
<!-- Generator: Adobe Illustrator 16.0.0, SVG Export Plug-In . SVG Version: 6.00 Build 0)  -->
<!DOCTYPE svg PUBLIC "-//W3C//DTD SVG 1.1//EN" "http://www.w3.org/Graphics/SVG/1.1/DTD/svg11.dtd">
<svg version="1.1" xmlns="http://www.w3.org/2000/svg" xmlns:xlink="http://www.w3.org/1999/xlink" x="0px" y="0px" width="16px"
	 height="16px" viewBox="0 0 16 16" style="enable-background:new 0 0 16 16;" xml:space="preserve">
<g id="ecommerce-shopcart-download" style="enable-background:new    ;">
	<g id="ecommerce-shopcart-download_2_">
		<g>
			<path d="M6.999,13.499c-0.552,0-1,0.447-1,1c0,0.552,0.448,1,1,1s1-0.448,1-1C7.999,13.946,7.551,13.499,6.999,13.499z
				 M7.162,6.646c-0.202,0.202-0.202,0.529,0,0.73l1.958,1.96c0.006,0.005,0.014,0.003,0.02,0.008
				c0.092,0.095,0.217,0.155,0.359,0.155c0.002,0,0.002-0.001,0.004-0.001c0.016,0,0.027-0.008,0.043-0.009
				c0.102-0.011,0.193-0.049,0.268-0.11c0.02-0.016,0.049-0.01,0.068-0.028l1.969-1.97c0.203-0.203,0.203-0.531,0-0.734
				s-0.531-0.203-0.734,0L9.999,7.764V2.998c0-0.276-0.225-0.5-0.5-0.5s-0.5,0.224-0.5,0.5v4.754L7.893,6.646
				C7.69,6.443,7.363,6.443,7.162,6.646z M11.999,13.499c-0.553,0-1,0.447-1,1c0,0.552,0.447,1,1,1s1-0.448,1-1
				C12.999,13.946,12.552,13.499,11.999,13.499z M15.985,5.07c0.002-0.024,0.014-0.046,0.014-0.071c0-0.076-0.02-0.146-0.051-0.21
				c-0.016-0.038-0.037-0.061-0.061-0.093c-0.053-0.067-0.117-0.125-0.197-0.159c-0.016-0.005-0.02-0.022-0.035-0.027
				c-0.051-0.014-0.102-0.013-0.15-0.01c-0.002,0-0.004-0.001-0.006-0.001h-0.012c-0.008,0.001-0.016-0.001-0.023,0h-4.465v1h3.889
				l-1.77,6H6.499c-0.033,0-0.062,0.013-0.093,0.019L5.004,5.499h2.995v-1H4.771L3.979,1.101c0.007-0.034,0.021-0.065,0.021-0.102
				c0-0.248-0.185-0.445-0.421-0.484C3.552,0.508,3.528,0.502,3.502,0.5C3.501,0.5,3.5,0.499,3.499,0.499h-3
				c-0.276,0-0.5,0.224-0.5,0.5s0.224,0.5,0.5,0.5h2.597l2.479,10.637c0.068,0.266,0.328,0.423,0.581,0.353
				c0.038-0.012,0.054-0.051,0.087-0.07c0.076,0.047,0.161,0.081,0.257,0.081h7c0.002,0,0.002-0.001,0.004-0.001
				c0.025-0.002,0.049-0.008,0.074-0.015c0.236-0.038,0.422-0.235,0.422-0.484c0-0.025-0.012-0.047-0.014-0.071l2.006-6.809
				C15.995,5.103,15.981,5.088,15.985,5.07z"/>
		</g>
	</g>
</g>
<g id="Layer_1">
</g>
</svg>
