<?xml version="1.0" encoding="iso-8859-1"?>
<!-- Generator: Adobe Illustrator 16.0.0, SVG Export Plug-In . SVG Version: 6.00 Build 0)  -->
<!DOCTYPE svg PUBLIC "-//W3C//DTD SVG 1.1//EN" "http://www.w3.org/Graphics/SVG/1.1/DTD/svg11.dtd">
<svg version="1.1" xmlns="http://www.w3.org/2000/svg" xmlns:xlink="http://www.w3.org/1999/xlink" x="0px" y="0px" width="16px"
	 height="16px" viewBox="0 0 16 16" style="enable-background:new 0 0 16 16;" xml:space="preserve">
<g id="ecommerce-cash" style="enable-background:new    ;">
	<g id="ecommerce-cash_2_">
		<g>
			<path d="M5.887,5.434c0-0.329,0.294-0.56,0.669-0.56c0.557,0,0.982,0.408,0.982,0.408l0.351-0.691c0,0-0.375-0.414-1.102-0.48
				V3.505H6.25v0.619C5.555,4.243,5.073,4.769,5.073,5.447c0,1.414,2.115,1.335,2.115,2.125c0,0.381-0.307,0.566-0.645,0.566
				c-0.626,0-1.108-0.494-1.108-0.494L4.998,8.282c0,0,0.444,0.52,1.251,0.619v0.605h0.538V8.901
				c0.764-0.105,1.208-0.678,1.208-1.349C7.996,6.079,5.887,6.216,5.887,5.434z M12.999,10.499v-8c0-0.552-0.447-1-1-1h-11
				c-0.552,0-1,0.448-1,1v8c0,0.553,0.448,1,1,1h11C12.552,11.499,12.999,11.052,12.999,10.499z M11.499,10.499h-10
				c-0.276,0-0.5-0.225-0.5-0.5V3c0-0.276,0.224-0.501,0.5-0.501h10c0.275,0,0.5,0.225,0.5,0.501v7
				C11.999,10.274,11.774,10.499,11.499,10.499z M14.999,4.5h-1.5c0.275,0,0.5,0.224,0.5,0.499v0.5h0.5c0.275,0,0.5,0.225,0.5,0.501
				v7c0,0.275-0.225,0.5-0.5,0.5h-10c-0.276,0-0.5-0.225-0.5-0.5v-0.5h-1v1c0,0.553,0.448,1,1,1h11c0.553,0,1-0.447,1-1v-8
				C15.999,4.947,15.552,4.5,14.999,4.5z"/>
		</g>
	</g>
</g>
<g id="Layer_1">
</g>
</svg>
