<?xml version="1.0" encoding="iso-8859-1"?>
<!-- Generator: Adobe Illustrator 16.0.0, SVG Export Plug-In . SVG Version: 6.00 Build 0)  -->
<!DOCTYPE svg PUBLIC "-//W3C//DTD SVG 1.1//EN" "http://www.w3.org/Graphics/SVG/1.1/DTD/svg11.dtd">
<svg version="1.1" xmlns="http://www.w3.org/2000/svg" xmlns:xlink="http://www.w3.org/1999/xlink" x="0px" y="0px" width="16px"
	 height="16px" viewBox="0 0 16 16" style="enable-background:new 0 0 16 16;" xml:space="preserve">
<g id="ecommerce-bill-b" style="enable-background:new    ;">
	<g id="ecommerce-bill-b_2_">
		<g>
			<path d="M9.999,6.999h2V6h-2V6.999z M9.999,8.999h2v-1h-2V8.999z M9.999,10.999h2v-1h-2V10.999z M11.999,2.999h-8v1h8V2.999z
				 M7.999,6h-4v0.999h4V6z M7.999,9.999h-4v1h4V9.999z M0.999-0.001v16h1l2-1.5l1.988,1.5l2.012-1.5l2,1.5l2-1.5l2,1.5h1v-16H0.999
				z M13.999,14.999l-2-1.5l-2,1.5l-2-1.5l-2,1.5l-2-1.5l-2,1.5v-14h12V14.999z M7.999,7.999h-4v1h4V7.999z"/>
		</g>
	</g>
</g>
<g id="Layer_1">
</g>
</svg>
