<?xml version="1.0" encoding="iso-8859-1"?>
<!-- Generator: Adobe Illustrator 16.0.0, SVG Export Plug-In . SVG Version: 6.00 Build 0)  -->
<!DOCTYPE svg PUBLIC "-//W3C//DTD SVG 1.1//EN" "http://www.w3.org/Graphics/SVG/1.1/DTD/svg11.dtd">
<svg version="1.1" xmlns="http://www.w3.org/2000/svg" xmlns:xlink="http://www.w3.org/1999/xlink" x="0px" y="0px" width="16px"
	 height="16px" viewBox="0 0 16 16" style="enable-background:new 0 0 16 16;" xml:space="preserve">
<g id="ecommerce-tag-a-s" style="enable-background:new    ;">
	<g id="ecommerce-tag-a-s_2_">
		<g>
			<path d="M5.499,13.999h5v-1h-5V13.999z M5.499,6.498c0,1.382,1.12,2.501,2.5,2.501c1.381,0,2.5-1.12,2.5-2.501
				c0-1.38-1.119-2.499-2.5-2.499C6.618,3.999,5.499,5.118,5.499,6.498z M9.499,6.498c0,0.829-0.672,1.5-1.5,1.5
				c-0.828,0-1.5-0.671-1.5-1.5c0-0.828,0.671-1.499,1.5-1.499C8.827,4.999,9.499,5.669,9.499,6.498z M7.999-0.001l-5.5,4.364
				v10.628c0,0.557,0.448,1.008,1,1.008h9c0.553,0,1-0.451,1-1.008V4.363L7.999-0.001z M12.499,14.487
				c0,0.277-0.225,0.504-0.5,0.504h-8c-0.276,0-0.5-0.227-0.5-0.504V4.869l4.5-3.87l4.5,3.87V14.487z"/>
		</g>
	</g>
</g>
<g id="Layer_1">
</g>
</svg>
