<?xml version="1.0" encoding="iso-8859-1"?>
<!-- Generator: Adobe Illustrator 16.0.0, SVG Export Plug-In . SVG Version: 6.00 Build 0)  -->
<!DOCTYPE svg PUBLIC "-//W3C//DTD SVG 1.1//EN" "http://www.w3.org/Graphics/SVG/1.1/DTD/svg11.dtd">
<svg version="1.1" xmlns="http://www.w3.org/2000/svg" xmlns:xlink="http://www.w3.org/1999/xlink" x="0px" y="0px" width="16px"
	 height="16px" viewBox="0 0 16 16" style="enable-background:new 0 0 16 16;" xml:space="preserve">
<g id="ecommerce-shirt" style="enable-background:new    ;">
	<g id="ecommerce-shirt_1_">
		<g>
			<path d="M9.499,9.999h4v-1h-4V9.999z M14.499,3h-2.158c-0.502-1.723-2.248-3.001-4.342-3.001S4.16,1.277,3.658,3H1.499
				c-0.552,0-1,0.464-1,1.037v10.926c0,0.572,0.448,1.036,1,1.036h13c0.553,0,1-0.464,1-1.036V4.037C15.499,3.464,15.052,3,14.499,3
				z M7.499,14.999h-5.5c-0.276,0-0.5-0.233-0.5-0.521V4.521c0-0.289,0.224-0.522,0.5-0.522h1.5c0,2.058,1.753,3.731,4,3.955V14.999
				z M4.499,3.999c0-1.656,1.567-3,3.5-3c1.934,0,3.5,1.344,3.5,3c0,1.657-1.566,3-3.5,3C6.066,6.999,4.499,5.656,4.499,3.999z
				 M14.499,14.478c0,0.288-0.225,0.521-0.5,0.521h-5.5V7.954c2.246-0.224,4-1.897,4-3.955h1.5c0.275,0,0.5,0.233,0.5,0.522V14.478z
				"/>
		</g>
	</g>
</g>
<g id="Layer_1">
</g>
</svg>
