<?xml version="1.0" encoding="iso-8859-1"?>
<!-- Generator: Adobe Illustrator 16.0.0, SVG Export Plug-In . SVG Version: 6.00 Build 0)  -->
<!DOCTYPE svg PUBLIC "-//W3C//DTD SVG 1.1//EN" "http://www.w3.org/Graphics/SVG/1.1/DTD/svg11.dtd">
<svg version="1.1" xmlns="http://www.w3.org/2000/svg" xmlns:xlink="http://www.w3.org/1999/xlink" x="0px" y="0px" width="16px"
	 height="16px" viewBox="0 0 16 16" style="enable-background:new 0 0 16 16;" xml:space="preserve">
<g id="ecommerce-tag-c-s" style="enable-background:new    ;">
	<g id="ecommerce-tag-c-s_2_">
		<g>
			<path d="M8.499,13.999h1v-5h-1V13.999z M6.499,13.999h1v-5h-1V13.999z M7.999-0.001L2.499,4.5V15c0,0.552,0.448,0.999,1,0.999h9
				c0.553,0,1-0.447,1-0.999V4.5L7.999-0.001z M12.499,14.5c0,0.275-0.225,0.5-0.5,0.5h-8c-0.276,0-0.5-0.225-0.5-0.5V4.999l4.5-4
				l4.5,4V14.5z M5.999,4.999c0,1.105,0.896,2,2,2c1.104,0,2-0.895,2-2c0-1.104-0.896-2-2-2C6.894,2.999,5.999,3.895,5.999,4.999z
				 M8.999,4.999c0,0.552-0.447,1-1,1c-0.552,0-1-0.448-1-1S7.447,4,7.999,4C8.552,4,8.999,4.447,8.999,4.999z"/>
		</g>
	</g>
</g>
<g id="Layer_1">
</g>
</svg>
