<?xml version="1.0" encoding="iso-8859-1"?>
<!-- Generator: Adobe Illustrator 16.0.0, SVG Export Plug-In . SVG Version: 6.00 Build 0)  -->
<!DOCTYPE svg PUBLIC "-//W3C//DTD SVG 1.1//EN" "http://www.w3.org/Graphics/SVG/1.1/DTD/svg11.dtd">
<svg version="1.1" xmlns="http://www.w3.org/2000/svg" xmlns:xlink="http://www.w3.org/1999/xlink" x="0px" y="0px" width="16px"
	 height="16px" viewBox="0 0 16 16" style="enable-background:new 0 0 16 16;" xml:space="preserve">
<g id="ecommerce-tag-cross" style="enable-background:new    ;">
	<g id="ecommerce-tag-cross_2_">
		<g>
			<path d="M13.163,11.001l-1.664,1.697l-1.664-1.697l-0.832,0.75l1.713,1.746l-1.713,1.748l0.832,0.748l1.664-1.697l1.664,1.697
				l0.832-0.748l-1.713-1.748l1.713-1.746L13.163,11.001z M9.999,5.998c0-1.104-0.896-2-2-2c-1.104,0-2,0.896-2,2s0.896,2,2,2
				C9.103,7.998,9.999,7.102,9.999,5.998z M7.999,6.998c-0.552,0-1-0.447-1-1s0.448-1,1-1c0.553,0,1,0.447,1,1
				S8.552,6.998,7.999,6.998z M7.999,0l-6,4.499v10.5c0,0.551,0.448,1,1,1h10c0.002,0,0.004-0.002,0.006-0.002H6.999v-0.998h-4v-10
				l5-3.75l5,3.75v3.999h1V4.499L7.999,0z"/>
		</g>
	</g>
</g>
<g id="Layer_1">
</g>
</svg>
