<?xml version="1.0" encoding="iso-8859-1"?>
<!-- Generator: Adobe Illustrator 16.0.0, SVG Export Plug-In . SVG Version: 6.00 Build 0)  -->
<!DOCTYPE svg PUBLIC "-//W3C//DTD SVG 1.1//EN" "http://www.w3.org/Graphics/SVG/1.1/DTD/svg11.dtd">
<svg version="1.1" xmlns="http://www.w3.org/2000/svg" xmlns:xlink="http://www.w3.org/1999/xlink" x="0px" y="0px" width="16px"
	 height="16px" viewBox="0 0 16 16" style="enable-background:new 0 0 16 16;" xml:space="preserve">
<g id="ecommerce-mastercard" style="enable-background:new    ;">
	<g id="ecommerce-mastercard_1_">
		<g>
			<path d="M9.499,3.5c-0.529,0-1.029,0.107-1.5,0.275C7.527,3.607,7.028,3.5,6.499,3.5c-2.485,0-4.5,2.015-4.5,4.5
				c0,2.484,2.015,4.5,4.5,4.5c0.529,0,1.028-0.108,1.5-0.276C8.47,12.392,8.97,12.5,9.499,12.5c2.484,0,4.5-2.016,4.5-4.5
				C13.999,5.515,11.983,3.5,9.499,3.5z M6.499,11.499c-1.933,0-3.5-1.566-3.5-3.499c0-1.934,1.567-3.501,3.5-3.501
				c0.062,0,0.12,0.016,0.182,0.019C5.663,5.343,4.999,6.587,4.999,8c0,1.411,0.664,2.656,1.681,3.481
				C6.619,11.484,6.561,11.499,6.499,11.499z M9.499,11.499c-1.933,0-3.5-1.566-3.5-3.499c0-1.934,1.567-3.501,3.5-3.501
				c1.934,0,3.5,1.567,3.5,3.501C12.999,9.933,11.433,11.499,9.499,11.499z M13.999,1.499h-12c-1.105,0-2,0.896-2,2.001v9
				c0,1.104,0.895,1.999,2,1.999h12c1.104,0,2-0.896,2-1.999v-9C15.999,2.395,15.103,1.499,13.999,1.499z M14.999,12.5
				c0,0.552-0.447,0.999-1,0.999h-12c-0.552,0-1-0.447-1-0.999v-9c0-0.553,0.448-1.001,1-1.001h12c0.553,0,1,0.448,1,1.001V12.5z"/>
		</g>
	</g>
</g>
<g id="Layer_1">
</g>
</svg>
