<?xml version="1.0" encoding="iso-8859-1"?>
<!-- Generator: Adobe Illustrator 16.0.0, SVG Export Plug-In . SVG Version: 6.00 Build 0)  -->
<!DOCTYPE svg PUBLIC "-//W3C//DTD SVG 1.1//EN" "http://www.w3.org/Graphics/SVG/1.1/DTD/svg11.dtd">
<svg version="1.1" xmlns="http://www.w3.org/2000/svg" xmlns:xlink="http://www.w3.org/1999/xlink" x="0px" y="0px" width="16px"
	 height="16px" viewBox="0 0 16 16" style="enable-background:new 0 0 16 16;" xml:space="preserve">
<g id="ecommerce-shopcart-a-fill" style="enable-background:new    ;">
	<g id="ecommerce-shopcart-a-fill_2_">
		<g>
			<path d="M8.999,14c0,1.104,0.895,2,2,2c1.104,0,2-0.896,2-2s-0.896-2-2-2C9.894,12,8.999,12.896,8.999,14z M10.999,13.001
				c0.553,0,1,0.447,1,0.999c0,0.553-0.447,1-1,1s-1-0.447-1-1C9.999,13.448,10.446,13.001,10.999,13.001z M15.991,2.466
				c-0.002-0.025-0.008-0.048-0.014-0.071c-0.01-0.047-0.023-0.091-0.047-0.132c-0.006-0.009-0.012-0.017-0.018-0.025
				c-0.031-0.049-0.066-0.09-0.111-0.125c-0.01-0.007-0.018-0.012-0.027-0.018c-0.043-0.029-0.088-0.052-0.137-0.066
				c-0.014-0.004-0.021-0.013-0.035-0.017c-0.021-0.005-0.043-0.001-0.066-0.003C15.524,2.007,15.513,2,15.499,2h-0.09
				c-0.008,0.001-0.014,0-0.02,0h-2.857L9.64,0.3c-0.389-0.403-1.02-0.403-1.406,0L5.882,2H2.999V1h0.5c0.276,0,0.5-0.224,0.5-0.5
				c0-0.275-0.224-0.499-0.5-0.499h-3c-0.276,0-0.5,0.224-0.5,0.499c0,0.276,0.224,0.5,0.5,0.5h1.5v10.501
				c0,0.275,0.224,0.499,0.5,0.499h2.5h6h4c0.275,0,0.5-0.224,0.5-0.499c0-0.276-0.225-0.501-0.5-0.501h-12V9.956l10.873-0.978
				c0.008,0.002,0.014,0.008,0.023,0.011c0.283,0.073,0.576-0.09,0.652-0.366l1.432-5.979c0.008-0.026,0.002-0.051,0.006-0.077
				c0.004-0.022,0.014-0.043,0.014-0.067C15.999,2.487,15.993,2.478,15.991,2.466z M8.937,1.03L10.587,2H7.49L8.937,1.03z
				 M13.595,8.036L2.999,8.989V3.001h1.5h0h1.5h0h6.291l0.014,0.008l0.006-0.008h2.49L13.595,8.036z M2.999,14c0,1.104,0.895,2,2,2
				c1.104,0,2-0.896,2-2s-0.896-2-2-2C3.894,12,2.999,12.896,2.999,14z M4.999,13.001c0.552,0,1,0.447,1,0.999c0,0.553-0.448,1-1,1
				s-1-0.447-1-1C3.999,13.448,4.447,13.001,4.999,13.001z"/>
		</g>
	</g>
</g>
<g id="Layer_1">
</g>
</svg>
