<?xml version="1.0" encoding="iso-8859-1"?>
<!-- Generator: Adobe Illustrator 16.0.0, SVG Export Plug-In . SVG Version: 6.00 Build 0)  -->
<!DOCTYPE svg PUBLIC "-//W3C//DTD SVG 1.1//EN" "http://www.w3.org/Graphics/SVG/1.1/DTD/svg11.dtd">
<svg version="1.1" xmlns="http://www.w3.org/2000/svg" xmlns:xlink="http://www.w3.org/1999/xlink" x="0px" y="0px" width="16px"
	 height="16px" viewBox="0 0 16 16" style="enable-background:new 0 0 16 16;" xml:space="preserve">
<g id="ecommerce-tag-minus" style="enable-background:new    ;">
	<g id="ecommerce-tag-minus_2_">
		<g>
			<path d="M7.999,12.997h5v-1h-5V12.997z M7.999-0.001l-6,4.499v10.501c0,0.551,0.448,1,1,1h4v-1h-4v-10l5-3.751l5,3.751v3.998h1
				V4.498L7.999-0.001z M9.999,5.997c0-1.104-0.896-2-2-2c-1.105,0-2,0.896-2,2c0,1.105,0.895,2.001,2,2.001
				C9.103,7.998,9.999,7.103,9.999,5.997z M6.999,5.997c0-0.553,0.448-1,1-1c0.553,0,1,0.447,1,1s-0.447,1-1,1
				C7.447,6.997,6.999,6.55,6.999,5.997z"/>
		</g>
	</g>
</g>
<g id="Layer_1">
</g>
</svg>
