<?xml version="1.0" encoding="iso-8859-1"?>
<!-- Generator: Adobe Illustrator 16.0.0, SVG Export Plug-In . SVG Version: 6.00 Build 0)  -->
<!DOCTYPE svg PUBLIC "-//W3C//DTD SVG 1.1//EN" "http://www.w3.org/Graphics/SVG/1.1/DTD/svg11.dtd">
<svg version="1.1" xmlns="http://www.w3.org/2000/svg" xmlns:xlink="http://www.w3.org/1999/xlink" x="0px" y="0px" width="16px"
	 height="16px" viewBox="0 0 16 16" style="enable-background:new 0 0 16 16;" xml:space="preserve">
<g id="ecommerce-tracking" style="enable-background:new    ;">
	<g id="ecommerce-tracking_1_">
		<g>
			<path d="M0.499,7.006h15c0.006,0,0.012-0.003,0.018-0.003c0.002,0,0.002-0.001,0.002-0.001c0.123-0.005,0.232-0.053,0.316-0.131
				c0.006-0.005,0.016-0.003,0.021-0.008c0.004-0.006,0.002-0.015,0.008-0.021c0.076-0.084,0.125-0.193,0.131-0.316
				c0-0.001,0-0.001,0-0.002c0-0.007,0.004-0.012,0.004-0.019c0-0.18-0.102-0.33-0.244-0.418l-4.951-4.953
				c-0.188-0.186-0.49-0.186-0.676,0c-0.188,0.187-0.188,0.489,0,0.676l4.195,4.195H0.499c-0.276,0-0.5,0.225-0.5,0.5
				C-0.001,6.782,0.223,7.006,0.499,7.006z M15.499,9.006h-15c-0.007,0-0.012,0.004-0.019,0.004c0,0-0.001,0.002-0.001,0.002
				C0.356,9.016,0.247,9.064,0.163,9.141C0.157,9.146,0.148,9.145,0.142,9.148C0.137,9.154,0.139,9.164,0.134,9.17
				C0.056,9.254,0.008,9.363,0.003,9.486h0c0,0.008-0.003,0.014-0.003,0.02c0,0.18,0.101,0.33,0.244,0.418l4.952,4.939
				c0.187,0.186,0.489,0.186,0.675,0s0.187-0.488,0-0.674l-4.195-4.186h13.824c0.275,0,0.5-0.223,0.5-0.498
				C15.999,9.229,15.774,9.006,15.499,9.006z"/>
		</g>
	</g>
</g>
<g id="Layer_1">
</g>
</svg>
