<?xml version="1.0" encoding="iso-8859-1"?>
<!-- Generator: Adobe Illustrator 16.0.0, SVG Export Plug-In . SVG Version: 6.00 Build 0)  -->
<!DOCTYPE svg PUBLIC "-//W3C//DTD SVG 1.1//EN" "http://www.w3.org/Graphics/SVG/1.1/DTD/svg11.dtd">
<svg version="1.1" xmlns="http://www.w3.org/2000/svg" xmlns:xlink="http://www.w3.org/1999/xlink" x="0px" y="0px" width="16px"
	 height="16px" viewBox="0 0 16 16" style="enable-background:new 0 0 16 16;" xml:space="preserve">
<g id="ecommerce-creditcard" style="enable-background:new    ;">
	<g id="ecommerce-creditcard_2_">
		<g>
			<path d="M7.999,4.499c-1.657,0-3,1.344-3,3c0,1.657,1.343,3,3,3c1.656,0,3-1.343,3-3C10.999,5.843,9.655,4.499,7.999,4.499z
				 M7.999,9.499c-1.105,0-2-0.896-2-2s0.896-2,2-2c1.104,0,2,0.896,2,2S9.103,9.499,7.999,9.499z M13.999,1.499h-12
				c-1.105,0-2,0.896-2,2.001v9c0,1.104,0.895,1.999,2,1.999h12c1.104,0,2-0.896,2-1.999v-9C15.999,2.395,15.103,1.499,13.999,1.499
				z M14.999,12.5c0,0.552-0.447,0.999-1,0.999h-2.752l3.752-3.751V12.5z M14.999,8.251l-5.248,5.248H1.999
				c-0.553,0-1-0.447-1-0.999v-9c0-0.553,0.447-1.001,1-1.001h12c0.553,0,1,0.448,1,1.001V8.251z"/>
		</g>
	</g>
</g>
<g id="Layer_1">
</g>
</svg>
