<?xml version="1.0" encoding="iso-8859-1"?>
<!-- Generator: Adobe Illustrator 16.0.0, SVG Export Plug-In . SVG Version: 6.00 Build 0)  -->
<!DOCTYPE svg PUBLIC "-//W3C//DTD SVG 1.1//EN" "http://www.w3.org/Graphics/SVG/1.1/DTD/svg11.dtd">
<svg version="1.1" xmlns="http://www.w3.org/2000/svg" xmlns:xlink="http://www.w3.org/1999/xlink" x="0px" y="0px" width="16px"
	 height="16px" viewBox="0 0 16 16" style="enable-background:new 0 0 16 16;" xml:space="preserve">
<g id="ecommerce-tag-c" style="enable-background:new    ;">
	<g id="ecommerce-tag-c_1_">
		<g>
			<path d="M5.749,11.454l0.708,0.707l3.539-3.536L9.287,7.917L5.749,11.454z M7.872,6.504L4.333,10.04l0.708,0.707L8.58,7.211
				L7.872,6.504z M10.414,2.792c-0.771,0.771-0.771,2.022,0,2.793c0.772,0.771,2.024,0.771,2.796,0c0.772-0.771,0.772-2.021,0-2.793
				C12.438,2.021,11.187,2.021,10.414,2.792z M12.512,4.886c-0.387,0.386-1.013,0.386-1.398,0s-0.386-1.01,0-1.396
				s1.012-0.386,1.398,0C12.897,3.876,12.897,4.5,12.512,4.886z M15.307,0.697L8.317,0l-8.037,8.03
				c-0.386,0.386-0.386,1.011,0,1.396l6.29,6.284c0.386,0.385,1.012,0.385,1.398,0l8.037-8.03L15.307,0.697z M7.62,14.663
				c-0.193,0.192-0.506,0.192-0.699,0L1.329,9.077c-0.193-0.193-0.193-0.506,0-0.698l7.338-7.333l5.941,0.349l0.35,5.936
				L7.62,14.663z"/>
		</g>
	</g>
</g>
<g id="Layer_1">
</g>
</svg>
