<?xml version="1.0" encoding="iso-8859-1"?>
<!-- Generator: Adobe Illustrator 16.0.0, SVG Export Plug-In . SVG Version: 6.00 Build 0)  -->
<!DOCTYPE svg PUBLIC "-//W3C//DTD SVG 1.1//EN" "http://www.w3.org/Graphics/SVG/1.1/DTD/svg11.dtd">
<svg version="1.1" xmlns="http://www.w3.org/2000/svg" xmlns:xlink="http://www.w3.org/1999/xlink" x="0px" y="0px" width="16px"
	 height="16px" viewBox="0 0 16 16" style="enable-background:new 0 0 16 16;" xml:space="preserve">
<g id="ecommerce-jeans" style="enable-background:new    ;">
	<g id="ecommerce-jeans_2_">
		<g>
			<path d="M14.99,14.34L11.354,0.372c-0.048-0.179-0.188-0.299-0.355-0.345V0.002h-0.997C10,0.002,10,0,9.998,0H5.999
				C5.998,0,5.998,0.002,5.996,0.002H4.999v0.025C4.833,0.073,4.691,0.193,4.644,0.372L1.007,14.34
				c-0.072,0.266,0.087,0.539,0.355,0.61l3.878,1.03c0.268,0.071,0.543-0.086,0.615-0.352l2.144-8.237l2.145,8.237
				c0.071,0.266,0.347,0.423,0.614,0.352l3.878-1.03C14.903,14.879,15.063,14.605,14.99,14.34z M13.406,14.245l-1.938,0.516
				c-0.268,0.071-0.543-0.085-0.615-0.352L8.029,3.501H7.967L5.145,14.409c-0.072,0.267-0.347,0.423-0.615,0.352l-1.939-0.516
				c-0.268-0.071-0.426-0.343-0.354-0.609L4.989,3.001h1.51V2H5.248l0.251-0.998h4.999L10.75,2H9.498v1.001h1.511l2.753,10.635
				C13.833,13.902,13.674,14.174,13.406,14.245z"/>
		</g>
	</g>
</g>
<g id="Layer_1">
</g>
</svg>
