<?xml version="1.0" encoding="iso-8859-1"?>
<!-- Generator: Adobe Illustrator 16.0.0, SVG Export Plug-In . SVG Version: 6.00 Build 0)  -->
<!DOCTYPE svg PUBLIC "-//W3C//DTD SVG 1.1//EN" "http://www.w3.org/Graphics/SVG/1.1/DTD/svg11.dtd">
<svg version="1.1" xmlns="http://www.w3.org/2000/svg" xmlns:xlink="http://www.w3.org/1999/xlink" x="0px" y="0px" width="16px"
	 height="16px" viewBox="0 0 16 16" style="enable-background:new 0 0 16 16;" xml:space="preserve">
<g id="editorial-left-align" style="enable-background:new    ;">
	<g id="editorial-left-align_2_">
		<g>
			<path d="M1.5,2.499h13c0.275,0,0.5-0.224,0.5-0.5C15,1.723,14.775,1.5,14.5,1.5h-13C1.223,1.5,1,1.723,1,1.999
				C1,2.275,1.223,2.499,1.5,2.499z M1.5,6.499h9c0.275,0,0.5-0.224,0.5-0.5s-0.225-0.5-0.5-0.5h-9c-0.276,0-0.5,0.224-0.5,0.5
				S1.223,6.499,1.5,6.499z M9,13.499H1.5c-0.276,0-0.5,0.225-0.5,0.5c0,0.277,0.224,0.5,0.5,0.5H9c0.276,0,0.5-0.223,0.5-0.5
				C9.5,13.724,9.275,13.499,9,13.499z M14.5,9.499h-13c-0.276,0-0.5,0.223-0.5,0.5c0,0.275,0.224,0.5,0.5,0.5h13
				c0.275,0,0.5-0.225,0.5-0.5C15,9.722,14.775,9.499,14.5,9.499z"/>
		</g>
	</g>
</g>
<g id="Layer_1">
</g>
</svg>
