<?xml version="1.0" encoding="iso-8859-1"?>
<!-- Generator: Adobe Illustrator 16.0.0, SVG Export Plug-In . SVG Version: 6.00 Build 0)  -->
<!DOCTYPE svg PUBLIC "-//W3C//DTD SVG 1.1//EN" "http://www.w3.org/Graphics/SVG/1.1/DTD/svg11.dtd">
<svg version="1.1" xmlns="http://www.w3.org/2000/svg" xmlns:xlink="http://www.w3.org/1999/xlink" x="0px" y="0px" width="16px"
	 height="16px" viewBox="0 0 16 16" style="enable-background:new 0 0 16 16;" xml:space="preserve">
<g id="editorial-right-align" style="enable-background:new    ;">
	<g id="editorial-right-align_2_">
		<g>
			<path d="M14.558,13.499H6.99c-0.279,0-0.505,0.223-0.505,0.5c0,0.275,0.226,0.5,0.505,0.5h7.567c0.278,0,0.504-0.225,0.504-0.5
				C15.062,13.722,14.836,13.499,14.558,13.499z M1.44,2.5h13.117c0.278,0,0.504-0.225,0.504-0.501c0-0.275-0.226-0.499-0.504-0.499
				H1.44c-0.278,0-0.505,0.224-0.505,0.499C0.936,2.275,1.162,2.5,1.44,2.5z M14.558,5.499H5.477c-0.278,0-0.505,0.224-0.505,0.5
				s0.227,0.5,0.505,0.5h9.081c0.278,0,0.504-0.224,0.504-0.5S14.836,5.499,14.558,5.499z M14.558,9.499H1.44
				c-0.278,0-0.505,0.223-0.505,0.5c0,0.275,0.227,0.5,0.505,0.5h13.117c0.278,0,0.504-0.225,0.504-0.5
				C15.062,9.722,14.836,9.499,14.558,9.499z"/>
		</g>
	</g>
</g>
<g id="Layer_1">
</g>
</svg>
