<?xml version="1.0" encoding="iso-8859-1"?>
<!-- Generator: Adobe Illustrator 16.0.0, SVG Export Plug-In . SVG Version: 6.00 Build 0)  -->
<!DOCTYPE svg PUBLIC "-//W3C//DTD SVG 1.1//EN" "http://www.w3.org/Graphics/SVG/1.1/DTD/svg11.dtd">
<svg version="1.1" xmlns="http://www.w3.org/2000/svg" xmlns:xlink="http://www.w3.org/1999/xlink" x="0px" y="0px" width="16px"
	 height="16px" viewBox="0 0 16 16" style="enable-background:new 0 0 16 16;" xml:space="preserve">
<g id="editorial-trash-a" style="enable-background:new    ;">
	<g id="editorial-trash-a_2_">
		<g>
			<path d="M14.999,1.999h-1.5h-3V0.5c0-0.276-0.224-0.501-0.5-0.501h-4c-0.276,0-0.5,0.225-0.5,0.501v1.499h-3h-1.5
				c-0.276,0-0.5,0.225-0.5,0.5c0,0.276,0.224,0.5,0.5,0.5h0.5v12c0,0.553,0.448,1,1,1h11c0.553,0,1-0.447,1-1v-12h0.5
				c0.276,0,0.5-0.224,0.5-0.5C15.499,2.223,15.275,1.999,14.999,1.999z M6.499,1h3v0.999h-3V1z M13.499,4L13.499,4v10.5
				c0,0.275-0.224,0.5-0.5,0.5h-10c-0.276,0-0.5-0.225-0.5-0.5v-10.5v-0.5v-0.5h0.5h10h0.5V4z"/>
		</g>
	</g>
</g>
<g id="Layer_1">
</g>
</svg>
