<?xml version="1.0" encoding="iso-8859-1"?>
<!-- Generator: Adobe Illustrator 16.0.0, SVG Export Plug-In . SVG Version: 6.00 Build 0)  -->
<!DOCTYPE svg PUBLIC "-//W3C//DTD SVG 1.1//EN" "http://www.w3.org/Graphics/SVG/1.1/DTD/svg11.dtd">
<svg version="1.1" xmlns="http://www.w3.org/2000/svg" xmlns:xlink="http://www.w3.org/1999/xlink" x="0px" y="0px" width="16px"
	 height="16px" viewBox="0 0 16 16" style="enable-background:new 0 0 16 16;" xml:space="preserve">
<g id="editorial-pen" style="enable-background:new    ;">
	<g id="editorial-pen_2_">
		<g>
			<path d="M6.998,14.996v1h8.999v-1H6.998z M10.968,4.867l1.025-1.734L6.665,0.13L6.152,0.997l-0.888-0.5V0.496l-0.889-0.5
				L1.3,5.197l0.889,0.501l2.563-4.335L5.64,1.864L0,11.399l1.11,0.626l-0.872,2.976l1.775,1.001l2.204-2.225l1.11,0.625l5.275-8.92
				L10.968,4.867z M2.083,14.885l-0.889-0.501l0.729-1.899l1.48,0.834L2.083,14.885z M4.953,13.035l-0.889-0.501l-1.438-0.811
				l-0.225-0.127l-1-0.564l4.613-7.801l3.552,2.002L4.953,13.035z M10.079,4.366L6.527,2.364L7.04,1.498l3.552,2.001L10.079,4.366z"
				/>
		</g>
	</g>
</g>
<g id="Layer_1">
</g>
</svg>
