<?xml version="1.0" encoding="iso-8859-1"?>
<!-- Generator: Adobe Illustrator 16.0.0, SVG Export Plug-In . SVG Version: 6.00 Build 0)  -->
<!DOCTYPE svg PUBLIC "-//W3C//DTD SVG 1.1//EN" "http://www.w3.org/Graphics/SVG/1.1/DTD/svg11.dtd">
<svg version="1.1" xmlns="http://www.w3.org/2000/svg" xmlns:xlink="http://www.w3.org/1999/xlink" x="0px" y="0px" width="16px"
	 height="16px" viewBox="0 0 16 16" style="enable-background:new 0 0 16 16;" xml:space="preserve">
<g id="editorial-pencil-a-s" style="enable-background:new    ;">
	<g id="editorial-pencil-a-s_1_">
		<g>
			<path d="M7.999-0.001c-1.657,0-2,1.343-2,3v1v1v1v6.5c0,1.657,2,3.5,2,3.5s2-1.843,2-3.5v-6.5v-1v-1v-1
				C9.999,1.342,9.655-0.001,7.999-0.001z M8.999,12.499c0,1.104-1,2-1,2s-1-0.896-1-2v-6.5h2V12.499z M8.999,4.999h-2v-1h2V4.999z
				 M8.999,2.999h-2c0-1.104-0.105-2,1-2C9.103,0.999,8.999,1.895,8.999,2.999z"/>
		</g>
	</g>
</g>
<g id="Layer_1">
</g>
</svg>
