<?xml version="1.0" encoding="iso-8859-1"?>
<!-- Generator: Adobe Illustrator 16.0.0, SVG Export Plug-In . SVG Version: 6.00 Build 0)  -->
<!DOCTYPE svg PUBLIC "-//W3C//DTD SVG 1.1//EN" "http://www.w3.org/Graphics/SVG/1.1/DTD/svg11.dtd">
<svg version="1.1" xmlns="http://www.w3.org/2000/svg" xmlns:xlink="http://www.w3.org/1999/xlink" x="0px" y="0px" width="16px"
	 height="16px" viewBox="0 0 16 16" style="enable-background:new 0 0 16 16;" xml:space="preserve">
<g id="editorial-trash" style="enable-background:new    ;">
	<g id="editorial-trash_2_">
		<g>
			<path d="M13.499,1.999h-3V0.5c0-0.276-0.224-0.501-0.5-0.501h-4c-0.276,0-0.5,0.225-0.5,0.501v1.499h-3c-0.553,0-1,0.448-1,1v1
				c0,0.553,0.447,1.001,1,1.001v10c0,0.553,0.447,1,1,1h9c0.553,0,1-0.447,1-1V5c0.553,0,1-0.448,1-1.001v-1
				C14.499,2.447,14.052,1.999,13.499,1.999z M6.499,1h3v0.999h-3V1z M12.499,5.499V6v8.5c0,0.275-0.224,0.5-0.5,0.5h-8
				c-0.276,0-0.5-0.225-0.5-0.5V6V5.499V5h0.5h8h0.5V5.499z M12.999,3.999h-0.5h-9h-0.5c-0.276,0-0.5-0.224-0.5-0.5
				c0-0.275,0.224-0.5,0.5-0.5h3h4h3c0.276,0,0.5,0.225,0.5,0.5C13.499,3.775,13.275,3.999,12.999,3.999z"/>
		</g>
	</g>
</g>
<g id="Layer_1">
</g>
</svg>
