<?xml version="1.0" encoding="iso-8859-1"?>
<!-- Generator: Adobe Illustrator 16.0.0, SVG Export Plug-In . SVG Version: 6.00 Build 0)  -->
<!DOCTYPE svg PUBLIC "-//W3C//DTD SVG 1.1//EN" "http://www.w3.org/Graphics/SVG/1.1/DTD/svg11.dtd">
<svg version="1.1" xmlns="http://www.w3.org/2000/svg" xmlns:xlink="http://www.w3.org/1999/xlink" x="0px" y="0px" width="16px"
	 height="16px" viewBox="0 0 16 16" style="enable-background:new 0 0 16 16;" xml:space="preserve">
<g id="editorial-pencil-a" style="enable-background:new    ;">
	<g id="editorial-pencil-a_2_">
		<g>
			<path d="M12.467,0.303c-1.528-0.834-2.561,0.164-3.442,1.609L8.492,2.785L7.959,3.657V3.656L7.702,4.077L2.9,11.939
				c-0.882,1.444-0.02,4.059-0.02,4.059s2.827-0.6,3.708-2.045l6.125-10.027C13.596,2.481,13.995,1.137,12.467,0.303z M5.667,13.449
				C5.079,14.413,3.68,14.69,3.68,14.69s-0.445-1.284,0.143-2.248l4.526-7.411l1.845,1.007L5.667,13.449z M10.727,5.167L8.882,4.16
				l0.532-0.872l1.845,1.007L10.727,5.167z M11.791,3.422L9.946,2.416c0.589-0.963,0.969-1.797,1.987-1.241
				C12.953,1.731,12.38,2.459,11.791,3.422z"/>
		</g>
	</g>
</g>
<g id="Layer_1">
</g>
</svg>
