<?xml version="1.0" encoding="iso-8859-1"?>
<!-- Generator: Adobe Illustrator 16.0.0, SVG Export Plug-In . SVG Version: 6.00 Build 0)  -->
<!DOCTYPE svg PUBLIC "-//W3C//DTD SVG 1.1//EN" "http://www.w3.org/Graphics/SVG/1.1/DTD/svg11.dtd">
<svg version="1.1" xmlns="http://www.w3.org/2000/svg" xmlns:xlink="http://www.w3.org/1999/xlink" x="0px" y="0px" width="16px"
	 height="16px" viewBox="0 0 16 16" style="enable-background:new 0 0 16 16;" xml:space="preserve">
<g id="editorial-brush" style="enable-background:new    ;">
	<g id="editorial-brush_1_">
		<g>
			<path d="M16.699,4.396c0.39-0.39,0.39-1.02,0-1.408l-0.704-0.703c-0.39-0.389-1.021-0.389-1.409,0L9.154,7.71L8.449,8.413
				L7.04,9.82c-0.06,0.061-0.093,0.134-0.135,0.203C6.12,9.871,5.056,9.958,4,10.979c-1.671,1.613,1,3.492-2,4.989
				c0,0,5.852,0.481,7-1.995c0.308-0.665,0.216-1.354,0.007-1.943c0.049-0.033,0.104-0.054,0.147-0.098L16.699,4.396z M14.938,3.341
				c0.194-0.194,0.51-0.194,0.704,0s0.194,0.509,0,0.703l-5.079,5.073L9.858,8.413L14.938,3.341z M7.999,13.973
				C7.25,15.094,4,14.97,4,14.97c1-0.997-0.275-2.22,1-3.492c0.731-0.729,1.341-0.862,1.776-0.812
				c0.03,0.205,0.106,0.405,0.264,0.563l0.705,0.703c0.134,0.134,0.299,0.205,0.471,0.246C8.389,12.701,8.426,13.333,7.999,13.973z
				 M8.802,10.877c-0.195,0.194-0.51,0.194-0.705,0c-0.195-0.194-0.195-0.51,0-0.704l1.057-1.056l0.704,0.704L8.802,10.877z"/>
		</g>
	</g>
</g>
<g id="Layer_1">
</g>
</svg>
