<?xml version="1.0" encoding="iso-8859-1"?>
<!-- Generator: Adobe Illustrator 16.0.0, SVG Export Plug-In . SVG Version: 6.00 Build 0)  -->
<!DOCTYPE svg PUBLIC "-//W3C//DTD SVG 1.1//EN" "http://www.w3.org/Graphics/SVG/1.1/DTD/svg11.dtd">
<svg version="1.1" xmlns="http://www.w3.org/2000/svg" xmlns:xlink="http://www.w3.org/1999/xlink" x="0px" y="0px" width="16px"
	 height="16px" viewBox="0 0 16 16" style="enable-background:new 0 0 16 16;" xml:space="preserve">
<g id="editorial-redo" style="enable-background:new    ;">
	<g id="editorial-redo_1_">
		<g>
			<path d="M14.5,4.499h-2.502c-0.979-2.348-3.295-4-5.999-4c-3.59,0-6.5,2.91-6.5,6.5s2.91,6.5,6.5,6.5
				c1.84,0,3.493-0.771,4.676-1.999H9.148C8.255,12.125,7.173,12.499,6,12.499c-3.038,0-5.5-2.462-5.5-5.5
				c0-3.037,2.462-5.5,5.5-5.5c2.133,0,3.959,1.227,4.874,3H9.5l1.988,2.386c0,0.039,0.012,0.075,0.012,0.114h0.084L12,7.499
				l0.416-0.5H12.5c0-0.03-0.008-0.059-0.01-0.089L14.5,4.499z"/>
		</g>
	</g>
</g>
<g id="Layer_1">
</g>
</svg>
