<?xml version="1.0" encoding="iso-8859-1"?>
<!-- Generator: Adobe Illustrator 16.0.0, SVG Export Plug-In . SVG Version: 6.00 Build 0)  -->
<!DOCTYPE svg PUBLIC "-//W3C//DTD SVG 1.1//EN" "http://www.w3.org/Graphics/SVG/1.1/DTD/svg11.dtd">
<svg version="1.1" xmlns="http://www.w3.org/2000/svg" xmlns:xlink="http://www.w3.org/1999/xlink" x="0px" y="0px" width="16px"
	 height="16px" viewBox="0 0 16 16" style="enable-background:new 0 0 16 16;" xml:space="preserve">
<g id="editorial-pencil-s" style="enable-background:new    ;">
	<g id="editorial-pencil-s_1_">
		<g>
			<path d="M7.999-0.001c-1.388,0-2.513,1.119-2.513,2.5v0.5v1v5v1.5v1.5l2.011,4h1.005l2.012-4v-1.5v-1.5v-5v-1v-0.5
				C10.513,1.118,9.388-0.001,7.999-0.001z M7.999,14.999l-1.508-3h3.016L7.999,14.999z M9.507,8.999v2H6.491v-2v-5h3.016V8.999z
				 M9.507,2.999H6.491v-0.5c0-0.828,0.675-1.5,1.508-1.5s1.508,0.672,1.508,1.5V2.999z"/>
		</g>
	</g>
</g>
<g id="Layer_1">
</g>
</svg>
