<?xml version="1.0" encoding="iso-8859-1"?>
<!-- Generator: Adobe Illustrator 16.0.0, SVG Export Plug-In . SVG Version: 6.00 Build 0)  -->
<!DOCTYPE svg PUBLIC "-//W3C//DTD SVG 1.1//EN" "http://www.w3.org/Graphics/SVG/1.1/DTD/svg11.dtd">
<svg version="1.1" xmlns="http://www.w3.org/2000/svg" xmlns:xlink="http://www.w3.org/1999/xlink" x="0px" y="0px" width="16px"
	 height="16px" viewBox="0 0 16 16" style="enable-background:new 0 0 16 16;" xml:space="preserve">
<g id="editorial-pencil" style="enable-background:new    ;">
	<g id="editorial-pencil_2_">
		<g>
			<path style="fill-rule:evenodd;clip-rule:evenodd;" d="M14.242,1.741c-0.987-0.989-2.588-0.989-3.575,0L10.309,2.1L9.311,1.099
				L8.595,1.816l0.999,1.001L6.376,6.042L3.158,9.267L2.159,8.266L1.444,8.982l0.999,1.001L1.73,10.698l-0.715,3.583l0.714,0.718
				l3.577-0.718l4.647-4.657l0.715-0.717l3.575-3.583C15.229,4.334,15.229,2.731,14.242,1.741z M13.527,4.608L9.952,8.19
				L9.237,8.907l-4.431,4.44l-2.682,0.539l0.537-2.689L3.158,10.7l1.862,1.866l0.715-0.717L3.873,9.983l3.219-3.225l3.217-3.225
				L12.17,5.4l0.715-0.717l-1.861-1.866l0.358-0.359c0.592-0.593,1.554-0.593,2.146,0S14.119,4.015,13.527,4.608z"/>
		</g>
	</g>
</g>
<g id="Layer_1">
</g>
</svg>
