<?xml version="1.0" encoding="iso-8859-1"?>
<!-- Generator: Adobe Illustrator 16.0.0, SVG Export Plug-In . SVG Version: 6.00 Build 0)  -->
<!DOCTYPE svg PUBLIC "-//W3C//DTD SVG 1.1//EN" "http://www.w3.org/Graphics/SVG/1.1/DTD/svg11.dtd">
<svg version="1.1" xmlns="http://www.w3.org/2000/svg" xmlns:xlink="http://www.w3.org/1999/xlink" x="0px" y="0px" width="16px"
	 height="16px" viewBox="0 0 16 16" style="enable-background:new 0 0 16 16;" xml:space="preserve">
<g id="editorial-descending" style="enable-background:new    ;">
	<g id="editorial-descending_1_">
		<g>
			<path d="M8.995,2.999h6.007c0.276,0,0.5-0.224,0.5-0.501c0-0.275-0.224-0.499-0.5-0.499H8.995c-0.276,0-0.5,0.224-0.5,0.499
				C8.495,2.775,8.719,2.999,8.995,2.999z M15.002,13.999H7.994c-0.276,0-0.5,0.225-0.5,0.5c0,0.276,0.224,0.5,0.5,0.5h7.008
				c0.276,0,0.5-0.224,0.5-0.5C15.502,14.224,15.278,13.999,15.002,13.999z M9.338,5.856c0.199-0.199,0.199-0.523,0-0.723
				L5.357,1.157C5.356,1.156,5.354,1.156,5.352,1.155C5.261,1.06,5.134,0.999,4.991,0.999c-0.142,0-0.269,0.061-0.36,0.156
				C4.629,1.156,4.627,1.156,4.625,1.157l-3.98,3.977c-0.2,0.199-0.2,0.523,0,0.723c0.2,0.199,0.523,0.199,0.724,0l3.122-3.118
				v11.761c0,0.276,0.224,0.5,0.5,0.5s0.5-0.224,0.5-0.5V2.738l3.123,3.118C8.813,6.056,9.138,6.056,9.338,5.856z M15.002,10.999
				H7.994c-0.276,0-0.5,0.224-0.5,0.5s0.224,0.5,0.5,0.5h7.008c0.276,0,0.5-0.224,0.5-0.5S15.278,10.999,15.002,10.999z
				 M15.002,4.999h-4.004c-0.276,0-0.501,0.224-0.501,0.5s0.225,0.5,0.501,0.5h4.004c0.276,0,0.5-0.224,0.5-0.5
				S15.278,4.999,15.002,4.999z M15.002,7.999H7.994c-0.276,0-0.5,0.225-0.5,0.5c0,0.276,0.224,0.5,0.5,0.5h7.008
				c0.276,0,0.5-0.224,0.5-0.5C15.502,8.224,15.278,7.999,15.002,7.999z"/>
		</g>
	</g>
</g>
<g id="Layer_1">
</g>
</svg>
