<?xml version="1.0" encoding="iso-8859-1"?>
<!-- Generator: Adobe Illustrator 16.0.0, SVG Export Plug-In . SVG Version: 6.00 Build 0)  -->
<!DOCTYPE svg PUBLIC "-//W3C//DTD SVG 1.1//EN" "http://www.w3.org/Graphics/SVG/1.1/DTD/svg11.dtd">
<svg version="1.1" xmlns="http://www.w3.org/2000/svg" xmlns:xlink="http://www.w3.org/1999/xlink" x="0px" y="0px" width="16px"
	 height="16px" viewBox="0 0 16 16" style="enable-background:new 0 0 16 16;" xml:space="preserve">
<g id="editorial-compose" style="enable-background:new    ;">
	<g id="editorial-compose_1_">
		<g>
			<path d="M7.717,8.989l7.775-7.78l-0.707-0.707L7.01,8.28L7.717,8.989z M12.501,13.995c0,0.277-0.225,0.5-0.5,0.5H2.004
				c-0.276,0-0.5-0.223-0.5-0.5v-10c0-0.276,0.224-0.5,0.5-0.5h7.498v-1H1.505c-0.552,0-1,0.447-1,1v11c0,0.553,0.447,1,1,1h10.996
				c0.552,0,0.999-0.447,0.999-1v-8h-0.999V13.995z"/>
		</g>
	</g>
</g>
<g id="Layer_1">
</g>
</svg>
