<?xml version="1.0" encoding="iso-8859-1"?>
<!-- Generator: Adobe Illustrator 16.0.0, SVG Export Plug-In . SVG Version: 6.00 Build 0)  -->
<!DOCTYPE svg PUBLIC "-//W3C//DTD SVG 1.1//EN" "http://www.w3.org/Graphics/SVG/1.1/DTD/svg11.dtd">
<svg version="1.1" xmlns="http://www.w3.org/2000/svg" xmlns:xlink="http://www.w3.org/1999/xlink" x="0px" y="0px" width="16px"
	 height="16px" viewBox="0 0 16 16" style="enable-background:new 0 0 16 16;" xml:space="preserve">
<g id="editorial-ascending" style="enable-background:new    ;">
	<g id="editorial-ascending_2_">
		<g>
			<path d="M9.339,10.141c-0.2-0.199-0.524-0.199-0.725,0L5.489,13.26V1.499c0-0.275-0.224-0.5-0.501-0.5s-0.501,0.225-0.501,0.5
				V13.26l-3.125-3.119c-0.2-0.199-0.524-0.199-0.724,0c-0.2,0.201-0.2,0.523,0,0.724l3.984,3.976
				c0.001,0.002,0.004,0.001,0.005,0.003c0.091,0.095,0.218,0.156,0.361,0.156s0.27-0.062,0.361-0.156
				c0.001-0.002,0.004-0.001,0.005-0.003l3.984-3.976C9.539,10.664,9.539,10.342,9.339,10.141z M7.994,1.999h7.015
				c0.277,0,0.501-0.225,0.501-0.5s-0.224-0.5-0.501-0.5H7.994c-0.276,0-0.5,0.225-0.5,0.5S7.718,1.999,7.994,1.999z M15.009,12.999
				H8.996c-0.276,0-0.501,0.224-0.501,0.5s0.225,0.5,0.501,0.5h6.013c0.277,0,0.501-0.224,0.501-0.5S15.286,12.999,15.009,12.999z
				 M15.009,3.999H7.994c-0.276,0-0.5,0.224-0.5,0.5s0.224,0.499,0.5,0.499h7.015c0.277,0,0.501-0.223,0.501-0.499
				S15.286,3.999,15.009,3.999z M15.009,9.999h-4.008c-0.277,0-0.501,0.224-0.501,0.5c0,0.275,0.224,0.5,0.501,0.5h4.008
				c0.277,0,0.501-0.225,0.501-0.5C15.51,10.223,15.286,9.999,15.009,9.999z M15.009,6.999H7.994c-0.276,0-0.5,0.224-0.5,0.5
				s0.224,0.5,0.5,0.5h7.015c0.277,0,0.501-0.224,0.501-0.5S15.286,6.999,15.009,6.999z"/>
		</g>
	</g>
</g>
<g id="Layer_1">
</g>
</svg>
