<?xml version="1.0" encoding="iso-8859-1"?>
<!-- Generator: Adobe Illustrator 16.0.0, SVG Export Plug-In . SVG Version: 6.00 Build 0)  -->
<!DOCTYPE svg PUBLIC "-//W3C//DTD SVG 1.1//EN" "http://www.w3.org/Graphics/SVG/1.1/DTD/svg11.dtd">
<svg version="1.1" xmlns="http://www.w3.org/2000/svg" xmlns:xlink="http://www.w3.org/1999/xlink" x="0px" y="0px" width="16px"
	 height="16px" viewBox="0 0 16 16" style="enable-background:new 0 0 16 16;" xml:space="preserve">
<g id="environment-flower-a" style="enable-background:new    ;">
	<g id="environment-flower-a_2_">
		<g>
			<path d="M8.006,4.999c-1.657,0-3,1.343-3,3c0,1.656,1.343,2.999,3,2.999c1.656,0,2.999-1.343,2.999-2.999
				C11.005,6.342,9.662,4.999,8.006,4.999z M8.006,9.999c-1.104,0-2-0.896-2-2c0-1.105,0.896-2,2-2c1.104,0,1.999,0.895,1.999,2
				C10.005,9.104,9.109,9.999,8.006,9.999z M15.449,4.508c-0.786-1.362-2.257-2.069-3.728-1.967
				c-0.584-1.486-2.023-2.542-3.716-2.542c-1.689,0-3.126,1.05-3.713,2.529C3.523,2.471,2.729,2.635,2.01,3.05
				C0.105,4.15-0.547,6.585,0.552,8.489C0.85,9.005,1.25,9.42,1.706,9.741c-0.44,0.644-0.7,1.42-0.7,2.258c0,2.209,1.791,4,4,4
				c1.202,0,2.267-0.54,3-1.38c0.732,0.84,1.798,1.38,2.999,1.38c2.209,0,4-1.791,4-4c0-0.844-0.264-1.625-0.71-2.27
				C15.951,8.554,16.485,6.302,15.449,4.508z M14.005,11.5c0,0.097-0.021,0.188-0.028,0.284c0.005,0.073,0.028,0.141,0.028,0.215
				c0,1.657-1.343,3-3,3c-0.094,0-0.184-0.014-0.275-0.022C10.653,14.981,10.582,15,10.505,15c-1.205,0-2.268-0.61-2.896-1.538
				c-0.512,0.915-1.48,1.537-2.603,1.537c-1.657,0-3-1.343-3-3c0-1.086,0.583-2.029,1.447-2.556
				c-1.392-0.26-2.447-1.477-2.447-2.944c0-1.657,1.343-3,3-3c0.364,0,0.708,0.074,1.031,0.193c0.156-1.511,1.417-2.693,2.969-2.693
				c1.551,0,2.813,1.183,2.969,2.693c0.322-0.119,0.667-0.193,1.03-0.193c1.657,0,3,1.343,3,3c0,1.243-0.76,2.299-1.837,2.753
				C13.683,9.861,14.005,10.639,14.005,11.5z"/>
		</g>
	</g>
</g>
<g id="Layer_1">
</g>
</svg>
