<?xml version="1.0" encoding="iso-8859-1"?>
<!-- Generator: Adobe Illustrator 16.0.0, SVG Export Plug-In . SVG Version: 6.00 Build 0)  -->
<!DOCTYPE svg PUBLIC "-//W3C//DTD SVG 1.1//EN" "http://www.w3.org/Graphics/SVG/1.1/DTD/svg11.dtd">
<svg version="1.1" xmlns="http://www.w3.org/2000/svg" xmlns:xlink="http://www.w3.org/1999/xlink" x="0px" y="0px" width="16px"
	 height="16px" viewBox="0 0 16 16" style="enable-background:new 0 0 16 16;" xml:space="preserve">
<g id="environment-leaf" style="enable-background:new    ;">
	<g id="environment-leaf_2_">
		<g>
			<path d="M3.499,3.989c-2.017,1.976-2.003,4.769-0.443,6.992c-1.164,1.576-1.92,3.043-1.92,3.043
				c-0.195,0.191-0.192,0.503,0.005,0.697c0.198,0.193,0.516,0.195,0.711,0.005c0,0,0.724-1.424,1.852-2.966
				c0.074,0.078,0.131,0.165,0.209,0.241c2.373,2.324,5.84,2.697,8.18,0.407c2.471-2.42,2.913-11.274,2.913-11.274
				S6.676,0.878,3.499,3.989z M11.376,11.708c-1.765,1.728-4.251,2.058-6.757-0.397c-0.117-0.114-0.197-0.229-0.301-0.342
				c0.333-0.408,0.682-0.812,1.059-1.182c2.225-2.181,4.542-2.966,4.542-2.966c0.194-0.19,0.192-0.503-0.006-0.696
				C9.716,5.931,9.397,5.929,9.202,6.119c0,0-2.272,0.742-4.478,2.903C4.354,9.386,4.01,9.781,3.68,10.182
				c-1.409-2.059-0.958-4.028,0.535-5.49c3.177-3.111,9.79-2.639,9.79-2.639S13.494,9.633,11.376,11.708z"/>
		</g>
	</g>
</g>
<g id="Layer_1">
</g>
</svg>
