<?xml version="1.0" encoding="iso-8859-1"?>
<!-- Generator: Adobe Illustrator 16.0.0, SVG Export Plug-In . SVG Version: 6.00 Build 0)  -->
<!DOCTYPE svg PUBLIC "-//W3C//DTD SVG 1.1//EN" "http://www.w3.org/Graphics/SVG/1.1/DTD/svg11.dtd">
<svg version="1.1" xmlns="http://www.w3.org/2000/svg" xmlns:xlink="http://www.w3.org/1999/xlink" x="0px" y="0px" width="16px"
	 height="16px" viewBox="0 0 16 16" style="enable-background:new 0 0 16 16;" xml:space="preserve">
<g id="environment-tree" style="enable-background:new    ;">
	<g id="environment-tree_1_">
		<g>
			<path d="M8.499,12.94c2.8-0.303,5-3.055,5-6.441c0-3.591-2.462-6.5-5.5-6.5c-3.037,0-5.5,2.909-5.5,6.5
				c0,3.386,2.2,6.138,5,6.441v2.059h-5v1h11v-1h-5V12.94z M7.499,7.248L5.243,4.992L4.491,5.744l3.008,3.007v3.186
				c-2.247-0.307-4-2.609-4-5.437c0-3.038,2.015-5.501,4.5-5.501s4.5,2.463,4.5,5.501c0,2.828-1.753,5.13-4,5.437V8.745l2.992-2.992
				l-0.746-0.746L8.499,7.253V2.999h-1V7.248z"/>
		</g>
	</g>
</g>
<g id="Layer_1">
</g>
</svg>
