<?xml version="1.0" encoding="iso-8859-1"?>
<!-- Generator: Adobe Illustrator 16.0.0, SVG Export Plug-In . SVG Version: 6.00 Build 0)  -->
<!DOCTYPE svg PUBLIC "-//W3C//DTD SVG 1.1//EN" "http://www.w3.org/Graphics/SVG/1.1/DTD/svg11.dtd">
<svg version="1.1" xmlns="http://www.w3.org/2000/svg" xmlns:xlink="http://www.w3.org/1999/xlink" x="0px" y="0px" width="16px"
	 height="16px" viewBox="0 0 16 16" style="enable-background:new 0 0 16 16;" xml:space="preserve">
<g id="environment-flower-b" style="enable-background:new    ;">
	<g id="environment-flower-b_1_">
		<g>
			<path d="M14.031,5.749c-0.565-0.979-1.533-1.567-2.573-1.706c-0.226-1.715-1.677-3.044-3.454-3.044
				c-1.772,0-3.221,1.321-3.453,3.029C4.105,4.085,3.663,4.229,3.25,4.467C1.576,5.434,1.002,7.575,1.969,9.248
				c0.215,0.373,0.496,0.682,0.809,0.94c-0.39,0.965-0.362,2.088,0.199,3.06c0.967,1.674,3.107,2.248,4.781,1.281
				c0.087-0.05,0.158-0.115,0.238-0.172c0.57,0.401,1.26,0.641,2.008,0.641c1.934,0,3.5-1.567,3.5-3.5
				c0-0.469-0.096-0.914-0.263-1.322C14.522,9.104,14.895,7.244,14.031,5.749z M11.86,9.838c0.396,0.442,0.644,1.02,0.644,1.66
				c0,1.38-1.119,2.5-2.5,2.5c-0.821,0-1.544-0.402-2-1.014c-0.456,0.611-1.179,1.014-2,1.014c-1.381,0-2.5-1.12-2.5-2.5
				c0-0.641,0.248-1.218,0.644-1.66C3.19,9.486,2.504,8.576,2.504,7.498c0-1.38,1.119-2.499,2.5-2.499
				c0.197,0,0.387,0.028,0.572,0.072C5.532,4.886,5.504,4.696,5.504,4.499c0-1.381,1.119-2.5,2.5-2.5s2.5,1.119,2.5,2.5
				c0,0.197-0.028,0.388-0.071,0.572c0.184-0.044,0.374-0.072,0.571-0.072c1.381,0,2.5,1.119,2.5,2.499
				C13.504,8.576,12.817,9.486,11.86,9.838z M8.004,5.999c-1.381,0-2.5,1.119-2.5,2.5c0,1.38,1.119,2.5,2.5,2.5s2.5-1.12,2.5-2.5
				C10.504,7.118,9.385,5.999,8.004,5.999z M8.004,9.998c-0.829,0-1.5-0.672-1.5-1.5c0-0.829,0.671-1.5,1.5-1.5
				c0.829,0,1.5,0.671,1.5,1.5C9.504,9.326,8.833,9.998,8.004,9.998z"/>
		</g>
	</g>
</g>
<g id="Layer_1">
</g>
</svg>
