<?xml version="1.0" encoding="iso-8859-1"?>
<!-- Generator: Adobe Illustrator 16.0.0, SVG Export Plug-In . SVG Version: 6.00 Build 0)  -->
<!DOCTYPE svg PUBLIC "-//W3C//DTD SVG 1.1//EN" "http://www.w3.org/Graphics/SVG/1.1/DTD/svg11.dtd">
<svg version="1.1" xmlns="http://www.w3.org/2000/svg" xmlns:xlink="http://www.w3.org/1999/xlink" x="0px" y="0px" width="16px"
	 height="16px" viewBox="0 0 16 16" style="enable-background:new 0 0 16 16;" xml:space="preserve">
<g id="environment-sign" style="enable-background:new    ;">
	<g id="environment-sign_1_">
		<g>
			<path d="M13.999,7.999h-3.5V7h2.5V2h-2.5V0.999c0-0.552-0.447-1-1-1h-3c-0.552,0-1,0.448-1,1V2h-3.5l-2,2.499l2,2.501h3.5v1h-2.5
				v5h2.5v2c0,0.553,0.448,1,1,1h3c0.553,0,1-0.447,1-1v-2h3.5l2-2.5L13.999,7.999z M6.499,1.499c0-0.275,0.224-0.5,0.5-0.5h2
				c0.275,0,0.5,0.225,0.5,0.5V2h-3V1.499z M2.499,6l-1.5-1.501l1.5-1.5h9.5V6H2.499z M9.499,7v1h-3V7H9.499z M9.499,14.499
				c0,0.275-0.225,0.5-0.5,0.5h-2c-0.276,0-0.5-0.225-0.5-0.5v-1.5h3V14.499z M13.499,11.999h-9.5v-3h9.5l1.5,1.5L13.499,11.999z"/>
		</g>
	</g>
</g>
<g id="Layer_1">
</g>
</svg>
