<?xml version="1.0" encoding="iso-8859-1"?>
<!-- Generator: Adobe Illustrator 16.0.0, SVG Export Plug-In . SVG Version: 6.00 Build 0)  -->
<!DOCTYPE svg PUBLIC "-//W3C//DTD SVG 1.1//EN" "http://www.w3.org/Graphics/SVG/1.1/DTD/svg11.dtd">
<svg version="1.1" xmlns="http://www.w3.org/2000/svg" xmlns:xlink="http://www.w3.org/1999/xlink" x="0px" y="0px" width="16px"
	 height="16px" viewBox="0 0 16 16" style="enable-background:new 0 0 16 16;" xml:space="preserve">
<g id="environment-smoke" style="enable-background:new    ;">
	<g id="environment-smoke_1_">
		<g>
			<path d="M3.999,1.999h-1V7h1V1.999z M-0.001,13.999h1v-5h-1V13.999z M15.499,8.999h-2.5h-1h-9.5c-0.276,0-0.5,0.225-0.5,0.5v4
				c0,0.275,0.224,0.5,0.5,0.5h9.5h1h2.5c0.275,0,0.5-0.225,0.5-0.5v-4C15.999,9.224,15.774,8.999,15.499,8.999z M11.999,12.999h-9
				v-3h9V12.999z M14.999,12.999h-2v-3h2V12.999z M1.999,4h-1v3h1V4z"/>
		</g>
	</g>
</g>
<g id="Layer_1">
</g>
</svg>
