<?xml version="1.0" encoding="iso-8859-1"?>
<!-- Generator: Adobe Illustrator 16.0.0, SVG Export Plug-In . SVG Version: 6.00 Build 0)  -->
<!DOCTYPE svg PUBLIC "-//W3C//DTD SVG 1.1//EN" "http://www.w3.org/Graphics/SVG/1.1/DTD/svg11.dtd">
<svg version="1.1" xmlns="http://www.w3.org/2000/svg" xmlns:xlink="http://www.w3.org/1999/xlink" x="0px" y="0px" width="16px"
	 height="16px" viewBox="0 0 16 16" style="enable-background:new 0 0 16 16;" xml:space="preserve">
<g id="environment-no-smoke" style="enable-background:new    ;">
	<g id="environment-no-smoke_2_">
		<g>
			<path d="M3.999,1h-1v5h1V1z M-0.001,12.999h1v-5h-1V12.999z M1.999,2.999h-1V6h1V2.999z M11.065,5l-7.075,9.493l0.942,0.506
				l7.074-9.494L11.065,5z M15.499,7.999h-2.5h-1h-0.523l-0.688,1h1.211v3H8.728l-0.688,1h3.959h1h2.5c0.275,0,0.5-0.225,0.5-0.5v-4
				C15.999,8.224,15.774,7.999,15.499,7.999z M14.999,11.999h-2v-3h2V11.999z M2.999,8.999h2.928l0.687-1H2.499
				c-0.276,0-0.5,0.225-0.5,0.5v4c0,0.275,0.224,0.5,0.5,0.5h0.68l0.687-1H2.999V8.999z"/>
		</g>
	</g>
</g>
<g id="Layer_1">
</g>
</svg>
