<?xml version="1.0" encoding="iso-8859-1"?>
<!-- Generator: Adobe Illustrator 16.0.0, SVG Export Plug-In . SVG Version: 6.00 Build 0)  -->
<!DOCTYPE svg PUBLIC "-//W3C//DTD SVG 1.1//EN" "http://www.w3.org/Graphics/SVG/1.1/DTD/svg11.dtd">
<svg version="1.1" xmlns="http://www.w3.org/2000/svg" xmlns:xlink="http://www.w3.org/1999/xlink" x="0px" y="0px" width="16px"
	 height="16px" viewBox="0 0 16 16" style="enable-background:new 0 0 16 16;" xml:space="preserve">
<g id="environment-mountain-a" style="enable-background:new    ;">
	<g id="environment-mountain-a_1_">
		<g>
			<path d="M11.999,5.999c1.656,0,3-1.344,3-3.001c0-1.656-1.344-3-3-3s-3,1.344-3,3C8.999,4.655,10.343,5.999,11.999,5.999z
				 M11.999,0.998c1.104,0,2,0.896,2,2c0,1.105-0.896,2-2,2c-1.105,0-2-0.895-2-2C9.999,1.895,10.894,0.998,11.999,0.998z
				 M11.499,7.5l-3.5,4.5l-3.5-6.5l-4.5,10.5h16L11.499,7.5z M4.602,7.8l2.517,4.674l0.728,1.352l0.942-1.212l2.551-3.279l3,5.665
				H1.516L4.602,7.8z"/>
		</g>
	</g>
</g>
<g id="Layer_1">
</g>
</svg>
