<?xml version="1.0" encoding="iso-8859-1"?>
<!-- Generator: Adobe Illustrator 16.0.0, SVG Export Plug-In . SVG Version: 6.00 Build 0)  -->
<!DOCTYPE svg PUBLIC "-//W3C//DTD SVG 1.1//EN" "http://www.w3.org/Graphics/SVG/1.1/DTD/svg11.dtd">
<svg version="1.1" xmlns="http://www.w3.org/2000/svg" xmlns:xlink="http://www.w3.org/1999/xlink" x="0px" y="0px" width="16px"
	 height="16px" viewBox="0 0 16 16" style="enable-background:new 0 0 16 16;" xml:space="preserve">
<g id="environment-leaf-a" style="enable-background:new    ;">
	<g id="environment-leaf-a_2_">
		<g>
			<path d="M7.999,0c-1.738,0-5.5,4.081-5.5,8.5c0,4.418,3.761,7.5,5.5,7.5c1.739,0,5.5-3.082,5.5-7.5C13.499,4.081,9.737,0,7.999,0
				z M8.499,14.897v-2.127l2.258-1.338c0.234-0.139,0.313-0.445,0.18-0.684c-0.135-0.238-0.434-0.322-0.666-0.184l-1.771,1.051v-0.6
				v-0.002V8.271l2.258-1.339c0.234-0.138,0.313-0.442,0.18-0.683c-0.135-0.239-0.434-0.321-0.666-0.183L8.499,7.117V5.5
				c0-0.276-0.225-0.501-0.5-0.501c-0.275,0-0.5,0.225-0.5,0.501v4.312L6.325,8.634C6.138,8.446,5.832,8.448,5.643,8.64
				c-0.19,0.189-0.192,0.496-0.005,0.684l1.861,1.865v3.709c-1.471-0.508-4-2.965-4-6.398c0-3.866,3.209-7.5,4.5-7.5
				c1.292,0,4.5,3.635,4.5,7.5C12.499,11.933,9.97,14.39,8.499,14.897z"/>
		</g>
	</g>
</g>
<g id="Layer_1">
</g>
</svg>
