<?xml version="1.0" encoding="iso-8859-1"?>
<!-- Generator: Adobe Illustrator 16.0.0, SVG Export Plug-In . SVG Version: 6.00 Build 0)  -->
<!DOCTYPE svg PUBLIC "-//W3C//DTD SVG 1.1//EN" "http://www.w3.org/Graphics/SVG/1.1/DTD/svg11.dtd">
<svg version="1.1" xmlns="http://www.w3.org/2000/svg" xmlns:xlink="http://www.w3.org/1999/xlink" x="0px" y="0px" width="16px"
	 height="16px" viewBox="0 0 16 16" style="enable-background:new 0 0 16 16;" xml:space="preserve">
<g id="environment-flower" style="enable-background:new    ;">
	<g id="environment-flower_2_">
		<g>
			<path d="M14.16,3.747c-0.693-1.195-2.23-1.605-3.433-0.914c-0.1,0.057-0.186,0.128-0.274,0.195
				c0.037-0.171,0.06-0.347,0.06-0.529c0-1.381-1.125-2.5-2.514-2.5c-1.387,0-2.512,1.119-2.512,2.5c0,0.183,0.022,0.358,0.059,0.53
				C5.457,2.96,5.371,2.889,5.27,2.831c-1.202-0.69-2.739-0.28-3.433,0.915c-0.694,1.196-0.282,2.725,0.92,3.415
				c0.264,0.151,0.544,0.241,0.828,0.29c-1.078,0.727-1.433,2.161-0.771,3.301c0.692,1.191,2.224,1.6,3.422,0.911
				c0.821-0.472,1.261-1.336,1.241-2.217c0.007,0.002,0.014,0.001,0.021,0.002v6.551h1.005V9.688
				c0.063,0.793,0.504,1.545,1.252,1.973c1.205,0.69,2.747,0.281,3.443-0.915c0.662-1.138,0.312-2.567-0.761-3.299
				c0.275-0.051,0.548-0.138,0.804-0.285C14.442,6.472,14.854,4.943,14.16,3.747z M7.999,0.999c0.833,0,1.508,0.672,1.508,1.5
				c0,0.477-0.237,0.883-0.586,1.158C8.629,3.563,8.323,3.499,7.999,3.499c-0.323,0-0.629,0.063-0.921,0.158
				C6.729,3.382,6.492,2.976,6.492,2.499C6.492,1.671,7.167,0.999,7.999,0.999z M3.26,6.295C2.539,5.881,2.292,4.964,2.708,4.246
				c0.417-0.717,1.339-0.963,2.06-0.549c0.435,0.25,0.67,0.686,0.719,1.147c-0.242,0.362-0.396,0.782-0.46,1.231
				C4.555,6.514,3.848,6.633,3.26,6.295z M5.735,10.8c-0.719,0.413-1.638,0.169-2.053-0.547c-0.415-0.715-0.169-1.63,0.55-2.042
				c0.389-0.225,0.832-0.24,1.227-0.108C5.694,8.471,6.005,8.783,6.374,9.02C6.607,9.684,6.37,10.436,5.735,10.8z M8.502,9.559
				v-0.11c0.004,0,0.008,0,0.012-0.001C8.513,9.484,8.501,9.521,8.502,9.559z M7.999,8.503c-1.111,0-2.013-0.897-2.013-2.004
				s0.902-2.003,2.013-2.003c1.112,0,2.015,0.896,2.015,2.003S9.111,8.503,7.999,8.503z M12.327,10.246
				c-0.419,0.718-1.346,0.964-2.071,0.549c-0.634-0.361-0.873-1.104-0.65-1.765c0.384-0.241,0.706-0.565,0.946-0.949
				c0.395-0.126,0.834-0.104,1.221,0.116C12.497,8.611,12.745,9.528,12.327,10.246z M12.738,6.296
				c-0.588,0.338-1.294,0.22-1.766-0.217c-0.064-0.451-0.219-0.874-0.462-1.237c0.05-0.46,0.285-0.895,0.719-1.144
				c0.722-0.414,1.644-0.168,2.061,0.549C13.706,4.965,13.459,5.882,12.738,6.296z"/>
		</g>
	</g>
</g>
<g id="Layer_1">
</g>
</svg>
