<?xml version="1.0" encoding="iso-8859-1"?>
<!-- Generator: Adobe Illustrator 16.0.0, SVG Export Plug-In . SVG Version: 6.00 Build 0)  -->
<!DOCTYPE svg PUBLIC "-//W3C//DTD SVG 1.1//EN" "http://www.w3.org/Graphics/SVG/1.1/DTD/svg11.dtd">
<svg version="1.1" xmlns="http://www.w3.org/2000/svg" xmlns:xlink="http://www.w3.org/1999/xlink" x="0px" y="0px" width="16px"
	 height="16px" viewBox="0 0 16 16" style="enable-background:new 0 0 16 16;" xml:space="preserve">
<g id="food-noodle-a" style="enable-background:new    ;">
	<g id="food-noodle-a_2_">
		<g>
			<path d="M10.688,5.998l3.877-3.452c0.205-0.184,0.225-0.5,0.041-0.706s-0.5-0.225-0.707-0.04L9.187,5.998H10.688z M11.938,0.739
				c0.139-0.235,0.057-0.537-0.182-0.673s-0.545-0.056-0.684,0.18L7.685,5.998h1.156L11.938,0.739z M15.499,6.998h-0.5h-14h-0.5
				h-0.5c0,2.96,1.61,5.539,4,6.922v0.078h0.163c0.292,0.16,0.588,0.313,0.9,0.437c-0.027,0.103-0.063,0.202-0.063,0.314
				c0,0.689,0.56,1.249,1.25,1.249h3.5c0.689,0,1.25-0.56,1.25-1.249c0-0.112-0.037-0.212-0.064-0.314
				c0.313-0.124,0.609-0.276,0.902-0.437h0.162V13.92c2.391-1.383,4-3.962,4-6.922H15.499z M9.999,14.998h-4v-1h4V14.998z
				 M11.528,12.999H4.47c-1.781-1.055-3.061-2.86-3.37-5.001h13.798C14.589,10.139,13.31,11.944,11.528,12.999z"/>
		</g>
	</g>
</g>
<g id="Layer_1">
</g>
</svg>
