<?xml version="1.0" encoding="iso-8859-1"?>
<!-- Generator: Adobe Illustrator 16.0.0, SVG Export Plug-In . SVG Version: 6.00 Build 0)  -->
<!DOCTYPE svg PUBLIC "-//W3C//DTD SVG 1.1//EN" "http://www.w3.org/Graphics/SVG/1.1/DTD/svg11.dtd">
<svg version="1.1" xmlns="http://www.w3.org/2000/svg" xmlns:xlink="http://www.w3.org/1999/xlink" x="0px" y="0px" width="16px"
	 height="16px" viewBox="0 0 16 16" style="enable-background:new 0 0 16 16;" xml:space="preserve">
<g id="food-onigiri-a" style="enable-background:new    ;">
	<g id="food-onigiri-a_2_">
		<g>
			<path d="M13.983,10.499c0-4.418-1.577-8-5.984-8s-5.984,3.582-5.984,8c0,0-0.432,2.615,4.794,2.961
				c0.063,0.013,0.122,0.039,0.19,0.039h0.973c0.009,0,0.017,0,0.027,0c0.001,0,0.003,0,0.004,0c0.009,0,0.017,0,0.026,0h0.97
				c0.066,0,0.124-0.026,0.186-0.038C14.416,13.117,13.983,10.499,13.983,10.499z M8.999,12.5h-2v-2h2V12.5z M12.683,11.329
				c-0.302,0.327-1.021,0.821-2.684,1.048v-1.879c0-0.552-0.447-1-1-1h-2c-0.553,0-1,0.448-1,1v1.879
				c-1.663-0.228-2.382-0.722-2.684-1.049c-0.288-0.313-0.313-0.591-0.313-0.678l0.009-0.026v-0.125c0-4.645,1.678-7,4.987-7
				s4.987,2.355,4.987,7l-0.017,0.044l0.025,0.103C12.996,10.728,12.977,11.011,12.683,11.329z"/>
		</g>
	</g>
</g>
<g id="Layer_1">
</g>
</svg>
