<?xml version="1.0" encoding="iso-8859-1"?>
<!-- Generator: Adobe Illustrator 16.0.0, SVG Export Plug-In . SVG Version: 6.00 Build 0)  -->
<!DOCTYPE svg PUBLIC "-//W3C//DTD SVG 1.1//EN" "http://www.w3.org/Graphics/SVG/1.1/DTD/svg11.dtd">
<svg version="1.1" xmlns="http://www.w3.org/2000/svg" xmlns:xlink="http://www.w3.org/1999/xlink" x="0px" y="0px" width="16px"
	 height="16px" viewBox="0 0 16 16" style="enable-background:new 0 0 16 16;" xml:space="preserve">
<g id="food-white-bread" style="enable-background:new    ;">
	<g id="food-white-bread_1_">
		<g>
			<path d="M11.999,0.499h-8c-1.657,0-3,1.423-3,3.382c0,1.541,0.837,2.271,2,2.515v7.548c0,0.859,0.671,1.556,1.5,1.556h7
				c0.828,0,1.5-0.696,1.5-1.556V6.397c1.162-0.239,2-0.959,2-2.501C14.999,1.938,13.655,0.499,11.999,0.499z M11.999,5.479v8.021
				c0,0.553-0.447,1-1,1h-6c-0.553,0-1-0.447-1-1V5.479c-1.141-0.1-2-0.57-2-1.714c0-1.306,1-2.266,2-2.266h0.999
				c0,0,0.001,0,0.001,0h6c0,0,0,0,0.002,0h0.998c1,0,2,0.96,2,2.266C13.999,4.908,13.14,5.379,11.999,5.479z"/>
		</g>
	</g>
</g>
<g id="Layer_1">
</g>
</svg>
