<?xml version="1.0" encoding="iso-8859-1"?>
<!-- Generator: Adobe Illustrator 16.0.0, SVG Export Plug-In . SVG Version: 6.00 Build 0)  -->
<!DOCTYPE svg PUBLIC "-//W3C//DTD SVG 1.1//EN" "http://www.w3.org/Graphics/SVG/1.1/DTD/svg11.dtd">
<svg version="1.1" xmlns="http://www.w3.org/2000/svg" xmlns:xlink="http://www.w3.org/1999/xlink" x="0px" y="0px" width="16px"
	 height="16px" viewBox="0 0 16 16" style="enable-background:new 0 0 16 16;" xml:space="preserve">
<g id="food-drumstick" style="enable-background:new    ;">
	<g id="food-drumstick_1_">
		<g>
			<path d="M4.505,12.238v-0.024l-0.073,0.073C4.453,12.267,4.482,12.257,4.505,12.238z M13.954,2.024
				c-1.251-1.251-3.298-1.612-5.35,0.439C7.146,3.922,6.275,6.017,6.33,7.563L4.422,9.47C3.64,8.688,2.372,8.688,1.59,9.469
				s-0.781,2.05,0.001,2.832c0.429,0.429,1,0.601,1.56,0.56c-0.039,0.557,0.133,1.123,0.561,1.549
				c0.782,0.778,2.05,0.778,2.832,0.001s0.781-2.039-0.001-2.817c0,0,0,0-0.001-0.001l1.938-1.938
				c1.553,0.039,3.635-0.816,5.075-2.257C15.607,5.345,15.205,3.276,13.954,2.024z M5.617,11.104
				C5.616,11.104,5.616,11.104,5.617,11.104l-0.613,0.611v0.312c0.043-0.006,0.082-0.025,0.126-0.025
				c0.551,0.001,1,0.449,1.001,1.001S5.687,14,5.135,13.998c-0.551-0.001-1-0.449-1.001-1.001c0-0.272,0.109-0.519,0.287-0.699
				l-0.707-0.707l0.192-0.191l-0.041-0.042c-0.173,0.306-0.489,0.521-0.864,0.522C2.446,11.882,1.998,11.434,2,10.879
				s0.453-1.006,1.008-1.008c0.555-0.002,1.002,0.446,1.001,1.001c0,0.046-0.021,0.084-0.026,0.128h0.323l0.823-0.823h0l1.479-1.479
				C6.686,8.843,6.762,8.99,6.875,9.104C7,9.229,7.159,9.315,7.322,9.398L5.617,11.104z M12.732,6.816
				c-1.679,1.681-4.249,2.485-5.143,1.589C6.695,7.51,7.514,4.965,9.192,3.283c1.679-1.68,3.164-1.443,4.059-0.548
				C14.146,3.632,14.411,5.135,12.732,6.816z"/>
		</g>
	</g>
</g>
<g id="Layer_1">
</g>
</svg>
