<?xml version="1.0" encoding="iso-8859-1"?>
<!-- Generator: Adobe Illustrator 16.0.0, SVG Export Plug-In . SVG Version: 6.00 Build 0)  -->
<!DOCTYPE svg PUBLIC "-//W3C//DTD SVG 1.1//EN" "http://www.w3.org/Graphics/SVG/1.1/DTD/svg11.dtd">
<svg version="1.1" xmlns="http://www.w3.org/2000/svg" xmlns:xlink="http://www.w3.org/1999/xlink" x="0px" y="0px" width="16px"
	 height="16px" viewBox="0 0 16 16" style="enable-background:new 0 0 16 16;" xml:space="preserve">
<g id="food-ice-cream-a" style="enable-background:new    ;">
	<g id="food-ice-cream-a_1_">
		<g>
			<path d="M8.499-0.001h-1c-2.209,0-4,1.79-4,4v6c0,1.104,0.895,2,2,2h1v3c0,0.552,0.448,1,1,1h1c0.553,0,1-0.448,1-1v-3h1
				c1.104,0,2-0.896,2-2v-4v-2C12.499,1.789,10.708-0.001,8.499-0.001z M8.499,14.499c0,0.275-0.225,0.5-0.5,0.5
				c-0.275,0-0.5-0.225-0.5-0.5v-2.5h0h1V14.499z M11.499,5.999v4c0,0.552-0.447,1-1,1h-5c-0.552,0-1-0.448-1-1v-4v-2
				c0-1.657,1.343-3.001,3-3.001h1c1.656,0,3,1.344,3,3.001V5.999z"/>
		</g>
	</g>
</g>
<g id="Layer_1">
</g>
</svg>
