<?xml version="1.0" encoding="iso-8859-1"?>
<!-- Generator: Adobe Illustrator 16.0.0, SVG Export Plug-In . SVG Version: 6.00 Build 0)  -->
<!DOCTYPE svg PUBLIC "-//W3C//DTD SVG 1.1//EN" "http://www.w3.org/Graphics/SVG/1.1/DTD/svg11.dtd">
<svg version="1.1" xmlns="http://www.w3.org/2000/svg" xmlns:xlink="http://www.w3.org/1999/xlink" x="0px" y="0px" width="16px"
	 height="16px" viewBox="0 0 16 16" style="enable-background:new 0 0 16 16;" xml:space="preserve">
<g id="food-bowl" style="enable-background:new    ;">
	<g id="food-bowl_1_">
		<g>
			<path d="M15.999,5c0-1.657-3.582-3.001-8-3.001c-4.418,0-8,1.344-8,3.001c0,0.108,0.017,0.215,0.047,0.32
				C0.024,5.545-0.001,5.769-0.001,5.999c0,4.419,3.582,8,8,8c4.418,0,8-3.581,8-8c0-0.23-0.025-0.454-0.047-0.679
				C15.981,5.215,15.999,5.108,15.999,5z M7.999,13c-3.701,0-6.7-2.883-6.952-6.52C2.424,7.387,5.019,8,7.999,8
				s5.574-0.613,6.951-1.52C14.698,10.117,11.7,13,7.999,13z M7.999,6.999c-3.866,0-7-0.896-7-1.999c0-1.105,3.134-2.001,7-2.001
				c3.865,0,7,0.896,7,2.001C14.999,6.104,11.864,6.999,7.999,6.999z"/>
		</g>
	</g>
</g>
<g id="Layer_1">
</g>
</svg>
