<?xml version="1.0" encoding="iso-8859-1"?>
<!-- Generator: Adobe Illustrator 16.0.0, SVG Export Plug-In . SVG Version: 6.00 Build 0)  -->
<!DOCTYPE svg PUBLIC "-//W3C//DTD SVG 1.1//EN" "http://www.w3.org/Graphics/SVG/1.1/DTD/svg11.dtd">
<svg version="1.1" xmlns="http://www.w3.org/2000/svg" xmlns:xlink="http://www.w3.org/1999/xlink" x="0px" y="0px" width="16px"
	 height="16px" viewBox="0 0 16 16" style="enable-background:new 0 0 16 16;" xml:space="preserve">
<g id="food-hamburger" style="enable-background:new    ;">
	<g id="food-hamburger_1_">
		<g>
			<path d="M14.999,8.499h-0.102c0.049-0.33,0.102-0.658,0.102-1c0-3.865-3.135-7-7-7c-3.866,0-7,3.135-7,7
				c0,0.343,0.054,0.67,0.101,1H0.999c-0.552,0-1,0.447-1,1v2c0,0.553,0.448,1,1,1h0.333l0.667,2c0,0.553,0.448,1,1,1h10
				c0.553,0,1-0.447,1-1l0.666-2h0.334c0.553,0,1-0.447,1-1v-2C15.999,8.946,15.552,8.499,14.999,8.499z M7.999,1.499
				c3.314,0,6,2.687,6,6c0,0.343-0.045,0.672-0.102,1H2.1c-0.055-0.328-0.101-0.658-0.101-1C1.999,4.185,4.685,1.499,7.999,1.499z
				 M12.999,13.999c0,0.277-0.225,0.5-0.5,0.5h-9c-0.276,0-0.5-0.223-0.5-0.5l-0.75-1.5h11.5L12.999,13.999z M14.999,10.999
				c0,0.277-0.225,0.5-0.5,0.5h-13c-0.276,0-0.5-0.223-0.5-0.5v-1c0-0.275,0.224-0.5,0.5-0.5h13c0.275,0,0.5,0.225,0.5,0.5V10.999z"
				/>
		</g>
	</g>
</g>
<g id="Layer_1">
</g>
</svg>
