<?xml version="1.0" encoding="iso-8859-1"?>
<!-- Generator: Adobe Illustrator 16.0.0, SVG Export Plug-In . SVG Version: 6.00 Build 0)  -->
<!DOCTYPE svg PUBLIC "-//W3C//DTD SVG 1.1//EN" "http://www.w3.org/Graphics/SVG/1.1/DTD/svg11.dtd">
<svg version="1.1" xmlns="http://www.w3.org/2000/svg" xmlns:xlink="http://www.w3.org/1999/xlink" x="0px" y="0px" width="16px"
	 height="16px" viewBox="0 0 16 16" style="enable-background:new 0 0 16 16;" xml:space="preserve">
<g id="food-ice-cream-c" style="enable-background:new    ;">
	<g id="food-ice-cream-c_1_">
		<g>
			<path d="M14.499,7.499c0-1.408-0.836-2.612-2.033-3.169c0.01-0.111,0.033-0.218,0.033-0.331c0-2.21-1.791-4-4-4
				c-2.209,0-4,1.79-4,4c0,0.018,0.004,0.033,0.005,0.05c-1.696,0.242-3.005,1.687-3.005,3.45c0,0.171,0.026,0.335,0.05,0.5h-0.05
				l7,8l6-8h-0.051C14.472,7.834,14.499,7.67,14.499,7.499z M8.499,0.999c1.656,0,3,1.343,3,3c0,0.018-0.004,0.033-0.006,0.05
				c-0.162-0.023-0.324-0.05-0.494-0.05c-1.285,0-2.396,0.7-3.006,1.733C7.469,4.844,6.571,4.205,5.504,4.05
				c0-0.018-0.005-0.033-0.005-0.051C5.499,2.342,6.842,0.999,8.499,0.999z M2.499,7.499c0-1.382,1.119-2.5,2.5-2.5
				c1.38,0,2.5,1.118,2.5,2.5c0,0.171-0.018,0.338-0.051,0.5H2.549C2.517,7.837,2.499,7.67,2.499,7.499z M8.499,14.499l-5-5.5h9
				L8.499,14.499z M13.448,7.999H8.55c-0.033-0.162-0.051-0.329-0.051-0.5c0-1.382,1.119-2.5,2.5-2.5s2.5,1.118,2.5,2.5
				C13.499,7.67,13.481,7.837,13.448,7.999z"/>
		</g>
	</g>
</g>
<g id="Layer_1">
</g>
</svg>
