<?xml version="1.0" encoding="iso-8859-1"?>
<!-- Generator: Adobe Illustrator 16.0.0, SVG Export Plug-In . SVG Version: 6.00 Build 0)  -->
<!DOCTYPE svg PUBLIC "-//W3C//DTD SVG 1.1//EN" "http://www.w3.org/Graphics/SVG/1.1/DTD/svg11.dtd">
<svg version="1.1" xmlns="http://www.w3.org/2000/svg" xmlns:xlink="http://www.w3.org/1999/xlink" x="0px" y="0px" width="16px"
	 height="16px" viewBox="0 0 16 16" style="enable-background:new 0 0 16 16;" xml:space="preserve">
<g id="food-chinese-food-b" style="enable-background:new    ;">
	<g id="food-chinese-food-b_2_">
		<g>
			<path d="M3.588,0.998C3.317,0.953,3.058,1.14,3.01,1.415L2,6.122L0.989,1.415C0.941,1.14,0.683,0.953,0.411,0.998
				C0.14,1.044-0.042,1.305,0.006,1.581l1.485,6.914l-1.485,6.922c-0.048,0.275,0.134,0.537,0.405,0.582
				c0.271,0.046,0.53-0.141,0.578-0.416l1.012-4.715l1.009,4.699c0.048,0.275,0.307,0.462,0.578,0.416
				c0.272-0.046,0.453-0.306,0.406-0.581L2.51,8.495l1.484-6.914C4.042,1.305,3.86,1.044,3.588,0.998z M15.891,4.559l-0.892-3.565
				c0-0.553-0.447-1.001-1-1.001H7c-0.552,0-1,0.448-1,1.001L5.108,4.559C5.043,4.691,5,4.835,5,4.993l1,9.999
				c0,0.553,0.448,1.001,1,1.001h6.999c0.553,0,1-0.448,1-1.001l1-9.999C15.999,4.835,15.956,4.691,15.891,4.559z M6.97,1.236
				L7,1.115V0.993h6.999v0.123l0.03,0.12l0.689,2.756H6.281L6.97,1.236z M14.004,14.893l-0.005,0.051v0.05L7,14.992v-0.05
				l-0.005-0.05l-0.19-1.901h7.39L14.004,14.893z M14.295,11.991h-7.59l-0.2-2h7.989L14.295,11.991z M14.595,8.991h-8.19l-0.4-3.998
				h8.989L14.595,8.991z"/>
		</g>
	</g>
</g>
<g id="Layer_1">
</g>
</svg>
