<?xml version="1.0" encoding="iso-8859-1"?>
<!-- Generator: Adobe Illustrator 16.0.0, SVG Export Plug-In . SVG Version: 6.00 Build 0)  -->
<!DOCTYPE svg PUBLIC "-//W3C//DTD SVG 1.1//EN" "http://www.w3.org/Graphics/SVG/1.1/DTD/svg11.dtd">
<svg version="1.1" xmlns="http://www.w3.org/2000/svg" xmlns:xlink="http://www.w3.org/1999/xlink" x="0px" y="0px" width="16px"
	 height="16px" viewBox="0 0 16 16" style="enable-background:new 0 0 16 16;" xml:space="preserve">
<g id="food-melon" style="enable-background:new    ;">
	<g id="food-melon_2_">
		<g>
			<path d="M15.003,12.284L7.721,5.001L7.718,4.991L7.711,4.992L3.72,1.001L3.36,1.361L3.338,1.339
				C1.89,2.787,0.995,4.787,0.995,6.996c0,4.417,3.582,8.001,8,8.001c2.025,0,3.871-0.762,5.281-2.002l0.008,0.008l0.166-0.168
				c0.066-0.063,0.137-0.119,0.201-0.182l-0.008-0.01L15.003,12.284z M8.995,13.995c-3.866,0-7-3.133-7-7
				c0-1.749,0.665-3.329,1.726-4.557l2.79,2.79L3,5.923l0.28,1.069l4.17-0.824L8.263,6.98l-3.264,3.263l0.749,0.748l3.263-3.262
				l0.484,0.485v4.781h1l0.006-3.777l3.051,3.053C12.325,13.331,10.745,13.995,8.995,13.995z"/>
		</g>
	</g>
</g>
<g id="Layer_1">
</g>
</svg>
