<?xml version="1.0" encoding="iso-8859-1"?>
<!-- Generator: Adobe Illustrator 16.0.0, SVG Export Plug-In . SVG Version: 6.00 Build 0)  -->
<!DOCTYPE svg PUBLIC "-//W3C//DTD SVG 1.1//EN" "http://www.w3.org/Graphics/SVG/1.1/DTD/svg11.dtd">
<svg version="1.1" xmlns="http://www.w3.org/2000/svg" xmlns:xlink="http://www.w3.org/1999/xlink" x="0px" y="0px" width="16px"
	 height="16px" viewBox="0 0 16 16" style="enable-background:new 0 0 16 16;" xml:space="preserve">
<g id="food-cherry" style="enable-background:new    ;">
	<g id="food-cherry_2_">
		<g>
			<path d="M12.12,7.011c-0.508-0.618-1.15-1.479-1.684-2.452C9.87,3.525,9.364,1.832,9.132,0.999h1.367
				c0.275,0,0.5-0.224,0.5-0.499c0-0.276-0.225-0.501-0.5-0.501h-5c-0.276,0-0.5,0.225-0.5,0.501c0,0.275,0.224,0.499,0.5,0.499
				h1.688C6.67,1.832,5.628,3.525,5.062,4.559C4.415,5.739,3.98,7.12,3.736,8.024C1.652,8.163-0.001,9.88-0.001,11.999
				c0,2.209,1.791,4,4,4c2.209,0,4-1.791,4-4c0-1.945-1.39-3.564-3.23-3.922c0.244-0.775,0.652-1.935,1.237-3.124
				C6.446,4.058,7.349,2.75,8.05,1.78C8.472,2.75,9.052,4.058,9.493,4.954c0.576,1.172,1.145,1.825,1.529,2.18
				c-1.734,0.438-3.023,1.995-3.023,3.866c0,2.209,1.791,4,4,4s4-1.791,4-4C15.999,8.831,14.272,7.077,12.12,7.011z M6.999,11.999
				c0,1.656-1.343,3-3,3c-1.657,0-3-1.344-3-3s1.343-3,3-3C5.656,8.999,6.999,10.343,6.999,11.999z M11.999,13.999
				c-1.656,0-3-1.344-3-3s1.344-3,3-3s3,1.344,3,3S13.655,13.999,11.999,13.999z"/>
		</g>
	</g>
</g>
<g id="Layer_1">
</g>
</svg>
