<?xml version="1.0" encoding="iso-8859-1"?>
<!-- Generator: Adobe Illustrator 16.0.0, SVG Export Plug-In . SVG Version: 6.00 Build 0)  -->
<!DOCTYPE svg PUBLIC "-//W3C//DTD SVG 1.1//EN" "http://www.w3.org/Graphics/SVG/1.1/DTD/svg11.dtd">
<svg version="1.1" xmlns="http://www.w3.org/2000/svg" xmlns:xlink="http://www.w3.org/1999/xlink" x="0px" y="0px" width="16px"
	 height="16px" viewBox="0 0 16 16" style="enable-background:new 0 0 16 16;" xml:space="preserve">
<g id="food-cherry-a" style="enable-background:new    ;">
	<g id="food-cherry-a_1_">
		<g>
			<path d="M12.431,7.542c-0.533-0.906-1.344-2.297-1.994-3.483C9.923,3.124,9.464,2.093,9.208,1.499h1.291
				c0.275,0,0.5-0.224,0.5-0.5c0-0.275-0.225-0.5-0.5-0.5h-5c-0.276,0-0.5,0.225-0.5,0.5c0,0.276,0.224,0.5,0.5,0.5h1.522
				C6.47,2.093,5.574,3.124,5.062,4.059c-0.646,1.18-1.082,2.56-1.326,3.466C1.652,7.664-0.001,9.38-0.001,11.499
				c0,2.209,1.791,4,4,4c2.209,0,4-1.791,4-4c0-1.945-1.39-3.564-3.231-3.922c0.244-0.774,0.653-1.936,1.237-3.123
				c0.44-0.896,1.343-1.881,2.044-2.572c0.422,0.691,1.002,1.677,1.443,2.572c0.691,1.407,1.373,2.543,1.736,3.123
				c-1.84,0.358-3.23,1.977-3.23,3.922c0,2.209,1.791,4,4,4s4-1.791,4-4C15.999,9.438,14.435,7.76,12.431,7.542z M6.999,11.499
				c0,1.656-1.343,3-3,3c-1.657,0-3-1.344-3-3s1.343-3,3-3C5.656,8.499,6.999,9.843,6.999,11.499z M11.999,14.499
				c-1.656,0-3-1.344-3-3s1.344-3,3-3s3,1.344,3,3S13.655,14.499,11.999,14.499z"/>
		</g>
	</g>
</g>
<g id="Layer_1">
</g>
</svg>
