<?xml version="1.0" encoding="iso-8859-1"?>
<!-- Generator: Adobe Illustrator 16.0.0, SVG Export Plug-In . SVG Version: 6.00 Build 0)  -->
<!DOCTYPE svg PUBLIC "-//W3C//DTD SVG 1.1//EN" "http://www.w3.org/Graphics/SVG/1.1/DTD/svg11.dtd">
<svg version="1.1" xmlns="http://www.w3.org/2000/svg" xmlns:xlink="http://www.w3.org/1999/xlink" x="0px" y="0px" width="16px"
	 height="16px" viewBox="0 0 16 16" style="enable-background:new 0 0 16 16;" xml:space="preserve">
<g id="food-grape" style="enable-background:new    ;">
	<g id="food-grape_1_">
		<g>
			<path d="M15.999,4.999c0-1.656-1.344-3-3-3c-1.045,0-1.963,0.535-2.5,1.346c-0.449-0.678-1.166-1.155-2-1.296v-1.05h1
				c0.275,0,0.5-0.224,0.5-0.5s-0.225-0.5-0.5-0.5h-3c-0.276,0-0.5,0.224-0.5,0.5s0.224,0.5,0.5,0.5h1v1.05
				c-0.833,0.141-1.551,0.618-2,1.296c-0.538-0.811-1.456-1.346-2.5-1.346c-1.657,0-3,1.344-3,3c0,1.657,1.343,3,3,3
				c0.065,0,0.125-0.016,0.189-0.019C3.073,8.3,2.999,8.64,2.999,8.999c0,1.385,0.943,2.54,2.219,2.885
				c-0.139,0.346-0.22,0.721-0.22,1.115c0,1.657,1.343,3,3,3c1.656,0,3-1.343,3-3c0-0.358-0.066-0.7-0.182-1.019
				c0.061,0.004,0.119,0.019,0.182,0.019c1.656,0,3-1.343,3-3c0-0.396-0.08-0.771-0.221-1.115
				C15.056,7.538,15.999,6.385,15.999,4.999z M7.999,2.999c1.104,0,2,0.896,2,2s-0.896,2-2,2c-1.105,0-2-0.896-2-2
				S6.894,2.999,7.999,2.999z M2.999,6.999c-1.105,0-2-0.896-2-2s0.896-2,2-2c1.104,0,2,0.896,2,2S4.104,6.999,2.999,6.999z
				 M3.999,8.999c0-1.034,0.789-1.876,1.795-1.979C6.28,7.549,6.95,7.896,7.705,7.97c0.183,0.301,0.294,0.651,0.294,1.029
				c0,1.104-0.896,2-2,2C4.894,10.999,3.999,10.104,3.999,8.999z M7.999,14.999c-1.105,0-2-0.896-2-2
				c0-0.378,0.111-0.728,0.293-1.029c0.756-0.074,1.426-0.421,1.912-0.95c1.006,0.104,1.795,0.945,1.795,1.979
				C9.999,14.104,9.103,14.999,7.999,14.999z M10.999,10.999c-1.105,0-2-0.896-2-2s0.895-2,2-2c1.104,0,2,0.896,2,2
				S12.103,10.999,10.999,10.999z M13.202,6.979c-0.484-0.529-1.154-0.875-1.91-0.949c-0.182-0.302-0.293-0.652-0.293-1.03
				c0-1.104,0.895-2,2-2c1.104,0,2,0.896,2,2C14.999,6.034,14.21,6.875,13.202,6.979z"/>
		</g>
	</g>
</g>
<g id="Layer_1">
</g>
</svg>
