<?xml version="1.0" encoding="iso-8859-1"?>
<!-- Generator: Adobe Illustrator 16.0.0, SVG Export Plug-In . SVG Version: 6.00 Build 0)  -->
<!DOCTYPE svg PUBLIC "-//W3C//DTD SVG 1.1//EN" "http://www.w3.org/Graphics/SVG/1.1/DTD/svg11.dtd">
<svg version="1.1" xmlns="http://www.w3.org/2000/svg" xmlns:xlink="http://www.w3.org/1999/xlink" x="0px" y="0px" width="16px"
	 height="16px" viewBox="0 0 16 16" style="enable-background:new 0 0 16 16;" xml:space="preserve">
<g id="food-ice-cream-b" style="enable-background:new    ;">
	<g id="food-ice-cream-b_2_">
		<g>
			<path d="M14.499,4.499c0-1.38-1.119-2.5-2.5-2.5c-0.273,0-0.531,0.055-0.777,0.136C10.69,0.879,9.448,0,7.999,0
				C6.55,0,5.307,0.879,4.775,2.134C4.529,2.053,4.271,1.999,3.999,1.999c-1.381,0-2.5,1.12-2.5,2.5c0,0.172,0.018,0.339,0.05,0.5
				h-0.05v1h0.05c-0.013,0.168-0.05,0.328-0.05,0.5c0,3.418,2.648,6.19,6,6.45v2.051h-2v1h2h1h2v-1h-2v-2.051
				c3.352-0.26,6-3.031,6-6.45c0-0.172-0.037-0.332-0.051-0.5h0.051v-1h-0.051C14.481,4.837,14.499,4.67,14.499,4.499z M7.999,1
				c1.079,0,1.989,0.687,2.34,1.643C9.827,3.1,9.499,3.758,9.499,4.499c0,0.173,0.023,0.339,0.061,0.5H6.439
				c0.036-0.161,0.06-0.327,0.06-0.5c0-0.74-0.328-1.398-0.84-1.856C6.01,1.686,6.92,1,7.999,1z M3.999,3
				c0.828,0,1.5,0.671,1.5,1.499c0,0.178-0.044,0.343-0.101,0.5H2.732H2.6c-0.056-0.157-0.101-0.322-0.101-0.5
				C2.499,3.67,3.17,3,3.999,3z M7.999,11.999c-3.037,0-5.5-2.463-5.5-5.5c0-0.172,0.035-0.333,0.05-0.5h10.899
				c0.016,0.167,0.051,0.328,0.051,0.5C13.499,9.536,11.036,11.999,7.999,11.999z M13.397,4.999h-0.131h-2.666
				c-0.057-0.157-0.102-0.322-0.102-0.5c0-0.828,0.672-1.499,1.5-1.499s1.5,0.671,1.5,1.499C13.499,4.676,13.454,4.841,13.397,4.999
				z"/>
		</g>
	</g>
</g>
<g id="Layer_1">
</g>
</svg>
