<?xml version="1.0" encoding="iso-8859-1"?>
<!-- Generator: Adobe Illustrator 16.0.0, SVG Export Plug-In . SVG Version: 6.00 Build 0)  -->
<!DOCTYPE svg PUBLIC "-//W3C//DTD SVG 1.1//EN" "http://www.w3.org/Graphics/SVG/1.1/DTD/svg11.dtd">
<svg version="1.1" xmlns="http://www.w3.org/2000/svg" xmlns:xlink="http://www.w3.org/1999/xlink" x="0px" y="0px" width="16px"
	 height="16px" viewBox="0 0 16 16" style="enable-background:new 0 0 16 16;" xml:space="preserve">
<g id="food-onigiri" style="enable-background:new    ;">
	<g id="food-onigiri_1_">
		<g>
			<path d="M16.012,11.181c0-5.623-2.113-10.182-8.013-10.182c-5.901,0-8.014,4.559-8.014,10.182c0,0-0.512,3.03,5.536,3.687
				c0.142,0.077,0.297,0.132,0.47,0.132h2.008c0.001,0,0.003,0,0.004,0h2.003c0.173,0,0.327-0.055,0.469-0.131
				C16.524,14.213,16.012,11.181,16.012,11.181z M10.006,13.499c0,0.276-0.225,0.5-0.502,0.5H6.493c-0.277,0-0.502-0.224-0.502-0.5
				v-2c0-0.276,0.225-0.5,0.502-0.5h3.011c0.277,0,0.502,0.224,0.502,0.5V13.499z M14.633,12.291
				c-0.395,0.468-1.361,1.164-3.623,1.504v-2.796c0-0.553-0.449-1-1.004-1H5.991c-0.555,0-1.004,0.447-1.004,1v2.794
				c-2.196-0.333-3.167-0.998-3.574-1.447c-0.432-0.478-0.439-0.91-0.436-1.005l0.012-0.04v-0.12c0-4.188,1.216-9.182,7.01-9.182
				c5.792,0,7.009,4.993,7.009,9.182v0.086l0.015,0.086C15.023,11.356,15.051,11.796,14.633,12.291z"/>
		</g>
	</g>
</g>
<g id="Layer_1">
</g>
</svg>
