<?xml version="1.0" encoding="iso-8859-1"?>
<!-- Generator: Adobe Illustrator 16.0.0, SVG Export Plug-In . SVG Version: 6.00 Build 0)  -->
<!DOCTYPE svg PUBLIC "-//W3C//DTD SVG 1.1//EN" "http://www.w3.org/Graphics/SVG/1.1/DTD/svg11.dtd">
<svg version="1.1" xmlns="http://www.w3.org/2000/svg" xmlns:xlink="http://www.w3.org/1999/xlink" x="0px" y="0px" width="16px"
	 height="16px" viewBox="0 0 16 16" style="enable-background:new 0 0 16 16;" xml:space="preserve">
<g id="food-apple" style="enable-background:new    ;">
	<g id="food-apple_1_">
		<g>
			<path d="M7.749,3.928c0.239,0.139,0.545,0.056,0.684-0.185c0,0-0.01-0.732,0.484-1.473c0.506-0.754,1.516-1.516,1.516-1.516
				c0.137-0.241,0.055-0.549-0.184-0.688c-0.238-0.14-0.545-0.057-0.684,0.184c0,0-0.998,0.744-1.496,1.489
				C7.568,2.49,7.566,3.24,7.566,3.24C7.428,3.481,7.51,3.789,7.749,3.928z M11.099,3.998c-1.336,0-2.289,1-3.1,1
				c-0.812,0-1.764-1-3.099-1c-2.154,0-3.901,1.79-3.901,4c0,2.209,1.845,8,4,8c2,0,2-0.972,3-0.972s1,0.972,3,0.972
				c2.154,0,4-5.791,4-8C14.999,5.788,13.253,3.998,11.099,3.998z M10.999,14.998c-0.932,0-0.912-0.244-1.42-0.501
				c-0.434-0.222-0.926-0.471-1.58-0.471c-0.654,0-1.146,0.249-1.581,0.471c-0.508,0.257-0.487,0.501-1.419,0.501
				c-0.958,0-3-4.318-3-7c0-1.654,1.301-3,2.901-3c0.514,0,0.984,0.236,1.483,0.486c0.503,0.253,1.024,0.514,1.616,0.514
				c0.592,0,1.111-0.261,1.615-0.514c0.498-0.25,0.971-0.486,1.484-0.486c1.6,0,2.9,1.346,2.9,3
				C13.999,10.68,11.956,14.998,10.999,14.998z"/>
		</g>
	</g>
</g>
<g id="Layer_1">
</g>
</svg>
