<?xml version="1.0" encoding="iso-8859-1"?>
<!-- Generator: Adobe Illustrator 16.0.0, SVG Export Plug-In . SVG Version: 6.00 Build 0)  -->
<!DOCTYPE svg PUBLIC "-//W3C//DTD SVG 1.1//EN" "http://www.w3.org/Graphics/SVG/1.1/DTD/svg11.dtd">
<svg version="1.1" xmlns="http://www.w3.org/2000/svg" xmlns:xlink="http://www.w3.org/1999/xlink" x="0px" y="0px" width="16px"
	 height="16px" viewBox="0 0 16 16" style="enable-background:new 0 0 16 16;" xml:space="preserve">
<g id="food-hamburger-a" style="enable-background:new    ;">
	<g id="food-hamburger-a_2_">
		<g>
			<path d="M7.999-0.001c-4.418,0-8,3.581-8,7.999c0,0,0,0,0,0.001v1v2v1v3c0,0.553,0.448,1,1,1h14c0.553,0,1-0.447,1-1v-3v-1v-2
				V8.001V7.999C15.999,3.581,12.417-0.001,7.999-0.001z M14.999,14.499c0,0.276-0.225,0.5-0.5,0.5h-13c-0.276,0-0.5-0.224-0.5-0.5
				v-2.5h14V14.499z M14.999,10.999h-14v-2h14V10.999z M14.999,7.999h-14v-0.5c0-0.093,0.032-0.174,0.075-0.248
				c0.378-3.509,3.315-6.252,6.925-6.252c3.609,0,6.547,2.743,6.924,6.252c0.045,0.074,0.076,0.155,0.076,0.248V7.999z"/>
		</g>
	</g>
</g>
<g id="Layer_1">
</g>
</svg>
