<?xml version="1.0" encoding="iso-8859-1"?>
<!-- Generator: Adobe Illustrator 16.0.0, SVG Export Plug-In . SVG Version: 6.00 Build 0)  -->
<!DOCTYPE svg PUBLIC "-//W3C//DTD SVG 1.1//EN" "http://www.w3.org/Graphics/SVG/1.1/DTD/svg11.dtd">
<svg version="1.1" xmlns="http://www.w3.org/2000/svg" xmlns:xlink="http://www.w3.org/1999/xlink" x="0px" y="0px" width="16px"
	 height="16px" viewBox="0 0 16 16" style="enable-background:new 0 0 16 16;" xml:space="preserve">
<g id="food-noodle" style="enable-background:new    ;">
	<g id="food-noodle_1_">
		<g>
			<path d="M11.938,1.239c0.139-0.236,0.057-0.536-0.182-0.673c-0.238-0.136-0.545-0.056-0.684,0.179L7.685,6.498h1.156
				L11.938,1.239z M10.688,6.498l3.877-3.452c0.205-0.184,0.225-0.5,0.041-0.706s-0.5-0.225-0.707-0.04L9.187,6.498H10.688z
				 M15.499,7.498h-0.5h-14h-0.5h-0.5c0,4.418,3.582,8,8,8c4.418,0,8-3.582,8-8H15.499z M7.999,14.498
				c-2.369,0-4.43-1.195-5.688-2.998h11.375C12.429,13.303,10.368,14.498,7.999,14.498z M14.269,10.498H1.728
				c-0.297-0.625-0.526-1.29-0.628-2h13.798C14.796,9.208,14.567,9.873,14.269,10.498z"/>
		</g>
	</g>
</g>
<g id="Layer_1">
</g>
</svg>
