<?xml version="1.0" encoding="iso-8859-1"?>
<!-- Generator: Adobe Illustrator 16.0.0, SVG Export Plug-In . SVG Version: 6.00 Build 0)  -->
<!DOCTYPE svg PUBLIC "-//W3C//DTD SVG 1.1//EN" "http://www.w3.org/Graphics/SVG/1.1/DTD/svg11.dtd">
<svg version="1.1" xmlns="http://www.w3.org/2000/svg" xmlns:xlink="http://www.w3.org/1999/xlink" x="0px" y="0px" width="16px"
	 height="16px" viewBox="0 0 16 16" style="enable-background:new 0 0 16 16;" xml:space="preserve">
<g id="interface-arrow-right-t" style="enable-background:new    ;">
	<g id="interface-arrow-right-t_2_">
		<g>
			<path d="M11.988,2.511c0-0.277-0.223-0.501-0.498-0.501H4.511c-0.275,0-0.499,0.224-0.499,0.501c0,0.276,0.223,0.501,0.499,0.501
				h5.782l-8.14,8.141c-0.191,0.191-0.191,0.5,0,0.691s0.501,0.191,0.692,0l8.141-8.14v5.783c0,0.275,0.225,0.498,0.5,0.498
				c0.277,0,0.502-0.223,0.502-0.498V2.522c0,0-0.002-0.001-0.002-0.002C11.988,2.517,11.988,2.514,11.988,2.511z"/>
		</g>
	</g>
</g>
<g id="Layer_1">
</g>
</svg>
