<?xml version="1.0" encoding="iso-8859-1"?>
<!-- Generator: Adobe Illustrator 16.0.0, SVG Export Plug-In . SVG Version: 6.00 Build 0)  -->
<!DOCTYPE svg PUBLIC "-//W3C//DTD SVG 1.1//EN" "http://www.w3.org/Graphics/SVG/1.1/DTD/svg11.dtd">
<svg version="1.1" xmlns="http://www.w3.org/2000/svg" xmlns:xlink="http://www.w3.org/1999/xlink" x="0px" y="0px" width="16px"
	 height="16px" viewBox="0 0 16 16" style="enable-background:new 0 0 16 16;" xml:space="preserve">
<g id="interface-right-r" style="enable-background:new    ;">
	<g id="interface-right-r_1_">
		<g>
			<path d="M10.335,7.634L6.344,3.642c-0.194-0.194-0.508-0.194-0.702,0s-0.194,0.509,0,0.702l3.654,3.654l-3.654,3.655
				c-0.194,0.193-0.194,0.508,0,0.703c0.194,0.193,0.508,0.193,0.702,0l3.993-3.992c0.006-0.006,0.014-0.004,0.02-0.01
				c0.098-0.098,0.145-0.227,0.143-0.356c0.002-0.129-0.045-0.258-0.143-0.356C10.351,7.637,10.341,7.639,10.335,7.634z
				 M7.999-0.001c-4.418,0-8,3.582-8,8c0,4.418,3.582,8,8,8c4.418,0,8-3.582,8-8C15.999,3.581,12.417-0.001,7.999-0.001z
				 M7.999,14.999c-3.866,0-7-3.135-7-7c0-3.867,3.134-7,7-7c3.865,0,7,3.134,7,7C14.999,11.864,11.864,14.999,7.999,14.999z"/>
		</g>
	</g>
</g>
<g id="Layer_1">
</g>
</svg>
