<?xml version="1.0" encoding="iso-8859-1"?>
<!-- Generator: Adobe Illustrator 16.0.0, SVG Export Plug-In . SVG Version: 6.00 Build 0)  -->
<!DOCTYPE svg PUBLIC "-//W3C//DTD SVG 1.1//EN" "http://www.w3.org/Graphics/SVG/1.1/DTD/svg11.dtd">
<svg version="1.1" xmlns="http://www.w3.org/2000/svg" xmlns:xlink="http://www.w3.org/1999/xlink" x="0px" y="0px" width="16px"
	 height="16px" viewBox="0 0 16 16" style="enable-background:new 0 0 16 16;" xml:space="preserve">
<g id="interface-left-r" style="enable-background:new    ;">
	<g id="interface-left-r_1_">
		<g>
			<path d="M10.356,3.642c-0.195-0.194-0.51-0.194-0.703,0L5.662,7.634c-0.005,0.005-0.014,0.003-0.02,0.008
				C5.543,7.741,5.498,7.87,5.499,7.999C5.498,8.128,5.543,8.257,5.642,8.354c0.005,0.006,0.014,0.004,0.019,0.01l3.992,3.992
				c0.193,0.193,0.508,0.193,0.703,0c0.193-0.195,0.193-0.51,0-0.703L6.701,7.999l3.655-3.654C10.55,4.151,10.55,3.836,10.356,3.642
				z M7.999-0.001c-4.418,0-8,3.582-8,8c0,4.418,3.582,8,8,8c4.418,0,8-3.582,8-8C15.999,3.581,12.417-0.001,7.999-0.001z
				 M7.999,14.999c-3.866,0-7-3.135-7-7c0-3.867,3.134-7,7-7c3.865,0,7,3.134,7,7C14.999,11.864,11.864,14.999,7.999,14.999z"/>
		</g>
	</g>
</g>
<g id="Layer_1">
</g>
</svg>
