<?xml version="1.0" encoding="iso-8859-1"?>
<!-- Generator: Adobe Illustrator 16.0.0, SVG Export Plug-In . SVG Version: 6.00 Build 0)  -->
<!DOCTYPE svg PUBLIC "-//W3C//DTD SVG 1.1//EN" "http://www.w3.org/Graphics/SVG/1.1/DTD/svg11.dtd">
<svg version="1.1" xmlns="http://www.w3.org/2000/svg" xmlns:xlink="http://www.w3.org/1999/xlink" x="0px" y="0px" width="16px"
	 height="16px" viewBox="0 0 16 16" style="enable-background:new 0 0 16 16;" xml:space="preserve">
<g id="interface-rigth-b-k" style="enable-background:new    ;">
	<g id="interface-rigth-b-k_1_">
		<g>
			<path d="M14,13.21l-1.783-9.247c-0.111-0.533-0.515-0.657-0.896-0.277l-2.417,2.41L5.38,2.583
				C4.601,1.806,3.338,1.806,2.56,2.581S1.783,4.616,2.562,5.394l3.523,3.513l-2.407,2.399c-0.381,0.381-0.256,0.783,0.278,0.893
				l9.273,1.779c0.267,0.056,0.487-0.004,0.627-0.143S14.056,13.476,14,13.21z M4.987,11.408l2.509-2.501L3.267,4.69
				c-0.39-0.389-0.39-1.018-0.001-1.406c0.389-0.388,1.021-0.388,1.41,0.001l4.229,4.217l2.52-2.512l1.506,7.921L4.987,11.408z"/>
		</g>
	</g>
</g>
<g id="Layer_1">
</g>
</svg>
