<?xml version="1.0" encoding="iso-8859-1"?>
<!-- Generator: Adobe Illustrator 16.0.0, SVG Export Plug-In . SVG Version: 6.00 Build 0)  -->
<!DOCTYPE svg PUBLIC "-//W3C//DTD SVG 1.1//EN" "http://www.w3.org/Graphics/SVG/1.1/DTD/svg11.dtd">
<svg version="1.1" xmlns="http://www.w3.org/2000/svg" xmlns:xlink="http://www.w3.org/1999/xlink" x="0px" y="0px" width="16px"
	 height="16px" viewBox="0 0 16 16" style="enable-background:new 0 0 16 16;" xml:space="preserve">
<g id="interface-arrow-right-circle" style="enable-background:new    ;">
	<g id="interface-arrow-right-circle_1_">
		<g>
			<path d="M7.999,0.499c-4.142,0-7.5,3.357-7.5,7.5c0,4.142,3.358,7.5,7.5,7.5c4.143,0,7.5-3.358,7.5-7.5
				C15.499,3.856,12.142,0.499,7.999,0.499z M7.999,14.499c-3.59,0-6.5-2.911-6.5-6.5c0-3.59,2.91-6.501,6.5-6.501
				s6.5,2.911,6.5,6.501C14.499,11.588,11.589,14.499,7.999,14.499z M12.862,7.661c-0.004-0.006-0.002-0.014-0.006-0.02
				c-0.006-0.005-0.014-0.005-0.02-0.008c-0.004-0.003-0.01-0.005-0.014-0.008L9.345,4.642c-0.193-0.193-0.508-0.193-0.703,0
				c-0.193,0.194-0.193,0.509,0,0.702l2.514,2.154H2.999c-0.276,0-0.5,0.225-0.5,0.5c0,0.277,0.224,0.5,0.5,0.5h8.156l-2.514,2.154
				c-0.193,0.194-0.193,0.509,0,0.702c0.195,0.195,0.51,0.195,0.703,0l3.477-2.981c0.006-0.004,0.012-0.006,0.016-0.01
				c0.006-0.003,0.014-0.003,0.02-0.008c0.004-0.006,0.002-0.014,0.006-0.02c0.084-0.089,0.137-0.206,0.137-0.338
				C12.999,7.867,12.946,7.75,12.862,7.661z"/>
		</g>
	</g>
</g>
<g id="Layer_1">
</g>
</svg>
