<?xml version="1.0" encoding="iso-8859-1"?>
<!-- Generator: Adobe Illustrator 16.0.0, SVG Export Plug-In . SVG Version: 6.00 Build 0)  -->
<!DOCTYPE svg PUBLIC "-//W3C//DTD SVG 1.1//EN" "http://www.w3.org/Graphics/SVG/1.1/DTD/svg11.dtd">
<svg version="1.1" xmlns="http://www.w3.org/2000/svg" xmlns:xlink="http://www.w3.org/1999/xlink" x="0px" y="0px" width="16px"
	 height="16px" viewBox="0 0 16 16" style="enable-background:new 0 0 16 16;" xml:space="preserve">
<g id="interface-login" style="enable-background:new    ;">
	<g id="interface-login_2_">
		<g>
			<path d="M14.999,0.499h-12c-0.553,0-1,0.447-1,0.999v3.001h1v-2.5c0-0.277,0.224-0.501,0.5-0.501h11c0.275,0,0.5,0.224,0.5,0.501
				v11.999c0,0.276-0.225,0.5-0.5,0.5h-11c-0.276,0-0.5-0.224-0.5-0.5v-2.499h-1v2.999c0,0.553,0.447,1.001,1,1.001h12
				c0.553,0,1-0.448,1-1.001v-13C15.999,0.946,15.552,0.499,14.999,0.499z M9.142,11.665c-0.191,0.19-0.191,0.5,0,0.691
				c0.191,0.189,0.5,0.189,0.691,0l3.982-3.983c0.004-0.005,0.014-0.003,0.018-0.008c0.008-0.006,0.018-0.003,0.023-0.01
				c0.006-0.006,0.004-0.017,0.01-0.023c0.074-0.082,0.121-0.189,0.127-0.309c0-0.006,0.004-0.011,0.004-0.018
				c0-0.003,0.002-0.005,0.002-0.008c0-0.002-0.002-0.004-0.002-0.007c0-0.009-0.006-0.016-0.006-0.024
				c-0.008-0.101-0.049-0.186-0.107-0.26c-0.016-0.02-0.01-0.048-0.027-0.065c-0.012-0.013-0.031-0.008-0.045-0.019
				c-0.004-0.003-0.006-0.009-0.01-0.013L9.833,3.642c-0.191-0.191-0.5-0.191-0.691,0c-0.191,0.19-0.191,0.5,0,0.69l3.166,3.166
				H0.499c-0.276,0-0.5,0.225-0.5,0.5c0,0.277,0.224,0.501,0.5,0.501h11.809L9.142,11.665z"/>
		</g>
	</g>
</g>
<g id="Layer_1">
</g>
</svg>
