<?xml version="1.0" encoding="iso-8859-1"?>
<!-- Generator: Adobe Illustrator 16.0.0, SVG Export Plug-In . SVG Version: 6.00 Build 0)  -->
<!DOCTYPE svg PUBLIC "-//W3C//DTD SVG 1.1//EN" "http://www.w3.org/Graphics/SVG/1.1/DTD/svg11.dtd">
<svg version="1.1" xmlns="http://www.w3.org/2000/svg" xmlns:xlink="http://www.w3.org/1999/xlink" x="0px" y="0px" width="16px"
	 height="16px" viewBox="0 0 16 16" style="enable-background:new 0 0 16 16;" xml:space="preserve">
<g id="interface-home-a" style="enable-background:new    ;">
	<g id="interface-home-a_2_">
		<g>
			<path d="M15.849,8.132L8.36,0.143c-0.1-0.101-0.23-0.147-0.361-0.146C7.868-0.004,7.737,0.042,7.637,0.143L0.148,8.132
				c-0.197,0.197-0.197,0.516,0,0.713c0.197,0.196,0.516,0.196,0.712,0l2.146-2.29v8.947c0,0.275,0.224,0.5,0.5,0.5h8.999
				c0.276,0,0.5-0.225,0.5-0.5v-8.93l2.131,2.273c0.196,0.196,0.516,0.196,0.712,0C16.046,8.647,16.046,8.329,15.849,8.132z
				 M12.006,6.001v9H4.007v-9c0-0.14-0.057-0.265-0.148-0.355L7.999,1.23l4.148,4.426C12.061,5.746,12.006,5.867,12.006,6.001z"/>
		</g>
	</g>
</g>
<g id="Layer_1">
</g>
</svg>
