<?xml version="1.0" encoding="iso-8859-1"?>
<!-- Generator: Adobe Illustrator 16.0.0, SVG Export Plug-In . SVG Version: 6.00 Build 0)  -->
<!DOCTYPE svg PUBLIC "-//W3C//DTD SVG 1.1//EN" "http://www.w3.org/Graphics/SVG/1.1/DTD/svg11.dtd">
<svg version="1.1" xmlns="http://www.w3.org/2000/svg" xmlns:xlink="http://www.w3.org/1999/xlink" x="0px" y="0px" width="16px"
	 height="16px" viewBox="0 0 16 16" style="enable-background:new 0 0 16 16;" xml:space="preserve">
<g id="interface-more" style="enable-background:new    ;">
	<g id="interface-more_2_">
		<g>
			<path d="M7.999,5.999c-1.105,0-2,0.896-2,2c0,1.106,0.895,2,2,2c1.104,0,2-0.895,2-2C9.999,6.894,9.103,5.999,7.999,5.999z
				 M7.999,8.999c-0.553,0-1-0.447-1-1c0-0.552,0.447-1,1-1s1,0.448,1,1C8.999,8.552,8.552,8.999,7.999,8.999z M1.999,5.999
				c-1.104,0-2,0.896-2,2c0,1.106,0.896,2,2,2s2-0.895,2-2C3.999,6.894,3.104,5.999,1.999,5.999z M1.999,8.999c-0.553,0-1-0.447-1-1
				c0-0.552,0.447-1,1-1c0.552,0,1,0.448,1,1C2.999,8.552,2.551,8.999,1.999,8.999z M13.999,5.999c-1.105,0-2,0.896-2,2
				c0,1.106,0.895,2,2,2c1.104,0,2-0.895,2-2C15.999,6.894,15.103,5.999,13.999,5.999z M13.999,8.999c-0.553,0-1-0.447-1-1
				c0-0.552,0.447-1,1-1s1,0.448,1,1C14.999,8.552,14.552,8.999,13.999,8.999z"/>
		</g>
	</g>
</g>
<g id="Layer_1">
</g>
</svg>
