<?xml version="1.0" encoding="iso-8859-1"?>
<!-- Generator: Adobe Illustrator 16.0.0, SVG Export Plug-In . SVG Version: 6.00 Build 0)  -->
<!DOCTYPE svg PUBLIC "-//W3C//DTD SVG 1.1//EN" "http://www.w3.org/Graphics/SVG/1.1/DTD/svg11.dtd">
<svg version="1.1" xmlns="http://www.w3.org/2000/svg" xmlns:xlink="http://www.w3.org/1999/xlink" x="0px" y="0px" width="16px"
	 height="16px" viewBox="0 0 16 16" style="enable-background:new 0 0 16 16;" xml:space="preserve">
<g id="interface-circle-minus" style="enable-background:new    ;">
	<g id="interface-circle-minus_2_">
		<g>
			<path d="M7.999,0.499c-4.142,0-7.5,3.358-7.5,7.5c0,4.143,3.358,7.5,7.5,7.5c4.143,0,7.5-3.357,7.5-7.5
				C15.499,3.857,12.142,0.499,7.999,0.499z M7.999,14.5c-3.59,0-6.5-2.911-6.5-6.501c0-3.589,2.91-6.5,6.5-6.5s6.5,2.911,6.5,6.5
				C14.499,11.589,11.589,14.5,7.999,14.5z M10.976,7.511H5.022c-0.288,0-0.521,0.219-0.521,0.488s0.233,0.488,0.521,0.488h5.954
				c0.287,0,0.521-0.219,0.521-0.488S11.263,7.511,10.976,7.511z"/>
		</g>
	</g>
</g>
<g id="Layer_1">
</g>
</svg>
