<?xml version="1.0" encoding="iso-8859-1"?>
<!-- Generator: Adobe Illustrator 16.0.0, SVG Export Plug-In . SVG Version: 6.00 Build 0)  -->
<!DOCTYPE svg PUBLIC "-//W3C//DTD SVG 1.1//EN" "http://www.w3.org/Graphics/SVG/1.1/DTD/svg11.dtd">
<svg version="1.1" xmlns="http://www.w3.org/2000/svg" xmlns:xlink="http://www.w3.org/1999/xlink" x="0px" y="0px" width="16px"
	 height="16px" viewBox="0 0 16 16" style="enable-background:new 0 0 16 16;" xml:space="preserve">
<g id="interface-in-link" style="enable-background:new    ;">
	<g id="interface-in-link_1_">
		<g>
			<path d="M13.488,14.002c0,0.275-0.224,0.5-0.499,0.5H2.012c-0.275,0-0.499-0.225-0.499-0.5V3.001
				c0-0.275,0.224-0.499,0.499-0.499h6.486v-1H1.513c-0.551,0-0.998,0.447-0.998,1v12c0,0.552,0.447,1,0.998,1h11.976
				c0.551,0,0.998-0.448,0.998-1V7.501h-0.998V14.002z M15.338,0.638c-0.192-0.19-0.502-0.188-0.692,0.003L6.528,8.804L6.504,5.002
				C6.503,4.742,6.278,4.533,6,4.534C5.724,4.535,5.5,4.747,5.5,5.007l0.032,4.987c0,0.001-0.001,0.002-0.001,0.003
				s0.001,0.002,0.001,0.004v0.028c0,0.112,0.049,0.211,0.12,0.292c0.009,0.011,0.014,0.023,0.024,0.033
				c0.012,0.011,0.026,0.018,0.039,0.027c0.081,0.068,0.179,0.115,0.29,0.114h0.027c0.001,0,0.002,0.001,0.004,0.001
				c0.001,0,0.001-0.001,0.002-0.001l5.013-0.031c0.26-0.002,0.471-0.227,0.469-0.502c-0.001-0.277-0.213-0.5-0.473-0.5L7.229,9.487
				l8.112-8.159C15.531,1.137,15.53,0.827,15.338,0.638z"/>
		</g>
	</g>
</g>
<g id="Layer_1">
</g>
</svg>
