<?xml version="1.0" encoding="iso-8859-1"?>
<!-- Generator: Adobe Illustrator 16.0.0, SVG Export Plug-In . SVG Version: 6.00 Build 0)  -->
<!DOCTYPE svg PUBLIC "-//W3C//DTD SVG 1.1//EN" "http://www.w3.org/Graphics/SVG/1.1/DTD/svg11.dtd">
<svg version="1.1" xmlns="http://www.w3.org/2000/svg" xmlns:xlink="http://www.w3.org/1999/xlink" x="0px" y="0px" width="16px"
	 height="16px" viewBox="0 0 16 16" style="enable-background:new 0 0 16 16;" xml:space="preserve">
<g id="interface-cmd" style="enable-background:new    ;">
	<g id="interface-cmd_1_">
		<g>
			<path d="M12.999,9.999h-2v-4h2c1.656,0,3-1.343,3-3c0-1.656-1.344-3-3-3s-3,1.344-3,3V5h-4V2.999c0-1.656-1.343-3-3-3
				c-1.657,0-3,1.344-3,3c0,1.657,1.343,3,3,3h2v4h-2c-1.657,0-3,1.342-3,3c0,1.656,1.343,3,3,3c1.657,0,3-1.344,3-3v-2h4v2
				c0,1.656,1.344,3,3,3s3-1.344,3-3C15.999,11.341,14.655,9.999,12.999,9.999z M10.999,2.999c0-1.104,0.895-2,2-2
				c1.104,0,2,0.896,2,2c0,1.105-0.896,2.001-2,2.001h-2V2.999z M4.999,12.999c0,1.104-0.895,2-2,2c-1.105,0-2-0.896-2-2
				c0-1.105,0.895-2,2-2h2V12.999z M4.999,5h-2c-1.105,0-2-0.896-2-2.001c0-1.104,0.895-2,2-2c1.104,0,2,0.896,2,2V5z M9.999,9.999
				h-4v-4h4V9.999z M12.999,14.999c-1.105,0-2-0.896-2-2v-2h2c1.104,0,2,0.895,2,2C14.999,14.103,14.103,14.999,12.999,14.999z"/>
		</g>
	</g>
</g>
<g id="Layer_1">
</g>
</svg>
