<?xml version="1.0" encoding="iso-8859-1"?>
<!-- Generator: Adobe Illustrator 16.0.0, SVG Export Plug-In . SVG Version: 6.00 Build 0)  -->
<!DOCTYPE svg PUBLIC "-//W3C//DTD SVG 1.1//EN" "http://www.w3.org/Graphics/SVG/1.1/DTD/svg11.dtd">
<svg version="1.1" xmlns="http://www.w3.org/2000/svg" xmlns:xlink="http://www.w3.org/1999/xlink" x="0px" y="0px" width="16px"
	 height="16px" viewBox="0 0 16 16" style="enable-background:new 0 0 16 16;" xml:space="preserve">
<g id="interface-block" style="enable-background:new    ;">
	<g id="interface-block_2_">
		<g>
			<path d="M13.991,2.711l0.002-0.002l-0.045-0.046c-0.193-0.216-0.398-0.42-0.613-0.613l-0.047-0.046l-0.002,0.002
				C11.876,0.761,10.028,0,7.999,0c-4.418,0-8,3.581-8,7.999c0,2.03,0.762,3.877,2.007,5.288l-0.002,0.002l0.048,0.049
				c0.193,0.215,0.396,0.418,0.611,0.611l0.046,0.045l0.002-0.002c1.411,1.246,3.258,2.008,5.288,2.008c4.418,0,8-3.582,8-8
				C15.999,5.969,15.237,4.122,13.991,2.711z M0.999,7.999c0-3.865,3.134-7,7-7c1.752,0,3.336,0.667,4.563,1.731L2.73,12.562
				C1.666,11.335,0.999,9.753,0.999,7.999z M7.999,14.999c-1.753,0-3.335-0.666-4.563-1.732l9.831-9.832
				c1.066,1.229,1.732,2.812,1.732,4.563C14.999,11.864,11.864,14.999,7.999,14.999z"/>
		</g>
	</g>
</g>
<g id="Layer_1">
</g>
</svg>
