<?xml version="1.0" encoding="iso-8859-1"?>
<!-- Generator: Adobe Illustrator 16.0.0, SVG Export Plug-In . SVG Version: 6.00 Build 0)  -->
<!DOCTYPE svg PUBLIC "-//W3C//DTD SVG 1.1//EN" "http://www.w3.org/Graphics/SVG/1.1/DTD/svg11.dtd">
<svg version="1.1" xmlns="http://www.w3.org/2000/svg" xmlns:xlink="http://www.w3.org/1999/xlink" x="0px" y="0px" width="16px"
	 height="16px" viewBox="0 0 16 16" style="enable-background:new 0 0 16 16;" xml:space="preserve">
<g id="interface-refresh" style="enable-background:new    ;">
	<g id="interface-refresh_2_">
		<g>
			<path d="M0.274,5.947C0.27,5.964,0.269,5.982,0.264,5.999h1.06h4.172c0.276,0,0.5-0.225,0.5-0.501c0-0.275-0.224-0.5-0.5-0.5
				H1.699c1.126-2.357,3.513-3.999,6.3-3.999c3.523,0,6.41,2.613,6.898,6.001h1.033c-0.494-3.945-3.854-7.001-7.932-7.001
				C4.976-0.001,2.36,1.686,1,4.16V0.502c0-0.276-0.224-0.5-0.5-0.5S0,0.226,0,0.502v4.957c-0.001,0.014-0.008,0.025-0.008,0.039
				c0,0.025,0.017,0.043,0.02,0.066c0.007,0.062,0.023,0.119,0.051,0.172c0.011,0.019,0.022,0.035,0.036,0.053
				C0.145,5.855,0.202,5.91,0.274,5.947z M15.987,10.434c-0.008-0.062-0.023-0.118-0.051-0.171c-0.012-0.02-0.023-0.035-0.037-0.053
				c-0.047-0.066-0.104-0.121-0.176-0.158c0.004-0.018,0.006-0.035,0.01-0.053h-1.061c0,0.001,0,0.001,0,0.001h-4.172
				c-0.275,0-0.5,0.224-0.5,0.5c0,0.277,0.225,0.501,0.5,0.501h3.797C13.173,13.358,10.786,15,7.999,15c-3.523,0-6.41-2.612-6.899-6
				H0.068c0.493,3.945,3.853,6.999,7.931,6.999c3.023,0,5.639-1.686,6.998-4.161v3.659c0,0.276,0.225,0.5,0.5,0.5
				c0.277,0,0.502-0.224,0.502-0.5v-4.958c0-0.014,0.008-0.025,0.008-0.039C16.007,10.476,15.989,10.457,15.987,10.434z"/>
		</g>
	</g>
</g>
<g id="Layer_1">
</g>
</svg>
