<?xml version="1.0" encoding="iso-8859-1"?>
<!-- Generator: Adobe Illustrator 16.0.0, SVG Export Plug-In . SVG Version: 6.00 Build 0)  -->
<!DOCTYPE svg PUBLIC "-//W3C//DTD SVG 1.1//EN" "http://www.w3.org/Graphics/SVG/1.1/DTD/svg11.dtd">
<svg version="1.1" xmlns="http://www.w3.org/2000/svg" xmlns:xlink="http://www.w3.org/1999/xlink" x="0px" y="0px" width="16px"
	 height="16px" viewBox="0 0 16 16" style="enable-background:new 0 0 16 16;" xml:space="preserve">
<g id="interface-crop" style="enable-background:new    ;">
	<g id="interface-crop_2_">
		<g>
			<path d="M15.499,12.999h-1.5v-10c0-0.143-0.061-0.401-0.156-0.622l0.502-0.524c0.197-0.197,0.197-0.518,0-0.715
				c-0.197-0.196-0.517-0.196-0.713,0l-0.824,0.861H2.999V0.5c0-0.277-0.224-0.501-0.5-0.501s-0.5,0.224-0.5,0.501v1.499h-1.5
				c-0.276,0-0.5,0.224-0.5,0.5s0.224,0.5,0.5,0.5h1.5v10.495v0.006c0,0.275,0.224,0.5,0.5,0.5h0.004h0.001h10.495v1.5
				c0,0.275,0.225,0.5,0.5,0.5c0.276,0,0.5-0.225,0.5-0.5v-1.5h1.5c0.276,0,0.5-0.225,0.5-0.5
				C15.999,13.222,15.775,12.999,15.499,12.999z M2.999,2.999h8.851l-8.851,9.247V2.999z M12.999,12.999H3.676l9.323-9.742V12.999z"
				/>
		</g>
	</g>
</g>
<g id="Layer_1">
</g>
</svg>
