<?xml version="1.0" encoding="iso-8859-1"?>
<!-- Generator: Adobe Illustrator 16.0.0, SVG Export Plug-In . SVG Version: 6.00 Build 0)  -->
<!DOCTYPE svg PUBLIC "-//W3C//DTD SVG 1.1//EN" "http://www.w3.org/Graphics/SVG/1.1/DTD/svg11.dtd">
<svg version="1.1" xmlns="http://www.w3.org/2000/svg" xmlns:xlink="http://www.w3.org/1999/xlink" x="0px" y="0px" width="16px"
	 height="16px" viewBox="0 0 16 16" style="enable-background:new 0 0 16 16;" xml:space="preserve">
<g id="interface-circle-tick-a" style="enable-background:new    ;">
	<g id="interface-circle-tick-a_1_">
		<g>
			<path d="M5.849,7.141c-0.193-0.192-0.507-0.192-0.7,0c-0.194,0.192-0.194,0.505,0,0.696l2.952,2.937
				c0.013,0.016,0.008,0.039,0.022,0.053c0.102,0.102,0.234,0.143,0.367,0.139c0.131,0.002,0.263-0.041,0.362-0.141
				c0.012-0.012,0.008-0.031,0.018-0.043l6.979-6.944c0.194-0.192,0.194-0.506,0-0.698c-0.194-0.193-0.509-0.193-0.702,0
				l-6.66,6.625L5.849,7.141z M14.949,7.558c0.01,0.148,0.044,0.289,0.044,0.441c0,3.867-3.132,7-6.997,7
				c-3.864,0-6.997-3.133-6.997-7c0-3.866,3.133-7,6.997-7c1.745,0,3.32,0.662,4.545,1.719l0.734-0.715
				C11.867,0.759,10.022,0,7.997,0c-4.415,0-7.994,3.581-7.994,8c0,4.418,3.579,8,7.994,8c4.416,0,7.995-3.582,7.995-8
				c0-0.457-0.047-0.901-0.121-1.336L14.949,7.558z"/>
		</g>
	</g>
</g>
<g id="Layer_1">
</g>
</svg>
