<?xml version="1.0" encoding="iso-8859-1"?>
<!-- Generator: Adobe Illustrator 16.0.0, SVG Export Plug-In . SVG Version: 6.00 Build 0)  -->
<!DOCTYPE svg PUBLIC "-//W3C//DTD SVG 1.1//EN" "http://www.w3.org/Graphics/SVG/1.1/DTD/svg11.dtd">
<svg version="1.1" xmlns="http://www.w3.org/2000/svg" xmlns:xlink="http://www.w3.org/1999/xlink" x="0px" y="0px" width="16px"
	 height="16px" viewBox="0 0 16 16" style="enable-background:new 0 0 16 16;" xml:space="preserve">
<g id="interface-star" style="enable-background:new    ;">
	<g id="interface-star_1_">
		<g>
			<path d="M15.983,6.002c0-0.008-0.004-0.014-0.004-0.021c-0.006-0.123-0.055-0.232-0.131-0.317
				c-0.006-0.005-0.004-0.014-0.008-0.02c-0.006-0.005-0.014-0.002-0.02-0.008c-0.084-0.078-0.193-0.126-0.316-0.131
				c-0.008,0-0.014-0.004-0.02-0.004c0,0,0,0-0.002,0h-4.207L8.431,0.24c-0.004-0.009-0.014-0.014-0.02-0.022
				C8.394,0.191,8.37,0.169,8.347,0.146C8.321,0.122,8.298,0.1,8.271,0.082c-0.008-0.006-0.014-0.015-0.021-0.02
				C8.229,0.052,8.21,0.052,8.19,0.043C8.159,0.03,8.128,0.018,8.093,0.012C8.062,0.006,8.03,0.005,7.999,0.005
				c-0.032,0-0.063,0.001-0.094,0.007C7.871,0.018,7.839,0.03,7.807,0.043c-0.019,0.009-0.04,0.009-0.058,0.02
				C7.74,0.067,7.736,0.076,7.727,0.082C7.699,0.1,7.676,0.122,7.652,0.146C7.628,0.169,7.605,0.191,7.586,0.218
				C7.581,0.227,7.572,0.231,7.567,0.24L4.722,5.502H0.514c0,0,0,0,0,0c-0.007,0-0.013,0.004-0.02,0.004
				C0.371,5.511,0.261,5.559,0.176,5.637C0.171,5.643,0.163,5.64,0.158,5.645C0.152,5.65,0.154,5.659,0.149,5.664
				C0.072,5.749,0.024,5.858,0.019,5.98c0,0.008-0.004,0.014-0.004,0.021c0,0.144,0.063,0.271,0.16,0.362l3.754,3.762l-1.411,5.228
				c-0.012,0.046-0.009,0.091-0.008,0.137c0,0.013-0.003,0.021-0.002,0.034c0.009,0.117,0.061,0.223,0.14,0.308
				c0.005,0.006,0.002,0.013,0.008,0.018c0.003,0.003,0.008,0.001,0.011,0.005c0.061,0.058,0.131,0.106,0.218,0.13
				c0.046,0.012,0.092,0.008,0.137,0.008c0,0,0.001,0,0.001,0c0.125-0.001,0.238-0.045,0.33-0.124
				c0.01-0.008,0.025-0.004,0.035-0.013l4.611-3.281l4.611,3.281c0.01,0.009,0.025,0.005,0.035,0.013
				c0.092,0.079,0.205,0.123,0.33,0.124c0.045,0,0.092,0.004,0.137-0.008c0.088-0.023,0.158-0.072,0.219-0.13
				c0.004-0.004,0.008-0.002,0.012-0.005c0.006-0.005,0.002-0.012,0.008-0.018c0.08-0.085,0.131-0.19,0.141-0.308
				c0-0.013-0.002-0.021-0.004-0.034c0.002-0.046,0.004-0.091-0.008-0.137l-1.41-5.228l3.754-3.762
				C15.921,6.272,15.983,6.146,15.983,6.002z M11.136,9.656c-0.004,0.004-0.002,0.012-0.006,0.017
				c-0.084,0.09-0.135,0.204-0.137,0.33c0,0.003,0,0.006,0,0.009c0,0.046-0.004,0.092,0.008,0.138l1.121,4.15l-3.729-2.652
				c-0.107-0.101-0.252-0.135-0.395-0.126c-0.144-0.009-0.287,0.025-0.396,0.126L3.876,14.3l1.12-4.15
				c0.012-0.046,0.009-0.092,0.009-0.138c0-0.003,0-0.006,0-0.009c-0.003-0.126-0.053-0.24-0.137-0.33
				C4.864,9.668,4.866,9.66,4.862,9.656L1.713,6.501h3.292c0.031,0,0.058-0.012,0.087-0.018C5.116,6.479,5.136,6.478,5.16,6.47
				c0.1-0.033,0.181-0.097,0.242-0.181c0.009-0.012,0.027-0.013,0.036-0.026l2.562-4.739l2.563,4.739
				c0.008,0.014,0.025,0.015,0.035,0.026c0.061,0.084,0.141,0.147,0.242,0.181c0.023,0.008,0.043,0.01,0.066,0.014
				c0.029,0.006,0.057,0.018,0.088,0.018h3.291L11.136,9.656z"/>
		</g>
	</g>
</g>
<g id="Layer_1">
</g>
</svg>
