<?xml version="1.0" encoding="iso-8859-1"?>
<!-- Generator: Adobe Illustrator 16.0.0, SVG Export Plug-In . SVG Version: 6.00 Build 0)  -->
<!DOCTYPE svg PUBLIC "-//W3C//DTD SVG 1.1//EN" "http://www.w3.org/Graphics/SVG/1.1/DTD/svg11.dtd">
<svg version="1.1" xmlns="http://www.w3.org/2000/svg" xmlns:xlink="http://www.w3.org/1999/xlink" x="0px" y="0px" width="16px"
	 height="16px" viewBox="0 0 16 16" style="enable-background:new 0 0 16 16;" xml:space="preserve">
<g id="interface-box-plus" style="enable-background:new    ;">
	<g id="interface-box-plus_2_">
		<g>
			<path d="M11.042,7.495H8.503V4.957c0-0.252-0.226-0.455-0.504-0.455S7.495,4.705,7.495,4.957v2.538H4.957
				C4.705,7.495,4.501,7.721,4.501,8c0,0.277,0.204,0.503,0.456,0.503h2.538v2.538c0,0.253,0.226,0.456,0.504,0.456
				s0.504-0.203,0.504-0.456V8.503h2.539c0.25,0,0.455-0.226,0.455-0.503C11.497,7.721,11.292,7.495,11.042,7.495z M13.499,0.499
				h-11c-1.104,0-2,0.896-2,2.001v10.999c0,1.104,0.896,2,2,2h11c1.104,0,2-0.896,2-2V2.5C15.499,1.395,14.603,0.499,13.499,0.499z
				 M14.499,13.499c0,0.553-0.447,1-1,1h-11c-0.552,0-1-0.447-1-1V2.5c0-0.553,0.448-1,1-1h11c0.553,0,1,0.447,1,1V13.499z"/>
		</g>
	</g>
</g>
<g id="Layer_1">
</g>
</svg>
