<?xml version="1.0" encoding="iso-8859-1"?>
<!-- Generator: Adobe Illustrator 16.0.0, SVG Export Plug-In . SVG Version: 6.00 Build 0)  -->
<!DOCTYPE svg PUBLIC "-//W3C//DTD SVG 1.1//EN" "http://www.w3.org/Graphics/SVG/1.1/DTD/svg11.dtd">
<svg version="1.1" xmlns="http://www.w3.org/2000/svg" xmlns:xlink="http://www.w3.org/1999/xlink" x="0px" y="0px" width="16px"
	 height="16px" viewBox="0 0 16 16" style="enable-background:new 0 0 16 16;" xml:space="preserve">
<g id="interface-fullscreen-a" style="enable-background:new    ;">
	<g id="interface-fullscreen-a_2_">
		<g>
			<path d="M-0.001,2v4h1V2c0-0.553,0.448-1.001,1-1.001h4v-1h-4C0.894-0.001-0.001,0.895-0.001,2z M0.999,13.999v-4h-1v4
				c0,1.105,0.895,2,2,2h4v-1h-4C1.447,14.999,0.999,14.552,0.999,13.999z M13.999-0.001h-4v1h4c0.553,0,1,0.448,1,1.001v4h1V2
				C15.999,0.895,15.103-0.001,13.999-0.001z M14.999,13.999c0,0.553-0.447,1-1,1h-4v1h4c1.104,0,2-0.895,2-2v-4h-1V13.999z"/>
		</g>
	</g>
</g>
<g id="Layer_1">
</g>
</svg>
