<?xml version="1.0" encoding="iso-8859-1"?>
<!-- Generator: Adobe Illustrator 16.0.0, SVG Export Plug-In . SVG Version: 6.00 Build 0)  -->
<!DOCTYPE svg PUBLIC "-//W3C//DTD SVG 1.1//EN" "http://www.w3.org/Graphics/SVG/1.1/DTD/svg11.dtd">
<svg version="1.1" xmlns="http://www.w3.org/2000/svg" xmlns:xlink="http://www.w3.org/1999/xlink" x="0px" y="0px" width="16px"
	 height="16px" viewBox="0 0 16 16" style="enable-background:new 0 0 16 16;" xml:space="preserve">
<g id="interface-view" style="enable-background:new    ;">
	<g id="interface-view_1_">
		<g>
			<path d="M7.999,3.999c-2.209,0-4,1.79-4,3.999c0,2.21,1.791,4.001,4,4.001c2.209,0,4-1.791,4-4.001
				C11.999,5.789,10.208,3.999,7.999,3.999z M7.999,10.998c-1.657,0-3-1.343-3-3c0-1.656,1.343-2.999,3-2.999
				c1.656,0,3,1.343,3,2.999C10.999,9.655,9.655,10.998,7.999,10.998z M7.999,1.998c-4.418,0-8,6-8,6l0,0.001l0,0.001
				c0,0,3.582,6,8,6c4.418,0,8-6,8-6V7.999V7.998C15.999,7.998,12.417,1.998,7.999,1.998z M7.999,13C4.9,13,2.121,9.357,1.188,7.994
				C2.378,6.233,5.151,3,7.999,3c3.098,0,5.879,3.641,6.811,5.005C13.62,9.766,10.847,13,7.999,13z"/>
		</g>
	</g>
</g>
<g id="Layer_1">
</g>
</svg>
