<?xml version="1.0" encoding="iso-8859-1"?>
<!-- Generator: Adobe Illustrator 16.0.0, SVG Export Plug-In . SVG Version: 6.00 Build 0)  -->
<!DOCTYPE svg PUBLIC "-//W3C//DTD SVG 1.1//EN" "http://www.w3.org/Graphics/SVG/1.1/DTD/svg11.dtd">
<svg version="1.1" xmlns="http://www.w3.org/2000/svg" xmlns:xlink="http://www.w3.org/1999/xlink" x="0px" y="0px" width="16px"
	 height="16px" viewBox="0 0 16 16" style="enable-background:new 0 0 16 16;" xml:space="preserve">
<g id="interface-direction" style="enable-background:new    ;">
	<g id="interface-direction_1_">
		<g>
			<path d="M15.988,0.398c-0.002-0.01,0.001-0.021-0.002-0.03c-0.006-0.021-0.021-0.037-0.028-0.057
				c-0.014-0.032-0.026-0.063-0.046-0.091c-0.019-0.027-0.04-0.051-0.063-0.073c-0.022-0.022-0.044-0.043-0.07-0.062
				c-0.03-0.021-0.062-0.034-0.095-0.047c-0.02-0.009-0.034-0.022-0.055-0.027c-0.01-0.003-0.02,0-0.029-0.002
				c-0.033-0.008-0.067-0.007-0.102-0.007s-0.066-0.001-0.099,0.006c-0.01,0.001-0.021-0.001-0.03,0.001L0.413,5.712
				C0.277,5.739,0.164,5.817,0.092,5.93C0.079,5.946,0.066,5.962,0.057,5.98C0.045,6.005,0.039,6.03,0.031,6.057
				C0.017,6.1,0.007,6.142,0.005,6.188C0.004,6.192,0.002,6.196,0.002,6.2c0,0.009,0.005,0.017,0.005,0.025
				c0.001,0.039-0.003,0.078,0.008,0.117c0.006,0.021,0.02,0.035,0.026,0.054C0.042,6.398,0.044,6.4,0.045,6.403
				c0.08,0.188,0.26,0.306,0.46,0.306c0.002,0,0.004,0.001,0.006,0.001l7.425,1.353l1.353,7.425c0,0.002,0.001,0.004,0.001,0.006
				c0,0.2,0.117,0.38,0.307,0.46c0.002,0.001,0.003,0.002,0.005,0.003c0.019,0.008,0.034,0.021,0.054,0.027
				c0.041,0.011,0.081,0.007,0.121,0.008c0.008,0.001,0.014,0.004,0.021,0.004c0.004,0,0.007-0.001,0.011-0.001
				c0.048-0.003,0.093-0.013,0.138-0.028c0.023-0.008,0.048-0.013,0.07-0.024c0.02-0.01,0.036-0.023,0.055-0.036
				c0.111-0.073,0.188-0.186,0.216-0.321l5.701-14.956c0.003-0.01,0-0.02,0.002-0.029c0.007-0.033,0.006-0.066,0.006-0.1
				C15.995,0.464,15.995,0.432,15.988,0.398z M9.965,13.613L8.878,7.648c0-0.146-0.063-0.275-0.161-0.368
				C8.624,7.183,8.495,7.12,8.35,7.12L2.385,6.033l12.25-4.67L9.965,13.613z"/>
		</g>
	</g>
</g>
<g id="Layer_1">
</g>
</svg>
