<?xml version="1.0" encoding="iso-8859-1"?>
<!-- Generator: Adobe Illustrator 16.0.0, SVG Export Plug-In . SVG Version: 6.00 Build 0)  -->
<!DOCTYPE svg PUBLIC "-//W3C//DTD SVG 1.1//EN" "http://www.w3.org/Graphics/SVG/1.1/DTD/svg11.dtd">
<svg version="1.1" xmlns="http://www.w3.org/2000/svg" xmlns:xlink="http://www.w3.org/1999/xlink" x="0px" y="0px" width="16px"
	 height="16px" viewBox="0 0 16 16" style="enable-background:new 0 0 16 16;" xml:space="preserve">
<g id="interface-power" style="enable-background:new    ;">
	<g id="interface-power_2_">
		<g>
			<path d="M7.999,7c0.275,0,0.5-0.225,0.5-0.501V0.5c0-0.276-0.225-0.501-0.5-0.501c-0.276,0-0.5,0.225-0.5,0.501v5.999
				C7.499,6.775,7.723,7,7.999,7z M10.499,1.435V2.5c2.348,0.979,4,3.295,4,5.999c0,3.59-2.91,6.5-6.5,6.5s-6.5-2.91-6.5-6.5
				c0-2.704,1.651-5.019,4-5.999V1.435c-2.911,1.03-5,3.8-5,7.064c0,4.143,3.358,7.5,7.5,7.5c4.143,0,7.5-3.357,7.5-7.5
				C15.499,5.235,13.409,2.465,10.499,1.435z"/>
		</g>
	</g>
</g>
<g id="Layer_1">
</g>
</svg>
