<?xml version="1.0" encoding="iso-8859-1"?>
<!-- Generator: Adobe Illustrator 16.0.0, SVG Export Plug-In . SVG Version: 6.00 Build 0)  -->
<!DOCTYPE svg PUBLIC "-//W3C//DTD SVG 1.1//EN" "http://www.w3.org/Graphics/SVG/1.1/DTD/svg11.dtd">
<svg version="1.1" xmlns="http://www.w3.org/2000/svg" xmlns:xlink="http://www.w3.org/1999/xlink" x="0px" y="0px" width="16px"
	 height="16px" viewBox="0 0 16 16" style="enable-background:new 0 0 16 16;" xml:space="preserve">
<g id="interface-clock" style="enable-background:new    ;">
	<g id="interface-clock_2_">
		<g>
			<path d="M7.999-0.001c-4.418,0-8,3.582-8,8c0,4.418,3.582,8,8,8c4.418,0,8-3.582,8-8C15.999,3.581,12.417-0.001,7.999-0.001z
				 M7.999,14.999c-3.866,0-7-3.135-7-7c0-3.865,3.134-7,7-7c3.865,0,7,3.135,7,7C14.999,11.864,11.864,14.999,7.999,14.999z
				 M11.999,8.003h-4V4c0-0.276-0.224-0.5-0.5-0.5c-0.276,0-0.5,0.224-0.5,0.5v4.49c0,0.002-0.002,0.006-0.002,0.01
				c0,0.109,0.043,0.205,0.104,0.287c0.091,0.125,0.231,0.213,0.398,0.213c0.006,0,0.012-0.004,0.019-0.004h4.481
				c0.277,0,0.502-0.223,0.502-0.496S12.276,8.003,11.999,8.003z"/>
		</g>
	</g>
</g>
<g id="Layer_1">
</g>
</svg>
