<?xml version="1.0" encoding="iso-8859-1"?>
<!-- Generator: Adobe Illustrator 16.0.0, SVG Export Plug-In . SVG Version: 6.00 Build 0)  -->
<!DOCTYPE svg PUBLIC "-//W3C//DTD SVG 1.1//EN" "http://www.w3.org/Graphics/SVG/1.1/DTD/svg11.dtd">
<svg version="1.1" xmlns="http://www.w3.org/2000/svg" xmlns:xlink="http://www.w3.org/1999/xlink" x="0px" y="0px" width="16px"
	 height="16px" viewBox="0 0 16 16" style="enable-background:new 0 0 16 16;" xml:space="preserve">
<g id="interface-number" style="enable-background:new    ;">
	<g id="interface-number_1_">
		<g>
			<path d="M1.999,5.999c-1.104,0-2,0.896-2,2.001c0,1.104,0.896,2,2,2s2-0.896,2-2C3.999,6.895,3.104,5.999,1.999,5.999z M2.999,9
				h-2V7h2V9z M1.999,10.999c-1.104,0-2,0.896-2,2c0,1.105,0.896,2,2,2s2-0.895,2-2C3.999,11.895,3.104,10.999,1.999,10.999z
				 M2.999,14h-2v-2h2V14z M13.999,4.999c1.104,0,2-0.896,2-1.999c0-1.105-0.896-2.001-2-2.001c-1.105,0-2,0.896-2,2.001
				C11.999,4.104,12.894,4.999,13.999,4.999z M12.999,2h2v2h-2V2z M13.999,10.999c-1.105,0-2,0.896-2,2c0,1.105,0.895,2,2,2
				c1.104,0,2-0.895,2-2C15.999,11.895,15.103,10.999,13.999,10.999z M14.999,14h-2v-2h2V14z M1.999,0.999c-1.104,0-2,0.896-2,2.001
				c0,1.104,0.896,1.999,2,1.999s2-0.896,2-1.999C3.999,1.895,3.104,0.999,1.999,0.999z M2.999,4h-2V2h2V4z M13.999,5.999
				c-1.105,0-2,0.896-2,2.001c0,1.104,0.895,2,2,2c1.104,0,2-0.896,2-2C15.999,6.895,15.103,5.999,13.999,5.999z M14.999,9h-2V7h2V9
				z M7.999,0.999c-1.105,0-2,0.896-2,2.001c0,1.104,0.895,1.999,2,1.999c1.104,0,2-0.896,2-1.999
				C9.999,1.895,9.103,0.999,7.999,0.999z M8.999,4h-2V2h2V4z M7.999,10.999c-1.105,0-2,0.896-2,2c0,1.105,0.895,2,2,2
				c1.104,0,2-0.895,2-2C9.999,11.895,9.103,10.999,7.999,10.999z M8.999,14h-2v-2h2V14z M7.999,5.999c-1.105,0-2,0.896-2,2.001
				c0,1.104,0.895,2,2,2c1.104,0,2-0.896,2-2C9.999,6.895,9.103,5.999,7.999,5.999z M8.999,9h-2V7h2V9z"/>
		</g>
	</g>
</g>
<g id="Layer_1">
</g>
</svg>
