<?xml version="1.0" encoding="iso-8859-1"?>
<!-- Generator: Adobe Illustrator 16.0.0, SVG Export Plug-In . SVG Version: 6.00 Build 0)  -->
<!DOCTYPE svg PUBLIC "-//W3C//DTD SVG 1.1//EN" "http://www.w3.org/Graphics/SVG/1.1/DTD/svg11.dtd">
<svg version="1.1" xmlns="http://www.w3.org/2000/svg" xmlns:xlink="http://www.w3.org/1999/xlink" x="0px" y="0px" width="16px"
	 height="16px" viewBox="0 0 16 16" style="enable-background:new 0 0 16 16;" xml:space="preserve">
<g id="interface-help-a" style="enable-background:new    ;">
	<g id="interface-help-a_2_">
		<g>
			<path d="M7.999-0.001c-4.418,0-8,3.582-8,8c0,4.418,3.582,8,8,8c4.418,0,8-3.582,8-8C15.999,3.581,12.417-0.001,7.999-0.001z
				 M7.999,0.999c1.627,0,3.104,0.578,4.293,1.508l-1.943,2.269C9.688,4.292,8.88,4,7.999,4C7.118,4,6.31,4.292,5.649,4.775
				L3.707,2.506C4.895,1.577,6.373,0.999,7.999,0.999z M10.999,7.999c0,1.656-1.344,3-3,3c-1.657,0-3-1.344-3-3c0-1.657,1.343-3,3-3
				C9.655,5,10.999,6.342,10.999,7.999z M0.999,7.999c0-1.877,0.749-3.573,1.951-4.831l1.972,2.303
				c-0.568,0.69-0.923,1.563-0.923,2.528c0,1.104,0.447,2.102,1.169,2.826l-1.943,2.268C1.862,11.815,0.999,10.015,0.999,7.999z
				 M7.999,14.999c-1.49,0-2.864-0.473-3.999-1.266l1.973-2.303c0.596,0.352,1.283,0.568,2.026,0.568
				c0.742,0,1.43-0.217,2.025-0.568l1.973,2.303C10.862,14.526,9.489,14.999,7.999,14.999z M12.772,13.093l-1.943-2.268
				c0.723-0.725,1.17-1.723,1.17-2.826c0-0.964-0.355-1.837-0.924-2.528l1.973-2.303c1.203,1.258,1.951,2.953,1.951,4.831
				C14.999,10.015,14.136,11.815,12.772,13.093z"/>
		</g>
	</g>
</g>
<g id="Layer_1">
</g>
</svg>
