<?xml version="1.0" encoding="iso-8859-1"?>
<!-- Generator: Adobe Illustrator 16.0.0, SVG Export Plug-In . SVG Version: 6.00 Build 0)  -->
<!DOCTYPE svg PUBLIC "-//W3C//DTD SVG 1.1//EN" "http://www.w3.org/Graphics/SVG/1.1/DTD/svg11.dtd">
<svg version="1.1" xmlns="http://www.w3.org/2000/svg" xmlns:xlink="http://www.w3.org/1999/xlink" x="0px" y="0px" width="16px"
	 height="16px" viewBox="0 0 16 16" style="enable-background:new 0 0 16 16;" xml:space="preserve">
<g id="interface-sidebar-hamburger" style="enable-background:new    ;">
	<g id="interface-sidebar-hamburger_2_">
		<g>
			<path d="M7.499,5c-0.276,0-0.5,0.224-0.5,0.5v5c0,0.277,0.224,0.5,0.5,0.5c0.276,0,0.5-0.223,0.5-0.5v-5
				C7.999,5.223,7.775,5,7.499,5z M4.499,6c-0.276,0-0.5,0.224-0.5,0.499v3c0,0.275,0.224,0.5,0.5,0.5c0.276,0,0.5-0.225,0.5-0.5v-3
				C4.999,6.223,4.775,6,4.499,6z M10.499,3.999c-0.275,0-0.5,0.225-0.5,0.501v7c0,0.275,0.225,0.5,0.5,0.5s0.5-0.225,0.5-0.5v-7
				C10.999,4.223,10.774,3.999,10.499,3.999z M13.999,0h-12c-1.105,0-2,0.896-2,2v12c0,1.105,0.895,2,2,2h12c1.104,0,2-0.895,2-2V2
				C15.999,0.895,15.103,0,13.999,0z M14.999,13.999c0,0.553-0.447,1-1,1h-12c-0.552,0-1-0.447-1-1V2c0-0.552,0.448-1,1-1h12
				c0.553,0,1,0.448,1,1V13.999z"/>
		</g>
	</g>
</g>
<g id="Layer_1">
</g>
</svg>
