<?xml version="1.0" encoding="iso-8859-1"?>
<!-- Generator: Adobe Illustrator 16.0.0, SVG Export Plug-In . SVG Version: 6.00 Build 0)  -->
<!DOCTYPE svg PUBLIC "-//W3C//DTD SVG 1.1//EN" "http://www.w3.org/Graphics/SVG/1.1/DTD/svg11.dtd">
<svg version="1.1" xmlns="http://www.w3.org/2000/svg" xmlns:xlink="http://www.w3.org/1999/xlink" x="0px" y="0px" width="16px"
	 height="16px" viewBox="0 0 16 16" style="enable-background:new 0 0 16 16;" xml:space="preserve">
<g id="interface-star-a" style="enable-background:new    ;">
	<g id="interface-star-a_2_">
		<g>
			<path d="M15.999,6l-5.5-0.5L7.999,0l-2.5,5.5l-5.5,0.5l4.151,4.187l-1.151,5.813l4.982-3.037l4.979,3.037l-1.117-5.816L15.999,6z
				 M8.503,12.108L7.982,11.79l-0.521,0.318L4.422,13.96l0.709-3.58l0.103-0.521L4.86,9.481L2.204,6.802l3.385-0.308l0.579-0.052
				l0.241-0.53l1.59-3.497l1.59,3.497l0.24,0.53l0.58,0.052l3.381,0.308l-2.656,2.675l-0.373,0.375l0.1,0.518l0.691,3.598
				L8.503,12.108z"/>
		</g>
	</g>
</g>
<g id="Layer_1">
</g>
</svg>
