<?xml version="1.0" encoding="iso-8859-1"?>
<!-- Generator: Adobe Illustrator 16.0.0, SVG Export Plug-In . SVG Version: 6.00 Build 0)  -->
<!DOCTYPE svg PUBLIC "-//W3C//DTD SVG 1.1//EN" "http://www.w3.org/Graphics/SVG/1.1/DTD/svg11.dtd">
<svg version="1.1" xmlns="http://www.w3.org/2000/svg" xmlns:xlink="http://www.w3.org/1999/xlink" x="0px" y="0px" width="16px"
	 height="16px" viewBox="0 0 16 16" style="enable-background:new 0 0 16 16;" xml:space="preserve">
<g id="interface-arrow-right-b" style="enable-background:new    ;">
	<g id="interface-arrow-right-b_1_">
		<g>
			<path d="M11.486,4.011c-0.275,0-0.5,0.212-0.5,0.472v5.811l-8.141-8.14c-0.191-0.191-0.5-0.191-0.692,0
				c-0.191,0.19-0.191,0.501,0,0.692l8.14,8.14H4.482c-0.26,0-0.471,0.225-0.471,0.501c0,0.277,0.211,0.502,0.471,0.502h7.004
				c0.002,0,0.004,0,0.004,0h0.027c0.111,0,0.211-0.048,0.291-0.117c0.012-0.01,0.025-0.016,0.037-0.026
				c0.01-0.011,0.016-0.024,0.025-0.036c0.07-0.08,0.117-0.179,0.117-0.291V4.482C11.988,4.223,11.764,4.011,11.486,4.011z"/>
		</g>
	</g>
</g>
<g id="Layer_1">
</g>
</svg>
