<?xml version="1.0" encoding="iso-8859-1"?>
<!-- Generator: Adobe Illustrator 16.0.0, SVG Export Plug-In . SVG Version: 6.00 Build 0)  -->
<!DOCTYPE svg PUBLIC "-//W3C//DTD SVG 1.1//EN" "http://www.w3.org/Graphics/SVG/1.1/DTD/svg11.dtd">
<svg version="1.1" xmlns="http://www.w3.org/2000/svg" xmlns:xlink="http://www.w3.org/1999/xlink" x="0px" y="0px" width="16px"
	 height="16px" viewBox="0 0 16 16" style="enable-background:new 0 0 16 16;" xml:space="preserve">
<g id="interface-box-left" style="enable-background:new    ;">
	<g id="interface-box-left_2_">
		<g>
			<path d="M6.158,8.004l3.671-4.166c0.193-0.194,0.191-0.509-0.002-0.702S9.319,2.943,9.126,3.138l-3.97,4.506
				C5.152,7.647,5.145,7.646,5.141,7.65C5.043,7.749,4.997,7.878,4.999,8.007C4.998,8.136,5.044,8.265,5.143,8.363
				C5.147,8.367,5.154,8.365,5.159,8.37l3.995,4.48c0.195,0.193,0.508,0.193,0.701-0.002c0.191-0.194,0.191-0.509-0.002-0.702
				L6.158,8.004z M13.999-0.001h-12c-1.105,0-2,0.896-2,2V14c0,1.104,0.895,1.999,2,1.999h12c1.104,0,2-0.895,2-1.999V1.999
				C15.999,0.895,15.103-0.001,13.999-0.001z M14.999,14c0,0.552-0.447,0.999-1,0.999h-12c-0.552,0-1-0.447-1-0.999V1.999
				c0-0.552,0.448-1,1-1h12c0.553,0,1,0.448,1,1V14z"/>
		</g>
	</g>
</g>
<g id="Layer_1">
</g>
</svg>
