<?xml version="1.0" encoding="iso-8859-1"?>
<!-- Generator: Adobe Illustrator 16.0.0, SVG Export Plug-In . SVG Version: 6.00 Build 0)  -->
<!DOCTYPE svg PUBLIC "-//W3C//DTD SVG 1.1//EN" "http://www.w3.org/Graphics/SVG/1.1/DTD/svg11.dtd">
<svg version="1.1" xmlns="http://www.w3.org/2000/svg" xmlns:xlink="http://www.w3.org/1999/xlink" x="0px" y="0px" width="16px"
	 height="16px" viewBox="0 0 16 16" style="enable-background:new 0 0 16 16;" xml:space="preserve">
<g id="interface-top" style="enable-background:new    ;">
	<g id="interface-top_2_">
		<g>
			<path d="M12.855,9.681L7.389,3.72C7.373,3.695,7.378,3.662,7.356,3.64C7.257,3.542,7.127,3.499,6.998,3.504
				C6.87,3.499,6.741,3.542,6.643,3.64C6.621,3.662,6.627,3.695,6.61,3.719L1.143,9.68c-0.186,0.187-0.186,0.487,0,0.674
				c0.186,0.186,0.487,0.186,0.673,0l5.183-5.651l5.183,5.651c0.188,0.188,0.488,0.188,0.674,0
				C13.041,10.168,13.041,9.866,12.855,9.681z"/>
		</g>
	</g>
</g>
<g id="Layer_1">
</g>
</svg>
