<?xml version="1.0" encoding="iso-8859-1"?>
<!-- Generator: Adobe Illustrator 16.0.0, SVG Export Plug-In . SVG Version: 6.00 Build 0)  -->
<!DOCTYPE svg PUBLIC "-//W3C//DTD SVG 1.1//EN" "http://www.w3.org/Graphics/SVG/1.1/DTD/svg11.dtd">
<svg version="1.1" xmlns="http://www.w3.org/2000/svg" xmlns:xlink="http://www.w3.org/1999/xlink" x="0px" y="0px" width="16px"
	 height="16px" viewBox="0 0 16 16" style="enable-background:new 0 0 16 16;" xml:space="preserve">
<g id="interface-arrow-left-b" style="enable-background:new    ;">
	<g id="interface-arrow-left-b_2_">
		<g>
			<path d="M11.84,2.14c-0.191-0.19-0.5-0.188-0.691,0.002l-8.106,8.164L3.016,4.504c-0.001-0.26-0.226-0.47-0.503-0.468
				c-0.276,0.001-0.5,0.212-0.499,0.473l0.031,6.988c0,0.001,0,0.002,0,0.003c0,0.002,0,0.002,0,0.004v0.027
				c0,0.112,0.049,0.21,0.119,0.291c0.009,0.011,0.016,0.025,0.026,0.035c0.011,0.011,0.024,0.017,0.037,0.026
				c0.081,0.068,0.18,0.115,0.291,0.114h0.026C2.545,11.998,2.547,12,2.548,12c0.001-0.001,0.002-0.002,0.003-0.002l7.001-0.03
				c0.26-0.002,0.469-0.227,0.469-0.503c-0.002-0.276-0.213-0.499-0.473-0.498l-5.811,0.025l8.106-8.162
				C12.033,2.64,12.033,2.331,11.84,2.14z"/>
		</g>
	</g>
</g>
<g id="Layer_1">
</g>
</svg>
