<?xml version="1.0" encoding="iso-8859-1"?>
<!-- Generator: Adobe Illustrator 16.0.0, SVG Export Plug-In . SVG Version: 6.00 Build 0)  -->
<!DOCTYPE svg PUBLIC "-//W3C//DTD SVG 1.1//EN" "http://www.w3.org/Graphics/SVG/1.1/DTD/svg11.dtd">
<svg version="1.1" xmlns="http://www.w3.org/2000/svg" xmlns:xlink="http://www.w3.org/1999/xlink" x="0px" y="0px" width="16px"
	 height="16px" viewBox="0 0 16 16" style="enable-background:new 0 0 16 16;" xml:space="preserve">
<g id="interface-downloading" style="enable-background:new    ;">
	<g id="interface-downloading_2_">
		<g>
			<path d="M7.611,11.802c0.003,0.004,0.009,0.006,0.012,0.01c0.011,0.014,0.006,0.033,0.019,0.045
				c0.018,0.018,0.046,0.012,0.066,0.027c0.074,0.059,0.16,0.1,0.26,0.107c0.009,0,0.016,0.006,0.024,0.006
				c0.002,0,0.004,0.002,0.007,0.002c0.002,0,0.005-0.002,0.008-0.002c0.006,0,0.01-0.002,0.017-0.004
				c0.118-0.006,0.226-0.053,0.309-0.127c0.007-0.006,0.018-0.004,0.024-0.01c0.006-0.008,0.004-0.018,0.01-0.023
				c0.004-0.006,0.003-0.014,0.007-0.018l2.483-2.482c0.189-0.191,0.189-0.5,0-0.691c-0.191-0.191-0.5-0.191-0.691,0L8.499,10.31
				V0.5c0-0.276-0.225-0.501-0.5-0.501c-0.276,0-0.5,0.225-0.5,0.501v9.81L5.832,8.642c-0.19-0.191-0.5-0.191-0.69,0
				c-0.191,0.191-0.191,0.5,0,0.691L7.611,11.802z M13.499,3.999h-1.5V5h1c0.275,0,0.5,0.224,0.5,0.499v9c0,0.275-0.225,0.5-0.5,0.5
				h-10c-0.276,0-0.5-0.225-0.5-0.5v-9C2.499,5.223,2.723,5,2.999,5h1V3.999h-1.5c-0.552,0-1,0.448-1,1.001v10c0,0.553,0.448,1,1,1
				h11c0.553,0,1-0.447,1-1V5C14.499,4.447,14.052,3.999,13.499,3.999z"/>
		</g>
	</g>
</g>
<g id="Layer_1">
</g>
</svg>
