<?xml version="1.0" encoding="iso-8859-1"?>
<!-- Generator: Adobe Illustrator 16.0.0, SVG Export Plug-In . SVG Version: 6.00 Build 0)  -->
<!DOCTYPE svg PUBLIC "-//W3C//DTD SVG 1.1//EN" "http://www.w3.org/Graphics/SVG/1.1/DTD/svg11.dtd">
<svg version="1.1" xmlns="http://www.w3.org/2000/svg" xmlns:xlink="http://www.w3.org/1999/xlink" x="0px" y="0px" width="16px"
	 height="16px" viewBox="0 0 16 16" style="enable-background:new 0 0 16 16;" xml:space="preserve">
<g id="interface-enlarge-c" style="enable-background:new    ;">
	<g id="interface-enlarge-c_2_">
		<g>
			<path d="M6.146,9.146l-2.146,2.146V9.999c0-0.276-0.224-0.5-0.5-0.5c-0.276,0-0.5,0.224-0.5,0.5v2.5c0,0.276,0.224,0.5,0.5,0.5
				h2.5c0.276,0,0.5-0.224,0.5-0.5s-0.224-0.5-0.5-0.5H4.706l2.146-2.146c0.195-0.195,0.195-0.512,0-0.707S6.341,8.95,6.146,9.146z
				 M4.706,3.999h1.293c0.276,0,0.5-0.224,0.5-0.5s-0.224-0.5-0.5-0.5h-2.5c-0.276,0-0.5,0.224-0.5,0.5v2.5
				c0,0.276,0.224,0.5,0.5,0.5c0.276,0,0.5-0.224,0.5-0.5V4.706l2.146,2.146C6.243,6.95,6.371,6.999,6.499,6.999
				S6.755,6.95,6.853,6.853c0.195-0.195,0.195-0.512,0-0.707L4.706,3.999z M13.999-0.001h-12c-1.103,0-2,0.896-2,2v12
				c0,1.104,0.897,2,2,2h12c1.104,0,2-0.896,2-2v-12C15.999,0.896,15.103-0.001,13.999-0.001z M14.999,13.999c0,0.552-0.449,1-1,1
				h-12c-0.552,0-1-0.448-1-1v-12c0-0.552,0.448-1,1-1h12c0.551,0,1,0.448,1,1V13.999z M12.499,9.499c-0.275,0-0.5,0.224-0.5,0.5
				v1.293L9.853,9.146c-0.195-0.195-0.512-0.195-0.707,0s-0.195,0.512,0,0.707l2.146,2.146H9.999c-0.275,0-0.5,0.224-0.5,0.5
				s0.225,0.5,0.5,0.5h2.5c0.275,0,0.5-0.224,0.5-0.5v-2.5C12.999,9.723,12.774,9.499,12.499,9.499z M12.499,2.999h-2.5
				c-0.275,0-0.5,0.224-0.5,0.5s0.225,0.5,0.5,0.5h1.293L9.146,6.146c-0.195,0.195-0.195,0.512,0,0.707
				C9.243,6.95,9.37,6.999,9.499,6.999c0.127,0,0.256-0.049,0.354-0.146l2.146-2.146v1.293c0,0.276,0.225,0.5,0.5,0.5
				s0.5-0.224,0.5-0.5v-2.5C12.999,3.223,12.774,2.999,12.499,2.999z"/>
		</g>
	</g>
</g>
<g id="Layer_1">
</g>
</svg>
