<?xml version="1.0" encoding="iso-8859-1"?>
<!-- Generator: Adobe Illustrator 16.0.0, SVG Export Plug-In . SVG Version: 6.00 Build 0)  -->
<!DOCTYPE svg PUBLIC "-//W3C//DTD SVG 1.1//EN" "http://www.w3.org/Graphics/SVG/1.1/DTD/svg11.dtd">
<svg version="1.1" xmlns="http://www.w3.org/2000/svg" xmlns:xlink="http://www.w3.org/1999/xlink" x="0px" y="0px" width="16px"
	 height="16px" viewBox="0 0 16 16" style="enable-background:new 0 0 16 16;" xml:space="preserve">
<g id="interface-rigth-t-k" style="enable-background:new    ;">
	<g id="interface-rigth-t-k_2_">
		<g>
			<path d="M13.845,2.158c-0.14-0.14-0.359-0.198-0.627-0.144L3.952,3.788C3.418,3.898,3.293,4.3,3.674,4.682l2.417,2.412
				l-3.519,3.513c-0.778,0.777-0.778,2.037,0,2.813c0.778,0.777,2.04,0.777,2.818,0L8.91,9.908l2.406,2.402
				c0.382,0.381,0.784,0.256,0.896-0.276l1.775-9.25C14.043,2.516,13.984,2.297,13.845,2.158z M11.418,11.006L8.91,8.501
				l-4.224,4.217c-0.389,0.389-1.02,0.389-1.409,0c-0.389-0.388-0.389-1.019,0-1.406l4.224-4.216L4.982,4.58l7.937-1.498
				L11.418,11.006z"/>
		</g>
	</g>
</g>
<g id="Layer_1">
</g>
</svg>
