<?xml version="1.0" encoding="iso-8859-1"?>
<!-- Generator: Adobe Illustrator 16.0.0, SVG Export Plug-In . SVG Version: 6.00 Build 0)  -->
<!DOCTYPE svg PUBLIC "-//W3C//DTD SVG 1.1//EN" "http://www.w3.org/Graphics/SVG/1.1/DTD/svg11.dtd">
<svg version="1.1" xmlns="http://www.w3.org/2000/svg" xmlns:xlink="http://www.w3.org/1999/xlink" x="0px" y="0px" width="16px"
	 height="16px" viewBox="0 0 16 16" style="enable-background:new 0 0 16 16;" xml:space="preserve">
<g id="interface-left-b-k" style="enable-background:new    ;">
	<g id="interface-left-b-k_2_">
		<g>
			<path d="M13.431,2.581c-0.777-0.775-2.039-0.775-2.816,0.002L7.095,6.096l-2.414-2.41C4.3,3.306,3.897,3.43,3.786,3.963
				L2.005,13.21c-0.056,0.266,0.003,0.486,0.143,0.625c0.139,0.139,0.359,0.198,0.626,0.143l9.261-1.779
				c0.534-0.109,0.659-0.512,0.277-0.893L9.909,8.906l3.52-3.513C14.207,4.616,14.208,3.356,13.431,2.581z M12.725,4.69L8.501,8.907
				l2.506,2.501l-7.933,1.503L4.578,4.99l2.516,2.512l4.223-4.217c0.39-0.389,1.02-0.389,1.408-0.001
				C13.114,3.673,13.114,4.302,12.725,4.69z"/>
		</g>
	</g>
</g>
<g id="Layer_1">
</g>
</svg>
