<?xml version="1.0" encoding="iso-8859-1"?>
<!-- Generator: Adobe Illustrator 16.0.0, SVG Export Plug-In . SVG Version: 6.00 Build 0)  -->
<!DOCTYPE svg PUBLIC "-//W3C//DTD SVG 1.1//EN" "http://www.w3.org/Graphics/SVG/1.1/DTD/svg11.dtd">
<svg version="1.1" xmlns="http://www.w3.org/2000/svg" xmlns:xlink="http://www.w3.org/1999/xlink" x="0px" y="0px" width="16px"
	 height="16px" viewBox="0 0 16 16" style="enable-background:new 0 0 16 16;" xml:space="preserve">
<g id="interface-enlarge-a" style="enable-background:new    ;">
	<g id="interface-enlarge-a_2_">
		<g>
			<path d="M14.98-0.507c-0.006-0.121-0.053-0.23-0.131-0.314c-0.006-0.006-0.002-0.015-0.008-0.021S14.826-0.845,14.82-0.85
				c-0.084-0.077-0.191-0.125-0.313-0.131c-0.008,0-0.016-0.005-0.023-0.005H8.496c-0.275,0-0.498,0.224-0.498,0.499
				c0,0.276,0.223,0.499,0.498,0.499h4.79l-6.63,6.631l-6.642,6.641V8.495c0-0.275-0.224-0.498-0.499-0.498
				c-0.276,0-0.499,0.223-0.499,0.498v5.99c0,0.008,0.004,0.012,0.004,0.021c0.006,0.121,0.053,0.23,0.13,0.313
				c0.005,0.006,0.003,0.016,0.009,0.021s0.015,0.004,0.021,0.008c0.084,0.078,0.193,0.125,0.314,0.131
				c0.007,0,0.013,0.004,0.021,0.004c0,0,0,0,0,0h5.988c0.275,0,0.499-0.223,0.499-0.5c0-0.275-0.224-0.498-0.499-0.498H0.714
				l6.629-6.629l6.643-6.643v4.788C13.986,5.778,14.209,6,14.484,6c0.277,0,0.5-0.223,0.5-0.499v-5.988
				C14.984-0.494,14.98-0.5,14.98-0.507z"/>
		</g>
	</g>
</g>
<g id="Layer_1">
</g>
</svg>
