<?xml version="1.0" encoding="iso-8859-1"?>
<!-- Generator: Adobe Illustrator 16.0.0, SVG Export Plug-In . SVG Version: 6.00 Build 0)  -->
<!DOCTYPE svg PUBLIC "-//W3C//DTD SVG 1.1//EN" "http://www.w3.org/Graphics/SVG/1.1/DTD/svg11.dtd">
<svg version="1.1" xmlns="http://www.w3.org/2000/svg" xmlns:xlink="http://www.w3.org/1999/xlink" x="0px" y="0px" width="16px"
	 height="16px" viewBox="0 0 16 16" style="enable-background:new 0 0 16 16;" xml:space="preserve">
<g id="interface-left-k" style="enable-background:new    ;">
	<g id="interface-left-k_1_">
		<g>
			<path d="M14.011,6.009H9.009V2.583c0-0.542-0.375-0.739-0.834-0.438L0.326,7.454C0.097,7.603-0.018,7.8-0.018,8
				c0,0.197,0.115,0.395,0.344,0.545l7.849,5.309c0.459,0.3,0.834,0.103,0.834-0.438v-3.412h5.002c1.107,0,2.004-0.894,2.004-1.997
				C16.015,6.904,15.118,6.009,14.011,6.009z M14.011,9.006H8.007v3.556L1.299,8l6.708-4.563v3.57h6.004
				c0.555,0,1.002,0.448,1.002,1C15.013,8.559,14.565,9.006,14.011,9.006z"/>
		</g>
	</g>
</g>
<g id="Layer_1">
</g>
</svg>
