<?xml version="1.0" encoding="iso-8859-1"?>
<!-- Generator: Adobe Illustrator 16.0.0, SVG Export Plug-In . SVG Version: 6.00 Build 0)  -->
<!DOCTYPE svg PUBLIC "-//W3C//DTD SVG 1.1//EN" "http://www.w3.org/Graphics/SVG/1.1/DTD/svg11.dtd">
<svg version="1.1" xmlns="http://www.w3.org/2000/svg" xmlns:xlink="http://www.w3.org/1999/xlink" x="0px" y="0px" width="16px"
	 height="16px" viewBox="0 0 16 16" style="enable-background:new 0 0 16 16;" xml:space="preserve">
<g id="interface-top-r" style="enable-background:new    ;">
	<g id="interface-top-r_2_">
		<g>
			<path d="M8.37,5.662C8.366,5.657,8.368,5.648,8.362,5.643C8.265,5.544,8.136,5.498,8.007,5.5
				C7.877,5.497,7.748,5.543,7.649,5.641c-0.005,0.006-0.003,0.014-0.008,0.02L3.637,9.64c-0.195,0.193-0.196,0.507-0.002,0.702
				c0.193,0.194,0.508,0.195,0.702,0.002l3.666-3.643l3.643,3.666c0.193,0.194,0.508,0.195,0.703,0.002
				c0.193-0.193,0.195-0.508,0.002-0.702L8.37,5.662z M8.024-0.001C3.605-0.014,0.013,3.556-0.001,7.974
				c-0.014,4.418,3.557,8.01,7.975,8.025c4.417,0.014,8.011-3.559,8.025-7.976C16.013,3.605,12.442,0.013,8.024-0.001z
				 M7.977,14.998c-3.866-0.012-6.99-3.154-6.978-7.021c0.012-3.866,3.155-6.99,7.021-6.979c3.865,0.012,6.99,3.156,6.979,7.022
				C14.987,11.887,11.843,15.011,7.977,14.998z"/>
		</g>
	</g>
</g>
<g id="Layer_1">
</g>
</svg>
