<?xml version="1.0" encoding="iso-8859-1"?>
<!-- Generator: Adobe Illustrator 16.0.0, SVG Export Plug-In . SVG Version: 6.00 Build 0)  -->
<!DOCTYPE svg PUBLIC "-//W3C//DTD SVG 1.1//EN" "http://www.w3.org/Graphics/SVG/1.1/DTD/svg11.dtd">
<svg version="1.1" xmlns="http://www.w3.org/2000/svg" xmlns:xlink="http://www.w3.org/1999/xlink" x="0px" y="0px" width="16px"
	 height="16px" viewBox="0 0 16 16" style="enable-background:new 0 0 16 16;" xml:space="preserve">
<g id="interface-cloud-upload" style="enable-background:new    ;">
	<g id="interface-cloud-upload_1_">
		<g>
			<path d="M12.259,3.72c-0.587-1.864-2.262-3.221-4.26-3.221c-2.174,0-3.987,1.596-4.408,3.716
				c-2.05,0.435-3.592,2.311-3.592,4.561c0,2.571,2.015,4.655,4.5,4.655c0.172,0,0.334-0.036,0.5-0.057v0.057h1v-1.035h-1.5
				c-1.933,0-3.5-1.62-3.5-3.62c0-1.999,1.567-3.62,3.5-3.62c0-2.001,1.567-3.621,3.5-3.621c1.769,0,3.216,1.361,3.452,3.124
				c1.975,0.11,3.548,1.787,3.548,3.858c0,2.054-1.548,3.718-3.5,3.853v0.026h-0.5v1.008c0.085,0.005,0.164,0.027,0.25,0.027
				c2.624,0,4.75-2.2,4.75-4.914C15.999,6.162,14.396,4.199,12.259,3.72z M11.856,10.18c0.19-0.197,0.19-0.518,0-0.715L8.874,6.38
				C8.869,6.374,8.871,6.366,8.866,6.361C8.86,6.354,8.863,6.344,8.856,6.337S8.839,6.333,8.832,6.326
				C8.75,6.25,8.645,6.202,8.526,6.195c-0.008,0-0.013-0.004-0.021-0.004c-0.002,0-0.004-0.002-0.007-0.002
				c-0.002,0-0.004,0.002-0.006,0.002c-0.011,0-0.019,0.006-0.028,0.007c-0.099,0.009-0.184,0.05-0.257,0.11
				C8.188,6.324,8.16,6.317,8.142,6.337C8.13,6.35,8.135,6.369,8.124,6.383C8.12,6.387,8.114,6.389,8.111,6.394l-2.97,3.071
				c-0.19,0.197-0.19,0.518,0,0.715c0.191,0.197,0.5,0.197,0.69,0l2.167-2.241v7.044c0,0.285,0.225,0.517,0.5,0.517
				c0.276,0,0.5-0.231,0.5-0.517V7.938l2.167,2.241C11.356,10.377,11.666,10.377,11.856,10.18z"/>
		</g>
	</g>
</g>
<g id="Layer_1">
</g>
</svg>
