<?xml version="1.0" encoding="iso-8859-1"?>
<!-- Generator: Adobe Illustrator 16.0.0, SVG Export Plug-In . SVG Version: 6.00 Build 0)  -->
<!DOCTYPE svg PUBLIC "-//W3C//DTD SVG 1.1//EN" "http://www.w3.org/Graphics/SVG/1.1/DTD/svg11.dtd">
<svg version="1.1" xmlns="http://www.w3.org/2000/svg" xmlns:xlink="http://www.w3.org/1999/xlink" x="0px" y="0px" width="16px"
	 height="16px" viewBox="0 0 16 16" style="enable-background:new 0 0 16 16;" xml:space="preserve">
<g id="interface-arrow-left-circle" style="enable-background:new    ;">
	<g id="interface-arrow-left-circle_1_">
		<g>
			<path d="M12.999,7.498H4.843l2.512-2.154c0.194-0.193,0.194-0.508,0-0.702c-0.194-0.193-0.508-0.193-0.702,0L3.174,7.626
				C3.17,7.629,3.166,7.631,3.162,7.634c-0.006,0.003-0.014,0.003-0.02,0.008C3.137,7.647,3.14,7.655,3.135,7.661
				C3.052,7.75,2.999,7.867,2.999,7.998c0,0.132,0.053,0.249,0.136,0.338C3.14,8.342,3.137,8.35,3.142,8.355
				C3.147,8.36,3.155,8.36,3.162,8.363c0.004,0.004,0.01,0.006,0.014,0.01l3.478,2.981c0.194,0.195,0.508,0.195,0.702,0
				c0.194-0.193,0.194-0.508,0-0.702L4.843,8.498h8.156c0.275,0,0.5-0.223,0.5-0.5C13.499,7.723,13.274,7.498,12.999,7.498z
				 M7.999,0.499c-4.142,0-7.5,3.357-7.5,7.5c0,4.142,3.358,7.5,7.5,7.5c4.143,0,7.5-3.358,7.5-7.5
				C15.499,3.856,12.142,0.499,7.999,0.499z M7.999,14.499c-3.59,0-6.5-2.911-6.5-6.5c0-3.59,2.91-6.501,6.5-6.501
				s6.5,2.911,6.5,6.501C14.499,11.588,11.589,14.499,7.999,14.499z"/>
		</g>
	</g>
</g>
<g id="Layer_1">
</g>
</svg>
