<?xml version="1.0" encoding="iso-8859-1"?>
<!-- Generator: Adobe Illustrator 16.0.0, SVG Export Plug-In . SVG Version: 6.00 Build 0)  -->
<!DOCTYPE svg PUBLIC "-//W3C//DTD SVG 1.1//EN" "http://www.w3.org/Graphics/SVG/1.1/DTD/svg11.dtd">
<svg version="1.1" xmlns="http://www.w3.org/2000/svg" xmlns:xlink="http://www.w3.org/1999/xlink" x="0px" y="0px" width="16px"
	 height="16px" viewBox="0 0 16 16" style="enable-background:new 0 0 16 16;" xml:space="preserve">
<g id="interface-circle-tick" style="enable-background:new    ;">
	<g id="interface-circle-tick_2_">
		<g>
			<path d="M11.677,5.614l-4.664,4.665L5.379,8.645c-0.203-0.203-0.533-0.203-0.736,0s-0.203,0.533,0,0.736l1.943,1.943
				c0.004,0.004,0.011,0.002,0.016,0.006c0.006,0.008,0.003,0.02,0.011,0.026c0.187,0.188,0.49,0.188,0.677,0l5.064-5.064
				c0.188-0.188,0.188-0.491,0-0.678C12.169,5.427,11.864,5.427,11.677,5.614z M7.999,0.499c-4.142,0-7.5,3.358-7.5,7.5
				c0,4.143,3.358,7.5,7.5,7.5c4.143,0,7.5-3.357,7.5-7.5C15.499,3.857,12.142,0.499,7.999,0.499z M7.999,14.5
				c-3.59,0-6.5-2.911-6.5-6.501s2.91-6.5,6.5-6.5s6.5,2.91,6.5,6.5S11.589,14.5,7.999,14.5z"/>
		</g>
	</g>
</g>
<g id="Layer_1">
</g>
</svg>
