<?xml version="1.0" encoding="iso-8859-1"?>
<!-- Generator: Adobe Illustrator 16.0.0, SVG Export Plug-In . SVG Version: 6.00 Build 0)  -->
<!DOCTYPE svg PUBLIC "-//W3C//DTD SVG 1.1//EN" "http://www.w3.org/Graphics/SVG/1.1/DTD/svg11.dtd">
<svg version="1.1" xmlns="http://www.w3.org/2000/svg" xmlns:xlink="http://www.w3.org/1999/xlink" x="0px" y="0px" width="16px"
	 height="16px" viewBox="0 0 16 16" style="enable-background:new 0 0 16 16;" xml:space="preserve">
<g id="interface-logout-a" style="enable-background:new    ;">
	<g id="interface-logout-a_1_">
		<g>
			<path d="M7.999,13.998c0,0.276-0.224,0.5-0.5,0.5H1.512c-0.276,0-0.499-0.224-0.499-0.5V1.999c0-0.277,0.223-0.501,0.499-0.501
				h6.487c0.275,0,0,0.224,0,0.501v1.499h0.998v-2c0-0.552-0.447-0.999-0.998-0.999H1.013c-0.551,0-0.998,0.447-0.998,0.999v13
				c0,0.553,0.447,1.001,0.998,1.001h6.986c0.551,0,0.998-0.448,0.998-1.001v-2H7.999V13.998z M15.981,7.991
				c0-0.009-0.006-0.016-0.006-0.024c-0.008-0.101-0.049-0.186-0.107-0.26c-0.016-0.02-0.01-0.048-0.027-0.065
				c-0.012-0.013-0.031-0.008-0.043-0.019C15.792,7.62,15.79,7.614,15.786,7.61l-3.961-3.969c-0.191-0.191-0.5-0.191-0.689,0
				c-0.191,0.19-0.191,0.5,0,0.69l3.16,3.166H2.51c-0.276,0-0.499,0.225-0.499,0.5c0,0.277,0.223,0.501,0.499,0.501h11.786
				l-3.16,3.166c-0.191,0.19-0.191,0.5,0,0.691c0.189,0.189,0.498,0.189,0.689,0L15.8,8.373c0.006-0.005,0.014-0.003,0.018-0.008
				c0.008-0.006,0.018-0.003,0.023-0.01c0.006-0.006,0.004-0.017,0.01-0.023c0.074-0.082,0.121-0.189,0.127-0.309
				c0-0.006,0.004-0.011,0.004-0.018c0-0.003,0.002-0.005,0.002-0.008C15.983,7.996,15.981,7.994,15.981,7.991z"/>
		</g>
	</g>
</g>
<g id="Layer_1">
</g>
</svg>
