<?xml version="1.0" encoding="iso-8859-1"?>
<!-- Generator: Adobe Illustrator 16.0.0, SVG Export Plug-In . SVG Version: 6.00 Build 0)  -->
<!DOCTYPE svg PUBLIC "-//W3C//DTD SVG 1.1//EN" "http://www.w3.org/Graphics/SVG/1.1/DTD/svg11.dtd">
<svg version="1.1" xmlns="http://www.w3.org/2000/svg" xmlns:xlink="http://www.w3.org/1999/xlink" x="0px" y="0px" width="16px"
	 height="16px" viewBox="0 0 16 16" style="enable-background:new 0 0 16 16;" xml:space="preserve">
<g id="interface-right-k" style="enable-background:new    ;">
	<g id="interface-right-k_1_">
		<g>
			<path d="M15.655,7.454L7.822,2.145C7.365,1.844,6.99,2.042,6.99,2.583v3.426H1.998c-1.104,0-2,0.895-2,1.998
				c0,1.104,0.895,1.997,2,1.997H6.99v3.412c0,0.54,0.375,0.737,0.832,0.438l7.833-5.309c0.229-0.15,0.344-0.348,0.344-0.545
				C15.999,7.8,15.884,7.603,15.655,7.454z M7.99,12.562V9.006H1.998c-0.552,0-1-0.447-1-0.999c0-0.551,0.447-1,1-1H7.99v-3.57
				L14.685,8L7.99,12.562z"/>
		</g>
	</g>
</g>
<g id="Layer_1">
</g>
</svg>
