<?xml version="1.0" encoding="iso-8859-1"?>
<!-- Generator: Adobe Illustrator 16.0.0, SVG Export Plug-In . SVG Version: 6.00 Build 0)  -->
<!DOCTYPE svg PUBLIC "-//W3C//DTD SVG 1.1//EN" "http://www.w3.org/Graphics/SVG/1.1/DTD/svg11.dtd">
<svg version="1.1" xmlns="http://www.w3.org/2000/svg" xmlns:xlink="http://www.w3.org/1999/xlink" x="0px" y="0px" width="16px"
	 height="16px" viewBox="0 0 16 16" style="enable-background:new 0 0 16 16;" xml:space="preserve">
<g id="interface-search-tick" style="enable-background:new    ;">
	<g id="interface-search-tick_1_">
		<g>
			<path d="M15.857,15.185L11.4,10.729C12.384,9.589,13,8.123,13,6.5c0-3.59-2.91-6.499-6.499-6.499c-3.59,0-6.5,2.909-6.5,6.499
				c0,3.591,2.91,6.5,6.5,6.5c1.622,0,3.088-0.615,4.227-1.599l4.457,4.456c0.186,0.187,0.487,0.187,0.673,0
				C16.043,15.672,16.043,15.37,15.857,15.185z M6.501,12.001c-3.038,0-5.5-2.463-5.5-5.501c0-3.037,2.462-5.499,5.5-5.499
				C9.538,1.001,12,3.463,12,6.5C12,9.538,9.538,12.001,6.501,12.001z M9.197,4.143L5.324,7.81L3.775,6.143
				c-0.177-0.189-0.465-0.189-0.642,0c-0.177,0.192-0.177,0.501,0,0.691l1.815,1.952C4.963,8.81,4.973,8.837,4.992,8.857
				c0.092,0.099,0.212,0.145,0.332,0.141c0.12,0.004,0.241-0.042,0.333-0.141c0.02-0.021,0.029-0.048,0.044-0.071l4.138-3.952
				c0.177-0.191,0.177-0.5,0-0.691C9.661,3.952,9.374,3.952,9.197,4.143z"/>
		</g>
	</g>
</g>
<g id="Layer_1">
</g>
</svg>
