<?xml version="1.0" encoding="iso-8859-1"?>
<!-- Generator: Adobe Illustrator 16.0.0, SVG Export Plug-In . SVG Version: 6.00 Build 0)  -->
<!DOCTYPE svg PUBLIC "-//W3C//DTD SVG 1.1//EN" "http://www.w3.org/Graphics/SVG/1.1/DTD/svg11.dtd">
<svg version="1.1" xmlns="http://www.w3.org/2000/svg" xmlns:xlink="http://www.w3.org/1999/xlink" x="0px" y="0px" width="16px"
	 height="16px" viewBox="0 0 16 16" style="enable-background:new 0 0 16 16;" xml:space="preserve">
<g id="interface-fullscreen-wide" style="enable-background:new    ;">
	<g id="interface-fullscreen-wide_1_">
		<g>
			<path d="M0.999,12.999v-2h-1v2c0,1.105,0.895,2,2,2h3v-1h-3C1.447,13.999,0.999,13.552,0.999,12.999z M-0.001,3v2h1V3
				c0-0.552,0.448-1,1-1h3V0.999h-3C0.894,0.999-0.001,1.894-0.001,3z M14.999,12.999c0,0.553-0.447,1-1,1h-3v1h3
				c1.104,0,2-0.895,2-2v-2h-1V12.999z M13.999,0.999h-3V2h3c0.553,0,1,0.448,1,1v2h1V3C15.999,1.894,15.103,0.999,13.999,0.999z"/>
		</g>
	</g>
</g>
<g id="Layer_1">
</g>
</svg>
