<?xml version="1.0" encoding="iso-8859-1"?>
<!-- Generator: Adobe Illustrator 16.0.0, SVG Export Plug-In . SVG Version: 6.00 Build 0)  -->
<!DOCTYPE svg PUBLIC "-//W3C//DTD SVG 1.1//EN" "http://www.w3.org/Graphics/SVG/1.1/DTD/svg11.dtd">
<svg version="1.1" xmlns="http://www.w3.org/2000/svg" xmlns:xlink="http://www.w3.org/1999/xlink" x="0px" y="0px" width="16px"
	 height="16px" viewBox="0 0 16 16" style="enable-background:new 0 0 16 16;" xml:space="preserve">
<g id="interface-window" style="enable-background:new    ;">
	<g id="interface-window_1_">
		<g>
			<path d="M15.499-0.001h-13c-0.276,0-0.5,0.225-0.5,0.501c0,0.275,0.224,0.499,0.5,0.499h12.5v12.5c0,0.276,0.225,0.5,0.5,0.5
				s0.5-0.224,0.5-0.5V0.5C15.999,0.224,15.774-0.001,15.499-0.001z M13.499,2h-13c-0.276,0-0.5,0.224-0.5,0.499v13
				c0,0.276,0.224,0.5,0.5,0.5h13c0.275,0,0.5-0.224,0.5-0.5v-13C13.999,2.224,13.774,2,13.499,2z M12.999,14.499
				c0,0.276-0.225,0.501-0.5,0.501h-11c-0.276,0-0.5-0.225-0.5-0.501V3.5c0-0.276,0.224-0.501,0.5-0.501h11
				c0.275,0,0.5,0.225,0.5,0.501V14.499z"/>
		</g>
	</g>
</g>
<g id="Layer_1">
</g>
</svg>
