<?xml version="1.0" encoding="iso-8859-1"?>
<!-- Generator: Adobe Illustrator 16.0.0, SVG Export Plug-In . SVG Version: 6.00 Build 0)  -->
<!DOCTYPE svg PUBLIC "-//W3C//DTD SVG 1.1//EN" "http://www.w3.org/Graphics/SVG/1.1/DTD/svg11.dtd">
<svg version="1.1" xmlns="http://www.w3.org/2000/svg" xmlns:xlink="http://www.w3.org/1999/xlink" x="0px" y="0px" width="16px"
	 height="16px" viewBox="0 0 16 16" style="enable-background:new 0 0 16 16;" xml:space="preserve">
<g id="interface-warning" style="enable-background:new    ;">
	<g id="interface-warning_2_">
		<g>
			<path d="M15.499,14.999h-1.5l-1-2.5v-0.5h-0.2l-4.8-12l-4.8,12h-0.2v0.5l-1,2.5h-1.5c-0.276,0-0.5,0.223-0.5,0.5
				c0,0.275,0.224,0.5,0.5,0.5h15c0.276,0,0.5-0.225,0.5-0.5C15.999,15.222,15.775,14.999,15.499,14.999z M7.999,2l1.154,2.999
				H6.846L7.999,2z M6.499,5.899v0.1h3v-0.1L9.923,7H6.076L6.499,5.899z M5.691,7.999h4.615l0.77,2H4.922L5.691,7.999z
				 M4.537,10.999h6.924l0.385,1H4.153L4.537,10.999z M2.999,14.999l0.77-2h8.462l0.769,2H2.999z"/>
		</g>
	</g>
</g>
<g id="Layer_1">
</g>
</svg>
