<?xml version="1.0" encoding="iso-8859-1"?>
<!-- Generator: Adobe Illustrator 16.0.0, SVG Export Plug-In . SVG Version: 6.00 Build 0)  -->
<!DOCTYPE svg PUBLIC "-//W3C//DTD SVG 1.1//EN" "http://www.w3.org/Graphics/SVG/1.1/DTD/svg11.dtd">
<svg version="1.1" xmlns="http://www.w3.org/2000/svg" xmlns:xlink="http://www.w3.org/1999/xlink" x="0px" y="0px" width="16px"
	 height="16px" viewBox="0 0 16 16" style="enable-background:new 0 0 16 16;" xml:space="preserve">
<g id="interface-out-link" style="enable-background:new    ;">
	<g id="interface-out-link_2_">
		<g>
			<path d="M13.496,13.997c0,0.275-0.224,0.5-0.5,0.5H1.997c-0.276,0-0.5-0.225-0.5-0.5V2.996c0-0.275,0.224-0.499,0.5-0.499h6.5
				V1.496h-7c-0.553,0-1,0.448-1,1.001v12c0,0.552,0.447,1,1,1h11.999c0.553,0,1-0.448,1-1V7.496h-1V13.997z M15.469,1.004
				c0-0.001,0.001-0.002,0.001-0.004c0-0.001-0.001-0.001-0.001-0.002V0.97c-0.001-0.112-0.049-0.211-0.12-0.292
				c-0.009-0.011-0.015-0.024-0.024-0.034c-0.012-0.011-0.026-0.018-0.039-0.027c-0.081-0.068-0.179-0.114-0.29-0.114h-0.027
				c-0.001,0-0.003-0.001-0.004,0c-0.001,0-0.002,0-0.003,0L9.938,0.533C9.677,0.534,9.467,0.76,9.468,1.036s0.213,0.5,0.475,0.498
				l3.826-0.023L5.64,9.67c-0.191,0.191-0.189,0.501,0.003,0.69c0.192,0.19,0.503,0.189,0.694-0.003l8.134-8.164l0.023,3.802
				c0.002,0.26,0.228,0.47,0.505,0.469c0.278-0.002,0.502-0.213,0.501-0.473L15.469,1.004z"/>
		</g>
	</g>
</g>
<g id="Layer_1">
</g>
</svg>
