<?xml version="1.0" encoding="iso-8859-1"?>
<!-- Generator: Adobe Illustrator 16.0.0, SVG Export Plug-In . SVG Version: 6.00 Build 0)  -->
<!DOCTYPE svg PUBLIC "-//W3C//DTD SVG 1.1//EN" "http://www.w3.org/Graphics/SVG/1.1/DTD/svg11.dtd">
<svg version="1.1" xmlns="http://www.w3.org/2000/svg" xmlns:xlink="http://www.w3.org/1999/xlink" x="0px" y="0px" width="16px"
	 height="16px" viewBox="0 0 16 16" style="enable-background:new 0 0 16 16;" xml:space="preserve">
<g id="interface-places-a" style="enable-background:new    ;">
	<g id="interface-places-a_2_">
		<g>
			<path d="M3.41,11.985c0,0-2.441-4.117-2.441-5.687c0-1.065,0.508-1.982,1.252-2.47C2.383,3.347,2.613,2.9,2.9,2.497
				C1.258,2.766-0.001,4.29-0.001,6.133c0,2.034,3.418,7.364,3.418,7.364s0.479-0.746,1.08-1.789
				c-0.155-0.271-0.31-0.549-0.463-0.832C3.678,11.534,3.41,11.985,3.41,11.985z M7.999,0.5c-2.762,0-5,2.238-5,5c0,2.761,5,10,5,10
				s5-7.238,5-10C12.999,2.738,10.761,0.5,7.999,0.5z M3.999,5.5c0-2.206,1.794-4,4-4c2.205,0,4,1.794,4,4
				c0,1.537-2.199,5.427-4,8.201C6.198,10.927,3.999,7.038,3.999,5.5z M13.097,2.497c0.287,0.403,0.518,0.851,0.68,1.332
				c0.744,0.487,1.252,1.404,1.252,2.47c0,1.57-2.441,5.687-2.441,5.687s-0.268-0.451-0.623-1.109
				c-0.154,0.283-0.309,0.561-0.463,0.832c0.6,1.043,1.08,1.789,1.08,1.789s3.418-5.33,3.418-7.364
				C15.999,4.29,14.739,2.766,13.097,2.497z"/>
		</g>
	</g>
</g>
<g id="Layer_1">
</g>
</svg>
