<?xml version="1.0" encoding="iso-8859-1"?>
<!-- Generator: Adobe Illustrator 16.0.0, SVG Export Plug-In . SVG Version: 6.00 Build 0)  -->
<!DOCTYPE svg PUBLIC "-//W3C//DTD SVG 1.1//EN" "http://www.w3.org/Graphics/SVG/1.1/DTD/svg11.dtd">
<svg version="1.1" xmlns="http://www.w3.org/2000/svg" xmlns:xlink="http://www.w3.org/1999/xlink" x="0px" y="0px" width="16px"
	 height="16px" viewBox="0 0 16 16" style="enable-background:new 0 0 16 16;" xml:space="preserve">
<g id="interface-enlarge" style="enable-background:new    ;">
	<g id="interface-enlarge_1_">
		<g>
			<path d="M6.153,9.142l-5.154,5.154v-3.798c0-0.275-0.224-0.499-0.5-0.499c-0.276,0-0.5,0.224-0.5,0.499v5v0.001
				c0,0.007,0.004,0.013,0.004,0.021c0.005,0.121,0.053,0.23,0.13,0.314c0.006,0.006,0.003,0.015,0.009,0.021
				s0.015,0.004,0.021,0.009c0.084,0.077,0.193,0.125,0.315,0.131c0.007,0,0.013,0.004,0.021,0.004c0,0,0,0,0,0h5
				c0.276,0,0.5-0.225,0.5-0.501c0-0.275-0.224-0.499-0.5-0.499H1.701l5.155-5.155c0.194-0.193,0.194-0.508,0-0.702
				C6.662,8.948,6.347,8.948,6.153,9.142z M15.995,0.478c-0.006-0.121-0.055-0.23-0.131-0.314c-0.006-0.007-0.002-0.016-0.008-0.021
				s-0.016-0.003-0.021-0.009c-0.084-0.076-0.193-0.124-0.314-0.13c-0.008,0-0.014-0.004-0.021-0.004h-5
				c-0.275,0-0.5,0.224-0.5,0.499c0,0.276,0.225,0.501,0.5,0.501h3.797L9.142,6.153c-0.193,0.193-0.193,0.508,0,0.702
				c0.195,0.194,0.51,0.194,0.703,0l5.154-5.154v3.798c0,0.275,0.225,0.499,0.5,0.499s0.5-0.224,0.5-0.499V0.498
				C15.999,0.49,15.995,0.485,15.995,0.478z"/>
		</g>
	</g>
</g>
<g id="Layer_1">
</g>
</svg>
