<?xml version="1.0" encoding="iso-8859-1"?>
<!-- Generator: Adobe Illustrator 16.0.0, SVG Export Plug-In . SVG Version: 6.00 Build 0)  -->
<!DOCTYPE svg PUBLIC "-//W3C//DTD SVG 1.1//EN" "http://www.w3.org/Graphics/SVG/1.1/DTD/svg11.dtd">
<svg version="1.1" xmlns="http://www.w3.org/2000/svg" xmlns:xlink="http://www.w3.org/1999/xlink" x="0px" y="0px" width="16px"
	 height="16px" viewBox="0 0 16 16" style="enable-background:new 0 0 16 16;" xml:space="preserve">
<g id="interface-dashboard" style="enable-background:new    ;">
	<g id="interface-dashboard_1_">
		<g>
			<path d="M9.614,6.413C9.325,6.339,9.003,6.485,8.897,6.736l-1.386,3.265c-0.004,0-0.008-0.002-0.012-0.002
				c-0.829,0-1.5,0.672-1.5,1.5s0.671,1.5,1.5,1.5c0.828,0,1.5-0.672,1.5-1.5c0-0.439-0.195-0.824-0.496-1.098l1.443-3.4
				C10.054,6.75,9.905,6.486,9.614,6.413z M7.499,11.999c-0.276,0-0.5-0.223-0.5-0.5c0-0.275,0.224-0.498,0.5-0.498
				c0.276,0,0.5,0.223,0.5,0.498C7.999,11.776,7.775,11.999,7.499,11.999z M7.999,3c-2.762,0-5,2.238-5,4.999h1
				C3.999,5.79,5.79,4,7.999,4c2.209,0,4,1.79,4,3.999h1C12.999,5.238,10.761,3,7.999,3z M7.999,0c-4.418,0-8,3.581-8,7.999
				c0,4.418,3.582,8,8,8c4.418,0,8-3.582,8-8C15.999,3.581,12.417,0,7.999,0z M7.999,14.999c-3.866,0-7-3.135-7-7
				c0-3.865,3.134-6.999,7-6.999c3.865,0,7,3.134,7,6.999C14.999,11.864,11.864,14.999,7.999,14.999z"/>
		</g>
	</g>
</g>
<g id="Layer_1">
</g>
</svg>
