<?xml version="1.0" encoding="iso-8859-1"?>
<!-- Generator: Adobe Illustrator 16.0.0, SVG Export Plug-In . SVG Version: 6.00 Build 0)  -->
<!DOCTYPE svg PUBLIC "-//W3C//DTD SVG 1.1//EN" "http://www.w3.org/Graphics/SVG/1.1/DTD/svg11.dtd">
<svg version="1.1" xmlns="http://www.w3.org/2000/svg" xmlns:xlink="http://www.w3.org/1999/xlink" x="0px" y="0px" width="16px"
	 height="16px" viewBox="0 0 16 16" style="enable-background:new 0 0 16 16;" xml:space="preserve">
<g id="interface-alt-plus" style="enable-background:new    ;">
	<g id="interface-alt-plus_2_">
		<g>
			<path d="M14.999,5.999h-5V1c0-0.553-0.447-1-1-1h-2c-0.552,0-1,0.447-1,1v4.999h-5c-0.552,0-1,0.448-1,1v2c0,0.553,0.448,1,1,1h5
				v5c0,0.553,0.448,1,1,1h2c0.553,0,1-0.447,1-1v-5h5c0.553,0,1-0.447,1-1v-2C15.999,6.447,15.552,5.999,14.999,5.999z
				 M14.999,8.499c0,0.277-0.225,0.5-0.5,0.5h-5.5v5.5c0,0.277-0.225,0.5-0.5,0.5h-1c-0.276,0-0.5-0.223-0.5-0.5v-5.5h-5.5
				c-0.276,0-0.5-0.223-0.5-0.5v-1c0-0.276,0.224-0.501,0.5-0.501h5.5v-5.5C6.999,1.222,7.223,1,7.499,1h1
				c0.275,0,0.5,0.223,0.5,0.499v5.5h5.5c0.275,0,0.5,0.225,0.5,0.501V8.499z"/>
		</g>
	</g>
</g>
<g id="Layer_1">
</g>
</svg>
