<?xml version="1.0" encoding="iso-8859-1"?>
<!-- Generator: Adobe Illustrator 16.0.0, SVG Export Plug-In . SVG Version: 6.00 Build 0)  -->
<!DOCTYPE svg PUBLIC "-//W3C//DTD SVG 1.1//EN" "http://www.w3.org/Graphics/SVG/1.1/DTD/svg11.dtd">
<svg version="1.1" xmlns="http://www.w3.org/2000/svg" xmlns:xlink="http://www.w3.org/1999/xlink" x="0px" y="0px" width="16px"
	 height="16px" viewBox="0 0 16 16" style="enable-background:new 0 0 16 16;" xml:space="preserve">
<g id="interface-forward" style="enable-background:new    ;">
	<g id="interface-forward_2_">
		<g>
			<path d="M15.815,6.75L9.331,1.603c-0.149-0.119-0.355-0.142-0.53-0.063c-0.174,0.08-0.285,0.25-0.285,0.437L8.5,4.693
				C5.594,4.782,3.344,5.686,1.885,7.337c-2.374,2.687-1.844,6.592-1.819,6.755c0.037,0.237,0.217,0.411,0.463,0.411
				c0.005,0,0.011,0,0.017,0c0.253-0.009,0.412-0.198,0.434-0.442c0.017-0.179,0.515-4.521,7.52-4.516l0.016,2.775
				c0,0.188,0.111,0.357,0.286,0.438c0.174,0.08,0.382,0.056,0.531-0.063L15.816,7.5C15.933,7.408,16,7.27,15.999,7.125
				C15.999,6.98,15.932,6.842,15.815,6.75z M9.516,11.298V9.054c0-0.128-0.053-0.252-0.147-0.342C9.274,8.621,9.147,8.57,9.016,8.57
				c-0.001,0-0.001,0-0.001,0c-5.003,0.003-6.916,1.638-8.007,3.081c0.16-1.156,0.626-2.551,1.641-3.689
				c1.349-1.513,3.522-2.31,6.368-2.31c0.276,0,0.5-0.217,0.5-0.484V2.996l5.194,4.132L9.516,11.298z"/>
		</g>
	</g>
</g>
<g id="Layer_1">
</g>
</svg>
