<?xml version="1.0" encoding="iso-8859-1"?>
<!-- Generator: Adobe Illustrator 16.0.0, SVG Export Plug-In . SVG Version: 6.00 Build 0)  -->
<!DOCTYPE svg PUBLIC "-//W3C//DTD SVG 1.1//EN" "http://www.w3.org/Graphics/SVG/1.1/DTD/svg11.dtd">
<svg version="1.1" xmlns="http://www.w3.org/2000/svg" xmlns:xlink="http://www.w3.org/1999/xlink" x="0px" y="0px" width="16px"
	 height="16px" viewBox="0 0 16 16" style="enable-background:new 0 0 16 16;" xml:space="preserve">
<g id="interface-places" style="enable-background:new    ;">
	<g id="interface-places_1_">
		<g>
			<path d="M3.411,11.985c0,0-2.442-4.117-2.442-5.687c0-1.065,0.509-1.982,1.253-2.47C2.383,3.347,2.613,2.9,2.9,2.498
				C1.258,2.767-0.001,4.29-0.001,6.133c0,2.034,3.418,7.366,3.418,7.366s0.479-0.748,1.08-1.791
				c-0.155-0.271-0.31-0.549-0.463-0.832C3.678,11.534,3.411,11.985,3.411,11.985z M7.999,3.499c-1.105,0-2,0.896-2,2s0.895,2,2,2
				c1.104,0,2-0.896,2-2S9.103,3.499,7.999,3.499z M7.999,6.499c-0.552,0-1-0.448-1-1s0.448-1,1-1c0.553,0,1,0.448,1,1
				S8.552,6.499,7.999,6.499z M13.097,2.498c0.287,0.402,0.518,0.85,0.68,1.331c0.744,0.487,1.252,1.404,1.252,2.47
				c0,1.57-2.441,5.687-2.441,5.687s-0.268-0.451-0.623-1.109c-0.154,0.283-0.309,0.561-0.463,0.832
				c0.6,1.043,1.08,1.791,1.08,1.791s3.418-5.332,3.418-7.366C15.999,4.29,14.739,2.767,13.097,2.498z M7.999,0.5
				c-2.761,0-5,2.238-5,5c0,2.761,5,10,5,10s5-7.238,5-10C12.999,2.738,10.761,0.5,7.999,0.5z M3.999,5.5c0-2.206,1.794-4,4-4
				c2.206,0,4,1.794,4,4c0,1.537-2.199,5.427-4,8.201C6.198,10.927,3.999,7.038,3.999,5.5z"/>
		</g>
	</g>
</g>
<g id="Layer_1">
</g>
</svg>
