<?xml version="1.0" encoding="iso-8859-1"?>
<!-- Generator: Adobe Illustrator 16.0.0, SVG Export Plug-In . SVG Version: 6.00 Build 0)  -->
<!DOCTYPE svg PUBLIC "-//W3C//DTD SVG 1.1//EN" "http://www.w3.org/Graphics/SVG/1.1/DTD/svg11.dtd">
<svg version="1.1" xmlns="http://www.w3.org/2000/svg" xmlns:xlink="http://www.w3.org/1999/xlink" x="0px" y="0px" width="16px"
	 height="16px" viewBox="0 0 16 16" style="enable-background:new 0 0 16 16;" xml:space="preserve">
<g id="interface-help" style="enable-background:new    ;">
	<g id="interface-help_1_">
		<g>
			<path d="M7.999-0.001c-4.418,0-8,3.582-8,7.999c0,4.419,3.582,8.001,8,8.001c4.418,0,8-3.582,8-8.001
				C15.999,3.581,12.417-0.001,7.999-0.001z M9.999,1.324c2.248,0.673,4.014,2.435,4.689,4.675h-3.236
				c-0.352-0.597-0.854-1.096-1.453-1.446V1.324z M10.999,7.998c0,1.657-1.344,3-3,3c-1.657,0-3-1.343-3-3
				c0-1.656,1.343-2.999,3-2.999C9.655,4.999,10.999,6.342,10.999,7.998z M6.999,1.1c0.329-0.048,0.657-0.102,1-0.102
				c0.342,0,0.67,0.054,1,0.102v3.04c-0.322-0.083-0.652-0.142-1-0.142s-0.679,0.059-1,0.142V1.1z M5.999,1.324v3.229
				c-0.601,0.351-1.103,0.85-1.454,1.446H1.309C1.985,3.759,3.75,1.997,5.999,1.324z M0.999,7.998c0-0.341,0.036-0.672,0.083-1
				h3.053c-0.084,0.32-0.136,0.653-0.136,1c0,0.348,0.052,0.681,0.136,1.001H1.082C1.035,8.672,0.999,8.34,0.999,7.998z
				 M5.999,14.674C3.751,14,1.986,12.238,1.309,9.999h3.236c0.352,0.597,0.853,1.096,1.454,1.445V14.674z M8.999,14.898
				c-0.33,0.047-0.658,0.101-1,0.101c-0.343,0-0.671-0.054-1-0.101v-3.041c0.321,0.083,0.652,0.142,1,0.142s0.678-0.059,1-0.142
				V14.898z M9.999,14.674v-3.229c0.6-0.35,1.102-0.849,1.453-1.445h3.236C14.013,12.238,12.247,14,9.999,14.674z M11.862,8.999
				c0.084-0.32,0.137-0.653,0.137-1.001c0-0.347-0.053-0.68-0.137-1h3.053c0.049,0.328,0.084,0.659,0.084,1
				c0,0.342-0.035,0.674-0.084,1.001H11.862z"/>
		</g>
	</g>
</g>
<g id="Layer_1">
</g>
</svg>
