<?xml version="1.0" encoding="iso-8859-1"?>
<!-- Generator: Adobe Illustrator 16.0.0, SVG Export Plug-In . SVG Version: 6.00 Build 0)  -->
<!DOCTYPE svg PUBLIC "-//W3C//DTD SVG 1.1//EN" "http://www.w3.org/Graphics/SVG/1.1/DTD/svg11.dtd">
<svg version="1.1" xmlns="http://www.w3.org/2000/svg" xmlns:xlink="http://www.w3.org/1999/xlink" x="0px" y="0px" width="16px"
	 height="16px" viewBox="0 0 16 16" style="enable-background:new 0 0 16 16;" xml:space="preserve">
<g id="interface-left-t-k" style="enable-background:new    ;">
	<g id="interface-left-t-k_1_">
		<g>
			<path d="M13.417,10.61L9.902,7.096l2.411-2.409c0.38-0.381,0.256-0.783-0.277-0.894l-9.25-1.777
				C2.52,1.959,2.299,2.018,2.16,2.158C2.021,2.296,1.962,2.516,2.018,2.783l1.779,9.247c0.11,0.533,0.513,0.658,0.894,0.277
				l2.4-2.399l3.515,3.514c0.777,0.776,2.037,0.777,2.813,0.001C14.195,12.646,14.194,11.387,13.417,10.61z M12.715,12.719
				c-0.388,0.388-1.018,0.388-1.406-0.001L7.089,8.501l-2.502,2.502L3.085,3.082l7.924,1.503L8.496,7.096l4.218,4.217
				C13.103,11.702,13.104,12.331,12.715,12.719z"/>
		</g>
	</g>
</g>
<g id="Layer_1">
</g>
</svg>
