<?xml version="1.0" encoding="iso-8859-1"?>
<!-- Generator: Adobe Illustrator 16.0.0, SVG Export Plug-In . SVG Version: 6.00 Build 0)  -->
<!DOCTYPE svg PUBLIC "-//W3C//DTD SVG 1.1//EN" "http://www.w3.org/Graphics/SVG/1.1/DTD/svg11.dtd">
<svg version="1.1" xmlns="http://www.w3.org/2000/svg" xmlns:xlink="http://www.w3.org/1999/xlink" x="0px" y="0px" width="16px"
	 height="16px" viewBox="0 0 16 16" style="enable-background:new 0 0 16 16;" xml:space="preserve">
<g id="interface-box-tick" style="enable-background:new    ;">
	<g id="interface-box-tick_1_">
		<g>
			<path d="M11.597,4.647l-4.348,5.661L4.451,7.65c-0.218-0.201-0.571-0.201-0.789,0c-0.218,0.201-0.218,0.528,0,0.73l3.182,2.904
				c0.016,0.024,0.026,0.051,0.047,0.071c0.098,0.099,0.228,0.145,0.357,0.141c0.129,0.004,0.259-0.042,0.357-0.141
				c0.021-0.021,0.031-0.048,0.048-0.071l4.691-5.921c0.207-0.198,0.207-0.52,0-0.717S11.804,4.45,11.597,4.647z M13.499,0.499h-11
				c-1.104,0-2,0.896-2,2.001v10.999c0,1.104,0.896,2,2,2h11c1.104,0,2-0.896,2-2V2.5C15.499,1.395,14.603,0.499,13.499,0.499z
				 M14.499,13.499c0,0.553-0.447,1-1,1h-11c-0.552,0-1-0.447-1-1V2.5c0-0.553,0.448-1,1-1h11c0.553,0,1,0.447,1,1V13.499z"/>
		</g>
	</g>
</g>
<g id="Layer_1">
</g>
</svg>
