<?xml version="1.0" encoding="iso-8859-1"?>
<!-- Generator: Adobe Illustrator 16.0.0, SVG Export Plug-In . SVG Version: 6.00 Build 0)  -->
<!DOCTYPE svg PUBLIC "-//W3C//DTD SVG 1.1//EN" "http://www.w3.org/Graphics/SVG/1.1/DTD/svg11.dtd">
<svg version="1.1" xmlns="http://www.w3.org/2000/svg" xmlns:xlink="http://www.w3.org/1999/xlink" x="0px" y="0px" width="16px"
	 height="16px" viewBox="0 0 16 16" style="enable-background:new 0 0 16 16;" xml:space="preserve">
<g id="interface-arrow-right" style="enable-background:new    ;">
	<g id="interface-arrow-right_1_">
		<g>
			<path d="M13.982,6.993c0-0.011-0.008-0.019-0.008-0.028c-0.008-0.098-0.047-0.181-0.104-0.253
				c-0.016-0.021-0.01-0.05-0.029-0.068c-0.016-0.016-0.039-0.011-0.057-0.023c-0.008-0.006-0.012-0.016-0.02-0.021L8.33,1.657
				c-0.189-0.189-0.498-0.189-0.689,0c-0.189,0.19-0.189,0.499,0,0.688L12.213,6.5H0.514C0.238,6.5,0.015,6.724,0.015,7
				c0,0.274,0.223,0.498,0.499,0.498h11.699L7.64,11.653c-0.189,0.189-0.189,0.497,0,0.688c0.191,0.189,0.5,0.189,0.689,0
				l5.463-4.966c0.008-0.006,0.018-0.005,0.025-0.011c0.006-0.006,0.018-0.003,0.023-0.01s0.004-0.018,0.01-0.024
				c0.074-0.082,0.121-0.188,0.127-0.307c0-0.006,0.004-0.011,0.004-0.018c0-0.002,0.002-0.005,0.002-0.007
				C13.984,6.997,13.982,6.995,13.982,6.993z"/>
		</g>
	</g>
</g>
<g id="Layer_1">
</g>
</svg>
