<?xml version="1.0" encoding="iso-8859-1"?>
<!-- Generator: Adobe Illustrator 16.0.0, SVG Export Plug-In . SVG Version: 6.00 Build 0)  -->
<!DOCTYPE svg PUBLIC "-//W3C//DTD SVG 1.1//EN" "http://www.w3.org/Graphics/SVG/1.1/DTD/svg11.dtd">
<svg version="1.1" xmlns="http://www.w3.org/2000/svg" xmlns:xlink="http://www.w3.org/1999/xlink" x="0px" y="0px" width="16px"
	 height="16px" viewBox="0 0 16 16" style="enable-background:new 0 0 16 16;" xml:space="preserve">
<g id="interface-pixel" style="enable-background:new    ;">
	<g id="interface-pixel_1_">
		<g>
			<path d="M15.999,4.999v-5h-5v1.999h-6v-1.999h-5v5h2v5.999h-2v5.001h5v-2h6v2h5v-5.001h-2V4.999H15.999z M0.999,3.998v-3h3v3
				H0.999z M3.999,14.998h-3v-3h3V14.998z M10.999,12.999h-6v-2.001h-2V4.999h2v-2h6v2h2v5.999h-2V12.999z M14.999,11.998v3h-3v-3
				H14.999z M11.999,3.998v-3h3v3H11.999z"/>
		</g>
	</g>
</g>
<g id="Layer_1">
</g>
</svg>
