<?xml version="1.0" encoding="iso-8859-1"?>
<!-- Generator: Adobe Illustrator 16.0.0, SVG Export Plug-In . SVG Version: 6.00 Build 0)  -->
<!DOCTYPE svg PUBLIC "-//W3C//DTD SVG 1.1//EN" "http://www.w3.org/Graphics/SVG/1.1/DTD/svg11.dtd">
<svg version="1.1" xmlns="http://www.w3.org/2000/svg" xmlns:xlink="http://www.w3.org/1999/xlink" x="0px" y="0px" width="16px"
	 height="16px" viewBox="0 0 16 16" style="enable-background:new 0 0 16 16;" xml:space="preserve">
<g id="interface-list-view" style="enable-background:new    ;">
	<g id="interface-list-view_1_">
		<g>
			<path d="M14.999,10.998h-14c-0.552,0-1,0.448-1,1.001v2c0,0.552,0.448,1,1,1h14c0.553,0,1-0.448,1-1v-2
				C15.999,11.446,15.552,10.998,14.999,10.998z M14.999,13.499c0,0.275-0.225,0.5-0.5,0.5h-13c-0.276,0-0.5-0.225-0.5-0.5v-1
				c0-0.276,0.224-0.5,0.5-0.5h13c0.275,0,0.5,0.224,0.5,0.5V13.499z M14.999,0.999h-14c-0.552,0-1,0.447-1,1v2c0,0.553,0.448,1,1,1
				h14c0.553,0,1-0.447,1-1v-2C15.999,1.446,15.552,0.999,14.999,0.999z M14.999,3.499c0,0.275-0.225,0.5-0.5,0.5h-13
				c-0.276,0-0.5-0.225-0.5-0.5V2.498c0-0.275,0.224-0.499,0.5-0.499h13c0.275,0,0.5,0.224,0.5,0.499V3.499z M14.999,5.998h-14
				c-0.552,0-1,0.448-1,1.001v2c0,0.552,0.448,0.999,1,0.999h14c0.553,0,1-0.447,1-0.999v-2C15.999,6.446,15.552,5.998,14.999,5.998
				z M14.999,8.498c0,0.277-0.225,0.501-0.5,0.501h-13c-0.276,0-0.5-0.224-0.5-0.501V7.499c0-0.276,0.224-0.5,0.5-0.5h13
				c0.275,0,0.5,0.224,0.5,0.5V8.498z"/>
		</g>
	</g>
</g>
<g id="Layer_1">
</g>
</svg>
