<?xml version="1.0" encoding="iso-8859-1"?>
<!-- Generator: Adobe Illustrator 16.0.0, SVG Export Plug-In . SVG Version: 6.00 Build 0)  -->
<!DOCTYPE svg PUBLIC "-//W3C//DTD SVG 1.1//EN" "http://www.w3.org/Graphics/SVG/1.1/DTD/svg11.dtd">
<svg version="1.1" xmlns="http://www.w3.org/2000/svg" xmlns:xlink="http://www.w3.org/1999/xlink" x="0px" y="0px" width="16px"
	 height="16px" viewBox="0 0 16 16" style="enable-background:new 0 0 16 16;" xml:space="preserve">
<g id="interface-backspace-a" style="enable-background:new    ;">
	<g id="interface-backspace-a_1_">
		<g>
			<path d="M7.144,9.838c0.204,0.204,0.535,0.204,0.739,0l1.117-1.116l1.117,1.116c0.203,0.204,0.533,0.204,0.738,0
				c0.203-0.204,0.203-0.534,0-0.739L9.737,7.982l1.1-1.101c0.205-0.203,0.205-0.534,0-0.738c-0.203-0.204-0.533-0.204-0.738,0
				l-1.1,1.1l-1.1-1.1c-0.204-0.204-0.535-0.204-0.739,0c-0.204,0.204-0.204,0.535,0,0.738l1.101,1.101L7.144,9.099
				C6.939,9.304,6.939,9.634,7.144,9.838z M15.499,2.499h-11.5c0,0-4,4.5-4,5.5s4,5.5,4,5.5h11.5c0.275,0,0.5-0.224,0.5-0.501V2.999
				C15.999,2.723,15.774,2.499,15.499,2.499z M14.999,12.499c0,0-10,0-10.5,0s-3.5-4.5-3.5-4.5s3-4.501,3.5-4.501s10.5,0,10.5,0
				V12.499z"/>
		</g>
	</g>
</g>
<g id="Layer_1">
</g>
</svg>
