<?xml version="1.0" encoding="iso-8859-1"?>
<!-- Generator: Adobe Illustrator 16.0.0, SVG Export Plug-In . SVG Version: 6.00 Build 0)  -->
<!DOCTYPE svg PUBLIC "-//W3C//DTD SVG 1.1//EN" "http://www.w3.org/Graphics/SVG/1.1/DTD/svg11.dtd">
<svg version="1.1" xmlns="http://www.w3.org/2000/svg" xmlns:xlink="http://www.w3.org/1999/xlink" x="0px" y="0px" width="16px"
	 height="16px" viewBox="0 0 16 16" style="enable-background:new 0 0 16 16;" xml:space="preserve">
<g id="interface-box-bottom" style="enable-background:new    ;">
	<g id="interface-box-bottom_1_">
		<g>
			<path d="M12.161,6.154L7.995,9.837L3.852,6.132C3.658,5.938,3.344,5.937,3.149,6.129C2.955,6.323,2.954,6.637,3.147,6.832
				l4.481,4.007c0.004,0.005,0.002,0.012,0.006,0.017C7.733,10.954,7.862,11,7.991,10.999c0.129,0.003,0.258-0.044,0.357-0.142
				c0.004-0.005,0.002-0.012,0.006-0.016l4.506-3.983c0.195-0.193,0.195-0.507,0.002-0.702C12.669,5.962,12.354,5.961,12.161,6.154z
				 M13.999-0.001h-12c-1.105,0-2,0.896-2,2V14c0,1.104,0.895,1.999,2,1.999h12c1.104,0,2-0.895,2-1.999V1.999
				C15.999,0.895,15.103-0.001,13.999-0.001z M14.999,14c0,0.552-0.447,0.999-1,0.999h-12c-0.553,0-1-0.447-1-0.999V1.999
				c0-0.552,0.447-1,1-1h12c0.553,0,1,0.448,1,1V14z"/>
		</g>
	</g>
</g>
<g id="Layer_1">
</g>
</svg>
