<?xml version="1.0" encoding="iso-8859-1"?>
<!-- Generator: Adobe Illustrator 16.0.0, SVG Export Plug-In . SVG Version: 6.00 Build 0)  -->
<!DOCTYPE svg PUBLIC "-//W3C//DTD SVG 1.1//EN" "http://www.w3.org/Graphics/SVG/1.1/DTD/svg11.dtd">
<svg version="1.1" xmlns="http://www.w3.org/2000/svg" xmlns:xlink="http://www.w3.org/1999/xlink" x="0px" y="0px" width="16px"
	 height="16px" viewBox="0 0 16 16" style="enable-background:new 0 0 16 16;" xml:space="preserve">
<g id="interface-arrow-bottom-circle" style="enable-background:new    ;">
	<g id="interface-arrow-bottom-circle_2_">
		<g>
			<path d="M10.653,8.643l-2.154,2.512V2.999c0-0.276-0.225-0.5-0.5-0.5s-0.5,0.224-0.5,0.5v8.155L5.344,8.643
				c-0.194-0.193-0.508-0.193-0.702,0c-0.194,0.194-0.194,0.509,0,0.702l2.982,3.479c0.004,0.004,0.006,0.01,0.01,0.014
				c0.002,0.006,0.002,0.014,0.008,0.019c0.005,0.005,0.013,0.003,0.018,0.008C7.75,12.946,7.867,13,7.999,13
				s0.25-0.054,0.338-0.137c0.006-0.005,0.014-0.003,0.019-0.008s0.005-0.013,0.008-0.019c0.004-0.005,0.007-0.011,0.01-0.015
				l2.982-3.478c0.194-0.193,0.194-0.508,0-0.702C11.161,8.449,10.848,8.449,10.653,8.643z M7.999,0.499c-4.142,0-7.5,3.357-7.5,7.5
				s3.358,7.5,7.5,7.5s7.5-3.357,7.5-7.5S12.141,0.499,7.999,0.499z M7.999,14.499c-3.59,0-6.5-2.91-6.5-6.5s2.91-6.5,6.5-6.5
				c3.59,0,6.5,2.91,6.5,6.5S11.589,14.499,7.999,14.499z"/>
		</g>
	</g>
</g>
<g id="Layer_1">
</g>
</svg>
