<?xml version="1.0" encoding="iso-8859-1"?>
<!-- Generator: Adobe Illustrator 16.0.0, SVG Export Plug-In . SVG Version: 6.00 Build 0)  -->
<!DOCTYPE svg PUBLIC "-//W3C//DTD SVG 1.1//EN" "http://www.w3.org/Graphics/SVG/1.1/DTD/svg11.dtd">
<svg version="1.1" xmlns="http://www.w3.org/2000/svg" xmlns:xlink="http://www.w3.org/1999/xlink" x="0px" y="0px" width="16px"
	 height="16px" viewBox="0 0 16 16" style="enable-background:new 0 0 16 16;" xml:space="preserve">
<g id="interface-alt-minus" style="enable-background:new    ;">
	<g id="interface-alt-minus_1_">
		<g>
			<path d="M14.999,5.999h-14c-0.552,0-1,0.447-1,1V9c0,0.552,0.448,0.999,1,0.999h14c0.553,0,1-0.447,1-0.999V6.999
				C15.999,6.446,15.552,5.999,14.999,5.999z M14.999,8.499c0,0.276-0.225,0.501-0.5,0.501h-13c-0.276,0-0.5-0.225-0.5-0.501V7.5
				c0-0.276,0.224-0.501,0.5-0.501h13c0.275,0,0.5,0.225,0.5,0.501V8.499z"/>
		</g>
	</g>
</g>
<g id="Layer_1">
</g>
</svg>
