<?xml version="1.0" encoding="iso-8859-1"?>
<!-- Generator: Adobe Illustrator 16.0.0, SVG Export Plug-In . SVG Version: 6.00 Build 0)  -->
<!DOCTYPE svg PUBLIC "-//W3C//DTD SVG 1.1//EN" "http://www.w3.org/Graphics/SVG/1.1/DTD/svg11.dtd">
<svg version="1.1" xmlns="http://www.w3.org/2000/svg" xmlns:xlink="http://www.w3.org/1999/xlink" x="0px" y="0px" width="16px"
	 height="16px" viewBox="0 0 16 16" style="enable-background:new 0 0 16 16;" xml:space="preserve">
<g id="interface-circle-cross" style="enable-background:new    ;">
	<g id="interface-circle-cross_1_">
		<g>
			<path d="M10.384,5.615C10.2,5.433,9.892,5.442,9.696,5.637L7.999,7.323L6.303,5.637C6.107,5.442,5.799,5.433,5.616,5.615
				S5.442,6.104,5.638,6.299l1.696,1.686L5.638,9.671c-0.196,0.194-0.206,0.501-0.022,0.684c0.184,0.183,0.492,0.173,0.688-0.022
				l1.696-1.686l1.697,1.686c0.195,0.195,0.504,0.204,0.688,0.022c0.184-0.184,0.174-0.489-0.023-0.684L8.665,7.984l1.695-1.686
				C10.558,6.104,10.567,5.798,10.384,5.615z M7.999,0.499c-4.142,0-7.5,3.358-7.5,7.5c0,4.143,3.358,7.5,7.5,7.5
				c4.143,0,7.5-3.357,7.5-7.5C15.499,3.857,12.142,0.499,7.999,0.499z M7.999,14.5c-3.59,0-6.5-2.911-6.5-6.501s2.91-6.5,6.5-6.5
				s6.5,2.91,6.5,6.5S11.589,14.5,7.999,14.5z"/>
		</g>
	</g>
</g>
<g id="Layer_1">
</g>
</svg>
