<?xml version="1.0" encoding="iso-8859-1"?>
<!-- Generator: Adobe Illustrator 16.0.0, SVG Export Plug-In . SVG Version: 6.00 Build 0)  -->
<!DOCTYPE svg PUBLIC "-//W3C//DTD SVG 1.1//EN" "http://www.w3.org/Graphics/SVG/1.1/DTD/svg11.dtd">
<svg version="1.1" xmlns="http://www.w3.org/2000/svg" xmlns:xlink="http://www.w3.org/1999/xlink" x="0px" y="0px" width="16px"
	 height="16px" viewBox="0 0 16 16" style="enable-background:new 0 0 16 16;" xml:space="preserve">
<g id="interface-bottom" style="enable-background:new    ;">
	<g id="interface-bottom_2_">
		<g>
			<path d="M12.855,3.645c-0.186-0.187-0.486-0.187-0.674,0L7,9.295l-5.183-5.65c-0.186-0.186-0.487-0.186-0.673,0
				c-0.186,0.187-0.186,0.487,0,0.674l5.467,5.961c0.017,0.024,0.011,0.057,0.033,0.078c0.098,0.098,0.227,0.141,0.354,0.136
				c0.129,0.007,0.26-0.036,0.358-0.136c0.022-0.021,0.017-0.055,0.033-0.08l5.466-5.96C13.041,4.132,13.041,3.83,12.855,3.645z"/>
		</g>
	</g>
</g>
<g id="Layer_1">
</g>
</svg>
