<?xml version="1.0" encoding="iso-8859-1"?>
<!-- Generator: Adobe Illustrator 16.0.0, SVG Export Plug-In . SVG Version: 6.00 Build 0)  -->
<!DOCTYPE svg PUBLIC "-//W3C//DTD SVG 1.1//EN" "http://www.w3.org/Graphics/SVG/1.1/DTD/svg11.dtd">
<svg version="1.1" xmlns="http://www.w3.org/2000/svg" xmlns:xlink="http://www.w3.org/1999/xlink" x="0px" y="0px" width="16px"
	 height="16px" viewBox="0 0 16 16" style="enable-background:new 0 0 16 16;" xml:space="preserve">
<g id="interface-uploading" style="enable-background:new    ;">
	<g id="interface-uploading_1_">
		<g>
			<path d="M5.832,3.357L7.499,1.69v9.809c0,0.275,0.224,0.5,0.5,0.5c0.275,0,0.5-0.225,0.5-0.5V1.69l1.666,1.667
				c0.191,0.19,0.5,0.19,0.691,0c0.189-0.191,0.189-0.501,0-0.691L8.373,0.183C8.369,0.178,8.37,0.17,8.366,0.166
				C8.36,0.159,8.362,0.149,8.356,0.142C8.35,0.135,8.339,0.138,8.332,0.131c-0.083-0.075-0.19-0.121-0.31-0.128
				C8.017,0.003,8.013,0,8.007,0C8.004,0,8.001-0.001,7.999-0.001C7.996-0.001,7.994,0,7.991,0.001C7.983,0,7.977,0.006,7.969,0.006
				C7.868,0.013,7.782,0.055,7.708,0.115C7.688,0.129,7.66,0.124,7.642,0.142C7.629,0.154,7.634,0.173,7.624,0.186
				C7.62,0.19,7.614,0.192,7.611,0.197L5.142,2.666c-0.191,0.19-0.191,0.5,0,0.691C5.333,3.547,5.641,3.547,5.832,3.357z
				 M13.499,3.999h-1.5V5h1c0.275,0,0.5,0.224,0.5,0.5v9c0,0.275-0.225,0.5-0.5,0.5h-10c-0.276,0-0.5-0.225-0.5-0.5v-9
				c0-0.276,0.224-0.5,0.5-0.5h1V3.999h-1.5c-0.552,0-1,0.448-1,1.001v10c0,0.553,0.448,1,1,1h11c0.553,0,1-0.447,1-1V5
				C14.499,4.447,14.052,3.999,13.499,3.999z"/>
		</g>
	</g>
</g>
<g id="Layer_1">
</g>
</svg>
