<?xml version="1.0" encoding="iso-8859-1"?>
<!-- Generator: Adobe Illustrator 16.0.0, SVG Export Plug-In . SVG Version: 6.00 Build 0)  -->
<!DOCTYPE svg PUBLIC "-//W3C//DTD SVG 1.1//EN" "http://www.w3.org/Graphics/SVG/1.1/DTD/svg11.dtd">
<svg version="1.1" xmlns="http://www.w3.org/2000/svg" xmlns:xlink="http://www.w3.org/1999/xlink" x="0px" y="0px" width="16px"
	 height="16px" viewBox="0 0 16 16" style="enable-background:new 0 0 16 16;" xml:space="preserve">
<g id="interface-thumbnail" style="enable-background:new    ;">
	<g id="interface-thumbnail_2_">
		<g>
			<path d="M5.999,8.999h-4c-0.552,0-1,0.448-1,1v4c0,0.553,0.448,1,1,1h4c0.552,0,1-0.447,1-1v-4
				C6.999,9.447,6.551,8.999,5.999,8.999z M5.999,13.5c0,0.275-0.224,0.499-0.5,0.499h-3c-0.276,0-0.5-0.224-0.5-0.499v-3.001
				c0-0.276,0.224-0.5,0.5-0.5h3c0.276,0,0.5,0.224,0.5,0.5V13.5z M13.999,0.999h-4c-0.553,0-1,0.448-1,1.001v4
				c0,0.552,0.447,0.999,1,0.999h4c0.553,0,1-0.447,1-0.999V2C14.999,1.447,14.552,0.999,13.999,0.999z M13.999,5.5
				c0,0.275-0.225,0.5-0.5,0.5h-3c-0.277,0-0.5-0.225-0.5-0.5V2.499c0-0.276,0.223-0.499,0.5-0.499h3c0.275,0,0.5,0.223,0.5,0.499
				V5.5z M5.999,0.999h-4c-0.552,0-1,0.448-1,1.001v4c0,0.552,0.448,0.999,1,0.999h4c0.552,0,1-0.447,1-0.999V2
				C6.999,1.447,6.551,0.999,5.999,0.999z M5.999,5.5c0,0.275-0.224,0.5-0.5,0.5h-3c-0.276,0-0.5-0.225-0.5-0.5V2.499
				C1.999,2.223,2.223,2,2.499,2h3c0.276,0,0.5,0.223,0.5,0.499V5.5z M13.999,8.999h-4c-0.553,0-1,0.448-1,1v4c0,0.553,0.447,1,1,1
				h4c0.553,0,1-0.447,1-1v-4C14.999,9.447,14.552,8.999,13.999,8.999z M13.999,13.5c0,0.275-0.225,0.499-0.5,0.499h-3
				c-0.277,0-0.5-0.224-0.5-0.499v-3.001c0-0.276,0.223-0.5,0.5-0.5h3c0.275,0,0.5,0.224,0.5,0.5V13.5z"/>
		</g>
	</g>
</g>
<g id="Layer_1">
</g>
</svg>
