<?xml version="1.0" encoding="iso-8859-1"?>
<!-- Generator: Adobe Illustrator 16.0.0, SVG Export Plug-In . SVG Version: 6.00 Build 0)  -->
<!DOCTYPE svg PUBLIC "-//W3C//DTD SVG 1.1//EN" "http://www.w3.org/Graphics/SVG/1.1/DTD/svg11.dtd">
<svg version="1.1" xmlns="http://www.w3.org/2000/svg" xmlns:xlink="http://www.w3.org/1999/xlink" x="0px" y="0px" width="16px"
	 height="16px" viewBox="0 0 16 16" style="enable-background:new 0 0 16 16;" xml:space="preserve">
<g id="interface-bottom-r" style="enable-background:new    ;">
	<g id="interface-bottom-r_2_">
		<g>
			<path d="M11.661,5.653L7.995,9.296L4.352,5.63C4.158,5.436,3.844,5.435,3.649,5.629C3.455,5.822,3.454,6.137,3.647,6.331
				l3.98,4.004c0.004,0.006,0.002,0.014,0.007,0.019c0.098,0.1,0.228,0.146,0.356,0.145c0.129,0.002,0.258-0.044,0.357-0.142
				c0.006-0.006,0.002-0.014,0.008-0.02l4.004-3.979c0.195-0.193,0.195-0.508,0.002-0.702S11.854,5.459,11.661,5.653z M8.024-0.001
				C3.605-0.014,0.013,3.556-0.001,7.974c-0.014,4.418,3.557,8.01,7.975,8.025c4.417,0.014,8.011-3.559,8.025-7.976
				C16.013,3.605,12.442,0.013,8.024-0.001z M7.977,14.998c-3.866-0.012-6.99-3.154-6.978-7.021c0.012-3.866,3.155-6.99,7.021-6.979
				c3.865,0.012,6.99,3.156,6.979,7.022C14.987,11.887,11.843,15.011,7.977,14.998z"/>
		</g>
	</g>
</g>
<g id="Layer_1">
</g>
</svg>
