<?xml version="1.0" encoding="iso-8859-1"?>
<!-- Generator: Adobe Illustrator 16.0.0, SVG Export Plug-In . SVG Version: 6.00 Build 0)  -->
<!DOCTYPE svg PUBLIC "-//W3C//DTD SVG 1.1//EN" "http://www.w3.org/Graphics/SVG/1.1/DTD/svg11.dtd">
<svg version="1.1" xmlns="http://www.w3.org/2000/svg" xmlns:xlink="http://www.w3.org/1999/xlink" x="0px" y="0px" width="16px"
	 height="16px" viewBox="0 0 16 16" style="enable-background:new 0 0 16 16;" xml:space="preserve">
<g id="interface-resize-normal" style="enable-background:new    ;">
	<g id="interface-resize-normal_2_">
		<g>
			<path d="M13.856,2.143c-0.195-0.194-0.51-0.194-0.703,0L9.999,5.296V2.498c0-0.275-0.225-0.499-0.5-0.499s-0.5,0.224-0.5,0.499v4
				c0,0.276,0.225,0.501,0.5,0.501h4c0.275,0,0.5-0.225,0.5-0.501c0-0.275-0.225-0.499-0.5-0.499H10.7l3.156-3.154
				C14.05,2.65,14.05,2.336,13.856,2.143z M6.499,8.999h-4c-0.276,0-0.5,0.224-0.5,0.5s0.224,0.5,0.5,0.5h2.798l-3.155,3.154
				c-0.194,0.194-0.194,0.508,0,0.702c0.194,0.193,0.508,0.193,0.702,0l3.154-3.154v2.797c0,0.276,0.224,0.501,0.5,0.501
				c0.276,0,0.5-0.225,0.5-0.501V9.499C6.999,9.223,6.775,8.999,6.499,8.999z M13.999-0.001h-12c-1.105,0-2,0.895-2,2v12
				c0,1.104,0.895,2,2,2h12c1.104,0,2-0.896,2-2v-12C15.999,0.894,15.103-0.001,13.999-0.001z M14.999,13.999c0,0.552-0.447,1-1,1
				h-12c-0.552,0-1-0.448-1-1v-12c0-0.552,0.448-1,1-1h12c0.553,0,1,0.448,1,1V13.999z"/>
		</g>
	</g>
</g>
<g id="Layer_1">
</g>
</svg>
