<?xml version="1.0" encoding="iso-8859-1"?>
<!-- Generator: Adobe Illustrator 16.0.0, SVG Export Plug-In . SVG Version: 6.00 Build 0)  -->
<!DOCTYPE svg PUBLIC "-//W3C//DTD SVG 1.1//EN" "http://www.w3.org/Graphics/SVG/1.1/DTD/svg11.dtd">
<svg version="1.1" xmlns="http://www.w3.org/2000/svg" xmlns:xlink="http://www.w3.org/1999/xlink" x="0px" y="0px" width="16px"
	 height="16px" viewBox="0 0 16 16" style="enable-background:new 0 0 16 16;" xml:space="preserve">
<g id="interface-calendar" style="enable-background:new    ;">
	<g id="interface-calendar_2_">
		<g>
			<path d="M8.999,6.999h-2v2h2V6.999z M12.499,6.999h-2v2h2V6.999z M12.499,10.999h-2v2h2V10.999z M8.999,10.999h-2v2h2V10.999z
				 M14.999,0h-1h-13c-0.276,0-0.5,0.224-0.5,0.5v15c0,0.275,0.224,0.5,0.5,0.5h14c0.275,0,0.5-0.225,0.5-0.5v-15
				C15.499,0.223,15.274,0,14.999,0z M14.499,14.999h-13V4h13V14.999z M14.499,2.999h-13v-2h13V2.999z M5.499,10.999h-2v2h2V10.999z
				 M5.499,6.999h-2v2h2V6.999z"/>
		</g>
	</g>
</g>
<g id="Layer_1">
</g>
</svg>
