<?xml version="1.0" encoding="iso-8859-1"?>
<!-- Generator: Adobe Illustrator 16.0.0, SVG Export Plug-In . SVG Version: 6.00 Build 0)  -->
<!DOCTYPE svg PUBLIC "-//W3C//DTD SVG 1.1//EN" "http://www.w3.org/Graphics/SVG/1.1/DTD/svg11.dtd">
<svg version="1.1" xmlns="http://www.w3.org/2000/svg" xmlns:xlink="http://www.w3.org/1999/xlink" x="0px" y="0px" width="16px"
	 height="16px" viewBox="0 0 16 16" style="enable-background:new 0 0 16 16;" xml:space="preserve">
<g id="interface-cross" style="enable-background:new    ;">
	<g id="interface-cross_1_">
		<g>
			<path d="M7.695,6.999l6.165-6.164c0.193-0.191,0.193-0.504,0-0.695c-0.191-0.192-0.502-0.192-0.695,0L7,6.303L0.835,0.139
				c-0.192-0.192-0.504-0.192-0.696,0c-0.192,0.191-0.192,0.504,0,0.695l6.165,6.164l-6.165,6.165c-0.192,0.192-0.192,0.504,0,0.695
				c0.192,0.192,0.504,0.192,0.696,0L7,7.694l6.165,6.164c0.193,0.192,0.504,0.192,0.695,0c0.193-0.191,0.193-0.503,0-0.695
				L7.695,6.999z"/>
		</g>
	</g>
</g>
<g id="Layer_1">
</g>
</svg>
