<?xml version="1.0" encoding="iso-8859-1"?>
<!-- Generator: Adobe Illustrator 16.0.0, SVG Export Plug-In . SVG Version: 6.00 Build 0)  -->
<!DOCTYPE svg PUBLIC "-//W3C//DTD SVG 1.1//EN" "http://www.w3.org/Graphics/SVG/1.1/DTD/svg11.dtd">
<svg version="1.1" xmlns="http://www.w3.org/2000/svg" xmlns:xlink="http://www.w3.org/1999/xlink" x="0px" y="0px" width="16px"
	 height="16px" viewBox="0 0 16 16" style="enable-background:new 0 0 16 16;" xml:space="preserve">
<g id="interface-vertical" style="enable-background:new    ;">
	<g id="interface-vertical_2_">
		<g>
			<path d="M9.666,11.142L7.5,13.309V0.689l2.167,2.167c0.189,0.19,0.5,0.19,0.689,0c0.191-0.191,0.191-0.5,0-0.69L7.404-0.787
				C7.387-0.812,7.377-0.838,7.356-0.859C7.338-0.877,7.31-0.872,7.29-0.887C7.216-0.944,7.131-0.985,7.033-0.992
				C7.023-0.993,7.015-1,7.006-0.999C7.003-0.999,7.001-1.001,7-1.001C6.997-1.001,6.995-1,6.992-1C6.985-1,6.98-0.996,6.973-0.996
				C6.855-0.989,6.75-0.943,6.668-0.869C6.66-0.863,6.649-0.866,6.642-0.859c-0.021,0.021-0.03,0.047-0.046,0.07L3.642,2.166
				c-0.19,0.19-0.19,0.499,0,0.69c0.19,0.19,0.5,0.19,0.69,0L6.5,0.689v12.619l-2.167-2.167c-0.19-0.191-0.5-0.191-0.69,0
				c-0.19,0.19-0.19,0.5,0,0.69l2.954,2.954c0.016,0.022,0.025,0.049,0.046,0.069c0.006,0.007,0.017,0.004,0.023,0.01
				c0.083,0.075,0.189,0.122,0.309,0.128c0.006,0.001,0.011,0.004,0.018,0.004c0.003,0,0.005,0.002,0.008,0.002
				c0.002,0,0.004-0.002,0.007-0.002c0.009,0,0.016-0.006,0.025-0.007c0.1-0.007,0.185-0.048,0.259-0.106
				c0.02-0.016,0.048-0.01,0.065-0.028c0.021-0.021,0.031-0.048,0.048-0.071l2.952-2.952c0.191-0.19,0.191-0.5,0-0.69
				C10.166,10.95,9.855,10.95,9.666,11.142z"/>
		</g>
	</g>
</g>
<g id="Layer_1">
</g>
</svg>
