<?xml version="1.0" encoding="iso-8859-1"?>
<!-- Generator: Adobe Illustrator 16.0.0, SVG Export Plug-In . SVG Version: 6.00 Build 0)  -->
<!DOCTYPE svg PUBLIC "-//W3C//DTD SVG 1.1//EN" "http://www.w3.org/Graphics/SVG/1.1/DTD/svg11.dtd">
<svg version="1.1" xmlns="http://www.w3.org/2000/svg" xmlns:xlink="http://www.w3.org/1999/xlink" x="0px" y="0px" width="16px"
	 height="16px" viewBox="0 0 16 16" style="enable-background:new 0 0 16 16;" xml:space="preserve">
<g id="interface-bottom-k" style="enable-background:new    ;">
	<g id="interface-bottom-k_2_">
		<g>
			<path d="M13.424,6.99h-3.417V1.996c0-1.104-0.896-2-2-2c-1.105,0-2.001,0.896-2.001,2V6.99H2.574
				c-0.542,0-0.739,0.375-0.438,0.832l5.317,7.836c0.15,0.229,0.348,0.344,0.546,0.344s0.396-0.114,0.546-0.344l5.317-7.836
				C14.163,7.365,13.966,6.99,13.424,6.99z M7.999,14.688L3.43,7.991h3.577V1.996c0-0.553,0.448-1,1-1c0.552,0,1,0.447,1,1v5.995
				h3.562L7.999,14.688z"/>
		</g>
	</g>
</g>
<g id="Layer_1">
</g>
</svg>
