<?xml version="1.0" encoding="iso-8859-1"?>
<!-- Generator: Adobe Illustrator 16.0.0, SVG Export Plug-In . SVG Version: 6.00 Build 0)  -->
<!DOCTYPE svg PUBLIC "-//W3C//DTD SVG 1.1//EN" "http://www.w3.org/Graphics/SVG/1.1/DTD/svg11.dtd">
<svg version="1.1" xmlns="http://www.w3.org/2000/svg" xmlns:xlink="http://www.w3.org/1999/xlink" x="0px" y="0px" width="16px"
	 height="16px" viewBox="0 0 16 16" style="enable-background:new 0 0 16 16;" xml:space="preserve">
<g id="interface-target" style="enable-background:new    ;">
	<g id="interface-target_1_">
		<g>
			<path d="M7.999,0.499c-4.142,0-7.5,3.358-7.5,7.499c0,4.143,3.358,7.501,7.5,7.501c4.143,0,7.5-3.358,7.5-7.501
				C15.499,3.857,12.142,0.499,7.999,0.499z M8.499,14.448v-3.449c0-0.276-0.225-0.5-0.5-0.5c-0.276,0-0.5,0.224-0.5,0.5v3.449
				c-3.184-0.246-5.705-2.769-5.952-5.949h3.452c0.276,0,0.5-0.224,0.5-0.501c0-0.275-0.224-0.5-0.5-0.5H1.547
				c0.248-3.181,2.768-5.702,5.952-5.949v3.449c0,0.276,0.224,0.501,0.5,0.501c0.275,0,0.5-0.225,0.5-0.501V1.549
				c3.184,0.247,5.705,2.769,5.951,5.949h-3.451c-0.277,0-0.5,0.225-0.5,0.5c0,0.277,0.223,0.501,0.5,0.501h3.451
				C14.204,11.68,11.683,14.202,8.499,14.448z"/>
		</g>
	</g>
</g>
<g id="Layer_1">
</g>
</svg>
