<?xml version="1.0" encoding="iso-8859-1"?>
<!-- Generator: Adobe Illustrator 16.0.0, SVG Export Plug-In . SVG Version: 6.00 Build 0)  -->
<!DOCTYPE svg PUBLIC "-//W3C//DTD SVG 1.1//EN" "http://www.w3.org/Graphics/SVG/1.1/DTD/svg11.dtd">
<svg version="1.1" xmlns="http://www.w3.org/2000/svg" xmlns:xlink="http://www.w3.org/1999/xlink" x="0px" y="0px" width="16px"
	 height="16px" viewBox="0 0 16 16" style="enable-background:new 0 0 16 16;" xml:space="preserve">
<g id="interface-alt-tick" style="enable-background:new    ;">
	<g id="interface-alt-tick_2_">
		<g>
			<path d="M15.338,4.092l-2.506-2.438c-0.198-0.192-0.519-0.192-0.716,0L5.301,8.758L3.523,7.028c-0.198-0.191-0.519-0.191-0.716,0
				L0.659,9.119c-0.198,0.192-0.198,0.505,0,0.696l4.654,4.529c0.198,0.192,0.519,0.192,0.716,0l9.309-9.557
				C15.536,4.597,15.536,4.284,15.338,4.092z M5.662,13.29L1.732,9.468l1.433-1.394l1.79,1.741c0.198,0.193,0.519,0.193,0.716,0
				l6.815-7.105l1.787,1.739L5.662,13.29z"/>
		</g>
	</g>
</g>
<g id="Layer_1">
</g>
</svg>
