<?xml version="1.0" encoding="iso-8859-1"?>
<!-- Generator: Adobe Illustrator 16.0.0, SVG Export Plug-In . SVG Version: 6.00 Build 0)  -->
<!DOCTYPE svg PUBLIC "-//W3C//DTD SVG 1.1//EN" "http://www.w3.org/Graphics/SVG/1.1/DTD/svg11.dtd">
<svg version="1.1" xmlns="http://www.w3.org/2000/svg" xmlns:xlink="http://www.w3.org/1999/xlink" x="0px" y="0px" width="16px"
	 height="16px" viewBox="0 0 16 16" style="enable-background:new 0 0 16 16;" xml:space="preserve">
<g id="interface-alt-cross" style="enable-background:new    ;">
	<g id="interface-alt-cross_1_">
		<g>
			<path d="M10.823,8l3.885-3.886c0.391-0.39,0.391-1.021,0-1.412L13.296,1.29c-0.391-0.392-1.021-0.392-1.412,0L7.999,5.175
				L4.114,1.29c-0.39-0.392-1.022-0.392-1.413,0L1.289,2.702c-0.39,0.391-0.39,1.022,0,1.412L5.174,8l-3.885,3.884
				c-0.39,0.391-0.39,1.022,0,1.413l1.413,1.413c0.39,0.39,1.022,0.39,1.413,0l3.885-3.885l3.885,3.885
				c0.391,0.39,1.021,0.39,1.412,0l1.412-1.413c0.391-0.391,0.391-1.022,0-1.413L10.823,8z M13.649,12.943l-0.707,0.707
				c-0.193,0.194-0.51,0.194-0.705,0L7.999,9.412L3.761,13.65c-0.195,0.194-0.512,0.194-0.707,0l-0.707-0.707
				c-0.195-0.194-0.195-0.511,0-0.706L6.586,8L2.348,3.762c-0.195-0.195-0.195-0.512,0-0.706l0.707-0.707
				c0.195-0.194,0.511-0.194,0.707,0l4.238,4.238l4.238-4.238c0.195-0.194,0.512-0.194,0.705,0l0.707,0.707
				c0.195,0.194,0.195,0.511,0,0.706L9.411,8l4.238,4.237C13.845,12.433,13.845,12.749,13.649,12.943z"/>
		</g>
	</g>
</g>
<g id="Layer_1">
</g>
</svg>
