<?xml version="1.0" encoding="iso-8859-1"?>
<!-- Generator: Adobe Illustrator 16.0.0, SVG Export Plug-In . SVG Version: 6.00 Build 0)  -->
<!DOCTYPE svg PUBLIC "-//W3C//DTD SVG 1.1//EN" "http://www.w3.org/Graphics/SVG/1.1/DTD/svg11.dtd">
<svg version="1.1" xmlns="http://www.w3.org/2000/svg" xmlns:xlink="http://www.w3.org/1999/xlink" x="0px" y="0px" width="16px"
	 height="16px" viewBox="0 0 16 16" style="enable-background:new 0 0 16 16;" xml:space="preserve">
<g id="interface-undo" style="enable-background:new    ;">
	<g id="interface-undo_1_">
		<g>
			<path d="M8.003-0.001c-3.023,0-5.639,1.687-6.999,4.161V0.501c0-0.276-0.225-0.5-0.501-0.5s-0.5,0.224-0.5,0.5v4.957
				c-0.001,0.014-0.008,0.025-0.008,0.04c0,0.024,0.016,0.042,0.02,0.065c0.007,0.062,0.023,0.119,0.051,0.172
				c0.011,0.019,0.022,0.035,0.036,0.053C0.148,5.854,0.206,5.91,0.278,5.947c-0.004,0.017-0.006,0.035-0.01,0.052h1.06h1.675H5.5
				c0.276,0,0.5-0.224,0.5-0.5S5.777,4.998,5.5,4.998H1.703c1.126-2.357,3.513-3.999,6.3-3.999c3.865,0,7,3.134,7,7
				c0,3.868-3.135,7-7,7c-2.376,0-4.468-1.189-5.734-3H1.082c1.384,2.389,3.961,4,6.921,4c4.418,0,8-3.582,8-8
				C16.003,3.581,12.421-0.001,8.003-0.001z M8.503,2.999c-0.275,0-0.5,0.225-0.5,0.5v5c0,0.275,0.225,0.5,0.5,0.5h4
				c0.275,0,0.5-0.225,0.5-0.5c0-0.277-0.225-0.5-0.5-0.5h-3.5v-4.5C9.003,3.223,8.778,2.999,8.503,2.999z"/>
		</g>
	</g>
</g>
<g id="Layer_1">
</g>
</svg>
