<?xml version="1.0" encoding="iso-8859-1"?>
<!-- Generator: Adobe Illustrator 16.0.0, SVG Export Plug-In . SVG Version: 6.00 Build 0)  -->
<!DOCTYPE svg PUBLIC "-//W3C//DTD SVG 1.1//EN" "http://www.w3.org/Graphics/SVG/1.1/DTD/svg11.dtd">
<svg version="1.1" xmlns="http://www.w3.org/2000/svg" xmlns:xlink="http://www.w3.org/1999/xlink" x="0px" y="0px" width="16px"
	 height="16px" viewBox="0 0 16 16" style="enable-background:new 0 0 16 16;" xml:space="preserve">
<g id="interface-right" style="enable-background:new    ;">
	<g id="interface-right_1_">
		<g>
			<path d="M10.357,6.642c-0.021-0.021-0.055-0.017-0.08-0.033l-5.96-5.466c-0.186-0.186-0.487-0.186-0.673,0s-0.186,0.487,0,0.673
				l5.651,5.184l-5.65,5.183c-0.186,0.187-0.186,0.488,0,0.674c0.186,0.187,0.488,0.187,0.673,0l5.961-5.468
				c0.023-0.017,0.057-0.011,0.078-0.032c0.098-0.098,0.141-0.227,0.137-0.354C10.5,6.871,10.457,6.741,10.357,6.642z"/>
		</g>
	</g>
</g>
<g id="Layer_1">
</g>
</svg>
