<?xml version="1.0" encoding="iso-8859-1"?>
<!-- Generator: Adobe Illustrator 16.0.0, SVG Export Plug-In . SVG Version: 6.00 Build 0)  -->
<!DOCTYPE svg PUBLIC "-//W3C//DTD SVG 1.1//EN" "http://www.w3.org/Graphics/SVG/1.1/DTD/svg11.dtd">
<svg version="1.1" xmlns="http://www.w3.org/2000/svg" xmlns:xlink="http://www.w3.org/1999/xlink" x="0px" y="0px" width="16px"
	 height="16px" viewBox="0 0 16 16" style="enable-background:new 0 0 16 16;" xml:space="preserve">
<g id="interface-clock-a" style="enable-background:new    ;">
	<g id="interface-clock-a_1_">
		<g>
			<path d="M4.816,4.11c-0.195-0.194-0.512-0.194-0.707,0c-0.195,0.196-0.195,0.512,0,0.708l0.707,0.707
				c0.195,0.194,0.512,0.194,0.707,0c0.195-0.196,0.195-0.513,0-0.707L4.816,4.11z M11.181,5.524l0.707-0.707
				c0.195-0.195,0.195-0.512,0-0.707s-0.512-0.195-0.707,0l-0.707,0.708c-0.195,0.194-0.195,0.511,0,0.707
				C10.669,5.719,10.985,5.719,11.181,5.524z M4.816,10.474l-0.707,0.707c-0.195,0.195-0.195,0.512,0,0.707s0.512,0.195,0.707,0
				l0.707-0.707c0.195-0.195,0.195-0.512,0-0.707S5.012,10.278,4.816,10.474z M4.499,7.999c0-0.276-0.224-0.5-0.5-0.5h-1
				c-0.276,0-0.5,0.224-0.5,0.5c0,0.276,0.224,0.5,0.5,0.5h1C4.275,8.499,4.499,8.274,4.499,7.999z M7.999,2.499
				c-0.276,0-0.5,0.225-0.5,0.501v0.999c0,0.276,0.224,0.501,0.5,0.501c0.275,0,0.5-0.225,0.5-0.501V3
				C8.499,2.723,8.274,2.499,7.999,2.499z M12.999,7.499h-1c-0.275,0-0.5,0.224-0.5,0.5c0,0.276,0.225,0.5,0.5,0.5h1
				c0.275,0,0.5-0.225,0.5-0.5C13.499,7.722,13.274,7.499,12.999,7.499z M7.999,11.499c-0.276,0-0.5,0.225-0.5,0.5v1
				c0,0.275,0.224,0.5,0.5,0.5c0.275,0,0.5-0.225,0.5-0.5v-1C8.499,11.724,8.274,11.499,7.999,11.499z M7.999,0.5
				c-4.142,0-7.5,3.357-7.5,7.499c0,4.143,3.358,7.5,7.5,7.5c4.143,0,7.5-3.357,7.5-7.5C15.499,3.857,12.142,0.5,7.999,0.5z
				 M7.999,14.499c-3.59,0-6.5-2.91-6.5-6.5c0-3.589,2.91-6.5,6.5-6.5s6.5,2.911,6.5,6.5C14.499,11.589,11.589,14.499,7.999,14.499z
				 M11.181,10.474c-0.195-0.195-0.512-0.195-0.707,0s-0.195,0.512,0,0.707l0.707,0.707c0.195,0.195,0.512,0.195,0.707,0
				s0.195-0.512,0-0.707L11.181,10.474z"/>
		</g>
	</g>
</g>
<g id="Layer_1">
</g>
</svg>
