<?xml version="1.0" encoding="iso-8859-1"?>
<!-- Generator: Adobe Illustrator 16.0.0, SVG Export Plug-In . SVG Version: 6.00 Build 0)  -->
<!DOCTYPE svg PUBLIC "-//W3C//DTD SVG 1.1//EN" "http://www.w3.org/Graphics/SVG/1.1/DTD/svg11.dtd">
<svg version="1.1" xmlns="http://www.w3.org/2000/svg" xmlns:xlink="http://www.w3.org/1999/xlink" x="0px" y="0px" width="16px"
	 height="16px" viewBox="0 0 16 16" style="enable-background:new 0 0 16 16;" xml:space="preserve">
<g id="interface-box-minus" style="enable-background:new    ;">
	<g id="interface-box-minus_1_">
		<g>
			<path d="M10.976,7.495H5.022C4.734,7.495,4.501,7.721,4.501,8c0,0.277,0.233,0.503,0.521,0.503h5.954
				c0.287,0,0.521-0.226,0.521-0.503C11.497,7.721,11.263,7.495,10.976,7.495z M13.499,0.499h-11c-1.104,0-2,0.896-2,2.001v10.999
				c0,1.104,0.896,2,2,2h11c1.104,0,2-0.896,2-2V2.5C15.499,1.395,14.603,0.499,13.499,0.499z M14.499,13.499c0,0.553-0.447,1-1,1
				h-11c-0.552,0-1-0.447-1-1V2.5c0-0.553,0.448-1,1-1h11c0.553,0,1,0.447,1,1V13.499z"/>
		</g>
	</g>
</g>
<g id="Layer_1">
</g>
</svg>
