<?xml version="1.0" encoding="iso-8859-1"?>
<!-- Generator: Adobe Illustrator 16.0.0, SVG Export Plug-In . SVG Version: 6.00 Build 0)  -->
<!DOCTYPE svg PUBLIC "-//W3C//DTD SVG 1.1//EN" "http://www.w3.org/Graphics/SVG/1.1/DTD/svg11.dtd">
<svg version="1.1" xmlns="http://www.w3.org/2000/svg" xmlns:xlink="http://www.w3.org/1999/xlink" x="0px" y="0px" width="16px"
	 height="16px" viewBox="0 0 16 16" style="enable-background:new 0 0 16 16;" xml:space="preserve">
<g id="interface-expand" style="enable-background:new    ;">
	<g id="interface-expand_1_">
		<g>
			<path d="M14.979,14.415V9.481c0-0.268-0.215-0.484-0.482-0.484s-0.482,0.217-0.482,0.484v3.832L7.699,6.999l6.315-6.313v3.831
				C14.014,4.784,14.229,5,14.496,5s0.482-0.217,0.482-0.483v-4.931c0.004-0.021,0.01-0.042,0.014-0.063
				c0.002-0.037-0.008-0.066-0.014-0.103c-0.014-0.068-0.037-0.13-0.076-0.186c-0.02-0.03-0.014-0.07-0.041-0.098
				c-0.027-0.026-0.066-0.021-0.098-0.04c-0.055-0.039-0.117-0.063-0.186-0.076c-0.035-0.006-0.064-0.017-0.102-0.014
				c-0.021,0.003-0.041,0.009-0.063,0.013H9.482c-0.268,0-0.485,0.216-0.485,0.483c0,0.267,0.217,0.482,0.485,0.482h3.83
				L6.999,6.299L0.686-0.014h3.832C4.784-0.014,5-0.23,5-0.497C5-0.764,4.784-0.98,4.518-0.98h-4.936
				c-0.026-0.005-0.05-0.017-0.079-0.017c-0.136,0-0.258,0.058-0.346,0.148c-0.001,0.001-0.002,0-0.003,0.001
				s-0.001,0.003-0.001,0.004c-0.091,0.088-0.148,0.21-0.148,0.347c0,0.029,0.012,0.055,0.017,0.083v4.931
				C-0.98,4.784-0.764,5-0.497,5c0.267,0,0.483-0.217,0.483-0.483V0.685l6.313,6.313l-6.313,6.313v-3.83
				c0-0.268-0.216-0.484-0.483-0.484c-0.267,0-0.483,0.217-0.483,0.484v4.932c-0.005,0.027-0.017,0.053-0.017,0.082
				c0,0.135,0.058,0.256,0.147,0.344c0.001,0.002,0.001,0.004,0.002,0.006c0.002,0.002,0.005,0.002,0.007,0.002
				c0.087,0.09,0.208,0.148,0.343,0.148c0.029,0,0.054-0.012,0.082-0.016h4.933C4.784,14.979,5,14.763,5,14.495
				c0-0.266-0.216-0.482-0.483-0.482H0.686L7,7.698l6.313,6.314h-3.83c-0.268,0-0.485,0.217-0.485,0.482
				c0,0.268,0.217,0.484,0.485,0.484h4.932c0.027,0.004,0.053,0.016,0.082,0.016c0.137,0,0.258-0.057,0.346-0.148
				c0.002,0,0.004,0,0.004-0.002c0.002,0,0-0.002,0.002-0.002c0.09-0.088,0.148-0.211,0.148-0.348
				C14.996,14.468,14.984,14.442,14.979,14.415z"/>
		</g>
	</g>
</g>
<g id="Layer_1">
</g>
</svg>
