<?xml version="1.0" encoding="iso-8859-1"?>
<!-- Generator: Adobe Illustrator 16.0.0, SVG Export Plug-In . SVG Version: 6.00 Build 0)  -->
<!DOCTYPE svg PUBLIC "-//W3C//DTD SVG 1.1//EN" "http://www.w3.org/Graphics/SVG/1.1/DTD/svg11.dtd">
<svg version="1.1" xmlns="http://www.w3.org/2000/svg" xmlns:xlink="http://www.w3.org/1999/xlink" x="0px" y="0px" width="16px"
	 height="16px" viewBox="0 0 16 16" style="enable-background:new 0 0 16 16;" xml:space="preserve">
<g id="interface-box-cross" style="enable-background:new    ;">
	<g id="interface-box-cross_2_">
		<g>
			<path d="M13.499,0.499h-11c-1.105,0-2,0.896-2,2.001v10.999c0,1.105,0.895,2,2,2h11c1.104,0,2-0.895,2-2V2.5
				C15.499,1.395,14.603,0.499,13.499,0.499z M14.499,13.499c0,0.553-0.447,1-1,1h-11c-0.552,0-1-0.447-1-1V2.5
				c0-0.553,0.448-1.001,1-1.001h11c0.553,0,1,0.448,1,1.001V13.499z M11.356,4.643c-0.191-0.19-0.5-0.19-0.691,0L7.999,7.31
				L5.332,4.643c-0.191-0.19-0.5-0.19-0.69,0c-0.191,0.189-0.191,0.5,0,0.689L7.309,8l-2.667,2.667
				c-0.191,0.189-0.191,0.499,0,0.689c0.19,0.191,0.5,0.191,0.69,0l2.667-2.667l2.667,2.667c0.191,0.191,0.5,0.191,0.691,0
				c0.189-0.19,0.189-0.5,0-0.689L8.688,8l2.668-2.668C11.546,5.143,11.546,4.832,11.356,4.643z"/>
		</g>
	</g>
</g>
<g id="Layer_1">
</g>
</svg>
