<?xml version="1.0" encoding="iso-8859-1"?>
<!-- Generator: Adobe Illustrator 16.0.0, SVG Export Plug-In . SVG Version: 6.00 Build 0)  -->
<!DOCTYPE svg PUBLIC "-//W3C//DTD SVG 1.1//EN" "http://www.w3.org/Graphics/SVG/1.1/DTD/svg11.dtd">
<svg version="1.1" xmlns="http://www.w3.org/2000/svg" xmlns:xlink="http://www.w3.org/1999/xlink" x="0px" y="0px" width="16px"
	 height="16px" viewBox="0 0 16 16" style="enable-background:new 0 0 16 16;" xml:space="preserve">
<g id="interface-horizontal" style="enable-background:new    ;">
	<g id="interface-horizontal_1_">
		<g>
			<path d="M14.982,6.991c0-0.006-0.004-0.012-0.004-0.018c-0.006-0.118-0.053-0.225-0.127-0.307
				c-0.006-0.007-0.004-0.018-0.01-0.024c-0.02-0.02-0.047-0.029-0.07-0.045l-2.947-2.941c-0.191-0.189-0.5-0.189-0.689,0
				c-0.191,0.189-0.191,0.498,0,0.688l2.162,2.157H0.703l2.162-2.157c0.19-0.189,0.19-0.498,0-0.688s-0.499-0.189-0.689,0
				l-2.949,2.941c-0.023,0.016-0.049,0.025-0.07,0.045c-0.006,0.007-0.003,0.018-0.01,0.024C-0.927,6.749-0.974,6.855-0.98,6.974
				c0,0.007-0.003,0.012-0.003,0.018c0,0.003-0.001,0.005-0.001,0.008c0,0.002,0.001,0.004,0.001,0.007
				c0,0.009,0.006,0.016,0.006,0.024c0.007,0.1,0.048,0.185,0.107,0.258c0.015,0.021,0.009,0.048,0.027,0.066
				c0.021,0.021,0.048,0.031,0.072,0.048l2.946,2.939c0.19,0.189,0.499,0.189,0.689,0c0.19-0.19,0.19-0.498,0-0.688L0.702,7.496
				h12.595l-2.162,2.157c-0.191,0.19-0.191,0.498,0,0.688c0.189,0.189,0.498,0.189,0.689,0l2.945-2.939
				c0.023-0.017,0.051-0.026,0.072-0.048c0.018-0.019,0.014-0.046,0.027-0.066c0.059-0.073,0.1-0.158,0.107-0.257
				c0-0.009,0.006-0.017,0.006-0.025c0-0.003,0.002-0.005,0.002-0.007C14.984,6.996,14.982,6.994,14.982,6.991z"/>
		</g>
	</g>
</g>
<g id="Layer_1">
</g>
</svg>
