<?xml version="1.0" encoding="iso-8859-1"?>
<!-- Generator: Adobe Illustrator 16.0.0, SVG Export Plug-In . SVG Version: 6.00 Build 0)  -->
<!DOCTYPE svg PUBLIC "-//W3C//DTD SVG 1.1//EN" "http://www.w3.org/Graphics/SVG/1.1/DTD/svg11.dtd">
<svg version="1.1" xmlns="http://www.w3.org/2000/svg" xmlns:xlink="http://www.w3.org/1999/xlink" x="0px" y="0px" width="16px"
	 height="16px" viewBox="0 0 16 16" style="enable-background:new 0 0 16 16;" xml:space="preserve">
<g id="interface-alt-widescreen" style="enable-background:new    ;">
	<g id="interface-alt-widescreen_2_">
		<g>
			<path d="M4.499,10.999c-0.276,0-0.5-0.223-0.5-0.499V10V9h-4v1v2c0,1.656,1.343,2.999,3,2.999h3h1v-4h-1H4.499z M5.999,13.999h-3
				c-1.104,0-2-0.895-2-1.999v-2h2v0.999c0,0.554,0.447,1.001,1,1.001h2V13.999z M12.999,0.999h-3h-1V5h1h1.5
				c0.275,0,0.5,0.224,0.5,0.5V6v1h4V6V3.999C15.999,2.343,14.655,0.999,12.999,0.999z M14.999,6h-2V5c0-0.553-0.447-1.001-1-1.001
				h-2V2h3c1.104,0,2,0.896,2,1.999V6z M2.999,0.999c-1.657,0-3,1.344-3,3V6v1h4V6V5.5c0-0.276,0.224-0.5,0.5-0.5h1.5h1V0.999h-1
				H2.999z M5.999,3.999h-2c-0.553,0-1,0.448-1,1.001v1h-2V3.999c0-1.104,0.896-1.999,2-1.999h3V3.999z M11.999,10v0.5
				c0,0.276-0.225,0.499-0.5,0.499h-1.5h-1v4h1h3c1.656,0,3-1.343,3-2.999v-2V9h-4V10z M12.999,10.999V10h2v2
				c0,1.104-0.896,1.999-2,1.999h-3V12h2C12.552,12,12.999,11.553,12.999,10.999z"/>
		</g>
	</g>
</g>
<g id="Layer_1">
</g>
</svg>
