<?xml version="1.0" encoding="iso-8859-1"?>
<!-- Generator: Adobe Illustrator 16.0.0, SVG Export Plug-In . SVG Version: 6.00 Build 0)  -->
<!DOCTYPE svg PUBLIC "-//W3C//DTD SVG 1.1//EN" "http://www.w3.org/Graphics/SVG/1.1/DTD/svg11.dtd">
<svg version="1.1" xmlns="http://www.w3.org/2000/svg" xmlns:xlink="http://www.w3.org/1999/xlink" x="0px" y="0px" width="16px"
	 height="16px" viewBox="0 0 16 16" style="enable-background:new 0 0 16 16;" xml:space="preserve">
<g id="interface-arrow-left" style="enable-background:new    ;">
	<g id="interface-arrow-left_1_">
		<g>
			<path d="M13.496,6.5H1.773l4.582-4.155c0.191-0.189,0.191-0.498,0-0.688c-0.19-0.189-0.5-0.189-0.69,0L0.189,6.623
				C0.174,6.634,0.154,6.629,0.14,6.643C0.042,6.742-0.001,6.87,0.002,7c-0.003,0.128,0.04,0.257,0.138,0.355
				c0.013,0.014,0.034,0.009,0.048,0.021l5.476,4.966c0.191,0.189,0.5,0.189,0.69,0c0.191-0.191,0.191-0.499,0-0.688L1.773,7.498
				h11.723c0.277,0,0.5-0.224,0.5-0.498C13.996,6.724,13.773,6.5,13.496,6.5z"/>
		</g>
	</g>
</g>
<g id="Layer_1">
</g>
</svg>
