<?xml version="1.0" encoding="iso-8859-1"?>
<!-- Generator: Adobe Illustrator 16.0.0, SVG Export Plug-In . SVG Version: 6.00 Build 0)  -->
<!DOCTYPE svg PUBLIC "-//W3C//DTD SVG 1.1//EN" "http://www.w3.org/Graphics/SVG/1.1/DTD/svg11.dtd">
<svg version="1.1" xmlns="http://www.w3.org/2000/svg" xmlns:xlink="http://www.w3.org/1999/xlink" x="0px" y="0px" width="16px"
	 height="16px" viewBox="0 0 16 16" style="enable-background:new 0 0 16 16;" xml:space="preserve">
<g id="interface-bulleye" style="enable-background:new    ;">
	<g id="interface-bulleye_2_">
		<g>
			<path d="M7.999,6c-1.105,0-2,0.895-2,2c0,1.104,0.895,2,2,2c1.104,0,2-0.896,2-2C9.999,6.894,9.103,6,7.999,6z M7.999,8.999
				c-0.553,0-1-0.447-1-1c0-0.552,0.447-1,1-1s1,0.447,1,1C8.999,8.552,8.552,8.999,7.999,8.999z M7.999,2.999c-2.762,0-5,2.238-5,5
				c0,2.762,2.238,5,5,5s5-2.238,5-5C12.999,5.237,10.761,2.999,7.999,2.999z M7.999,11.999c-2.209,0-4-1.791-4-4
				c0-2.209,1.791-4,4-4c2.209,0,4,1.791,4,4C11.999,10.208,10.208,11.999,7.999,11.999z M7.999-0.001c-4.418,0-8,3.582-8,8
				c0,4.418,3.582,8,8,8c4.418,0,8-3.582,8-8C15.999,3.581,12.417-0.001,7.999-0.001z M7.999,14.999c-3.866,0-7-3.135-7-7
				c0-3.866,3.134-7,7-7c3.865,0,7,3.135,7,7C14.999,11.864,11.864,14.999,7.999,14.999z"/>
		</g>
	</g>
</g>
<g id="Layer_1">
</g>
</svg>
