<?xml version="1.0" encoding="iso-8859-1"?>
<!-- Generator: Adobe Illustrator 16.0.0, SVG Export Plug-In . SVG Version: 6.00 Build 0)  -->
<!DOCTYPE svg PUBLIC "-//W3C//DTD SVG 1.1//EN" "http://www.w3.org/Graphics/SVG/1.1/DTD/svg11.dtd">
<svg version="1.1" xmlns="http://www.w3.org/2000/svg" xmlns:xlink="http://www.w3.org/1999/xlink" x="0px" y="0px" width="16px"
	 height="16px" viewBox="0 0 16 16" style="enable-background:new 0 0 16 16;" xml:space="preserve">
<g id="interface-arrow-top-circle" style="enable-background:new    ;">
	<g id="interface-arrow-top-circle_2_">
		<g>
			<path d="M7.999,0.499c-4.142,0-7.5,3.357-7.5,7.5s3.358,7.5,7.5,7.5s7.5-3.357,7.5-7.5S12.141,0.499,7.999,0.499z M7.999,14.499
				c-3.589,0-6.5-2.91-6.5-6.5s2.911-6.5,6.5-6.5c3.59,0,6.5,2.91,6.5,6.5S11.589,14.499,7.999,14.499z M8.374,3.177
				C8.37,3.173,8.367,3.166,8.363,3.162C8.36,3.155,8.36,3.148,8.355,3.143C8.351,3.138,8.343,3.141,8.337,3.136
				C8.248,3.053,8.13,2.999,7.999,2.999S7.75,3.053,7.66,3.136C7.655,3.141,7.647,3.138,7.642,3.143
				c-0.005,0.005-0.005,0.013-0.008,0.02c-0.004,0.004-0.006,0.01-0.01,0.014L4.642,6.653c-0.194,0.194-0.194,0.509,0,0.703
				c0.194,0.193,0.508,0.193,0.702,0l2.154-2.513v8.155c0,0.276,0.224,0.5,0.5,0.5s0.5-0.224,0.5-0.5V4.844l2.154,2.513
				c0.194,0.193,0.508,0.193,0.702,0c0.193-0.194,0.193-0.509,0-0.703L8.374,3.177z"/>
		</g>
	</g>
</g>
<g id="Layer_1">
</g>
</svg>
