<?xml version="1.0" encoding="iso-8859-1"?>
<!-- Generator: Adobe Illustrator 16.0.0, SVG Export Plug-In . SVG Version: 6.00 Build 0)  -->
<!DOCTYPE svg PUBLIC "-//W3C//DTD SVG 1.1//EN" "http://www.w3.org/Graphics/SVG/1.1/DTD/svg11.dtd">
<svg version="1.1" xmlns="http://www.w3.org/2000/svg" xmlns:xlink="http://www.w3.org/1999/xlink" x="0px" y="0px" width="16px"
	 height="16px" viewBox="0 0 16 16" style="enable-background:new 0 0 16 16;" xml:space="preserve">
<g id="interface-arrow-bottom" style="enable-background:new    ;">
	<g id="interface-arrow-bottom_2_">
		<g>
			<path d="M12.342,7.641c-0.191-0.19-0.5-0.19-0.689,0l-4.155,4.571V0.514c0-0.275-0.223-0.499-0.498-0.499
				S6.501,0.238,6.501,0.514v11.698L2.346,7.641c-0.19-0.19-0.499-0.19-0.688,0s-0.19,0.499,0,0.689l4.941,5.437
				c0.006,0.008,0.016,0.012,0.021,0.02c0.013,0.017,0.008,0.04,0.023,0.056c0.019,0.019,0.048,0.013,0.069,0.028
				c0.072,0.057,0.154,0.096,0.25,0.104c0.011,0.001,0.02,0.009,0.031,0.008c0.002,0,0.004,0.002,0.006,0.002
				c0.002,0,0.004-0.001,0.007-0.001c0.007,0,0.012-0.004,0.019-0.004c0.118-0.007,0.224-0.053,0.306-0.126
				c0.007-0.007,0.018-0.004,0.024-0.011s0.005-0.018,0.011-0.025c0.006-0.006,0.005-0.017,0.01-0.023l4.966-5.463
				C12.531,8.14,12.531,7.831,12.342,7.641z"/>
		</g>
	</g>
</g>
<g id="Layer_1">
</g>
</svg>
