<?xml version="1.0" encoding="iso-8859-1"?>
<!-- Generator: Adobe Illustrator 16.0.0, SVG Export Plug-In . SVG Version: 6.00 Build 0)  -->
<!DOCTYPE svg PUBLIC "-//W3C//DTD SVG 1.1//EN" "http://www.w3.org/Graphics/SVG/1.1/DTD/svg11.dtd">
<svg version="1.1" xmlns="http://www.w3.org/2000/svg" xmlns:xlink="http://www.w3.org/1999/xlink" x="0px" y="0px" width="16px"
	 height="16px" viewBox="0 0 16 16" style="enable-background:new 0 0 16 16;" xml:space="preserve">
<g id="interface-home" style="enable-background:new    ;">
	<g id="interface-home_1_">
		<g>
			<path d="M7.999-0.001l-8,9h3v7h4v-0.5v-0.5v-2.5c0-0.277,0.224-0.5,0.5-0.5h1c0.275,0,0.5,0.223,0.5,0.5v2.5v0.5v0.5h4v-7h3
				L7.999-0.001z M11.999,7.999v7h-2v-3c0-0.553-0.447-1-1-1h-2c-0.552,0-1,0.447-1,1v3h-2v-7h-2l6-6.5l6,6.5H11.999z"/>
		</g>
	</g>
</g>
<g id="Layer_1">
</g>
</svg>
