<?xml version="1.0" encoding="iso-8859-1"?>
<!-- Generator: Adobe Illustrator 16.0.0, SVG Export Plug-In . SVG Version: 6.00 Build 0)  -->
<!DOCTYPE svg PUBLIC "-//W3C//DTD SVG 1.1//EN" "http://www.w3.org/Graphics/SVG/1.1/DTD/svg11.dtd">
<svg version="1.1" xmlns="http://www.w3.org/2000/svg" xmlns:xlink="http://www.w3.org/1999/xlink" x="0px" y="0px" width="16px"
	 height="16px" viewBox="0 0 16 16" style="enable-background:new 0 0 16 16;" xml:space="preserve">
<g id="interface-hamburger" style="enable-background:new    ;">
	<g id="interface-hamburger_1_">
		<g>
			<path d="M3.499,4.499h9c0.275,0,0.5-0.224,0.5-0.499c0-0.277-0.225-0.501-0.5-0.501h-9c-0.276,0-0.5,0.224-0.5,0.501
				C2.999,4.275,3.223,4.499,3.499,4.499z M12.499,11.499h-9c-0.276,0-0.5,0.223-0.5,0.5c0,0.275,0.224,0.5,0.5,0.5h9
				c0.275,0,0.5-0.225,0.5-0.5C12.999,11.722,12.774,11.499,12.499,11.499z M12.499,7.499h-9c-0.276,0-0.5,0.225-0.5,0.5
				c0,0.275,0.224,0.5,0.5,0.5h9c0.275,0,0.5-0.225,0.5-0.5C12.999,7.723,12.774,7.499,12.499,7.499z"/>
		</g>
	</g>
</g>
<g id="Layer_1">
</g>
</svg>
