<?xml version="1.0" encoding="iso-8859-1"?>
<!-- Generator: Adobe Illustrator 16.0.0, SVG Export Plug-In . SVG Version: 6.00 Build 0)  -->
<!DOCTYPE svg PUBLIC "-//W3C//DTD SVG 1.1//EN" "http://www.w3.org/Graphics/SVG/1.1/DTD/svg11.dtd">
<svg version="1.1" xmlns="http://www.w3.org/2000/svg" xmlns:xlink="http://www.w3.org/1999/xlink" x="0px" y="0px" width="16px"
	 height="16px" viewBox="0 0 16 16" style="enable-background:new 0 0 16 16;" xml:space="preserve">
<g id="interface-resize-full-a" style="enable-background:new    ;">
	<g id="interface-resize-full-a_1_">
		<g>
			<path d="M6.653,8.642l-3.654,3.655V9.499c0-0.276-0.224-0.5-0.5-0.5c-0.276,0-0.5,0.224-0.5,0.5v4
				c0,0.007,0.004,0.013,0.004,0.021c0.005,0.122,0.053,0.231,0.131,0.314c0.005,0.007,0.003,0.016,0.008,0.021
				c0.006,0.006,0.015,0.003,0.021,0.009c0.084,0.076,0.193,0.124,0.314,0.13c0.008,0,0.014,0.005,0.022,0.005h4
				c0.276,0,0.5-0.225,0.5-0.5c0-0.276-0.224-0.5-0.5-0.5H3.701l3.654-3.655c0.194-0.193,0.194-0.508,0-0.702
				C7.162,8.448,6.847,8.448,6.653,8.642z M13.999-0.001h-12c-1.104,0-2,0.895-2,2v12c0,1.104,0.896,2,2,2h12c1.104,0,2-0.896,2-2
				v-12C15.999,0.894,15.103-0.001,13.999-0.001z M14.999,13.999c0,0.552-0.447,1-1,1h-12c-0.553,0-1-0.448-1-1v-12
				c0-0.552,0.447-1,1-1h12c0.553,0,1,0.448,1,1V13.999z M13.864,2.162c-0.006-0.006-0.004-0.015-0.008-0.02
				c-0.006-0.006-0.014-0.004-0.02-0.009c-0.084-0.078-0.195-0.126-0.318-0.131c-0.006-0.001-0.012-0.004-0.02-0.004h-4
				c-0.275,0-0.5,0.224-0.5,0.5c0,0.275,0.225,0.5,0.5,0.5h2.797L8.642,6.653c-0.193,0.193-0.193,0.509,0,0.702
				c0.195,0.193,0.51,0.193,0.703,0l3.654-3.654v2.798c0,0.275,0.225,0.5,0.5,0.5s0.5-0.225,0.5-0.5v-4c0-0.001,0-0.001,0-0.001
				c0-0.007-0.004-0.013-0.004-0.021C13.989,2.355,13.94,2.246,13.864,2.162z"/>
		</g>
	</g>
</g>
<g id="Layer_1">
</g>
</svg>
