<?xml version="1.0" encoding="iso-8859-1"?>
<!-- Generator: Adobe Illustrator 16.0.0, SVG Export Plug-In . SVG Version: 6.00 Build 0)  -->
<!DOCTYPE svg PUBLIC "-//W3C//DTD SVG 1.1//EN" "http://www.w3.org/Graphics/SVG/1.1/DTD/svg11.dtd">
<svg version="1.1" xmlns="http://www.w3.org/2000/svg" xmlns:xlink="http://www.w3.org/1999/xlink" x="0px" y="0px" width="16px"
	 height="16px" viewBox="0 0 16 16" style="enable-background:new 0 0 16 16;" xml:space="preserve">
<g id="interface-box-top" style="enable-background:new    ;">
	<g id="interface-box-top_2_">
		<g>
			<path d="M8.339,5.156C8.335,5.152,8.337,5.146,8.333,5.142C8.233,5.043,8.104,4.998,7.976,5C7.846,4.998,7.717,5.045,7.619,5.144
				C7.615,5.147,7.617,5.155,7.613,5.159L3.132,9.154c-0.193,0.193-0.192,0.507,0.002,0.7c0.195,0.192,0.509,0.192,0.702-0.002
				l4.143-3.694l4.167,3.672c0.193,0.192,0.508,0.191,0.701-0.003c0.193-0.193,0.193-0.507-0.002-0.699L8.339,5.156z M13.999-0.001
				h-12c-1.104,0-2,0.896-2,2V14c0,1.104,0.896,1.999,2,1.999h12c1.104,0,2-0.895,2-1.999V1.999
				C15.999,0.895,15.103-0.001,13.999-0.001z M14.999,14c0,0.552-0.447,0.999-1,0.999h-12c-0.552,0-1-0.447-1-0.999V1.999
				c0-0.552,0.448-1,1-1h12c0.553,0,1,0.448,1,1V14z"/>
		</g>
	</g>
</g>
<g id="Layer_1">
</g>
</svg>
