<?xml version="1.0" encoding="iso-8859-1"?>
<!-- Generator: Adobe Illustrator 16.0.0, SVG Export Plug-In . SVG Version: 6.00 Build 0)  -->
<!DOCTYPE svg PUBLIC "-//W3C//DTD SVG 1.1//EN" "http://www.w3.org/Graphics/SVG/1.1/DTD/svg11.dtd">
<svg version="1.1" xmlns="http://www.w3.org/2000/svg" xmlns:xlink="http://www.w3.org/1999/xlink" x="0px" y="0px" width="16px"
	 height="16px" viewBox="0 0 16 16" style="enable-background:new 0 0 16 16;" xml:space="preserve">
<g id="interface-reply" style="enable-background:new    ;">
	<g id="interface-reply_1_">
		<g>
			<path d="M14.112,7.337c-1.459-1.651-3.725-2.556-6.63-2.645V1.977c0-0.187-0.111-0.356-0.286-0.437
				c-0.174-0.079-0.381-0.056-0.53,0.063L0.183,6.75C0.066,6.842-0.001,6.979-0.001,7.124c0,0.146,0.066,0.283,0.182,0.375
				l6.484,5.196c0.149,0.119,0.358,0.145,0.531,0.064c0.175-0.08,0.287-0.251,0.287-0.438V9.546
				c7.004-0.005,7.518,4.337,7.535,4.516c0.021,0.244,0.181,0.435,0.434,0.442c0.006,0,0.012,0,0.018,0
				c0.246,0,0.426-0.174,0.463-0.411C15.957,13.93,16.486,10.025,14.112,7.337z M6.983,8.57C6.983,8.57,6.983,8.57,6.983,8.57
				c-0.133,0-0.26,0.052-0.354,0.142C6.535,8.803,6.482,8.926,6.482,9.055v2.243L1.288,7.127l5.194-4.132v2.174
				c0,0.267,0.224,0.483,0.5,0.483c2.845,0,5.019,0.797,6.367,2.31c1.015,1.14,1.481,2.533,1.641,3.689
				C13.898,10.208,11.986,8.573,6.983,8.57z"/>
		</g>
	</g>
</g>
<g id="Layer_1">
</g>
</svg>
