<?xml version="1.0" encoding="iso-8859-1"?>
<!-- Generator: Adobe Illustrator 16.0.0, SVG Export Plug-In . SVG Version: 6.00 Build 0)  -->
<!DOCTYPE svg PUBLIC "-//W3C//DTD SVG 1.1//EN" "http://www.w3.org/Graphics/SVG/1.1/DTD/svg11.dtd">
<svg version="1.1" xmlns="http://www.w3.org/2000/svg" xmlns:xlink="http://www.w3.org/1999/xlink" x="0px" y="0px" width="16px"
	 height="16px" viewBox="0 0 16 16" style="enable-background:new 0 0 16 16;" xml:space="preserve">
<g id="interface-top-k" style="enable-background:new    ;">
	<g id="interface-top-k_2_">
		<g>
			<path d="M13.87,8.176L8.546,0.34c-0.15-0.229-0.349-0.344-0.547-0.344S7.603,0.111,7.452,0.34L2.128,8.176
				C1.827,8.633,2.024,9.008,2.567,9.008h3.437v4.994c0,1.104,0.897,2,2.003,2s2.003-0.896,2.003-2V9.008h3.422
				C13.974,9.008,14.171,8.633,13.87,8.176z M9.009,8.008v5.994c0,0.553-0.449,1-1.002,1c-0.553,0-1.002-0.447-1.002-1V8.008H3.424
				l4.575-6.697l4.575,6.697H9.009z"/>
		</g>
	</g>
</g>
<g id="Layer_1">
</g>
</svg>
