<?xml version="1.0" encoding="iso-8859-1"?>
<!-- Generator: Adobe Illustrator 16.0.0, SVG Export Plug-In . SVG Version: 6.00 Build 0)  -->
<!DOCTYPE svg PUBLIC "-//W3C//DTD SVG 1.1//EN" "http://www.w3.org/Graphics/SVG/1.1/DTD/svg11.dtd">
<svg version="1.1" xmlns="http://www.w3.org/2000/svg" xmlns:xlink="http://www.w3.org/1999/xlink" x="0px" y="0px" width="16px"
	 height="16px" viewBox="0 0 16 16" style="enable-background:new 0 0 16 16;" xml:space="preserve">
<g id="interface-plus" style="enable-background:new    ;">
	<g id="interface-plus_1_">
		<g>
			<path d="M13.5,6.499h-6v-6c0-0.275-0.225-0.5-0.5-0.5c-0.276,0-0.5,0.225-0.5,0.5v6h-6c-0.276,0-0.5,0.225-0.5,0.5
				c0,0.278,0.224,0.5,0.5,0.5h6v6c0,0.277,0.224,0.5,0.5,0.5c0.275,0,0.5-0.223,0.5-0.5v-6h6c0.275,0,0.5-0.223,0.5-0.5
				C14,6.723,13.775,6.499,13.5,6.499z"/>
		</g>
	</g>
</g>
<g id="Layer_1">
</g>
</svg>
