<?xml version="1.0" encoding="iso-8859-1"?>
<!-- Generator: Adobe Illustrator 16.0.0, SVG Export Plug-In . SVG Version: 6.00 Build 0)  -->
<!DOCTYPE svg PUBLIC "-//W3C//DTD SVG 1.1//EN" "http://www.w3.org/Graphics/SVG/1.1/DTD/svg11.dtd">
<svg version="1.1" xmlns="http://www.w3.org/2000/svg" xmlns:xlink="http://www.w3.org/1999/xlink" x="0px" y="0px" width="16px"
	 height="16px" viewBox="0 0 16 16" style="enable-background:new 0 0 16 16;" xml:space="preserve">
<g id="interface-box-right" style="enable-background:new    ;">
	<g id="interface-box-right_1_">
		<g>
			<path d="M10.841,7.659l-3.97-4.506c-0.192-0.194-0.506-0.195-0.7-0.002S5.976,3.659,6.168,3.854l3.67,4.166l-3.693,4.143
				c-0.194,0.194-0.195,0.508-0.002,0.702c0.192,0.195,0.506,0.196,0.7,0.002l3.995-4.48c0.004-0.004,0.012-0.002,0.016-0.007
				c0.1-0.099,0.145-0.228,0.145-0.356c0.002-0.129-0.045-0.258-0.143-0.357C10.853,7.661,10.845,7.663,10.841,7.659z M13.999-0.001
				h-12c-1.104,0-2,0.896-2,2V14c0,1.104,0.896,1.999,2,1.999h12c1.104,0,2-0.895,2-1.999V1.999
				C15.999,0.895,15.103-0.001,13.999-0.001z M14.999,14c0,0.552-0.447,0.999-1,0.999h-12c-0.552,0-1-0.447-1-0.999V1.999
				c0-0.552,0.448-1,1-1h12c0.553,0,1,0.448,1,1V14z"/>
		</g>
	</g>
</g>
<g id="Layer_1">
</g>
</svg>
