<?xml version="1.0" encoding="iso-8859-1"?>
<!-- Generator: Adobe Illustrator 16.0.0, SVG Export Plug-In . SVG Version: 6.00 Build 0)  -->
<!DOCTYPE svg PUBLIC "-//W3C//DTD SVG 1.1//EN" "http://www.w3.org/Graphics/SVG/1.1/DTD/svg11.dtd">
<svg version="1.1" xmlns="http://www.w3.org/2000/svg" xmlns:xlink="http://www.w3.org/1999/xlink" x="0px" y="0px" width="16px"
	 height="16px" viewBox="0 0 16 16" style="enable-background:new 0 0 16 16;" xml:space="preserve">
<g id="interface-reverse" style="enable-background:new    ;">
	<g id="interface-reverse_2_">
		<g>
			<path d="M10.84,0.004h3.658c0.275,0,0.5-0.224,0.5-0.501c0-0.276-0.225-0.5-0.5-0.5H9.539C9.525-0.998,9.514-1.004,9.5-1.004
				c-0.023,0-0.041,0.016-0.063,0.019C9.375-0.978,9.316-0.961,9.262-0.933C9.244-0.922,9.229-0.912,9.211-0.899
				C9.145-0.852,9.09-0.794,9.053-0.721C9.035-0.726,9.018-0.728,9-0.732V4.5C9,4.777,9.225,5,9.5,5c0.277,0,0.502-0.224,0.502-0.5
				V0.703C12.359,1.83,14,4.216,14,7.003c0,3.867-3.135,7-7,7c-3.866,0-7-3.133-7-7c0-3.523,2.612-6.411,6-6.9v-1.031
				C2.054-0.435-1,2.923-1,7.003c0,4.418,3.582,8,8,8s8-3.582,8-8C15,3.979,13.314,1.364,10.84,0.004z"/>
		</g>
	</g>
</g>
<g id="Layer_1">
</g>
</svg>
