<?xml version="1.0" encoding="iso-8859-1"?>
<!-- Generator: Adobe Illustrator 16.0.0, SVG Export Plug-In . SVG Version: 6.00 Build 0)  -->
<!DOCTYPE svg PUBLIC "-//W3C//DTD SVG 1.1//EN" "http://www.w3.org/Graphics/SVG/1.1/DTD/svg11.dtd">
<svg version="1.1" xmlns="http://www.w3.org/2000/svg" xmlns:xlink="http://www.w3.org/1999/xlink" x="0px" y="0px" width="16px"
	 height="16px" viewBox="0 0 16 16" style="enable-background:new 0 0 16 16;" xml:space="preserve">
<g id="interface-bell" style="enable-background:new    ;">
	<g id="interface-bell_2_">
		<g>
			<path d="M14.45,7.662c0.22-0.808,0.377-1.386,0.377-1.386c0.724-2.659-0.879-5.392-3.579-6.104
				c-2.701-0.714-5.477,0.864-6.2,3.523c0,0-0.539,1.981-1.033,3.796c-0.417,1.531-3.019,3.389-3.019,3.389l5.764,1.521
				c-0.164,0.329-0.257,0.7-0.257,1.095c0,1.381,1.119,2.5,2.5,2.5c1.329,0,2.404-1.04,2.485-2.348l3.199,0.845
				c0,0-1.314-2.873-0.9-4.394c0.175-0.644,0.355-1.307,0.518-1.9v0.001L14.45,7.662z M9.002,14.997c-0.828,0-1.5-0.672-1.5-1.5
				c0-0.312,0.117-0.585,0.28-0.825l2.703,0.713c0.003,0.038,0.017,0.073,0.017,0.112C10.502,14.325,9.831,14.997,9.002,14.997z
				 M3.214,10.435c0,0,1.326-1.128,1.76-2.63l7.829,2.064c-0.399,1.513,0.19,3.146,0.19,3.146L3.214,10.435z M13.063,8.905
				L5.24,6.842c0.091-0.333,0.179-0.656,0.262-0.963l7.823,2.063C13.242,8.249,13.154,8.572,13.063,8.905z M13.85,6.017
				c0,0-0.104,0.385-0.263,0.963L5.764,4.917c0.158-0.578,0.262-0.963,0.262-0.963c0.579-2.127,2.799-3.39,4.959-2.819
				C13.146,1.704,14.428,3.89,13.85,6.017z"/>
		</g>
	</g>
</g>
<g id="Layer_1">
</g>
</svg>
