<?xml version="1.0" encoding="iso-8859-1"?>
<!-- Generator: Adobe Illustrator 16.0.0, SVG Export Plug-In . SVG Version: 6.00 Build 0)  -->
<!DOCTYPE svg PUBLIC "-//W3C//DTD SVG 1.1//EN" "http://www.w3.org/Graphics/SVG/1.1/DTD/svg11.dtd">
<svg version="1.1" xmlns="http://www.w3.org/2000/svg" xmlns:xlink="http://www.w3.org/1999/xlink" x="0px" y="0px" width="16px"
	 height="16px" viewBox="0 0 16 16" style="enable-background:new 0 0 16 16;" xml:space="preserve">
<g id="interface-arrow-top" style="enable-background:new    ;">
	<g id="interface-arrow-top_2_">
		<g>
			<path d="M12.342,5.666L7.375,0.19C7.37,0.184,7.372,0.173,7.366,0.166c-0.007-0.007-0.004-0.018-0.01-0.023
				C7.349,0.136,7.338,0.139,7.332,0.132C7.25,0.058,7.143,0.011,7.024,0.005C7.018,0.004,7.013,0.001,7.006,0.001
				C7.004,0.001,7.001-0.001,7-0.001c-0.002,0-0.004,0.002-0.007,0.002c-0.01,0-0.018,0.007-0.029,0.008
				C6.866,0.017,6.783,0.056,6.711,0.114C6.69,0.129,6.662,0.123,6.643,0.143C6.628,0.158,6.633,0.182,6.62,0.198
				C6.614,0.206,6.604,0.21,6.598,0.219L1.657,5.666c-0.19,0.191-0.19,0.5,0,0.69c0.19,0.191,0.499,0.191,0.688,0l4.155-4.581V13.5
				c0,0.275,0.223,0.499,0.499,0.499s0.498-0.224,0.498-0.499V1.774l4.155,4.582c0.189,0.191,0.498,0.191,0.689,0
				C12.531,6.166,12.531,5.857,12.342,5.666z"/>
		</g>
	</g>
</g>
<g id="Layer_1">
</g>
</svg>
