<?xml version="1.0" encoding="iso-8859-1"?>
<!-- Generator: Adobe Illustrator 16.0.0, SVG Export Plug-In . SVG Version: 6.00 Build 0)  -->
<!DOCTYPE svg PUBLIC "-//W3C//DTD SVG 1.1//EN" "http://www.w3.org/Graphics/SVG/1.1/DTD/svg11.dtd">
<svg version="1.1" xmlns="http://www.w3.org/2000/svg" xmlns:xlink="http://www.w3.org/1999/xlink" x="0px" y="0px" width="16px"
	 height="16px" viewBox="0 0 16 16" style="enable-background:new 0 0 16 16;" xml:space="preserve">
<g id="interface-repeating" style="enable-background:new    ;">
	<g id="interface-repeating_1_">
		<g>
			<path d="M14.828,6.396c-0.213-0.222-0.561-0.223-0.773-0.003l-3.037,3.016v-9.41c0-0.552-0.465-1-1.039-1H0.049
				c-0.573,0-1.038,0.448-1.038,1v14c0,0.553,0.465,1,1.038,1h7.942v-1H0.489c-0.264,0-0.479-0.224-0.479-0.5V0.5
				c0-0.277,0.214-0.501,0.479-0.501h9.05c0.266,0,0.479,0.224,0.479,0.501v8.963L6.936,6.399C6.722,6.178,6.373,6.177,6.157,6.396
				C5.942,6.615,5.94,6.972,6.155,7.191l3.882,3.858c0.123,0.128,0.293,0.173,0.455,0.153c0.16,0.02,0.326-0.024,0.449-0.151
				l3.883-3.855C15.039,6.977,15.041,6.618,14.828,6.396z"/>
		</g>
	</g>
</g>
<g id="Layer_1">
</g>
</svg>
