<?xml version="1.0" encoding="iso-8859-1"?>
<!-- Generator: Adobe Illustrator 16.0.0, SVG Export Plug-In . SVG Version: 6.00 Build 0)  -->
<!DOCTYPE svg PUBLIC "-//W3C//DTD SVG 1.1//EN" "http://www.w3.org/Graphics/SVG/1.1/DTD/svg11.dtd">
<svg version="1.1" xmlns="http://www.w3.org/2000/svg" xmlns:xlink="http://www.w3.org/1999/xlink" x="0px" y="0px" width="16px"
	 height="16px" viewBox="0 0 16 16" style="enable-background:new 0 0 16 16;" xml:space="preserve">
<g id="interface-arrow-all" style="enable-background:new    ;">
	<g id="interface-arrow-all_2_">
		<g>
			<path d="M14.482,6.991c0-0.006-0.004-0.012-0.004-0.018c-0.006-0.118-0.053-0.225-0.127-0.308
				c-0.006-0.007-0.004-0.018-0.01-0.023c-0.006-0.007-0.018-0.005-0.023-0.011c-0.006-0.004-0.014-0.003-0.018-0.007l-1.979-1.979
				c-0.191-0.19-0.5-0.19-0.689,0c-0.189,0.189-0.189,0.499,0,0.688l1.164,1.164H7.498V1.201l1.166,1.164
				c0.189,0.19,0.499,0.19,0.688,0c0.191-0.19,0.191-0.498,0-0.688L7.386-0.289c-0.004-0.004-0.008-0.006-0.012-0.01
				C7.363-0.313,7.369-0.331,7.357-0.344C7.337-0.361,7.31-0.356,7.289-0.371C7.216-0.429,7.132-0.469,7.033-0.477
				c-0.01-0.001-0.018-0.007-0.027-0.007c-0.002,0-0.004-0.002-0.006-0.002c-0.002,0-0.004,0.002-0.007,0.002
				c-0.007,0-0.012,0.003-0.02,0.003C6.855-0.474,6.75-0.428,6.668-0.354C6.66-0.348,6.649-0.351,6.643-0.344
				s-0.004,0.018-0.01,0.025C6.629-0.314,6.63-0.307,6.626-0.303L4.647,1.677c-0.19,0.19-0.19,0.498,0,0.688s0.499,0.19,0.689,0
				L6.5,1.201v5.298H1.202l1.164-1.164c0.19-0.189,0.19-0.499,0-0.688c-0.19-0.19-0.499-0.19-0.689,0l-1.979,1.979
				c-0.005,0.004-0.013,0.003-0.018,0.007c-0.007,0.007-0.017,0.004-0.024,0.011c-0.006,0.006-0.003,0.017-0.01,0.023
				C-0.427,6.749-0.474,6.855-0.48,6.975c0,0.006-0.003,0.011-0.003,0.017c0,0.002-0.001,0.004-0.001,0.007s0.001,0.005,0.001,0.008
				c0,0.009,0.006,0.016,0.006,0.024C-0.47,7.131-0.429,7.216-0.37,7.289c0.015,0.021,0.009,0.048,0.027,0.066
				c0.012,0.012,0.031,0.007,0.044,0.019c0.004,0.003,0.006,0.009,0.01,0.012l1.965,1.965c0.19,0.19,0.499,0.19,0.689,0
				c0.19-0.189,0.19-0.498,0-0.688L1.202,7.498H6.5v5.298l-1.165-1.164c-0.19-0.19-0.499-0.19-0.689,0
				c-0.19,0.189-0.19,0.498,0,0.689L6.626,14.3c0.004,0.005,0.003,0.013,0.007,0.017c0.006,0.007,0.003,0.018,0.01,0.024
				c0.007,0.006,0.018,0.004,0.024,0.01c0.082,0.075,0.188,0.121,0.308,0.128c0.006,0,0.011,0.003,0.018,0.003
				c0.002,0,0.005,0.002,0.007,0.002c0.002,0,0.004-0.002,0.008-0.002c0.008,0,0.016-0.006,0.023-0.006
				c0.1-0.008,0.186-0.049,0.26-0.107c0.02-0.015,0.047-0.01,0.066-0.027c0.012-0.012,0.006-0.031,0.018-0.044
				c0.004-0.005,0.008-0.007,0.012-0.011l1.965-1.965c0.191-0.191,0.191-0.5,0-0.689c-0.189-0.19-0.499-0.19-0.688,0l-1.166,1.164
				V7.498h5.299l-1.164,1.164c-0.189,0.19-0.189,0.499,0,0.688c0.189,0.19,0.498,0.19,0.689,0l1.965-1.965
				c0.004-0.004,0.006-0.009,0.01-0.012c0.014-0.012,0.033-0.007,0.045-0.019c0.018-0.019,0.014-0.046,0.027-0.066
				c0.059-0.073,0.1-0.158,0.107-0.258c0-0.009,0.006-0.017,0.006-0.025c0-0.003,0.002-0.005,0.002-0.008
				C14.484,6.996,14.482,6.994,14.482,6.991z"/>
		</g>
	</g>
</g>
<g id="Layer_1">
</g>
</svg>
