<?xml version="1.0" encoding="iso-8859-1"?>
<!-- Generator: Adobe Illustrator 16.0.0, SVG Export Plug-In . SVG Version: 6.00 Build 0)  -->
<!DOCTYPE svg PUBLIC "-//W3C//DTD SVG 1.1//EN" "http://www.w3.org/Graphics/SVG/1.1/DTD/svg11.dtd">
<svg version="1.1" xmlns="http://www.w3.org/2000/svg" xmlns:xlink="http://www.w3.org/1999/xlink" x="0px" y="0px" width="16px"
	 height="16px" viewBox="0 0 16 16" style="enable-background:new 0 0 16 16;" xml:space="preserve">
<g id="interface-cloud-download" style="enable-background:new    ;">
	<g id="interface-cloud-download_2_">
		<g>
			<path d="M11.165,11.501l-2.166,2.236V6.708c0-0.284-0.225-0.516-0.5-0.516s-0.5,0.231-0.5,0.516v7.029l-2.167-2.236
				c-0.19-0.195-0.5-0.195-0.69,0c-0.191,0.197-0.191,0.516,0,0.713l2.982,3.08c0.004,0.004,0.004,0.014,0.008,0.018
				c0.006,0.008,0.004,0.018,0.01,0.023c0.006,0.008,0.016,0.004,0.023,0.01c0.082,0.078,0.189,0.127,0.311,0.135
				c0.006,0,0.01,0.002,0.016,0.002c0.002,0,0.004,0.002,0.008,0.002c0.002,0,0.004-0.002,0.008-0.002
				c0.008,0,0.014-0.006,0.023-0.006c0.1-0.008,0.186-0.051,0.26-0.111c0.02-0.016,0.049-0.01,0.066-0.029
				c0.012-0.012,0.008-0.031,0.018-0.045c0.004-0.004,0.01-0.008,0.014-0.012l2.969-3.064c0.191-0.197,0.191-0.516,0-0.713
				C11.665,11.306,11.356,11.306,11.165,11.501z M12.259,3.729c-0.588-1.86-2.262-3.214-4.26-3.214
				c-2.174,0-3.988,1.592-4.408,3.708c-2.05,0.434-3.592,2.306-3.592,4.551c0,2.389,1.753,4.332,4,4.592v-1.031
				c-1.694-0.254-3-1.742-3-3.561c0-1.997,1.567-3.614,3.5-3.614c0-1.996,1.567-3.613,3.5-3.613c1.768,0,3.215,1.359,3.451,3.118
				c1.975,0.11,3.549,1.783,3.549,3.851c0,1.48-0.814,2.748-2,3.395v1.154c1.756-0.721,3-2.482,3-4.549
				C15.999,6.166,14.396,4.208,12.259,3.729z"/>
		</g>
	</g>
</g>
<g id="Layer_1">
</g>
</svg>
