<?xml version="1.0" encoding="iso-8859-1"?>
<!-- Generator: Adobe Illustrator 16.0.0, SVG Export Plug-In . SVG Version: 6.00 Build 0)  -->
<!DOCTYPE svg PUBLIC "-//W3C//DTD SVG 1.1//EN" "http://www.w3.org/Graphics/SVG/1.1/DTD/svg11.dtd">
<svg version="1.1" xmlns="http://www.w3.org/2000/svg" xmlns:xlink="http://www.w3.org/1999/xlink" x="0px" y="0px" width="16px"
	 height="16px" viewBox="0 0 16 16" style="enable-background:new 0 0 16 16;" xml:space="preserve">
<g id="interface-arrow-left-t" style="enable-background:new    ;">
	<g id="interface-arrow-left-t_1_">
		<g>
			<path d="M11.84,11.16L3.673,2.985l5.929-0.027c0.264-0.001,0.475-0.217,0.475-0.481c-0.002-0.265-0.215-0.479-0.479-0.479
				L2.576,2.03c-0.022-0.003-0.04-0.017-0.063-0.017C2.236,2.014,2.014,2.227,2.015,2.488v0.021c0,0.001-0.001,0.002-0.001,0.004
				c0,0.001,0.001,0.002,0.001,0.003l0.031,7.042c0.001,0.262,0.225,0.473,0.501,0.472c0.275-0.002,0.498-0.214,0.497-0.476
				L3.019,3.714l8.136,8.143c0.191,0.191,0.5,0.191,0.689-0.003C12.031,11.663,12.031,11.352,11.84,11.16z"/>
		</g>
	</g>
</g>
<g id="Layer_1">
</g>
</svg>
