<?xml version="1.0" encoding="iso-8859-1"?>
<!-- Generator: Adobe Illustrator 16.0.0, SVG Export Plug-In . SVG Version: 6.00 Build 0)  -->
<!DOCTYPE svg PUBLIC "-//W3C//DTD SVG 1.1//EN" "http://www.w3.org/Graphics/SVG/1.1/DTD/svg11.dtd">
<svg version="1.1" xmlns="http://www.w3.org/2000/svg" xmlns:xlink="http://www.w3.org/1999/xlink" x="0px" y="0px" width="16px"
	 height="16px" viewBox="0 0 16 16" style="enable-background:new 0 0 16 16;" xml:space="preserve">
<g id="interface-left" style="enable-background:new    ;">
	<g id="interface-left_1_">
		<g>
			<path d="M4.693,6.999l5.676-5.197c0.188-0.187,0.188-0.488,0-0.675s-0.49-0.187-0.678,0l-5.984,5.48
				C3.682,6.624,3.648,6.618,3.625,6.641c-0.099,0.1-0.142,0.23-0.136,0.36C3.484,7.129,3.528,7.258,3.626,7.356
				C3.647,7.378,3.68,7.372,3.705,7.389l5.987,5.482c0.188,0.187,0.49,0.187,0.678,0c0.186-0.188,0.186-0.489,0-0.676L4.693,6.999z"
				/>
		</g>
	</g>
</g>
<g id="Layer_1">
</g>
</svg>
