<?xml version="1.0" encoding="iso-8859-1"?>
<!-- Generator: Adobe Illustrator 16.0.0, SVG Export Plug-In . SVG Version: 6.00 Build 0)  -->
<!DOCTYPE svg PUBLIC "-//W3C//DTD SVG 1.1//EN" "http://www.w3.org/Graphics/SVG/1.1/DTD/svg11.dtd">
<svg version="1.1" xmlns="http://www.w3.org/2000/svg" xmlns:xlink="http://www.w3.org/1999/xlink" x="0px" y="0px" width="16px"
	 height="16px" viewBox="0 0 16 16" style="enable-background:new 0 0 16 16;" xml:space="preserve">
<g id="interface-clock-b" style="enable-background:new    ;">
	<g id="interface-clock-b_2_">
		<g>
			<path d="M7.999,7.82V3.499C7.999,3.224,7.775,3,7.499,3c-0.276,0-0.5,0.224-0.5,0.499V8c0,0.175,0.095,0.321,0.232,0.41
				l2.946,2.946c0.188,0.188,0.492,0.188,0.68,0c0.188-0.187,0.188-0.491,0-0.678L7.999,7.82z M7.999-0.001
				c-4.418,0-8,3.582-8,8.001c0,4.418,3.582,7.999,8,7.999c4.418,0,8-3.581,8-7.999C15.999,3.581,12.417-0.001,7.999-0.001z
				 M7.999,15c-3.866,0-7-3.134-7-7s3.134-7.001,7-7.001c3.865,0,7,3.135,7,7.001S11.864,15,7.999,15z"/>
		</g>
	</g>
</g>
<g id="Layer_1">
</g>
</svg>
