<?xml version="1.0" encoding="iso-8859-1"?>
<!-- Generator: Adobe Illustrator 16.0.0, SVG Export Plug-In . SVG Version: 6.00 Build 0)  -->
<!DOCTYPE svg PUBLIC "-//W3C//DTD SVG 1.1//EN" "http://www.w3.org/Graphics/SVG/1.1/DTD/svg11.dtd">
<svg version="1.1" xmlns="http://www.w3.org/2000/svg" xmlns:xlink="http://www.w3.org/1999/xlink" x="0px" y="0px" width="16px"
	 height="16px" viewBox="0 0 16 16" style="enable-background:new 0 0 16 16;" xml:space="preserve">
<g id="kitchen-fork-knife" style="enable-background:new    ;">
	<g id="kitchen-fork-knife_2_">
		<g>
			<path d="M6.495,0.499v3c0,0.931-0.139,1.706-1,1.929v-5.429L4.495,0v5.5c-0.861-0.223-1-1.07-1-2.001v-3c0-0.174,0-0.499,0-0.499
				h-1v0.499v3c0,1.485,0.583,2.71,2,2.95v9.55h1v-9.55c1.417-0.24,2-1.465,2-2.95v-3V0h-1V0.499z M12.796,3.866
				c-0.632-1.812-2.039-3.501-2.302-3.807v-0.061h-1v0.265L9.492,0.265l0.002,0.003v7.731v1v7h1v-7h3V8.734l0.003-0.001
				C13.497,8.733,13.612,6.202,12.796,3.866z M10.494,7.999V1.651c0.521,0.792,1.122,1.832,1.488,2.881
				c0.454,1.299,0.567,2.606,0.583,3.467H10.494z"/>
		</g>
	</g>
</g>
<g id="Layer_1">
</g>
</svg>
