<?xml version="1.0" encoding="iso-8859-1"?>
<!-- Generator: Adobe Illustrator 16.0.0, SVG Export Plug-In . SVG Version: 6.00 Build 0)  -->
<!DOCTYPE svg PUBLIC "-//W3C//DTD SVG 1.1//EN" "http://www.w3.org/Graphics/SVG/1.1/DTD/svg11.dtd">
<svg version="1.1" xmlns="http://www.w3.org/2000/svg" xmlns:xlink="http://www.w3.org/1999/xlink" x="0px" y="0px" width="16px"
	 height="16px" viewBox="0 0 16 16" style="enable-background:new 0 0 16 16;" xml:space="preserve">
<g id="kitchen-microwave" style="enable-background:new    ;">
	<g id="kitchen-microwave_1_">
		<g>
			<path d="M14.999,2h-14c-0.552,0-1,0.447-1,1v10c0,0.553,0.448,1,1,1h14c0.553,0,1-0.447,1-1V3C15.999,2.447,15.552,2,14.999,2z
				 M14.999,12.499c0,0.277-0.225,0.5-0.5,0.5h-13c-0.276,0-0.5-0.223-0.5-0.5v-9c0-0.276,0.224-0.5,0.5-0.5h13
				c0.275,0,0.5,0.224,0.5,0.5V12.499z M9.999,4h-7c-0.553,0-1,0.447-1,1v6c0,0.553,0.448,1,1,1h7c0.553,0,1-0.447,1-1V5
				C10.999,4.447,10.552,4,9.999,4z M9.999,10.499c0,0.277-0.225,0.5-0.5,0.5h-6c-0.276,0-0.5-0.223-0.5-0.5v-5
				c0-0.276,0.224-0.5,0.5-0.5h6c0.275,0,0.5,0.224,0.5,0.5V10.499z M13.499,5h-1c-0.275,0-0.5,0.224-0.5,0.499
				c0,0.276,0.225,0.501,0.5,0.501h1c0.275,0,0.5-0.225,0.5-0.501C13.999,5.223,13.774,5,13.499,5z M13.499,6.999h-1
				c-0.275,0-0.5,0.225-0.5,0.501c0,0.275,0.225,0.5,0.5,0.5h1c0.275,0,0.5-0.224,0.5-0.5C13.999,7.223,13.774,6.999,13.499,6.999z"
				/>
		</g>
	</g>
</g>
<g id="Layer_1">
</g>
</svg>
