<?xml version="1.0" encoding="iso-8859-1"?>
<!-- Generator: Adobe Illustrator 16.0.0, SVG Export Plug-In . SVG Version: 6.00 Build 0)  -->
<!DOCTYPE svg PUBLIC "-//W3C//DTD SVG 1.1//EN" "http://www.w3.org/Graphics/SVG/1.1/DTD/svg11.dtd">
<svg version="1.1" xmlns="http://www.w3.org/2000/svg" xmlns:xlink="http://www.w3.org/1999/xlink" x="0px" y="0px" width="16px"
	 height="16px" viewBox="0 0 16 16" style="enable-background:new 0 0 16 16;" xml:space="preserve">
<g id="kitchen-fork-knife-a" style="enable-background:new    ;">
	<g id="kitchen-fork-knife-a_2_">
		<g>
			<path d="M12.796,3.866c-0.643-1.841-2.072-3.54-2.302-3.806v-0.062h-1v0.265L9.492,0.265c0,0,0.002,0.003,0.002,0.004v7.73v1v7h1
				v-7h3V8.734h0.003C13.497,8.734,13.612,6.202,12.796,3.866z M10.494,7.999V1.653c0.521,0.792,1.122,1.83,1.488,2.879
				c0.456,1.304,0.565,2.606,0.581,3.467H10.494z M6.495,3.999h-1v-4h-1v4h-1v-4h-1v4v1v1c0,1.104,0.895,2,2,2v8h1v-8
				c1.104,0,2-0.896,2-2v-1v-1v-4h-1V3.999z M6.495,5.999c0,0.553-0.448,1-1,1h-1c-0.552,0-1-0.447-1-1v-1h3V5.999z"/>
		</g>
	</g>
</g>
<g id="Layer_1">
</g>
</svg>
