<?xml version="1.0" encoding="iso-8859-1"?>
<!-- Generator: Adobe Illustrator 16.0.0, SVG Export Plug-In . SVG Version: 6.00 Build 0)  -->
<!DOCTYPE svg PUBLIC "-//W3C//DTD SVG 1.1//EN" "http://www.w3.org/Graphics/SVG/1.1/DTD/svg11.dtd">
<svg version="1.1" xmlns="http://www.w3.org/2000/svg" xmlns:xlink="http://www.w3.org/1999/xlink" x="0px" y="0px" width="16px"
	 height="16px" viewBox="0 0 16 16" style="enable-background:new 0 0 16 16;" xml:space="preserve">
<g id="kitchen-jam" style="enable-background:new    ;">
	<g id="kitchen-jam_2_">
		<g>
			<path d="M11.81,0.934C10.976,0.36,9.708-0.001,7.999-0.001S5.023,0.36,4.188,0.934C2.861,1.667,1.999,2.761,1.999,3.999
				c0,0.816,0.371,1.573,1,2.206v6.794c0,1.657,1.686,3,5,3c3.314,0,5-1.343,5-3v-0.998v-1V6.205c0.629-0.633,1-1.39,1-2.206
				C13.999,2.761,13.136,1.667,11.81,0.934z M7.999,0.999c2.762,0,4,0.896,4,2s-1.238,2-4,2s-4-0.896-4-2S5.237,0.999,7.999,0.999z
				 M11.999,12.999c0,1.105-1.238,2-4,2s-4-0.895-4-2V6.961c1.063,0.639,2.456,1.038,4,1.038V13c0,0,2.455,0.304,4-0.287V12.999z
				 M11.999,11.769c-1.271,0.519-3,0.232-3,0.232V7.935c1.143-0.132,2.172-0.477,3-0.974V11.769z M7.999,6.999c-2.762,0-5-1.343-5-3
				c0-0.149,0.038-0.293,0.073-0.437c0.346,1.387,1.999,2.437,4.927,2.437c2.928,0,4.58-1.05,4.926-2.437
				c0.035,0.144,0.074,0.287,0.074,0.437C12.999,5.656,10.761,6.999,7.999,6.999z"/>
		</g>
	</g>
</g>
<g id="Layer_1">
</g>
</svg>
