<?xml version="1.0" encoding="iso-8859-1"?>
<!-- Generator: Adobe Illustrator 16.0.0, SVG Export Plug-In . SVG Version: 6.00 Build 0)  -->
<!DOCTYPE svg PUBLIC "-//W3C//DTD SVG 1.1//EN" "http://www.w3.org/Graphics/SVG/1.1/DTD/svg11.dtd">
<svg version="1.1" xmlns="http://www.w3.org/2000/svg" xmlns:xlink="http://www.w3.org/1999/xlink" x="0px" y="0px" width="16px"
	 height="16px" viewBox="0 0 16 16" style="enable-background:new 0 0 16 16;" xml:space="preserve">
<g id="kitchen-heat-a" style="enable-background:new    ;">
	<g id="kitchen-heat-a_2_">
		<g>
			<path d="M13.572,6.305c-0.796-1.329-0.654-2.267-0.649-2.3c0.034-0.184-0.036-0.37-0.183-0.485s-0.344-0.141-0.514-0.063
				c-0.043,0.019-1.059,0.489-1.452,1.867c-0.1,0.347-0.164,0.704-0.205,1.041c-0.146-0.245-0.281-0.49-0.379-0.701
				C9.119,3.342,9.624,0.619,9.629,0.59c0.033-0.171-0.025-0.347-0.153-0.464C9.347,0.008,9.169-0.035,9,0.014
				c-0.131,0.038-3.188,0.969-3.912,4.86c-0.264,1.418-0.102,2.799,0.11,3.718C4.885,8.38,4.607,8.074,4.333,7.641
				c-0.408-0.644-0.717-1.802-0.72-1.813C3.562,5.63,3.396,5.484,3.194,5.458C2.99,5.436,2.794,5.533,2.695,5.71
				C2.646,5.796,1.5,7.861,1.5,9.776c0,3.608,2.674,6.228,6.444,6.228c3.798,0,6.555-2.619,6.555-6.228
				C14.498,8.284,14.291,7.505,13.572,6.305z M7.943,15.002c-3.191,0-5.444-2.197-5.444-5.226C2.5,8.922,2.782,8,3.057,7.305
				C3.18,7.608,3.326,7.92,3.489,8.179c0.911,1.438,2.318,1.806,2.38,1.82c0.182,0.044,0.37-0.018,0.493-0.156
				c0.122-0.141,0.157-0.338,0.091-0.511C6.444,9.311,5.676,7.184,6.071,5.058c0.406-2.185,1.671-3.259,2.495-3.74
				C8.483,2.417,8.469,4.322,9.283,6.085c0.393,0.85,1.281,2.111,1.319,2.165c0.129,0.183,0.364,0.257,0.575,0.182
				c0.211-0.074,0.347-0.281,0.332-0.505c-0.001-0.013-0.078-1.261,0.227-2.328c0.067-0.236,0.159-0.433,0.259-0.593
				c0.098,0.497,0.304,1.121,0.72,1.815c0.622,1.04,0.783,1.648,0.783,2.956C13.498,12.805,11.161,15.002,7.943,15.002z"/>
		</g>
	</g>
</g>
<g id="Layer_1">
</g>
</svg>
