<?xml version="1.0" encoding="iso-8859-1"?>
<!-- Generator: Adobe Illustrator 16.0.0, SVG Export Plug-In . SVG Version: 6.00 Build 0)  -->
<!DOCTYPE svg PUBLIC "-//W3C//DTD SVG 1.1//EN" "http://www.w3.org/Graphics/SVG/1.1/DTD/svg11.dtd">
<svg version="1.1" xmlns="http://www.w3.org/2000/svg" xmlns:xlink="http://www.w3.org/1999/xlink" x="0px" y="0px" width="16px"
	 height="16px" viewBox="0 0 16 16" style="enable-background:new 0 0 16 16;" xml:space="preserve">
<g id="kitchen-recipe-book" style="enable-background:new    ;">
	<g id="kitchen-recipe-book_1_">
		<g>
			<path d="M10.999,7h-3c-0.275,0-0.5,0.224-0.5,0.5c0,0.275,0.224,0.5,0.5,0.5h3c0.275,0,0.5-0.224,0.5-0.5
				C11.499,7.223,11.274,7,10.999,7z M10.999,3.999h-3c-0.275,0-0.5,0.225-0.5,0.501S7.723,5,7.999,5h3c0.275,0,0.5-0.224,0.5-0.5
				S11.274,3.999,10.999,3.999z M13.499-0.001h-11c-0.552,0-1,0.448-1,1.001v14c0,0.553,0.448,1,1,1h11c0.553,0,1-0.447,1-1V1
				C14.499,0.447,14.052-0.001,13.499-0.001z M4.499,14.999h-1.5c-0.276,0-0.5-0.223-0.5-0.5v-13c0-0.276,0.224-0.5,0.5-0.5h1.5
				V14.999z M13.499,14.499c0,0.277-0.225,0.5-0.5,0.5h-7.5V1h7.5c0.275,0,0.5,0.224,0.5,0.5V14.499z"/>
		</g>
	</g>
</g>
<g id="Layer_1">
</g>
</svg>
