<?xml version="1.0" encoding="iso-8859-1"?>
<!-- Generator: Adobe Illustrator 16.0.0, SVG Export Plug-In . SVG Version: 6.00 Build 0)  -->
<!DOCTYPE svg PUBLIC "-//W3C//DTD SVG 1.1//EN" "http://www.w3.org/Graphics/SVG/1.1/DTD/svg11.dtd">
<svg version="1.1" xmlns="http://www.w3.org/2000/svg" xmlns:xlink="http://www.w3.org/1999/xlink" x="0px" y="0px" width="16px"
	 height="16px" viewBox="0 0 16 16" style="enable-background:new 0 0 16 16;" xml:space="preserve">
<g id="kitchen-pepper" style="enable-background:new    ;">
	<g id="kitchen-pepper_1_">
		<g>
			<path d="M11.999,1h-3v-1.001h-2V1h-3c-1.105,0-2,0.896-2,2c0,0.931,0.639,1.706,1.5,1.929V6c0,0.552,0.448,1,1,1h0.5v2
				c-0.552,0-1,0.447-1,1v4v1v1h1h6h1v-1v-1v-4c0-0.553-0.447-1-1-1V7h0.5c0.553,0,1-0.448,1-1V4.928
				c0.861-0.223,1.5-0.998,1.5-1.929C13.999,1.895,13.103,1,11.999,1z M10.999,13.999v1h-6v-1v-3.5c0-0.275,0.224-0.5,0.5-0.5h5
				c0.275,0,0.5,0.225,0.5,0.5V13.999z M5.999,8.999V7h4v2H5.999z M11.499,5.5c0,0.276-0.225,0.5-0.5,0.5h-6
				c-0.276,0-0.5-0.224-0.5-0.5V5h7V5.5z M11.999,4h-8c-0.552,0-1-0.448-1-1c0-0.553,0.448-1,1-1h3h2h3c0.553,0,1,0.447,1,1
				C12.999,3.551,12.552,4,11.999,4z"/>
		</g>
	</g>
</g>
<g id="Layer_1">
</g>
</svg>
