<?xml version="1.0" encoding="iso-8859-1"?>
<!-- Generator: Adobe Illustrator 16.0.0, SVG Export Plug-In . SVG Version: 6.00 Build 0)  -->
<!DOCTYPE svg PUBLIC "-//W3C//DTD SVG 1.1//EN" "http://www.w3.org/Graphics/SVG/1.1/DTD/svg11.dtd">
<svg version="1.1" xmlns="http://www.w3.org/2000/svg" xmlns:xlink="http://www.w3.org/1999/xlink" x="0px" y="0px" width="16px"
	 height="16px" viewBox="0 0 16 16" style="enable-background:new 0 0 16 16;" xml:space="preserve">
<g id="kitchen-leaf" style="enable-background:new    ;">
	<g id="kitchen-leaf_2_">
		<g>
			<path d="M14.979,1.005c0,0-14.919-1.048-13.923,14.003c0,0,4.82,0.148,8.791-2.522L9.903,12.5l0.015-0.063
				C12.778,10.482,15.179,7.05,14.979,1.005z M12.831,1.967C11.347,2.7,9.938,3.785,8.639,4.992L8.611,4.987L8.605,5.021
				C7.968,5.615,7.349,6.228,6.775,6.86l-1.11-2.241C8.111,2.502,11.178,2.046,12.831,1.967z M4.915,5.352L6.063,7.67
				C5.375,8.475,4.75,9.275,4.196,10.024l-0.042-0.011l-0.022,0.099c-0.93,1.265-1.648,2.374-2.089,3.086
				C2.207,9.506,3.372,7.022,4.915,5.352z M2.829,14.021C3.388,13,3.981,12.047,4.591,11.159l4.28,1.079
				C6.553,13.612,4.066,13.948,2.829,14.021z M9.976,11.482l-4.752-1.199C6.449,8.619,7.715,7.217,8.895,6.06l4.354,0.799
				C12.513,8.946,11.32,10.433,9.976,11.482z M13.533,5.89l-3.74-0.687c2.366-2.164,4.181-3.224,4.201-3.235
				c0.012,0,0.024,0.001,0.024,0.001C14.019,3.46,13.832,4.746,13.533,5.89z"/>
		</g>
	</g>
</g>
<g id="Layer_1">
</g>
</svg>
