<?xml version="1.0" encoding="iso-8859-1"?>
<!-- Generator: Adobe Illustrator 16.0.0, SVG Export Plug-In . SVG Version: 6.00 Build 0)  -->
<!DOCTYPE svg PUBLIC "-//W3C//DTD SVG 1.1//EN" "http://www.w3.org/Graphics/SVG/1.1/DTD/svg11.dtd">
<svg version="1.1" xmlns="http://www.w3.org/2000/svg" xmlns:xlink="http://www.w3.org/1999/xlink" x="0px" y="0px" width="16px"
	 height="16px" viewBox="0 0 16 16" style="enable-background:new 0 0 16 16;" xml:space="preserve">
<g id="kitchen-salt" style="enable-background:new    ;">
	<g id="kitchen-salt_2_">
		<g>
			<path d="M12.499,1.499h-1.5h-2v-1h-2v1h-2h-1.5c-0.276,0-0.5,0.224-0.5,0.5s0.224,0.5,0.5,0.5h0.5v1v1v1c0,0.552,0.448,1,1,1v2
				c-0.552,0-1,0.447-1,1v4v1v1h1h6h1v-1v-1v-4c0-0.553-0.447-1-1-1v-2c0.553,0,1-0.448,1-1v-1v-1v-1h0.5c0.275,0,0.5-0.224,0.5-0.5
				S12.774,1.499,12.499,1.499z M10.999,13.499v1h-6v-1v-3.5c0-0.276,0.224-0.5,0.5-0.5h5c0.275,0,0.5,0.224,0.5,0.5V13.499z
				 M5.999,8.499v-2h4v2H5.999z M10.999,4.999c0,0.275-0.225,0.5-0.5,0.5h-5c-0.276,0-0.5-0.225-0.5-0.5v-0.5h6V4.999z
				 M10.999,3.499h-6v-0.5c0-0.276,0.224-0.5,0.5-0.5h1.5h2h1.5c0.275,0,0.5,0.224,0.5,0.5V3.499z"/>
		</g>
	</g>
</g>
<g id="Layer_1">
</g>
</svg>
