<?xml version="1.0" encoding="iso-8859-1"?>
<!-- Generator: Adobe Illustrator 16.0.0, SVG Export Plug-In . SVG Version: 6.00 Build 0)  -->
<!DOCTYPE svg PUBLIC "-//W3C//DTD SVG 1.1//EN" "http://www.w3.org/Graphics/SVG/1.1/DTD/svg11.dtd">
<svg version="1.1" xmlns="http://www.w3.org/2000/svg" xmlns:xlink="http://www.w3.org/1999/xlink" x="0px" y="0px" width="16px"
	 height="16px" viewBox="0 0 16 16" style="enable-background:new 0 0 16 16;" xml:space="preserve">
<g id="kitchen-grill" style="enable-background:new    ;">
	<g id="kitchen-grill_1_">
		<g>
			<path d="M11.999,1h-1v1.991h1V1z M8.999,0.002h-1v2.988h1V0.002z M14.999,6.009c0-0.433,0-2.023,0-2.023h-14c0,0,0,1.591,0,2.023
				c0,2.763,1.614,5.128,3.938,6.267l-1.934,3.203l0.894,0.516l2.016-3.336c0.663,0.207,1.354,0.352,2.086,0.352
				c0.73,0,1.424-0.145,2.086-0.352l2.016,3.336l0.895-0.516l-1.936-3.203C13.384,11.138,14.999,8.772,14.999,6.009z M7.999,12.001
				c-3.314,0-6-2.689-6-6.005c0-0.337-0.059-0.678,0-0.997h12c0.059,0.319,0,0.66,0,0.997C13.999,9.312,11.313,12.001,7.999,12.001z
				 M5.999,1h-1v1.991h1V1z"/>
		</g>
	</g>
</g>
<g id="Layer_1">
</g>
</svg>
