<?xml version="1.0" encoding="iso-8859-1"?>
<!-- Generator: Adobe Illustrator 16.0.0, SVG Export Plug-In . SVG Version: 6.00 Build 0)  -->
<!DOCTYPE svg PUBLIC "-//W3C//DTD SVG 1.1//EN" "http://www.w3.org/Graphics/SVG/1.1/DTD/svg11.dtd">
<svg version="1.1" xmlns="http://www.w3.org/2000/svg" xmlns:xlink="http://www.w3.org/1999/xlink" x="0px" y="0px" width="16px"
	 height="16px" viewBox="0 0 16 16" style="enable-background:new 0 0 16 16;" xml:space="preserve">
<g id="kitchen-fridge" style="enable-background:new    ;">
	<g id="kitchen-fridge_2_">
		<g>
			<path d="M5.499,9h-1v1.999h1V9z M12.499-0.001h-9c-0.553,0-1,0.448-1,1v6v1v7c0,0.553,0.447,1,1,1h9c0.553,0,1-0.447,1-1v-7v-1
				v-6C13.499,0.447,13.052-0.001,12.499-0.001z M12.499,14.499c0,0.276-0.225,0.5-0.5,0.5h-8c-0.276,0-0.5-0.224-0.5-0.5v-6.5h9
				V14.499z M12.499,6.999h-9v-5.5c0-0.276,0.224-0.5,0.5-0.5h8c0.275,0,0.5,0.224,0.5,0.5V6.999z M4.499,5.999h1v-2h-1V5.999z"/>
		</g>
	</g>
</g>
<g id="Layer_1">
</g>
</svg>
