<?xml version="1.0" encoding="iso-8859-1"?>
<!-- Generator: Adobe Illustrator 16.0.0, SVG Export Plug-In . SVG Version: 6.00 Build 0)  -->
<!DOCTYPE svg PUBLIC "-//W3C//DTD SVG 1.1//EN" "http://www.w3.org/Graphics/SVG/1.1/DTD/svg11.dtd">
<svg version="1.1" xmlns="http://www.w3.org/2000/svg" xmlns:xlink="http://www.w3.org/1999/xlink" x="0px" y="0px" width="16px"
	 height="16px" viewBox="0 0 16 16" style="enable-background:new 0 0 16 16;" xml:space="preserve">
<g id="kitchen-spoon-fork" style="enable-background:new    ;">
	<g id="kitchen-spoon-fork_1_">
		<g>
			<path d="M11.499-0.001c-1.934,0-3.5,2.015-3.5,4.5c0,2.267,1.305,4.137,3,4.449v7.051h1V8.948c1.695-0.313,3-2.183,3-4.449
				C14.999,2.014,13.433-0.001,11.499-0.001z M11.499,7.999c-1.381,0-2.5-1.566-2.5-3.5c0-1.933,1.119-3.5,2.5-3.5
				s2.5,1.567,2.5,3.5C13.999,6.433,12.88,7.999,11.499,7.999z M4.999,0.499v3c0,0.931-0.139,1.706-1,1.929v-5.429h-1v5.429
				c-0.861-0.223-1-0.998-1-1.929v-3V0h-1v0.499v3c0,1.485,0.582,2.71,2,2.95v9.55h1v-9.55c1.418-0.24,2-1.465,2-2.95v-3V0h-1V0.499
				z"/>
		</g>
	</g>
</g>
<g id="Layer_1">
</g>
</svg>
