<?xml version="1.0" encoding="iso-8859-1"?>
<!-- Generator: Adobe Illustrator 16.0.0, SVG Export Plug-In . SVG Version: 6.00 Build 0)  -->
<!DOCTYPE svg PUBLIC "-//W3C//DTD SVG 1.1//EN" "http://www.w3.org/Graphics/SVG/1.1/DTD/svg11.dtd">
<svg version="1.1" xmlns="http://www.w3.org/2000/svg" xmlns:xlink="http://www.w3.org/1999/xlink" x="0px" y="0px" width="16px"
	 height="16px" viewBox="0 0 16 16" style="enable-background:new 0 0 16 16;" xml:space="preserve">
<g id="kitchen-ketchup" style="enable-background:new    ;">
	<g id="kitchen-ketchup_1_">
		<g>
			<path d="M12.999,8.999c-0.789-0.596-3-3-3-3h-1l0.563,0.999c0.658,0.705,2.15,2.282,2.82,2.788
				c0.041,0.039,0.082,0.117,0.125,0.213H3.485c0.041-0.092,0.08-0.164,0.117-0.201c0.681-0.516,2.176-2.094,2.833-2.799L6.999,6h-1
				c0,0-2.212,2.404-3,3s-1,3.115-1,4.594c0,1.252,1,2.406,1,2.406h10c0,0,1-1.154,1-2.406C13.999,12.114,13.786,9.595,12.999,8.999
				z M12.493,14.999h-8.99c-0.17-0.264-0.36-0.629-0.45-1h9.891C12.854,14.37,12.665,14.733,12.493,14.999z M3.024,12.999
				c0.027-0.777,0.091-1.477,0.187-2h9.575c0.098,0.523,0.16,1.225,0.188,2H3.024z M6.999,2.999h2v3h1v-3v-1v-2h-4v2v1v3h1V2.999z
				 M6.999,0.999h2v1h-2V0.999z"/>
		</g>
	</g>
</g>
<g id="Layer_1">
</g>
</svg>
