<?xml version="1.0" encoding="iso-8859-1"?>
<!-- Generator: Adobe Illustrator 16.0.0, SVG Export Plug-In . SVG Version: 6.00 Build 0)  -->
<!DOCTYPE svg PUBLIC "-//W3C//DTD SVG 1.1//EN" "http://www.w3.org/Graphics/SVG/1.1/DTD/svg11.dtd">
<svg version="1.1" xmlns="http://www.w3.org/2000/svg" xmlns:xlink="http://www.w3.org/1999/xlink" x="0px" y="0px" width="16px"
	 height="16px" viewBox="0 0 16 16" style="enable-background:new 0 0 16 16;" xml:space="preserve">
<g id="kitchen-tissue" style="enable-background:new    ;">
	<g id="kitchen-tissue_2_">
		<g>
			<path d="M11.999-0.001H4.012c-2.206,0-3.994,2.238-3.994,5V5H0.005v2.001H0.02v8.998h8.983v-5h2.992c0.002,0,0.003,0,0.004,0
				c2.205,0,3.993-2.462,3.993-5.5S14.204-0.001,11.999-0.001z M8.005,5.999v9H1.018V5.014c0-0.005-0.001-0.01-0.001-0.015
				c0-2.209,1.341-4,2.995-4C4.015,0.999,4.018,1,4.021,1h2.365c0,0,0-0.001,0-0.001h1.786h0.833h0.708
				c-1.03,0.995-1.708,2.636-1.708,4.5c0,0.171,0.025,0.332,0.037,0.5H8.005z M11.999,9.999c-0.001,0-0.002,0-0.004,0h-0.99V10h-2
				V9.999H9.003H9v-1h0.005V5.521c0-0.008-0.001-0.015-0.001-0.021c0-0.009,0.001-0.017,0.001-0.025V5h0.032
				c0.167-2.247,1.421-4.001,2.962-4.001c1.654,0,2.995,2.015,2.995,4.5S13.653,9.999,11.999,9.999z M12.498,2.999
				c-0.811,0-1.467,1.077-1.493,2.419v0.161c0.026,1.343,0.683,2.42,1.493,2.42c0.827,0,1.497-1.119,1.497-2.5
				S13.325,2.999,12.498,2.999z M12.498,6.999c-0.275,0-0.499-0.672-0.499-1.5s0.224-1.5,0.499-1.5s0.499,0.672,0.499,1.5
				S12.773,6.999,12.498,6.999z"/>
		</g>
	</g>
</g>
<g id="Layer_1">
</g>
</svg>
