<?xml version="1.0" encoding="iso-8859-1"?>
<!-- Generator: Adobe Illustrator 16.0.0, SVG Export Plug-In . SVG Version: 6.00 Build 0)  -->
<!DOCTYPE svg PUBLIC "-//W3C//DTD SVG 1.1//EN" "http://www.w3.org/Graphics/SVG/1.1/DTD/svg11.dtd">
<svg version="1.1" xmlns="http://www.w3.org/2000/svg" xmlns:xlink="http://www.w3.org/1999/xlink" x="0px" y="0px" width="16px"
	 height="16px" viewBox="0 0 16 16" style="enable-background:new 0 0 16 16;" xml:space="preserve">
<g id="kitchen-hood" style="enable-background:new    ;">
	<g id="kitchen-hood_2_">
		<g>
			<path d="M15.455,13.999H0.543c-0.293,0-0.53,0.224-0.53,0.5s0.237,0.5,0.53,0.5h14.912c0.293,0,0.53-0.224,0.53-0.5
				S15.748,13.999,15.455,13.999z M9.996,4.248V3.333c0-1.289-0.894-2.334-1.997-2.334c-1.103,0-1.997,1.045-1.997,2.334v0.915
				C2.306,5.16,0.013,8.509,0.013,11.499c0-0.147,0,1.5,0,1.5h15.973c0,0,0-1.647,0-1.5C15.985,8.509,13.692,5.16,9.996,4.248z
				 M7.001,3.249c0-0.69,0.446-1.25,0.998-1.25s0.999,0.56,0.999,1.25v0.814C8.673,4.025,8.342,4,7.999,4
				C7.657,4,7.325,4.025,7.001,4.063V3.249z M14.987,11.999H1.011c0,0,0-0.255,0-0.333C1.011,8.556,3.752,5,7.999,5
				c4.248,0,6.988,3.556,6.988,6.666C14.987,11.744,14.987,11.999,14.987,11.999z"/>
		</g>
	</g>
</g>
<g id="Layer_1">
</g>
</svg>
