<?xml version="1.0" encoding="iso-8859-1"?>
<!-- Generator: Adobe Illustrator 16.0.0, SVG Export Plug-In . SVG Version: 6.00 Build 0)  -->
<!DOCTYPE svg PUBLIC "-//W3C//DTD SVG 1.1//EN" "http://www.w3.org/Graphics/SVG/1.1/DTD/svg11.dtd">
<svg version="1.1" xmlns="http://www.w3.org/2000/svg" xmlns:xlink="http://www.w3.org/1999/xlink" x="0px" y="0px" width="16px"
	 height="16px" viewBox="0 0 16 16" style="enable-background:new 0 0 16 16;" xml:space="preserve">
<g id="kitchen-spoon-fork-a" style="enable-background:new    ;">
	<g id="kitchen-spoon-fork-a_1_">
		<g>
			<path d="M11.499,0.001c-1.934,0-3.5,1.791-3.5,3.999c0,2.013,1.307,3.661,3,3.94v8.056h1V7.941c1.693-0.279,3-1.928,3-3.94
				C14.999,1.792,13.433,0.001,11.499,0.001z M11.499,7.003c-1.381,0-2.5-1.345-2.5-3.003c0-1.659,1.119-3.003,2.5-3.003
				s2.5,1.344,2.5,3.003C13.999,5.659,12.88,7.003,11.499,7.003z M4.999,3.985h-1V0.002h-1v3.982h-1V0.002h-1v3.982v1.027v0.892
				c0,1.157,0.896,2.095,2,2.095v7.998h1V7.999c1.104,0,2-0.938,2-2.095V5.012V3.985V0.002h-1V3.985z M4.999,5.943
				c0,0.586-0.448,1.061-1,1.061h-1c-0.553,0-1-0.475-1-1.061V5.012h3V5.943z"/>
		</g>
	</g>
</g>
<g id="Layer_1">
</g>
</svg>
