<?xml version="1.0" encoding="iso-8859-1"?>
<!-- Generator: Adobe Illustrator 16.0.0, SVG Export Plug-In . SVG Version: 6.00 Build 0)  -->
<!DOCTYPE svg PUBLIC "-//W3C//DTD SVG 1.1//EN" "http://www.w3.org/Graphics/SVG/1.1/DTD/svg11.dtd">
<svg version="1.1" xmlns="http://www.w3.org/2000/svg" xmlns:xlink="http://www.w3.org/1999/xlink" x="0px" y="0px" width="16px"
	 height="16px" viewBox="0 0 16 16" style="enable-background:new 0 0 16 16;" xml:space="preserve">
<g id="kitchen-water" style="enable-background:new    ;">
	<g id="kitchen-water_2_">
		<g>
			<path d="M5.499,8.999c0-0.058,0.006-0.113,0.009-0.17c-0.321,0.478-0.509,1.052-0.509,1.67c0,1.657,1.343,3,3,3
				c0.619,0,1.193-0.188,1.67-0.509c-0.057,0.003-0.113,0.009-0.17,0.009C7.29,12.999,5.499,11.209,5.499,8.999z M7.999,0.499
				c0,0-5,5.687-5,9s2.238,6,5,6s5-2.687,5-6S7.999,0.499,7.999,0.499z M7.999,14.499c-2.209,0-4-2.238-4-5c0-2.761,4-7.5,4-7.5
				s4,4.739,4,7.5C11.999,12.261,10.208,14.499,7.999,14.499z"/>
		</g>
	</g>
</g>
<g id="Layer_1">
</g>
</svg>
