<?xml version="1.0" encoding="iso-8859-1"?>
<!-- Generator: Adobe Illustrator 16.0.0, SVG Export Plug-In . SVG Version: 6.00 Build 0)  -->
<!DOCTYPE svg PUBLIC "-//W3C//DTD SVG 1.1//EN" "http://www.w3.org/Graphics/SVG/1.1/DTD/svg11.dtd">
<svg version="1.1" xmlns="http://www.w3.org/2000/svg" xmlns:xlink="http://www.w3.org/1999/xlink" x="0px" y="0px" width="16px"
	 height="16px" viewBox="0 0 16 16" style="enable-background:new 0 0 16 16;" xml:space="preserve">
<g id="kitchen-spatula" style="enable-background:new    ;">
	<g id="kitchen-spatula_2_">
		<g>
			<path d="M11.999-0.001h-8c-0.276,0-0.5,0.224-0.5,0.5v8c0,0.276,0.224,0.5,0.5,0.5h3.5v3h-1v4h1h1h1v-4h-1v-3h3.5
				c0.275,0,0.5-0.224,0.5-0.5v-8C12.499,0.223,12.274-0.001,11.999-0.001z M8.499,14.999h-1v-2h1V14.999z M11.499,7.999h-3h-1h-3
				v-7h7V7.999z M6.499,1.999h-1v5h1V1.999z M10.499,1.999h-1v5h1V1.999z M8.499,1.999h-1v5h1V1.999z"/>
		</g>
	</g>
</g>
<g id="Layer_1">
</g>
</svg>
