<?xml version="1.0" encoding="iso-8859-1"?>
<!-- Generator: Adobe Illustrator 16.0.0, SVG Export Plug-In . SVG Version: 6.00 Build 0)  -->
<!DOCTYPE svg PUBLIC "-//W3C//DTD SVG 1.1//EN" "http://www.w3.org/Graphics/SVG/1.1/DTD/svg11.dtd">
<svg version="1.1" xmlns="http://www.w3.org/2000/svg" xmlns:xlink="http://www.w3.org/1999/xlink" x="0px" y="0px" width="16px"
	 height="16px" viewBox="0 0 16 16" style="enable-background:new 0 0 16 16;" xml:space="preserve">
<g id="kitchen-hood-a" style="enable-background:new    ;">
	<g id="kitchen-hood-a_1_">
		<g>
			<path d="M15.485,10.999c0-3.973-2.811-7.216-6.956-7.475V2.5h1.47c0.276,0,0.5-0.224,0.5-0.5c0-0.275-0.224-0.5-0.5-0.5h-4
				c-0.276,0-0.5,0.225-0.5,0.5c0,0.276,0.224,0.5,0.5,0.5h1.47v1.024c-4.146,0.259-6.956,3.502-6.956,7.475
				c0,0.168,0.015,0.334,0.026,0.5H0.513v1h14.973v-1h-0.026C15.471,11.333,15.485,11.167,15.485,10.999z M14.398,11.499H1.601
				c-0.014-0.166-0.027-0.332-0.027-0.5c0-3.59,2.618-6.5,6.426-6.5c3.809,0,6.426,2.91,6.426,6.5
				C14.425,11.167,14.411,11.333,14.398,11.499z M14.955,13.499H1.043c-0.293,0-0.53,0.225-0.53,0.5s0.237,0.5,0.53,0.5h13.912
				c0.293,0,0.53-0.225,0.53-0.5S15.248,13.499,14.955,13.499z"/>
		</g>
	</g>
</g>
<g id="Layer_1">
</g>
</svg>
