<?xml version="1.0" encoding="iso-8859-1"?>
<!-- Generator: Adobe Illustrator 16.0.0, SVG Export Plug-In . SVG Version: 6.00 Build 0)  -->
<!DOCTYPE svg PUBLIC "-//W3C//DTD SVG 1.1//EN" "http://www.w3.org/Graphics/SVG/1.1/DTD/svg11.dtd">
<svg version="1.1" xmlns="http://www.w3.org/2000/svg" xmlns:xlink="http://www.w3.org/1999/xlink" x="0px" y="0px" width="16px"
	 height="16px" viewBox="0 0 16 16" style="enable-background:new 0 0 16 16;" xml:space="preserve">
<g id="layout-sidebar-r-half" style="enable-background:new    ;">
	<g id="layout-sidebar-r-half_2_">
		<g>
			<path d="M13.999-0.001h-12c-1.105,0-2,0.896-2,2v11.999c0,1.105,0.895,2.001,2,2.001h12c1.104,0,2-0.896,2-2.001V1.999
				C15.999,0.895,15.103-0.001,13.999-0.001z M10.999,14.999h-9c-0.553,0-1-0.448-1-1.001v-4h10V14.999z M10.999,8.999h-10V4.998h10
				V8.999z M14.999,13.998c0,0.553-0.447,1.001-1,1.001h-2V4.998h3V13.998z M14.999,3.999h-14v-2c0-0.552,0.447-1,1-1h12
				c0.553,0,1,0.448,1,1V3.999z"/>
		</g>
	</g>
</g>
<g id="Layer_1">
</g>
</svg>
