<?xml version="1.0" encoding="iso-8859-1"?>
<!-- Generator: Adobe Illustrator 16.0.0, SVG Export Plug-In . SVG Version: 6.00 Build 0)  -->
<!DOCTYPE svg PUBLIC "-//W3C//DTD SVG 1.1//EN" "http://www.w3.org/Graphics/SVG/1.1/DTD/svg11.dtd">
<svg version="1.1" xmlns="http://www.w3.org/2000/svg" xmlns:xlink="http://www.w3.org/1999/xlink" x="0px" y="0px" width="16px"
	 height="16px" viewBox="0 0 16 16" style="enable-background:new 0 0 16 16;" xml:space="preserve">
<g id="layout-grid" style="enable-background:new    ;">
	<g id="layout-grid_2_">
		<g>
			<path d="M-0.001,9.999h4v-4h-4V9.999z M0.999,6.999h2v2h-2V6.999z M-0.001,15.999h4v-4h-4V15.999z M0.999,12.999h2v2h-2V12.999z
				 M11.999-0.001v4h4v-4H11.999z M14.999,2.999h-2v-2h2V2.999z M11.999,9.999h4v-4h-4V9.999z M12.999,6.999h2v2h-2V6.999z
				 M5.999,3.999h4v-4h-4V3.999z M6.999,0.999h2v2h-2V0.999z M5.999,15.999h4v-4h-4V15.999z M6.999,12.999h2v2h-2V12.999z
				 M11.999,15.999h4v-4h-4V15.999z M12.999,12.999h2v2h-2V12.999z M5.999,9.999h4v-4h-4V9.999z M6.999,6.999h2v2h-2V6.999z
				 M-0.001,3.999h4v-4h-4V3.999z M0.999,0.999h2v2h-2V0.999z"/>
		</g>
	</g>
</g>
<g id="Layer_1">
</g>
</svg>
