<?xml version="1.0" encoding="iso-8859-1"?>
<!-- Generator: Adobe Illustrator 16.0.0, SVG Export Plug-In . SVG Version: 6.00 Build 0)  -->
<!DOCTYPE svg PUBLIC "-//W3C//DTD SVG 1.1//EN" "http://www.w3.org/Graphics/SVG/1.1/DTD/svg11.dtd">
<svg version="1.1" xmlns="http://www.w3.org/2000/svg" xmlns:xlink="http://www.w3.org/1999/xlink" x="0px" y="0px" width="16px"
	 height="16px" viewBox="0 0 16 16" style="enable-background:new 0 0 16 16;" xml:space="preserve">
<g id="layout-wireframe" style="enable-background:new    ;">
	<g id="layout-wireframe_2_">
		<g>
			<path d="M1.999,5.999h12v-4h-12V5.999z M2.999,2.999h10v2h-10V2.999z M1.999,13.999h5v-6h-5V13.999z M2.999,8.999h3v4h-3V8.999z
				 M8.999,13.999h5v-6h-5V13.999z M9.999,8.999h3v4h-3V8.999z M14.999-0.001h-14c-0.552,0-1,0.448-1,1v14c0,0.552,0.448,1,1,1h14
				c0.553,0,1-0.448,1-1v-14C15.999,0.447,15.552-0.001,14.999-0.001z M14.999,14.499c0,0.276-0.225,0.5-0.5,0.5h-13
				c-0.276,0-0.5-0.224-0.5-0.5v-13c0-0.276,0.224-0.5,0.5-0.5h13c0.275,0,0.5,0.224,0.5,0.5V14.499z"/>
		</g>
	</g>
</g>
<g id="Layer_1">
</g>
</svg>
