<?xml version="1.0" encoding="iso-8859-1"?>
<!-- Generator: Adobe Illustrator 16.0.0, SVG Export Plug-In . SVG Version: 6.00 Build 0)  -->
<!DOCTYPE svg PUBLIC "-//W3C//DTD SVG 1.1//EN" "http://www.w3.org/Graphics/SVG/1.1/DTD/svg11.dtd">
<svg version="1.1" xmlns="http://www.w3.org/2000/svg" xmlns:xlink="http://www.w3.org/1999/xlink" x="0px" y="0px" width="17px"
	 height="16px" viewBox="0 0 17 16" style="enable-background:new 0 0 17 16;" xml:space="preserve">
<g id="location-avenue" style="enable-background:new    ;">
	<g id="location-avenue_2_">
		<g>
			<path d="M11.874,2.114c-2.789,0-4.375-2.115-4.375-2.115S5.912,2.114,3.124,2.114c-1.046,0-2.261-0.298-3.625-1.116
				c0,0,0.5,11.5,8,15.001c7.5-3.501,8-15.001,8-15.001C14.136,1.817,12.921,2.114,11.874,2.114z M7.499,14.882
				c-3.467-1.847-5.228-5.697-6.116-8.883H13.62C12.733,9.183,10.974,13.032,7.499,14.882z M1.126,4.999
				C0.919,4.12,0.777,3.321,0.683,2.671c0.821,0.295,1.637,0.443,2.44,0.443c2.043,0,3.532-0.953,4.375-1.687
				c0.844,0.733,2.333,1.687,4.375,1.687c0.805,0,1.621-0.148,2.443-0.444c-0.094,0.65-0.234,1.45-0.441,2.329H1.126z"/>
		</g>
	</g>
</g>
<g id="Layer_1">
</g>
</svg>
