<?xml version="1.0" encoding="iso-8859-1"?>
<!-- Generator: Adobe Illustrator 16.0.0, SVG Export Plug-In . SVG Version: 6.00 Build 0)  -->
<!DOCTYPE svg PUBLIC "-//W3C//DTD SVG 1.1//EN" "http://www.w3.org/Graphics/SVG/1.1/DTD/svg11.dtd">
<svg version="1.1" xmlns="http://www.w3.org/2000/svg" xmlns:xlink="http://www.w3.org/1999/xlink" x="0px" y="0px" width="17px"
	 height="16px" viewBox="0 0 17 16" style="enable-background:new 0 0 17 16;" xml:space="preserve">
<g id="location-map" style="enable-background:new    ;">
	<g id="location-map_1_">
		<g>
			<path d="M3.999,3.999c-0.276,0-0.5,0.224-0.5,0.5v6.5c0,0.276,0.224,0.5,0.5,0.5c0.276,0,0.5-0.224,0.5-0.5v-6.5
				C4.499,4.223,4.275,3.999,3.999,3.999z M7.999,5.499c-0.276,0-0.5,0.224-0.5,0.5v5.5c0,0.276,0.224,0.5,0.5,0.5
				c0.276,0,0.5-0.224,0.5-0.5v-5.5C8.499,5.723,8.274,5.499,7.999,5.499z M11.499,0.499l-3.5,3l-4.5-2l-4,1.989v12.011l4-2l4.5,1
				l3.5-1.999l4,1.999v-11.5L11.499,0.499z M14.499,12.999l-3-1.5l-3.5,2l-4.5-0.999l-3,1.499v-10l3-1.5l4.5,2l3.5-3l3,2V12.999z
				 M11.499,9.999c0,0.276,0.225,0.5,0.5,0.5s0.5-0.224,0.5-0.5v-6.5c0-0.275-0.225-0.5-0.5-0.5s-0.5,0.225-0.5,0.5V9.999z"/>
		</g>
	</g>
</g>
<g id="Layer_1">
</g>
</svg>
