<?xml version="1.0" encoding="iso-8859-1"?>
<!-- Generator: Adobe Illustrator 16.0.0, SVG Export Plug-In . SVG Version: 6.00 Build 0)  -->
<!DOCTYPE svg PUBLIC "-//W3C//DTD SVG 1.1//EN" "http://www.w3.org/Graphics/SVG/1.1/DTD/svg11.dtd">
<svg version="1.1" xmlns="http://www.w3.org/2000/svg" xmlns:xlink="http://www.w3.org/1999/xlink" x="0px" y="0px" width="17px"
	 height="16px" viewBox="0 0 17 16" style="enable-background:new 0 0 17 16;" xml:space="preserve">
<g id="location-sign-street" style="enable-background:new    ;">
	<g id="location-sign-street_2_">
		<g>
			<path d="M10.999,2.999v-2c0-0.552-0.447-1-1-1h-3c-0.553,0-1,0.448-1,1v2h-3l-2,3.5l2,3.5h3v5c0,0.553,0.447,1,1,1h3
				c0.553,0,1-0.447,1-1v-5h3v-7H10.999z M6.999,1.499c0-0.275,0.224-0.5,0.5-0.5h2c0.275,0,0.5,0.225,0.5,0.5v1.5h-3V1.499z
				 M9.999,14.499c0,0.275-0.225,0.5-0.5,0.5h-2c-0.275,0-0.5-0.225-0.5-0.5v-4.5h3V14.499z M12.999,8.999h-9.5l-1.5-2.5l1.5-2.5
				h9.5V8.999z"/>
		</g>
	</g>
</g>
<g id="Layer_1">
</g>
</svg>
