<?xml version="1.0" encoding="iso-8859-1"?>
<!-- Generator: Adobe Illustrator 16.0.0, SVG Export Plug-In . SVG Version: 6.00 Build 0)  -->
<!DOCTYPE svg PUBLIC "-//W3C//DTD SVG 1.1//EN" "http://www.w3.org/Graphics/SVG/1.1/DTD/svg11.dtd">
<svg version="1.1" xmlns="http://www.w3.org/2000/svg" xmlns:xlink="http://www.w3.org/1999/xlink" x="0px" y="0px" width="17px"
	 height="16px" viewBox="0 0 17 16" style="enable-background:new 0 0 17 16;" xml:space="preserve">
<g id="location-pin-plus" style="enable-background:new    ;">
	<g id="location-pin-plus_1_">
		<g>
			<path d="M9.499,5.499h-1.5v-1.5c0-0.275-0.224-0.5-0.5-0.5c-0.275,0-0.5,0.225-0.5,0.5v1.5h-1.5c-0.276,0-0.5,0.225-0.5,0.5
				c0,0.276,0.224,0.5,0.5,0.5h1.5v1.5c0,0.276,0.224,0.5,0.5,0.5c0.276,0,0.5-0.225,0.5-0.5v-1.5h1.5c0.275,0,0.5-0.224,0.5-0.5
				C9.999,5.723,9.774,5.499,9.499,5.499z M10.499,14.499H8.335c1.539-1.895,4.664-6.033,4.664-8.375c0-3.106-2.463-5.624-5.5-5.624
				c-3.037,0-5.5,2.518-5.5,5.624c0,2.342,3.125,6.481,4.664,8.375H4.499c-0.276,0-0.5,0.225-0.5,0.5s0.224,0.5,0.5,0.5h6
				c0.275,0,0.5-0.225,0.5-0.5S10.774,14.499,10.499,14.499z M2.999,6.187c0-2.59,2.015-4.688,4.5-4.688s4.5,2.099,4.5,4.688
				c0,2.587-4.5,7.812-4.5,7.812S2.999,8.774,2.999,6.187z"/>
		</g>
	</g>
</g>
<g id="Layer_1">
</g>
</svg>
