<?xml version="1.0" encoding="iso-8859-1"?>
<!-- Generator: Adobe Illustrator 16.0.0, SVG Export Plug-In . SVG Version: 6.00 Build 0)  -->
<!DOCTYPE svg PUBLIC "-//W3C//DTD SVG 1.1//EN" "http://www.w3.org/Graphics/SVG/1.1/DTD/svg11.dtd">
<svg version="1.1" xmlns="http://www.w3.org/2000/svg" xmlns:xlink="http://www.w3.org/1999/xlink" x="0px" y="0px" width="17px"
	 height="16px" viewBox="0 0 17 16" style="enable-background:new 0 0 17 16;" xml:space="preserve">
<g id="location-pin-map-a" style="enable-background:new    ;">
	<g id="location-pin-map-a_1_">
		<g>
			<path d="M9.999,11.145v0.971c2.348,0.226,4,0.76,4,1.384c0,0.829-2.91,1.5-6.5,1.5c-3.589,0-6.5-0.671-6.5-1.5
				c0-0.624,1.651-1.158,4-1.384v-0.971c-2.911,0.344-5,1.267-5,2.354c0,1.381,3.358,2.5,7.5,2.5c4.143,0,7.5-1.119,7.5-2.5
				C14.999,12.411,12.909,11.488,9.999,11.145z M6.999,8.949v4.55c0,0.276,0.224,0.5,0.5,0.5c0.276,0,0.5-0.224,0.5-0.5v-4.55
				c2.247-0.252,4-2.136,4-4.45c0-2.485-2.016-4.5-4.5-4.5s-4.5,2.015-4.5,4.5C2.999,6.813,4.752,8.697,6.999,8.949z M7.499,0.999
				c1.934,0,3.5,1.566,3.5,3.5c0,1.933-1.566,3.5-3.5,3.5c-1.933,0-3.5-1.567-3.5-3.5C3.999,2.565,5.566,0.999,7.499,0.999z"/>
		</g>
	</g>
</g>
<g id="Layer_1">
</g>
</svg>
