<?xml version="1.0" encoding="iso-8859-1"?>
<!-- Generator: Adobe Illustrator 16.0.0, SVG Export Plug-In . SVG Version: 6.00 Build 0)  -->
<!DOCTYPE svg PUBLIC "-//W3C//DTD SVG 1.1//EN" "http://www.w3.org/Graphics/SVG/1.1/DTD/svg11.dtd">
<svg version="1.1" xmlns="http://www.w3.org/2000/svg" xmlns:xlink="http://www.w3.org/1999/xlink" x="0px" y="0px" width="17px"
	 height="16px" viewBox="0 0 17 16" style="enable-background:new 0 0 17 16;" xml:space="preserve">
<g id="location-pin-check" style="enable-background:new    ;">
	<g id="location-pin-check_2_">
		<g>
			<path d="M6.382,5.144c-0.204-0.203-0.535-0.203-0.739,0c-0.204,0.204-0.204,0.535,0,0.739l1.956,1.955
				c0.007,0.007,0.018,0.004,0.025,0.011c0.002,0.002,0.001,0.005,0.003,0.008c0.187,0.186,0.489,0.186,0.676,0l0.004-0.006
				c0.01-0.008,0.021-0.005,0.029-0.013c0.016-0.015,0.021-0.035,0.035-0.051l4.984-4.984c0.186-0.187,0.186-0.489,0-0.675
				c-0.188-0.187-0.49-0.187-0.676,0L8.022,6.784L6.382,5.144z M12.493,5.999c0,0.021,0.006,0.041,0.006,0.063
				c0,2.796-5,8.438-5,8.438s-5-5.642-5-8.438s2.238-5.063,5-5.063c1.131,0,2.163,0.395,3,1.035V0.831
				c-0.887-0.516-1.902-0.832-3-0.832c-3.313,0-6,2.687-6,6s6,10,6,10s6-6.687,6-10H12.493z"/>
		</g>
	</g>
</g>
<g id="Layer_1">
</g>
</svg>
