<?xml version="1.0" encoding="iso-8859-1"?>
<!-- Generator: Adobe Illustrator 16.0.0, SVG Export Plug-In . SVG Version: 6.00 Build 0)  -->
<!DOCTYPE svg PUBLIC "-//W3C//DTD SVG 1.1//EN" "http://www.w3.org/Graphics/SVG/1.1/DTD/svg11.dtd">
<svg version="1.1" xmlns="http://www.w3.org/2000/svg" xmlns:xlink="http://www.w3.org/1999/xlink" x="0px" y="0px" width="17px"
	 height="16px" viewBox="0 0 17 16" style="enable-background:new 0 0 17 16;" xml:space="preserve">
<g id="location-pin-blank" style="enable-background:new    ;">
	<g id="location-pin-blank_1_">
		<g>
			<path d="M11.999,14.999H8.354c1.656-1.986,5.145-6.471,5.145-9c0-3.313-2.686-6-6-6c-3.313,0-6,2.687-6,6
				c0,2.529,3.488,7.014,5.143,9H2.999c-0.276,0-0.5,0.225-0.5,0.5c0,0.276,0.224,0.5,0.5,0.5h9c0.275,0,0.5-0.224,0.5-0.5
				C12.499,15.224,12.274,14.999,11.999,14.999z M2.499,6.062c0-2.796,2.238-5.063,5-5.063c2.762,0,5,2.267,5,5.063
				s-5,8.438-5,8.438S2.499,8.857,2.499,6.062z"/>
		</g>
	</g>
</g>
<g id="Layer_1">
</g>
</svg>
