<?xml version="1.0" encoding="iso-8859-1"?>
<!-- Generator: Adobe Illustrator 16.0.0, SVG Export Plug-In . SVG Version: 6.00 Build 0)  -->
<!DOCTYPE svg PUBLIC "-//W3C//DTD SVG 1.1//EN" "http://www.w3.org/Graphics/SVG/1.1/DTD/svg11.dtd">
<svg version="1.1" xmlns="http://www.w3.org/2000/svg" xmlns:xlink="http://www.w3.org/1999/xlink" x="0px" y="0px" width="17px"
	 height="16px" viewBox="0 0 17 16" style="enable-background:new 0 0 17 16;" xml:space="preserve">
<g id="location-pin" style="enable-background:new    ;">
	<g id="location-pin_2_">
		<g>
			<path d="M10.499,14.499H8.335c1.539-1.895,4.664-6.033,4.664-8.375c0-3.106-2.463-5.624-5.5-5.624c-3.037,0-5.5,2.518-5.5,5.624
				c0,2.342,3.125,6.481,4.664,8.375H4.499c-0.276,0-0.5,0.225-0.5,0.5s0.224,0.5,0.5,0.5h6c0.275,0,0.5-0.225,0.5-0.5
				S10.774,14.499,10.499,14.499z M2.999,6.187c0-2.59,2.015-4.688,4.5-4.688s4.5,2.099,4.5,4.688c0,2.587-4.5,7.812-4.5,7.812
				S2.999,8.774,2.999,6.187z M7.499,3.5c-1.38,0-2.5,1.12-2.5,2.5c0,1.381,1.119,2.5,2.5,2.5c1.381,0,2.5-1.119,2.5-2.5
				C9.999,4.62,8.88,3.5,7.499,3.5z M7.499,7.5c-0.828,0-1.5-0.671-1.5-1.5s0.671-1.5,1.5-1.5c0.829,0,1.5,0.671,1.5,1.5
				S8.327,7.5,7.499,7.5z"/>
		</g>
	</g>
</g>
<g id="Layer_1">
</g>
</svg>
