<?xml version="1.0" encoding="iso-8859-1"?>
<!-- Generator: Adobe Illustrator 16.0.0, SVG Export Plug-In . SVG Version: 6.00 Build 0)  -->
<!DOCTYPE svg PUBLIC "-//W3C//DTD SVG 1.1//EN" "http://www.w3.org/Graphics/SVG/1.1/DTD/svg11.dtd">
<svg version="1.1" xmlns="http://www.w3.org/2000/svg" xmlns:xlink="http://www.w3.org/1999/xlink" x="0px" y="0px" width="17px"
	 height="16px" viewBox="0 0 17 16" style="enable-background:new 0 0 17 16;" xml:space="preserve">
<g id="location-compass" style="enable-background:new    ;">
	<g id="location-compass_1_">
		<g>
			<path d="M7.5-0.001c-4.419,0-8,3.582-8,8c0,4.418,3.582,8,8,8c4.417,0,8-3.582,8-8C15.499,3.581,11.917-0.001,7.5-0.001z
				 M7.5,14.999c-3.867,0-7-3.135-7-7c0-3.865,3.134-7,7-7c3.865,0,7,3.135,7,7C14.499,11.864,11.364,14.999,7.5,14.999z
				 M3.506,12.007l5.323-2.666l2.662-5.335L6.168,6.672L3.506,12.007z M9.829,5.673L8.405,8.239l-1.14-1.14L9.829,5.673z
				 M7.743,8.907L5.17,10.339l1.428-2.575L7.743,8.907z"/>
		</g>
	</g>
</g>
<g id="Layer_1">
</g>
</svg>
