<?xml version="1.0" encoding="iso-8859-1"?>
<!-- Generator: Adobe Illustrator 16.0.0, SVG Export Plug-In . SVG Version: 6.00 Build 0)  -->
<!DOCTYPE svg PUBLIC "-//W3C//DTD SVG 1.1//EN" "http://www.w3.org/Graphics/SVG/1.1/DTD/svg11.dtd">
<svg version="1.1" xmlns="http://www.w3.org/2000/svg" xmlns:xlink="http://www.w3.org/1999/xlink" x="0px" y="0px" width="17px"
	 height="16px" viewBox="0 0 17 16" style="enable-background:new 0 0 17 16;" xml:space="preserve">
<g id="location-pin-map" style="enable-background:new    ;">
	<g id="location-pin-map_1_">
		<g>
			<path d="M2.499,10.997h-1l-2,5h5v-1h-3.5L2.499,10.997z M7.499-0.001c-3.313,0-6,2.686-6,6c0,3.313,6,10,6,10s6-6.687,6-10
				C13.499,2.685,10.813-0.001,7.499-0.001z M2.499,5.999c0-2.757,2.243-5,5-5c2.758,0,5,2.243,5,5c0,1.906-2.815,5.883-5,8.475
				C5.315,11.882,2.499,7.905,2.499,5.999z M13.499,10.997h-1l1.5,4h-3.5v1h5L13.499,10.997z M7.499,2.997c-1.104,0-2,0.896-2,2
				c0,1.105,0.896,2,2,2s2-0.895,2-2C9.499,3.893,8.604,2.997,7.499,2.997z M7.499,5.999c-0.552,0-1-0.448-1-1c0-0.553,0.448-1,1-1
				c0.553,0,1,0.447,1,1C8.499,5.551,8.052,5.999,7.499,5.999z"/>
		</g>
	</g>
</g>
<g id="Layer_1">
</g>
</svg>
