<?xml version="1.0" encoding="iso-8859-1"?>
<!-- Generator: Adobe Illustrator 16.0.0, SVG Export Plug-In . SVG Version: 6.00 Build 0)  -->
<!DOCTYPE svg PUBLIC "-//W3C//DTD SVG 1.1//EN" "http://www.w3.org/Graphics/SVG/1.1/DTD/svg11.dtd">
<svg version="1.1" xmlns="http://www.w3.org/2000/svg" xmlns:xlink="http://www.w3.org/1999/xlink" x="0px" y="0px" width="17px"
	 height="16px" viewBox="0 0 17 16" style="enable-background:new 0 0 17 16;" xml:space="preserve">
<g id="location-alt-pin" style="enable-background:new    ;">
	<g id="location-alt-pin_1_">
		<g>
			<path d="M7.499-0.001c-3.313,0-6,2.687-6,6c0,3.314,6,10,6,10s6-6.686,6-10C13.499,2.686,10.813-0.001,7.499-0.001z M2.499,5.999
				c0-2.762,2.238-5,5-5c2.762,0,5,2.238,5,5s-5,8.5-5,8.5S2.499,8.761,2.499,5.999z M7.499,2.999c-1.656,0-3,1.344-3,3
				c0,1.657,1.343,3,3,3c1.657,0,3-1.343,3-3C10.499,4.343,9.155,2.999,7.499,2.999z M7.499,7.999c-1.104,0-2-0.896-2-2
				c0-1.104,0.896-1.999,2-1.999s2,0.896,2,1.999C9.499,7.104,8.603,7.999,7.499,7.999z"/>
		</g>
	</g>
</g>
<g id="Layer_1">
</g>
</svg>
