<?xml version="1.0" encoding="iso-8859-1"?>
<!-- Generator: Adobe Illustrator 16.0.0, SVG Export Plug-In . SVG Version: 6.00 Build 0)  -->
<!DOCTYPE svg PUBLIC "-//W3C//DTD SVG 1.1//EN" "http://www.w3.org/Graphics/SVG/1.1/DTD/svg11.dtd">
<svg version="1.1" xmlns="http://www.w3.org/2000/svg" xmlns:xlink="http://www.w3.org/1999/xlink" x="0px" y="0px" width="16px"
	 height="17px" viewBox="0 0 16 17" style="enable-background:new 0 0 16 17;" xml:space="preserve">
<g id="logo-pinterest" style="enable-background:new    ;">
	<g id="logo-pinterest_1_">
		<g>
			<path d="M7-0.504c-4.419,0-8.003,3.583-8.003,8.003c0,3.277,1.971,6.093,4.791,7.33c-0.022-0.56-0.004-1.229,0.139-1.838
				c0.154-0.65,1.03-4.36,1.03-4.36S4.7,8.119,4.7,7.364c0-1.186,0.688-2.071,1.543-2.071c0.728,0,1.08,0.547,1.08,1.201
				c0,0.731-0.467,1.826-0.707,2.84c-0.201,0.849,0.426,1.542,1.264,1.542c1.516,0,2.538-1.948,2.538-4.255
				c0-1.754-1.182-3.067-3.331-3.067c-2.428,0-3.94,1.811-3.94,3.832c0,0.697,0.206,1.189,0.528,1.57
				C3.823,9.131,3.843,9.201,3.79,9.402c-0.039,0.146-0.127,0.502-0.163,0.642c-0.053,0.203-0.218,0.275-0.401,0.2
				C2.108,9.788,1.587,8.563,1.587,7.188c0-2.274,1.917-4.999,5.719-4.999c3.057,0,5.067,2.21,5.067,4.584
				c0,3.139-1.744,5.484-4.319,5.484c-0.863,0-1.676-0.467-1.954-0.997c0,0-0.465,1.844-0.563,2.199
				c-0.17,0.617-0.502,1.234-0.806,1.715c0.72,0.213,1.48,0.328,2.268,0.328c4.42,0,8.002-3.583,8.002-8.003S11.42-0.504,7-0.504z"
				/>
		</g>
	</g>
</g>
<g id="Layer_1">
</g>
</svg>
