<?xml version="1.0" encoding="iso-8859-1"?>
<!-- Generator: Adobe Illustrator 16.0.0, SVG Export Plug-In . SVG Version: 6.00 Build 0)  -->
<!DOCTYPE svg PUBLIC "-//W3C//DTD SVG 1.1//EN" "http://www.w3.org/Graphics/SVG/1.1/DTD/svg11.dtd">
<svg version="1.1" xmlns="http://www.w3.org/2000/svg" xmlns:xlink="http://www.w3.org/1999/xlink" x="0px" y="0px" width="16px"
	 height="17px" viewBox="0 0 16 17" style="enable-background:new 0 0 16 17;" xml:space="preserve">
<g id="logo-path" style="enable-background:new    ;">
	<g id="logo-path_2_">
		<g>
			<path d="M11.176,0.282c0,0-6.804-2.616-10.824,1.737c-3.096,4.043,0.069,7.778,0.069,7.778l2.103-1.79
				c0,0-1.571-1.791-0.346-3.779c1.617-2.496,4.875-2.298,4.875-2.298s5.198-0.022,5.104,4.221C11.58,9.974,7.283,8.736,7.283,8.736
				V3.941H4.372v8.44c-0.414,1.109-1.46,0.675-2.241-0.088v2.496c0,0,1.571,1.128,3.281,0.53c1.71-0.596,1.895-1.966,1.895-1.966
				v-2.476c0,0,4.829,1.834,7.323-3.115C16.432,2.328,11.176,0.282,11.176,0.282z"/>
		</g>
	</g>
</g>
<g id="Layer_1">
</g>
</svg>
