<?xml version="1.0" encoding="iso-8859-1"?>
<!-- Generator: Adobe Illustrator 16.0.0, SVG Export Plug-In . SVG Version: 6.00 Build 0)  -->
<!DOCTYPE svg PUBLIC "-//W3C//DTD SVG 1.1//EN" "http://www.w3.org/Graphics/SVG/1.1/DTD/svg11.dtd">
<svg version="1.1" xmlns="http://www.w3.org/2000/svg" xmlns:xlink="http://www.w3.org/1999/xlink" x="0px" y="0px" width="16px"
	 height="17px" viewBox="0 0 16 17" style="enable-background:new 0 0 16 17;" xml:space="preserve">
<g id="logo-picasa" style="enable-background:new    ;">
	<g id="logo-picasa_2_">
		<g>
			<path d="M5.433,1.5C3.021,2.48,1.323,4.795,1.323,7.499c0,0.605,0.112,1.18,0.271,1.735l5.891-5.735L5.433,1.5z M11.081,1.765
				c-0.926-0.473-1.965-0.766-3.082-0.766c-0.622,0-1.211,0.109-1.783,0.264l4.865,4.736V1.765z M5.432,13.498
				c0.791,0.321,1.657,0.501,2.567,0.501c2.568,0,4.773-1.429,5.889-3.5H5.432V13.498z M4.918,13.233V6.999l-3.08,2.999
				C2.439,11.401,3.544,12.531,4.918,13.233z M11.593,2.036v7.963h2.566c0.33-0.771,0.516-1.613,0.516-2.5
				C14.675,5.2,13.442,3.192,11.593,2.036z"/>
		</g>
	</g>
</g>
<g id="Layer_1">
</g>
</svg>
