<?xml version="1.0" encoding="iso-8859-1"?>
<!-- Generator: Adobe Illustrator 16.0.0, SVG Export Plug-In . SVG Version: 6.00 Build 0)  -->
<!DOCTYPE svg PUBLIC "-//W3C//DTD SVG 1.1//EN" "http://www.w3.org/Graphics/SVG/1.1/DTD/svg11.dtd">
<svg version="1.1" xmlns="http://www.w3.org/2000/svg" xmlns:xlink="http://www.w3.org/1999/xlink" x="0px" y="0px" width="16px"
	 height="17px" viewBox="0 0 16 17" style="enable-background:new 0 0 16 17;" xml:space="preserve">
<g id="logo-rdio" style="enable-background:new    ;">
	<g id="logo-rdio_2_">
		<g>
			<path d="M15,4.499c-0.979,0-3.018-1.063-4.32-1.803c-0.195-0.165-0.396-0.325-0.611-0.469L10,1.999H9.695
				C9.633,1.962,9.563,1.936,9.5,1.901v6.098H9.311C8.945,8.83,8.068,9.556,6.906,9.854C5.146,10.308,3.427,9.62,3.064,8.319
				c-0.362-1.302,0.77-2.724,2.529-3.176C6.457,4.921,7.31,4.976,8,5.241V1.28c-0.633-0.18-1.303-0.281-2-0.281c-3.5,0-7,3.5-7,6.5
				c0,3.5,4,6.5,7.5,6.5c3,0,6.5-3.5,6.5-6.5c0-0.354-0.053-0.694-0.111-1.033C14.002,5.733,15,4.499,15,4.499z"/>
		</g>
	</g>
</g>
<g id="Layer_1">
</g>
</svg>
