<?xml version="1.0" encoding="iso-8859-1"?>
<!-- Generator: Adobe Illustrator 16.0.0, SVG Export Plug-In . SVG Version: 6.00 Build 0)  -->
<!DOCTYPE svg PUBLIC "-//W3C//DTD SVG 1.1//EN" "http://www.w3.org/Graphics/SVG/1.1/DTD/svg11.dtd">
<svg version="1.1" xmlns="http://www.w3.org/2000/svg" xmlns:xlink="http://www.w3.org/1999/xlink" x="0px" y="0px" width="16px"
	 height="17px" viewBox="0 0 16 17" style="enable-background:new 0 0 16 17;" xml:space="preserve">
<g id="logo-twitter" style="enable-background:new    ;">
	<g id="logo-twitter_2_">
		<g>
			<path d="M13.5,2.997l1-1.995L13,1.999l-0.293,0.146c-0.596-0.694-1.469-1.144-2.457-1.144C8.455,1.001,7,2.204,7,3.995
				c0,0.243,0.032,0.728,0.083,0.956L7,4.992c0,0-6.5-0.997-7-3.491c0,0-1.5,2.494,1,4.488c0,0-1,0.499-1.5,0c0,0,0,1.497,2.5,2.993
				c0,0-1,0.499-1.5,0c0,0,2,1.995,3,1.995c0,0,0,1.496-4.5,1.496c0,0,5.689,3.739,11-0.498c2.699-2.155,3.357-4.884,3.393-6.943
				C13.455,4.778,13.5,4.517,13.5,4.244V3.995L15,2.498L13.5,2.997z"/>
		</g>
	</g>
</g>
<g id="Layer_1">
</g>
</svg>
