<?xml version="1.0" encoding="iso-8859-1"?>
<!-- Generator: Adobe Illustrator 16.0.0, SVG Export Plug-In . SVG Version: 6.00 Build 0)  -->
<!DOCTYPE svg PUBLIC "-//W3C//DTD SVG 1.1//EN" "http://www.w3.org/Graphics/SVG/1.1/DTD/svg11.dtd">
<svg version="1.1" xmlns="http://www.w3.org/2000/svg" xmlns:xlink="http://www.w3.org/1999/xlink" x="0px" y="0px" width="16px"
	 height="17px" viewBox="0 0 16 17" style="enable-background:new 0 0 16 17;" xml:space="preserve">
<g id="logo-dribbble" style="enable-background:new    ;">
	<g id="logo-dribbble_1_">
		<g>
			<path d="M7.999,0c-4.143,0-7.5,3.357-7.5,7.5c0,4.142,3.357,7.5,7.5,7.5s7.5-3.357,7.5-7.5C15.499,3.357,12.142,0,7.999,0z
				 M13.988,7.378c-1.593-0.406-2.984-0.479-4.19-0.325C9.593,6.583,9.372,6.103,9.12,5.611c1.066-0.493,2.217-1.136,3.443-1.965
				C13.422,4.662,13.958,5.953,13.988,7.378z M7.999,1.5c1.395,0,2.66,0.495,3.679,1.292c-0.473,0.408-1.49,1.183-3.045,1.917
				C8.06,3.698,7.385,2.672,6.578,1.687C7.036,1.576,7.508,1.5,7.999,1.5z M5.448,2.088c0.455,0.618,1.205,1.715,1.995,3.116
				c-1.73,0.62-3.736,0.883-5.258,0.869C2.622,4.307,3.834,2.851,5.448,2.088z M1.999,7.5c0-0.117,0.019-0.229,0.025-0.344
				c1.14,0.09,3.192,0.009,5.916-1.043C8.138,6.491,8.331,6.899,8.523,7.31c-2.869,0.814-4.473,2.878-5.141,3.98
				C2.531,10.253,1.999,8.944,1.999,7.5z M7.999,13.499c-1.437,0-2.738-0.525-3.771-1.367c1.32-2.227,3.063-3.314,4.748-3.781
				c0.598,1.428,1.125,2.986,1.427,4.641C9.667,13.313,8.855,13.499,7.999,13.499z M11.478,12.372
				c-0.078-0.441-0.419-2.123-1.245-4.266c1.582-0.193,2.968,0.049,3.703,0.232C13.7,10.001,12.783,11.438,11.478,12.372z"/>
		</g>
	</g>
</g>
<g id="Layer_1">
</g>
</svg>
