<?xml version="1.0" encoding="iso-8859-1"?>
<!-- Generator: Adobe Illustrator 16.0.0, SVG Export Plug-In . SVG Version: 6.00 Build 0)  -->
<!DOCTYPE svg PUBLIC "-//W3C//DTD SVG 1.1//EN" "http://www.w3.org/Graphics/SVG/1.1/DTD/svg11.dtd">
<svg version="1.1" xmlns="http://www.w3.org/2000/svg" xmlns:xlink="http://www.w3.org/1999/xlink" x="0px" y="0px" width="16px"
	 height="17px" viewBox="0 0 16 17" style="enable-background:new 0 0 16 17;" xml:space="preserve">
<g id="logo-evernote" style="enable-background:new    ;">
	<g id="logo-evernote_1_">
		<g>
			<path d="M2.603,2.595C2.603,2.595,2.603,2.595,2.603,2.595h1.514c0.087,0,0.157-0.07,0.157-0.155
				c0-0.001-0.019-1.289-0.019-1.646V0.789c0-0.295,0.062-0.551,0.171-0.766l0.051-0.097c-0.006,0.001-0.011,0.004-0.017,0.01
				L1.52,2.831C1.514,2.836,1.51,2.842,1.509,2.849c0.061-0.03,0.144-0.071,0.156-0.076C1.92,2.657,2.231,2.595,2.603,2.595z
				 M14.374,2.279c-0.12-0.639-0.502-0.953-0.849-1.077c-0.373-0.134-1.13-0.272-2.08-0.384c-0.765-0.09-1.663-0.082-2.206-0.065
				C9.174,0.31,8.86-0.096,8.511-0.235c-0.933-0.373-2.375-0.283-2.745-0.18c-0.294,0.081-0.62,0.249-0.801,0.507
				c-0.122,0.172-0.2,0.393-0.201,0.701c0,0.174,0.004,0.585,0.009,0.95c0.004,0.366,0.009,0.694,0.009,0.696
				c0,0.326-0.267,0.592-0.596,0.592H2.673c-0.323,0-0.569,0.054-0.758,0.139s-0.322,0.2-0.424,0.335
				C1.29,3.774,1.254,4.107,1.255,4.446c0,0,0.003,0.277,0.07,0.814c0.056,0.415,0.509,3.315,0.94,4.198
				c0.167,0.343,0.278,0.486,0.606,0.638c0.731,0.31,2.4,0.656,3.183,0.755c0.781,0.1,1.271,0.308,1.563-0.301
				c0.001-0.002,0.059-0.151,0.138-0.371c0.253-0.764,0.289-1.44,0.289-1.931c0-0.049,0.073-0.052,0.073,0
				c0,0.346-0.066,1.571,0.865,1.899c0.368,0.129,1.131,0.244,1.905,0.335c0.701,0.08,1.21,0.354,1.21,2.14
				c0,1.086-0.23,1.234-1.432,1.234c-0.973,0-1.345,0.025-1.345-0.742c0-0.621,0.619-0.556,1.077-0.556
				c0.204,0,0.056-0.151,0.056-0.535c0-0.381,0.24-0.602,0.014-0.606c-1.585-0.044-2.517-0.002-2.517,1.967
				c0,1.786,0.688,2.118,2.937,2.118c1.764,0,2.385-0.058,3.113-2.301c0.144-0.443,0.492-1.795,0.703-4.063
				C14.839,7.703,14.579,3.372,14.374,2.279z M11.301,7.066c-0.219-0.008-0.428,0.007-0.623,0.037
				c0.055-0.44,0.238-0.982,0.888-0.96c0.719,0.025,0.819,0.7,0.821,1.157C12.084,7.166,11.709,7.08,11.301,7.066z"/>
		</g>
	</g>
</g>
<g id="Layer_1">
</g>
</svg>
