<?xml version="1.0" encoding="iso-8859-1"?>
<!-- Generator: Adobe Illustrator 16.0.0, SVG Export Plug-In . SVG Version: 6.00 Build 0)  -->
<!DOCTYPE svg PUBLIC "-//W3C//DTD SVG 1.1//EN" "http://www.w3.org/Graphics/SVG/1.1/DTD/svg11.dtd">
<svg version="1.1" xmlns="http://www.w3.org/2000/svg" xmlns:xlink="http://www.w3.org/1999/xlink" x="0px" y="0px" width="16px"
	 height="17px" viewBox="0 0 16 17" style="enable-background:new 0 0 16 17;" xml:space="preserve">
<g id="logo-amazon" style="enable-background:new    ;">
	<g id="logo-amazon_2_">
		<g>
			<path d="M6.322,10.449c0.447,0,0.894-0.1,1.303-0.298c0.41-0.198,0.782-0.497,1.154-0.893c0,0.067,0.634,0.796,0.739,0.874
				c0.108,0.086,0.207,0.16,0.296,0.226c0.149,0.112,0.236,0.205,0.477,0c0.253-0.216,0.548-0.572,0.856-0.837
				c0.32-0.274,0.244-0.441,0.048-0.569c-0.411-0.267-0.524-0.844-0.524-1.871l-0.03-2.58c0-1.058-0.074-1.752-0.261-2.148
				S9.858,1.66,9.412,1.395C8.965,1.13,8.258,0.999,7.327,0.999c-1.005,0-1.787,0.231-2.308,0.628c-0.363,0.3-0.654,0.71-0.86,1.223
				C3.918,3.448,3.98,3.584,4.348,3.663c0.299,0.064,0.706,0.15,1.012,0.217c0.378,0.08,0.496-0.084,0.592-0.294
				c0.105-0.227,0.221-0.395,0.369-0.505c0.187-0.166,0.484-0.231,0.856-0.231c0.558,0,0.931,0.1,1.117,0.297
				c0.224,0.199,0.298,0.235,0.298,0.698v0.265C8.221,4.274,7.55,4.472,6.583,4.67C5.875,4.835,5.317,5.034,4.908,5.232
				c-0.373,0.231-0.671,0.79-0.895,1.187C3.828,6.814,3.716,7.277,3.716,7.773c0,0.792,0.224,1.42,0.708,1.95
				C4.87,10.218,5.503,10.449,6.322,10.449z M6.021,6.625c0.186-0.132,0.699-0.47,1.258-0.603c0.596-0.132,1.055-0.001,1.314-0.101
				v0.463c0,0.594,0,0.958-0.074,1.189C8.444,7.872,8.295,8.136,8.035,8.367C7.699,8.632,7.327,8.764,6.955,8.764
				c-0.335,0-0.633-0.1-0.819-0.364C5.912,8.169,5.8,7.872,5.8,7.542C5.8,7.21,5.723,6.857,6.021,6.625z M12.458,11.418
				c-1.071,0.283-2.796,1.178-5.097,1.178c-0.875,0-3.656-1.001-5.389-2.036c-0.091-0.051-0.265-0.1-0.399,0.038
				c-0.101,0.102-0.159,0.344,0.042,0.515c1.626,1.521,3.724,2.864,5.769,2.887c2.046,0.023,4.8-1.414,5.292-1.84
				c0.104-0.083,0.174-0.21,0.173-0.344C12.846,11.578,12.659,11.418,12.458,11.418z M14.472,10.107l-0.007-0.009
				c-0.012-0.013-0.153-0.24-0.997-0.244c-0.872,0.002-1.376,0.26-1.702,0.503c-0.267,0.205-0.183,0.453-0.074,0.541
				c0.094,0.078,1.57-0.111,1.805,0c0.006,0.003,0.01,0.004,0.012,0.006c-0.026-0.092,0.093,0.042-0.141,0.792
				c-0.085,0.276-0.188,0.555-0.256,0.738c-0.01,0.027-0.081,0.224,0.064,0.363c0.106,0.103,0.291,0.124,0.467-0.017
				C14.806,11.709,14.472,10.107,14.472,10.107z"/>
		</g>
	</g>
</g>
<g id="Layer_1">
</g>
</svg>
