<?xml version="1.0" encoding="iso-8859-1"?>
<!-- Generator: Adobe Illustrator 16.0.0, SVG Export Plug-In . SVG Version: 6.00 Build 0)  -->
<!DOCTYPE svg PUBLIC "-//W3C//DTD SVG 1.1//EN" "http://www.w3.org/Graphics/SVG/1.1/DTD/svg11.dtd">
<svg version="1.1" xmlns="http://www.w3.org/2000/svg" xmlns:xlink="http://www.w3.org/1999/xlink" x="0px" y="0px" width="16px"
	 height="17px" viewBox="0 0 16 17" style="enable-background:new 0 0 16 17;" xml:space="preserve">
<g id="logo-vimeo" style="enable-background:new    ;">
	<g id="logo-vimeo_1_">
		<g>
			<path d="M14.705,1.179c-0.994-1.182-2.729-0.552-3.531,0c-0.42,0.157-2.376,1.729-3.026,2.516
				C7.498,4.483,9.316,4.317,9.66,4.199s1.836,0.243,0.506,2.014c-1.514,2.013-1.514,2.013-2.523,3.02
				c-0.504,0.503-1.285-0.211-1.514-1.51C5.9,6.423,6.083,1.997,5.625,1.682C5.052,0.619,3.61,1.286,3.61,1.286
				C3.266,1.561-0.428,3.695-0.933,4.703C-1.341,5.516,0.129,5.43,0.581,5.206c1.009-0.503,1.513-1.007,1.513,0.503
				c0,0.87,0.207,6.715,1.009,8.054c0.803,1.339,3.258,0.416,3.258,0.416s6.327-4.946,7.841-8.47
				C15.09,3.64,15.209,2.185,14.705,1.179z"/>
		</g>
	</g>
</g>
<g id="Layer_1">
</g>
</svg>
