<?xml version="1.0" encoding="iso-8859-1"?>
<!-- Generator: Adobe Illustrator 16.0.0, SVG Export Plug-In . SVG Version: 6.00 Build 0)  -->
<!DOCTYPE svg PUBLIC "-//W3C//DTD SVG 1.1//EN" "http://www.w3.org/Graphics/SVG/1.1/DTD/svg11.dtd">
<svg version="1.1" xmlns="http://www.w3.org/2000/svg" xmlns:xlink="http://www.w3.org/1999/xlink" x="0px" y="0px" width="16px"
	 height="17px" viewBox="0 0 16 17" style="enable-background:new 0 0 16 17;" xml:space="preserve">
<g id="logo-windows" style="enable-background:new    ;">
	<g id="logo-windows_1_">
		<g>
			<path d="M2.277,7.466l-1.279,5.045c1.735-0.824,3.209-1.116,5.163,0.21c0.263-1.013,1.156-4.479,1.325-5.138
				C5.438,5.958,2.827,7.167,2.277,7.466z M7.781,6.422c0.262-1.01,1.039-4.043,1.303-5.067V1.352c0,0-0.97-0.587-1.637-0.748
				C7.19,0.547,6.026,0.199,3.881,1.225L2.593,6.207C4.353,5.366,5.794,5.08,7.781,6.422z M8.392,8.216l-1.277,5.04
				c-0.002-0.001,1.418,1.159,2.494,1.232c0.679,0.046,1.494-0.101,2.516-0.538l1.231-4.89C12.159,9.495,10.012,9.907,8.392,8.216z
				 M12.612,3.227c-1.351-0.094-2.234-0.845-2.625-1.24L8.693,7.076C8.697,7.08,8.702,7.084,8.707,7.087
				c1.779,1.564,3.595,1.359,5.009,0.661c0-0.003,0.001-0.006,0.001-0.009c0.002,0,0.004-0.001,0.008-0.002l1.274-4.995
				C14.088,3.155,13.292,3.274,12.612,3.227z"/>
		</g>
	</g>
</g>
<g id="Layer_1">
</g>
</svg>
