<?xml version="1.0" encoding="iso-8859-1"?>
<!-- Generator: Adobe Illustrator 16.0.0, SVG Export Plug-In . SVG Version: 6.00 Build 0)  -->
<!DOCTYPE svg PUBLIC "-//W3C//DTD SVG 1.1//EN" "http://www.w3.org/Graphics/SVG/1.1/DTD/svg11.dtd">
<svg version="1.1" xmlns="http://www.w3.org/2000/svg" xmlns:xlink="http://www.w3.org/1999/xlink" x="0px" y="0px" width="16px"
	 height="17px" viewBox="0 0 16 17" style="enable-background:new 0 0 16 17;" xml:space="preserve">
<g id="logo-musio" style="enable-background:new    ;">
	<g id="logo-musio_1_">
		<g>
			<path d="M14.052,1.061c-1.734-0.354-3.859,1.241-5.916,3.063c-1.904-1.647-3.88-3.125-5.574-3.125
				c-0.181,0-0.358,0.018-0.527,0.053C0.271,1.408-0.068,2.814-0.004,3.459v7.758c-0.015,0.202-0.06,1.305,0.613,2.068
				C1.026,13.759,1.614,14,2.355,14h11.233c0.742,0,1.329-0.239,1.746-0.715c0.672-0.763,0.639-1.684,0.624-1.887v-0.399h0.033
				l0.009-7.547C16.065,2.778,15.74,1.41,14.052,1.061z M6.099,13c0.236-1.057,1.018-2.001,2.393-2.001
				c1.377,0,2.158,0.944,2.395,2.001H6.099z M14.581,12.626c-0.141,0.16-0.397,0.375-0.992,0.375h-1.697
				c-0.288-1.713-1.577-3.002-3.4-3.002c-1.826,0-3.111,1.289-3.397,3.002H2.355c-0.595,0-0.853-0.215-0.994-0.375
				c-0.423-0.48-0.369-1.302-0.366-1.337l0.002-0.036v-0.036V3.459v-0.05L0.993,3.358C0.992,3.348,0.903,2.301,2.235,2.03
				C2.339,2.01,2.449,1.998,2.562,1.998c1.435,0,3.409,1.558,5.15,3.082c0.989,0.864,2.827,2.474,4.742,2.474
				c0.948,0,1.786-0.382,2.503-1.142v4.986v0.037l0.003,0.036C14.968,11.582,14.987,12.165,14.581,12.626z M15.041,3.404
				l-0.008,1.234h-0.072l0.023,0.018c-0.7,1.277-1.527,1.897-2.53,1.897c-1.28,0-2.637-1.002-3.569-1.788
				c1.271-1.127,3.531-3.033,4.977-2.733C15.061,2.28,15.057,3.183,15.041,3.404z"/>
		</g>
	</g>
</g>
<g id="Layer_1">
</g>
</svg>
