<?xml version="1.0" encoding="iso-8859-1"?>
<!-- Generator: Adobe Illustrator 16.0.0, SVG Export Plug-In . SVG Version: 6.00 Build 0)  -->
<!DOCTYPE svg PUBLIC "-//W3C//DTD SVG 1.1//EN" "http://www.w3.org/Graphics/SVG/1.1/DTD/svg11.dtd">
<svg version="1.1" xmlns="http://www.w3.org/2000/svg" xmlns:xlink="http://www.w3.org/1999/xlink" x="0px" y="0px" width="16px"
	 height="17px" viewBox="0 0 16 17" style="enable-background:new 0 0 16 17;" xml:space="preserve">
<g id="logo-dropbox" style="enable-background:new    ;">
	<g id="logo-dropbox_2_">
		<g>
			<path d="M8.499,8.499l3,2.5l4.5-3l-3.5-2L8.499,8.499z M8.499,9.499h-0.5l-3.5,2l-1.5-1v1l5,3.5l5-3.5v-0.667l-1.5,1.167
				L8.499,9.499z M4.499,10.999l3.5-2.5l-4.5-3l-3.5,2.5L4.499,10.999z M11.499-0.001l-3.5,2.5l4.5,3.5l3.5-3L11.499-0.001z
				 M-0.001,2.999l3.5,2.5l4.5-3l-3.5-2.5L-0.001,2.999z"/>
		</g>
	</g>
</g>
<g id="Layer_1">
</g>
</svg>
