<?xml version="1.0" encoding="iso-8859-1"?>
<!-- Generator: Adobe Illustrator 16.0.0, SVG Export Plug-In . SVG Version: 6.00 Build 0)  -->
<!DOCTYPE svg PUBLIC "-//W3C//DTD SVG 1.1//EN" "http://www.w3.org/Graphics/SVG/1.1/DTD/svg11.dtd">
<svg version="1.1" xmlns="http://www.w3.org/2000/svg" xmlns:xlink="http://www.w3.org/1999/xlink" x="0px" y="0px" width="16px"
	 height="17px" viewBox="0 0 16 17" style="enable-background:new 0 0 16 17;" xml:space="preserve">
<g id="logo-paypal" style="enable-background:new    ;">
	<g id="logo-paypal_2_">
		<g>
			<path d="M13.554,3.241c-0.22-0.42-0.539-0.763-0.956-1.024c-0.428-0.266-0.929-0.45-1.51-0.559
				c-0.583-0.106-1.265-0.16-2.048-0.16H5.414c-0.375,0-0.748,0.297-0.833,0.662L2.13,12.835C2.045,13.201,2.282,13.5,2.655,13.5
				h1.742c0.374,0,0.747-0.299,0.831-0.665l0.597-2.587c0.084-0.364,0.457-0.663,0.831-0.663h0.497c2.123,0,3.775-0.437,4.958-1.313
				c1.183-0.874,1.774-2.025,1.774-3.455C13.885,4.188,13.774,3.664,13.554,3.241z M10.587,5.091c0,0.709-0.264,1.256-0.786,1.64
				C9.332,7.073,8.69,7.256,7.89,7.292L7.178,7.307c-0.374,0-0.61-0.299-0.528-0.664l0.523-2.267
				c0.085-0.365,0.458-0.663,0.831-0.663h0.569c0.665,0,1.169,0.113,1.507,0.34C10.714,4.472,10.587,5.627,10.587,5.091z"/>
		</g>
	</g>
</g>
<g id="Layer_1">
</g>
</svg>
