<?xml version="1.0" encoding="iso-8859-1"?>
<!-- Generator: Adobe Illustrator 16.0.0, SVG Export Plug-In . SVG Version: 6.00 Build 0)  -->
<!DOCTYPE svg PUBLIC "-//W3C//DTD SVG 1.1//EN" "http://www.w3.org/Graphics/SVG/1.1/DTD/svg11.dtd">
<svg version="1.1" xmlns="http://www.w3.org/2000/svg" xmlns:xlink="http://www.w3.org/1999/xlink" x="0px" y="0px" width="16px"
	 height="17px" viewBox="0 0 16 17" style="enable-background:new 0 0 16 17;" xml:space="preserve">
<g id="logo-squarespace" style="enable-background:new    ;">
	<g id="logo-squarespace_1_">
		<g>
			<path d="M10.18,4.713c0.302-0.307,0.302-0.806,0-1.113c-0.301-0.308-0.789-0.308-1.09,0L4.182,8.613
				c-0.603,0.616-1.579,0.616-2.181,0C1.398,7.998,1.398,7,2.001,6.385l4.813-4.917c-0.602-0.615-1.579-0.615-2.181,0L0.91,5.271
				c-1.205,1.231-1.205,3.226,0,4.457c1.205,1.231,3.157,1.231,4.362,0L10.18,4.713z M2.546,8.057c0.301,0.308,0.789,0.308,1.09,0
				l4.908-5.013c0.603-0.615,1.579-0.615,2.181,0c0.302,0.308,0.79,0.308,1.091,0c0.302-0.309,0.302-0.807,0-1.114
				c-1.204-1.23-3.157-1.23-4.362,0L2.546,6.942C2.245,7.25,2.245,7.749,2.546,8.057z M13.452,6.942
				c-0.302-0.308-0.79-0.308-1.091,0l-4.908,5.013c-0.603,0.615-1.579,0.615-2.181,0c-0.301-0.307-0.79-0.307-1.09,0
				c-0.302,0.309-0.302,0.807,0,1.114c1.204,1.23,3.157,1.23,4.362,0l4.908-5.013C13.753,7.749,13.753,7.25,13.452,6.942z
				 M15.088,5.271c-1.205-1.23-3.158-1.23-4.362,0l-4.908,5.013c-0.301,0.309-0.301,0.807,0,1.115c0.302,0.307,0.79,0.307,1.091,0
				l4.907-5.014c0.603-0.615,1.579-0.615,2.182,0s0.603,1.612,0,2.228L9.184,13.53c0.603,0.615,1.579,0.615,2.182,0l3.723-3.803
				C16.292,8.497,16.292,6.502,15.088,5.271z"/>
		</g>
	</g>
</g>
<g id="Layer_1">
</g>
</svg>
