<?xml version="1.0" encoding="iso-8859-1"?>
<!-- Generator: Adobe Illustrator 16.0.0, SVG Export Plug-In . SVG Version: 6.00 Build 0)  -->
<!DOCTYPE svg PUBLIC "-//W3C//DTD SVG 1.1//EN" "http://www.w3.org/Graphics/SVG/1.1/DTD/svg11.dtd">
<svg version="1.1" xmlns="http://www.w3.org/2000/svg" xmlns:xlink="http://www.w3.org/1999/xlink" x="0px" y="0px" width="16px"
	 height="17px" viewBox="0 0 16 17" style="enable-background:new 0 0 16 17;" xml:space="preserve">
<g id="logo-zerply" style="enable-background:new    ;">
	<g id="logo-zerply_2_">
		<g>
			<path d="M13.352,11.997c-0.539,0.475-1.129,0.678-1.84,0.678c-0.955,0-2.402-0.406-3.507-1.107
				c-1.177-0.746-2.722-1.492-4.021-1.514C4.94,8.854,6.435,7.634,7.833,6.188c0.516-0.52,3.606-3.798,4.145-4.385
				c0.393-0.431,0.59-0.95,0.59-1.47c0-0.203-0.025-0.385-0.076-0.564c-1.471,0.271-2.574,0.406-4.34,0.406
				c-1.937,0-3.335-0.227-4.146-0.678C3.443,0.175,2.879,1.08,2.879,1.576c0,0.635,0.662,1.153,2.306,1.153
				c0.54,0,1.422-0.021,2.648-0.112C5.308,5.623,2.805,8.063,1.309,9.603c-0.515,0.518-0.81,1.219-0.81,1.92
				c0,0.271,0.05,0.541,0.123,0.791C1.089,12.247,1.554,12.2,2.045,12.2c1.005,0,2.011,0.203,2.943,0.564
				c1.863,0.746,3.605,2.736,5.568,2.736c1.592,0,2.941-1.154,2.941-2.691C13.498,12.538,13.449,12.269,13.352,11.997z"/>
		</g>
	</g>
</g>
<g id="Layer_1">
</g>
</svg>
