<?xml version="1.0" encoding="iso-8859-1"?>
<!-- Generator: Adobe Illustrator 16.0.0, SVG Export Plug-In . SVG Version: 6.00 Build 0)  -->
<!DOCTYPE svg PUBLIC "-//W3C//DTD SVG 1.1//EN" "http://www.w3.org/Graphics/SVG/1.1/DTD/svg11.dtd">
<svg version="1.1" xmlns="http://www.w3.org/2000/svg" xmlns:xlink="http://www.w3.org/1999/xlink" x="0px" y="0px" width="16px"
	 height="17px" viewBox="0 0 16 17" style="enable-background:new 0 0 16 17;" xml:space="preserve">
<g id="logo-instagram" style="enable-background:new    ;">
	<g id="logo-instagram_2_">
		<g>
			<path d="M12.499-0.501h-9c-1.381,0-2.5,1.119-2.5,2.5v11c0,1.381,1.119,2.5,2.5,2.5h9c1.381,0,2.5-1.119,2.5-2.5v-11
				C14.999,0.618,13.88-0.501,12.499-0.501z M10.999,1.499h2v2h-2V1.499z M7.999,3.496c2.207,0,3.995,1.791,3.995,4
				s-1.788,4-3.995,4s-3.995-1.791-3.995-4S5.792,3.496,7.999,3.496z M13.999,8.499v4c0,1.104-0.896,2-2,2h-8c-1.104,0-2-0.896-2-2
				v-4v-2h1v0.277c0.016-0.01,0.034-0.013,0.05-0.021C3.034,6.92,3.001,7.08,3.001,7.249c0,2.897,2.238,5.247,4.998,5.247
				c2.761,0,4.998-2.35,4.998-5.247c0-0.169-0.032-0.329-0.048-0.494c0.016,0.009,0.034,0.012,0.05,0.021V6.499h1V8.499z"/>
		</g>
	</g>
</g>
<g id="Layer_1">
</g>
</svg>
