<?xml version="1.0" encoding="iso-8859-1"?>
<!-- Generator: Adobe Illustrator 16.0.0, SVG Export Plug-In . SVG Version: 6.00 Build 0)  -->
<!DOCTYPE svg PUBLIC "-//W3C//DTD SVG 1.1//EN" "http://www.w3.org/Graphics/SVG/1.1/DTD/svg11.dtd">
<svg version="1.1" xmlns="http://www.w3.org/2000/svg" xmlns:xlink="http://www.w3.org/1999/xlink" x="0px" y="0px" width="16px"
	 height="17px" viewBox="0 0 16 17" style="enable-background:new 0 0 16 17;" xml:space="preserve">
<g id="logo-squareup" style="enable-background:new    ;">
	<g id="logo-squareup_2_">
		<g>
			<path d="M12.999,0.499h-10c-1.104,0-2,0.896-2,2v10c0,1.104,0.896,2,2,2h10c1.104,0,2-0.896,2-2v-10
				C14.999,1.394,14.103,0.499,12.999,0.499z M11.999,10.61c0,0.49-0.398,0.889-0.889,0.889H4.888c-0.491,0-0.889-0.398-0.889-0.889
				V4.387c0-0.49,0.398-0.889,0.889-0.889h6.223c0.49,0,0.889,0.398,0.889,0.889V10.61z M9.499,5.499h-3
				c-0.276,0-0.5,0.225-0.5,0.501v3c0,0.275,0.224,0.5,0.5,0.5h3c0.275,0,0.5-0.225,0.5-0.5V6C9.999,5.723,9.774,5.499,9.499,5.499z
				"/>
		</g>
	</g>
</g>
<g id="Layer_1">
</g>
</svg>
