<?xml version="1.0" encoding="iso-8859-1"?>
<!-- Generator: Adobe Illustrator 16.0.0, SVG Export Plug-In . SVG Version: 6.00 Build 0)  -->
<!DOCTYPE svg PUBLIC "-//W3C//DTD SVG 1.1//EN" "http://www.w3.org/Graphics/SVG/1.1/DTD/svg11.dtd">
<svg version="1.1" xmlns="http://www.w3.org/2000/svg" xmlns:xlink="http://www.w3.org/1999/xlink" x="0px" y="0px" width="16px"
	 height="16px" viewBox="0 0 16 16" style="enable-background:new 0 0 16 16;" xml:space="preserve">
<g id="media-glass" style="enable-background:new    ;">
	<g id="media-glass_1_">
		<g>
			<path d="M15.999,9.499l-0.002-0.004l-2.998-6.996h-3v1h2.23l2.309,5H1.46l2.307-5h2.231v-1h-3V2.5L0.003,9.489l-0.004,0.01h0.05
				c-0.024,0.164-0.05,0.328-0.05,0.5c0,1.933,1.567,3.5,3.5,3.5c1.394,0,2.587-0.821,3.15-2h2.699c0.563,1.179,1.756,2,3.15,2
				c1.934,0,3.5-1.567,3.5-3.5c0-0.172-0.027-0.335-0.051-0.499L15.999,9.499L15.999,9.499z M3.499,12.498
				c-1.381,0-2.5-1.119-2.5-2.499c0-0.172,0.018-0.339,0.05-0.5h4.899c0.033,0.161,0.051,0.328,0.051,0.5
				C5.999,11.379,4.879,12.498,3.499,12.498z M9.05,10.498H6.948c0.024-0.164,0.05-0.328,0.05-0.499c0-0.172-0.026-0.336-0.05-0.5
				H9.05c-0.023,0.164-0.051,0.328-0.051,0.5C8.999,10.17,9.026,10.334,9.05,10.498z M12.499,12.498c-1.381,0-2.5-1.119-2.5-2.499
				c0-0.172,0.018-0.339,0.051-0.5h4.898c0.033,0.161,0.051,0.328,0.051,0.5C14.999,11.379,13.88,12.498,12.499,12.498z"/>
		</g>
	</g>
</g>
<g id="Layer_1">
</g>
</svg>
