<?xml version="1.0" encoding="iso-8859-1"?>
<!-- Generator: Adobe Illustrator 16.0.0, SVG Export Plug-In . SVG Version: 6.00 Build 0)  -->
<!DOCTYPE svg PUBLIC "-//W3C//DTD SVG 1.1//EN" "http://www.w3.org/Graphics/SVG/1.1/DTD/svg11.dtd">
<svg version="1.1" xmlns="http://www.w3.org/2000/svg" xmlns:xlink="http://www.w3.org/1999/xlink" x="0px" y="0px" width="18px"
	 height="16px" viewBox="0 0 18 16" style="enable-background:new 0 0 18 16;" xml:space="preserve">
<g id="medicine-lab-a" style="enable-background:new    ;">
	<g id="medicine-lab-a_2_">
		<g>
			<path d="M8.5,2.999c0.551,0,0.999-0.447,0.999-1s-0.447-1-0.999-1c-0.552,0-1,0.447-1,1S7.947,2.999,8.5,2.999z M11.498,1.999
				c0.553,0,1-0.448,1-1c0-0.553-0.447-1-1-1c-0.552,0-1,0.447-1,1C10.498,1.551,10.946,1.999,11.498,1.999z M14.283,15.007
				C13.279,13.076,11.507,9,11.507,9H6.508c0,0-1.734,4.22-2.715,6.106c-0.464,0.893-0.464,0.893,0.643,0.893
				c2.414,0,7.117,0,9.397,0C14.279,15.999,14.799,15.999,14.283,15.007z M7.175,9.999h3.678c0.118,0.269,0.271,0.612,0.443,1H6.754
				C6.918,10.613,7.063,10.27,7.175,9.999z M4.965,14.999c0.425-0.873,0.922-1.989,1.359-3h5.422c0.458,1.01,0.976,2.127,1.411,3
				H4.965z M6,4.999h0.5v4h4.999v-4h0.5c0.276,0,0.5-0.224,0.5-0.5s-0.224-0.5-0.5-0.5H6c-0.276,0-0.5,0.224-0.5,0.5
				S5.723,4.999,6,4.999z M7.5,4.999h2.999v3.999H7.5V4.999z"/>
		</g>
	</g>
</g>
<g id="Layer_1">
</g>
</svg>
