<?xml version="1.0" encoding="iso-8859-1"?>
<!-- Generator: Adobe Illustrator 16.0.0, SVG Export Plug-In . SVG Version: 6.00 Build 0)  -->
<!DOCTYPE svg PUBLIC "-//W3C//DTD SVG 1.1//EN" "http://www.w3.org/Graphics/SVG/1.1/DTD/svg11.dtd">
<svg version="1.1" xmlns="http://www.w3.org/2000/svg" xmlns:xlink="http://www.w3.org/1999/xlink" x="0px" y="0px" width="16px"
	 height="16px" viewBox="0 0 16 16" style="enable-background:new 0 0 16 16;" xml:space="preserve">
<g id="media-image-b" style="enable-background:new    ;">
	<g id="media-image-b_1_">
		<g>
			<path style="fill-rule:evenodd;clip-rule:evenodd;" d="M11.099,7.144l-2.697,4.068L5.399,8.644c-0.111-0.11-0.255-0.149-0.4-0.14
				c-0.145-0.01-0.29,0.029-0.4,0.14l-2.456,3.955c-0.204,0.204-0.204,0.535,0,0.739s0.535,0.204,0.739,0l2.22-3.576l3.014,2.576
				c0.105,0.106,0.244,0.151,0.383,0.147c0.139,0.004,0.277-0.041,0.383-0.147l2.955-4.455c0.205-0.204,0.205-0.534,0-0.739
				C11.634,6.94,11.304,6.94,11.099,7.144z M12.999,1.999h-12c-0.552,0-1,0.448-1,1v12c0,0.552,0.448,1,1,1h12c0.553,0,1-0.448,1-1
				v-12C13.999,2.447,13.552,1.999,12.999,1.999z M12.999,14.499c0,0.276-0.225,0.5-0.5,0.5h-11c-0.276,0-0.5-0.224-0.5-0.5v-11
				c0-0.275,0.224-0.5,0.5-0.5h11c0.275,0,0.5,0.225,0.5,0.5V14.499z M4,4.501c0-0.829-0.672-1.5-1.5-1.5
				c-0.829,0-1.5,0.671-1.5,1.5c0,0.828,0.671,1.5,1.5,1.5C3.328,6.001,4,5.329,4,4.501z M2,4.501c0-0.276,0.224-0.5,0.5-0.5
				c0.276,0,0.5,0.224,0.5,0.5s-0.224,0.5-0.5,0.5C2.223,5.001,2,4.777,2,4.501z M15.499-0.001h-13c-0.276,0-0.5,0.225-0.5,0.5
				C1.999,0.775,2.223,1,2.499,1h12.5v12.499c0,0.276,0.225,0.501,0.5,0.501s0.5-0.225,0.5-0.501v-13
				C15.999,0.224,15.774-0.001,15.499-0.001z"/>
		</g>
	</g>
</g>
<g id="Layer_1">
</g>
</svg>
