<?xml version="1.0" encoding="iso-8859-1"?>
<!-- Generator: Adobe Illustrator 16.0.0, SVG Export Plug-In . SVG Version: 6.00 Build 0)  -->
<!DOCTYPE svg PUBLIC "-//W3C//DTD SVG 1.1//EN" "http://www.w3.org/Graphics/SVG/1.1/DTD/svg11.dtd">
<svg version="1.1" xmlns="http://www.w3.org/2000/svg" xmlns:xlink="http://www.w3.org/1999/xlink" x="0px" y="0px" width="16px"
	 height="16px" viewBox="0 0 16 16" style="enable-background:new 0 0 16 16;" xml:space="preserve">
<g id="media-image-d" style="enable-background:new    ;">
	<g id="media-image-d_1_">
		<g>
			<path d="M15-0.001H1c-0.552,0-1,0.448-1,1v11.427c-0.002,0.029-0.002,0.057,0,0.086v2.487c0,0.553,0.448,1,1,1h14
				c0.553,0,1-0.447,1-1v-14C16,0.447,15.553-0.001,15-0.001z M1.5,14.999c-0.276,0-0.5-0.224-0.5-0.5V12.81l4.387-3.57l4.982,5.76
				H1.5z M15,14.499c0,0.276-0.224,0.5-0.5,0.5h-2.711L8.071,10.7l4.382-3.582l2.531,2.738C14.988,9.859,14.995,9.858,15,9.861
				V14.499z M15,8.329l-2.034-2.2c-0.126-0.102-0.291-0.134-0.456-0.122c-0.147-0.012-0.296,0.021-0.409,0.124L7.424,9.952
				L5.868,8.154C5.753,8.03,5.598,7.984,5.447,8.001C5.405,7.999,5.373,8.019,5.332,8.024C5.316,8.03,5.302,8.035,5.287,8.042
				C5.192,8.064,5.092,8.076,5.018,8.145L1,11.414V1.499c0-0.276,0.224-0.5,0.5-0.5h13c0.276,0,0.5,0.224,0.5,0.5V8.329z M4,1.998
				c-1.104,0-2,0.896-2,2.001c0,1.104,0.896,2,2,2c1.105,0,2-0.896,2-2C6,2.894,5.104,1.998,4,1.998z M4,5.001c-0.552,0-1-0.448-1-1
				c0-0.553,0.448-1,1-1s1,0.447,1,1C5,4.553,4.552,5.001,4,5.001z"/>
		</g>
	</g>
</g>
<g id="Layer_1">
</g>
</svg>
