<?xml version="1.0" encoding="iso-8859-1"?>
<!-- Generator: Adobe Illustrator 16.0.0, SVG Export Plug-In . SVG Version: 6.00 Build 0)  -->
<!DOCTYPE svg PUBLIC "-//W3C//DTD SVG 1.1//EN" "http://www.w3.org/Graphics/SVG/1.1/DTD/svg11.dtd">
<svg version="1.1" xmlns="http://www.w3.org/2000/svg" xmlns:xlink="http://www.w3.org/1999/xlink" x="0px" y="0px" width="16px"
	 height="16px" viewBox="0 0 16 16" style="enable-background:new 0 0 16 16;" xml:space="preserve">
<g id="media-glass-a" style="enable-background:new    ;">
	<g id="media-glass-a_2_">
		<g>
			<path d="M15.999,8.499l-3-6.999V1.5h-3v1h2.23l2.309,5H6.649H5.488H1.509H1.46l2.307-5h2.231v-1h-3V1.5l-3,6.999v0.002h0.059
				C0.033,8.665-0.001,8.827-0.001,8.999v2c0,1.934,1.567,3.5,3.5,3.5c1.394,0,2.587-0.82,3.15-2h2.7c0.563,1.18,1.756,2,3.15,2
				c1.934,0,3.5-1.566,3.5-3.5v-2c0-0.172-0.035-0.334-0.061-0.498h0.061V8.499z M5.999,10.999c0,1.381-1.12,2.5-2.5,2.5
				c-1.381,0-2.5-1.119-2.5-2.5v-2c0-0.176,0.049-0.336,0.084-0.5h4.831c0.035,0.164,0.085,0.324,0.085,0.5V10.999z M9.05,11.499
				H6.948c0.024-0.164,0.05-0.328,0.05-0.5v-2c0-0.172-0.034-0.334-0.059-0.5h2.118c-0.025,0.166-0.059,0.328-0.059,0.5v2
				C8.999,11.171,9.026,11.335,9.05,11.499z M14.999,10.999c0,1.381-1.119,2.5-2.5,2.5s-2.5-1.119-2.5-2.5v-2
				c0-0.176,0.049-0.336,0.084-0.5h4.83c0.037,0.164,0.086,0.324,0.086,0.5V10.999z"/>
		</g>
	</g>
</g>
<g id="Layer_1">
</g>
</svg>
