<?xml version="1.0" encoding="iso-8859-1"?>
<!-- Generator: Adobe Illustrator 16.0.0, SVG Export Plug-In . SVG Version: 6.00 Build 0)  -->
<!DOCTYPE svg PUBLIC "-//W3C//DTD SVG 1.1//EN" "http://www.w3.org/Graphics/SVG/1.1/DTD/svg11.dtd">
<svg version="1.1" xmlns="http://www.w3.org/2000/svg" xmlns:xlink="http://www.w3.org/1999/xlink" x="0px" y="0px" width="16px"
	 height="16px" viewBox="0 0 16 16" style="enable-background:new 0 0 16 16;" xml:space="preserve">
<g id="media-video-a" style="enable-background:new    ;">
	<g id="media-video-a_1_">
		<g>
			<path d="M11.999,5.665V4.999c0-1.104-0.896-2-2-2h-8c-1.105,0-2,0.896-2,2v5.999c0,1.105,0.895,2.001,2,2.001h8
				c1.104,0,2-0.896,2-2.001v-0.666l4,2.667v-10L11.999,5.665z M14.999,10.998l-4-2.499v2.499c0,0.553-0.447,1-1,1h-8
				c-0.552,0-1-0.447-1-1V4.999c0-0.553,0.448-1.001,1-1.001h8c0.553,0,1,0.448,1,1.001v2.5l4-2.5V10.998z"/>
		</g>
	</g>
</g>
<g id="Layer_1">
</g>
</svg>
