<?xml version="1.0" encoding="iso-8859-1"?>
<!-- Generator: Adobe Illustrator 16.0.0, SVG Export Plug-In . SVG Version: 6.00 Build 0)  -->
<!DOCTYPE svg PUBLIC "-//W3C//DTD SVG 1.1//EN" "http://www.w3.org/Graphics/SVG/1.1/DTD/svg11.dtd">
<svg version="1.1" xmlns="http://www.w3.org/2000/svg" xmlns:xlink="http://www.w3.org/1999/xlink" x="0px" y="0px" width="16px"
	 height="16px" viewBox="0 0 16 16" style="enable-background:new 0 0 16 16;" xml:space="preserve">
<g id="media-image-c" style="enable-background:new    ;">
	<g id="media-image-c_2_">
		<g>
			<path d="M14.499-0.001h-13c-0.552,0-1,0.447-1,1v14c0,0.553,0.447,1,1,1h13c0.553,0,1-0.447,1-1v-14
				C15.499,0.446,15.052-0.001,14.499-0.001z M14.499,14.499c0,0.276-0.225,0.5-0.5,0.5h-12c-0.276,0-0.5-0.224-0.5-0.5v-13
				c0-0.276,0.224-0.5,0.5-0.5h12c0.275,0,0.5,0.224,0.5,0.5V14.499z M12.499,1.999h-9c-0.553,0-1,0.448-1,1v9c0,0.553,0.447,1,1,1
				h9c0.553,0,1-0.447,1-1v-9C13.499,2.447,13.052,1.999,12.499,1.999z M12.499,11.499c0,0.276-0.225,0.5-0.5,0.5h-8
				c-0.276,0-0.5-0.224-0.5-0.5v-0.014c0.139,0.004,0.277-0.041,0.383-0.147l2.112-2.542l1.646,2.059
				c0.197,0.197,0.517,0.197,0.714,0c0.001-0.002,0-0.004,0.002-0.006c0.008-0.007,0.019-0.004,0.025-0.011l2.17-3.495l1.514,1.915
				c0.094,0.156,0.26,0.21,0.434,0.21V11.499z M12.499,8.224L10.933,6.24c-0.02-0.03-0.057-0.033-0.08-0.059
				c-0.008-0.011-0.004-0.027-0.016-0.038c-0.021-0.021-0.053-0.015-0.078-0.032c-0.068-0.045-0.129-0.079-0.211-0.087
				c-0.082-0.015-0.15,0.003-0.23,0.029c-0.023,0.009-0.047-0.003-0.068,0.009c-0.018,0.01-0.027,0.026-0.045,0.037
				c-0.033,0.021-0.076,0.015-0.105,0.044L7.939,9.623L6.357,7.644C6.256,7.543,6.123,7.497,5.991,7.5
				C5.849,7.494,5.707,7.536,5.599,7.644l-2.1,2.527V3.499c0-0.276,0.224-0.5,0.5-0.5h8c0.275,0,0.5,0.224,0.5,0.5V8.224z"/>
		</g>
	</g>
</g>
<g id="Layer_1">
</g>
</svg>
