<?xml version="1.0" encoding="iso-8859-1"?>
<!-- Generator: Adobe Illustrator 16.0.0, SVG Export Plug-In . SVG Version: 6.00 Build 0)  -->
<!DOCTYPE svg PUBLIC "-//W3C//DTD SVG 1.1//EN" "http://www.w3.org/Graphics/SVG/1.1/DTD/svg11.dtd">
<svg version="1.1" xmlns="http://www.w3.org/2000/svg" xmlns:xlink="http://www.w3.org/1999/xlink" x="0px" y="0px" width="16px"
	 height="16px" viewBox="0 0 16 16" style="enable-background:new 0 0 16 16;" xml:space="preserve">
<g id="media-image" style="enable-background:new    ;">
	<g id="media-image_1_">
		<g>
			<path d="M4.499,3c-0.829,0-1.5,0.671-1.5,1.5c0,0.828,0.671,1.5,1.5,1.5c0.828,0,1.5-0.672,1.5-1.5C5.999,3.671,5.327,3,4.499,3z
				 M4.499,5c-0.276,0-0.5-0.224-0.5-0.5S4.223,4,4.499,4c0.276,0,0.5,0.224,0.5,0.5S4.775,5,4.499,5z M14.999,0h-14
				c-0.552,0-1,0.447-1,0.999v14c0,0.553,0.447,1,1,1h14c0.553,0,1-0.447,1-1v-2v-1v-11C15.999,0.447,15.552,0,14.999,0z
				 M14.999,14.499c0,0.275-0.225,0.5-0.5,0.5h-13c-0.276,0-0.5-0.225-0.5-0.5v-1.5h14V14.499z M14.999,11.999H3.551L6.584,8.2
				l3.53,2.637c0.107,0.107,0.246,0.152,0.385,0.148c0.139,0.004,0.277-0.041,0.383-0.148l4.117-6.608V11.999z M14.999,2.304
				L10.37,9.737L6.898,7.143c-0.11-0.11-0.255-0.149-0.4-0.141c-0.145-0.009-0.289,0.03-0.4,0.141l-3.876,4.856H0.999v-10.5
				c0-0.275,0.224-0.5,0.5-0.5h13c0.275,0,0.5,0.225,0.5,0.5V2.304z"/>
		</g>
	</g>
</g>
<g id="Layer_1">
</g>
</svg>
