<?xml version="1.0" encoding="iso-8859-1"?>
<!-- Generator: Adobe Illustrator 16.0.0, SVG Export Plug-In . SVG Version: 6.00 Build 0)  -->
<!DOCTYPE svg PUBLIC "-//W3C//DTD SVG 1.1//EN" "http://www.w3.org/Graphics/SVG/1.1/DTD/svg11.dtd">
<svg version="1.1" xmlns="http://www.w3.org/2000/svg" xmlns:xlink="http://www.w3.org/1999/xlink" x="0px" y="0px" width="16px"
	 height="16px" viewBox="0 0 16 16" style="enable-background:new 0 0 16 16;" xml:space="preserve">
<g id="media-video-r" style="enable-background:new    ;">
	<g id="media-video-r_1_">
		<g>
			<path d="M15.499,5.999l-2.5,1.667V5.998c0-0.552-0.447-0.999-1-0.999h-1.316L6.877,1.183C6.858,1.159,6.838,1.14,6.815,1.12
				L6.761,1.065c-0.017-0.009-0.035-0.01-0.052-0.017C6.69,1.04,6.67,1.036,6.651,1.029C6.61,1.018,6.571,1.007,6.53,1.005
				C6.519,1.004,6.51,0.999,6.499,0.999h-5c-0.276,0-0.5,0.224-0.5,0.5s0.224,0.5,0.5,0.5h4.999l3.999,3.999h1.002
				c0.275,0,0.5,0.224,0.5,0.501v7c0,0.275-0.225,0.499-0.5,0.499h-10c-0.276,0-0.5-0.224-0.5-0.499v-7
				c0-0.277,0.224-0.501,0.5-0.501h3.5V4.999h-4c-0.552,0-1,0.447-1,0.999v8c0,0.553,0.448,1.001,1,1.001h11
				c0.553,0,1-0.448,1-1.001v-1.665l2.5,1.667c0.275,0,0.5-0.224,0.5-0.5v-7C15.999,6.224,15.774,5.999,15.499,5.999z
				 M14.999,12.464l-2-1.333V8.868l2-1.333V12.464z M2.999,11.499c0,0.275,0.224,0.499,0.5,0.499h6c0.275,0,0.5-0.224,0.5-0.499
				c0-0.276-0.225-0.5-0.5-0.5h-6C3.223,10.999,2.999,11.223,2.999,11.499z"/>
		</g>
	</g>
</g>
<g id="Layer_1">
</g>
</svg>
