<?xml version="1.0" encoding="iso-8859-1"?>
<!-- Generator: Adobe Illustrator 16.0.0, SVG Export Plug-In . SVG Version: 6.00 Build 0)  -->
<!DOCTYPE svg PUBLIC "-//W3C//DTD SVG 1.1//EN" "http://www.w3.org/Graphics/SVG/1.1/DTD/svg11.dtd">
<svg version="1.1" xmlns="http://www.w3.org/2000/svg" xmlns:xlink="http://www.w3.org/1999/xlink" x="0px" y="0px" width="16px"
	 height="16px" viewBox="0 0 16 16" style="enable-background:new 0 0 16 16;" xml:space="preserve">
<g id="media-video-clip" style="enable-background:new    ;">
	<g id="media-video-clip_2_">
		<g>
			<path d="M14.999,0h-2h-1h-8h-1h-2c-0.552,0-1,0.448-1,1v1.999V4v1.999v1v2v1v2v1v2c0,0.553,0.448,1,1,1h2h1h8h1h2
				c0.553,0,1-0.447,1-1v-2v-1v-2v-1v-2v-1V4V2.999V1C15.999,0.448,15.552,0,14.999,0z M2.999,14.999h-1.5
				c-0.276,0-0.5-0.225-0.5-0.5v-1.5h2V14.999z M2.999,11.999h-2v-2h2V11.999z M2.999,7.999v1h-2v-2h2V7.999z M2.999,5.999h-2V4h2
				V5.999z M2.999,2.999h-2V1.5c0-0.276,0.224-0.5,0.5-0.5h1.5V2.999z M11.999,9.999v2v1v2h-8v-2v-1v-2v-1h8V9.999z M11.999,2.999V4
				v1.999v1v1h-8v-1v-1V4V2.999V1h8V2.999z M14.999,14.499c0,0.275-0.225,0.5-0.5,0.5h-1.5v-2h2V14.499z M14.999,11.999h-2v-2h2
				V11.999z M14.999,8.999h-2v-1v-1h2V8.999z M14.999,5.999h-2V4h2V5.999z M14.999,2.999h-2V1h1.5c0.275,0,0.5,0.224,0.5,0.5V2.999z
				"/>
		</g>
	</g>
</g>
<g id="Layer_1">
</g>
</svg>
