<?xml version="1.0" encoding="iso-8859-1"?>
<!-- Generator: Adobe Illustrator 16.0.0, SVG Export Plug-In . SVG Version: 6.00 Build 0)  -->
<!DOCTYPE svg PUBLIC "-//W3C//DTD SVG 1.1//EN" "http://www.w3.org/Graphics/SVG/1.1/DTD/svg11.dtd">
<svg version="1.1" xmlns="http://www.w3.org/2000/svg" xmlns:xlink="http://www.w3.org/1999/xlink" x="0px" y="0px" width="16px"
	 height="16px" viewBox="0 0 16 16" style="enable-background:new 0 0 16 16;" xml:space="preserve">
<g id="media-negative-a" style="enable-background:new    ;">
	<g id="media-negative-a_2_">
		<g>
			<path d="M9.999,3.499h-1v1h1V3.499z M8.999,12.499h1v-1h-1V12.499z M13.999,3.499h-1v1h1V3.499z M10.999,12.499h1v-1h-1V12.499z
				 M11.999,3.499h-1v1h1V3.499z M14.999,1.499h-7c-0.035,0-0.063,0.017-0.097,0.02C7.7,0.929,7.157,0.5,6.499,0.5h-5
				c-0.829,0-1.5,0.671-1.5,1.499v12c0,0.828,0.671,1.5,1.5,1.5h5c0.658,0,1.201-0.43,1.403-1.02c0.033,0.004,0.063,0.02,0.097,0.02
				v-1.5v-0.5V3c0-0.276,0.225-0.501,0.5-0.501h6c0.275,0,0.5,0.225,0.5,0.501v10c0,0.275-0.225,0.5-0.5,0.5h-4.5v1h5
				c0.553,0,1-0.447,1-1v-11C15.999,1.948,15.552,1.499,14.999,1.499z M6.999,2.499v11v0.5c0,0.275-0.224,0.5-0.5,0.5h-5
				c-0.276,0-0.5-0.225-0.5-0.5v-12c0-0.275,0.224-0.5,0.5-0.5h5c0.276,0,0.5,0.225,0.5,0.5V2.499z M12.999,12.499h1v-1h-1V12.499z"
				/>
		</g>
	</g>
</g>
<g id="Layer_1">
</g>
</svg>
