<?xml version="1.0" encoding="iso-8859-1"?>
<!-- Generator: Adobe Illustrator 16.0.0, SVG Export Plug-In . SVG Version: 6.00 Build 0)  -->
<!DOCTYPE svg PUBLIC "-//W3C//DTD SVG 1.1//EN" "http://www.w3.org/Graphics/SVG/1.1/DTD/svg11.dtd">
<svg version="1.1" xmlns="http://www.w3.org/2000/svg" xmlns:xlink="http://www.w3.org/1999/xlink" x="0px" y="0px" width="16px"
	 height="16px" viewBox="0 0 16 16" style="enable-background:new 0 0 16 16;" xml:space="preserve">
<g id="media-video" style="enable-background:new    ;">
	<g id="media-video_2_">
		<g>
			<path d="M15.499,4l-3.5,2.333V5c0-1.104-0.896-2.001-2-2.001h-8c-1.105,0-2,0.896-2,2.001v6c0,1.105,0.895,2,2,2h8
				c1.104,0,2-0.895,2-2V9.667l3.5,2.334c0.275,0,0.5-0.225,0.5-0.502v-7C15.999,4.224,15.774,4,15.499,4z M10.999,10.999
				c0,0.553-0.447,1-1,1h-8c-0.552,0-1-0.447-1-1V5c0-0.553,0.448-1.001,1-1.001h8c0.553,0,1,0.448,1,1.001V10.999z M14.999,10.464
				l-3-1.998V7.535l3-1.999V10.464z"/>
		</g>
	</g>
</g>
<g id="Layer_1">
</g>
</svg>
