<?xml version="1.0" encoding="iso-8859-1"?>
<!-- Generator: Adobe Illustrator 16.0.0, SVG Export Plug-In . SVG Version: 6.00 Build 0)  -->
<!DOCTYPE svg PUBLIC "-//W3C//DTD SVG 1.1//EN" "http://www.w3.org/Graphics/SVG/1.1/DTD/svg11.dtd">
<svg version="1.1" xmlns="http://www.w3.org/2000/svg" xmlns:xlink="http://www.w3.org/1999/xlink" x="0px" y="0px" width="18px"
	 height="16px" viewBox="0 0 18 16" style="enable-background:new 0 0 18 16;" xml:space="preserve">
<g id="medicine-lab" style="enable-background:new    ;">
	<g id="medicine-lab_1_">
		<g>
			<path d="M9.979,1.976c0.538,0.144,1.092-0.175,1.236-0.711s-0.176-1.088-0.714-1.231S9.41,0.208,9.266,0.744
				S9.44,1.831,9.979,1.976z M13.956,3.986L8.196,2.45C7.932,2.38,7.659,2.537,7.588,2.801C7.517,3.064,7.674,3.335,7.939,3.406
				l0.48,0.128L7.391,7.356L8.35,7.613L9.38,3.79l2.88,0.769L11.23,8.38l0.96,0.256l1.029-3.821l0.479,0.128
				c0.266,0.071,0.537-0.086,0.608-0.35S14.222,4.058,13.956,3.986z M14.505,0.037c-0.529-0.144-1.074,0.174-1.217,0.711
				c-0.142,0.536,0.173,1.087,0.703,1.23s1.075-0.175,1.217-0.711C15.351,0.731,15.035,0.18,14.505,0.037z M12.198,8.64l-4.8-1.28
				c0,0-2.75,3.589-4.177,5.14c-0.675,0.734-0.675,0.734,0.387,1.018c2.317,0.618,6.834,1.823,9.022,2.407
				c0.429,0.114,0.927,0.247,0.688-0.833C12.852,12.989,12.198,8.64,12.198,8.64z M7.782,8.485l3.533,0.942
				c0.044,0.286,0.102,0.654,0.168,1.068L7.121,9.333C7.377,9.006,7.604,8.714,7.782,8.485z M4.374,12.697
				c0.633-0.726,1.397-1.665,2.077-2.519l5.207,1.389c0.18,1.082,0.39,2.282,0.583,3.229L4.374,12.697z"/>
		</g>
	</g>
</g>
<g id="Layer_1">
</g>
</svg>
