<?xml version="1.0" encoding="iso-8859-1"?>
<!-- Generator: Adobe Illustrator 16.0.0, SVG Export Plug-In . SVG Version: 6.00 Build 0)  -->
<!DOCTYPE svg PUBLIC "-//W3C//DTD SVG 1.1//EN" "http://www.w3.org/Graphics/SVG/1.1/DTD/svg11.dtd">
<svg version="1.1" xmlns="http://www.w3.org/2000/svg" xmlns:xlink="http://www.w3.org/1999/xlink" x="0px" y="0px" width="18px"
	 height="16px" viewBox="0 0 18 16" style="enable-background:new 0 0 18 16;" xml:space="preserve">
<g id="medicine-heart" style="enable-background:new    ;">
	<g id="medicine-heart_1_">
		<g>
			<path d="M12.999,0.753c-1.5,0-3.5,1.5-4.001,2.007c-0.5-0.507-2.5-2.007-3.999-2.007c-2.762,0-4,2.239-4,5
				c0,3,7.999,9.492,7.999,9.492s8.001-6.492,8.001-9.492C16.999,2.992,15.761,0.753,12.999,0.753z M5.499,7h2.232l1.23,2.267
				c0.1,0.146,0.279,0.223,0.467,0.229c0.008,0,0.018,0,0.027,0.002c0.029-0.002,0.059-0.002,0.088-0.006
				c0.125-0.014,0.236-0.066,0.322-0.16c0.012-0.012,0.021-0.023,0.031-0.035c0.01-0.014,0.025-0.023,0.035-0.039l1.705-3.436
				l0.922,0.903c0.07,0.138,0.201,0.231,0.357,0.259c0.02,0.004,0.037,0.01,0.057,0.011C12.981,6.995,12.989,7,12.999,7h2.553
				c-1.105,1.929-4.082,4.866-6.554,6.948c-3.097-2.611-6.999-6.567-6.999-8.195c0-1.203,0.292-4,3-4
				c1.057,0,2.783,1.198,3.287,1.709l0.712,0.722L9.71,3.462c0.506-0.511,2.232-1.709,3.289-1.709c2.707,0,3,2.797,3,4
				c0,0.076-0.018,0.161-0.033,0.246h-2.777l-1.354-1.327c-0.033-0.034-0.041-0.085-0.086-0.109c-0.121-0.068-0.26-0.08-0.385-0.047
				c-0.043,0.012-0.082,0.035-0.121,0.059c-0.016,0.009-0.033,0.013-0.049,0.023c-0.023,0.019-0.039,0.045-0.061,0.067
				c-0.021,0.024-0.051,0.045-0.068,0.076L9.47,7.955L8.535,6.233C8.423,6.066,8.21,5.982,8,6C7.999,6,7.999,5.999,7.999,5.999
				H7.994c-0.003,0.001-0.007,0-0.011,0H5.499c-0.276,0-0.5,0.225-0.5,0.5C4.999,6.775,5.223,7,5.499,7z"/>
		</g>
	</g>
</g>
<g id="Layer_1">
</g>
</svg>
