<?xml version="1.0" encoding="iso-8859-1"?>
<!-- Generator: Adobe Illustrator 16.0.0, SVG Export Plug-In . SVG Version: 6.00 Build 0)  -->
<!DOCTYPE svg PUBLIC "-//W3C//DTD SVG 1.1//EN" "http://www.w3.org/Graphics/SVG/1.1/DTD/svg11.dtd">
<svg version="1.1" xmlns="http://www.w3.org/2000/svg" xmlns:xlink="http://www.w3.org/1999/xlink" x="0px" y="0px" width="16px"
	 height="16px" viewBox="0 0 16 16" style="enable-background:new 0 0 16 16;" xml:space="preserve">
<g id="misc-pointer-swipe-l" style="enable-background:new    ;">
	<g id="misc-pointer-swipe-l_2_">
		<g>
			<path d="M12.499,3.974h2c0.275,0,0.5-0.224,0.5-0.501c0-0.276-0.225-0.5-0.5-0.5h-2c-0.275,0-0.5,0.224-0.5,0.5
				C11.999,3.75,12.224,3.974,12.499,3.974z M14.999,8.984l-4-1.146V3.974c0-1.106-0.896-2.004-2-2.004c-1.105,0-2,0.897-2,2.004
				v4.009v2.104L6.49,9.578c-0.801-0.802-2.099-0.802-2.899,0c-0.801,0.803-0.801,2.104,0,2.905L6.49,15.39
				c0.403,0.404,0.932,0.603,1.46,0.6c0.017,0.001,0.031,0.01,0.048,0.01h7c0.553,0,1-0.448,1-1.002V9.986
				C15.999,9.434,15.552,8.984,14.999,8.984z M14.999,14.496c0,0.277-0.225,0.501-0.5,0.501h-0.5V15h-6v-0.084
				c-0.282,0.021-0.567-0.036-0.783-0.253l-2.899-2.906c-0.4-0.4-0.4-1.051,0-1.452c0.4-0.401,1.049-0.401,1.45,0l2.233,2.237V8.483
				V7.982V6.999V3.974c0-0.553,0.448-1.001,1-1.001s1,0.448,1,1.001v3.025v0.983v0.501l4.5,1.503c0.275,0,0.5,0.225,0.5,0.501
				V14.496z M2.856,5.155L1.677,3.974h3.822c0.276,0,0.5-0.224,0.5-0.501c0-0.276-0.224-0.5-0.5-0.5H1.677l1.179-1.182
				c0.188-0.188,0.188-0.492,0-0.681c-0.188-0.188-0.491-0.188-0.679,0L0.203,3.089C0.192,3.097,0.176,3.095,0.167,3.104
				C0.159,3.11,0.148,3.107,0.141,3.115C0.134,3.122,0.137,3.134,0.13,3.141C0.056,3.224,0.01,3.329,0.004,3.446
				c0,0.004-0.002,0.008-0.002,0.012c0,0.005-0.003,0.01-0.003,0.015c0,0.006,0.003,0.009,0.003,0.014
				c0,0.011,0.007,0.019,0.008,0.028C0.019,3.61,0.056,3.691,0.112,3.763c0.015,0.021,0.009,0.05,0.028,0.069
				C0.158,3.85,0.185,3.844,0.205,3.858c0.01,0.008,0.016,0.021,0.026,0.027l1.946,1.95c0.188,0.188,0.491,0.188,0.679,0
				C3.043,5.647,3.043,5.343,2.856,5.155z"/>
		</g>
	</g>
</g>
<g id="Layer_1">
</g>
</svg>
