<?xml version="1.0" encoding="iso-8859-1"?>
<!-- Generator: Adobe Illustrator 16.0.0, SVG Export Plug-In . SVG Version: 6.00 Build 0)  -->
<!DOCTYPE svg PUBLIC "-//W3C//DTD SVG 1.1//EN" "http://www.w3.org/Graphics/SVG/1.1/DTD/svg11.dtd">
<svg version="1.1" xmlns="http://www.w3.org/2000/svg" xmlns:xlink="http://www.w3.org/1999/xlink" x="0px" y="0px" width="16px"
	 height="16px" viewBox="0 0 16 16" style="enable-background:new 0 0 16 16;" xml:space="preserve">
<g id="misc-one-click" style="enable-background:new    ;">
	<g id="misc-one-click_1_">
		<g>
			<path d="M7.999,8.999h1v-1h-1V8.999z M8.999,5.998h-1c-1.104,0-2,0.896-2,2.001v5.498v1.059v1.443h2h1h2v-1.443v-1.059V7.999
				C10.999,6.894,10.103,5.998,8.999,5.998z M9.999,13.999v1h-3v-1v-6c0-0.553,0.447-1.001,1-1.001h1c0.553,0,1,0.448,1,1.001
				V13.999z M8.498-0.001c-4.142,0-7.5,3.356-7.5,7.499c0,2.452,1.18,4.62,3,5.985v-1.32c-1.226-1.182-2-2.826-2-4.665
				c0-3.59,2.91-6.5,6.5-6.5c3.591,0,6.501,2.91,6.501,6.5c0,1.839-0.773,3.483-2,4.665v1.32c1.82-1.365,3-3.533,3-5.985
				C15.999,3.355,12.642-0.001,8.498-0.001z"/>
		</g>
	</g>
</g>
<g id="Layer_1">
</g>
</svg>
