<?xml version="1.0" encoding="iso-8859-1"?>
<!-- Generator: Adobe Illustrator 16.0.0, SVG Export Plug-In . SVG Version: 6.00 Build 0)  -->
<!DOCTYPE svg PUBLIC "-//W3C//DTD SVG 1.1//EN" "http://www.w3.org/Graphics/SVG/1.1/DTD/svg11.dtd">
<svg version="1.1" xmlns="http://www.w3.org/2000/svg" xmlns:xlink="http://www.w3.org/1999/xlink" x="0px" y="0px" width="16px"
	 height="16px" viewBox="0 0 16 16" style="enable-background:new 0 0 16 16;" xml:space="preserve">
<g id="misc-male-gender" style="enable-background:new    ;">
	<g id="misc-male-gender_2_">
		<g>
			<path d="M15.993,1.475c0-0.005-0.002-0.009-0.002-0.013c-0.01-0.109-0.053-0.208-0.123-0.287
				c-0.012-0.014-0.006-0.033-0.02-0.046c-0.018-0.018-0.047-0.012-0.066-0.027c-0.086-0.061-0.186-0.103-0.299-0.103h-4.129
				c-0.285,0-0.518,0.224-0.518,0.5c0,0.275,0.232,0.5,0.518,0.5h2.891L9.577,6.52C8.56,5.583,7.191,4.999,5.676,4.999
				c-3.136,0-5.677,2.463-5.677,5.5s2.542,5.5,5.677,5.5s5.679-2.463,5.679-5.5c0-1.221-0.424-2.337-1.119-3.249l4.73-4.582v2.83
				c0,0.277,0.232,0.501,0.518,0.501s0.516-0.224,0.516-0.501V1.499C15.999,1.49,15.995,1.483,15.993,1.475z M10.321,10.499
				c0,2.484-2.08,4.5-4.646,4.5s-4.645-2.016-4.645-4.5c0-2.485,2.08-4.5,4.645-4.5S10.321,8.014,10.321,10.499z"/>
		</g>
	</g>
</g>
<g id="Layer_1">
</g>
</svg>
