<?xml version="1.0" encoding="iso-8859-1"?>
<!-- Generator: Adobe Illustrator 16.0.0, SVG Export Plug-In . SVG Version: 6.00 Build 0)  -->
<!DOCTYPE svg PUBLIC "-//W3C//DTD SVG 1.1//EN" "http://www.w3.org/Graphics/SVG/1.1/DTD/svg11.dtd">
<svg version="1.1" xmlns="http://www.w3.org/2000/svg" xmlns:xlink="http://www.w3.org/1999/xlink" x="0px" y="0px" width="16px"
	 height="16px" viewBox="0 0 16 16" style="enable-background:new 0 0 16 16;" xml:space="preserve">
<g id="misc-dice-two" style="enable-background:new    ;">
	<g id="misc-dice-two_1_">
		<g>
			<path d="M14.999-0.001h-14c-0.552,0-1,0.448-1,1v14c0,0.552,0.448,1,1,1h14c0.553,0,1-0.448,1-1v-14
				C15.999,0.447,15.552-0.001,14.999-0.001z M14.999,14.499c0,0.276-0.225,0.5-0.5,0.5h-13c-0.276,0-0.5-0.224-0.5-0.5v-13
				c0-0.276,0.224-0.5,0.5-0.5h13c0.275,0,0.5,0.224,0.5,0.5V14.499z M5.499,9.999h-1c-0.276,0-0.5,0.224-0.5,0.5v1
				c0,0.276,0.224,0.5,0.5,0.5h1c0.276,0,0.5-0.224,0.5-0.5v-1C5.999,10.223,5.774,9.999,5.499,9.999z M11.499,3.999h-1
				c-0.275,0-0.5,0.225-0.5,0.5v1c0,0.276,0.225,0.5,0.5,0.5h1c0.275,0,0.5-0.224,0.5-0.5v-1
				C11.999,4.224,11.774,3.999,11.499,3.999z"/>
		</g>
	</g>
</g>
<g id="Layer_1">
</g>
</svg>
