<?xml version="1.0" encoding="iso-8859-1"?>
<!-- Generator: Adobe Illustrator 16.0.0, SVG Export Plug-In . SVG Version: 6.00 Build 0)  -->
<!DOCTYPE svg PUBLIC "-//W3C//DTD SVG 1.1//EN" "http://www.w3.org/Graphics/SVG/1.1/DTD/svg11.dtd">
<svg version="1.1" xmlns="http://www.w3.org/2000/svg" xmlns:xlink="http://www.w3.org/1999/xlink" x="0px" y="0px" width="16px"
	 height="16px" viewBox="0 0 16 16" style="enable-background:new 0 0 16 16;" xml:space="preserve">
<g id="misc-pointer-swipe-r" style="enable-background:new    ;">
	<g id="misc-pointer-swipe-r_1_">
		<g>
			<path d="M1.499,3.974h2c0.276,0,0.5-0.224,0.5-0.501c0-0.276-0.224-0.5-0.5-0.5h-2c-0.276,0-0.5,0.224-0.5,0.5
				C0.999,3.75,1.223,3.974,1.499,3.974z M12.999,8.984l-4-1.146V3.974c0-1.106-0.896-2.004-2-2.004s-2,0.897-2,2.004v4.009v2.104
				L4.491,9.578c-0.801-0.802-2.099-0.802-2.899,0c-0.801,0.803-0.801,2.104,0,2.905l2.899,2.906c0.403,0.404,0.932,0.603,1.46,0.6
				c0.017,0.001,0.031,0.01,0.048,0.01h7c0.553,0,1-0.448,1-1.002V9.986C13.999,9.434,13.552,8.984,12.999,8.984z M12.999,14.496
				c0,0.277-0.224,0.501-0.5,0.501h-0.5V15h-6v-0.084c-0.281,0.021-0.567-0.036-0.783-0.253l-2.899-2.906
				c-0.4-0.4-0.4-1.051,0-1.452s1.05-0.401,1.45,0l2.232,2.237V8.483V7.982V6.999V3.974c0-0.553,0.448-1.001,1-1.001
				c0.553,0,1,0.448,1,1.001v3.025v0.983v0.501l4.5,1.503c0.276,0,0.5,0.225,0.5,0.501V14.496z M15.996,3.458
				c0-0.004-0.002-0.008-0.002-0.012c-0.007-0.118-0.053-0.223-0.126-0.306c-0.007-0.007-0.004-0.019-0.011-0.025
				c-0.008-0.008-0.019-0.005-0.026-0.011c-0.01-0.01-0.025-0.008-0.036-0.016L13.82,1.11c-0.188-0.188-0.491-0.188-0.679,0
				c-0.188,0.188-0.188,0.493,0,0.681l1.179,1.182h-3.821c-0.275,0-0.5,0.224-0.5,0.5c0,0.277,0.225,0.501,0.5,0.501h3.821
				l-1.179,1.182c-0.188,0.188-0.188,0.492,0,0.681c0.188,0.188,0.491,0.188,0.679,0l1.946-1.95c0.011-0.007,0.017-0.02,0.026-0.027
				c0.02-0.015,0.047-0.009,0.064-0.026c0.019-0.02,0.013-0.049,0.028-0.069c0.057-0.071,0.093-0.152,0.103-0.248
				c0-0.01,0.008-0.018,0.008-0.028c0-0.005,0.003-0.009,0.003-0.014S15.996,3.463,15.996,3.458z"/>
		</g>
	</g>
</g>
<g id="Layer_1">
</g>
</svg>
