<?xml version="1.0" encoding="iso-8859-1"?>
<!-- Generator: Adobe Illustrator 16.0.0, SVG Export Plug-In . SVG Version: 6.00 Build 0)  -->
<!DOCTYPE svg PUBLIC "-//W3C//DTD SVG 1.1//EN" "http://www.w3.org/Graphics/SVG/1.1/DTD/svg11.dtd">
<svg version="1.1" xmlns="http://www.w3.org/2000/svg" xmlns:xlink="http://www.w3.org/1999/xlink" x="0px" y="0px" width="16px"
	 height="16px" viewBox="0 0 16 16" style="enable-background:new 0 0 16 16;" xml:space="preserve">
<g id="misc-wifi" style="enable-background:new    ;">
	<g id="misc-wifi_1_">
		<g>
			<path d="M4.372,7.986l0.739,0.716c0.855-0.45,1.837-0.707,2.881-0.707c1.058,0,2.05,0.265,2.913,0.725l0.75-0.718
				c-1.064-0.629-2.314-0.999-3.654-0.999C6.67,7.003,5.431,7.367,4.372,7.986z M14.999-0.001h-14c-0.552,0-1,0.447-1,0.999v14.001
				c0,0.552,0.448,1,1,1h14c0.553,0,1-0.448,1-1V0.998C15.999,0.446,15.552-0.001,14.999-0.001z M14.999,14.499
				c0,0.276-0.225,0.5-0.5,0.5h-13c-0.276,0-0.5-0.224-0.5-0.5v-13c0-0.276,0.224-0.501,0.5-0.501h13c0.275,0,0.5,0.225,0.5,0.501
				V14.499z M6.669,10.211l1.33,1.288l1.342-1.284c-0.42-0.141-0.869-0.222-1.34-0.222C7.533,9.993,7.086,10.072,6.669,10.211z
				 M2.162,5.846l0.731,0.707c1.452-0.974,3.209-1.548,5.108-1.548c1.912,0,3.684,0.585,5.143,1.574l0.734-0.704
				C12.228,4.7,10.2,3.999,8.001,3.999C5.818,3.999,3.805,4.688,2.162,5.846z"/>
		</g>
	</g>
</g>
<g id="Layer_1">
</g>
</svg>
