<?xml version="1.0" encoding="iso-8859-1"?>
<!-- Generator: Adobe Illustrator 16.0.0, SVG Export Plug-In . SVG Version: 6.00 Build 0)  -->
<!DOCTYPE svg PUBLIC "-//W3C//DTD SVG 1.1//EN" "http://www.w3.org/Graphics/SVG/1.1/DTD/svg11.dtd">
<svg version="1.1" xmlns="http://www.w3.org/2000/svg" xmlns:xlink="http://www.w3.org/1999/xlink" x="0px" y="0px" width="16px"
	 height="16px" viewBox="0 0 16 16" style="enable-background:new 0 0 16 16;" xml:space="preserve">
<g id="misc-mood-happy" style="enable-background:new    ;">
	<g id="misc-mood-happy_2_">
		<g>
			<path d="M5.499,7.999c0.552,0,1-0.448,1-1c0-0.553-0.448-1-1-1c-0.553,0-1,0.447-1,1C4.499,7.551,4.946,7.999,5.499,7.999z
				 M7.999-0.001c-4.418,0-8,3.582-8,8s3.582,8,8,8s8-3.582,8-8S12.417-0.001,7.999-0.001z M7.999,14.999c-3.866,0-7-3.135-7-7
				c0-3.866,3.134-7,7-7c3.866,0,7,3.134,7,7C14.999,11.864,11.864,14.999,7.999,14.999z M10.499,7.999c0.553,0,1-0.448,1-1
				c0-0.553-0.447-1-1-1s-1,0.447-1,1C9.499,7.551,9.946,7.999,10.499,7.999z M11.991,10.999c-0.912,1.213-2.357,2-3.993,2
				c-1.634,0-3.081-0.787-3.993-2H2.808c1.038,1.791,2.971,3,5.191,3c2.219,0,4.153-1.209,5.192-3H11.991z"/>
		</g>
	</g>
</g>
<g id="Layer_1">
</g>
</svg>
