<?xml version="1.0" encoding="iso-8859-1"?>
<!-- Generator: Adobe Illustrator 16.0.0, SVG Export Plug-In . SVG Version: 6.00 Build 0)  -->
<!DOCTYPE svg PUBLIC "-//W3C//DTD SVG 1.1//EN" "http://www.w3.org/Graphics/SVG/1.1/DTD/svg11.dtd">
<svg version="1.1" xmlns="http://www.w3.org/2000/svg" xmlns:xlink="http://www.w3.org/1999/xlink" x="0px" y="0px" width="16px"
	 height="16px" viewBox="0 0 16 16" style="enable-background:new 0 0 16 16;" xml:space="preserve">
<g id="misc-female-gender" style="enable-background:new    ;">
	<g id="misc-female-gender_1_">
		<g>
			<path d="M15.999,5.499c0-3.038-2.463-5.5-5.501-5.5c-3.037,0-5.5,2.462-5.5,5.5c0,2.866,2.2,5.192,5,5.449v2.051h-2
				c-0.276,0-0.5,0.224-0.5,0.5s0.224,0.5,0.5,0.5h2v1.5c0,0.275,0.224,0.5,0.499,0.5c0.276,0,0.501-0.225,0.501-0.5v-1.5h2
				c0.275,0,0.5-0.224,0.5-0.5s-0.225-0.5-0.5-0.5h-2v-2.051C13.798,10.692,15.999,8.365,15.999,5.499z M10.498,9.999
				c-2.485,0-4.5-2.015-4.5-4.5s2.014-4.5,4.5-4.5s4.501,2.015,4.501,4.5S12.983,9.999,10.498,9.999z"/>
		</g>
	</g>
</g>
<g id="Layer_1">
</g>
</svg>
