<?xml version="1.0" encoding="iso-8859-1"?>
<!-- Generator: Adobe Illustrator 16.0.0, SVG Export Plug-In . SVG Version: 6.00 Build 0)  -->
<!DOCTYPE svg PUBLIC "-//W3C//DTD SVG 1.1//EN" "http://www.w3.org/Graphics/SVG/1.1/DTD/svg11.dtd">
<svg version="1.1" xmlns="http://www.w3.org/2000/svg" xmlns:xlink="http://www.w3.org/1999/xlink" x="0px" y="0px" width="16px"
	 height="16px" viewBox="0 0 16 16" style="enable-background:new 0 0 16 16;" xml:space="preserve">
<g id="misc-cube" style="enable-background:new    ;">
	<g id="misc-cube_2_">
		<g>
			<path d="M15.716,4.429L9.907,1.21c-0.656-0.317-0.176-0.356-0.914,0L3.23,4.429C2.915,4.744,2.867,5.211,3.061,5.588
				c-0.058,0.126-0.093,0.263-0.093,0.41v5.501c0,0.553,0.448,1,1,1l5,3.5c0.186,0,0.35-0.064,0.5-0.153
				c0.148,0.089,0.314,0.153,0.5,0.153l5.5-3.5c0.553,0,0.5-0.447,0.5-1V5.998c0-0.144-0.033-0.279-0.088-0.402
				C16.079,5.218,16.032,4.746,15.716,4.429z M8.968,9.162v5.837l-5-3.5V5.998L8.968,9.162C8.968,9.161,8.968,9.161,8.968,9.162z
				 M14.968,11.499l-5,3.5V9.162l5-3.164V11.499z M14.956,5.005L9.653,8.224C9.587,8.247,9.526,8.279,9.466,8.315
				C9.411,8.282,9.358,8.249,9.298,8.227l-5.33-3.228l5.488-3.082l5.512,3.081L14.956,5.005z"/>
		</g>
	</g>
</g>
<g id="Layer_1">
</g>
</svg>
