<?xml version="1.0" encoding="iso-8859-1"?>
<!-- Generator: Adobe Illustrator 16.0.0, SVG Export Plug-In . SVG Version: 6.00 Build 0)  -->
<!DOCTYPE svg PUBLIC "-//W3C//DTD SVG 1.1//EN" "http://www.w3.org/Graphics/SVG/1.1/DTD/svg11.dtd">
<svg version="1.1" xmlns="http://www.w3.org/2000/svg" xmlns:xlink="http://www.w3.org/1999/xlink" x="0px" y="0px" width="16px"
	 height="16px" viewBox="0 0 16 16" style="enable-background:new 0 0 16 16;" xml:space="preserve">
<g id="misc-globe" style="enable-background:new    ;">
	<g id="misc-globe_1_">
		<g>
			<path d="M15.999,6.466c0-2.637-1.367-5.029-3.656-6.398c-0.232-0.142-0.535-0.062-0.672,0.177s-0.059,0.545,0.174,0.685
				c1.986,1.188,3.172,3.259,3.172,5.537c0,3.787-2.703,6.535-6.426,6.535c-0.833,0-1.641-0.158-2.401-0.472
				c-0.251-0.104-0.538,0.021-0.64,0.276c-0.102,0.256,0.02,0.548,0.271,0.65c0.879,0.362,1.811,0.545,2.77,0.545
				c0.14,0,0.275-0.013,0.413-0.02V15H7.555c-0.288,0-0.521,0.225-0.521,0.5s0.233,0.499,0.521,0.499h3.942
				c0.287,0,0.521-0.224,0.521-0.499S11.784,15,11.497,15H9.995v-1.123C13.544,13.265,15.999,10.339,15.999,6.466z M13.985,6.527
				c0-3.042-2.459-5.522-5.493-5.522c-3.035,0-5.494,2.48-5.494,5.522c0,3.04,2.459,5.49,5.494,5.49
				C11.526,12.018,13.985,9.567,13.985,6.527z M3.996,6.527c0-2.486,2.017-4.522,4.496-4.522c2.479,0,4.497,2.036,4.497,4.522
				c0,2.483-2.018,4.489-4.497,4.489C6.013,11.017,3.996,9.011,3.996,6.527z"/>
		</g>
	</g>
</g>
<g id="Layer_1">
</g>
</svg>
