<?xml version="1.0" encoding="iso-8859-1"?>
<!-- Generator: Adobe Illustrator 16.0.0, SVG Export Plug-In . SVG Version: 6.00 Build 0)  -->
<!DOCTYPE svg PUBLIC "-//W3C//DTD SVG 1.1//EN" "http://www.w3.org/Graphics/SVG/1.1/DTD/svg11.dtd">
<svg version="1.1" xmlns="http://www.w3.org/2000/svg" xmlns:xlink="http://www.w3.org/1999/xlink" x="0px" y="0px" width="16px"
	 height="16px" viewBox="0 0 16 16" style="enable-background:new 0 0 16 16;" xml:space="preserve">
<g id="misc-pointer" style="enable-background:new    ;">
	<g id="misc-pointer_2_">
		<g>
			<path d="M14.999,8.999l-4-1.143V4c0-1.105-0.896-2.001-2-2.001s-2,0.896-2,2.001v3.999V10.1L6.491,9.592
				c-0.801-0.801-2.099-0.801-2.899,0s-0.801,2.099,0,2.899l2.899,2.899c0.402,0.403,0.932,0.602,1.459,0.599
				c0.018,0.001,0.031,0.01,0.049,0.01h7c0.553,0,1-0.447,1-1v-5C15.999,9.447,15.552,8.999,14.999,8.999z M14.999,14.499
				c0,0.276-0.224,0.5-0.5,0.5h-0.5h-6v-0.08c-0.281,0.021-0.567-0.037-0.783-0.253l-2.899-2.899c-0.4-0.4-0.4-1.05,0-1.45
				s1.05-0.4,1.45,0l2.232,2.233V9.999v-1.5V4c0-0.553,0.448-1.001,1-1.001c0.553,0,1,0.448,1,1.001v4.499l4.5,1.5
				c0.276,0,0.5,0.224,0.5,0.5V14.499z"/>
		</g>
	</g>
</g>
<g id="Layer_1">
</g>
</svg>
