<?xml version="1.0" encoding="iso-8859-1"?>
<!-- Generator: Adobe Illustrator 16.0.0, SVG Export Plug-In . SVG Version: 6.00 Build 0)  -->
<!DOCTYPE svg PUBLIC "-//W3C//DTD SVG 1.1//EN" "http://www.w3.org/Graphics/SVG/1.1/DTD/svg11.dtd">
<svg version="1.1" xmlns="http://www.w3.org/2000/svg" xmlns:xlink="http://www.w3.org/1999/xlink" x="0px" y="0px" width="16px"
	 height="16px" viewBox="0 0 16 16" style="enable-background:new 0 0 16 16;" xml:space="preserve">
<g id="misc-puzzle" style="enable-background:new    ;">
	<g id="misc-puzzle_2_">
		<g>
			<path d="M15.653,7.152l-1.656-1.656c1.107-0.355,1.908-1.395,1.908-2.617c0-1.517-1.232-2.751-2.746-2.751
				c-1.223,0-2.26,0.804-2.615,1.909L8.839,0.331C8.392-0.116,7.611-0.117,7.161,0.332l-2.327,2.33
				C4.68,2.816,4.643,3.054,4.744,3.247c0.101,0.193,0.313,0.301,0.53,0.261c0.143-0.025,0.257-0.037,0.359-0.037
				c1.094,0,1.894,0.892,1.894,1.986c0,1.093-0.8,2.002-1.894,2.002c-1.093,0-1.982-0.909-1.982-2.002
				c0-0.104,0.012-0.219,0.037-0.361c0.038-0.215-0.067-0.43-0.261-0.531c-0.193-0.101-0.431-0.063-0.584,0.09L0.348,7.153
				c-0.46,0.462-0.46,1.215,0.001,1.68l6.813,6.819c0.225,0.225,0.522,0.347,0.839,0.347s0.615-0.122,0.84-0.347l6.813-6.82
				C16.114,8.368,16.114,7.615,15.653,7.152z M14.946,8.126l-6.811,6.818c-0.098,0.096-0.173,0.096-0.269,0L1.056,8.126
				C0.982,8.052,0.982,7.932,1.055,7.858l1.685-1.686c0.321,1.301,1.497,2.285,2.895,2.285c1.645,0,2.893-1.355,2.893-3.001
				c0-1.399-0.876-2.577-2.176-2.899L7.866,1.04c0.098-0.097,0.172-0.095,0.268-0.001l2.451,2.454
				c0.148,0.149,0.377,0.188,0.568,0.098c0.189-0.092,0.303-0.294,0.281-0.505l-0.012-0.089c-0.006-0.039-0.012-0.078-0.012-0.118
				c0-0.966,0.785-1.751,1.748-1.751s1.748,0.785,1.748,1.751c0,0.964-0.785,1.748-1.748,1.748c-0.045,0-0.086-0.007-0.129-0.013
				l-0.076-0.009c-0.213-0.026-0.414,0.087-0.508,0.278c-0.092,0.191-0.053,0.421,0.098,0.571l2.402,2.403
				C15.021,7.933,15.021,8.052,14.946,8.126z"/>
		</g>
	</g>
</g>
<g id="Layer_1">
</g>
</svg>
