<?xml version="1.0" encoding="iso-8859-1"?>
<!-- Generator: Adobe Illustrator 16.0.0, SVG Export Plug-In . SVG Version: 6.00 Build 0)  -->
<!DOCTYPE svg PUBLIC "-//W3C//DTD SVG 1.1//EN" "http://www.w3.org/Graphics/SVG/1.1/DTD/svg11.dtd">
<svg version="1.1" xmlns="http://www.w3.org/2000/svg" xmlns:xlink="http://www.w3.org/1999/xlink" x="0px" y="0px" width="16px"
	 height="16px" viewBox="0 0 16 16" style="enable-background:new 0 0 16 16;" xml:space="preserve">
<g id="misc-mood-sad" style="enable-background:new    ;">
	<g id="misc-mood-sad_1_">
		<g>
			<path d="M5.499,7.999c0.552,0,1-0.448,1-1c0-0.553-0.448-1-1-1c-0.553,0-1,0.447-1,1C4.499,7.551,4.946,7.999,5.499,7.999z
				 M10.499,7.999c0.553,0,1-0.448,1-1c0-0.553-0.447-1-1-1s-1,0.447-1,1C9.499,7.551,9.946,7.999,10.499,7.999z M8.249,8.999
				c-2.247,0-4.204,1.209-5.254,3h1.212c0.923-1.213,2.387-2,4.042-2c1.654,0,3.117,0.787,4.041,2h1.213
				C12.452,10.208,10.495,8.999,8.249,8.999z M7.999-0.001c-4.418,0-8,3.582-8,8s3.582,8,8,8s8-3.582,8-8S12.417-0.001,7.999-0.001z
				 M7.999,14.999c-3.866,0-7-3.135-7-7c0-3.866,3.134-7,7-7c3.866,0,7,3.134,7,7C14.999,11.864,11.864,14.999,7.999,14.999z"/>
		</g>
	</g>
</g>
<g id="Layer_1">
</g>
</svg>
