<?xml version="1.0" encoding="iso-8859-1"?>
<!-- Generator: Adobe Illustrator 16.0.0, SVG Export Plug-In . SVG Version: 6.00 Build 0)  -->
<!DOCTYPE svg PUBLIC "-//W3C//DTD SVG 1.1//EN" "http://www.w3.org/Graphics/SVG/1.1/DTD/svg11.dtd">
<svg version="1.1" xmlns="http://www.w3.org/2000/svg" xmlns:xlink="http://www.w3.org/1999/xlink" x="0px" y="0px" width="16px"
	 height="16px" viewBox="0 0 16 16" style="enable-background:new 0 0 16 16;" xml:space="preserve">
<g id="misc-crown" style="enable-background:new    ;">
	<g id="misc-crown_1_">
		<g>
			<path d="M12.499,9l-2.355-3.364c0.516-0.362,0.855-0.959,0.855-1.637c0-1.104-0.896-2-2-2c-1.105,0-2,0.896-2,2
				c0,0.678,0.339,1.274,0.854,1.637L5.499,9l-3.5-3.001v7v1v2h14v-2v-1v-7L12.499,9z M8.999,2.999c0.553,0,1,0.448,1,1
				c0,0.553-0.447,1.001-1,1.001s-1-0.448-1-1.001C7.999,3.447,8.446,2.999,8.999,2.999z M14.999,14.999h-12v-1h12V14.999z
				 M14.999,12.999h-12V8.174l1.849,1.585l0.837,0.718l0.633-0.903l2.513-3.591C8.888,5.987,8.94,5.999,8.999,5.999
				c0.057,0,0.111-0.012,0.168-0.017l2.512,3.591l0.633,0.903l0.838-0.718l1.85-1.585V12.999z"/>
		</g>
	</g>
</g>
<g id="Layer_1">
</g>
</svg>
