<?xml version="1.0" encoding="iso-8859-1"?>
<!-- Generator: Adobe Illustrator 16.0.0, SVG Export Plug-In . SVG Version: 6.00 Build 0)  -->
<!DOCTYPE svg PUBLIC "-//W3C//DTD SVG 1.1//EN" "http://www.w3.org/Graphics/SVG/1.1/DTD/svg11.dtd">
<svg version="1.1" xmlns="http://www.w3.org/2000/svg" xmlns:xlink="http://www.w3.org/1999/xlink" x="0px" y="0px" width="16px"
	 height="16px" viewBox="0 0 16 16" style="enable-background:new 0 0 16 16;" xml:space="preserve">
<g id="music-pause" style="enable-background:new    ;">
	<g id="music-pause_1_">
		<g>
			<path d="M5.499,0.999h-1c-0.829,0-1.5,0.671-1.5,1.499v11.001c0,0.828,0.671,1.5,1.5,1.5h1c0.828,0,1.5-0.672,1.5-1.5V2.498
				C6.999,1.67,6.327,0.999,5.499,0.999z M5.999,13.499c0,0.276-0.224,0.5-0.5,0.5h-1c-0.276,0-0.5-0.224-0.5-0.5V2.498
				c0-0.275,0.224-0.499,0.5-0.499h1c0.276,0,0.5,0.224,0.5,0.499V13.499z M11.499,0.999h-1c-0.828,0-1.5,0.671-1.5,1.499v11.001
				c0,0.828,0.672,1.5,1.5,1.5h1c0.828,0,1.5-0.672,1.5-1.5V2.498C12.999,1.67,12.327,0.999,11.499,0.999z M11.999,13.499
				c0,0.276-0.225,0.5-0.5,0.5h-1c-0.275,0-0.5-0.224-0.5-0.5V2.498c0-0.275,0.225-0.499,0.5-0.499h1c0.275,0,0.5,0.224,0.5,0.499
				V13.499z"/>
		</g>
	</g>
</g>
<g id="Layer_1">
</g>
</svg>
