<?xml version="1.0" encoding="iso-8859-1"?>
<!-- Generator: Adobe Illustrator 16.0.0, SVG Export Plug-In . SVG Version: 6.00 Build 0)  -->
<!DOCTYPE svg PUBLIC "-//W3C//DTD SVG 1.1//EN" "http://www.w3.org/Graphics/SVG/1.1/DTD/svg11.dtd">
<svg version="1.1" xmlns="http://www.w3.org/2000/svg" xmlns:xlink="http://www.w3.org/1999/xlink" x="0px" y="0px" width="16px"
	 height="16px" viewBox="0 0 16 16" style="enable-background:new 0 0 16 16;" xml:space="preserve">
<g id="music-eq" style="enable-background:new    ;">
	<g id="music-eq_2_">
		<g>
			<path d="M4.499,6.999h-1v-6h-1v6h-1c-0.552,0-1,0.447-1,1v2.999c0,0.553,0.448,1.001,1,1.001h1v3h1v-3h1c0.552,0,1-0.448,1-1.001
				V7.999C5.499,7.446,5.051,6.999,4.499,6.999z M4.499,10.499c0,0.276-0.224,0.499-0.5,0.499h-2c-0.276,0-0.5-0.223-0.5-0.499v-2
				c0-0.276,0.224-0.5,0.5-0.5h2c0.276,0,0.5,0.224,0.5,0.5V10.499z M10.499,2.999c0-0.553-0.447-1-1-1h-1v-1h-1v1h-1
				c-0.552,0-1,0.447-1,1v3c0,0.553,0.448,1,1,1h1v8h1v-8h1c0.553,0,1-0.447,1-1V2.999z M9.499,5.499c0,0.276-0.225,0.5-0.5,0.5h-2
				c-0.276,0-0.5-0.224-0.5-0.5v-2c0-0.276,0.224-0.5,0.5-0.5h2c0.275,0,0.5,0.224,0.5,0.5V5.499z M14.499,8.999h-1v-8h-1v8h-1
				c-0.553,0-1,0.447-1,1v3c0,0.552,0.447,1,1,1h1v1h1v-1h1c0.553,0,1-0.448,1-1v-3C15.499,9.446,15.052,8.999,14.499,8.999z
				 M14.499,12.499c0,0.276-0.225,0.5-0.5,0.5h-2c-0.275,0-0.5-0.224-0.5-0.5v-2c0-0.276,0.225-0.5,0.5-0.5h2
				c0.275,0,0.5,0.224,0.5,0.5V12.499z"/>
		</g>
	</g>
</g>
<g id="Layer_1">
</g>
</svg>
