<?xml version="1.0" encoding="iso-8859-1"?>
<!-- Generator: Adobe Illustrator 16.0.0, SVG Export Plug-In . SVG Version: 6.00 Build 0)  -->
<!DOCTYPE svg PUBLIC "-//W3C//DTD SVG 1.1//EN" "http://www.w3.org/Graphics/SVG/1.1/DTD/svg11.dtd">
<svg version="1.1" xmlns="http://www.w3.org/2000/svg" xmlns:xlink="http://www.w3.org/1999/xlink" x="0px" y="0px" width="16px"
	 height="16px" viewBox="0 0 16 16" style="enable-background:new 0 0 16 16;" xml:space="preserve">
<g id="music-album-cd" style="enable-background:new    ;">
	<g id="music-album-cd_1_">
		<g>
			<path d="M11.999,1.078V0.999c0-0.553-0.447-1-1-1h-10c-0.552,0-1,0.447-1,1v14c0,0.552,0.448,1,1,1h10c0.553,0,1-0.448,1-1V14.92
				c2.389-1.385,4-3.962,4-6.921C15.999,5.039,14.388,2.462,11.999,1.078z M10.999,14.499c0,0.276-0.225,0.5-0.5,0.5h-9
				c-0.276,0-0.5-0.224-0.5-0.5v-13c0-0.276,0.224-0.5,0.5-0.5h9c0.275,0,0.5,0.224,0.5,0.5v4c-1.656,0-3,1.343-3,3
				c0,1.656,1.344,3,3,3V14.499z M11.999,13.732v-2.233v-1h-1c-1.105,0-2-0.896-2-2c0-1.105,0.895-2,2-2h1v-1V2.266
				c1.811,1.266,3,3.357,3,5.733S13.81,12.467,11.999,13.732z"/>
		</g>
	</g>
</g>
<g id="Layer_1">
</g>
</svg>
