<?xml version="1.0" encoding="iso-8859-1"?>
<!-- Generator: Adobe Illustrator 16.0.0, SVG Export Plug-In . SVG Version: 6.00 Build 0)  -->
<!DOCTYPE svg PUBLIC "-//W3C//DTD SVG 1.1//EN" "http://www.w3.org/Graphics/SVG/1.1/DTD/svg11.dtd">
<svg version="1.1" xmlns="http://www.w3.org/2000/svg" xmlns:xlink="http://www.w3.org/1999/xlink" x="0px" y="0px" width="16px"
	 height="16px" viewBox="0 0 16 16" style="enable-background:new 0 0 16 16;" xml:space="preserve">
<g id="music-headphone-a" style="enable-background:new    ;">
	<g id="music-headphone-a_2_">
		<g>
			<path d="M14.944,6.499c-0.262-3.628-3.252-6.5-6.945-6.5c-3.694,0-6.684,2.872-6.945,6.5h-1.055v1.499v1.501v3
				c0,0.828,0.671,1.499,1.5,1.499h2c0.828,0,1.5-0.671,1.5-1.499v-3v-3H3.501C3.5,6.499,3.5,6.498,3.499,6.498h-1.45
				c0.258-3.075,2.807-5.499,5.95-5.499s5.691,2.424,5.949,5.499h-1.449c-0.002,0-0.002,0.001-0.002,0.001h-1.498v1.499v4.501
				c0,0.828,0.672,1.499,1.5,1.499h0.5v2.001h1v-2.001h0.5c0.828,0,1.5-0.671,1.5-1.499v-3v-3H14.944z M3.999,7.499v2v3
				c0,0.276-0.224,0.5-0.5,0.5h-2c-0.276,0-0.5-0.224-0.5-0.5v-3v-2H3.999z M14.999,9.499v3c0,0.276-0.225,0.5-0.5,0.5h-2
				c-0.275,0-0.5-0.224-0.5-0.5v-3v-2h3V9.499z"/>
		</g>
	</g>
</g>
<g id="Layer_1">
</g>
</svg>
