<?xml version="1.0" encoding="iso-8859-1"?>
<!-- Generator: Adobe Illustrator 16.0.0, SVG Export Plug-In . SVG Version: 6.00 Build 0)  -->
<!DOCTYPE svg PUBLIC "-//W3C//DTD SVG 1.1//EN" "http://www.w3.org/Graphics/SVG/1.1/DTD/svg11.dtd">
<svg version="1.1" xmlns="http://www.w3.org/2000/svg" xmlns:xlink="http://www.w3.org/1999/xlink" x="0px" y="0px" width="16px"
	 height="16px" viewBox="0 0 16 16" style="enable-background:new 0 0 16 16;" xml:space="preserve">
<g id="music-headphone" style="enable-background:new    ;">
	<g id="music-headphone_1_">
		<g>
			<path d="M14.983,7.268c0.004-0.09,0.016-0.178,0.016-0.269c0-3.866-3.135-7-7-7c-3.866,0-7,3.134-7,7
				c0,0.091,0.012,0.179,0.016,0.269C0.411,7.611-0.001,8.254-0.001,8.999v3c0,1.104,0.895,1.999,2,1.999h1
				c0.196,0,0.382-0.037,0.562-0.09c0.141,0.056,0.287,0.09,0.438,0.09c1.104,0,2-1.566,2-3.499s-0.896-3.5-2-3.5
				c-0.151,0-0.297,0.034-0.438,0.09c-0.18-0.053-0.366-0.09-0.562-0.09h-1h0c0-3.314,2.687-6,6-6c3.313,0,6,2.686,6,6h-1
				c-0.197,0-0.383,0.037-0.563,0.09c-0.141-0.056-0.287-0.09-0.438-0.09c-1.105,0-2,1.567-2,3.5s0.895,3.499,2,3.499
				c0.15,0,0.297-0.034,0.438-0.09c0.18,0.053,0.365,0.09,0.563,0.09v2.001h1v-2.001c1.104,0,2-0.895,2-1.999v-3
				C15.999,8.254,15.587,7.611,14.983,7.268z M3.999,7.999c0.552,0,1,1.119,1,2.5s-0.448,2.5-1,2.5c-0.553,0-1-1.119-1-2.5
				S3.446,7.999,3.999,7.999z M1.999,7.999h0.603c-0.371,0.636-0.603,1.52-0.603,2.5c0,0.981,0.232,1.865,0.603,2.5H1.999
				c-0.552,0-1-0.447-1-1v-3C0.999,8.447,1.447,7.999,1.999,7.999z M11.999,12.999c-0.553,0-1-1.119-1-2.5s0.447-2.5,1-2.5
				s1,1.119,1,2.5S12.552,12.999,11.999,12.999z M14.999,11.999c0,0.553-0.447,1-1,1h-0.604c0.371-0.635,0.604-1.519,0.604-2.5
				c0-0.98-0.232-1.864-0.604-2.5h0.604c0.553,0,1,0.448,1,1V11.999z"/>
		</g>
	</g>
</g>
<g id="Layer_1">
</g>
</svg>
