<?xml version="1.0" encoding="iso-8859-1"?>
<!-- Generator: Adobe Illustrator 16.0.0, SVG Export Plug-In . SVG Version: 6.00 Build 0)  -->
<!DOCTYPE svg PUBLIC "-//W3C//DTD SVG 1.1//EN" "http://www.w3.org/Graphics/SVG/1.1/DTD/svg11.dtd">
<svg version="1.1" xmlns="http://www.w3.org/2000/svg" xmlns:xlink="http://www.w3.org/1999/xlink" x="0px" y="0px" width="16px"
	 height="16px" viewBox="0 0 16 16" style="enable-background:new 0 0 16 16;" xml:space="preserve">
<g id="music-stop" style="enable-background:new    ;">
	<g id="music-stop_2_">
		<g>
			<path d="M12.999,1.999h-10c-0.552,0-1,0.447-1,1v10c0,0.552,0.448,1,1,1h10c0.553,0,1-0.448,1-1v-10
				C13.999,2.446,13.552,1.999,12.999,1.999z M12.999,12.499c0,0.276-0.225,0.5-0.5,0.5h-9c-0.276,0-0.5-0.224-0.5-0.5v-9
				c0-0.276,0.224-0.5,0.5-0.5h9c0.275,0,0.5,0.224,0.5,0.5V12.499z"/>
		</g>
	</g>
</g>
<g id="Layer_1">
</g>
</svg>
