<?xml version="1.0" encoding="iso-8859-1"?>
<!-- Generator: Adobe Illustrator 16.0.0, SVG Export Plug-In . SVG Version: 6.00 Build 0)  -->
<!DOCTYPE svg PUBLIC "-//W3C//DTD SVG 1.1//EN" "http://www.w3.org/Graphics/SVG/1.1/DTD/svg11.dtd">
<svg version="1.1" xmlns="http://www.w3.org/2000/svg" xmlns:xlink="http://www.w3.org/1999/xlink" x="0px" y="0px" width="16px"
	 height="16px" viewBox="0 0 16 16" style="enable-background:new 0 0 16 16;" xml:space="preserve">
<g id="music-speaker" style="enable-background:new    ;">
	<g id="music-speaker_1_">
		<g>
			<path d="M2.999,1.999h-1v1h1V1.999z M12.999,13.998h1v-0.999h-1V13.998z M1.999,13.998h1v-0.999h-1V13.998z M12.999,2.999h1v-1
				h-1V2.999z M14.999-0.001h-14c-0.552,0-1,0.447-1,1v14c0,0.552,0.448,1,1,1h14c0.553,0,1-0.448,1-1v-14
				C15.999,0.446,15.552-0.001,14.999-0.001z M14.999,14.499c0,0.276-0.225,0.5-0.5,0.5h-13c-0.276,0-0.5-0.224-0.5-0.5v-13
				c0-0.276,0.224-0.5,0.5-0.5h13c0.275,0,0.5,0.224,0.5,0.5V14.499z M7.999,1.999c-3.314,0-6,2.686-6,6
				c0,3.313,2.686,5.999,6,5.999c3.314,0,6-2.686,6-5.999C13.999,4.685,11.313,1.999,7.999,1.999z M7.999,12.999
				c-2.762,0-5-2.239-5-5c0-2.762,2.238-5,5-5s5,2.238,5,5C12.999,10.76,10.761,12.999,7.999,12.999z M7.999,4.999
				c-1.657,0-3,1.343-3,3c0,1.656,1.343,3,3,3c1.656,0,3-1.344,3-3C10.999,6.342,9.655,4.999,7.999,4.999z M7.999,9.999
				c-1.104,0-2-0.896-2-2s0.896-2,2-2c1.104,0,2,0.896,2,2S9.103,9.999,7.999,9.999z"/>
		</g>
	</g>
</g>
<g id="Layer_1">
</g>
</svg>
