<?xml version="1.0" encoding="iso-8859-1"?>
<!-- Generator: Adobe Illustrator 16.0.0, SVG Export Plug-In . SVG Version: 6.00 Build 0)  -->
<!DOCTYPE svg PUBLIC "-//W3C//DTD SVG 1.1//EN" "http://www.w3.org/Graphics/SVG/1.1/DTD/svg11.dtd">
<svg version="1.1" xmlns="http://www.w3.org/2000/svg" xmlns:xlink="http://www.w3.org/1999/xlink" x="0px" y="0px" width="16px"
	 height="16px" viewBox="0 0 16 16" style="enable-background:new 0 0 16 16;" xml:space="preserve">
<g id="music-eq-a" style="enable-background:new    ;">
	<g id="music-eq-a_1_">
		<g>
			<path d="M8.499,2.049v-1.05h-1v1.05c-1.141,0.232-2,1.241-2,2.45s0.859,2.218,2,2.449v8.051h1V6.948c1.141-0.231,2-1.24,2-2.449
				S9.64,2.281,8.499,2.049z M7.999,5.999c-0.828,0-1.5-0.672-1.5-1.5c0-0.829,0.671-1.5,1.5-1.5c0.829,0,1.5,0.671,1.5,1.5
				C9.499,5.327,8.827,5.999,7.999,5.999z M13.499,9.049v-8.05h-1v8.05c-1.141,0.232-2,1.24-2,2.45c0,1.209,0.859,2.218,2,2.449
				v1.051h1v-1.051c1.141-0.231,2-1.24,2-2.449C15.499,10.289,14.64,9.281,13.499,9.049z M12.999,12.999c-0.828,0-1.5-0.672-1.5-1.5
				s0.672-1.5,1.5-1.5s1.5,0.672,1.5,1.5S13.827,12.999,12.999,12.999z M3.499,7.05V0.999h-1V7.05c-1.141,0.231-2,1.239-2,2.449
				c0,1.209,0.859,2.218,2,2.449v3.051h1v-3.051c1.141-0.231,2-1.24,2-2.449C5.499,8.289,4.64,7.281,3.499,7.05z M2.999,10.998
				c-0.829,0-1.5-0.671-1.5-1.499c0-0.829,0.671-1.5,1.5-1.5c0.828,0,1.5,0.671,1.5,1.5C4.499,10.327,3.827,10.998,2.999,10.998z"/>
		</g>
	</g>
</g>
<g id="Layer_1">
</g>
</svg>
