<?xml version="1.0" encoding="iso-8859-1"?>
<!-- Generator: Adobe Illustrator 16.0.0, SVG Export Plug-In . SVG Version: 6.00 Build 0)  -->
<!DOCTYPE svg PUBLIC "-//W3C//DTD SVG 1.1//EN" "http://www.w3.org/Graphics/SVG/1.1/DTD/svg11.dtd">
<svg version="1.1" xmlns="http://www.w3.org/2000/svg" xmlns:xlink="http://www.w3.org/1999/xlink" x="0px" y="0px" width="16px"
	 height="16px" viewBox="0 0 16 16" style="enable-background:new 0 0 16 16;" xml:space="preserve">
<g id="music-speaker-a" style="enable-background:new    ;">
	<g id="music-speaker-a_2_">
		<g>
			<path d="M11.499,11.499c0-1.934-1.566-3.5-3.5-3.5c-1.933,0-3.5,1.566-3.5,3.5c0,1.933,1.567,3.5,3.5,3.5
				C9.933,14.999,11.499,13.432,11.499,11.499z M7.999,13.998c-1.38,0-2.5-1.118-2.5-2.499s1.119-2.5,2.5-2.5
				c1.381,0,2.5,1.119,2.5,2.5S9.38,13.998,7.999,13.998z M7.999,1.999c-1.38,0-2.5,1.119-2.5,2.5c0,1.38,1.119,2.5,2.5,2.5
				c1.381,0,2.5-1.12,2.5-2.5C10.499,3.118,9.38,1.999,7.999,1.999z M7.999,5.999c-0.828,0-1.5-0.672-1.5-1.5
				c0-0.829,0.671-1.5,1.5-1.5c0.829,0,1.5,0.671,1.5,1.5C9.499,5.327,8.827,5.999,7.999,5.999z M13.415-0.001H2.582
				c-0.598,0-1.083,0.447-1.083,1v14c0,0.552,0.485,1,1.083,1h10.833c0.6,0,1.084-0.448,1.084-1v-14
				C14.499,0.446,14.015-0.001,13.415-0.001z M13.499,14.499c0,0.276-0.246,0.5-0.551,0.5h-4.95h-4.95c-0.304,0-0.55-0.224-0.55-0.5
				v-13c0-0.276,0.246-0.5,0.55-0.5h9.899c0.305,0,0.551,0.224,0.551,0.5V14.499z"/>
		</g>
	</g>
</g>
<g id="Layer_1">
</g>
</svg>
