<?xml version="1.0" encoding="iso-8859-1"?>
<!-- Generator: Adobe Illustrator 16.0.0, SVG Export Plug-In . SVG Version: 6.00 Build 0)  -->
<!DOCTYPE svg PUBLIC "-//W3C//DTD SVG 1.1//EN" "http://www.w3.org/Graphics/SVG/1.1/DTD/svg11.dtd">
<svg version="1.1" xmlns="http://www.w3.org/2000/svg" xmlns:xlink="http://www.w3.org/1999/xlink" x="0px" y="0px" width="16px"
	 height="16px" viewBox="0 0 16 16" style="enable-background:new 0 0 16 16;" xml:space="preserve">
<g id="music-group-note-a" style="enable-background:new    ;">
	<g id="music-group-note-a_1_">
		<g>
			<path d="M15.995,0.499L5.998,2.498v7.381C5.03,9.3,3.524,9.369,2.165,10.162c-1.786,1.043-2.636,2.934-1.9,4.224
				c0.736,1.289,2.781,1.49,4.566,0.447c1.408-0.822,2.22-2.168,2.146-3.335h0.021V6.392l8-1.697v3.185
				C14.03,7.3,12.524,7.368,11.165,8.162c-1.786,1.043-2.636,2.934-1.899,4.224s2.78,1.489,4.566,0.447
				c1.408-0.822,2.22-2.169,2.146-3.335h0.021V0.509v-0.01V0.497L15.995,0.499z M4.317,13.94c-1.306,0.766-2.731,0.742-3.184-0.055
				c-0.452-0.797,0.24-2.064,1.546-2.83c1.306-0.768,2.731-0.742,3.184,0.054C6.315,11.906,5.623,13.174,4.317,13.94z M13.317,11.94
				c-1.306,0.767-2.731,0.742-3.184-0.055c-0.453-0.797,0.239-2.063,1.545-2.831c1.307-0.766,2.732-0.741,3.185,0.055
				C15.315,9.906,14.624,11.174,13.317,11.94z M14.998,3.646l-8,1.646v-1.9l8-1.697V3.646z"/>
		</g>
	</g>
</g>
<g id="Layer_1">
</g>
</svg>
