<?xml version="1.0" encoding="iso-8859-1"?>
<!-- Generator: Adobe Illustrator 16.0.0, SVG Export Plug-In . SVG Version: 6.00 Build 0)  -->
<!DOCTYPE svg PUBLIC "-//W3C//DTD SVG 1.1//EN" "http://www.w3.org/Graphics/SVG/1.1/DTD/svg11.dtd">
<svg version="1.1" xmlns="http://www.w3.org/2000/svg" xmlns:xlink="http://www.w3.org/1999/xlink" x="0px" y="0px" width="16px"
	 height="16px" viewBox="0 0 16 16" style="enable-background:new 0 0 16 16;" xml:space="preserve">
<g id="music-playlist" style="enable-background:new    ;">
	<g id="music-playlist_1_">
		<g>
			<path d="M1.999,4.998h9c0.275,0,0.5-0.224,0.5-0.5s-0.225-0.5-0.5-0.5h-9c-0.276,0-0.5,0.224-0.5,0.5S1.723,4.998,1.999,4.998z
				 M13.499,0.998v7.554c-1.096-0.783-2.898-0.749-4.523,0.221c-2.041,1.216-3.013,3.422-2.172,4.927s3.178,1.738,5.219,0.522
				c1.543-0.92,2.471-2.404,2.471-3.725h0.006v-9.5H13.499z M11.481,13.3c-1.566,0.958-3.277,0.929-3.821-0.067
				c-0.542-0.997,0.288-2.58,1.856-3.539c1.566-0.958,3.277-0.928,3.82,0.068S13.05,12.342,11.481,13.3z M1.999,1.998h9
				c0.275,0,0.5-0.224,0.5-0.5c0-0.275-0.225-0.5-0.5-0.5h-9c-0.276,0-0.5,0.225-0.5,0.5C1.499,1.774,1.723,1.998,1.999,1.998z
				 M1.999,7.999h6c0.276,0,0.5-0.225,0.5-0.501c0-0.275-0.225-0.5-0.5-0.5h-6c-0.276,0-0.5,0.225-0.5,0.5
				C1.499,7.774,1.723,7.999,1.999,7.999z M4.999,9.997h-3c-0.276,0-0.5,0.224-0.5,0.5s0.224,0.5,0.5,0.5h3
				c0.276,0,0.5-0.224,0.5-0.5S5.275,9.997,4.999,9.997z"/>
		</g>
	</g>
</g>
<g id="Layer_1">
</g>
</svg>
