<?xml version="1.0" encoding="iso-8859-1"?>
<!-- Generator: Adobe Illustrator 16.0.0, SVG Export Plug-In . SVG Version: 6.00 Build 0)  -->
<!DOCTYPE svg PUBLIC "-//W3C//DTD SVG 1.1//EN" "http://www.w3.org/Graphics/SVG/1.1/DTD/svg11.dtd">
<svg version="1.1" xmlns="http://www.w3.org/2000/svg" xmlns:xlink="http://www.w3.org/1999/xlink" x="0px" y="0px" width="16px"
	 height="16px" viewBox="0 0 16 16" style="enable-background:new 0 0 16 16;" xml:space="preserve">
<g id="music-song-note" style="enable-background:new    ;">
	<g id="music-song-note_2_">
		<g>
			<path d="M9.997,0.499L9.997,0.499l-1-0.001v0.69L8.996,1.189L8.997,1.19v7.861C7.902,8.27,6.1,8.303,4.474,9.272
				c-2.041,1.216-3.013,3.422-2.171,4.927c0.842,1.505,3.178,1.738,5.219,0.522c1.543-0.92,2.471-2.404,2.47-3.725h0.006v-9.04
				l3.309,2.541l0.692-0.692L9.997,0.499z M6.98,13.801c-1.567,0.957-3.278,0.927-3.821-0.068c-0.543-0.996,0.287-2.58,1.854-3.538
				c1.567-0.959,3.278-0.929,3.821,0.067S8.548,12.842,6.98,13.801z"/>
		</g>
	</g>
</g>
<g id="Layer_1">
</g>
</svg>
