<?xml version="1.0" encoding="iso-8859-1"?>
<!-- Generator: Adobe Illustrator 16.0.0, SVG Export Plug-In . SVG Version: 6.00 Build 0)  -->
<!DOCTYPE svg PUBLIC "-//W3C//DTD SVG 1.1//EN" "http://www.w3.org/Graphics/SVG/1.1/DTD/svg11.dtd">
<svg version="1.1" xmlns="http://www.w3.org/2000/svg" xmlns:xlink="http://www.w3.org/1999/xlink" x="0px" y="0px" width="16px"
	 height="16px" viewBox="0 0 16 16" style="enable-background:new 0 0 16 16;" xml:space="preserve">
<g id="music-album-a" style="enable-background:new    ;">
	<g id="music-album-a_1_">
		<g>
			<path d="M0.999,15.999h14v-1h-14V15.999z M8.999,8.125c-0.684-0.24-1.606-0.151-2.453,0.312
				c-1.276,0.697-1.885,1.962-1.358,2.825s1.988,0.997,3.265,0.3c1.15-0.629,1.75-1.717,1.473-2.558h0.074V2.002h-1V8.125z
				 M7.991,10.722c-0.785,0.384-1.641,0.372-1.913-0.027C5.806,10.296,6.222,9.66,7.007,9.276s1.641-0.372,1.912,0.027
				C9.19,9.702,8.776,10.338,7.991,10.722z M14.999-0.001h-14c-0.552,0-1,0.447-1,1v12c0,0.553,0.448,1,1,1h14c0.553,0,1-0.447,1-1
				v-12C15.999,0.446,15.552-0.001,14.999-0.001z M14.999,12.499c0,0.276-0.225,0.5-0.5,0.5h-13c-0.276,0-0.5-0.224-0.5-0.5v-11
				c0-0.276,0.224-0.5,0.5-0.5h13c0.275,0,0.5,0.224,0.5,0.5V12.499z"/>
		</g>
	</g>
</g>
<g id="Layer_1">
</g>
</svg>
