<?xml version="1.0" encoding="iso-8859-1"?>
<!-- Generator: Adobe Illustrator 16.0.0, SVG Export Plug-In . SVG Version: 6.00 Build 0)  -->
<!DOCTYPE svg PUBLIC "-//W3C//DTD SVG 1.1//EN" "http://www.w3.org/Graphics/SVG/1.1/DTD/svg11.dtd">
<svg version="1.1" xmlns="http://www.w3.org/2000/svg" xmlns:xlink="http://www.w3.org/1999/xlink" x="0px" y="0px" width="16px"
	 height="16px" viewBox="0 0 16 16" style="enable-background:new 0 0 16 16;" xml:space="preserve">
<g id="music-shuffle-a" style="enable-background:new    ;">
	<g id="music-shuffle-a_1_">
		<g>
			<path d="M12.499,11.509H8.95L7.886,9.593l-0.51,0.883l1.123,2.02h1l-0.002-0.004h3.002v1.002l3-1.494l-3-1.494V11.509z
				 M5.112,6.398l0.509-0.883L4.499,3.495h-1L3.5,3.497H0.499v1.012h3.563L5.112,6.398z M12.499,4.508v0.986l3-1.496l-3-1.494v0.992
				H9.497l0.002-0.002h-1l-4.453,8.014H0.499v0.982h3.002l-0.002,0.004h1l4.438-7.987H12.499z"/>
		</g>
	</g>
</g>
<g id="Layer_1">
</g>
</svg>
