<?xml version="1.0" encoding="iso-8859-1"?>
<!-- Generator: Adobe Illustrator 16.0.0, SVG Export Plug-In . SVG Version: 6.00 Build 0)  -->
<!DOCTYPE svg PUBLIC "-//W3C//DTD SVG 1.1//EN" "http://www.w3.org/Graphics/SVG/1.1/DTD/svg11.dtd">
<svg version="1.1" xmlns="http://www.w3.org/2000/svg" xmlns:xlink="http://www.w3.org/1999/xlink" x="0px" y="0px" width="16px"
	 height="16px" viewBox="0 0 16 16" style="enable-background:new 0 0 16 16;" xml:space="preserve">
<g id="music-mic-a" style="enable-background:new    ;">
	<g id="music-mic-a_2_">
		<g>
			<path d="M7.999-0.001c-3.037,0-5.5,2.462-5.5,5.499c0,2.039,1.121,3.798,2.769,4.748l0.731,4.753c0,0.553,0.448,1,1,1h2
				c0.553,0,1-0.447,1-1l0.73-4.753c1.648-0.95,2.77-2.709,2.77-4.748C13.499,2.461,11.036-0.001,7.999-0.001z M7.999,0.998
				c1.958,0,3.604,1.257,4.225,3.001H3.774C4.395,2.255,6.042,0.998,7.999,0.998z M8.999,14.499c0,0.276-0.225,0.5-0.5,0.5h-1
				c-0.276,0-0.5-0.224-0.5-0.5l-0.69-3.793c0.536,0.174,1.096,0.292,1.689,0.292c0.594,0,1.155-0.118,1.69-0.292L8.999,14.499z
				 M7.999,9.999c-1.956,0-3.604-1.257-4.224-3h8.449C11.603,8.742,9.956,9.999,7.999,9.999z M3.549,5.999
				c-0.019-0.167-0.05-0.329-0.05-0.501c0-0.171,0.032-0.333,0.05-0.499h8.899c0.02,0.166,0.051,0.328,0.051,0.499
				c0,0.172-0.031,0.334-0.051,0.501H3.549z"/>
		</g>
	</g>
</g>
<g id="Layer_1">
</g>
</svg>
