<?xml version="1.0" encoding="iso-8859-1"?>
<!-- Generator: Adobe Illustrator 16.0.0, SVG Export Plug-In . SVG Version: 6.00 Build 0)  -->
<!DOCTYPE svg PUBLIC "-//W3C//DTD SVG 1.1//EN" "http://www.w3.org/Graphics/SVG/1.1/DTD/svg11.dtd">
<svg version="1.1" xmlns="http://www.w3.org/2000/svg" xmlns:xlink="http://www.w3.org/1999/xlink" x="0px" y="0px" width="16px"
	 height="16px" viewBox="0 0 16 16" style="enable-background:new 0 0 16 16;" xml:space="preserve">
<g id="music-album" style="enable-background:new    ;">
	<g id="music-album_2_">
		<g>
			<path d="M14.999-0.001h-12c-0.552,0-1,0.447-1,1h-1c-0.552,0-1,0.448-1,1v12c0,0.553,0.448,1,1,1h1c0,0.553,0.448,1,1,1h12
				c0.553,0,1-0.447,1-1v-14C15.999,0.446,15.552-0.001,14.999-0.001z M1.999,13.999h-0.5c-0.276,0-0.5-0.224-0.5-0.5v-11
				c0-0.276,0.224-0.5,0.5-0.5h0.5V13.999z M14.999,14.499c0,0.276-0.225,0.5-0.5,0.5h-11c-0.276,0-0.5-0.224-0.5-0.5v-13
				c0-0.276,0.224-0.5,0.5-0.5h11c0.275,0,0.5,0.224,0.5,0.5V14.499z M10.999,9.124c-0.684-0.239-1.605-0.15-2.453,0.313
				c-1.276,0.697-1.885,1.962-1.358,2.825c0.526,0.863,1.987,0.997,3.264,0.3c0.76-0.416,1.275-1.032,1.463-1.646l0.084,0.083
				v-0.553c0-0.002,0-0.005,0-0.007V3.002h-1V9.124z M9.991,11.722c-0.785,0.385-1.641,0.372-1.912-0.027
				c-0.272-0.399,0.143-1.034,0.928-1.418c0.785-0.385,1.641-0.372,1.912,0.027S10.776,11.338,9.991,11.722z"/>
		</g>
	</g>
</g>
<g id="Layer_1">
</g>
</svg>
