<?xml version="1.0" encoding="iso-8859-1"?>
<!-- Generator: Adobe Illustrator 16.0.0, SVG Export Plug-In . SVG Version: 6.00 Build 0)  -->
<!DOCTYPE svg PUBLIC "-//W3C//DTD SVG 1.1//EN" "http://www.w3.org/Graphics/SVG/1.1/DTD/svg11.dtd">
<svg version="1.1" xmlns="http://www.w3.org/2000/svg" xmlns:xlink="http://www.w3.org/1999/xlink" x="0px" y="0px" width="16px"
	 height="16px" viewBox="0 0 16 16" style="enable-background:new 0 0 16 16;" xml:space="preserve">
<g id="music-repeat-a" style="enable-background:new    ;">
	<g id="music-repeat-a_1_">
		<g>
			<path d="M0.999,7.999c0-1.657,1.343-3,3-3h4v-1l-2.5-3l-0.5,1l1.667,2H3.999c-2.209,0-4,1.791-4,4s1.791,4,4,4h1v-1h-1
				C2.342,10.999,0.999,9.656,0.999,7.999z M11.999,3.999h-2v1h2c1.656,0,3,1.343,3,3s-1.344,3-3,3h-5v1l2.5,3l0.5-1l-1.666-2h3.666
				c2.209,0,4-1.791,4-4S14.208,3.999,11.999,3.999z"/>
		</g>
	</g>
</g>
<g id="Layer_1">
</g>
</svg>
