<?xml version="1.0" encoding="iso-8859-1"?>
<!-- Generator: Adobe Illustrator 16.0.0, SVG Export Plug-In . SVG Version: 6.00 Build 0)  -->
<!DOCTYPE svg PUBLIC "-//W3C//DTD SVG 1.1//EN" "http://www.w3.org/Graphics/SVG/1.1/DTD/svg11.dtd">
<svg version="1.1" xmlns="http://www.w3.org/2000/svg" xmlns:xlink="http://www.w3.org/1999/xlink" x="0px" y="0px" width="16px"
	 height="16px" viewBox="0 0 16 16" style="enable-background:new 0 0 16 16;" xml:space="preserve">
<g id="music-repeat-one" style="enable-background:new    ;">
	<g id="music-repeat-one_1_">
		<g>
			<path d="M8.198,5.499L6.997,6.704L7.51,7.269l0.385-0.381C8.05,6.726,8.104,6.605,8.104,6.605h0.014c0,0-0.006,0.169-0.006,0.338
				v2.777H7.071v0.782h2.932V9.721H8.962V5.499H8.198z M7.999,13.499c-2.514,0-4.611-1.697-5.267-4.001h1.267l-2-2.999l-2,2.999
				h1.69c0.68,2.864,3.238,5.001,6.31,5.001c2.299,0,4.307-1.2,5.463-3H12.21C11.2,12.711,9.698,13.499,7.999,13.499z M14.308,6.499
				c-0.68-2.863-3.238-5-6.309-5c-2.298,0-4.307,1.2-5.463,3h1.252c1.009-1.212,2.51-2,4.21-2c2.514,0,4.609,1.696,5.266,4h-1.266
				l2,3l2-3H14.308z"/>
		</g>
	</g>
</g>
<g id="Layer_1">
</g>
</svg>
