<?xml version="1.0" encoding="iso-8859-1"?>
<!-- Generator: Adobe Illustrator 16.0.0, SVG Export Plug-In . SVG Version: 6.00 Build 0)  -->
<!DOCTYPE svg PUBLIC "-//W3C//DTD SVG 1.1//EN" "http://www.w3.org/Graphics/SVG/1.1/DTD/svg11.dtd">
<svg version="1.1" xmlns="http://www.w3.org/2000/svg" xmlns:xlink="http://www.w3.org/1999/xlink" x="0px" y="0px" width="16px"
	 height="16px" viewBox="0 0 16 16" style="enable-background:new 0 0 16 16;" xml:space="preserve">
<g id="music-next-l" style="enable-background:new    ;">
	<g id="music-next-l_2_">
		<g>
			<path d="M8.358,7.647C8.356,7.645,8.354,7.646,8.352,7.644c-0.006-0.006-0.003-0.017-0.01-0.022L2.375,2.147
				c-0.202-0.202-0.528-0.202-0.729,0c-0.201,0.201-0.201,0.528,0,0.73l5.591,5.129l-5.575,5.115c-0.201,0.201-0.201,0.528,0,0.729
				c0.201,0.202,0.527,0.202,0.729,0l5.967-5.474C8.56,8.176,8.56,7.849,8.358,7.647z M14.351,7.647
				c-0.001-0.002-0.004-0.001-0.006-0.003c-0.006-0.006-0.004-0.017-0.01-0.022L9.366,3.147c-0.201-0.201-0.527-0.201-0.729,0
				s-0.201,0.528,0,0.729l4.585,4.13l-4.569,4.115c-0.201,0.201-0.201,0.528,0,0.729c0.201,0.202,0.528,0.202,0.729,0l4.968-4.474
				C14.553,8.176,14.553,7.849,14.351,7.647z"/>
		</g>
	</g>
</g>
<g id="Layer_1">
</g>
</svg>
