<?xml version="1.0" encoding="iso-8859-1"?>
<!-- Generator: Adobe Illustrator 16.0.0, SVG Export Plug-In . SVG Version: 6.00 Build 0)  -->
<!DOCTYPE svg PUBLIC "-//W3C//DTD SVG 1.1//EN" "http://www.w3.org/Graphics/SVG/1.1/DTD/svg11.dtd">
<svg version="1.1" xmlns="http://www.w3.org/2000/svg" xmlns:xlink="http://www.w3.org/1999/xlink" x="0px" y="0px" width="16px"
	 height="16px" viewBox="0 0 16 16" style="enable-background:new 0 0 16 16;" xml:space="preserve">
<g id="music-previous-l" style="enable-background:new    ;">
	<g id="music-previous-l_2_">
		<g>
			<path d="M2.774,8.007l4.585-4.13c0.201-0.201,0.201-0.528,0-0.729s-0.528-0.201-0.729,0L1.662,7.622
				C1.656,7.627,1.659,7.638,1.653,7.644C1.651,7.646,1.648,7.645,1.646,7.647c-0.202,0.202-0.202,0.529,0,0.731l4.968,4.474
				c0.201,0.202,0.528,0.202,0.729,0c0.201-0.201,0.201-0.528,0-0.729L2.774,8.007z M8.76,8.007l5.591-5.129
				c0.202-0.202,0.202-0.529,0-0.73c-0.201-0.202-0.527-0.202-0.729,0L7.655,7.622C7.649,7.627,7.652,7.638,7.646,7.644
				C7.644,7.646,7.641,7.645,7.639,7.647c-0.201,0.202-0.201,0.529,0,0.731l5.966,5.474c0.202,0.202,0.528,0.202,0.729,0
				c0.201-0.201,0.201-0.528,0-0.729L8.76,8.007z"/>
		</g>
	</g>
</g>
<g id="Layer_1">
</g>
</svg>
