<?xml version="1.0" encoding="iso-8859-1"?>
<!-- Generator: Adobe Illustrator 16.0.0, SVG Export Plug-In . SVG Version: 6.00 Build 0)  -->
<!DOCTYPE svg PUBLIC "-//W3C//DTD SVG 1.1//EN" "http://www.w3.org/Graphics/SVG/1.1/DTD/svg11.dtd">
<svg version="1.1" xmlns="http://www.w3.org/2000/svg" xmlns:xlink="http://www.w3.org/1999/xlink" x="0px" y="0px" width="16px"
	 height="16px" viewBox="0 0 16 16" style="enable-background:new 0 0 16 16;" xml:space="preserve">
<g id="music-radio" style="enable-background:new    ;">
	<g id="music-radio_2_">
		<g>
			<path d="M6.503,5.003c-2.485,0-4.5,2.015-4.5,4.5s2.015,4.5,4.5,4.5c2.485,0,4.5-2.015,4.5-4.5S8.988,5.003,6.503,5.003z
				 M6.503,6.003c0.953,0,1.813,0.383,2.444,1H4.059C4.69,6.386,5.551,6.003,6.503,6.003z M6.503,13.003
				c-0.952,0-1.813-0.383-2.444-1h4.889C8.316,12.62,7.456,13.003,6.503,13.003z M9.653,11.003h-6.3
				c-0.148-0.311-0.236-0.649-0.29-1h6.88C9.89,10.354,9.802,10.692,9.653,11.003z M3.063,9.003c0.054-0.351,0.142-0.689,0.29-1h6.3
				c0.148,0.311,0.236,0.649,0.29,1H3.063z M14.003,3.003h-0.986L0.626,0.012c-0.268-0.07-0.543,0.085-0.615,0.345
				C-0.06,0.617,0.099,0.885,0.367,0.954l8.786,2.049H2.003c-1.105,0-2,0.896-2,2v9c0,1.104,0.895,2,2,2h12c1.104,0,2-0.896,2-2v-9
				C16.003,3.898,15.107,3.003,14.003,3.003z M15.003,14.003c0,0.552-0.447,1-1,1h-12c-0.552,0-1-0.448-1-1v-9c0-0.553,0.448-1,1-1
				h12c0.553,0,1,0.447,1,1V14.003z M13.003,9.003h1v-1h-1V9.003z M13.003,7.003h1v-1h-1V7.003z"/>
		</g>
	</g>
</g>
<g id="Layer_1">
</g>
</svg>
