<?xml version="1.0" encoding="iso-8859-1"?>
<!-- Generator: Adobe Illustrator 16.0.0, SVG Export Plug-In . SVG Version: 6.00 Build 0)  -->
<!DOCTYPE svg PUBLIC "-//W3C//DTD SVG 1.1//EN" "http://www.w3.org/Graphics/SVG/1.1/DTD/svg11.dtd">
<svg version="1.1" xmlns="http://www.w3.org/2000/svg" xmlns:xlink="http://www.w3.org/1999/xlink" x="0px" y="0px" width="16px"
	 height="16px" viewBox="0 0 16 16" style="enable-background:new 0 0 16 16;" xml:space="preserve">
<g id="music-record" style="enable-background:new    ;">
	<g id="music-record_1_">
		<g>
			<path d="M7.999-0.001c-4.418,0-8,3.582-8,8s3.582,8,8,8c4.418,0,8-3.582,8-8S12.417-0.001,7.999-0.001z M7.999,14.999
				c-3.866,0-7-3.134-7-7s3.134-7,7-7c3.865,0,7,3.134,7,7S11.864,14.999,7.999,14.999z M7.999,6.499c-0.829,0-1.5,0.671-1.5,1.5
				c0,0.828,0.671,1.5,1.5,1.5c0.828,0,1.5-0.672,1.5-1.5C9.499,7.17,8.827,6.499,7.999,6.499z"/>
		</g>
	</g>
</g>
<g id="Layer_1">
</g>
</svg>
