<?xml version="1.0" encoding="iso-8859-1"?>
<!-- Generator: Adobe Illustrator 16.0.0, SVG Export Plug-In . SVG Version: 6.00 Build 0)  -->
<!DOCTYPE svg PUBLIC "-//W3C//DTD SVG 1.1//EN" "http://www.w3.org/Graphics/SVG/1.1/DTD/svg11.dtd">
<svg version="1.1" xmlns="http://www.w3.org/2000/svg" xmlns:xlink="http://www.w3.org/1999/xlink" x="0px" y="0px" width="16px"
	 height="16px" viewBox="0 0 16 16" style="enable-background:new 0 0 16 16;" xml:space="preserve">
<g id="music-album-b" style="enable-background:new    ;">
	<g id="music-album-b_2_">
		<g>
			<path d="M0.999,15.999h14v-1h-14V15.999z M14.999-0.001h-14c-0.552,0-1,0.447-1,1v12c0,0.553,0.448,0.999,1,0.999h14
				c0.553,0,1-0.446,1-0.999v-12C15.999,0.446,15.552-0.001,14.999-0.001z M14.999,12.499c0,0.276-0.225,0.5-0.5,0.5h-13
				c-0.276,0-0.5-0.224-0.5-0.5v-11c0-0.275,0.224-0.5,0.5-0.5h13c0.275,0,0.5,0.225,0.5,0.5V12.499z M12.999,8.005V2.006V2
				l-6,0.999V2.994h-1v5.141C5.313,7.902,4.388,7.991,3.54,8.449c-1.284,0.691-1.896,1.946-1.366,2.803
				c0.53,0.855,2,0.988,3.285,0.297c1.165-0.627,1.767-1.716,1.475-2.553h0.066V3.884l5-0.887v4.138
				c-0.686-0.233-1.611-0.144-2.459,0.313c-1.285,0.692-1.896,1.947-1.367,2.804c0.529,0.855,2,0.988,3.285,0.297
				c1.162-0.626,1.764-1.709,1.479-2.544H12.999z M4.992,10.722c-0.786,0.384-1.644,0.372-1.916-0.027S3.22,9.66,4.006,9.275
				c0.786-0.383,1.644-0.371,1.916,0.027C6.194,9.702,5.777,10.338,4.992,10.722z M10.991,9.722
				c-0.785,0.384-1.643,0.371-1.916-0.027C8.804,9.295,9.22,8.66,10.007,8.276c0.785-0.385,1.643-0.372,1.914,0.027
				C12.194,8.702,11.776,9.338,10.991,9.722z"/>
		</g>
	</g>
</g>
<g id="Layer_1">
</g>
</svg>
