<?xml version="1.0" encoding="iso-8859-1"?>
<!-- Generator: Adobe Illustrator 16.0.0, SVG Export Plug-In . SVG Version: 6.00 Build 0)  -->
<!DOCTYPE svg PUBLIC "-//W3C//DTD SVG 1.1//EN" "http://www.w3.org/Graphics/SVG/1.1/DTD/svg11.dtd">
<svg version="1.1" xmlns="http://www.w3.org/2000/svg" xmlns:xlink="http://www.w3.org/1999/xlink" x="0px" y="0px" width="16px"
	 height="16px" viewBox="0 0 16 16" style="enable-background:new 0 0 16 16;" xml:space="preserve">
<g id="music-previous-l-a" style="enable-background:new    ;">
	<g id="music-previous-l-a_1_">
		<g>
			<path d="M3.267,8.007l5.592-5.129c0.201-0.202,0.201-0.529,0-0.73c-0.201-0.202-0.528-0.202-0.729,0L2.162,7.622
				C2.155,7.627,2.158,7.638,2.152,7.644C2.15,7.646,2.147,7.645,2.146,7.647c-0.201,0.202-0.201,0.529,0,0.731l5.968,5.474
				c0.201,0.202,0.527,0.202,0.729,0c0.201-0.201,0.201-0.528,0-0.729L3.267,8.007z M9.268,8.007l4.585-4.13
				c0.201-0.201,0.201-0.528,0-0.729s-0.527-0.201-0.729,0L8.155,7.622c-0.007,0.006-0.004,0.017-0.01,0.022
				C8.144,7.646,8.141,7.645,8.139,7.647c-0.202,0.202-0.202,0.529,0,0.731l4.969,4.474c0.201,0.202,0.527,0.202,0.729,0
				c0.201-0.201,0.201-0.528,0-0.729L9.268,8.007z"/>
		</g>
	</g>
</g>
<g id="Layer_1">
</g>
</svg>
