<?xml version="1.0" encoding="iso-8859-1"?>
<!-- Generator: Adobe Illustrator 16.0.0, SVG Export Plug-In . SVG Version: 6.00 Build 0)  -->
<!DOCTYPE svg PUBLIC "-//W3C//DTD SVG 1.1//EN" "http://www.w3.org/Graphics/SVG/1.1/DTD/svg11.dtd">
<svg version="1.1" xmlns="http://www.w3.org/2000/svg" xmlns:xlink="http://www.w3.org/1999/xlink" x="0px" y="0px" width="16px"
	 height="16px" viewBox="0 0 16 16" style="enable-background:new 0 0 16 16;" xml:space="preserve">
<g id="music-mic" style="enable-background:new    ;">
	<g id="music-mic_1_">
		<g>
			<path d="M12.239,3.047c-0.606-1.769-2.266-3.048-4.24-3.048S4.366,1.278,3.76,3.047c-0.434,0.11-0.761,0.484-0.761,0.952v1
				c0,0.473,0.334,0.85,0.774,0.954C4.046,6.725,4.5,7.409,5.115,7.927l0.884,7.072c0,0.552,0.447,1,1,1h2c0.553,0,1-0.448,1-1
				l0.885-7.072c0.614-0.518,1.068-1.202,1.341-1.974c0.44-0.104,0.774-0.481,0.774-0.954v-1
				C12.999,3.531,12.672,3.157,12.239,3.047z M7.999,0.999c1.395,0,2.588,0.82,3.15,2H4.849C5.412,1.819,6.605,0.999,7.999,0.999z
				 M8.999,14.499c0,0.276-0.224,0.5-0.5,0.5h-1c-0.276,0-0.5-0.224-0.5-0.5L6.085,8.557c0.583,0.276,1.227,0.442,1.914,0.442
				s1.332-0.166,1.915-0.442L8.999,14.499z M7.999,7.999c-1.394,0-2.587-0.821-3.15-2h6.301C10.587,7.178,9.394,7.999,7.999,7.999z
				 M11.499,4.999h-7c-0.276,0-0.5-0.225-0.5-0.5c0-0.276,0.224-0.5,0.5-0.5h7c0.276,0,0.5,0.224,0.5,0.5
				C11.999,4.774,11.775,4.999,11.499,4.999z"/>
		</g>
	</g>
</g>
<g id="Layer_1">
</g>
</svg>
