<?xml version="1.0" encoding="iso-8859-1"?>
<!-- Generator: Adobe Illustrator 16.0.0, SVG Export Plug-In . SVG Version: 6.00 Build 0)  -->
<!DOCTYPE svg PUBLIC "-//W3C//DTD SVG 1.1//EN" "http://www.w3.org/Graphics/SVG/1.1/DTD/svg11.dtd">
<svg version="1.1" xmlns="http://www.w3.org/2000/svg" xmlns:xlink="http://www.w3.org/1999/xlink" x="0px" y="0px" width="16px"
	 height="16px" viewBox="0 0 16 16" style="enable-background:new 0 0 16 16;" xml:space="preserve">
<g id="music-next-l-a" style="enable-background:new    ;">
	<g id="music-next-l-a_1_">
		<g>
			<path d="M7.859,7.647C7.857,7.645,7.854,7.646,7.853,7.644C7.847,7.638,7.85,7.627,7.843,7.622L2.875,3.147
				c-0.201-0.201-0.527-0.201-0.729,0c-0.201,0.201-0.201,0.528,0,0.729l4.585,4.13l-4.569,4.115c-0.201,0.201-0.201,0.528,0,0.729
				c0.202,0.202,0.528,0.202,0.729,0l4.969-4.474C8.062,8.176,8.062,7.849,7.859,7.647z M13.853,7.647
				c-0.002-0.002-0.005-0.001-0.007-0.003c-0.006-0.006-0.003-0.017-0.009-0.022L7.869,2.147c-0.201-0.202-0.527-0.202-0.729,0
				c-0.201,0.201-0.201,0.528,0,0.73l5.592,5.129l-5.576,5.115c-0.201,0.201-0.201,0.528,0,0.729c0.202,0.202,0.528,0.202,0.729,0
				l5.968-5.474C14.054,8.176,14.054,7.849,13.853,7.647z"/>
		</g>
	</g>
</g>
<g id="Layer_1">
</g>
</svg>
