<?xml version="1.0" encoding="iso-8859-1"?>
<!-- Generator: Adobe Illustrator 16.0.0, SVG Export Plug-In . SVG Version: 6.00 Build 0)  -->
<!DOCTYPE svg PUBLIC "-//W3C//DTD SVG 1.1//EN" "http://www.w3.org/Graphics/SVG/1.1/DTD/svg11.dtd">
<svg version="1.1" xmlns="http://www.w3.org/2000/svg" xmlns:xlink="http://www.w3.org/1999/xlink" x="0px" y="0px" width="16px"
	 height="16px" viewBox="0 0 16 16" style="enable-background:new 0 0 16 16;" xml:space="preserve">
<g id="music-shuffle" style="enable-background:new    ;">
	<g id="music-shuffle_2_">
		<g>
			<path d="M4.277,10.031H0.543c-0.301,0-0.545,0.225-0.545,0.501s0.244,0.5,0.545,0.5h3.899c0.009,0,0.016-0.005,0.024-0.005
				c0.165,0.02,0.337-0.021,0.464-0.137l1.122-1.146L5.299,8.989L4.277,10.031z M9.721,6.002c0,0,5.674,0,5.682,0h0.097
				c0.276,0,0.5-0.225,0.5-0.5c0-0.139-0.058-0.264-0.148-0.354c-0.024-0.042-0.018-0.093-0.053-0.128l-2.849-2.853
				c-0.225-0.226-0.589-0.226-0.813,0c-0.225,0.225-0.225,0.589,0,0.814l2.017,2.021H9.511c-0.085,0-0.161,0.027-0.232,0.064
				C9.184,5.088,9.092,5.125,9.018,5.193L7.915,6.318L8.67,7.074L9.721,6.002z M15.645,10.062c-0.141-0.07-5.926-0.03-5.926-0.03
				L4.931,5.146C4.805,5.028,4.634,4.988,4.469,5.007C4.46,5.006,4.451,5.002,4.442,5.002H0.543c-0.301,0-0.545,0.224-0.545,0.5
				c0,0.275,0.244,0.5,0.545,0.5h3.11c0,0,0.578-0.04,0.653,0.028l4.711,4.812c0.075,0.069,0.167,0.105,0.264,0.126
				c0.069,0.037,0.146,0.064,0.229,0.064h4.605l-1.98,1.983c-0.225,0.226-0.225,0.59,0,0.815c0.225,0.225,0.589,0.225,0.813,0
				l2.849-2.853c0.021-0.021,0.015-0.054,0.032-0.078c0.102-0.091,0.169-0.22,0.169-0.368
				C15.999,10.308,15.849,10.125,15.645,10.062z"/>
		</g>
	</g>
</g>
<g id="Layer_1">
</g>
</svg>
