<?xml version="1.0" encoding="iso-8859-1"?>
<!-- Generator: Adobe Illustrator 16.0.0, SVG Export Plug-In . SVG Version: 6.00 Build 0)  -->
<!DOCTYPE svg PUBLIC "-//W3C//DTD SVG 1.1//EN" "http://www.w3.org/Graphics/SVG/1.1/DTD/svg11.dtd">
<svg version="1.1" xmlns="http://www.w3.org/2000/svg" xmlns:xlink="http://www.w3.org/1999/xlink" x="0px" y="0px" width="16px"
	 height="16px" viewBox="0 0 16 16" style="enable-background:new 0 0 16 16;" xml:space="preserve">
<g id="music-cd" style="enable-background:new    ;">
	<g id="music-cd_1_">
		<g>
			<path d="M7.999-0.001c-4.418,0-8,3.582-8,8s3.582,8,8,8c4.418,0,8-3.582,8-8S12.417-0.001,7.999-0.001z M2.719,3.442l2.84,2.833
				c-0.184,0.263-0.328,0.556-0.422,0.87L1.215,6.348C1.481,5.255,2.01,4.269,2.719,3.442z M7.999,14.999c-3.866,0-7-3.134-7-7
				c0-0.221,0.045-0.428,0.064-0.643L5.015,8.16c0.086,1.58,1.382,2.839,2.984,2.839c0.531,0,1.025-0.145,1.457-0.389l2.914,2.837
				C11.175,14.415,9.659,14.999,7.999,14.999z M5.999,7.999c0-1.104,0.896-2,2-2c1.104,0,2,0.896,2,2s-0.896,2-2,2
				C6.895,9.999,5.999,9.104,5.999,7.999z M13.124,12.74l-2.869-2.794c0.254-0.297,0.457-0.639,0.582-1.019l3.928,0.778
				C14.474,10.856,13.901,11.894,13.124,12.74z M10.991,7.918C10.946,6.3,9.628,4.999,7.999,4.999c-0.644,0-1.233,0.209-1.718,0.555
				L3.442,2.722c1.223-1.064,2.806-1.723,4.557-1.723c3.865,0,7,3.134,7,7c0,0.239-0.047,0.467-0.07,0.7L10.991,7.918z"/>
		</g>
	</g>
</g>
<g id="Layer_1">
</g>
</svg>
