<?xml version="1.0" encoding="iso-8859-1"?>
<!-- Generator: Adobe Illustrator 16.0.0, SVG Export Plug-In . SVG Version: 6.00 Build 0)  -->
<!DOCTYPE svg PUBLIC "-//W3C//DTD SVG 1.1//EN" "http://www.w3.org/Graphics/SVG/1.1/DTD/svg11.dtd">
<svg version="1.1" xmlns="http://www.w3.org/2000/svg" xmlns:xlink="http://www.w3.org/1999/xlink" x="0px" y="0px" width="16px"
	 height="16px" viewBox="0 0 16 16" style="enable-background:new 0 0 16 16;" xml:space="preserve">
<g id="music-group-note" style="enable-background:new    ;">
	<g id="music-group-note_2_">
		<g>
			<path d="M15.996,0.499L5.998,2.498v7.381C5.03,9.3,3.524,9.369,2.165,10.162c-1.786,1.043-2.636,2.934-1.9,4.224
				s2.781,1.489,4.566,0.447c1.408-0.822,2.22-2.168,2.146-3.335h0.021V3.392l8-1.697v6.185c-0.968-0.579-2.474-0.51-3.833,0.283
				c-1.786,1.042-2.637,2.934-1.899,4.224c0.736,1.289,2.78,1.489,4.566,0.447c1.408-0.822,2.22-2.169,2.146-3.335h0.021V0.514
				V0.499V0.498V0.497L15.996,0.499z M4.317,13.94c-1.306,0.767-2.731,0.742-3.184-0.055c-0.452-0.796,0.24-2.063,1.546-2.83
				c1.306-0.768,2.731-0.742,3.184,0.054C6.315,11.906,5.623,13.174,4.317,13.94z M13.317,11.94
				c-1.306,0.767-2.731,0.742-3.184-0.055c-0.453-0.797,0.239-2.063,1.545-2.83c1.307-0.767,2.732-0.742,3.185,0.054
				C15.315,9.906,14.624,11.174,13.317,11.94z"/>
		</g>
	</g>
</g>
<g id="Layer_1">
</g>
</svg>
