<?xml version="1.0" encoding="iso-8859-1"?>
<!-- Generator: Adobe Illustrator 16.0.0, SVG Export Plug-In . SVG Version: 6.00 Build 0)  -->
<!DOCTYPE svg PUBLIC "-//W3C//DTD SVG 1.1//EN" "http://www.w3.org/Graphics/SVG/1.1/DTD/svg11.dtd">
<svg version="1.1" xmlns="http://www.w3.org/2000/svg" xmlns:xlink="http://www.w3.org/1999/xlink" x="0px" y="0px" width="16px"
	 height="16px" viewBox="0 0 16 16" style="enable-background:new 0 0 16 16;" xml:space="preserve">
<g id="setting-gear" style="enable-background:new    ;">
	<g id="setting-gear_1_">
		<g>
			<path d="M15.069,9.751l-2.104-1.215c0.02-0.178,0.041-0.355,0.041-0.538c0-0.182-0.021-0.358-0.04-0.535l2.104-1.216
				c0.479-0.276,0.584-0.988,0.236-1.591l-0.76-1.315c-0.348-0.602-1.018-0.866-1.495-0.59l-2.116,1.221
				c-0.287-0.208-0.59-0.397-0.918-0.543v-2.43c0-0.553-0.564-1-1.26-1H7.239c-0.696,0-1.26,0.447-1.26,1v2.43
				C5.651,3.574,5.348,3.764,5.061,3.973L2.945,2.751C2.467,2.475,1.797,2.739,1.45,3.342L0.69,4.657
				c-0.348,0.602-0.242,1.314,0.236,1.59l2.104,1.216c-0.019,0.177-0.04,0.354-0.04,0.535c0,0.183,0.021,0.36,0.04,0.537
				L0.927,9.751c-0.479,0.275-0.584,0.988-0.236,1.591l0.759,1.314c0.348,0.603,1.018,0.867,1.496,0.591l2.117-1.222
				c0.287,0.208,0.589,0.397,0.917,0.542v2.432c0,0.553,0.564,1,1.26,1h1.519c0.695,0,1.26-0.447,1.26-1v-2.433
				c0.327-0.144,0.63-0.333,0.917-0.541l2.116,1.222c0.479,0.276,1.148,0.012,1.496-0.59l0.759-1.315
				C15.653,10.739,15.548,10.026,15.069,9.751z M14.182,11.288l-0.243,0.423c-0.205,0.355-0.566,0.531-0.805,0.394l-2.293-1.323
				c-0.504,0.511-1.137,0.896-1.855,1.079v2.639c0,0.276-0.333,0.5-0.743,0.5H7.754c-0.411,0-0.744-0.224-0.744-0.5V11.86
				c-0.718-0.184-1.351-0.568-1.855-1.079l-2.292,1.323c-0.239,0.138-0.6-0.038-0.805-0.394l-0.244-0.423
				c-0.205-0.356-0.178-0.757,0.061-0.895l2.288-1.321C4.067,8.729,4.003,8.373,4.003,7.999c0-0.375,0.064-0.731,0.16-1.073
				L1.875,5.604C1.636,5.467,1.608,5.066,1.814,4.711l0.244-0.423c0.206-0.356,0.566-0.532,0.805-0.395l2.292,1.323
				C5.659,4.705,6.292,4.32,7.011,4.136V1.499c0-0.276,0.333-0.5,0.744-0.5h0.488c0.41,0,0.743,0.224,0.743,0.5v2.637
				c0.719,0.185,1.353,0.569,1.856,1.082l2.292-1.324c0.239-0.138,0.6,0.038,0.805,0.394l0.244,0.424
				c0.205,0.355,0.178,0.755-0.061,0.894l-2.289,1.321c0.097,0.342,0.16,0.698,0.16,1.073c0,0.374-0.063,0.73-0.16,1.073
				l2.288,1.321C14.36,10.532,14.388,10.932,14.182,11.288z M7.998,5.998c-1.106,0-2.004,0.896-2.004,2.001
				c0,1.104,0.897,1.999,2.004,1.999s2.004-0.896,2.004-1.999C10.002,6.894,9.104,5.998,7.998,5.998z M7.999,9c-0.552,0-1-0.448-1-1
				c0-0.553,0.448-1,1-1s1,0.447,1,1C8.998,8.552,8.551,9,7.999,9z"/>
		</g>
	</g>
</g>
<g id="Layer_1">
</g>
</svg>
