<?xml version="1.0" encoding="iso-8859-1"?>
<!-- Generator: Adobe Illustrator 16.0.0, SVG Export Plug-In . SVG Version: 6.00 Build 0)  -->
<!DOCTYPE svg PUBLIC "-//W3C//DTD SVG 1.1//EN" "http://www.w3.org/Graphics/SVG/1.1/DTD/svg11.dtd">
<svg version="1.1" xmlns="http://www.w3.org/2000/svg" xmlns:xlink="http://www.w3.org/1999/xlink" x="0px" y="0px" width="16px"
	 height="16px" viewBox="0 0 16 16" style="enable-background:new 0 0 16 16;" xml:space="preserve">
<g id="setting-wrench-a" style="enable-background:new    ;">
	<g id="setting-wrench-a_2_">
		<g>
			<path d="M10.143,2.971c0.025-0.008,0.049-0.013,0.07-0.023l0.045-0.016c0.027-0.016,0.045-0.04,0.068-0.061
				c0.014-0.012,0.025-0.021,0.039-0.035c0.031-0.033,0.055-0.07,0.074-0.111c0.01-0.018,0.02-0.034,0.025-0.054
				c0.016-0.042,0.023-0.084,0.027-0.129c0-0.015,0.008-0.027,0.008-0.043V-0.5c0-0.277-0.225-0.501-0.5-0.501S9.5-0.777,9.5-0.5
				v2.656L6.999,2.98l-2.5-0.824V-0.5c0-0.277-0.224-0.501-0.5-0.501c-0.276,0-0.5,0.224-0.5,0.501v2.999
				c0,0.016,0.007,0.028,0.008,0.043c0.004,0.045,0.011,0.087,0.026,0.129C3.541,2.69,3.55,2.707,3.559,2.725
				C3.58,2.766,3.603,2.803,3.634,2.836C3.646,2.85,3.66,2.859,3.673,2.871c0.022,0.021,0.04,0.045,0.067,0.061l0.045,0.016
				c0.022,0.011,0.046,0.016,0.07,0.023l2.644,0.872v6.313l-2.644,0.872c-0.024,0.007-0.048,0.013-0.07,0.023L3.74,11.066
				c-0.027,0.016-0.044,0.04-0.067,0.061c-0.014,0.012-0.027,0.022-0.039,0.035c-0.031,0.034-0.055,0.07-0.075,0.111
				c-0.009,0.018-0.019,0.034-0.025,0.054c-0.015,0.042-0.022,0.085-0.026,0.129c-0.001,0.015-0.008,0.028-0.008,0.043v3
				c0,0.276,0.224,0.5,0.5,0.5c0.276,0,0.5-0.224,0.5-0.5v-2.656l2.5-0.825L9.5,11.843v2.656c0,0.276,0.225,0.5,0.5,0.5
				s0.5-0.224,0.5-0.5v-3c0-0.015-0.008-0.028-0.008-0.043c-0.004-0.044-0.012-0.087-0.027-0.129
				c-0.006-0.02-0.016-0.036-0.025-0.054c-0.02-0.041-0.043-0.077-0.074-0.111c-0.014-0.013-0.027-0.023-0.039-0.035
				c-0.023-0.021-0.041-0.045-0.068-0.061l-0.045-0.015c-0.021-0.011-0.045-0.017-0.07-0.023L7.5,10.156V3.843L10.143,2.971z"/>
		</g>
	</g>
</g>
<g id="Layer_1">
</g>
</svg>
