<?xml version="1.0" encoding="iso-8859-1"?>
<!-- Generator: Adobe Illustrator 16.0.0, SVG Export Plug-In . SVG Version: 6.00 Build 0)  -->
<!DOCTYPE svg PUBLIC "-//W3C//DTD SVG 1.1//EN" "http://www.w3.org/Graphics/SVG/1.1/DTD/svg11.dtd">
<svg version="1.1" xmlns="http://www.w3.org/2000/svg" xmlns:xlink="http://www.w3.org/1999/xlink" x="0px" y="0px" width="16px"
	 height="16px" viewBox="0 0 16 16" style="enable-background:new 0 0 16 16;" xml:space="preserve">
<g id="setting-notification" style="enable-background:new    ;">
	<g id="setting-notification_2_">
		<g>
			<path d="M13.999,12.999c0,1.105-0.896,2-2,2h-9c-1.105,0-2-0.895-2-2v-9c0-1.104,0.895-2,2-2h5v-1h-5c-1.657,0-3,1.344-3,3v9
				c0,1.656,1.343,3,3,3h9c1.656,0,3-1.344,3-3v-5h-1V12.999z M12.499,6.999c1.934,0,3.5-1.566,3.5-3.5c0-1.933-1.566-3.5-3.5-3.5
				s-3.5,1.567-3.5,3.5C8.999,5.433,10.565,6.999,12.499,6.999z M12.499,0.999c1.381,0,2.5,1.119,2.5,2.5s-1.119,2.5-2.5,2.5
				s-2.5-1.119-2.5-2.5S11.118,0.999,12.499,0.999z"/>
		</g>
	</g>
</g>
<g id="Layer_1">
</g>
</svg>
