<?xml version="1.0" encoding="iso-8859-1"?>
<!-- Generator: Adobe Illustrator 16.0.0, SVG Export Plug-In . SVG Version: 6.00 Build 0)  -->
<!DOCTYPE svg PUBLIC "-//W3C//DTD SVG 1.1//EN" "http://www.w3.org/Graphics/SVG/1.1/DTD/svg11.dtd">
<svg version="1.1" xmlns="http://www.w3.org/2000/svg" xmlns:xlink="http://www.w3.org/1999/xlink" x="0px" y="0px" width="16px"
	 height="16px" viewBox="0 0 16 16" style="enable-background:new 0 0 16 16;" xml:space="preserve">
<g id="setting-airplane" style="enable-background:new    ;">
	<g id="setting-airplane_1_">
		<g>
			<path d="M15.665,0.337c-0.193-0.192-0.581-0.34-1.056-0.34c-0.592,0-1.318,0.229-1.967,0.879L9.345,4.18
				c-1.856-0.118-6.612-0.433-6.73-0.437C2.593,3.742,2.567,3.741,2.538,3.741c-0.161,0-0.438,0.031-0.753,0.292
				C1.414,4.341,0.642,5.067,0.642,5.067c-0.186,0.188-0.281,0.42-0.258,0.638c0.014,0.132,0.085,0.372,0.408,0.499
				C0.988,6.281,4.109,7.451,5.55,7.982l-1.969,2.035c-0.087,0.002-0.195,0.003-0.317,0.003c-0.601,0-1.531-0.02-1.904-0.02
				c-0.049,0-0.089,0-0.117,0.001c-0.114,0.003-0.349-0.053-0.968,0.467l-0.044,0.04c-0.186,0.187-0.229,0.372-0.233,0.495
				c-0.004,0.127,0.03,0.309,0.212,0.455c0.11,0.09,1.517,0.991,2.67,1.689c0.276,0.452,1.549,2.479,1.616,2.589
				c0.097,0.164,0.255,0.257,0.445,0.264c0.005,0,0.01,0,0.016,0c0.184,0,0.374-0.093,0.559-0.272
				c0.524-0.614,0.452-0.869,0.455-0.977c0.008-0.335-0.006-1.755,0.006-2.318l2.043-1.97c0.522,1.438,1.665,4.533,1.741,4.73
				c0.128,0.323,0.367,0.394,0.499,0.407c0.021,0.003,0.043,0.004,0.064,0.004c0.198,0,0.403-0.094,0.571-0.262
				c0,0,0.724-0.77,1.031-1.145c0.309-0.375,0.296-0.694,0.29-0.846c-0.002-0.104-0.292-4.843-0.4-6.694l3.299-3.305
				C16.284,2.183,16.099,0.771,15.665,0.337z M14.407,2.645l-3.298,3.305l-0.318,0.318l0.026,0.449
				c0.055,0.941,0.156,2.627,0.244,4.072c0.077,1.286,0.15,2.501,0.155,2.604c0.003,0.07,0.004,0.087-0.063,0.167
				c-0.147,0.18-0.424,0.485-0.656,0.738c-0.36-0.974-1.117-3.028-1.536-4.179L8.425,8.64L7.313,9.754l-2.044,1.97l-0.285,0.285
				l-0.009,0.402c-0.007,0.321-0.006,0.899-0.004,1.408c0,0.32,0.001,0.6,0,0.784c0.02,0.033,0.042,0.067,0.061,0.099
				c0.007-0.012-0.066-0.021-0.062-0.029c0-0.017,0-0.05,0-0.069c-0.026-0.041-0.051-0.081-0.079-0.126
				c-0.412-0.658-0.983-1.569-1.157-1.854l-0.127-0.208L3.398,12.29c-0.734-0.444-1.538-0.951-2.055-1.285H1.328
				c-0.012,0.006-0.026-0.049-0.044-0.038c0.017,0.011,0.042,0.026,0.06,0.038h0.018c0.162,0,0.429,0.003,0.728,0.008
				c0.392,0.005,0.835,0.011,1.176,0.011c0.13,0,0.246,0,0.339-0.002l0.402-0.01l0.284-0.285l1.969-2.034l1.108-1.11L5.896,7.04
				C4.791,6.633,2.674,5.841,1.684,5.469c0.254-0.234,0.561-0.513,0.739-0.661c0.05-0.041,0.089-0.063,0.116-0.063l0.035,0.001
				c0.11,0.006,1.482,0.096,2.809,0.182c1.408,0.093,2.997,0.196,3.9,0.254l0.451,0.027l0.32-0.319l3.297-3.304
				c0.508-0.509,1.007-0.584,1.259-0.584c0.164,0,0.279,0.03,0.339,0.053C15.02,1.246,15.116,1.935,14.407,2.645z"/>
		</g>
	</g>
</g>
<g id="Layer_1">
</g>
</svg>
