<?xml version="1.0" encoding="iso-8859-1"?>
<!-- Generator: Adobe Illustrator 16.0.0, SVG Export Plug-In . SVG Version: 6.00 Build 0)  -->
<!DOCTYPE svg PUBLIC "-//W3C//DTD SVG 1.1//EN" "http://www.w3.org/Graphics/SVG/1.1/DTD/svg11.dtd">
<svg version="1.1" xmlns="http://www.w3.org/2000/svg" xmlns:xlink="http://www.w3.org/1999/xlink" x="0px" y="0px" width="16px"
	 height="16px" viewBox="0 0 16 16" style="enable-background:new 0 0 16 16;" xml:space="preserve">
<g id="setting-hotspot" style="enable-background:new    ;">
	<g id="setting-hotspot_1_">
		<g>
			<path d="M2.999,2.499h6c1.104,0,2,0.896,2,2.001v3c0,1.104-0.896,1.999-2,1.999H5.998v1h3.001c1.656,0,3-1.344,3-2.999v-3
				c0-1.657-1.344-3.001-3-3.001h-6c-1.657,0-3,1.344-3,3.001v3c0,1.655,1.343,2.999,3,2.999v-1c-1.105,0-2-0.895-2-1.999v-3
				C0.999,3.395,1.894,2.499,2.999,2.499z M12.999,5.5v0.999c1.104,0,2,0.896,2,2v3c0,1.104-0.896,2-2,2h-6c-1.105,0-2-0.896-2-2v-3
				c0-1.104,0.895-2,2-2h3V5.5h-3c-1.657,0-3,1.342-3,2.999v3c0,1.656,1.343,3,3,3h6c1.656,0,3-1.344,3-3v-3
				C15.999,6.842,14.655,5.5,12.999,5.5z"/>
		</g>
	</g>
</g>
<g id="Layer_1">
</g>
</svg>
