<?xml version="1.0" encoding="iso-8859-1"?>
<!-- Generator: Adobe Illustrator 16.0.0, SVG Export Plug-In . SVG Version: 6.00 Build 0)  -->
<!DOCTYPE svg PUBLIC "-//W3C//DTD SVG 1.1//EN" "http://www.w3.org/Graphics/SVG/1.1/DTD/svg11.dtd">
<svg version="1.1" xmlns="http://www.w3.org/2000/svg" xmlns:xlink="http://www.w3.org/1999/xlink" x="0px" y="0px" width="16px"
	 height="16px" viewBox="0 0 16 16" style="enable-background:new 0 0 16 16;" xml:space="preserve">
<g id="setting-gear-b" style="enable-background:new    ;">
	<g id="setting-gear-b_1_">
		<g>
			<path d="M7.999,5.499c-1.381,0-2.5,1.119-2.5,2.5c0,1.38,1.119,2.5,2.5,2.5c1.381,0,2.5-1.12,2.5-2.5
				C10.499,6.618,9.38,5.499,7.999,5.499z M7.999,9.499c-0.828,0-1.5-0.672-1.5-1.5c0-0.829,0.672-1.5,1.5-1.5
				c0.829,0,1.5,0.671,1.5,1.5C9.499,8.827,8.827,9.499,7.999,9.499z M14.999,6.499l-1.278-0.213
				c-0.118-0.394-0.272-0.767-0.464-1.122L14.01,4.11c0.391-0.391,0.391-1.023,0-1.415l-0.707-0.707c-0.391-0.39-1.023-0.39-1.414,0
				l-1.055,0.754c-0.354-0.192-0.729-0.347-1.122-0.465L9.499,0.999c0-0.552-0.447-1-1-1h-1c-0.553,0-1,0.448-1,1L6.286,2.277
				C5.892,2.396,5.519,2.55,5.164,2.742L4.11,1.988c-0.391-0.39-1.024-0.39-1.415,0L1.988,2.695c-0.391,0.392-0.391,1.024,0,1.415
				l0.753,1.054C2.549,5.52,2.395,5.893,2.277,6.286L0.999,6.499c-0.553,0-1,0.448-1,1.001v0.999c0,0.553,0.447,1,1,1l1.278,0.213
				c0.118,0.394,0.272,0.768,0.464,1.122l-0.753,1.055c-0.391,0.39-0.391,1.023,0,1.414l0.707,0.707
				c0.391,0.391,1.024,0.391,1.415,0l1.054-0.753c0.355,0.191,0.729,0.346,1.122,0.464l0.213,1.278c0,0.553,0.447,1,1,1h1
				c0.553,0,1-0.447,1-1l0.213-1.278c0.394-0.118,0.768-0.272,1.122-0.464l1.055,0.753c0.391,0.391,1.023,0.391,1.414,0l0.707-0.707
				c0.391-0.391,0.391-1.024,0-1.414l-0.753-1.055c0.191-0.354,0.347-0.729,0.464-1.122l1.278-0.213c0.553,0,1-0.447,1-1V7.5
				C15.999,6.947,15.552,6.499,14.999,6.499z M14.499,8.499L12.93,8.761c-0.125,0.81-0.444,1.553-0.908,2.183l0.928,1.298
				c0.195,0.196,0.195,0.513,0,0.708s-0.512,0.195-0.707,0l-1.3-0.929c-0.63,0.46-1.372,0.777-2.181,0.901L8.499,14.5
				c0,0.275-0.224,0.499-0.5,0.499c-0.276,0-0.5-0.224-0.5-0.499l-0.263-1.578c-0.808-0.124-1.551-0.441-2.181-0.901l-1.299,0.929
				c-0.195,0.195-0.513,0.195-0.708,0c-0.194-0.195-0.194-0.512,0-0.708l0.928-1.298c-0.464-0.63-0.783-1.373-0.908-2.183
				L1.499,8.499c-0.276,0-0.5-0.224-0.5-0.5c0-0.275,0.224-0.499,0.5-0.499l1.569-0.262c0.125-0.81,0.444-1.553,0.908-2.184
				L3.048,3.757c-0.194-0.195-0.194-0.512,0-0.707c0.195-0.195,0.513-0.195,0.708,0l1.299,0.928c0.63-0.46,1.373-0.777,2.181-0.901
				l0.263-1.577c0-0.276,0.224-0.5,0.5-0.5c0.277,0,0.5,0.224,0.5,0.5l0.263,1.577c0.808,0.124,1.551,0.441,2.181,0.901l1.3-0.928
				c0.195-0.195,0.512-0.195,0.707,0s0.195,0.512,0,0.707l-0.928,1.298c0.464,0.631,0.783,1.374,0.908,2.184L14.499,7.5
				c0.276,0,0.5,0.224,0.5,0.499C14.999,8.275,14.775,8.499,14.499,8.499z"/>
		</g>
	</g>
</g>
<g id="Layer_1">
</g>
</svg>
