<?xml version="1.0" encoding="iso-8859-1"?>
<!-- Generator: Adobe Illustrator 16.0.0, SVG Export Plug-In . SVG Version: 6.00 Build 0)  -->
<!DOCTYPE svg PUBLIC "-//W3C//DTD SVG 1.1//EN" "http://www.w3.org/Graphics/SVG/1.1/DTD/svg11.dtd">
<svg version="1.1" xmlns="http://www.w3.org/2000/svg" xmlns:xlink="http://www.w3.org/1999/xlink" x="0px" y="0px" width="16px"
	 height="16px" viewBox="0 0 16 16" style="enable-background:new 0 0 16 16;" xml:space="preserve">
<g id="setting-switch-a" style="enable-background:new    ;">
	<g id="setting-switch-a_1_">
		<g>
			<path d="M11.999,2.999h-8c-2.209,0-4,1.791-4,4v2c0,2.209,1.791,4,4,4h8c2.209,0,4-1.791,4-4v-2
				C15.999,4.79,14.208,2.999,11.999,2.999z M14.999,8.999c0,1.657-1.344,3-3,3h-8c-1.657,0-3-1.343-3-3v-2c0-1.657,1.343-3,3-3h8
				c1.656,0,3,1.343,3,3V8.999z M10.999,4.999c-1.656,0-3.001,1.344-3.001,3s1.345,3,3.001,3s3-1.344,3-3S12.655,4.999,10.999,4.999
				z M10.999,9.999c-1.105,0-2-0.895-2-2c0-1.104,0.895-1.999,2-1.999c1.104,0,2,0.895,2,1.999
				C12.999,9.104,12.103,9.999,10.999,9.999z"/>
		</g>
	</g>
</g>
<g id="Layer_1">
</g>
</svg>
