<?xml version="1.0" encoding="iso-8859-1"?>
<!-- Generator: Adobe Illustrator 16.0.0, SVG Export Plug-In . SVG Version: 6.00 Build 0)  -->
<!DOCTYPE svg PUBLIC "-//W3C//DTD SVG 1.1//EN" "http://www.w3.org/Graphics/SVG/1.1/DTD/svg11.dtd">
<svg version="1.1" xmlns="http://www.w3.org/2000/svg" xmlns:xlink="http://www.w3.org/1999/xlink" x="0px" y="0px" width="16px"
	 height="16px" viewBox="0 0 16 16" style="enable-background:new 0 0 16 16;" xml:space="preserve">
<g id="setting-eq-a" style="enable-background:new    ;">
	<g id="setting-eq-a_1_">
		<g>
			<path d="M14.499-0.001H1.498c-0.828,0-1.5,0.672-1.5,1.5v13c0,0.828,0.671,1.5,1.5,1.5h13.001c0.828,0,1.5-0.672,1.5-1.5v-13
				C15.999,0.671,15.327-0.001,14.499-0.001z M14.999,14.499c0,0.276-0.225,0.5-0.5,0.5H1.498c-0.276,0-0.5-0.224-0.5-0.5v-13
				c0-0.276,0.224-0.5,0.5-0.5h13.001c0.275,0,0.5,0.224,0.5,0.5V14.499z M12.999,7.999h-1v-1h-1v1h-8c-0.276,0-0.5,0.224-0.5,0.5
				C2.498,8.774,2.722,9,2.999,9h8v0.999h1V9h1c0.275,0,0.5-0.226,0.5-0.501C13.499,8.223,13.274,7.999,12.999,7.999z
				 M12.999,11.999H4.998v-1h-1v1h-1c-0.276,0-0.5,0.224-0.5,0.5s0.224,0.5,0.5,0.5h1v1h1v-1h8.001c0.275,0,0.5-0.224,0.5-0.5
				S13.274,11.999,12.999,11.999z M12.999,3.999h-5v-1h-1v1h-4c-0.276,0-0.5,0.224-0.5,0.501c0,0.275,0.224,0.499,0.5,0.499h4v1h1
				v-1h5c0.275,0,0.5-0.224,0.5-0.499C13.499,4.223,13.274,3.999,12.999,3.999z"/>
		</g>
	</g>
</g>
<g id="Layer_1">
</g>
</svg>
