<?xml version="1.0" encoding="iso-8859-1"?>
<!-- Generator: Adobe Illustrator 16.0.0, SVG Export Plug-In . SVG Version: 6.00 Build 0)  -->
<!DOCTYPE svg PUBLIC "-//W3C//DTD SVG 1.1//EN" "http://www.w3.org/Graphics/SVG/1.1/DTD/svg11.dtd">
<svg version="1.1" xmlns="http://www.w3.org/2000/svg" xmlns:xlink="http://www.w3.org/1999/xlink" x="0px" y="0px" width="16px"
	 height="16px" viewBox="0 0 16 16" style="enable-background:new 0 0 16 16;" xml:space="preserve">
<g id="setting-wrench" style="enable-background:new    ;">
	<g id="setting-wrench_1_">
		<g>
			<path d="M14.559,3.574l-1.939,1.939l-1.78-0.355l-0.355-1.78l1.939-1.938c-0.62-0.295-1.292-0.443-1.964-0.443
				c-1.151,0-2.3,0.436-3.178,1.314C6.025,3.565,5.679,5.369,6.205,6.945l-4.619,4.619c-0.786,0.787-0.786,2.062,0,2.849
				c0.394,0.393,0.908,0.589,1.424,0.589c0.515,0,1.031-0.196,1.424-0.589l4.619-4.62c0.472,0.158,0.965,0.236,1.457,0.236
				c1.15,0,2.299-0.433,3.178-1.312C15.08,7.324,15.358,5.257,14.559,3.574z M12.981,8.008c-0.657,0.657-1.536,1.02-2.473,1.02
				c-0.389,0-0.773-0.063-1.143-0.185L8.782,8.647L8.347,9.083l-4.618,4.619c-0.192,0.191-0.447,0.297-0.719,0.297
				s-0.527-0.105-0.719-0.296c-0.191-0.191-0.296-0.445-0.296-0.715s0.105-0.523,0.296-0.714l5.058-5.058L7.152,6.628
				C6.724,5.345,7.043,3.963,7.985,3.021c0.656-0.657,1.531-1.02,2.463-1.022l-1.05,1.05l0.105,0.527l0.356,1.78l0.131,0.655
				l0.653,0.13l1.779,0.355l0.522,0.104l0.378-0.377l0.677-0.677C13.997,6.453,13.646,7.344,12.981,8.008z"/>
		</g>
	</g>
</g>
<g id="Layer_1">
</g>
</svg>
