<?xml version="1.0" encoding="iso-8859-1"?>
<!-- Generator: Adobe Illustrator 16.0.0, SVG Export Plug-In . SVG Version: 6.00 Build 0)  -->
<!DOCTYPE svg PUBLIC "-//W3C//DTD SVG 1.1//EN" "http://www.w3.org/Graphics/SVG/1.1/DTD/svg11.dtd">
<svg version="1.1" xmlns="http://www.w3.org/2000/svg" xmlns:xlink="http://www.w3.org/1999/xlink" x="0px" y="0px" width="16px"
	 height="16px" viewBox="0 0 16 16" style="enable-background:new 0 0 16 16;" xml:space="preserve">
<g id="setting-gear-a" style="enable-background:new    ;">
	<g id="setting-gear-a_2_">
		<g>
			<path d="M15.999,7.999c0-1.05-0.812-1.901-1.841-1.983c-0.11-0.343-0.245-0.671-0.408-0.986c0.66-0.785,0.646-1.947-0.094-2.687
				s-1.901-0.754-2.687-0.094c-0.315-0.164-0.644-0.298-0.986-0.409C9.9,0.811,9.049-0.001,7.999-0.001
				c-1.05,0-1.901,0.812-1.984,1.841c-0.343,0.111-0.67,0.245-0.985,0.409c-0.786-0.66-1.948-0.646-2.688,0.094
				S1.587,4.244,2.248,5.029C2.084,5.345,1.951,5.673,1.839,6.016C0.811,6.098-0.001,6.949-0.001,7.999
				c0,1.051,0.813,1.901,1.841,1.983c0.111,0.343,0.245,0.671,0.408,0.986c-0.66,0.786-0.646,1.948,0.094,2.687
				c0.739,0.739,1.901,0.755,2.688,0.095c0.315,0.163,0.643,0.298,0.985,0.408c0.083,1.029,0.935,1.841,1.984,1.841
				c1.051,0,1.903-0.812,1.985-1.841c0.343-0.11,0.671-0.245,0.985-0.408c0.786,0.66,1.948,0.645,2.688-0.095
				c0.739-0.738,0.754-1.9,0.094-2.687c0.163-0.315,0.298-0.644,0.408-0.986C15.188,9.9,15.999,9.05,15.999,7.999z M13.407,8.999
				c-0.143,0.773-0.456,1.484-0.887,2.107l0.429,0.429c0.391,0.391,0.391,1.023,0,1.414c-0.391,0.39-1.023,0.39-1.414,0
				l-0.432-0.432c-0.623,0.427-1.332,0.738-2.104,0.881v0.601c0,0.553-0.447,1-1,1c-0.553,0-1-0.447-1-1v-0.601
				c-0.771-0.143-1.481-0.454-2.104-0.881l-0.431,0.432c-0.391,0.39-1.024,0.39-1.415,0c-0.39-0.391-0.39-1.023,0-1.414l0.43-0.429
				C3.047,10.483,2.733,9.772,2.59,8.999H1.999c-0.553,0-1-0.447-1-1c0-0.552,0.447-1,1-1H2.59c0.143-0.773,0.456-1.484,0.887-2.106
				L3.048,4.464c-0.39-0.391-0.39-1.023,0-1.414c0.391-0.391,1.024-0.391,1.415,0l0.431,0.432C5.518,3.054,6.227,2.742,6.999,2.6V2
				c0-0.553,0.447-1.001,1-1.001c0.553,0,1,0.448,1,1.001v0.6c0.772,0.143,1.481,0.454,2.104,0.882l0.432-0.432
				c0.391-0.391,1.023-0.391,1.414,0s0.391,1.023,0,1.414l-0.429,0.429c0.431,0.622,0.744,1.333,0.887,2.106h0.592
				c0.553,0,1,0.448,1,1c0,0.553-0.447,1-1,1H13.407z M7.999,4.999c-1.657,0-3,1.344-3,3c0,1.657,1.343,3.001,3,3.001
				c1.658,0,3-1.344,3-3.001C10.999,6.343,9.656,4.999,7.999,4.999z M7.999,9.999c-1.104,0-2-0.895-2-2c0-1.104,0.896-1.999,2-1.999
				c1.105,0,2,0.895,2,1.999C9.999,9.104,9.104,9.999,7.999,9.999z"/>
		</g>
	</g>
</g>
<g id="Layer_1">
</g>
</svg>
