<?xml version="1.0" encoding="iso-8859-1"?>
<!-- Generator: Adobe Illustrator 16.0.0, SVG Export Plug-In . SVG Version: 6.00 Build 0)  -->
<!DOCTYPE svg PUBLIC "-//W3C//DTD SVG 1.1//EN" "http://www.w3.org/Graphics/SVG/1.1/DTD/svg11.dtd">
<svg version="1.1" xmlns="http://www.w3.org/2000/svg" xmlns:xlink="http://www.w3.org/1999/xlink" x="0px" y="0px" width="16px"
	 height="16px" viewBox="0 0 16 16" style="enable-background:new 0 0 16 16;" xml:space="preserve">
<g id="setting-component" style="enable-background:new    ;">
	<g id="setting-component_2_">
		<g>
			<path d="M15.999,3.999v-1h-2V2h-1v-2.001h-1V2h-2v-2.001h-1V2h-2v-2.001h-1V2h-2v-2.001h-1V2h-1v0.999h-2v1h2V6h-2v1h2v1.999h-2
				v1h2v2h-2v1h2v1h1v2h1v-2h2v2h1v-2h2v2h1v-2h2v2h1v-2h1v-1h2v-1h-2v-2h2v-1h-2V7h2V6h-2V3.999H15.999z M12.999,3.999V6v1v1.999v1
				v2v1h-1h-2h-1h-2h-1h-2h-1v-1v-2v-1V7V6V3.999v-1h1h2h1h2h1h2h1V3.999z"/>
		</g>
	</g>
</g>
<g id="Layer_1">
</g>
</svg>
