<?xml version="1.0" encoding="iso-8859-1"?>
<!-- Generator: Adobe Illustrator 16.0.0, SVG Export Plug-In . SVG Version: 6.00 Build 0)  -->
<!DOCTYPE svg PUBLIC "-//W3C//DTD SVG 1.1//EN" "http://www.w3.org/Graphics/SVG/1.1/DTD/svg11.dtd">
<svg version="1.1" xmlns="http://www.w3.org/2000/svg" xmlns:xlink="http://www.w3.org/1999/xlink" x="0px" y="0px" width="18px"
	 height="16px" viewBox="0 0 18 16" style="enable-background:new 0 0 18 16;" xml:space="preserve">
<g id="sport-stadium" style="enable-background:new    ;">
	<g id="sport-stadium_1_">
		<g>
			<path d="M14.499,1.999h-10c-1.657,0-3,1.344-3,3.001v5.999c0,1.656,1.343,3,3,3h9c1.656,0,3-1.344,3-3V5
				C16.499,3.343,16.155,1.999,14.499,1.999z M2.499,6.011c1.414-0.249,2.998-1.085,2.987,1.988c-0.011,3.074-1.578,2.24-2.987,1.99
				V6.011z M8.498,12.999H4.499c-1.105,0-2-0.895-2-2v-0.066c1.928,0.139,4,0.75,4-2.934c0-3.683-2.072-3.07-4-2.932V5
				c0-1.104,0.895-2,2-2h3.999V12.999z M15.499,9.948c-1.41,0.244-2.977,1.063-2.988-1.949c-0.01-3.011,1.574-2.192,2.988-1.948
				V9.948z M15.499,5v0.127c-1.928-0.136-4-0.735-4,2.872c0,3.609,2.072,3.01,4,2.873v0.127c0,1.105-0.896,2-2,2h-4V3h5
				C15.603,3,15.499,3.896,15.499,5z"/>
		</g>
	</g>
</g>
<g id="Layer_1">
</g>
</svg>
