<?xml version="1.0" encoding="iso-8859-1"?>
<!-- Generator: Adobe Illustrator 16.0.0, SVG Export Plug-In . SVG Version: 6.00 Build 0)  -->
<!DOCTYPE svg PUBLIC "-//W3C//DTD SVG 1.1//EN" "http://www.w3.org/Graphics/SVG/1.1/DTD/svg11.dtd">
<svg version="1.1" xmlns="http://www.w3.org/2000/svg" xmlns:xlink="http://www.w3.org/1999/xlink" x="0px" y="0px" width="18px"
	 height="16px" viewBox="0 0 18 16" style="enable-background:new 0 0 18 16;" xml:space="preserve">
<g id="sport-football" style="enable-background:new    ;">
	<g id="sport-football_1_">
		<g>
			<path d="M16.793,3.248c-1-1.829-6.718-2.611-10.544-0.278s-6.044,7.952-5.044,9.78c1,1.829,6.718,2.611,10.544,0.278
				C15.575,10.695,17.793,5.077,16.793,3.248z M2.07,12.223c-0.328-0.6-0.115-1.877,0.508-3.295l2.449,4.479
				C3.552,13.266,2.398,12.821,2.07,12.223z M11.248,12.114c-1.515,0.923-3.381,1.31-5.043,1.334L3.132,7.829
				c0.851-1.508,2.102-3.021,3.617-3.945c1.514-0.923,3.381-1.31,5.043-1.334l3.073,5.62C14.014,9.677,12.763,11.19,11.248,12.114z
				 M15.419,7.071L12.97,2.592c1.475,0.141,2.629,0.585,2.957,1.184C16.254,4.375,16.042,5.652,15.419,7.071z M11.347,5.958
				l-0.5-0.914L9.98,5.571l0.5,0.915L9.614,7.014L9.114,6.1L8.248,6.628l0.5,0.914L7.882,8.07l-0.5-0.915L6.516,7.684l0.5,0.914
				L6.583,8.862C6.344,9.008,6.262,9.331,6.4,9.583c0.138,0.252,0.444,0.338,0.683,0.193l0.433-0.264l0.5,0.913l0.866-0.528
				l-0.5-0.912l0.865-0.528l0.5,0.914l0.866-0.527l-0.5-0.915L10.98,7.4l0.5,0.915l0.866-0.527l-0.5-0.915l0.433-0.265
				c0.239-0.146,0.321-0.468,0.184-0.721c-0.139-0.253-0.444-0.339-0.684-0.194L11.347,5.958z"/>
		</g>
	</g>
</g>
<g id="Layer_1">
</g>
</svg>
