<?xml version="1.0" encoding="iso-8859-1"?>
<!-- Generator: Adobe Illustrator 16.0.0, SVG Export Plug-In . SVG Version: 6.00 Build 0)  -->
<!DOCTYPE svg PUBLIC "-//W3C//DTD SVG 1.1//EN" "http://www.w3.org/Graphics/SVG/1.1/DTD/svg11.dtd">
<svg version="1.1" xmlns="http://www.w3.org/2000/svg" xmlns:xlink="http://www.w3.org/1999/xlink" x="0px" y="0px" width="18px"
	 height="16px" viewBox="0 0 18 16" style="enable-background:new 0 0 18 16;" xml:space="preserve">
<g id="sport-tape" style="enable-background:new    ;">
	<g id="sport-tape_1_">
		<g>
			<path d="M7.816,9.055l0.866,0.503l0.5-0.871L8.316,8.183L7.816,9.055z M6.084,8.049L6.95,8.551l0.5-0.87L6.584,7.177L6.084,8.049
				z M9.549,10.06l0.865,0.503l0.5-0.87l-0.865-0.504L9.549,10.06z M10.183,6.943L9.316,6.441l-0.5,0.87l0.867,0.503L10.183,6.943z
				 M13.249,0.595c-2.152-1.25-4.905-0.508-6.147,1.657l-0.25,0.436l-0.5,0.87h0L3.102,9.22c-1.243,2.165-0.505,4.934,1.647,6.184
				s4.905,0.508,6.147-1.656l0.25-0.436l0.218-0.379l3.532-6.154C16.139,4.613,15.401,1.845,13.249,0.595z M10.03,13.244
				c-0.966,1.684-3.107,2.261-4.781,1.288c-1.674-0.972-2.248-3.125-1.281-4.809l0.25-0.436l6.063,3.521L10.03,13.244z
				 M10.78,11.938L4.718,8.417l2.5-4.355l6.063,3.521L10.78,11.938z M14.03,6.275L13.78,6.71L7.718,3.189l0.25-0.436
				c0.966-1.684,3.107-2.261,4.781-1.288C14.424,2.438,14.997,4.591,14.03,6.275z M7.95,6.809l0.5-0.87L7.584,5.435l-0.5,0.871
				L7.95,6.809z M11.914,7.95l-0.865-0.504l-0.5,0.872l0.865,0.503L11.914,7.95z"/>
		</g>
	</g>
</g>
<g id="Layer_1">
</g>
</svg>
