<?xml version="1.0" encoding="iso-8859-1"?>
<!-- Generator: Adobe Illustrator 16.0.0, SVG Export Plug-In . SVG Version: 6.00 Build 0)  -->
<!DOCTYPE svg PUBLIC "-//W3C//DTD SVG 1.1//EN" "http://www.w3.org/Graphics/SVG/1.1/DTD/svg11.dtd">
<svg version="1.1" xmlns="http://www.w3.org/2000/svg" xmlns:xlink="http://www.w3.org/1999/xlink" x="0px" y="0px" width="18px"
	 height="16px" viewBox="0 0 18 16" style="enable-background:new 0 0 18 16;" xml:space="preserve">
<g id="sport-dumbell-a" style="enable-background:new    ;">
	<g id="sport-dumbell-a_2_">
		<g>
			<path d="M15.999,5.499h-1c0-0.553-0.447-1-1-1h-1c-0.553,0-1,0.447-1,1v2h-6v-2c0-0.553-0.448-1-1-1h-1c-0.553,0-1,0.447-1,1h-1
				c-0.553,0-1,0.447-1,1v2.999c0,0.553,0.447,1.001,1,1.001h1c0,0.552,0.447,1,1,1h1c0.552,0,1-0.448,1-1v-2h6v2
				c0,0.552,0.447,1,1,1h1c0.553,0,1-0.448,1-1h1c0.553,0,1-0.448,1-1.001V6.499C16.999,5.946,16.552,5.499,15.999,5.499z
				 M2.999,6.999v2v0.499h-1V8.999v-2v-0.5h1V6.999z M4.999,9.999c0,0.275-0.225,0.5-0.5,0.5c-0.276,0-0.5-0.225-0.5-0.5V9.498
				V6.499v-0.5c0-0.276,0.224-0.5,0.5-0.5c0.275,0,0.5,0.224,0.5,0.5V9.999z M13.999,6.499v2.999v0.501c0,0.275-0.225,0.5-0.5,0.5
				s-0.5-0.225-0.5-0.5v-4c0-0.276,0.225-0.5,0.5-0.5s0.5,0.224,0.5,0.5V6.499z M15.999,6.999v2v0.499h-1V8.999v-2v-0.5h1V6.999z"/>
		</g>
	</g>
</g>
<g id="Layer_1">
</g>
</svg>
