<?xml version="1.0" encoding="iso-8859-1"?>
<!-- Generator: Adobe Illustrator 16.0.0, SVG Export Plug-In . SVG Version: 6.00 Build 0)  -->
<!DOCTYPE svg PUBLIC "-//W3C//DTD SVG 1.1//EN" "http://www.w3.org/Graphics/SVG/1.1/DTD/svg11.dtd">
<svg version="1.1" xmlns="http://www.w3.org/2000/svg" xmlns:xlink="http://www.w3.org/1999/xlink" x="0px" y="0px" width="18px"
	 height="16px" viewBox="0 0 18 16" style="enable-background:new 0 0 18 16;" xml:space="preserve">
<g id="sport-bottle" style="enable-background:new    ;">
	<g id="sport-bottle_1_">
		<g>
			<path d="M11.999,4.777V4.222c0-1.228-0.896-2.223-2-2.223h-2c-1.104,0-2,0.995-2,2.223v0.556c0,0.82,0.404,1.528,1,1.914v2.569
				c-0.596,0.325-1,0.926-1,1.621v3.235c0,1.04,0.896,1.882,2,1.882h2c1.104,0,2-0.842,2-1.882v-3.235c0-0.695-0.404-1.296-1-1.621
				V6.691C11.595,6.306,11.999,5.598,11.999,4.777z M10.999,14.076c0,0.51-0.447,0.924-1,0.924h-2c-0.553,0-1-0.414-1-0.924v-3.154
				c0-0.509,0.447-0.923,1-0.923h2c0.553,0,1,0.414,1,0.923V14.076z M7.999,8.999v-2h2v2H7.999z M10.062,6H7.937
				C7.415,5.959,6.999,5.445,6.999,4.803V4.196c0-0.67,0.447-1.212,1-1.212h2c0.553,0,1,0.542,1,1.212v0.606
				C10.999,5.445,10.583,5.959,10.062,6z M7.499,0.999h3c0.275,0,0.5-0.224,0.5-0.5s-0.225-0.5-0.5-0.5h-3
				c-0.276,0-0.5,0.224-0.5,0.5S7.223,0.999,7.499,0.999z"/>
		</g>
	</g>
</g>
<g id="Layer_1">
</g>
</svg>
