<?xml version="1.0" encoding="iso-8859-1"?>
<!-- Generator: Adobe Illustrator 16.0.0, SVG Export Plug-In . SVG Version: 6.00 Build 0)  -->
<!DOCTYPE svg PUBLIC "-//W3C//DTD SVG 1.1//EN" "http://www.w3.org/Graphics/SVG/1.1/DTD/svg11.dtd">
<svg version="1.1" xmlns="http://www.w3.org/2000/svg" xmlns:xlink="http://www.w3.org/1999/xlink" x="0px" y="0px" width="18px"
	 height="16px" viewBox="0 0 18 16" style="enable-background:new 0 0 18 16;" xml:space="preserve">
<g id="sport-tv" style="enable-background:new    ;">
	<g id="sport-tv_1_">
		<g>
			<path d="M12.999,5.004h-8c-1.104,0-2,0.896-2,2v4.999c0,1.105,0.896,2,2,2h8c1.104,0,2-0.895,2-2V7.004
				C14.999,5.899,14.103,5.004,12.999,5.004z M13.999,12.003c0,0.553-0.447,1-1,1h-8c-0.553,0-1-0.447-1-1V7.004
				c0-0.553,0.447-1,1-1h8c0.553,0,1,0.447,1,1V12.003z M13.999,3.003h-3.135l2.473-2.116c0.205-0.204,0.205-0.535,0-0.738
				c-0.203-0.204-0.533-0.204-0.738,0L9.261,3.003H8.736L5.398,0.148c-0.204-0.204-0.535-0.204-0.738,0
				c-0.204,0.203-0.204,0.534,0,0.738l2.474,2.116H3.999c-1.657,0-3,1.344-3,3.001v6.999c0,1.657,1.343,3,3,3h10
				c1.656,0,3-1.343,3-3V6.004C16.999,4.347,15.655,3.003,13.999,3.003z M15.999,13.003c0,1.104-0.896,2-2,2h-10
				c-1.104,0-2-0.896-2-2V6.004c0-1.104,0.896-2,2-2h10c1.104,0,2,0.896,2,2V13.003z"/>
		</g>
	</g>
</g>
<g id="Layer_1">
</g>
</svg>
