<?xml version="1.0" encoding="iso-8859-1"?>
<!-- Generator: Adobe Illustrator 16.0.0, SVG Export Plug-In . SVG Version: 6.00 Build 0)  -->
<!DOCTYPE svg PUBLIC "-//W3C//DTD SVG 1.1//EN" "http://www.w3.org/Graphics/SVG/1.1/DTD/svg11.dtd">
<svg version="1.1" xmlns="http://www.w3.org/2000/svg" xmlns:xlink="http://www.w3.org/1999/xlink" x="0px" y="0px" width="18px"
	 height="16px" viewBox="0 0 18 16" style="enable-background:new 0 0 18 16;" xml:space="preserve">
<g id="sport-stadium-a" style="enable-background:new    ;">
	<g id="sport-stadium-a_2_">
		<g>
			<path d="M14.499-0.001h-10c-1.657,0-3,1.343-3,3v10c0,1.656,1.343,3,3,3h9c1.656,0,3-1.344,3-3v-10
				C16.499,1.342,16.155-0.001,14.499-0.001z M2.499,5.018c1.509-0.215,3.487-0.898,3.487,2.981c0,3.881-1.979,3.195-3.487,2.982
				V5.018z M8.499,14.999h-4c-1.105,0-2-0.895-2-2v-1.072c1.996,0.109,4.5,0.52,4.5-3.928c0-4.448-2.504-4.038-4.5-3.929V2.999
				c0-1.104,0.895-2,2-2h4V14.999z M15.499,10.981c-1.51,0.213-3.488,0.898-3.488-2.982c0-3.88,1.979-3.196,3.488-2.981V10.981z
				 M15.499,2.999V4.07c-1.996-0.109-4.5-0.52-4.5,3.929c0,4.447,2.504,4.037,4.5,3.928v1.072c0,1.105-0.896,2-2,2h-4v-14h5
				C15.603,0.999,15.499,1.895,15.499,2.999z"/>
		</g>
	</g>
</g>
<g id="Layer_1">
</g>
</svg>
