<?xml version="1.0" encoding="iso-8859-1"?>
<!-- Generator: Adobe Illustrator 16.0.0, SVG Export Plug-In . SVG Version: 6.00 Build 0)  -->
<!DOCTYPE svg PUBLIC "-//W3C//DTD SVG 1.1//EN" "http://www.w3.org/Graphics/SVG/1.1/DTD/svg11.dtd">
<svg version="1.1" xmlns="http://www.w3.org/2000/svg" xmlns:xlink="http://www.w3.org/1999/xlink" x="0px" y="0px" width="18px"
	 height="16px" viewBox="0 0 18 16" style="enable-background:new 0 0 18 16;" xml:space="preserve">
<g id="sport-dumbell" style="enable-background:new    ;">
	<g id="sport-dumbell_1_">
		<g>
			<path d="M1.499,6.499c-0.276,0-0.5,0.225-0.5,0.5v2c0,0.276,0.224,0.5,0.5,0.5c0.275,0,0.5-0.224,0.5-0.5v-2
				C1.999,6.724,1.774,6.499,1.499,6.499z M12.499,4.499c-0.275,0-0.5,0.225-0.5,0.5V7.5h-6V4.999c0-0.275-0.225-0.5-0.5-0.5
				c-0.276,0-0.5,0.225-0.5,0.5V11c0,0.275,0.224,0.499,0.5,0.499c0.275,0,0.5-0.224,0.5-0.499V8.5h6V11
				c0,0.275,0.225,0.499,0.5,0.499s0.5-0.224,0.5-0.499V4.999C12.999,4.724,12.774,4.499,12.499,4.499z M3.499,5.499
				c-0.276,0-0.5,0.225-0.5,0.5v4c0,0.276,0.224,0.5,0.5,0.5c0.275,0,0.5-0.224,0.5-0.5v-4C3.999,5.724,3.774,5.499,3.499,5.499z
				 M16.499,6.499c-0.275,0-0.5,0.225-0.5,0.5v2c0,0.276,0.225,0.5,0.5,0.5s0.5-0.224,0.5-0.5v-2
				C16.999,6.724,16.774,6.499,16.499,6.499z M14.499,5.499c-0.275,0-0.5,0.225-0.5,0.5v4c0,0.276,0.225,0.5,0.5,0.5
				s0.5-0.224,0.5-0.5v-4C14.999,5.724,14.774,5.499,14.499,5.499z"/>
		</g>
	</g>
</g>
<g id="Layer_1">
</g>
</svg>
