<?xml version="1.0" encoding="iso-8859-1"?>
<!-- Generator: Adobe Illustrator 16.0.0, SVG Export Plug-In . SVG Version: 6.00 Build 0)  -->
<!DOCTYPE svg PUBLIC "-//W3C//DTD SVG 1.1//EN" "http://www.w3.org/Graphics/SVG/1.1/DTD/svg11.dtd">
<svg version="1.1" xmlns="http://www.w3.org/2000/svg" xmlns:xlink="http://www.w3.org/1999/xlink" x="0px" y="0px" width="18px"
	 height="16px" viewBox="0 0 18 16" style="enable-background:new 0 0 18 16;" xml:space="preserve">
<g id="sport-cards" style="enable-background:new    ;">
	<g id="sport-cards_2_">
		<g>
			<path d="M10.999,1.998h-7c-0.829,0-1.5,0.672-1.5,1.501v11c0,0.828,0.671,1.5,1.5,1.5h7c0.828,0,1.5-0.672,1.5-1.5v-11
				C12.499,2.67,11.827,1.998,10.999,1.998z M11.499,14.499c0,0.275-0.225,0.5-0.5,0.5h-7c-0.276,0-0.5-0.225-0.5-0.5v-11
				c0-0.276,0.224-0.501,0.5-0.501h7c0.275,0,0.5,0.225,0.5,0.501V14.499z M13.999-0.001h-7c-0.651,0-1.192,0.42-1.399,1h1.399h6.5
				h0.5c0.275,0,0.5,0.224,0.5,0.499v11.001c0,0.275-0.225,0.5-0.5,0.5h-0.5v1h0.5c0.828,0,1.5-0.672,1.5-1.5V1.498
				C15.499,0.67,14.827-0.001,13.999-0.001z"/>
		</g>
	</g>
</g>
<g id="Layer_1">
</g>
</svg>
