<?xml version="1.0" encoding="iso-8859-1"?>
<!-- Generator: Adobe Illustrator 16.0.0, SVG Export Plug-In . SVG Version: 6.00 Build 0)  -->
<!DOCTYPE svg PUBLIC "-//W3C//DTD SVG 1.1//EN" "http://www.w3.org/Graphics/SVG/1.1/DTD/svg11.dtd">
<svg version="1.1" xmlns="http://www.w3.org/2000/svg" xmlns:xlink="http://www.w3.org/1999/xlink" x="0px" y="0px" width="18px"
	 height="16px" viewBox="0 0 18 16" style="enable-background:new 0 0 18 16;" xml:space="preserve">
<g id="sport-flag" style="enable-background:new    ;">
	<g id="sport-flag_1_">
		<g>
			<path d="M13.335,1.736c-0.773,0-1.711-0.193-2.836-0.707c-1.648-0.755-3.197-1.006-4.53-1.006c-2.431,0-4.127,0.827-4.411,0.975
				H1.499v0.5v1.5v2.116v1.117v9.268c0,0.275,0.224,0.5,0.5,0.5c0.275,0,0.5-0.225,0.5-0.5V9.464c0.66-0.162,1.613-0.33,2.774-0.33
				c1.477,0,3.282,0.27,5.226,1.158c1.125,0.516,2.063,0.709,2.836,0.709c2.32,0,3.164-1.738,3.164-1.738v-9.264
				C16.499-0.001,15.655,1.736,13.335,1.736z M15.499,8.97c-0.242,0.332-0.896,1.016-2.164,1.016c-0.715,0-1.531-0.209-2.43-0.623
				C9.097,8.53,7.201,8.108,5.273,8.108c-1.117,0-2.066,0.143-2.774,0.305v-2.64c1.498-0.568,4.527-1.266,8,0.458
				c2.52,1.25,4.098,0.749,5,0.066V8.97z M15.499,5.182c-0.902,0.683-2.48,1.184-5-0.067c-3.473-1.723-6.502-1.025-8-0.458V1.657
				c0.663-0.263,1.906-0.652,3.47-0.652c1.407,0,2.795,0.312,4.124,0.924c1.154,0.531,2.246,0.802,3.242,0.802
				c0.879,0,1.594-0.205,2.164-0.491V5.182z"/>
		</g>
	</g>
</g>
<g id="Layer_1">
</g>
</svg>
