<?xml version="1.0" encoding="iso-8859-1"?>
<!-- Generator: Adobe Illustrator 16.0.0, SVG Export Plug-In . SVG Version: 6.00 Build 0)  -->
<!DOCTYPE svg PUBLIC "-//W3C//DTD SVG 1.1//EN" "http://www.w3.org/Graphics/SVG/1.1/DTD/svg11.dtd">
<svg version="1.1" xmlns="http://www.w3.org/2000/svg" xmlns:xlink="http://www.w3.org/1999/xlink" x="0px" y="0px" width="18px"
	 height="16px" viewBox="0 0 18 16" style="enable-background:new 0 0 18 16;" xml:space="preserve">
<g id="sport-medic" style="enable-background:new    ;">
	<g id="sport-medic_2_">
		<g>
			<path d="M14.499,2.499h-2v-2h-7v2h-2c-1.104,0-2,0.896-2,2v9c0,1.104,0.896,2,2,2h11c1.104,0,2-0.896,2-2v-9
				C16.499,3.395,15.604,2.499,14.499,2.499z M6.499,1.499h5v1h-5V1.499z M15.499,13.499c0,0.553-0.447,1-1,1h-11
				c-0.552,0-1-0.447-1-1v-9c0-0.552,0.448-0.999,1-0.999h2h7h2c0.553,0,1,0.447,1,0.999V13.499z M9.499,6.499h-1v2h-2v1h2V11.5h1
				V9.499h2v-1h-2V6.499z"/>
		</g>
	</g>
</g>
<g id="Layer_1">
</g>
</svg>
