<?xml version="1.0" encoding="iso-8859-1"?>
<!-- Generator: Adobe Illustrator 16.0.0, SVG Export Plug-In . SVG Version: 6.00 Build 0)  -->
<!DOCTYPE svg PUBLIC "-//W3C//DTD SVG 1.1//EN" "http://www.w3.org/Graphics/SVG/1.1/DTD/svg11.dtd">
<svg version="1.1" xmlns="http://www.w3.org/2000/svg" xmlns:xlink="http://www.w3.org/1999/xlink" x="0px" y="0px" width="18px"
	 height="16px" viewBox="0 0 18 16" style="enable-background:new 0 0 18 16;" xml:space="preserve">
<g id="sport-tennisball" style="enable-background:new    ;">
	<g id="sport-tennisball_1_">
		<g>
			<path d="M12.998,1.071C9.172-1.138,4.28,0.172,2.071,4c-2.209,3.825-0.898,8.718,2.928,10.927
				c3.827,2.21,8.719,0.898,10.928-2.928S16.825,3.281,12.998,1.071z M8.226,1.064c1.434-0.162,2.926,0.096,4.273,0.873
				c1.346,0.777,2.315,1.94,2.893,3.264c-1.773,1.651-3.483,2.129-5.376,1.036C8.125,5.145,7.683,3.425,8.226,1.064z M9.771,14.935
				c-1.434,0.161-2.927-0.097-4.272-0.874c-1.346-0.776-2.315-1.94-2.893-3.263C4.379,9.146,6.09,8.669,7.981,9.761
				C9.873,10.854,10.315,12.573,9.771,14.935z M15.061,11.499c-0.988,1.712-2.594,2.838-4.371,3.281
				c0.505-2.656-0.051-4.68-2.191-5.915C6.359,7.63,4.328,8.159,2.28,9.926C1.775,8.164,1.948,6.211,2.937,4.5
				C3.925,2.787,5.53,1.661,7.308,1.217C6.803,3.875,7.359,5.898,9.499,7.133c2.14,1.235,4.17,0.705,6.218-1.061
				C16.222,7.834,16.049,9.787,15.061,11.499z"/>
		</g>
	</g>
</g>
<g id="Layer_1">
</g>
</svg>
