<?xml version="1.0" encoding="iso-8859-1"?>
<!-- Generator: Adobe Illustrator 16.0.0, SVG Export Plug-In . SVG Version: 6.00 Build 0)  -->
<!DOCTYPE svg PUBLIC "-//W3C//DTD SVG 1.1//EN" "http://www.w3.org/Graphics/SVG/1.1/DTD/svg11.dtd">
<svg version="1.1" xmlns="http://www.w3.org/2000/svg" xmlns:xlink="http://www.w3.org/1999/xlink" x="0px" y="0px" width="18px"
	 height="16px" viewBox="0 0 18 16" style="enable-background:new 0 0 18 16;" xml:space="preserve">
<g id="sport-baseball" style="enable-background:new    ;">
	<g id="sport-baseball_2_">
		<g>
			<path d="M5.154,5.698c0.526,0.37,1.11,0.661,1.727,0.881l0.266-0.996C6.702,5.419,6.275,5.218,5.886,4.96L5.154,5.698z
				 M7.632,9.648l0.258,0.965c0.36-0.067,0.729-0.115,1.108-0.115c0.382,0,0.751,0.048,1.114,0.117l0.256-0.965
				c-0.445-0.09-0.898-0.151-1.37-0.151C8.528,9.499,8.075,9.56,7.632,9.648z M4.986,10.768l0.717,0.72
				c0.382-0.252,0.8-0.447,1.235-0.607l-0.26-0.972C6.074,10.122,5.502,10.405,4.986,10.768z M11.063,10.881
				c0.434,0.16,0.85,0.355,1.23,0.606l0.717-0.721c-0.516-0.36-1.086-0.644-1.689-0.858L11.063,10.881z M15.476,3.315
				c0.008-0.015,0.02-0.028,0.029-0.044c-0.084-0.101-0.184-0.188-0.273-0.283c-1.467-1.821-3.713-2.989-6.233-2.989
				c-4.418,0-7.999,3.581-7.999,7.999c0,4.419,3.581,8.001,7.999,8.001c4.419,0,8.001-3.582,8.001-8.001
				C16.999,6.247,16.431,4.633,15.476,3.315z M14.538,12.233c-0.227-0.294-0.475-0.57-0.744-0.824l-0.705,0.708
				c0.291,0.271,0.547,0.575,0.777,0.899c-1.26,1.223-2.973,1.981-4.868,1.981c-1.894,0-3.606-0.759-4.866-1.981
				c0.23-0.324,0.486-0.628,0.776-0.899L4.202,11.41c-0.27,0.254-0.517,0.529-0.743,0.823c-0.902-1.179-1.461-2.636-1.461-4.235
				c0-1.554,0.523-2.976,1.38-4.137C3.667,4.285,3.983,4.688,4.354,5.04l0.72-0.726c-0.396-0.373-0.721-0.813-1.007-1.28
				c1.265-1.257,3.007-2.035,4.931-2.035c2.089,0,3.942,0.932,5.224,2.382c-0.236,0.336-0.5,0.652-0.799,0.934l0.721,0.726
				c0.266-0.252,0.512-0.525,0.736-0.816c0.701,1.091,1.119,2.382,1.119,3.774C15.999,9.598,15.44,11.055,14.538,12.233z
				 M11.356,5.581l0.262,0.997c0.617-0.219,1.199-0.51,1.725-0.88l-0.73-0.738C12.224,5.217,11.798,5.418,11.356,5.581z
				 M9.249,5.974c-0.389,0-0.765-0.049-1.133-0.118L7.854,6.845c0.453,0.091,0.915,0.153,1.396,0.153s0.943-0.063,1.396-0.154
				l-0.262-0.989C10.015,5.925,9.638,5.974,9.249,5.974z"/>
		</g>
	</g>
</g>
<g id="Layer_1">
</g>
</svg>
