<?xml version="1.0" encoding="iso-8859-1"?>
<!-- Generator: Adobe Illustrator 16.0.0, SVG Export Plug-In . SVG Version: 6.00 Build 0)  -->
<!DOCTYPE svg PUBLIC "-//W3C//DTD SVG 1.1//EN" "http://www.w3.org/Graphics/SVG/1.1/DTD/svg11.dtd">
<svg version="1.1" xmlns="http://www.w3.org/2000/svg" xmlns:xlink="http://www.w3.org/1999/xlink" x="0px" y="0px" width="18px"
	 height="16px" viewBox="0 0 18 16" style="enable-background:new 0 0 18 16;" xml:space="preserve">
<g id="sport-basketball-a" style="enable-background:new    ;">
	<g id="sport-basketball-a_1_">
		<g>
			<path d="M16.999,7.998c0-0.318-0.023-0.63-0.061-0.938c-0.01-0.001-0.018-0.001-0.027-0.002
				c-0.197-1.651-0.908-3.133-1.945-4.319l0.027-0.028l-0.332-0.333c-0.02-0.02-0.039-0.038-0.057-0.057l-0.316-0.315l-0.025,0.024
				c-1.182-1.052-2.664-1.775-4.324-1.97c-0.002,0-0.002,0-0.004-0.001C9.634,0.023,9.329,0.002,9.019,0.001
				c-0.006,0-0.014-0.002-0.021-0.002c-0.026,0-0.052,0.004-0.079,0.005C6.922,0.023,5.104,0.78,3.714,2.009L3.709,2.005
				L3.616,2.097C3.434,2.264,3.259,2.438,3.092,2.622L3.004,2.71l0.004,0.005C1.779,4.105,1.022,5.923,1.003,7.921
				C1.002,7.946,0.999,7.973,0.999,7.999v0.002c0,0.318,0.023,0.629,0.06,0.938c0.194,1.66,0.917,3.143,1.97,4.326l-0.024,0.023
				l0.314,0.316c0.02,0.018,0.038,0.037,0.058,0.057l0.333,0.332l0.028-0.027c1.187,1.037,2.668,1.75,4.319,1.945
				c0.001,0.01,0.001,0.02,0.002,0.027c0.309,0.037,0.621,0.061,0.939,0.061c2.03,0,3.878-0.762,5.288-2.008l0.002,0.002
				l0.047-0.047c0.217-0.193,0.42-0.396,0.613-0.613l0.045-0.045l-0.002-0.002C16.237,11.876,16.999,10.028,16.999,7.998
				C16.999,7.999,16.999,7.999,16.999,7.998z M15.907,7.004c-1.994,0.022-3.805,0.779-5.193,2.005l-1.01-1.01l4.553-4.552
				C15.112,4.433,15.712,5.646,15.907,7.004z M9.993,1.1c1.357,0.195,2.57,0.791,3.557,1.644L8.998,7.294l-1.01-1.01
				C9.212,4.898,9.97,3.09,9.993,1.1z M8.998,1c0,1.752-0.667,3.335-1.73,4.563L4.436,2.73C5.663,1.666,7.246,1,8.998,1z
				 M3.729,3.437l2.832,2.832c-1.228,1.063-2.811,1.73-4.563,1.73C1.999,6.247,2.665,4.664,3.729,3.437z M2.099,8.993
				c1.99-0.023,3.799-0.779,5.185-2.004l1.01,1.01L3.742,12.55C2.891,11.563,2.294,10.351,2.099,8.993z M8.003,14.907
				c-1.356-0.195-2.571-0.795-3.557-1.65l4.552-4.553l1.011,1.01C8.782,11.103,8.025,12.913,8.003,14.907z M8.998,14.999
				c0-1.754,0.667-3.336,1.731-4.563l2.832,2.832C12.335,14.333,10.751,14.999,8.998,14.999z M14.267,12.562l-2.832-2.83
				c1.229-1.066,2.811-1.732,4.564-1.732C15.999,9.751,15.331,11.335,14.267,12.562z"/>
		</g>
	</g>
</g>
<g id="Layer_1">
</g>
</svg>
