<?xml version="1.0" encoding="iso-8859-1"?>
<!-- Generator: Adobe Illustrator 16.0.0, SVG Export Plug-In . SVG Version: 6.00 Build 0)  -->
<!DOCTYPE svg PUBLIC "-//W3C//DTD SVG 1.1//EN" "http://www.w3.org/Graphics/SVG/1.1/DTD/svg11.dtd">
<svg version="1.1" xmlns="http://www.w3.org/2000/svg" xmlns:xlink="http://www.w3.org/1999/xlink" x="0px" y="0px" width="18px"
	 height="16px" viewBox="0 0 18 16" style="enable-background:new 0 0 18 16;" xml:space="preserve">
<g id="sport-time" style="enable-background:new    ;">
	<g id="sport-time_2_">
		<g>
			<path d="M8.998-0.001c-4.418,0-7.999,3.582-7.999,8s3.581,8,7.999,8c4.419,0,8.001-3.582,8.001-8S13.417-0.001,8.998-0.001z
				 M8.998,14.999c-3.865,0-6.999-3.134-6.999-7c0-3.865,3.134-7,6.999-7c3.866,0,7.001,3.135,7.001,7
				C15.999,11.865,12.864,14.999,8.998,14.999z M7.267,7.081C6.714,8.011,7.042,9.2,7.999,9.736c0.956,0.537,2.18,0.219,2.732-0.712
				c0.551-0.929,1.268-6.021,1.268-6.021S7.818,6.152,7.267,7.081z M8.132,7.567c0.519-0.871,3.117-3.301,2.867-2.881
				c0,0-0.617,2.981-1.135,3.853C9.614,8.96,9.335,9.364,8.498,8.895C7.633,8.409,7.883,7.988,8.132,7.567z"/>
		</g>
	</g>
</g>
<g id="Layer_1">
</g>
</svg>
