<?xml version="1.0" encoding="iso-8859-1"?>
<!-- Generator: Adobe Illustrator 16.0.0, SVG Export Plug-In . SVG Version: 6.00 Build 0)  -->
<!DOCTYPE svg PUBLIC "-//W3C//DTD SVG 1.1//EN" "http://www.w3.org/Graphics/SVG/1.1/DTD/svg11.dtd">
<svg version="1.1" xmlns="http://www.w3.org/2000/svg" xmlns:xlink="http://www.w3.org/1999/xlink" x="0px" y="0px" width="18px"
	 height="16px" viewBox="0 0 18 16" style="enable-background:new 0 0 18 16;" xml:space="preserve">
<g id="sport-basketball" style="enable-background:new    ;">
	<g id="sport-basketball_2_">
		<g>
			<path d="M8.998-0.001c-2.535,0-4.792,1.184-6.258,3.024c0,0.001-0.001,0.001-0.001,0.002c-0.246,0.31-0.468,0.638-0.667,0.981
				v0.001c-0.679,1.175-1.073,2.535-1.073,3.99c0,4.419,3.581,8.001,7.999,8.001c4.419,0,8.001-3.582,8.001-8.001
				C16.999,3.58,13.417-0.001,8.998-0.001z M10.954,1.311c2.285,0.668,4.074,2.456,4.746,4.732
				c-0.232-0.021-0.465-0.045-0.701-0.045c-1.377,0-2.672,0.349-3.803,0.961c-0.371-0.396-0.76-0.775-1.18-1.121
				c0.625-1.14,0.982-2.448,0.982-3.84C10.999,1.766,10.976,1.538,10.954,1.311z M8.998,0.999c0.319,0,0.622,0.052,0.929,0.093
				C9.968,1.39,9.999,1.69,9.999,1.998c0,1.153-0.307,2.226-0.801,3.185C7.673,4.129,5.896,3.41,3.975,3.139
				C5.247,1.823,7.023,0.999,8.998,0.999z M1.999,7.998c0-1.467,0.455-2.826,1.227-3.952c2.026,0.176,3.894,0.894,5.467,2
				c-1.269,1.781-3.34,2.952-5.694,2.952c-0.309,0-0.608-0.031-0.906-0.071C2.051,8.62,1.999,8.316,1.999,7.998z M2.311,9.955
				c0.228,0.021,0.455,0.044,0.688,0.044c2.676,0,5.039-1.319,6.491-3.337c0.307,0.259,0.592,0.539,0.869,0.828
				c-2.031,1.451-3.359,3.822-3.359,6.508c0,0.237,0.022,0.47,0.044,0.701C4.768,14.028,2.979,12.238,2.311,9.955z M8.998,14.998
				c-0.316,0-0.622-0.036-0.927-0.077c-0.041-0.303-0.072-0.608-0.072-0.923c0-2.386,1.199-4.487,3.021-5.75
				c1.18,1.477,2.004,3.252,2.316,5.204C12.142,14.405,10.647,14.998,8.998,14.998z M14.208,12.635
				c-0.396-1.818-1.211-3.467-2.322-4.876c0.941-0.471,1.988-0.761,3.113-0.761c0.314,0,0.619,0.032,0.922,0.073
				c0.041,0.305,0.078,0.61,0.078,0.927C15.999,9.785,15.31,11.397,14.208,12.635z"/>
		</g>
	</g>
</g>
<g id="Layer_1">
</g>
</svg>
