<?xml version="1.0" encoding="iso-8859-1"?>
<!-- Generator: Adobe Illustrator 16.0.0, SVG Export Plug-In . SVG Version: 6.00 Build 0)  -->
<!DOCTYPE svg PUBLIC "-//W3C//DTD SVG 1.1//EN" "http://www.w3.org/Graphics/SVG/1.1/DTD/svg11.dtd">
<svg version="1.1" xmlns="http://www.w3.org/2000/svg" xmlns:xlink="http://www.w3.org/1999/xlink" x="0px" y="0px" width="18px"
	 height="16px" viewBox="0 0 18 16" style="enable-background:new 0 0 18 16;" xml:space="preserve">
<g id="sport-mic" style="enable-background:new    ;">
	<g id="sport-mic_2_">
		<g>
			<path d="M11.382,12.999c1.168,0,2.117-0.895,2.117-2V1.998c0-1.104-0.949-1.999-2.117-1.999H6.616
				c-1.17,0-2.117,0.896-2.117,1.999v9.001c0,1.105,0.947,2,2.117,2h1.588v2H5.028c-0.293,0-0.529,0.225-0.529,0.5
				s0.236,0.5,0.529,0.5h7.412c0.293,0,0.529-0.225,0.529-0.5s-0.236-0.5-0.529-0.5H9.263v-2H11.382z M6.616,11.999
				c-0.585,0-1.059-0.447-1.059-1v-1h1.588c0.293,0,0.529-0.225,0.529-0.5s-0.236-0.5-0.529-0.5H5.558V6.998h1.588
				c0.293,0,0.529-0.224,0.529-0.5c0-0.275-0.236-0.499-0.529-0.499H5.558v-2h1.588c0.293,0,0.529-0.225,0.529-0.5
				c0-0.276-0.236-0.501-0.529-0.501H5.558v-1c0-0.552,0.474-0.999,1.059-0.999h4.766c0.584,0,1.059,0.447,1.059,0.999v1h-1.588
				c-0.293,0-0.529,0.225-0.529,0.501c0,0.275,0.236,0.5,0.529,0.5h1.588v2h-1.588c-0.293,0-0.529,0.224-0.529,0.499
				c0,0.276,0.236,0.5,0.529,0.5h1.588v2.001h-1.588c-0.293,0-0.529,0.225-0.529,0.5s0.236,0.5,0.529,0.5h1.588v1
				c0,0.553-0.475,1-1.059,1H6.616z"/>
		</g>
	</g>
</g>
<g id="Layer_1">
</g>
</svg>
