<?xml version="1.0" encoding="iso-8859-1"?>
<!-- Generator: Adobe Illustrator 16.0.0, SVG Export Plug-In . SVG Version: 6.00 Build 0)  -->
<!DOCTYPE svg PUBLIC "-//W3C//DTD SVG 1.1//EN" "http://www.w3.org/Graphics/SVG/1.1/DTD/svg11.dtd">
<svg version="1.1" xmlns="http://www.w3.org/2000/svg" xmlns:xlink="http://www.w3.org/1999/xlink" x="0px" y="0px" width="17px"
	 height="16px" viewBox="0 0 17 16" style="enable-background:new 0 0 17 16;" xml:space="preserve">
<g id="time-clock-c" style="enable-background:new    ;">
	<g id="time-clock-c_1_">
		<g>
			<path d="M7.999,5c-0.276,0-0.5,0.223-0.5,0.5v2.499h-2.5c-0.276,0-0.5,0.225-0.5,0.5c0,0.276,0.224,0.5,0.5,0.5h3
				c0.276,0,0.5-0.224,0.5-0.5V5.5C8.499,5.223,8.274,5,7.999,5z M13.499-0.001h-12c-1.105,0-2,0.896-2,2v12c0,1.105,0.895,2,2,2h12
				c1.104,0,2-0.895,2-2v-12C15.499,0.895,14.603-0.001,13.499-0.001z M14.499,7.999h-1.5c-0.275,0-0.5,0.225-0.5,0.5
				c0,0.276,0.225,0.5,0.5,0.5h1.5v5c0,0.077-0.027,0.146-0.045,0.218l-1.072-1.072c-0.203-0.204-0.535-0.204-0.738,0
				s-0.203,0.534,0,0.738l1.072,1.072c-0.072,0.017-0.141,0.044-0.217,0.044h-5v-1.5c0-0.275-0.225-0.499-0.5-0.499
				c-0.276,0-0.5,0.224-0.5,0.499v1.5h-6c-0.077,0-0.145-0.027-0.217-0.044l1.072-1.072c0.204-0.204,0.204-0.534,0-0.738
				s-0.535-0.204-0.739,0l-1.073,1.072c-0.016-0.072-0.043-0.141-0.043-0.218v-5h1.5c0.276,0,0.5-0.224,0.5-0.5
				c0-0.275-0.224-0.5-0.5-0.5h-1.5v-6c0-0.077,0.027-0.145,0.044-0.217l1.056,1.057c0.204,0.203,0.535,0.203,0.739,0
				c0.204-0.204,0.204-0.535,0-0.739L1.282,1.043c0.072-0.017,0.14-0.044,0.217-0.044h6v1.5C7.499,2.775,7.722,3,7.999,3
				c0.276,0,0.5-0.225,0.5-0.501v-1.5h5c0.076,0,0.145,0.027,0.217,0.044L12.659,2.1c-0.203,0.204-0.203,0.535,0,0.739
				c0.205,0.203,0.535,0.203,0.74,0l1.055-1.057c0.018,0.072,0.045,0.14,0.045,0.217V7.999z"/>
		</g>
	</g>
</g>
<g id="Layer_1">
</g>
</svg>
