<?xml version="1.0" encoding="iso-8859-1"?>
<!-- Generator: Adobe Illustrator 16.0.0, SVG Export Plug-In . SVG Version: 6.00 Build 0)  -->
<!DOCTYPE svg PUBLIC "-//W3C//DTD SVG 1.1//EN" "http://www.w3.org/Graphics/SVG/1.1/DTD/svg11.dtd">
<svg version="1.1" xmlns="http://www.w3.org/2000/svg" xmlns:xlink="http://www.w3.org/1999/xlink" x="0px" y="0px" width="17px"
	 height="16px" viewBox="0 0 17 16" style="enable-background:new 0 0 17 16;" xml:space="preserve">
<g id="time-stopwatch" style="enable-background:new    ;">
	<g id="time-stopwatch_2_">
		<g>
			<path d="M7.999,2.549V1.5h1.5c0.275,0,0.5-0.224,0.5-0.5s-0.225-0.5-0.5-0.5H7.501C7.5,0.5,7.5,0.499,7.499,0.499
				c0,0-0.001,0.001-0.002,0.001H5.499c-0.276,0-0.5,0.224-0.5,0.5s0.224,0.5,0.5,0.5h1.5v1.05c-3.352,0.26-6,3.031-6,6.45
				c0,3.59,2.91,6.5,6.5,6.5c3.59,0,6.5-2.91,6.5-6.5C13.999,5.581,11.351,2.809,7.999,2.549z M7.499,14.499
				c-3.037,0-5.5-2.463-5.5-5.5c0-3.037,2.462-5.5,5.5-5.5c3.038,0,5.5,2.463,5.5,5.5C12.999,12.036,10.536,14.499,7.499,14.499z
				 M7.499,8.499c-0.276,0-0.5,0.225-0.5,0.5v4c0,0.277,0.223,0.5,0.5,0.5s0.5-0.223,0.5-0.5v-4
				C7.999,8.724,7.775,8.499,7.499,8.499z M7.499,4.5v1c1.934,0,3.5,1.567,3.5,3.5c0,0.98-0.406,1.865-1.055,2.5h0.055v1.24
				c1.205-0.807,2-2.18,2-3.74C11.999,6.514,9.983,4.5,7.499,4.5z"/>
		</g>
	</g>
</g>
<g id="Layer_1">
</g>
</svg>
