<?xml version="1.0" encoding="iso-8859-1"?>
<!-- Generator: Adobe Illustrator 16.0.0, SVG Export Plug-In . SVG Version: 6.00 Build 0)  -->
<!DOCTYPE svg PUBLIC "-//W3C//DTD SVG 1.1//EN" "http://www.w3.org/Graphics/SVG/1.1/DTD/svg11.dtd">
<svg version="1.1" xmlns="http://www.w3.org/2000/svg" xmlns:xlink="http://www.w3.org/1999/xlink" x="0px" y="0px" width="17px"
	 height="16px" viewBox="0 0 17 16" style="enable-background:new 0 0 17 16;" xml:space="preserve">
<g id="time-clock-a" style="enable-background:new    ;">
	<g id="time-clock-a_1_">
		<g>
			<path d="M3.999,11.5h1v-1h-1V11.5z M3.999,4.5h1v-1h-1V4.5z M1.999,8.499h1V7.5h-1V8.499z M10.999,3.5h-1v1h1V3.5z M7.999,2.5h-1
				v4.999v1h1h4v-1h-4V2.5z M6.999,13.5h1v-1.001h-1V13.5z M7.499,0.499c-4.142,0-7.5,3.358-7.5,7.5c0,4.143,3.358,7.5,7.5,7.5
				c4.143,0,7.5-3.357,7.5-7.5C14.999,3.857,11.642,0.499,7.499,0.499z M7.499,14.499c-3.589,0-6.5-2.909-6.5-6.5
				c0-3.59,2.91-6.5,6.5-6.5c3.59,0,6.5,2.91,6.5,6.5C13.999,11.59,11.089,14.499,7.499,14.499z M9.999,11.5h1v-1h-1V11.5z"/>
		</g>
	</g>
</g>
<g id="Layer_1">
</g>
</svg>
