<?xml version="1.0" encoding="iso-8859-1"?>
<!-- Generator: Adobe Illustrator 16.0.0, SVG Export Plug-In . SVG Version: 6.00 Build 0)  -->
<!DOCTYPE svg PUBLIC "-//W3C//DTD SVG 1.1//EN" "http://www.w3.org/Graphics/SVG/1.1/DTD/svg11.dtd">
<svg version="1.1" xmlns="http://www.w3.org/2000/svg" xmlns:xlink="http://www.w3.org/1999/xlink" x="0px" y="0px" width="17px"
	 height="16px" viewBox="0 0 17 16" style="enable-background:new 0 0 17 16;" xml:space="preserve">
<g id="time-speed-meter" style="enable-background:new    ;">
	<g id="time-speed-meter_1_">
		<g>
			<path d="M8.256,7.104L7.632,7.729c-0.173,0.173-0.173,0.452,0,0.625c0.172,0.172,0.452,0.172,0.624,0L8.88,7.729
				c0.173-0.172,0.173-0.452,0-0.624C8.708,6.932,8.429,6.932,8.256,7.104z M3.001,5.981c0.277,0,0.501-0.225,0.501-0.5V4.479
				c0-0.276-0.224-0.501-0.501-0.501S2.5,4.202,2.5,4.479v1.003C2.5,5.757,2.724,5.981,3.001,5.981z M5.187,9.619l-3.379,3.378
				H0.997c-0.277,0-0.501,0.226-0.501,0.502v1.002c0,0.276,0.224,0.501,0.501,0.501h1.002c0.277,0,0.501-0.225,0.501-0.501v-0.842
				l3.364-3.364c0.187-0.187,0.187-0.489,0-0.676C5.677,9.432,5.374,9.432,5.187,9.619z M11.019,11.995h-1.002
				c-0.276,0-0.501,0.224-0.501,0.501c0,0.276,0.225,0.501,0.501,0.501h1.002c0.277,0,0.501-0.225,0.501-0.501
				C11.52,12.219,11.296,11.995,11.019,11.995z M2.5,0.996v1.002c5.964,0.258,10.742,5.036,11,10.999h1.002
				C14.243,6.48,9.018,1.255,2.5,0.996z"/>
		</g>
	</g>
</g>
<g id="Layer_1">
</g>
</svg>
