<?xml version="1.0" encoding="iso-8859-1"?>
<!-- Generator: Adobe Illustrator 16.0.0, SVG Export Plug-In . SVG Version: 6.00 Build 0)  -->
<!DOCTYPE svg PUBLIC "-//W3C//DTD SVG 1.1//EN" "http://www.w3.org/Graphics/SVG/1.1/DTD/svg11.dtd">
<svg version="1.1" xmlns="http://www.w3.org/2000/svg" xmlns:xlink="http://www.w3.org/1999/xlink" x="0px" y="0px" width="17px"
	 height="16px" viewBox="0 0 17 16" style="enable-background:new 0 0 17 16;" xml:space="preserve">
<g id="time-alt-wall-clock" style="enable-background:new    ;">
	<g id="time-alt-wall-clock_1_">
		<g>
			<path d="M7.999,1.999c-0.275,0-0.5,0.224-0.5,0.501v5.499h-3.5c-0.276,0-0.5,0.224-0.5,0.5s0.224,0.5,0.5,0.5h4
				c0.276,0,0.5-0.224,0.5-0.5V2.5C8.499,2.223,8.274,1.999,7.999,1.999z M14.499-0.001h-14c-0.552,0-1,0.447-1,1v14
				c0,0.553,0.448,1,1,1h14c0.553,0,1-0.447,1-1v-14C15.499,0.446,15.052-0.001,14.499-0.001z M14.499,14.499
				c0,0.276-0.225,0.5-0.5,0.5h-13c-0.276,0-0.5-0.224-0.5-0.5v-13c0-0.276,0.224-0.5,0.5-0.5h13c0.275,0,0.5,0.224,0.5,0.5V14.499z
				"/>
		</g>
	</g>
</g>
<g id="Layer_1">
</g>
</svg>
