<?xml version="1.0" encoding="iso-8859-1"?>
<!-- Generator: Adobe Illustrator 16.0.0, SVG Export Plug-In . SVG Version: 6.00 Build 0)  -->
<!DOCTYPE svg PUBLIC "-//W3C//DTD SVG 1.1//EN" "http://www.w3.org/Graphics/SVG/1.1/DTD/svg11.dtd">
<svg version="1.1" xmlns="http://www.w3.org/2000/svg" xmlns:xlink="http://www.w3.org/1999/xlink" x="0px" y="0px" width="17px"
	 height="16px" viewBox="0 0 17 16" style="enable-background:new 0 0 17 16;" xml:space="preserve">
<g id="time-alarm" style="enable-background:new    ;">
	<g id="time-alarm_1_">
		<g>
			<path style="fill-rule:evenodd;clip-rule:evenodd;" d="M10.998,8.01h-3.5V4.508c0-0.275-0.224-0.5-0.5-0.5
				c-0.276,0-0.5,0.225-0.5,0.5v3.986c0,0.004-0.002,0.007-0.002,0.011c0,0.106,0.042,0.2,0.1,0.28
				c0.09,0.13,0.233,0.219,0.403,0.219C7.006,9.004,7.012,9,7.02,9h3.979c0.277,0,0.503-0.222,0.503-0.495S11.275,8.01,10.998,8.01z
				 M0.499,2.509c0-0.827,0.671-1.498,1.5-1.498c0.232,0,0.446,0.063,0.643,0.157l0.724-0.746c-0.393-0.258-0.861-0.41-1.367-0.41
				c-1.381,0-2.5,1.118-2.5,2.497c0,0.533,0.169,1.024,0.454,1.43l0.729-0.751C0.574,2.983,0.499,2.758,0.499,2.509z M7.499,1.011
				c-3.866,0-7,3.131-7,6.994c0,2.759,1.612,5.121,3.935,6.26L3.622,15.29c-0.18,0.227-0.073,0.518,0.238,0.648
				c0.311,0.131,0.708,0.053,0.888-0.174l0.84-1.063c0.611,0.174,1.243,0.296,1.91,0.296c0.667,0,1.298-0.122,1.909-0.296
				l0.841,1.063c0.18,0.227,0.577,0.305,0.889,0.174c0.311-0.131,0.417-0.422,0.238-0.648l-0.812-1.025
				c2.322-1.139,3.935-3.501,3.935-6.26C14.498,4.142,11.364,1.011,7.499,1.011z M7.499,14c-3.314,0-6-2.684-6-5.995
				c0-3.31,2.686-5.995,6-5.995s6,2.685,6,5.995C13.498,11.316,10.813,14,7.499,14z M12.914-1.003c-0.523,0-1.008,0.155-1.414,0.418
				l0.748,0.761c0.203-0.096,0.424-0.16,0.666-0.16c0.855,0,1.551,0.685,1.551,1.528c0,0.254-0.078,0.482-0.188,0.692l0.752,0.766
				C15.324,2.588,15.5,2.086,15.5,1.543C15.5,0.136,14.342-1.003,12.914-1.003z"/>
		</g>
	</g>
</g>
<g id="Layer_1">
</g>
</svg>
