<?xml version="1.0" encoding="iso-8859-1"?>
<!-- Generator: Adobe Illustrator 16.0.0, SVG Export Plug-In . SVG Version: 6.00 Build 0)  -->
<!DOCTYPE svg PUBLIC "-//W3C//DTD SVG 1.1//EN" "http://www.w3.org/Graphics/SVG/1.1/DTD/svg11.dtd">
<svg version="1.1" xmlns="http://www.w3.org/2000/svg" xmlns:xlink="http://www.w3.org/1999/xlink" x="0px" y="0px" width="17px"
	 height="16px" viewBox="0 0 17 16" style="enable-background:new 0 0 17 16;" xml:space="preserve">
<g id="time-watches" style="enable-background:new    ;">
	<g id="time-watches_2_">
		<g>
			<path d="M4.669,10.122l0.707,0.707l0.707-0.706L5.376,9.416L4.669,10.122z M4.998,7.501h-1V8.5h1V7.501z M10.327,5.88
				L9.618,5.173L8.913,5.88L9.62,6.588L10.327,5.88z M6.999,11.499h1v-1h-1V11.499z M9.997,7.501V8.5h1V7.501H9.997z M9.999,3.126
				V0.499h-5v2.627c-1.774,0.913-3,2.74-3,4.873c0,2.132,1.226,3.96,3,4.873v2.627h5v-2.627c1.773-0.913,3-2.741,3-4.873
				C12.999,5.866,11.772,4.039,9.999,3.126z M5.999,1.499h3v1.233c-0.48-0.137-0.977-0.233-1.5-0.233c-0.523,0-1.02,0.097-1.5,0.233
				V1.499z M8.999,14.499h-3v-1.233c0.479,0.137,0.976,0.233,1.5,0.233c0.524,0,1.02-0.097,1.5-0.233V14.499z M7.499,12.499
				c-2.485,0-4.5-2.015-4.5-4.5s2.015-4.5,4.5-4.5s4.5,2.015,4.5,4.5S9.983,12.499,7.499,12.499z M4.669,5.878l0.707,0.707
				l0.707-0.707L5.376,5.171L4.669,5.878z M8.913,10.12l0.705,0.708l0.707-0.708L9.62,9.414L8.913,10.12z M6.999,5.499h1v-1h-1
				V5.499z"/>
		</g>
	</g>
</g>
<g id="Layer_1">
</g>
</svg>
