<?xml version="1.0" encoding="iso-8859-1"?>
<!-- Generator: Adobe Illustrator 16.0.0, SVG Export Plug-In . SVG Version: 6.00 Build 0)  -->
<!DOCTYPE svg PUBLIC "-//W3C//DTD SVG 1.1//EN" "http://www.w3.org/Graphics/SVG/1.1/DTD/svg11.dtd">
<svg version="1.1" xmlns="http://www.w3.org/2000/svg" xmlns:xlink="http://www.w3.org/1999/xlink" x="0px" y="0px" width="17px"
	 height="16px" viewBox="0 0 17 16" style="enable-background:new 0 0 17 16;" xml:space="preserve">
<g id="time-timer" style="enable-background:new    ;">
	<g id="time-timer_2_">
		<g>
			<path d="M7.499-0.001c-4.418,0-8,3.582-8,8c0,0.973,0.182,1.9,0.5,2.763v0.237h0.087c1.188,2.931,4.057,5,7.413,5
				c4.418,0,8-3.581,8-8C15.499,3.581,11.917-0.001,7.499-0.001z M7.499,14.999c-2.787,0-5.174-1.642-6.3-4H13.8
				C12.673,13.357,10.286,14.999,7.499,14.999z M8.118,9.999l1.361-5.398c0.068-0.258-0.084-0.522-0.344-0.592
				C8.878,3.939,8.612,4.093,8.542,4.351L7.119,9.999H0.824c-0.191-0.638-0.325-1.3-0.325-2c0-3.865,3.134-7,7-7s7,3.135,7,7
				c0,0.7-0.135,1.362-0.326,2H8.118z"/>
		</g>
	</g>
</g>
<g id="Layer_1">
</g>
</svg>
