<?xml version="1.0" encoding="iso-8859-1"?>
<!-- Generator: Adobe Illustrator 16.0.0, SVG Export Plug-In . SVG Version: 6.00 Build 0)  -->
<!DOCTYPE svg PUBLIC "-//W3C//DTD SVG 1.1//EN" "http://www.w3.org/Graphics/SVG/1.1/DTD/svg11.dtd">
<svg version="1.1" xmlns="http://www.w3.org/2000/svg" xmlns:xlink="http://www.w3.org/1999/xlink" x="0px" y="0px" width="17px"
	 height="16px" viewBox="0 0 17 16" style="enable-background:new 0 0 17 16;" xml:space="preserve">
<g id="time-stopwatch-a" style="enable-background:new    ;">
	<g id="time-stopwatch-a_1_">
		<g>
			<path d="M8.499,9.499h-0.5v-3.5c0-0.275-0.224-0.5-0.5-0.5c-0.275,0-0.5,0.225-0.5,0.5v3.5h-0.5c-0.276,0-0.5,0.225-0.5,0.5v1
				c0,0.276,0.224,0.5,0.5,0.5h2c0.275,0,0.5-0.224,0.5-0.5v-1C8.999,9.724,8.774,9.499,8.499,9.499z M7.999,2.55V1.499h1.5
				c0.275,0,0.5-0.224,0.5-0.5s-0.225-0.5-0.5-0.5h-4c-0.276,0-0.5,0.224-0.5,0.5s0.224,0.5,0.5,0.5h1.5V2.55
				c-3.352,0.26-6,3.03-6,6.45c0,3.589,2.91,6.499,6.5,6.499c3.59,0,6.5-2.91,6.5-6.499C13.999,5.58,11.351,2.81,7.999,2.55z
				 M7.499,14.499c-3.037,0-5.5-2.462-5.5-5.499c0-3.038,2.462-5.501,5.5-5.501c3.038,0,5.5,2.463,5.5,5.501
				C12.999,12.037,10.536,14.499,7.499,14.499z"/>
		</g>
	</g>
</g>
<g id="Layer_1">
</g>
</svg>
