<?xml version="1.0" encoding="iso-8859-1"?>
<!-- Generator: Adobe Illustrator 16.0.0, SVG Export Plug-In . SVG Version: 6.00 Build 0)  -->
<!DOCTYPE svg PUBLIC "-//W3C//DTD SVG 1.1//EN" "http://www.w3.org/Graphics/SVG/1.1/DTD/svg11.dtd">
<svg version="1.1" xmlns="http://www.w3.org/2000/svg" xmlns:xlink="http://www.w3.org/1999/xlink" x="0px" y="0px" width="17px"
	 height="16px" viewBox="0 0 17 16" style="enable-background:new 0 0 17 16;" xml:space="preserve">
<g id="time-hour-glass" style="enable-background:new    ;">
	<g id="time-hour-glass_1_">
		<g>
			<path d="M12.999,14.999h-1.5v-4.5c0-0.001,0-0.002,0-0.003c-0.002-0.025-0.01-0.049-0.016-0.073
				c-0.035-0.224-0.213-0.395-0.441-0.415L8.249,7.999l2.793-2.008c0.229-0.021,0.406-0.191,0.441-0.415
				c0.006-0.024,0.014-0.048,0.016-0.073c0-0.001,0-0.002,0-0.003V0.999h1.5c0.275,0,0.5-0.224,0.5-0.5s-0.225-0.5-0.5-0.5h-11
				c-0.276,0-0.5,0.224-0.5,0.5s0.224,0.5,0.5,0.5h1.5V5.5c0,0.001,0,0.002,0,0.003c0.002,0.025,0.009,0.049,0.015,0.074
				C3.55,5.8,3.728,5.971,3.957,5.991l2.791,2.008l-2.791,2.009c-0.229,0.021-0.406,0.19-0.442,0.415
				c-0.006,0.024-0.013,0.048-0.015,0.073c0,0.001,0,0.002,0,0.003v4.5h-1.5c-0.276,0-0.5,0.224-0.5,0.5s0.224,0.5,0.5,0.5h11
				c0.275,0,0.5-0.224,0.5-0.5S13.274,14.999,12.999,14.999z M4.499,5.3V0.999h6V5.3l-3,2.159L4.499,5.3z M10.499,14.999h-6v-4.301
				l3-2.158l3,2.158V14.999z"/>
		</g>
	</g>
</g>
<g id="Layer_1">
</g>
</svg>
