<?xml version="1.0" encoding="iso-8859-1"?>
<!-- Generator: Adobe Illustrator 16.0.0, SVG Export Plug-In . SVG Version: 6.00 Build 0)  -->
<!DOCTYPE svg PUBLIC "-//W3C//DTD SVG 1.1//EN" "http://www.w3.org/Graphics/SVG/1.1/DTD/svg11.dtd">
<svg version="1.1" xmlns="http://www.w3.org/2000/svg" xmlns:xlink="http://www.w3.org/1999/xlink" x="0px" y="0px" width="17px"
	 height="16px" viewBox="0 0 17 16" style="enable-background:new 0 0 17 16;" xml:space="preserve">
<g id="time-calendar" style="enable-background:new    ;">
	<g id="time-calendar_1_">
		<g>
			<path d="M14.498,0.999h-3.5v-1h-1v1h-5v-1h-1v1h-3c-0.552,0-1,0.448-1,1V4v1v9.999c0,0.553,0.448,1,1,1h13c0.553,0,1-0.447,1-1V5
				V4V1.999C14.998,1.447,15.051,0.999,14.498,0.999z M13.998,14.499c0,0.276-0.224,0.5-0.5,0.5h-12c-0.276,0-0.5-0.224-0.5-0.5V5
				h13V14.499z M13.998,4h-13V2.5c0-0.277,0.224-0.501,0.5-0.501h2.5V3h1V1.999h5V3h1V1.999h2.5c0.276,0,0.5,0.224,0.5,0.501V4z
				 M12.998,7h-3v2.999h3V7z M11.998,8.999h-1v-1h1V8.999z M12.998,10.999h-3v3h3V10.999z M11.998,13h-1v-1.001h1V13z M8.998,7h-3
				v2.999h3V7z M7.998,8.999h-1v-1h1V8.999z M4.999,10.999h-3v3h3V10.999z M3.999,13h-1v-1.001h1V13z M8.998,10.999h-3v3h3V10.999z
				 M7.998,13h-1v-1.001h1V13z M4.999,7h-3v2.999h3V7z M3.999,8.999h-1v-1h1V8.999z"/>
		</g>
	</g>
</g>
<g id="Layer_1">
</g>
</svg>
