<?xml version="1.0" encoding="iso-8859-1"?>
<!-- Generator: Adobe Illustrator 16.0.0, SVG Export Plug-In . SVG Version: 6.00 Build 0)  -->
<!DOCTYPE svg PUBLIC "-//W3C//DTD SVG 1.1//EN" "http://www.w3.org/Graphics/SVG/1.1/DTD/svg11.dtd">
<svg version="1.1" xmlns="http://www.w3.org/2000/svg" xmlns:xlink="http://www.w3.org/1999/xlink" x="0px" y="0px" width="17px"
	 height="16px" viewBox="0 0 17 16" style="enable-background:new 0 0 17 16;" xml:space="preserve">
<g id="time-stopwatch-b" style="enable-background:new    ;">
	<g id="time-stopwatch-b_2_">
		<g>
			<path d="M5.499,0.999h1.5v1c0,0.276,0.224,0.501,0.5,0.501c0.276,0,0.5-0.225,0.5-0.501v-1h1.5c0.275,0,0.5-0.224,0.5-0.5
				s-0.225-0.5-0.5-0.5h-4c-0.276,0-0.5,0.224-0.5,0.5S5.223,0.999,5.499,0.999z M7.499,11.999c-0.275,0-0.5,0.224-0.5,0.5v1
				c0,0.276,0.224,0.5,0.5,0.5c0.276,0,0.5-0.224,0.5-0.5v-1C7.999,12.223,7.775,11.999,7.499,11.999z M4.498,9h-1
				c-0.276,0-0.5,0.225-0.5,0.501c0,0.275,0.224,0.499,0.5,0.499h1c0.276,0,0.5-0.224,0.5-0.499C4.998,9.225,4.774,9,4.498,9z
				 M7.499,4.999c-0.275,0-0.5,0.225-0.5,0.5v1c0,0.276,0.224,0.5,0.5,0.5c0.276,0,0.5-0.224,0.5-0.5v-1
				C7.999,5.224,7.775,4.999,7.499,4.999z M7.499,2.999c-3.59,0-6.5,2.91-6.5,6.5c0,3.589,2.91,6.5,6.5,6.5
				c3.59,0,6.5-2.911,6.5-6.5C13.999,5.909,11.089,2.999,7.499,2.999z M7.499,14.999c-3.037,0-5.5-2.462-5.5-5.5
				c0-3.037,2.462-5.5,5.5-5.5c3.038,0,5.5,2.463,5.5,5.5C12.999,12.537,10.536,14.999,7.499,14.999z M11.497,9h-1
				c-0.275,0-0.5,0.225-0.5,0.501c0,0.275,0.225,0.499,0.5,0.499h1c0.277,0,0.5-0.224,0.5-0.499C11.997,9.225,11.774,9,11.497,9z"/>
		</g>
	</g>
</g>
<g id="Layer_1">
</g>
</svg>
