<?xml version="1.0" encoding="iso-8859-1"?>
<!-- Generator: Adobe Illustrator 16.0.0, SVG Export Plug-In . SVG Version: 6.00 Build 0)  -->
<!DOCTYPE svg PUBLIC "-//W3C//DTD SVG 1.1//EN" "http://www.w3.org/Graphics/SVG/1.1/DTD/svg11.dtd">
<svg version="1.1" xmlns="http://www.w3.org/2000/svg" xmlns:xlink="http://www.w3.org/1999/xlink" x="0px" y="0px" width="17px"
	 height="16px" viewBox="0 0 17 16" style="enable-background:new 0 0 17 16;" xml:space="preserve">
<g id="time-watches-a" style="enable-background:new    ;">
	<g id="time-watches-a_1_">
		<g>
			<path d="M9.999,7.999h-2.5v-3.5c0-0.275-0.224-0.5-0.5-0.5s-0.5,0.225-0.5,0.5v4c0,0.275,0.223,0.5,0.5,0.5h3
				c0.275,0,0.5-0.225,0.5-0.5S10.274,7.999,9.999,7.999z M10.499,2.831v-2.832h-6v2.832c-1.786,1.039-3,2.953-3,5.168
				c0,2.215,1.214,4.127,3,5.168v2.832h6v-2.832c1.785-1.041,3-2.953,3-5.168C13.499,5.784,12.284,3.87,10.499,2.831z M5.499,0.999
				h4v1.367c-0.629-0.224-1.295-0.367-2-0.367c-0.705,0-1.371,0.144-2,0.367V0.999z M9.499,14.999h-4v-1.367
				c0.628,0.223,1.294,0.367,2,0.367c0.706,0,1.372-0.145,2-0.367V14.999z M7.499,12.999c-2.761,0-5-2.238-5-5c0-2.762,2.238-5,5-5
				c2.762,0,5,2.238,5,5C12.499,10.761,10.261,12.999,7.499,12.999z"/>
		</g>
	</g>
</g>
<g id="Layer_1">
</g>
</svg>
