<?xml version="1.0" encoding="iso-8859-1"?>
<!-- Generator: Adobe Illustrator 16.0.0, SVG Export Plug-In . SVG Version: 6.00 Build 0)  -->
<!DOCTYPE svg PUBLIC "-//W3C//DTD SVG 1.1//EN" "http://www.w3.org/Graphics/SVG/1.1/DTD/svg11.dtd">
<svg version="1.1" xmlns="http://www.w3.org/2000/svg" xmlns:xlink="http://www.w3.org/1999/xlink" x="0px" y="0px" width="17px"
	 height="16px" viewBox="0 0 17 16" style="enable-background:new 0 0 17 16;" xml:space="preserve">
<g id="time-clock" style="enable-background:new    ;">
	<g id="time-clock_2_">
		<g>
			<path d="M2.903,11.889l0.707,0.707l0.707-0.707L3.61,11.182L2.903,11.889z M7.499,7.999h-5v1h5h1v-7h-1V7.999z M7.499,13.999h1
				V13h-1V13.999z M4.317,4.11L3.61,3.403L2.903,4.11L3.61,4.817L4.317,4.11z M12.499,7v0.999h1V7H12.499z M10.747,2.997
				L9.993,3.751l0.754,0.755l0.754-0.755L10.747,2.997z M7.499-0.001c-4.418,0-8,3.582-8,8c0,4.419,3.582,8,8,8c4.418,0,8-3.581,8-8
				C15.499,3.581,11.917-0.001,7.499-0.001z M7.499,14.999c-3.866,0-7-3.134-7-7c0-3.865,3.134-7,7-7s7,3.135,7,7
				C14.499,11.865,11.364,14.999,7.499,14.999z M10.993,11.248l0.754,0.754l0.754-0.754l-0.754-0.755L10.993,11.248z"/>
		</g>
	</g>
</g>
<g id="Layer_1">
</g>
</svg>
