<?xml version="1.0" encoding="iso-8859-1"?>
<!-- Generator: Adobe Illustrator 16.0.0, SVG Export Plug-In . SVG Version: 6.00 Build 0)  -->
<!DOCTYPE svg PUBLIC "-//W3C//DTD SVG 1.1//EN" "http://www.w3.org/Graphics/SVG/1.1/DTD/svg11.dtd">
<svg version="1.1" xmlns="http://www.w3.org/2000/svg" xmlns:xlink="http://www.w3.org/1999/xlink" x="0px" y="0px" width="17px"
	 height="16px" viewBox="0 0 17 16" style="enable-background:new 0 0 17 16;" xml:space="preserve">
<g id="time-calendar-b" style="enable-background:new    ;">
	<g id="time-calendar-b_2_">
		<g>
			<path d="M11.343,3.14c-0.027-0.026-0.051-0.056-0.086-0.075c-0.016-0.008-0.031-0.009-0.047-0.016
				c-0.02-0.009-0.039-0.013-0.059-0.019c-0.041-0.013-0.08-0.023-0.121-0.024c-0.012-0.001-0.021-0.007-0.031-0.007h-7
				c-0.276,0-0.5,0.225-0.5,0.5c0,0.276,0.224,0.5,0.5,0.5h5.838C8.999,4.885,7.628,6.426,6.696,7.95
				c-1.337,2.188-1.637,4.314-1.637,4.314C4.92,12.5,5.003,12.801,5.243,12.938c0.24,0.135,0.546,0.055,0.685-0.181
				c0,0,0.311-2.145,1.654-4.342c1.193-1.953,3.111-3.932,3.681-4.501c0.061-0.039,0.111-0.089,0.148-0.149
				c0.006-0.006,0.029-0.028,0.029-0.028c0.006-0.009,0.006-0.02,0.01-0.028c0.008-0.016,0.01-0.031,0.016-0.047
				c0.07-0.18,0.025-0.376-0.111-0.511C11.351,3.146,11.347,3.144,11.343,3.14z M14.499-0.001h-14c-0.552,0-1,0.448-1,1v14
				c0,0.553,0.448,1,1,1h14c0.553,0,1-0.447,1-1v-14C15.499,0.447,15.052-0.001,14.499-0.001z M14.499,14.499
				c0,0.276-0.225,0.5-0.5,0.5h-13c-0.276,0-0.5-0.224-0.5-0.5V1.5c0-0.277,0.224-0.501,0.5-0.501h13c0.275,0,0.5,0.224,0.5,0.501
				V14.499z"/>
		</g>
	</g>
</g>
<g id="Layer_1">
</g>
</svg>
