<?xml version="1.0" encoding="iso-8859-1"?>
<!-- Generator: Adobe Illustrator 16.0.0, SVG Export Plug-In . SVG Version: 6.00 Build 0)  -->
<!DOCTYPE svg PUBLIC "-//W3C//DTD SVG 1.1//EN" "http://www.w3.org/Graphics/SVG/1.1/DTD/svg11.dtd">
<svg version="1.1" xmlns="http://www.w3.org/2000/svg" xmlns:xlink="http://www.w3.org/1999/xlink" x="0px" y="0px" width="17px"
	 height="16px" viewBox="0 0 17 16" style="enable-background:new 0 0 17 16;" xml:space="preserve">
<g id="time-wall-clock" style="enable-background:new    ;">
	<g id="time-wall-clock_2_">
		<g>
			<path d="M11.999,7.999h-2.5c0-1.104-0.896-2-2-2v-3.5c0-0.276-0.224-0.5-0.5-0.5c-0.275,0-0.5,0.224-0.5,0.5v3.777
				c-0.596,0.347-1,0.984-1,1.723c0,1.104,0.895,2,2,2c0.739,0,1.377-0.404,1.723-1h2.777c0.275,0,0.5-0.224,0.5-0.5
				C12.499,8.224,12.274,7.999,11.999,7.999z M7.499,8.999c-0.552,0-1-0.448-1-1s0.448-1,1-1c0.553,0,1,0.448,1,1
				S8.052,8.999,7.499,8.999z M7.499-0.001c-4.418,0-8,3.581-8,8s3.582,8,8,8c4.418,0,8-3.581,8-8S11.917-0.001,7.499-0.001z
				 M7.499,14.999c-3.866,0-7-3.134-7-7s3.134-7,7-7s7,3.134,7,7S11.364,14.999,7.499,14.999z"/>
		</g>
	</g>
</g>
<g id="Layer_1">
</g>
</svg>
