<?xml version="1.0" encoding="iso-8859-1"?>
<!-- Generator: Adobe Illustrator 16.0.0, SVG Export Plug-In . SVG Version: 6.00 Build 0)  -->
<!DOCTYPE svg PUBLIC "-//W3C//DTD SVG 1.1//EN" "http://www.w3.org/Graphics/SVG/1.1/DTD/svg11.dtd">
<svg version="1.1" xmlns="http://www.w3.org/2000/svg" xmlns:xlink="http://www.w3.org/1999/xlink" x="0px" y="0px" width="17px"
	 height="16px" viewBox="0 0 17 16" style="enable-background:new 0 0 17 16;" xml:space="preserve">
<g id="time-calendar-a" style="enable-background:new    ;">
	<g id="time-calendar-a_1_">
		<g>
			<path d="M5.499,6.999h3.633l-3.073,5.267C5.92,12.5,6.003,12.801,6.243,12.937s0.546,0.056,0.685-0.18l3.513-6.021
				c0.006-0.009,0.006-0.021,0.01-0.029c0.008-0.015,0.01-0.029,0.016-0.045c0.07-0.181,0.027-0.377-0.109-0.513
				c-0.006-0.003-0.01-0.007-0.014-0.011c-0.027-0.025-0.051-0.055-0.086-0.074c-0.016-0.009-0.031-0.009-0.047-0.016
				c-0.02-0.009-0.039-0.013-0.059-0.019c-0.041-0.013-0.08-0.023-0.123-0.025c-0.01,0-0.02-0.006-0.029-0.006h-4.5
				c-0.276,0-0.5,0.225-0.5,0.5C4.999,6.775,5.223,6.999,5.499,6.999z M14.499-0.001h-14c-0.553,0-1,0.447-1,1v2v1v11
				c0,0.553,0.447,1,1,1h14c0.553,0,1-0.447,1-1v-11v-1v-2C15.499,0.446,15.052-0.001,14.499-0.001z M14.499,14.499
				c0,0.276-0.225,0.5-0.5,0.5h-13c-0.276,0-0.5-0.224-0.5-0.5v-10.5h14V14.499z M14.499,2.999h-14v-1.5c0-0.276,0.224-0.5,0.5-0.5
				h13c0.275,0,0.5,0.224,0.5,0.5V2.999z"/>
		</g>
	</g>
</g>
<g id="Layer_1">
</g>
</svg>
