<?xml version="1.0" encoding="iso-8859-1"?>
<!-- Generator: Adobe Illustrator 16.0.0, SVG Export Plug-In . SVG Version: 6.00 Build 0)  -->
<!DOCTYPE svg PUBLIC "-//W3C//DTD SVG 1.1//EN" "http://www.w3.org/Graphics/SVG/1.1/DTD/svg11.dtd">
<svg version="1.1" xmlns="http://www.w3.org/2000/svg" xmlns:xlink="http://www.w3.org/1999/xlink" x="0px" y="0px" width="17px"
	 height="16px" viewBox="0 0 17 16" style="enable-background:new 0 0 17 16;" xml:space="preserve">
<g id="tool-toothbrush" style="enable-background:new    ;">
	<g id="tool-toothbrush_2_">
		<g>
			<path d="M4.499-0.001c-0.276,0-0.5,0.224-0.5,0.5v15c0,0.276,0.224,0.5,0.5,0.5c0.276,0,0.5-0.224,0.5-0.5v-15
				C4.999,0.223,4.775-0.001,4.499-0.001z M6.499,0.999h4c0.275,0,0.5-0.225,0.5-0.5c0-0.276-0.225-0.5-0.5-0.5h-4
				c-0.276,0-0.5,0.224-0.5,0.5C5.999,0.774,6.223,0.999,6.499,0.999z M10.499,3.999h-4c-0.276,0-0.5,0.225-0.5,0.499
				c0,0.277,0.224,0.501,0.5,0.501h4c0.275,0,0.5-0.224,0.5-0.501C10.999,4.224,10.774,3.999,10.499,3.999z M10.499,5.999h-4
				c-0.276,0-0.5,0.224-0.5,0.5s0.224,0.5,0.5,0.5h4c0.275,0,0.5-0.224,0.5-0.5S10.774,5.999,10.499,5.999z M10.499,1.999h-4
				c-0.276,0-0.5,0.224-0.5,0.5s0.224,0.499,0.5,0.499h4c0.275,0,0.5-0.223,0.5-0.499S10.774,1.999,10.499,1.999z"/>
		</g>
	</g>
</g>
<g id="Layer_1">
</g>
</svg>
