<?xml version="1.0" encoding="iso-8859-1"?>
<!-- Generator: Adobe Illustrator 16.0.0, SVG Export Plug-In . SVG Version: 6.00 Build 0)  -->
<!DOCTYPE svg PUBLIC "-//W3C//DTD SVG 1.1//EN" "http://www.w3.org/Graphics/SVG/1.1/DTD/svg11.dtd">
<svg version="1.1" xmlns="http://www.w3.org/2000/svg" xmlns:xlink="http://www.w3.org/1999/xlink" x="0px" y="0px" width="17px"
	 height="16px" viewBox="0 0 17 16" style="enable-background:new 0 0 17 16;" xml:space="preserve">
<g id="tool-gameboy" style="enable-background:new    ;">
	<g id="tool-gameboy_1_">
		<g>
			<path d="M4.499,10.999h-1V12h-1v0.999h1V14h1v-1.001h1V12h-1V10.999z M6.503,13.521l0.914,0.486l2.08-2.518l-0.914-0.486
				L6.503,13.521z M9.503,13.521l0.914,0.486l2.08-2.518l-0.914-0.486L9.503,13.521z M13.499-0.001h-12c-0.552,0-1,0.448-1,1V15
				c0,0.552,0.448,0.999,1,0.999h12c0.553,0,1-0.447,1-0.999V0.999C14.499,0.447,14.052-0.001,13.499-0.001z M13.499,14.5
				c0,0.275-0.225,0.5-0.5,0.5h-11c-0.276,0-0.5-0.225-0.5-0.5V1.499c0-0.276,0.224-0.5,0.5-0.5h11c0.275,0,0.5,0.224,0.5,0.5V14.5z
				 M11.499,2h-8c-0.552,0-1,0.447-1,1v5.999c0,0.553,0.448,1.001,1,1.001h8c0.553,0,1-0.448,1-1.001V3
				C12.499,2.447,12.052,2,11.499,2z M11.499,8.5c0,0.275-0.225,0.499-0.5,0.499h-7c-0.276,0-0.5-0.224-0.5-0.499V3.499
				C3.499,3.224,3.723,3,3.999,3h7c0.275,0,0.5,0.224,0.5,0.499V8.5z"/>
		</g>
	</g>
</g>
<g id="Layer_1">
</g>
</svg>
