<?xml version="1.0" encoding="iso-8859-1"?>
<!-- Generator: Adobe Illustrator 16.0.0, SVG Export Plug-In . SVG Version: 6.00 Build 0)  -->
<!DOCTYPE svg PUBLIC "-//W3C//DTD SVG 1.1//EN" "http://www.w3.org/Graphics/SVG/1.1/DTD/svg11.dtd">
<svg version="1.1" xmlns="http://www.w3.org/2000/svg" xmlns:xlink="http://www.w3.org/1999/xlink" x="0px" y="0px" width="17px"
	 height="16px" viewBox="0 0 17 16" style="enable-background:new 0 0 17 16;" xml:space="preserve">
<g id="tool-flashlight" style="enable-background:new    ;">
	<g id="tool-flashlight_2_">
		<g>
			<path d="M8.999-0.001h-3h-2v2v1v1c0,0.738,0.404,1.376,1,1.723v9.277c0,0.553,0.448,1,1,1h3c0.553,0,1-0.447,1-1v-3h1v-4h-1
				V5.722c0.596-0.347,1-0.984,1-1.723v-1v-1v-2H8.999z M8.999,14.499c0,0.276-0.225,0.5-0.5,0.5h-2c-0.276,0-0.5-0.224-0.5-0.5
				v-8.5h3v2h-1v4h1V14.499z M9.999,10.999h-1v-2h1V10.999z M9.999,3.999c0,0.553-0.447,1-1,1h-3c-0.552,0-1-0.447-1-1v-1h5V3.999z
				 M9.999,1.999h-5v-1h5V1.999z"/>
		</g>
	</g>
</g>
<g id="Layer_1">
</g>
</svg>
