<?xml version="1.0" encoding="iso-8859-1"?>
<!-- Generator: Adobe Illustrator 16.0.0, SVG Export Plug-In . SVG Version: 6.00 Build 0)  -->
<!DOCTYPE svg PUBLIC "-//W3C//DTD SVG 1.1//EN" "http://www.w3.org/Graphics/SVG/1.1/DTD/svg11.dtd">
<svg version="1.1" xmlns="http://www.w3.org/2000/svg" xmlns:xlink="http://www.w3.org/1999/xlink" x="0px" y="0px" width="17px"
	 height="16px" viewBox="0 0 17 16" style="enable-background:new 0 0 17 16;" xml:space="preserve">
<g id="tool-camera" style="enable-background:new    ;">
	<g id="tool-camera_1_">
		<g>
			<path d="M13.499,2.999h-1.494c-0.621-1.185-1.703-3-2.506-3h-4c-0.803,0-1.885,1.815-2.506,3H1.499c-1.104,0-2,0.896-2,2v9
				c0,1.105,0.896,2,2,2h12c1.104,0,2-0.895,2-2v-9C15.499,3.894,14.604,2.999,13.499,2.999z M5.499,0.999h4
				c0.373,0,1.039,1.127,1.5,2h-7C4.46,2.125,5.126,0.999,5.499,0.999z M0.499,6.999h3.26c-0.205,0.307-0.358,0.646-0.484,1H0.499
				V6.999z M14.499,13.999c0,0.551-0.447,1-1,1h-12c-0.553,0-1-0.449-1-1v-5H3.05c-0.02,0.166-0.051,0.328-0.051,0.5
				c0,2.484,2.015,4.5,4.5,4.5s4.5-2.016,4.5-4.5c0-0.172-0.031-0.334-0.05-0.5h2.55V13.999z M3.999,9.499
				c0-1.933,1.567-3.5,3.5-3.5c1.934,0,3.5,1.567,3.5,3.5c0,1.934-1.566,3.5-3.5,3.5C5.566,12.999,3.999,11.433,3.999,9.499z
				 M14.499,7.999h-2.775c-0.126-0.354-0.279-0.693-0.484-1h3.26V7.999z M14.499,5.999h-4.203c-0.771-0.616-1.733-1-2.797-1
				c-1.063,0-2.026,0.384-2.797,1H0.499v-1c0-0.552,0.447-0.999,1-0.999h12c0.553,0,1,0.447,1,0.999V5.999z"/>
		</g>
	</g>
</g>
<g id="Layer_1">
</g>
</svg>
