<?xml version="1.0" encoding="iso-8859-1"?>
<!-- Generator: Adobe Illustrator 16.0.0, SVG Export Plug-In . SVG Version: 6.00 Build 0)  -->
<!DOCTYPE svg PUBLIC "-//W3C//DTD SVG 1.1//EN" "http://www.w3.org/Graphics/SVG/1.1/DTD/svg11.dtd">
<svg version="1.1" xmlns="http://www.w3.org/2000/svg" xmlns:xlink="http://www.w3.org/1999/xlink" x="0px" y="0px" width="17px"
	 height="16px" viewBox="0 0 17 16" style="enable-background:new 0 0 17 16;" xml:space="preserve">
<g id="tool-android" style="enable-background:new    ;">
	<g id="tool-android_2_">
		<g>
			<path d="M8.999,1.998h-3c-0.276,0-0.5,0.224-0.5,0.5s0.224,0.5,0.5,0.5h3c0.275,0,0.5-0.224,0.5-0.5S9.274,1.998,8.999,1.998z
				 M7.499,11.997c-0.552,0-1,0.449-1,1.002c0,0.551,0.448,0.998,1,0.998c0.553,0,1-0.447,1-0.998
				C8.499,12.446,8.052,11.997,7.499,11.997z M10.499-0.001h-6c-1.657,0-3,1.344-3,3v10c0,1.656,1.343,3,3,3h6c1.656,0,3-1.344,3-3
				v-10C13.499,1.342,12.155-0.001,10.499-0.001z M12.499,12.999c0,1.104-0.896,2-2,2h-6c-1.103,0-2-0.896-2-2v-10
				c0-1.103,0.897-2,2-2h6c1.104,0,2,0.897,2,2V12.999z"/>
		</g>
	</g>
</g>
<g id="Layer_1">
</g>
</svg>
