<?xml version="1.0" encoding="iso-8859-1"?>
<!-- Generator: Adobe Illustrator 16.0.0, SVG Export Plug-In . SVG Version: 6.00 Build 0)  -->
<!DOCTYPE svg PUBLIC "-//W3C//DTD SVG 1.1//EN" "http://www.w3.org/Graphics/SVG/1.1/DTD/svg11.dtd">
<svg version="1.1" xmlns="http://www.w3.org/2000/svg" xmlns:xlink="http://www.w3.org/1999/xlink" x="0px" y="0px" width="17px"
	 height="16px" viewBox="0 0 17 16" style="enable-background:new 0 0 17 16;" xml:space="preserve">
<g id="tool-camera-a" style="enable-background:new    ;">
	<g id="tool-camera-a_2_">
		<g>
			<path d="M7.499,5.499c-2.209,0-4,1.791-4,4c0,2.209,1.791,4,4,4c2.209,0,4-1.791,4-4C11.499,7.29,9.708,5.499,7.499,5.499z
				 M7.499,12.499c-1.657,0-3-1.344-3-3c0-1.658,1.343-3,3-3s3,1.343,3,3C10.499,11.155,9.155,12.499,7.499,12.499z M13.499,2.499
				h-2c0-1.104-0.896-1.999-2-1.999h-4c-1.105,0-2,0.896-2,1.999h-2c-1.105,0-2,0.896-2,2.001v9c0,1.104,0.895,2,2,2h12
				c1.104,0,2-0.896,2-2v-9C15.499,3.394,14.603,2.499,13.499,2.499z M5.499,1.5h4c0.553,0,1,0.447,1,0.999h-6
				C4.499,1.947,4.947,1.5,5.499,1.5z M14.499,13.499c0,0.553-0.447,1-1,1h-12c-0.553,0-1-0.447-1-1v-6h2V6.5h-2V5.499h2V4.5h-2
				c0-0.553,0.447-1.001,1-1.001h12c0.553,0,1,0.448,1,1.001V13.499z"/>
		</g>
	</g>
</g>
<g id="Layer_1">
</g>
</svg>
