<?xml version="1.0" encoding="iso-8859-1"?>
<!-- Generator: Adobe Illustrator 16.0.0, SVG Export Plug-In . SVG Version: 6.00 Build 0)  -->
<!DOCTYPE svg PUBLIC "-//W3C//DTD SVG 1.1//EN" "http://www.w3.org/Graphics/SVG/1.1/DTD/svg11.dtd">
<svg version="1.1" xmlns="http://www.w3.org/2000/svg" xmlns:xlink="http://www.w3.org/1999/xlink" x="0px" y="0px" width="17px"
	 height="16px" viewBox="0 0 17 16" style="enable-background:new 0 0 17 16;" xml:space="preserve">
<g id="tool-projector" style="enable-background:new    ;">
	<g id="tool-projector_2_">
		<g>
			<path d="M3.999,4.5c-1.381,0-2.5,1.118-2.5,2.499s1.119,2.5,2.5,2.5c1.38,0,2.5-1.119,2.5-2.5S5.379,4.5,3.999,4.5z M3.999,8.5
				c-0.829,0-1.5-0.672-1.5-1.501c0-0.828,0.671-1.5,1.5-1.5c0.828,0,1.5,0.672,1.5,1.5C5.499,7.828,4.827,8.5,3.999,8.5z
				 M8.499,8.5h1V5.499h-1V8.5z M14.499,2.499h-14c-0.552,0-1,0.448-1,1v6v1v3h1V11.5h14v1.999h1v-3v-1v-6
				C15.499,2.947,15.052,2.499,14.499,2.499z M14.499,9.499v0.5c0,0.276-0.225,0.5-0.5,0.5h-13c-0.276,0-0.5-0.224-0.5-0.5v-0.5V4
				c0-0.277,0.224-0.501,0.5-0.501h13c0.275,0,0.5,0.224,0.5,0.501V9.499z M10.499,8.5h1V5.499h-1V8.5z M12.499,8.5h1V5.499h-1V8.5z
				"/>
		</g>
	</g>
</g>
<g id="Layer_1">
</g>
</svg>
