<?xml version="1.0" encoding="iso-8859-1"?>
<!-- Generator: Adobe Illustrator 16.0.0, SVG Export Plug-In . SVG Version: 6.00 Build 0)  -->
<!DOCTYPE svg PUBLIC "-//W3C//DTD SVG 1.1//EN" "http://www.w3.org/Graphics/SVG/1.1/DTD/svg11.dtd">
<svg version="1.1" xmlns="http://www.w3.org/2000/svg" xmlns:xlink="http://www.w3.org/1999/xlink" x="0px" y="0px" width="17px"
	 height="16px" viewBox="0 0 17 16" style="enable-background:new 0 0 17 16;" xml:space="preserve">
<g id="tool-alt-camera-a" style="enable-background:new    ;">
	<g id="tool-alt-camera-a_1_">
		<g>
			<path d="M7.499,4.999c-2.209,0-4,1.791-4,4s1.791,4,4,4c2.209,0,4-1.791,4-4S9.708,4.999,7.499,4.999z M7.499,11.999
				c-1.657,0-3-1.343-3-3s1.343-3,3-3s3,1.343,3,3S9.155,11.999,7.499,11.999z M14.499,1.999H6.898c-0.208-0.579-0.748-1-1.399-1
				h-2.5c-0.651,0-1.192,0.421-1.399,1H0.499c-0.552,0-1,0.447-1,1v11c0,0.552,0.448,1,1,1h14c0.553,0,1-0.448,1-1v-11
				C15.499,2.446,15.052,1.999,14.499,1.999z M2.999,1.999h2.5c0.276,0,0.5,0.225,0.5,0.5c0,0.276-0.224,0.5-0.5,0.5h-2.5
				c-0.276,0-0.5-0.224-0.5-0.5C2.499,2.224,2.723,1.999,2.999,1.999z M14.499,13.499c0,0.276-0.225,0.5-0.5,0.5h-13
				c-0.276,0-0.5-0.224-0.5-0.5v-10c0-0.276,0.224-0.5,0.5-0.5H1.6C1.807,3.579,2.348,4,2.999,4h2.5C6.15,4,6.691,3.579,6.898,2.999
				h7.101c0.275,0,0.5,0.224,0.5,0.5V13.499z"/>
		</g>
	</g>
</g>
<g id="Layer_1">
</g>
</svg>
