<?xml version="1.0" encoding="iso-8859-1"?>
<!-- Generator: Adobe Illustrator 16.0.0, SVG Export Plug-In . SVG Version: 6.00 Build 0)  -->
<!DOCTYPE svg PUBLIC "-//W3C//DTD SVG 1.1//EN" "http://www.w3.org/Graphics/SVG/1.1/DTD/svg11.dtd">
<svg version="1.1" xmlns="http://www.w3.org/2000/svg" xmlns:xlink="http://www.w3.org/1999/xlink" x="0px" y="0px" width="17px"
	 height="16px" viewBox="0 0 17 16" style="enable-background:new 0 0 17 16;" xml:space="preserve">
<g id="tool-television" style="enable-background:new    ;">
	<g id="tool-television_2_">
		<g>
			<path d="M8.499,5.507h-6c-0.553,0-1,0.447-1,1v6c0,0.553,0.447,1,1,1h6c0.553,0,1-0.447,1-1v-6
				C9.499,5.954,9.052,5.507,8.499,5.507z M8.499,12.007c0,0.277-0.225,0.5-0.5,0.5h-5c-0.276,0-0.5-0.223-0.5-0.5v-5
				c0-0.275,0.224-0.5,0.5-0.5h5c0.276,0,0.5,0.225,0.5,0.5V12.007z M13.499,3.507H8.733l2.117-2.108
				c0.203-0.204,0.203-0.534,0-0.738c-0.205-0.204-0.537-0.204-0.742,0L7.502,3.255l-2.601-2.61c-0.204-0.204-0.535-0.204-0.739,0
				c-0.204,0.205-0.204,0.537,0,0.742l2.112,2.12H1.499c-1.105,0-2,0.896-2,2v8c0,1.104,0.895,2,2,2h12c1.104,0,2-0.896,2-2v-8
				C15.499,4.402,14.603,3.507,13.499,3.507z M14.499,13.507c0,0.553-0.447,1.001-1,1.001h-12c-0.552,0-1-0.448-1-1.001v-8
				c0-0.552,0.448-0.999,1-0.999h12c0.553,0,1,0.447,1,0.999V13.507z M12.999,5.507h-2c-0.277,0-0.5,0.224-0.5,0.5
				s0.223,0.5,0.5,0.5h2c0.275,0,0.5-0.224,0.5-0.5S13.274,5.507,12.999,5.507z M12.999,7.508h-2c-0.277,0-0.5,0.224-0.5,0.499
				c0,0.276,0.223,0.501,0.5,0.501h2c0.275,0,0.5-0.225,0.5-0.501C13.499,7.731,13.274,7.508,12.999,7.508z M12.499,10.507h-1
				c-0.553,0-1,0.448-1,1.001v0.999c0,0.553,0.447,1,1,1h1c0.553,0,1-0.447,1-1v-0.999C13.499,10.955,13.052,10.507,12.499,10.507z
				 M12.499,12.507h-1v-0.999h1V12.507z"/>
		</g>
	</g>
</g>
<g id="Layer_1">
</g>
</svg>
