<?xml version="1.0" encoding="iso-8859-1"?>
<!-- Generator: Adobe Illustrator 16.0.0, SVG Export Plug-In . SVG Version: 6.00 Build 0)  -->
<!DOCTYPE svg PUBLIC "-//W3C//DTD SVG 1.1//EN" "http://www.w3.org/Graphics/SVG/1.1/DTD/svg11.dtd">
<svg version="1.1" xmlns="http://www.w3.org/2000/svg" xmlns:xlink="http://www.w3.org/1999/xlink" x="0px" y="0px" width="17px"
	 height="16px" viewBox="0 0 17 16" style="enable-background:new 0 0 17 16;" xml:space="preserve">
<g id="tool-compass" style="enable-background:new    ;">
	<g id="tool-compass_1_">
		<g>
			<path d="M9.552,6.948C10.125,6.49,10.5,5.792,10.5,5.001c0-1.21-0.858-2.218-1.998-2.45v-2.05H7.504v2.05
				c-1.14,0.232-1.997,1.24-1.997,2.45c0,0.791,0.375,1.488,0.948,1.946l-2.068,3.366c-1.348-0.896-2.38-2.229-2.853-3.812H0.499
				c0.503,1.943,1.733,3.582,3.367,4.658l-2.357,3.836l0.85,0.502l2.36-3.842c1.071,0.529,2.267,0.846,3.544,0.846
				c1.119,0,2.176-0.24,3.142-0.654l2.244,3.65l0.85-0.502L9.552,6.948z M8.003,3.501c0.827,0,1.498,0.671,1.498,1.5
				c0,0.828-0.671,1.5-1.498,1.5s-1.497-0.672-1.497-1.5C6.506,4.172,7.176,3.501,8.003,3.501z M8.263,11.501
				c-1.085,0-2.103-0.26-3.02-0.699L7.335,7.4c0.214,0.06,0.436,0.102,0.668,0.102c0.233,0,0.454-0.042,0.668-0.102l2.206,3.587
				C10.068,11.313,9.189,11.501,8.263,11.501z"/>
		</g>
	</g>
</g>
<g id="Layer_1">
</g>
</svg>
