<?xml version="1.0" encoding="iso-8859-1"?>
<!-- Generator: Adobe Illustrator 16.0.0, SVG Export Plug-In . SVG Version: 6.00 Build 0)  -->
<!DOCTYPE svg PUBLIC "-//W3C//DTD SVG 1.1//EN" "http://www.w3.org/Graphics/SVG/1.1/DTD/svg11.dtd">
<svg version="1.1" xmlns="http://www.w3.org/2000/svg" xmlns:xlink="http://www.w3.org/1999/xlink" x="0px" y="0px" width="17px"
	 height="16px" viewBox="0 0 17 16" style="enable-background:new 0 0 17 16;" xml:space="preserve">
<g id="tool-monitor-a" style="enable-background:new    ;">
	<g id="tool-monitor-a_1_">
		<g>
			<path d="M13.999,0.499h-13c-0.553,0-1,0.448-1,1v10c0,0.553,0.447,1,1,1h6v2h-1.5c-0.276,0-0.5,0.224-0.5,0.501
				c0,0.275,0.224,0.499,0.5,0.499h4c0.276,0,0.5-0.224,0.5-0.499c0-0.277-0.224-0.501-0.5-0.501h-1.5v-2h6c0.553,0,1-0.447,1-1v-10
				C14.999,0.947,14.552,0.499,13.999,0.499z M13.999,10.999c0,0.276-0.224,0.5-0.5,0.5h-5.5h-1h-5.5c-0.276,0-0.5-0.224-0.5-0.5V2
				c0-0.277,0.224-0.501,0.5-0.501h12c0.276,0,0.5,0.224,0.5,0.501V10.999z"/>
		</g>
	</g>
</g>
<g id="Layer_1">
</g>
</svg>
