<?xml version="1.0" encoding="iso-8859-1"?>
<!-- Generator: Adobe Illustrator 16.0.0, SVG Export Plug-In . SVG Version: 6.00 Build 0)  -->
<!DOCTYPE svg PUBLIC "-//W3C//DTD SVG 1.1//EN" "http://www.w3.org/Graphics/SVG/1.1/DTD/svg11.dtd">
<svg version="1.1" xmlns="http://www.w3.org/2000/svg" xmlns:xlink="http://www.w3.org/1999/xlink" x="0px" y="0px" width="17px"
	 height="16px" viewBox="0 0 17 16" style="enable-background:new 0 0 17 16;" xml:space="preserve">
<g id="tool-medical-tape" style="enable-background:new    ;">
	<g id="tool-medical-tape_1_">
		<g>
			<path d="M9.297,4.053L8.578,4.77l0.719,0.718l0.719-0.718L9.297,4.053z M10.735,4.053l0.719,0.717l0.72-0.717l-0.72-0.718
				L10.735,4.053z M10.016,6.205l0.72,0.717l0.719-0.717l-0.719-0.718L10.016,6.205z M13.611,2.617L12.893,1.9
				c-1.191-1.189-3.123-1.189-4.314,0L5.701,4.77L5.023,5.446L1.387,9.075c-1.191,1.188-1.191,3.116,0,4.305l0.719,0.718
				c1.191,1.188,3.123,1.188,4.314,0l3.91-3.901l0.405-0.404l2.876-2.87C14.803,5.733,14.803,3.806,13.611,2.617z M5.701,13.38
				c-0.794,0.792-2.082,0.792-2.877,0l-0.719-0.718c-0.794-0.792-0.794-2.077,0-2.87l3.596-3.587l3.596,3.587L5.701,13.38z
				 M12.893,6.205l-2.877,2.87L6.42,5.487l2.877-2.87c0.795-0.793,2.082-0.793,2.877,0l0.719,0.718
				C13.687,4.127,13.687,5.412,12.893,6.205z"/>
		</g>
	</g>
</g>
<g id="Layer_1">
</g>
</svg>
