<?xml version="1.0" encoding="iso-8859-1"?>
<!-- Generator: Adobe Illustrator 16.0.0, SVG Export Plug-In . SVG Version: 6.00 Build 0)  -->
<!DOCTYPE svg PUBLIC "-//W3C//DTD SVG 1.1//EN" "http://www.w3.org/Graphics/SVG/1.1/DTD/svg11.dtd">
<svg version="1.1" xmlns="http://www.w3.org/2000/svg" xmlns:xlink="http://www.w3.org/1999/xlink" x="0px" y="0px" width="17px"
	 height="16px" viewBox="0 0 17 16" style="enable-background:new 0 0 17 16;" xml:space="preserve">
<g id="tool-brush-a" style="enable-background:new    ;">
	<g id="tool-brush-a_2_">
		<g>
			<path d="M10.999,5.498c0.275,0,0.5-0.224,0.5-0.499c0-0.276-0.225-0.5-0.5-0.5h-3.5v-2h3.5c0.275,0,0.5-0.224,0.5-0.5
				s-0.225-0.5-0.5-0.5h-3.5c0-0.552-0.447-1-1-1h-2c-0.552,0-1,0.448-1,1v13c0,0.552,0.448,1,1,1h2c0.552,0,1-0.448,1-1h3.5
				c0.275,0,0.5-0.224,0.5-0.5s-0.225-0.5-0.5-0.5h-3.5v-2h3.5c0.275,0,0.5-0.224,0.5-0.5s-0.225-0.5-0.5-0.5h-3.5v-2h3.5
				c0.275,0,0.5-0.224,0.5-0.501c0-0.275-0.225-0.499-0.5-0.499h-3.5V5.498H10.999z M6.499,13.999c0,0.276-0.224,0.5-0.5,0.5h-1
				c-0.276,0-0.5-0.224-0.5-0.5v-12c0-0.276,0.224-0.5,0.5-0.5h1c0.276,0,0.5,0.224,0.5,0.5V13.999z"/>
		</g>
	</g>
</g>
<g id="Layer_1">
</g>
</svg>
