<?xml version="1.0" encoding="iso-8859-1"?>
<!-- Generator: Adobe Illustrator 16.0.0, SVG Export Plug-In . SVG Version: 6.00 Build 0)  -->
<!DOCTYPE svg PUBLIC "-//W3C//DTD SVG 1.1//EN" "http://www.w3.org/Graphics/SVG/1.1/DTD/svg11.dtd">
<svg version="1.1" xmlns="http://www.w3.org/2000/svg" xmlns:xlink="http://www.w3.org/1999/xlink" x="0px" y="0px" width="17px"
	 height="16px" viewBox="0 0 17 16" style="enable-background:new 0 0 17 16;" xml:space="preserve">
<g id="tool-magnifier" style="enable-background:new    ;">
	<g id="tool-magnifier_2_">
		<g>
			<path d="M15.345,15.122l-2.841-2.842c-0.226,0.256-0.467,0.498-0.723,0.723l2.841,2.842c0.199,0.199,0.523,0.199,0.723,0
				C15.544,15.644,15.544,15.321,15.345,15.122z M6.503,0.003c-3.866,0-7,3.134-7,7c0,3.865,3.134,7,7,7c3.866,0,7-3.135,7-7
				C13.503,3.137,10.369,0.003,6.503,0.003z M6.503,13.003c-3.314,0-6-2.686-6-6c0-3.313,2.686-6.001,6-6.001s6,2.688,6,6.001
				C12.503,10.317,9.817,13.003,6.503,13.003z"/>
		</g>
	</g>
</g>
<g id="Layer_1">
</g>
</svg>
