<?xml version="1.0" encoding="iso-8859-1"?>
<!-- Generator: Adobe Illustrator 16.0.0, SVG Export Plug-In . SVG Version: 6.00 Build 0)  -->
<!DOCTYPE svg PUBLIC "-//W3C//DTD SVG 1.1//EN" "http://www.w3.org/Graphics/SVG/1.1/DTD/svg11.dtd">
<svg version="1.1" xmlns="http://www.w3.org/2000/svg" xmlns:xlink="http://www.w3.org/1999/xlink" x="0px" y="0px" width="17px"
	 height="16px" viewBox="0 0 17 16" style="enable-background:new 0 0 17 16;" xml:space="preserve">
<g id="tool-magnet" style="enable-background:new    ;">
	<g id="tool-magnet_2_">
		<g>
			<path d="M9.499,1.499v2.999v1v3c0,1.105-0.896,2-2,2s-2-0.895-2-2v-3v-1V1.499h-4v2.999v1v3c0,3.314,2.686,6.001,6,6.001
				c3.315,0,6-2.687,6-6.001v-3v-1V1.499H9.499z M2.499,2.499h2v1.999h-2V2.499z M12.499,8.498c0,2.762-2.238,5.001-5,5.001
				c-2.761,0-5-2.239-5-5.001v-3h2v3c0,1.658,1.343,3,3,3s3-1.342,3-3v-3h2V8.498z M12.499,4.498h-2V2.499h2V4.498z"/>
		</g>
	</g>
</g>
<g id="Layer_1">
</g>
</svg>
