<?xml version="1.0" encoding="iso-8859-1"?>
<!-- Generator: Adobe Illustrator 16.0.0, SVG Export Plug-In . SVG Version: 6.00 Build 0)  -->
<!DOCTYPE svg PUBLIC "-//W3C//DTD SVG 1.1//EN" "http://www.w3.org/Graphics/SVG/1.1/DTD/svg11.dtd">
<svg version="1.1" xmlns="http://www.w3.org/2000/svg" xmlns:xlink="http://www.w3.org/1999/xlink" x="0px" y="0px" width="17px"
	 height="16px" viewBox="0 0 17 16" style="enable-background:new 0 0 17 16;" xml:space="preserve">
<g id="tool-flashlight-s" style="enable-background:new    ;">
	<g id="tool-flashlight-s_1_">
		<g>
			<path d="M13.499,4.499h-1h-1c-0.738,0-1.377,0.404-1.723,1H7.499v-1h-4v1h-3c-0.552,0-1,0.448-1,1v3c0,0.552,0.448,1,1,1h9.277
				c0.346,0.595,0.984,1,1.723,1h1h1h2v-2v-3v-2H13.499z M4.499,5.499h2v1h-2V5.499z M9.499,9.499h-8.5c-0.276,0-0.5-0.225-0.5-0.5
				v-2c0-0.276,0.224-0.5,0.5-0.5h2.5v1h4v-1h2V9.499z M12.499,10.499h-1c-0.553,0-1-0.448-1-1v-3c0-0.552,0.447-1,1-1h1V10.499z
				 M14.499,10.499h-1v-5h1V10.499z"/>
		</g>
	</g>
</g>
<g id="Layer_1">
</g>
</svg>
