<?xml version="1.0" encoding="iso-8859-1"?>
<!-- Generator: Adobe Illustrator 16.0.0, SVG Export Plug-In . SVG Version: 6.00 Build 0)  -->
<!DOCTYPE svg PUBLIC "-//W3C//DTD SVG 1.1//EN" "http://www.w3.org/Graphics/SVG/1.1/DTD/svg11.dtd">
<svg version="1.1" xmlns="http://www.w3.org/2000/svg" xmlns:xlink="http://www.w3.org/1999/xlink" x="0px" y="0px" width="17px"
	 height="16px" viewBox="0 0 17 16" style="enable-background:new 0 0 17 16;" xml:space="preserve">
<g id="tool-headphone-a" style="enable-background:new    ;">
	<g id="tool-headphone-a_2_">
		<g>
			<path d="M15.431,9.498c0.041-0.328,0.068-0.66,0.068-0.999c0-4.419-3.582-8-8-8c-4.418,0-8,3.581-8,8
				c0,0.339,0.028,0.671,0.069,0.999H-0.4c-0.057,0.158-0.101,0.323-0.101,0.501v3.999c0,0.829,0.671,1.501,1.5,1.501h2
				c0.828,0,1.5-0.672,1.5-1.501V9.999c0-0.829-0.672-1.501-1.5-1.501h-2c-0.174,0-0.335,0.045-0.49,0.1
				c-0.001-0.034-0.01-0.065-0.01-0.099c0-3.866,3.134-7.001,7-7.001s7,3.135,7,7.001c0,0.033-0.01,0.064-0.01,0.099
				c-0.156-0.055-0.316-0.1-0.49-0.1h-2c-0.828,0-1.5,0.672-1.5,1.501v3.999c0,0.829,0.672,1.501,1.5,1.501h2
				c0.828,0,1.5-0.672,1.5-1.501V9.999c0-0.178-0.045-0.343-0.102-0.501H15.431z M0.999,9.499h2c0.276,0,0.5,0.224,0.5,0.5v3.999
				c0,0.276-0.224,0.501-0.5,0.501h-2c-0.276,0-0.5-0.225-0.5-0.501V9.999C0.499,9.723,0.723,9.499,0.999,9.499z M14.499,13.998
				c0,0.276-0.225,0.501-0.5,0.501h-2c-0.275,0-0.5-0.225-0.5-0.501V9.999c0-0.276,0.225-0.5,0.5-0.5h2c0.275,0,0.5,0.224,0.5,0.5
				V13.998z"/>
		</g>
	</g>
</g>
<g id="Layer_1">
</g>
</svg>
