<?xml version="1.0" encoding="iso-8859-1"?>
<!-- Generator: Adobe Illustrator 16.0.0, SVG Export Plug-In . SVG Version: 6.00 Build 0)  -->
<!DOCTYPE svg PUBLIC "-//W3C//DTD SVG 1.1//EN" "http://www.w3.org/Graphics/SVG/1.1/DTD/svg11.dtd">
<svg version="1.1" xmlns="http://www.w3.org/2000/svg" xmlns:xlink="http://www.w3.org/1999/xlink" x="0px" y="0px" width="17px"
	 height="16px" viewBox="0 0 17 16" style="enable-background:new 0 0 17 16;" xml:space="preserve">
<g id="tool-scissor" style="enable-background:new    ;">
	<g id="tool-scissor_1_">
		<g>
			<path d="M14.239,13.064L7.34,7.994l6.903-5.072c0.251-0.138,0.337-0.444,0.191-0.685c-0.145-0.239-0.465-0.32-0.716-0.183
				l-7.23,5.313L4.248,5.722c0.845-0.412,1.43-1.247,1.43-2.224c0-1.38-1.161-2.499-2.593-2.499c-1.432,0-2.592,1.119-2.592,2.499
				c0,1.319,1.061,2.387,2.403,2.482l2.741,2.015l-2.753,2.023c-1.335,0.102-2.39,1.167-2.39,2.48c0,1.381,1.161,2.5,2.592,2.5
				c1.432,0,2.593-1.119,2.593-2.5c0-0.978-0.588-1.815-1.436-2.227l2.247-1.651l7.227,5.311c0.251,0.139,0.571,0.057,0.716-0.183
				C14.576,13.509,14.49,13.203,14.239,13.064z M3.113,4.993C3.099,4.992,3.085,4.996,3.071,4.996
				C2.218,4.988,1.529,4.323,1.529,3.498c0-0.828,0.696-1.499,1.555-1.499c0.859,0,1.556,0.671,1.556,1.499
				C4.64,4.317,3.958,4.979,3.113,4.993z M4.64,12.499c0,0.828-0.696,1.5-1.556,1.5c-0.859,0-1.555-0.672-1.555-1.5
				c0-0.829,0.696-1.5,1.555-1.5C3.944,10.999,4.64,11.67,4.64,12.499z"/>
		</g>
	</g>
</g>
<g id="Layer_1">
</g>
</svg>
