<?xml version="1.0" encoding="iso-8859-1"?>
<!-- Generator: Adobe Illustrator 16.0.0, SVG Export Plug-In . SVG Version: 6.00 Build 0)  -->
<!DOCTYPE svg PUBLIC "-//W3C//DTD SVG 1.1//EN" "http://www.w3.org/Graphics/SVG/1.1/DTD/svg11.dtd">
<svg version="1.1" xmlns="http://www.w3.org/2000/svg" xmlns:xlink="http://www.w3.org/1999/xlink" x="0px" y="0px" width="17px"
	 height="16px" viewBox="0 0 17 16" style="enable-background:new 0 0 17 16;" xml:space="preserve">
<g id="tool-tablet-l" style="enable-background:new    ;">
	<g id="tool-tablet-l_1_">
		<g>
			<path d="M2.499,8.999c0.552,0,1-0.447,1-1c0-0.552-0.448-1-1-1s-1,0.448-1,1C1.499,8.552,1.947,8.999,2.499,8.999z M13.499,0.999
				h-8h-1h-3c-1.104,0-2,0.896-2,2V13c0,1.104,0.896,1.999,2,1.999h3h1h8c1.104,0,2-0.896,2-1.999V2.999
				C15.499,1.895,14.603,0.999,13.499,0.999z M4.499,13.999h-3c-0.552,0-1-0.447-1-0.999V2.999c0-0.552,0.448-0.999,1-0.999h3
				V13.999z M14.499,13c0,0.552-0.447,0.999-1,0.999h-8V2h8c0.553,0,1,0.447,1,0.999V13z"/>
		</g>
	</g>
</g>
<g id="Layer_1">
</g>
</svg>
