<?xml version="1.0" encoding="iso-8859-1"?>
<!-- Generator: Adobe Illustrator 16.0.0, SVG Export Plug-In . SVG Version: 6.00 Build 0)  -->
<!DOCTYPE svg PUBLIC "-//W3C//DTD SVG 1.1//EN" "http://www.w3.org/Graphics/SVG/1.1/DTD/svg11.dtd">
<svg version="1.1" xmlns="http://www.w3.org/2000/svg" xmlns:xlink="http://www.w3.org/1999/xlink" x="0px" y="0px" width="17px"
	 height="16px" viewBox="0 0 17 16" style="enable-background:new 0 0 17 16;" xml:space="preserve">
<g id="tool-tablet" style="enable-background:new    ;">
	<g id="tool-tablet_2_">
		<g>
			<path d="M7.499,13.999c0.553,0,1-0.447,1-1s-0.447-1-1-1c-0.552,0-1,0.447-1,1S6.947,13.999,7.499,13.999z M12.499,0h-10
				c-1.105,0-2,0.895-2,2v8v1v3c0,1.104,0.895,2,2,2h10c1.104,0,2-0.896,2-2v-3v-1V2C14.499,0.894,13.603,0,12.499,0z
				 M13.499,13.999c0,0.551-0.447,1-1,1h-10c-0.553,0-1-0.449-1-1v-3h12V13.999z M13.499,9.999h-12V2c0-0.554,0.447-1.001,1-1.001
				h10c0.553,0,1,0.447,1,1.001V9.999z"/>
		</g>
	</g>
</g>
<g id="Layer_1">
</g>
</svg>
