<?xml version="1.0" encoding="iso-8859-1"?>
<!-- Generator: Adobe Illustrator 16.0.0, SVG Export Plug-In . SVG Version: 6.00 Build 0)  -->
<!DOCTYPE svg PUBLIC "-//W3C//DTD SVG 1.1//EN" "http://www.w3.org/Graphics/SVG/1.1/DTD/svg11.dtd">
<svg version="1.1" xmlns="http://www.w3.org/2000/svg" xmlns:xlink="http://www.w3.org/1999/xlink" x="0px" y="0px" width="17px"
	 height="16px" viewBox="0 0 17 16" style="enable-background:new 0 0 17 16;" xml:space="preserve">
<g id="tool-hammer" style="enable-background:new    ;">
	<g id="tool-hammer_2_">
		<g>
			<path d="M13.499-0.001h-12c-0.553,0-1,0.448-1,1v7c0,0.553,0.447,1,1,1h4v6c0,0.552,0.448,1,1,1h2c0.553,0,1-0.448,1-1v-6h4
				c0.553,0,1-0.447,1-1v-7C14.499,0.447,14.052-0.001,13.499-0.001z M2.499,7.999h-0.5c-0.276,0-0.5-0.224-0.5-0.5v-6
				c0-0.276,0.224-0.5,0.5-0.5h0.5V7.999z M8.499,9.499v0.5v4.5c0,0.276-0.224,0.5-0.5,0.5h-1c-0.276,0-0.5-0.224-0.5-0.5v-4.5v-0.5
				v-0.5h0.5h1h0.5V9.499z M11.499,7.999h-3h-2h-3v-7h8V7.999z M13.499,7.499c0,0.276-0.224,0.5-0.5,0.5h-0.5v-7h0.5
				c0.276,0,0.5,0.224,0.5,0.5V7.499z"/>
		</g>
	</g>
</g>
<g id="Layer_1">
</g>
</svg>
