<?xml version="1.0" encoding="iso-8859-1"?>
<!-- Generator: Adobe Illustrator 16.0.0, SVG Export Plug-In . SVG Version: 6.00 Build 0)  -->
<!DOCTYPE svg PUBLIC "-//W3C//DTD SVG 1.1//EN" "http://www.w3.org/Graphics/SVG/1.1/DTD/svg11.dtd">
<svg version="1.1" xmlns="http://www.w3.org/2000/svg" xmlns:xlink="http://www.w3.org/1999/xlink" x="0px" y="0px" width="17px"
	 height="16px" viewBox="0 0 17 16" style="enable-background:new 0 0 17 16;" xml:space="preserve">
<g id="tool-calculator" style="enable-background:new    ;">
	<g id="tool-calculator_1_">
		<g>
			<path d="M10.499,8.999h2c0.275,0,0.5-0.225,0.5-0.5v-2c0-0.276-0.225-0.501-0.5-0.501h-2c-0.275,0-0.5,0.225-0.5,0.501v2
				C9.999,8.774,10.224,8.999,10.499,8.999z M10.999,6.999h1v1h-1V6.999z M10.499,12.999h2c0.275,0,0.5-0.225,0.5-0.5v-2
				c0-0.275-0.225-0.5-0.5-0.5h-2c-0.275,0-0.5,0.225-0.5,0.5v2C9.999,12.774,10.224,12.999,10.499,12.999z M10.999,10.999h1v1h-1
				V10.999z M2.499,8.999h2c0.276,0,0.5-0.225,0.5-0.5v-2c0-0.276-0.224-0.501-0.5-0.501h-2c-0.276,0-0.5,0.225-0.5,0.501v2
				C1.999,8.774,2.223,8.999,2.499,8.999z M2.999,6.999h1v1h-1V6.999z M6.499,8.999h2c0.275,0,0.5-0.225,0.5-0.5v-2
				c0-0.276-0.225-0.501-0.5-0.501h-2c-0.276,0-0.5,0.225-0.5,0.501v2C5.999,8.774,6.223,8.999,6.499,8.999z M6.999,6.999h1v1h-1
				V6.999z M2.499,12.999h2c0.276,0,0.5-0.225,0.5-0.5v-2c0-0.275-0.224-0.5-0.5-0.5h-2c-0.276,0-0.5,0.225-0.5,0.5v2
				C1.999,12.774,2.223,12.999,2.499,12.999z M2.999,10.999h1v1h-1V10.999z M13.999-0.001h-13c-0.552,0-1,0.448-1,1v14
				c0,0.553,0.448,1,1,1h13c0.553,0,1-0.447,1-1v-14C14.999,0.447,14.552-0.001,13.999-0.001z M13.999,14.499
				c0,0.275-0.225,0.5-0.5,0.5h-12c-0.276,0-0.5-0.225-0.5-0.5v-10.5h13V14.499z M13.999,2.999h-13v-1.5c0-0.276,0.224-0.5,0.5-0.5
				h12c0.275,0,0.5,0.224,0.5,0.5V2.999z M6.499,12.999h2c0.275,0,0.5-0.225,0.5-0.5v-2c0-0.275-0.225-0.5-0.5-0.5h-2
				c-0.276,0-0.5,0.225-0.5,0.5v2C5.999,12.774,6.223,12.999,6.499,12.999z M6.999,10.999h1v1h-1V10.999z"/>
		</g>
	</g>
</g>
<g id="Layer_1">
</g>
</svg>
