<?xml version="1.0" encoding="iso-8859-1"?>
<!-- Generator: Adobe Illustrator 16.0.0, SVG Export Plug-In . SVG Version: 6.00 Build 0)  -->
<!DOCTYPE svg PUBLIC "-//W3C//DTD SVG 1.1//EN" "http://www.w3.org/Graphics/SVG/1.1/DTD/svg11.dtd">
<svg version="1.1" xmlns="http://www.w3.org/2000/svg" xmlns:xlink="http://www.w3.org/1999/xlink" x="0px" y="0px" width="17px"
	 height="16px" viewBox="0 0 17 16" style="enable-background:new 0 0 17 16;" xml:space="preserve">
<g id="tool-laptop" style="enable-background:new    ;">
	<g id="tool-laptop_1_">
		<g>
			<path d="M11.499,11.499h1v-2v-7h-10v7v2h1v-2v-6h8v6V11.499z M1.499,9.499v-7.5c0-0.276,0.224-0.5,0.5-0.5h11
				c0.275,0,0.5,0.224,0.5,0.5v7.5v2h1v-2v-8c0-0.552-0.447-1-1-1h-12c-0.552,0-1,0.448-1,1v8v2h1V9.499z M14.999,12.499h-15
				c-0.276,0-0.5,0.225-0.5,0.5v2c0,0.276,0.224,0.5,0.5,0.5h15c0.275,0,0.5-0.224,0.5-0.5v-2
				C15.499,12.724,15.274,12.499,14.999,12.499z M14.499,14.499h-14v-1h14V14.499z"/>
		</g>
	</g>
</g>
<g id="Layer_1">
</g>
</svg>
