<?xml version="1.0" encoding="iso-8859-1"?>
<!-- Generator: Adobe Illustrator 16.0.0, SVG Export Plug-In . SVG Version: 6.00 Build 0)  -->
<!DOCTYPE svg PUBLIC "-//W3C//DTD SVG 1.1//EN" "http://www.w3.org/Graphics/SVG/1.1/DTD/svg11.dtd">
<svg version="1.1" xmlns="http://www.w3.org/2000/svg" xmlns:xlink="http://www.w3.org/1999/xlink" x="0px" y="0px" width="17px"
	 height="16px" viewBox="0 0 17 16" style="enable-background:new 0 0 17 16;" xml:space="preserve">
<g id="tool-alt-camera" style="enable-background:new    ;">
	<g id="tool-alt-camera_2_">
		<g>
			<path d="M2.499,9.499c0,2.209,1.791,4,4,4c2.209,0,4-1.791,4-4c0-2.209-1.791-4-4-4C4.29,5.5,2.499,7.29,2.499,9.499z M6.499,6.5
				c1.656,0,3,1.342,3,3c0,1.656-1.344,3-3,3c-1.657,0-3-1.344-3-3C3.499,7.841,4.842,6.5,6.499,6.5z M13.499,4.5h-3v1h3V4.5z
				 M5.499,2.5v-2h-6v2v0.999v12h16v-13H5.499z M0.499,1.499h4V2.5h-4V1.499z M14.499,14.499h-14v-11h5h9V14.499z"/>
		</g>
	</g>
</g>
<g id="Layer_1">
</g>
</svg>
