<?xml version="1.0" encoding="iso-8859-1"?>
<!-- Generator: Adobe Illustrator 16.0.0, SVG Export Plug-In . SVG Version: 6.00 Build 0)  -->
<!DOCTYPE svg PUBLIC "-//W3C//DTD SVG 1.1//EN" "http://www.w3.org/Graphics/SVG/1.1/DTD/svg11.dtd">
<svg version="1.1" xmlns="http://www.w3.org/2000/svg" xmlns:xlink="http://www.w3.org/1999/xlink" x="0px" y="0px" width="17px"
	 height="16px" viewBox="0 0 17 16" style="enable-background:new 0 0 17 16;" xml:space="preserve">
<g id="tool-brush" style="enable-background:new    ;">
	<g id="tool-brush_1_">
		<g>
			<path d="M14.858,6.118L12.371,3.63c0.393-0.393,0.393-1.029,0-1.422l-1.422-1.421c-0.393-0.393-1.029-0.393-1.422,0l-9.241,9.24
				c-0.393,0.393-0.393,1.029,0,1.422l1.422,1.421c0.392,0.393,1.028,0.393,1.421,0l2.488,2.488c0.196,0.196,0.515,0.196,0.711,0
				s0.196-0.515,0-0.711l-2.488-2.488l1.421-1.421l2.488,2.487c0.196,0.197,0.515,0.197,0.711,0c0.196-0.196,0.196-0.515,0-0.71
				l-2.489-2.488l1.422-1.422l2.488,2.488c0.196,0.195,0.515,0.195,0.711,0c0.196-0.196,0.196-0.515,0-0.711L8.106,7.896
				l1.421-1.422l2.488,2.487c0.196,0.196,0.515,0.196,0.711,0s0.196-0.515,0-0.711l-2.488-2.487l1.422-1.422l2.487,2.487
				c0.196,0.196,0.515,0.196,0.711,0S15.055,6.314,14.858,6.118z M11.305,3.274L4.907,9.672c0,0,0,0,0,0l-2.132,2.133
				c-0.196,0.196-0.515,0.196-0.71,0l-0.711-0.711c-0.196-0.196-0.196-0.515,0-0.711l8.53-8.529c0.196-0.196,0.515-0.196,0.711,0
				l0.711,0.71C11.501,2.76,11.501,3.078,11.305,3.274z"/>
		</g>
	</g>
</g>
<g id="Layer_1">
</g>
</svg>
