<?xml version="1.0" encoding="iso-8859-1"?>
<!-- Generator: Adobe Illustrator 16.0.0, SVG Export Plug-In . SVG Version: 6.00 Build 0)  -->
<!DOCTYPE svg PUBLIC "-//W3C//DTD SVG 1.1//EN" "http://www.w3.org/Graphics/SVG/1.1/DTD/svg11.dtd">
<svg version="1.1" xmlns="http://www.w3.org/2000/svg" xmlns:xlink="http://www.w3.org/1999/xlink" x="0px" y="0px" width="17px"
	 height="16px" viewBox="0 0 17 16" style="enable-background:new 0 0 17 16;" xml:space="preserve">
<g id="tool-camera-b" style="enable-background:new    ;">
	<g id="tool-camera-b_1_">
		<g>
			<path d="M7.499,4.999c-2.209,0-4,1.791-4,4s1.791,4,4,4c2.209,0,4-1.791,4-4S9.708,4.999,7.499,4.999z M7.499,11.999
				c-1.657,0-3-1.343-3-3s1.343-3,3-3s3,1.343,3,3S9.155,11.999,7.499,11.999z M14.499,2.999h-2.5l-0.5-1c0,0-0.447-1-1-1h-6
				c-0.552,0-1,1-1,1l-0.5,1h-2.5c-0.552,0-1,0.448-1,1.001v9.999c0,0.552,0.448,1,1,1h14c0.553,0,1-0.448,1-1V4
				C15.499,3.447,15.052,2.999,14.499,2.999z M14.499,13.499c0,0.276-0.225,0.5-0.5,0.5h-13c-0.276,0-0.5-0.224-0.5-0.5V4.5
				c0-0.277,0.224-0.5,0.5-0.5h2.532C3.52,3.958,3.499,3.919,3.499,3.874l0.8-1.25c0,0,0.358-0.625,0.8-0.625h4.801
				c0.441,0,0.799,0.625,0.799,0.625l0.801,1.25c0,0.045-0.021,0.084-0.033,0.126h2.533c0.275,0,0.5,0.223,0.5,0.5V13.499z"/>
		</g>
	</g>
</g>
<g id="Layer_1">
</g>
</svg>
