<?xml version="1.0" encoding="iso-8859-1"?>
<!-- Generator: Adobe Illustrator 16.0.0, SVG Export Plug-In . SVG Version: 6.00 Build 0)  -->
<!DOCTYPE svg PUBLIC "-//W3C//DTD SVG 1.1//EN" "http://www.w3.org/Graphics/SVG/1.1/DTD/svg11.dtd">
<svg version="1.1" xmlns="http://www.w3.org/2000/svg" xmlns:xlink="http://www.w3.org/1999/xlink" x="0px" y="0px" width="17px"
	 height="16px" viewBox="0 0 17 16" style="enable-background:new 0 0 17 16;" xml:space="preserve">
<g id="tool-binoculars" style="enable-background:new    ;">
	<g id="tool-binoculars_2_">
		<g>
			<path d="M13.499,2.999v-3h-4v3h-1v3h-2v-3h-1v-3h-4v3h-1v13h6v-5h2v5h6v-13H13.499z M2.499,0.999h2v2h-2V0.999z M5.499,14.999h-4
				v-2h4V14.999z M5.499,11.999h-4v-8h4V11.999z M8.499,9.999h-2v-3h2V9.999z M10.499,0.999h2v2h-2V0.999z M13.499,14.999h-4v-2h4
				V14.999z M13.499,11.999h-4v-8h4V11.999z"/>
		</g>
	</g>
</g>
<g id="Layer_1">
</g>
</svg>
