<?xml version="1.0" encoding="iso-8859-1"?>
<!-- Generator: Adobe Illustrator 16.0.0, SVG Export Plug-In . SVG Version: 6.00 Build 0)  -->
<!DOCTYPE svg PUBLIC "-//W3C//DTD SVG 1.1//EN" "http://www.w3.org/Graphics/SVG/1.1/DTD/svg11.dtd">
<svg version="1.1" xmlns="http://www.w3.org/2000/svg" xmlns:xlink="http://www.w3.org/1999/xlink" x="0px" y="0px" width="17px"
	 height="16px" viewBox="0 0 17 16" style="enable-background:new 0 0 17 16;" xml:space="preserve">
<g id="tool-console-old" style="enable-background:new    ;">
	<g id="tool-console-old_2_">
		<g>
			<path d="M13.999,14.5c0-0.829-0.672-1.501-1.5-1.501h-4.5v-4.05c2.247-0.252,4-2.136,4-4.449c0-2.485-2.016-4.501-4.5-4.501
				s-4.5,2.016-4.5,4.501c0,2.313,1.753,4.197,4,4.449v4.05h-4.5c-0.829,0-1.5,0.672-1.5,1.501c0,0.177,0.044,0.342,0.101,0.5H0.999
				v0.999h1.5h10h1.5V15h-0.102C13.954,14.842,13.999,14.677,13.999,14.5z M3.999,4.5c0-1.934,1.567-3.501,3.5-3.501
				c1.934,0,3.5,1.567,3.5,3.501c0,1.933-1.566,3.5-3.5,3.5C5.566,8,3.999,6.433,3.999,4.5z M12.999,15h-0.5h-10h-0.5v-0.5
				c0-0.276,0.224-0.5,0.5-0.5h10c0.275,0,0.5,0.224,0.5,0.5V15z"/>
		</g>
	</g>
</g>
<g id="Layer_1">
</g>
</svg>
