<?xml version="1.0" encoding="iso-8859-1"?>
<!-- Generator: Adobe Illustrator 16.0.0, SVG Export Plug-In . SVG Version: 6.00 Build 0)  -->
<!DOCTYPE svg PUBLIC "-//W3C//DTD SVG 1.1//EN" "http://www.w3.org/Graphics/SVG/1.1/DTD/svg11.dtd">
<svg version="1.1" xmlns="http://www.w3.org/2000/svg" xmlns:xlink="http://www.w3.org/1999/xlink" x="0px" y="0px" width="17px"
	 height="16px" viewBox="0 0 17 16" style="enable-background:new 0 0 17 16;" xml:space="preserve">
<g id="tool-mouse" style="enable-background:new    ;">
	<g id="tool-mouse_2_">
		<g>
			<path d="M7.504,3.999C7.232,3.999,7.01,4.224,7.01,4.5v1.999c0,0.276,0.222,0.5,0.494,0.5c0.273,0,0.494-0.224,0.494-0.5V4.5
				C7.999,4.224,7.778,3.999,7.504,3.999z M9.999,1.999h-2V0.5c0-0.277-0.221-0.501-0.494-0.501c-0.013,0-0.023,0.007-0.035,0.008
				C7.455,0.006,7.442-0.001,7.427-0.001H4.57c-0.316,0-0.571,0.224-0.571,0.501c0,0.275,0.255,0.499,0.571,0.499h2.44v1H4.999
				c-1.657,0-3,1.344-3,3v8c0,1.657,1.343,3,3,3h5c1.656,0,3-1.343,3-3v-8C12.999,3.343,11.655,1.999,9.999,1.999z M11.999,12.999
				c0,1.104-0.896,2-2,2h-5c-1.105,0-2-0.896-2-2v-8c0-1.104,0.895-1.999,2-1.999h5c1.104,0,2,0.895,2,1.999V12.999z"/>
		</g>
	</g>
</g>
<g id="Layer_1">
</g>
</svg>
