<?xml version="1.0" encoding="iso-8859-1"?>
<!-- Generator: Adobe Illustrator 16.0.0, SVG Export Plug-In . SVG Version: 6.00 Build 0)  -->
<!DOCTYPE svg PUBLIC "-//W3C//DTD SVG 1.1//EN" "http://www.w3.org/Graphics/SVG/1.1/DTD/svg11.dtd">
<svg version="1.1" xmlns="http://www.w3.org/2000/svg" xmlns:xlink="http://www.w3.org/1999/xlink" x="0px" y="0px" width="17px"
	 height="16px" viewBox="0 0 17 16" style="enable-background:new 0 0 17 16;" xml:space="preserve">
<g id="tool-mobile" style="enable-background:new    ;">
	<g id="tool-mobile_2_">
		<g>
			<path d="M7.499,13.999c0.553,0,1-0.447,1-1s-0.447-1-1-1c-0.552,0-1,0.447-1,1S6.947,13.999,7.499,13.999z M10.499,0h-6
				c-1.105,0-2,0.895-2,2v0.999V4v6v1v3c0,1.104,0.895,2,2,2h6c1.104,0,2-0.896,2-2v-3v-1V4V2.999V2C12.499,0.894,11.603,0,10.499,0
				z M11.499,13.999c0,0.551-0.447,1-1,1h-6c-0.552,0-1-0.449-1-1v-3h8V13.999z M11.499,9.999h-8V4h8V9.999z M11.499,2.999h-8V2
				c0-0.554,0.448-1.001,1-1.001h6c0.553,0,1,0.447,1,1.001V2.999z"/>
		</g>
	</g>
</g>
<g id="Layer_1">
</g>
</svg>
