<?xml version="1.0" encoding="iso-8859-1"?>
<!-- Generator: Adobe Illustrator 16.0.0, SVG Export Plug-In . SVG Version: 6.00 Build 0)  -->
<!DOCTYPE svg PUBLIC "-//W3C//DTD SVG 1.1//EN" "http://www.w3.org/Graphics/SVG/1.1/DTD/svg11.dtd">
<svg version="1.1" xmlns="http://www.w3.org/2000/svg" xmlns:xlink="http://www.w3.org/1999/xlink" x="0px" y="0px" width="17px"
	 height="16px" viewBox="0 0 17 16" style="enable-background:new 0 0 17 16;" xml:space="preserve">
<g id="tool-console-a" style="enable-background:new    ;">
	<g id="tool-console-a_1_">
		<g>
			<path d="M4.499,5.499h-1v2h-2v1h2v2h1v-2h2v-1h-2V5.499z M11.808,5.498l-3.311,2.31L9.19,8.5l3.311-2.31L11.808,5.498z
				 M12.808,7.498l-3.311,2.31L10.19,10.5l3.311-2.31L12.808,7.498z M10.999,3.499h-7c-2.485,0-4.5,2.015-4.5,4.5s2.015,4.5,4.5,4.5
				h7c2.484,0,4.5-2.015,4.5-4.5S13.483,3.499,10.999,3.499z M10.999,11.499h-7c-1.933,0-3.5-1.567-3.5-3.5
				c0-1.934,1.567-3.5,3.5-3.5h7c1.934,0,3.5,1.566,3.5,3.5C14.499,9.932,12.933,11.499,10.999,11.499z"/>
		</g>
	</g>
</g>
<g id="Layer_1">
</g>
</svg>
