<?xml version="1.0" encoding="iso-8859-1"?>
<!-- Generator: Adobe Illustrator 16.0.0, SVG Export Plug-In . SVG Version: 6.00 Build 0)  -->
<!DOCTYPE svg PUBLIC "-//W3C//DTD SVG 1.1//EN" "http://www.w3.org/Graphics/SVG/1.1/DTD/svg11.dtd">
<svg version="1.1" xmlns="http://www.w3.org/2000/svg" xmlns:xlink="http://www.w3.org/1999/xlink" x="0px" y="0px" width="17px"
	 height="16px" viewBox="0 0 17 16" style="enable-background:new 0 0 17 16;" xml:space="preserve">
<g id="tool-video" style="enable-background:new    ;">
	<g id="tool-video_2_">
		<g>
			<path d="M14.999,6.999l-3.5,2.188V8.999c0-0.606-0.275-1.144-0.703-1.511c1.016-0.612,1.703-1.716,1.703-2.988
				c0-1.934-1.566-3.501-3.5-3.501c-1.933,0-3.5,1.567-3.5,3.501c0,0.98,0.405,1.863,1.055,2.499H4.721
				c0.479-0.531,0.778-1.228,0.778-2c0-1.656-1.343-3-3-3c-1.657,0-3,1.344-3,3c0,0.904,0.408,1.705,1.041,2.256
				c-0.617,0.34-1.041,0.989-1.041,1.744v4c0,1.104,0.896,2,2,2h8c1.104,0,2-0.896,2-2v-0.187l3.5,2.187c0.275,0,0.5-0.224,0.5-0.5
				v-7C15.499,7.224,15.274,6.999,14.999,6.999z M0.499,4.999c0-1.104,0.895-2,2-2c1.104,0,2,0.896,2,2c0,1.105-0.896,2-2,2
				C1.394,6.999,0.499,6.104,0.499,4.999z M10.499,10v2v0.999c0,0.553-0.447,1.001-1,1.001h-8c-0.552,0-1-0.448-1-1.001v-4
				c0-0.552,0.448-1,1-1h8c0.553,0,1,0.448,1,1V10z M8.999,6.999c-1.38,0-2.5-1.119-2.5-2.499c0-1.381,1.12-2.501,2.5-2.501
				c1.381,0,2.5,1.12,2.5,2.501C11.499,5.88,10.38,6.999,8.999,6.999z M14.499,13.499l-3-1.499v-2l3-1.5V13.499z"/>
		</g>
	</g>
</g>
<g id="Layer_1">
</g>
</svg>
