<?xml version="1.0" encoding="iso-8859-1"?>
<!-- Generator: Adobe Illustrator 16.0.0, SVG Export Plug-In . SVG Version: 6.00 Build 0)  -->
<!DOCTYPE svg PUBLIC "-//W3C//DTD SVG 1.1//EN" "http://www.w3.org/Graphics/SVG/1.1/DTD/svg11.dtd">
<svg version="1.1" xmlns="http://www.w3.org/2000/svg" xmlns:xlink="http://www.w3.org/1999/xlink" x="0px" y="0px" width="17px"
	 height="16px" viewBox="0 0 17 16" style="enable-background:new 0 0 17 16;" xml:space="preserve">
<g id="tool-magic-wand" style="enable-background:new    ;">
	<g id="tool-magic-wand_2_">
		<g>
			<path d="M5.198,9.583l-2.679,2.679l-3.021,3.021l0.717,0.718L5.915,10.3C5.78,10.199,5.643,10.101,5.52,9.978
				C5.397,9.854,5.298,9.719,5.198,9.583z M7.5,10.954v4.043h0.999v-4.044C8.167,11.002,7.833,11.002,7.5,10.954z M4.545,6.998H0.5
				v0.999h4.043C4.496,7.665,4.496,7.33,4.545,6.998z M5.52,5.033c0.115-0.114,0.243-0.205,0.368-0.301L3.155,2L2.488,2.669
				L5.22,5.4C5.315,5.275,5.406,5.147,5.52,5.033z M10.464,9.978c-0.113,0.113-0.24,0.203-0.363,0.298l2.732,2.732l0.668-0.668
				l-2.734-2.733C10.671,9.733,10.579,9.862,10.464,9.978z M11.44,6.998c0.047,0.332,0.047,0.667,0,0.999h4.061V6.998H11.44z
				 M7.5,4.057C7.833,4.01,8.167,4.01,8.499,4.058v-4.061H7.5V4.057z M10.767,5.402l2.734-2.733L12.833,2l-2.734,2.734
				c0.125,0.095,0.252,0.186,0.365,0.299C10.579,5.148,10.671,5.276,10.767,5.402z"/>
		</g>
	</g>
</g>
<g id="Layer_1">
</g>
</svg>
