<?xml version="1.0" encoding="iso-8859-1"?>
<!-- Generator: Adobe Illustrator 16.0.0, SVG Export Plug-In . SVG Version: 6.00 Build 0)  -->
<!DOCTYPE svg PUBLIC "-//W3C//DTD SVG 1.1//EN" "http://www.w3.org/Graphics/SVG/1.1/DTD/svg11.dtd">
<svg version="1.1" xmlns="http://www.w3.org/2000/svg" xmlns:xlink="http://www.w3.org/1999/xlink" x="0px" y="0px" width="17px"
	 height="16px" viewBox="0 0 17 16" style="enable-background:new 0 0 17 16;" xml:space="preserve">
<g id="tool-android-l" style="enable-background:new    ;">
	<g id="tool-android-l_1_">
		<g>
			<path d="M12.998,5.998c-0.276,0-0.5,0.224-0.5,0.501v2.999c0,0.275,0.224,0.5,0.5,0.5s0.5-0.225,0.5-0.5V6.499
				C13.498,6.221,13.274,5.998,12.998,5.998z M2.499,6.998c-0.553,0-1,0.447-1,1c0,0.552,0.447,1,1,1c0.552,0,1-0.447,1-1
				C3.499,7.445,3.051,6.998,2.499,6.998z M12.498,2h-10c-1.657,0-3,1.343-3,3v6c0,1.656,1.343,3,3,3h10
				c1.657,0,3.001-1.344,3.001-3V5C15.499,3.342,14.155,2,12.498,2z M14.498,10.999c0,1.104-0.896,2-2,2h-10c-1.103,0-2-0.896-2-2V5
				c0-1.104,0.897-2,2-2h10c1.104,0,2,0.896,2,2V10.999z"/>
		</g>
	</g>
</g>
<g id="Layer_1">
</g>
</svg>
