<?xml version="1.0" encoding="iso-8859-1"?>
<!-- Generator: Adobe Illustrator 16.0.0, SVG Export Plug-In . SVG Version: 6.00 Build 0)  -->
<!DOCTYPE svg PUBLIC "-//W3C//DTD SVG 1.1//EN" "http://www.w3.org/Graphics/SVG/1.1/DTD/svg11.dtd">
<svg version="1.1" xmlns="http://www.w3.org/2000/svg" xmlns:xlink="http://www.w3.org/1999/xlink" x="0px" y="0px" width="17px"
	 height="16px" viewBox="0 0 17 16" style="enable-background:new 0 0 17 16;" xml:space="preserve">
<g id="tool-net" style="enable-background:new    ;">
	<g id="tool-net_2_">
		<g>
			<path d="M13.999,0.5h-13c-0.552,0-1,0.447-1,0.999v13c0,0.551,0.448,1,1,1h13c0.553,0,1-0.449,1-1v-13
				C14.999,0.947,14.552,0.5,13.999,0.5z M2.999,14.499h-1.5c-0.276,0-0.5-0.225-0.5-0.5v-1.5h2V14.499z M2.999,11.499h-2v-3h2
				V11.499z M2.999,7.499h-2V4.5h2V7.499z M2.999,3.499h-2v-1.5c0-0.275,0.224-0.5,0.5-0.5h1.5V3.499z M6.999,14.499h-3v-2h3V14.499
				z M6.999,11.499h-3v-3h3V11.499z M6.999,7.499h-3V4.5h3V7.499z M6.999,3.499h-3v-2h3V3.499z M10.999,14.499h-3v-2h3V14.499z
				 M10.999,11.499h-3v-3h3V11.499z M10.999,7.499h-3V4.5h3V7.499z M10.999,3.499h-3v-2h3V3.499z M13.999,13.999
				c0,0.275-0.225,0.5-0.5,0.5h-1.5v-2h2V13.999z M13.999,11.499h-2v-3h2V11.499z M13.999,7.499h-2V4.5h2V7.499z M13.999,3.499h-2
				v-2h1.5c0.275,0,0.5,0.225,0.5,0.5V3.499z"/>
		</g>
	</g>
</g>
<g id="Layer_1">
</g>
</svg>
