<?xml version="1.0" encoding="iso-8859-1"?>
<!-- Generator: Adobe Illustrator 16.0.0, SVG Export Plug-In . SVG Version: 6.00 Build 0)  -->
<!DOCTYPE svg PUBLIC "-//W3C//DTD SVG 1.1//EN" "http://www.w3.org/Graphics/SVG/1.1/DTD/svg11.dtd">
<svg version="1.1" xmlns="http://www.w3.org/2000/svg" xmlns:xlink="http://www.w3.org/1999/xlink" x="0px" y="0px" width="17px"
	 height="16px" viewBox="0 0 17 16" style="enable-background:new 0 0 17 16;" xml:space="preserve">
<g id="tool-flashlight-a" style="enable-background:new    ;">
	<g id="tool-flashlight-a_2_">
		<g>
			<path d="M9.499,7.999V5.722c0.596-0.347,1-0.984,1-1.723v-1v-1v-2h-2h-3h-2v2v1v1c0,0.738,0.404,1.376,1,1.723v9.277
				c0,0.553,0.448,1,1,1h3c0.553,0,1-0.447,1-1v-3h2v-4H9.499z M4.499,0.999h5v1h-5V0.999z M8.499,7.999v4v2.5
				c0,0.276-0.225,0.5-0.5,0.5h-2c-0.276,0-0.5-0.224-0.5-0.5v-8.5h3V7.999z M8.499,4.999h-3c-0.552,0-1-0.448-1-1v-1h5v1
				C9.499,4.551,9.052,4.999,8.499,4.999z M10.499,10.999h-1v-2h1V10.999z"/>
		</g>
	</g>
</g>
<g id="Layer_1">
</g>
</svg>
