<?xml version="1.0" encoding="iso-8859-1"?>
<!-- Generator: Adobe Illustrator 16.0.0, SVG Export Plug-In . SVG Version: 6.00 Build 0)  -->
<!DOCTYPE svg PUBLIC "-//W3C//DTD SVG 1.1//EN" "http://www.w3.org/Graphics/SVG/1.1/DTD/svg11.dtd">
<svg version="1.1" xmlns="http://www.w3.org/2000/svg" xmlns:xlink="http://www.w3.org/1999/xlink" x="0px" y="0px" width="17px"
	 height="16px" viewBox="0 0 17 16" style="enable-background:new 0 0 17 16;" xml:space="preserve">
<g id="tool-paint-roler" style="enable-background:new    ;">
	<g id="tool-paint-roler_1_">
		<g>
			<path d="M12.999-0.001h-11c-1.381,0-2.5,1.119-2.5,2.5s1.119,2.5,2.5,2.5h2.5v3.5c0,0.276,0.224,0.5,0.5,0.5h2.5v1
				c-0.552,0-1,0.447-1,1v4c0,0.552,0.448,1,1,1h1c0.553,0,1-0.448,1-1v-4c0-0.553-0.447-1-1-1v-1.5c0-0.276-0.225-0.5-0.5-0.5h-2.5
				v-3h7.5c1.381,0,2.5-1.119,2.5-2.5S14.38-0.001,12.999-0.001z M7.999,10.999c0.276,0,0.5,0.224,0.5,0.5v2.999
				c0,0.277-0.225,0.501-0.5,0.501c-0.275,0-0.5-0.224-0.5-0.501v-2.999C7.499,11.223,7.723,10.999,7.999,10.999z M12.999,3.999h-11
				c-0.829,0-1.5-0.672-1.5-1.5c0-0.829,0.671-1.5,1.5-1.5h11c0.828,0,1.5,0.671,1.5,1.5C14.499,3.327,13.827,3.999,12.999,3.999z"
				/>
		</g>
	</g>
</g>
<g id="Layer_1">
</g>
</svg>
