<?xml version="1.0" encoding="iso-8859-1"?>
<!-- Generator: Adobe Illustrator 16.0.0, SVG Export Plug-In . SVG Version: 6.00 Build 0)  -->
<!DOCTYPE svg PUBLIC "-//W3C//DTD SVG 1.1//EN" "http://www.w3.org/Graphics/SVG/1.1/DTD/svg11.dtd">
<svg version="1.1" xmlns="http://www.w3.org/2000/svg" xmlns:xlink="http://www.w3.org/1999/xlink" x="0px" y="0px" width="17px"
	 height="16px" viewBox="0 0 17 16" style="enable-background:new 0 0 17 16;" xml:space="preserve">
<g id="tool-console" style="enable-background:new    ;">
	<g id="tool-console_1_">
		<g>
			<path d="M1.499,6.499h1v-1h-1V6.499z M1.499,8.498h1v-1h-1V8.498z M12.499,8.498h1v-1h-1V8.498z M4.499,4.499h-1v1v5v1h1h6h1v-1
				v-5v-1h-1H4.499z M10.499,10.499h-6v-5h6V10.499z M12.499,2.499h-10c-1.657,0-3,1.343-3,3v5c0,1.656,1.343,3,3,3h10
				c1.656,0,3-1.344,3-3v-5C15.499,3.842,14.155,2.499,12.499,2.499z M14.499,10.499c0,1.104-0.896,2-2,2h-10c-1.104,0-2-0.896-2-2
				v-5c0-1.105,0.896-2.001,2-2.001h10c1.104,0,2,0.896,2,2.001V10.499z M12.499,6.499h1v-1h-1V6.499z"/>
		</g>
	</g>
</g>
<g id="Layer_1">
</g>
</svg>
