<?xml version="1.0" encoding="iso-8859-1"?>
<!-- Generator: Adobe Illustrator 16.0.0, SVG Export Plug-In . SVG Version: 6.00 Build 0)  -->
<!DOCTYPE svg PUBLIC "-//W3C//DTD SVG 1.1//EN" "http://www.w3.org/Graphics/SVG/1.1/DTD/svg11.dtd">
<svg version="1.1" xmlns="http://www.w3.org/2000/svg" xmlns:xlink="http://www.w3.org/1999/xlink" x="0px" y="0px" width="17px"
	 height="16px" viewBox="0 0 17 16" style="enable-background:new 0 0 17 16;" xml:space="preserve">
<g id="tool-mobile-l" style="enable-background:new    ;">
	<g id="tool-mobile-l_1_">
		<g>
			<path d="M13.499,2.999h-1h-1h-6h-1h-3c-1.104,0-2,0.896-2,2.001v6c0,1.105,0.896,2,2,2h3h1h6h1h1c1.104,0,2-0.895,2-2V5
				C15.499,3.894,14.603,2.999,13.499,2.999z M4.499,11.999h-3c-0.553,0-1-0.447-1-1V5c0-0.553,0.448-1,1-1h3V11.999z
				 M11.499,11.999h-6V4h6V11.999z M14.499,10.999c0,0.553-0.447,1-1,1h-1V4h1c0.553,0,1,0.447,1,1V10.999z M2.499,8.999
				c0.552,0,1-0.447,1-1c0-0.552-0.448-1-1-1s-1,0.448-1,1C1.499,8.552,1.947,8.999,2.499,8.999z"/>
		</g>
	</g>
</g>
<g id="Layer_1">
</g>
</svg>
