<?xml version="1.0" encoding="iso-8859-1"?>
<!-- Generator: Adobe Illustrator 16.0.0, SVG Export Plug-In . SVG Version: 6.00 Build 0)  -->
<!DOCTYPE svg PUBLIC "-//W3C//DTD SVG 1.1//EN" "http://www.w3.org/Graphics/SVG/1.1/DTD/svg11.dtd">
<svg version="1.1" xmlns="http://www.w3.org/2000/svg" xmlns:xlink="http://www.w3.org/1999/xlink" x="0px" y="0px" width="17px"
	 height="16px" viewBox="0 0 17 16" style="enable-background:new 0 0 17 16;" xml:space="preserve">
<g id="tool-radio" style="enable-background:new    ;">
	<g id="tool-radio_1_">
		<g>
			<path d="M14.499,4.249h-1.006L2.125,0.766C1.858,0.696,1.584,0.851,1.513,1.11S1.6,1.637,1.866,1.706l8.301,2.543H0.499
				c-0.552,0-1,0.447-1,0.999v9c0,0.553,0.448,1.001,1,1.001h14c0.553,0,1-0.448,1-1.001v-9C15.499,4.696,15.052,4.249,14.499,4.249
				z M14.499,13.749c0,0.275-0.225,0.499-0.5,0.499h-13c-0.276,0-0.5-0.224-0.5-0.499V5.748c0-0.276,0.224-0.5,0.5-0.5h13
				c0.275,0,0.5,0.224,0.5,0.5V13.749z M4.999,9.248h-3c-0.276,0-0.5,0.224-0.5,0.5s0.224,0.5,0.5,0.5h3c0.276,0,0.5-0.224,0.5-0.5
				S5.275,9.248,4.999,9.248z M4.999,11.249h-3c-0.276,0-0.5,0.224-0.5,0.499c0,0.277,0.224,0.501,0.5,0.501h3
				c0.276,0,0.5-0.224,0.5-0.501C5.499,11.473,5.275,11.249,4.999,11.249z M4.999,7.249h-3c-0.276,0-0.5,0.224-0.5,0.499
				c0,0.276,0.224,0.501,0.5,0.501h3c0.276,0,0.5-0.225,0.5-0.501C5.499,7.473,5.275,7.249,4.999,7.249z M9.999,6.248
				c-1.934,0-3.5,1.567-3.5,3.5c0,1.934,1.566,3.5,3.5,3.5s3.5-1.566,3.5-3.5C13.499,7.815,11.933,6.248,9.999,6.248z M9.999,12.249
				c-1.381,0-2.5-1.12-2.5-2.501c0-1.38,1.12-2.499,2.5-2.499s2.5,1.119,2.5,2.499C12.499,11.129,11.38,12.249,9.999,12.249z"/>
		</g>
	</g>
</g>
<g id="Layer_1">
</g>
</svg>
