<?xml version="1.0" encoding="iso-8859-1"?>
<!-- Generator: Adobe Illustrator 16.0.0, SVG Export Plug-In . SVG Version: 6.00 Build 0)  -->
<!DOCTYPE svg PUBLIC "-//W3C//DTD SVG 1.1//EN" "http://www.w3.org/Graphics/SVG/1.1/DTD/svg11.dtd">
<svg version="1.1" xmlns="http://www.w3.org/2000/svg" xmlns:xlink="http://www.w3.org/1999/xlink" x="0px" y="0px" width="17px"
	 height="16px" viewBox="0 0 17 16" style="enable-background:new 0 0 17 16;" xml:space="preserve">
<g id="tool-magic-wand-a" style="enable-background:new    ;">
	<g id="tool-magic-wand-a_1_">
		<g>
			<path d="M6.201,8.583l-6.701,6.7l0.717,0.718l4.021-4.021L6.917,9.3C6.783,9.199,6.646,9.101,6.523,8.979
				C6.4,8.854,6.301,8.719,6.201,8.583z M5.548,5.998H2.503v0.999h3.043C5.5,6.665,5.5,6.33,5.548,5.998z M6.523,4.033
				c0.114-0.114,0.243-0.205,0.368-0.301L4.159,1.001L3.491,1.668L6.223,4.4C6.318,4.275,6.409,4.147,6.523,4.033z M8.503,9.954
				v3.043h1V9.953C9.171,10.001,8.835,10.001,8.503,9.954z M11.468,8.979c-0.113,0.112-0.24,0.202-0.365,0.297l2.732,2.731
				l0.668-0.668l-2.732-2.732C11.675,8.733,11.583,8.862,11.468,8.979z M12.442,5.998c0.049,0.332,0.049,0.667,0.002,0.999
				l3.053,0.008v-1L12.442,5.998z M11.769,4.402l2.734-2.734l-0.668-0.667l-2.734,2.733c0.125,0.095,0.252,0.185,0.367,0.299
				C11.583,4.148,11.673,4.276,11.769,4.402z M8.503,3.057c0.332-0.047,0.668-0.047,1,0.001v-3.061h-1V3.057z"/>
		</g>
	</g>
</g>
<g id="Layer_1">
</g>
</svg>
