<?xml version="1.0" encoding="iso-8859-1"?>
<!-- Generator: Adobe Illustrator 16.0.0, SVG Export Plug-In . SVG Version: 6.00 Build 0)  -->
<!DOCTYPE svg PUBLIC "-//W3C//DTD SVG 1.1//EN" "http://www.w3.org/Graphics/SVG/1.1/DTD/svg11.dtd">
<svg version="1.1" xmlns="http://www.w3.org/2000/svg" xmlns:xlink="http://www.w3.org/1999/xlink" x="0px" y="0px" width="16px"
	 height="16px" viewBox="0 0 16 16" style="enable-background:new 0 0 16 16;" xml:space="preserve">
<g id="transport-car-b" style="enable-background:new    ;">
	<g id="transport-car-b_1_">
		<g>
			<path d="M15.838,8.189L15.8,8L15,4c0-1.656-1.343-3-3-3H6C4.343,1,3,2.343,3,4L2.162,8.189C1.478,8.506,1,9.195,1,10v3v2h1v1
				c0,0.553,0.448,1,1,1h1c0.553,0,1-0.447,1-1v-1h8v1c0,0.553,0.448,1,1,1h1c0.553,0,1-0.447,1-1v-1h1v-2v-3
				C17,9.195,16.522,8.506,15.838,8.189z M4,4c0-1.104,0.896-2,2-2h6c1.104,0,2,0.896,2,2l0.8,4H3.2L4,4z M4,15.5
				C4,15.777,3.776,16,3.5,16S3,15.777,3,15.5V15h1V15.5z M15,15.5c0,0.277-0.224,0.5-0.5,0.5S14,15.777,14,15.5V15h1V15.5z M16,13
				c0,0,0,0,0,0.002v1H2v-1C2,13,2,13,2,13v-3c0-0.553,0.448-1,1-1h12c0.553,0,1,0.447,1,1V13z M13.5,10c-0.828,0-1.5,0.672-1.5,1.5
				s0.672,1.5,1.5,1.5c0.829,0,1.5-0.672,1.5-1.5S14.329,10,13.5,10z M13.5,12c-0.276,0-0.5-0.225-0.5-0.5s0.224-0.5,0.5-0.5
				s0.5,0.225,0.5,0.5S13.776,12,13.5,12z M4.5,10C3.672,10,3,10.672,3,11.5S3.672,13,4.5,13S6,12.328,6,11.5S5.328,10,4.5,10z
				 M4.5,12C4.224,12,4,11.775,4,11.5S4.224,11,4.5,11S5,11.225,5,11.5S4.776,12,4.5,12z"/>
		</g>
	</g>
</g>
<g id="Layer_1">
</g>
</svg>
