<?xml version="1.0" encoding="iso-8859-1"?>
<!-- Generator: Adobe Illustrator 16.0.0, SVG Export Plug-In . SVG Version: 6.00 Build 0)  -->
<!DOCTYPE svg PUBLIC "-//W3C//DTD SVG 1.1//EN" "http://www.w3.org/Graphics/SVG/1.1/DTD/svg11.dtd">
<svg version="1.1" xmlns="http://www.w3.org/2000/svg" xmlns:xlink="http://www.w3.org/1999/xlink" x="0px" y="0px" width="16px"
	 height="16px" viewBox="0 0 16 16" style="enable-background:new 0 0 16 16;" xml:space="preserve">
<g id="transport-bicycle-a" style="enable-background:new    ;">
	<g id="transport-bicycle-a_1_">
		<g>
			<path d="M13.5,8.5c-0.166,0-0.326,0.026-0.486,0.049l-1.465-5.672c-0.064-0.235-0.289-0.378-0.529-0.373
				C11.014,2.504,11.008,2.5,11,2.5H8.5C8.224,2.5,8,2.724,8,3s0.224,0.5,0.5,0.5h2.111l0.26,1.012
				c-0.09,0.021-0.176,0.058-0.246,0.127L6.473,9.11c-0.166-0.113-0.345-0.208-0.53-0.292c-0.01-0.024,0.004-0.052-0.01-0.076
				L3.962,4.812C3.959,4.806,3.956,4.801,3.953,4.795l-0.02-0.041C3.925,4.74,3.912,4.732,3.903,4.72
				C3.877,4.684,3.851,4.65,3.817,4.622C3.799,4.607,3.781,4.597,3.761,4.584c-0.035-0.021-0.069-0.04-0.109-0.053
				C3.628,4.522,3.604,4.521,3.578,4.517C3.551,4.512,3.527,4.5,3.5,4.5h-2C1.224,4.5,1,4.724,1,5s0.224,0.5,0.5,0.5h1.688
				l1.512,3.016C4.633,8.512,4.568,8.5,4.5,8.5C2.567,8.5,1,10.067,1,12c0,1.934,1.567,3.5,3.5,3.5c1.762,0,3.205-1.306,3.449-3
				h2.102c0.244,1.694,1.688,3,3.449,3c1.934,0,3.5-1.566,3.5-3.5C17,10.067,15.434,8.5,13.5,8.5z M4.5,12.5h2.449
				c-0.231,1.142-1.24,2-2.449,2C3.119,14.5,2,13.381,2,12c0-1.38,1.119-2.5,2.5-2.5c1.209,0,2.218,0.858,2.449,2H4.5
				C4.224,11.5,4,11.724,4,12S4.224,12.5,4.5,12.5z M7.955,11.5c-0.095-0.634-0.357-1.211-0.744-1.688l3.936-4.238l0.848,3.28
				c-1.029,0.493-1.748,1.479-1.922,2.646H7.955z M13.5,14.5c-1.381,0-2.5-1.119-2.5-2.5c0-1.38,1.119-2.5,2.5-2.5S16,10.62,16,12
				C16,13.381,14.881,14.5,13.5,14.5z"/>
		</g>
	</g>
</g>
<g id="Layer_1">
</g>
</svg>
