<?xml version="1.0" encoding="iso-8859-1"?>
<!-- Generator: Adobe Illustrator 16.0.0, SVG Export Plug-In . SVG Version: 6.00 Build 0)  -->
<!DOCTYPE svg PUBLIC "-//W3C//DTD SVG 1.1//EN" "http://www.w3.org/Graphics/SVG/1.1/DTD/svg11.dtd">
<svg version="1.1" xmlns="http://www.w3.org/2000/svg" xmlns:xlink="http://www.w3.org/1999/xlink" x="0px" y="0px" width="16px"
	 height="16px" viewBox="0 0 16 16" style="enable-background:new 0 0 16 16;" xml:space="preserve">
<g id="transport-truck" style="enable-background:new    ;">
	<g id="transport-truck_1_">
		<g>
			<path d="M16.5,4.993H12V3.998C12,3.447,11.553,3,11,3H2C1.448,3,1,3.447,1,3.998v6.989c0,0.552,0.448,0.999,1,0.999h0.054
				C2.02,12.152,2,12.324,2,12.501C2,13.881,3.119,15,4.5,15C5.88,15,7,13.881,7,12.501c0-0.177-0.02-0.349-0.054-0.515h3.109
				C10.02,12.152,10,12.324,10,12.501C10,13.881,11.119,15,12.5,15s2.5-1.119,2.5-2.499c0-0.177-0.02-0.349-0.055-0.515H16.5
				c0.275,0,0.5-0.224,0.5-0.5V9.01V7.999V5.493C17,5.217,16.775,4.993,16.5,4.993z M4.5,13.988c-0.829,0-1.5-0.666-1.5-1.487
				c0-0.822,0.671-1.488,1.5-1.488c0.828,0,1.5,0.666,1.5,1.488C6,13.322,5.328,13.988,4.5,13.988z M10.51,11.002
				c-0.004,0-0.006,0.002-0.01,0.002H6.491c-0.457-0.605-1.175-1.003-1.991-1.003c-0.817,0-1.535,0.397-1.991,1.003H2.5
				c-0.276,0-0.5-0.224-0.5-0.499V4.511c0-0.275,0.224-0.499,0.5-0.499h8c0.275,0,0.5,0.224,0.5,0.499v3.488V9.01v1.495
				c0,0.003-0.002,0.006-0.002,0.009C10.813,10.653,10.65,10.817,10.51,11.002z M12.5,13.988c-0.828,0-1.5-0.666-1.5-1.487
				c0-0.822,0.672-1.488,1.5-1.488s1.5,0.666,1.5,1.488C14,13.322,13.328,13.988,12.5,13.988z M16,11.004h-1.51
				c-0.455-0.605-1.174-1.003-1.99-1.003c-0.172,0-0.338,0.018-0.5,0.05V9.01h4V11.004z M16,7.999h-4V6.005h4V7.999z"/>
		</g>
	</g>
</g>
<g id="Layer_1">
</g>
</svg>
