<?xml version="1.0" encoding="iso-8859-1"?>
<!-- Generator: Adobe Illustrator 16.0.0, SVG Export Plug-In . SVG Version: 6.00 Build 0)  -->
<!DOCTYPE svg PUBLIC "-//W3C//DTD SVG 1.1//EN" "http://www.w3.org/Graphics/SVG/1.1/DTD/svg11.dtd">
<svg version="1.1" xmlns="http://www.w3.org/2000/svg" xmlns:xlink="http://www.w3.org/1999/xlink" x="0px" y="0px" width="16px"
	 height="16px" viewBox="0 0 16 16" style="enable-background:new 0 0 16 16;" xml:space="preserve">
<g id="transport-car" style="enable-background:new    ;">
	<g id="transport-car_1_">
		<g>
			<path d="M15.66,7.298L15,3.999C14.5,2.5,13.656,1,12,1H6C4.343,1,3.5,2.5,3,3.999L2.34,7.298C1.546,7.717,1,8.54,1,9.5
				c0,0.815,0.396,1.532,1,1.988V13c0,0.738,0.404,1.376,1,1.723V16c0,0.553,0.448,1,1,1h1c0.552,0,1-0.447,1-1v-1h6v1
				c0,0.553,0.447,1,1,1h1c0.553,0,1-0.447,1-1v-1.277c0.596-0.347,1-0.984,1-1.723v-1.512c0.604-0.456,1-1.173,1-1.988
				C17,8.54,16.453,7.717,15.66,7.298z M4,3.999c0.5-0.999,0.896-2,2-2h6c1.104,0,1.5,1.001,2,2l0.602,3.012
				C14.568,7.009,14.535,7,14.5,7c-0.814,0-1.533,0.396-1.988,1H5.488C5.032,7.396,4.315,7,3.5,7C3.465,7,3.432,7.009,3.397,7.011
				L4,3.999z M2,9.5C2,8.672,2.671,8,3.5,8C4.328,8,5,8.672,5,9.5S4.328,11,3.5,11C2.671,11,2,10.328,2,9.5z M5,15.5
				C5,15.776,4.776,16,4.5,16C4.224,16,4,15.776,4,15.5V15h1V15.5z M14,15.5c0,0.276-0.225,0.5-0.5,0.5S13,15.776,13,15.5V15h1V15.5
				z M14,14H4c-0.552,0-1-0.447-1-1h12C15,13.553,14.553,14,14,14z M15,12h-0.5h-11H3v-0.05C3.162,11.982,3.329,12,3.5,12
				C4.88,12,6,10.881,6,9.5C6,9.329,5.982,9.161,5.949,9h6.102C12.018,9.161,12,9.329,12,9.5c0,1.381,1.119,2.5,2.5,2.5
				c0.172,0,0.338-0.018,0.5-0.05V12z M14.5,11c-0.828,0-1.5-0.672-1.5-1.5S13.672,8,14.5,8S16,8.672,16,9.5S15.328,11,14.5,11z"/>
		</g>
	</g>
</g>
<g id="Layer_1">
</g>
</svg>
