<?xml version="1.0" encoding="iso-8859-1"?>
<!-- Generator: Adobe Illustrator 16.0.0, SVG Export Plug-In . SVG Version: 6.00 Build 0)  -->
<!DOCTYPE svg PUBLIC "-//W3C//DTD SVG 1.1//EN" "http://www.w3.org/Graphics/SVG/1.1/DTD/svg11.dtd">
<svg version="1.1" xmlns="http://www.w3.org/2000/svg" xmlns:xlink="http://www.w3.org/1999/xlink" x="0px" y="0px" width="16px"
	 height="16px" viewBox="0 0 16 16" style="enable-background:new 0 0 16 16;" xml:space="preserve">
<g id="transport-truck-a" style="enable-background:new    ;">
	<g id="transport-truck-a_1_">
		<g>
			<path d="M16,5.493c0-0.276-0.225-0.5-0.5-0.5H12V3.998C12,3.446,11.553,3,11,3H2C1.448,3,1,3.446,1,3.998v6.989
				c0,0.552,0.448,0.998,1,0.998h0.054C2.02,12.152,2,12.324,2,12.501C2,13.881,3.119,15,4.5,15S7,13.881,7,12.501
				c0-0.177-0.02-0.349-0.054-0.516h3.109C10.02,12.152,10,12.324,10,12.501C10,13.881,11.119,15,12.5,15s2.5-1.119,2.5-2.499
				c0-0.177-0.02-0.349-0.055-0.516H16.5c0.275,0,0.5-0.224,0.5-0.499L16,5.493z M12,6h3l0.402,2.008H12V6z M4.5,13.988
				c-0.829,0-1.5-0.666-1.5-1.487c0-0.822,0.671-1.488,1.5-1.488c0.828,0,1.5,0.666,1.5,1.488C6,13.322,5.328,13.988,4.5,13.988z
				 M10.51,11.002c-0.004,0-0.006,0.002-0.01,0.002H6.491c-0.456-0.605-1.175-1.003-1.991-1.003c-0.817,0-1.535,0.397-1.991,1.003
				H2.5c-0.276,0-0.5-0.224-0.5-0.499V4.511c0-0.275,0.224-0.499,0.5-0.499h8c0.275,0,0.5,0.224,0.5,0.499v3.497v0.981v1.516
				c0,0.003-0.002,0.006-0.002,0.009C10.813,10.653,10.65,10.817,10.51,11.002z M12.5,13.988c-0.828,0-1.5-0.666-1.5-1.487
				c0-0.822,0.672-1.488,1.5-1.488s1.5,0.666,1.5,1.488C14,13.322,13.328,13.988,12.5,13.988z M14.488,11
				c-0.457-0.604-1.174-0.999-1.988-0.999c-0.172,0-0.338,0.018-0.5,0.051V8.989h3.598L16,11H14.488z"/>
		</g>
	</g>
</g>
<g id="Layer_1">
</g>
</svg>
