<?xml version="1.0" encoding="iso-8859-1"?>
<!-- Generator: Adobe Illustrator 16.0.0, SVG Export Plug-In . SVG Version: 6.00 Build 0)  -->
<!DOCTYPE svg PUBLIC "-//W3C//DTD SVG 1.1//EN" "http://www.w3.org/Graphics/SVG/1.1/DTD/svg11.dtd">
<svg version="1.1" xmlns="http://www.w3.org/2000/svg" xmlns:xlink="http://www.w3.org/1999/xlink" x="0px" y="0px" width="16px"
	 height="16px" viewBox="0 0 16 16" style="enable-background:new 0 0 16 16;" xml:space="preserve">
<g id="transport-ship" style="enable-background:new    ;">
	<g id="transport-ship_1_">
		<g>
			<path d="M12.5,8.269V3.999h-2v-2c0-0.553-0.447-1-1-1h-1c-0.552,0-1,0.447-1,1v2h-2v4.268l-3,1.091l2,7.645h9l2-7.645L12.5,8.269
				z M8.5,2.499c0-0.276,0.224-0.5,0.5-0.5c0.276,0,0.5,0.224,0.5,0.5v1.5h-1V2.499z M8.5,15.982H5.269l-1.565-5.98l4.417-1.606
				L8.5,8.391V15.982z M6.5,7.903V4.998h5v2.909l-2.509-0.91L6.5,7.903z M12.73,15.982H9.5V8.379l0.311-0.004l4.484,1.626
				L12.73,15.982z"/>
		</g>
	</g>
</g>
<g id="Layer_1">
</g>
</svg>
