<?xml version="1.0" encoding="iso-8859-1"?>
<!-- Generator: Adobe Illustrator 16.0.0, SVG Export Plug-In . SVG Version: 6.00 Build 0)  -->
<!DOCTYPE svg PUBLIC "-//W3C//DTD SVG 1.1//EN" "http://www.w3.org/Graphics/SVG/1.1/DTD/svg11.dtd">
<svg version="1.1" xmlns="http://www.w3.org/2000/svg" xmlns:xlink="http://www.w3.org/1999/xlink" x="0px" y="0px" width="16px"
	 height="16px" viewBox="0 0 16 16" style="enable-background:new 0 0 16 16;" xml:space="preserve">
<g id="transport-train" style="enable-background:new    ;">
	<g id="transport-train_1_">
		<g>
			<path d="M7,4h4V3H7V4z M15,10.751V10V9V6V5V2c0-0.553-0.447-1-1-1H4C3.447,1,3,1.447,3,2v3v1v3v1v1c0,0.001,0,0.002,0,0.003
				v1.998h12V10.751z M6,12H4v-1v-1h0.999C4.999,10,5,10,5,10c0,0,0,0,0.001,0H6V12z M11,12H7v-2h4V12z M14,12h-2v-2h0.998H13
				c0,0,0,0,0.002,0H14V12z M14,8.5V9h-0.5h-9H4V8.5V6h10V8.5z M14,5H4V2.5C4,2.224,4.224,2,4.5,2h9C13.775,2,14,2.224,14,2.5V5z
				 M1,16v1h16v-1H1z M16,14H2v1h14V14z"/>
		</g>
	</g>
</g>
<g id="Layer_1">
</g>
</svg>
