<?xml version="1.0" encoding="iso-8859-1"?>
<!-- Generator: Adobe Illustrator 16.0.0, SVG Export Plug-In . SVG Version: 6.00 Build 0)  -->
<!DOCTYPE svg PUBLIC "-//W3C//DTD SVG 1.1//EN" "http://www.w3.org/Graphics/SVG/1.1/DTD/svg11.dtd">
<svg version="1.1" xmlns="http://www.w3.org/2000/svg" xmlns:xlink="http://www.w3.org/1999/xlink" x="0px" y="0px" width="16px"
	 height="16px" viewBox="0 0 16 16" style="enable-background:new 0 0 16 16;" xml:space="preserve">
<g id="transport-bus-a" style="enable-background:new    ;">
	<g id="transport-bus-a_1_">
		<g>
			<path d="M15,1H3C1.895,1,1,1.896,1,3v1v1v5v1v2c0,1.104,0.895,2,2,2h0.05c0.231,1.141,1.24,2,2.45,2c1.209,0,2.218-0.859,2.449-2
				h2.102c0.23,1.141,1.24,2,2.449,2s2.217-0.859,2.449-2H15c1.104,0,2-0.896,2-2v-2v-1V5V4V3C17,1.896,16.104,1,15,1z M2,5h2v5H2V5
				z M5.5,16C4.671,16,4,15.328,4,14.5S4.671,13,5.5,13C6.328,13,7,13.672,7,14.5S6.328,16,5.5,16z M12.5,16
				c-0.828,0-1.5-0.672-1.5-1.5s0.672-1.5,1.5-1.5s1.5,0.672,1.5,1.5S13.328,16,12.5,16z M16,13c0,0.552-0.447,1-1,1h-0.051
				c-0.232-1.142-1.24-2-2.449-2s-2.219,0.858-2.449,2H7.949c-0.231-1.142-1.24-2-2.449-2c-1.209,0-2.218,0.858-2.45,2H3
				c-0.552,0-1-0.448-1-1v-2h2h1h3h1h3h1h3V13z M5,10V5h3v5H5z M9,10V5h3v5H9z M16,10h-3V5h3V10z M16,4h-3h-1H9H8H5H4H2V3
				c0-0.553,0.448-1,1-1h12c0.553,0,1,0.447,1,1V4z"/>
		</g>
	</g>
</g>
<g id="Layer_1">
</g>
</svg>
