<?xml version="1.0" encoding="iso-8859-1"?>
<!-- Generator: Adobe Illustrator 16.0.0, SVG Export Plug-In . SVG Version: 6.00 Build 0)  -->
<!DOCTYPE svg PUBLIC "-//W3C//DTD SVG 1.1//EN" "http://www.w3.org/Graphics/SVG/1.1/DTD/svg11.dtd">
<svg version="1.1" xmlns="http://www.w3.org/2000/svg" xmlns:xlink="http://www.w3.org/1999/xlink" x="0px" y="0px" width="16px"
	 height="16px" viewBox="0 0 16 16" style="enable-background:new 0 0 16 16;" xml:space="preserve">
<g id="transport-alt-bus" style="enable-background:new    ;">
	<g id="transport-alt-bus_1_">
		<g>
			<path d="M15,1H3C1.895,1,1,1.896,1,3v1v1v5v1v2c0,1.104,0.895,2,2,2v1c0,0.553,0.448,1,1,1h1c0.552,0,1-0.447,1-1v-1h6v1
				c0,0.553,0.447,1,1,1h1c0.553,0,1-0.447,1-1v-1c1.104,0,2-0.896,2-2v-2v-1V5V4V3C17,1.896,16.104,1,15,1z M2,5h2v5H2V5z M5,15.5
				C5,15.776,4.776,16,4.5,16C4.224,16,4,15.776,4,15.5V15h1V15.5z M14,15.5c0,0.276-0.225,0.5-0.5,0.5S13,15.776,13,15.5V15h1V15.5
				z M16,13c0,0.553-0.447,1-1,1H3c-0.552,0-1-0.447-1-1v-2h2h1h3h1h3h1h3V13z M5,10V5h3v5H5z M9,10V5h3v5H9z M16,10h-3V5h3V10z
				 M16,4h-3h-1H9H8H5H4H2V3c0-0.553,0.448-1,1-1h12c0.553,0,1,0.447,1,1V4z"/>
		</g>
	</g>
</g>
<g id="Layer_1">
</g>
</svg>
