<?xml version="1.0" encoding="iso-8859-1"?>
<!-- Generator: Adobe Illustrator 16.0.0, SVG Export Plug-In . SVG Version: 6.00 Build 0)  -->
<!DOCTYPE svg PUBLIC "-//W3C//DTD SVG 1.1//EN" "http://www.w3.org/Graphics/SVG/1.1/DTD/svg11.dtd">
<svg version="1.1" xmlns="http://www.w3.org/2000/svg" xmlns:xlink="http://www.w3.org/1999/xlink" x="0px" y="0px" width="16px"
	 height="16px" viewBox="0 0 16 16" style="enable-background:new 0 0 16 16;" xml:space="preserve">
<g id="transport-bicycle" style="enable-background:new    ;">
	<g id="transport-bicycle_1_">
		<g>
			<path d="M13.553,7.506l-0.846-3.054C12.879,4.372,13,4.201,13,4c0-0.276-0.225-0.5-0.5-0.5h-0.391
				c-0.006-0.001-0.014,0.001-0.02,0H10.5C10.225,3.5,10,3.724,10,4s0.225,0.5,0.5,0.5h1.117l0.83,3H7v-2h0.5C7.776,5.5,8,5.276,8,5
				S7.776,4.5,7.5,4.5h-2C5.224,4.5,5,4.724,5,5s0.224,0.5,0.5,0.5H6v2H4.5C2.567,7.5,1,9.066,1,11s1.567,3.5,3.5,3.5
				c1.762,0,3.205-1.306,3.449-3h2.102c0.244,1.694,1.688,3,3.449,3c1.934,0,3.5-1.566,3.5-3.5C17,9.086,15.461,7.535,13.553,7.506z
				 M4.5,13.5C3.119,13.5,2,12.381,2,11s1.119-2.5,2.5-2.5c1.209,0,2.218,0.859,2.449,2H4.5C4.224,10.5,4,10.724,4,11
				s0.224,0.5,0.5,0.5h2.45C6.718,12.642,5.709,13.5,4.5,13.5z M10.041,10.5H7.949c-0.113-0.782-0.489-1.474-1.027-2h4.191
				C10.559,9.025,10.156,9.707,10.041,10.5z M13.5,13.5c-1.381,0-2.5-1.119-2.5-2.5c0-1.121,0.742-2.059,1.76-2.376l0.691,2.499
				c0.076,0.276,0.369,0.439,0.652,0.366c0.285-0.075,0.453-0.357,0.377-0.633l-0.643-2.322C15.057,8.701,16,9.735,16,11
				C16,12.381,14.881,13.5,13.5,13.5z"/>
		</g>
	</g>
</g>
<g id="Layer_1">
</g>
</svg>
