<?xml version="1.0" encoding="iso-8859-1"?>
<!-- Generator: Adobe Illustrator 16.0.0, SVG Export Plug-In . SVG Version: 6.00 Build 0)  -->
<!DOCTYPE svg PUBLIC "-//W3C//DTD SVG 1.1//EN" "http://www.w3.org/Graphics/SVG/1.1/DTD/svg11.dtd">
<svg version="1.1" xmlns="http://www.w3.org/2000/svg" xmlns:xlink="http://www.w3.org/1999/xlink" x="0px" y="0px" width="16px"
	 height="16px" viewBox="0 0 16 16" style="enable-background:new 0 0 16 16;" xml:space="preserve">
<g id="transport-bus" style="enable-background:new    ;">
	<g id="transport-bus_1_">
		<g>
			<path d="M7,4h4V3H7V4z M15,1H3C2.448,1,2,1.447,2,2v3v1v5v1v1c0,0.738,0.404,1.376,1,1.723V16.5C3,16.776,3.224,17,3.5,17
				C3.776,17,4,16.776,4,16.5V15h10v1.5c0,0.276,0.225,0.5,0.5,0.5s0.5-0.224,0.5-0.5v-1.777c0.596-0.347,1-0.984,1-1.723v-1v-1V6V5
				V2C16,1.447,15.553,1,15,1z M4,14c-0.553,0-1-0.447-1-1s0.447-1,1-1c0.552,0,1,0.447,1,1S4.552,14,4,14z M12.277,14H5.723
				C5.894,13.705,6,13.366,6,13s-0.106-0.705-0.277-1h6.555C12.105,12.295,12,12.634,12,13S12.105,13.705,12.277,14z M14,14
				c-0.553,0-1-0.447-1-1s0.447-1,1-1s1,0.447,1,1S14.553,14,14,14z M15,10.5V11h-0.5h-11H3v-0.5V6h12V10.5z M15,5H3V2.5
				C3,2.224,3.224,2,3.5,2h11C14.775,2,15,2.224,15,2.5V5z"/>
		</g>
	</g>
</g>
<g id="Layer_1">
</g>
</svg>
