<?xml version="1.0" encoding="iso-8859-1"?>
<!-- Generator: Adobe Illustrator 16.0.0, SVG Export Plug-In . SVG Version: 6.00 Build 0)  -->
<!DOCTYPE svg PUBLIC "-//W3C//DTD SVG 1.1//EN" "http://www.w3.org/Graphics/SVG/1.1/DTD/svg11.dtd">
<svg version="1.1" xmlns="http://www.w3.org/2000/svg" xmlns:xlink="http://www.w3.org/1999/xlink" x="0px" y="0px" width="16px"
	 height="16px" viewBox="0 0 16 16" style="enable-background:new 0 0 16 16;" xml:space="preserve">
<g id="transport-car-c" style="enable-background:new    ;">
	<g id="transport-car-c_1_">
		<g>
			<path d="M4.5,10C3.672,10,3,10.672,3,11.5S3.672,13,4.5,13S6,12.328,6,11.5S5.328,10,4.5,10z M4.5,12C4.224,12,4,11.775,4,11.5
				S4.224,11,4.5,11S5,11.225,5,11.5S4.776,12,4.5,12z M15.838,8.189L15,4c0-1.656-1.343-3-3-3H6C4.343,1,3,2.343,3,4L2.162,8.189
				C1.478,8.506,1,9.195,1,10v3v2h1v1.5C2,16.775,2.224,17,2.5,17S3,16.775,3,16.5V15h12v1.5c0,0.275,0.225,0.5,0.5,0.5
				c0.276,0,0.5-0.225,0.5-0.5V15h1v-2v-3C17,9.195,16.522,8.506,15.838,8.189z M4,4c0-1.104,0.896-2,2-2h6c1.104,0,2,0.896,2,2
				l0.8,4H3.2L4,4z M16,13c0,0,0,0,0,0.002v1h-0.75v-0.037C15.17,13.986,15.087,14,15,14H3c-0.087,0-0.17-0.014-0.25-0.035v0.037H2
				v-1C2,13,2,13,2,13v-3c0-0.553,0.448-1,1-1h12c0.553,0,1,0.447,1,1V13z M13.5,10c-0.828,0-1.5,0.672-1.5,1.5s0.672,1.5,1.5,1.5
				c0.829,0,1.5-0.672,1.5-1.5S14.329,10,13.5,10z M13.5,12c-0.276,0-0.5-0.225-0.5-0.5s0.224-0.5,0.5-0.5s0.5,0.225,0.5,0.5
				S13.776,12,13.5,12z"/>
		</g>
	</g>
</g>
<g id="Layer_1">
</g>
</svg>
