<?xml version="1.0" encoding="iso-8859-1"?>
<!-- Generator: Adobe Illustrator 16.0.0, SVG Export Plug-In . SVG Version: 6.00 Build 0)  -->
<!DOCTYPE svg PUBLIC "-//W3C//DTD SVG 1.1//EN" "http://www.w3.org/Graphics/SVG/1.1/DTD/svg11.dtd">
<svg version="1.1" xmlns="http://www.w3.org/2000/svg" xmlns:xlink="http://www.w3.org/1999/xlink" x="0px" y="0px" width="16px"
	 height="16px" viewBox="0 0 16 16" style="enable-background:new 0 0 16 16;" xml:space="preserve">
<g id="user-single-a" style="enable-background:new    ;">
	<g id="user-single-a_1_">
		<g>
			<path d="M12.453,9.17C13.098,8.304,13.5,7.209,13.5,6C13.5,3.239,11.484,1,9,1C6.515,1,4.5,3.239,4.5,6
				c0,1.21,0.402,2.305,1.046,3.17C4.359,9.57,3.5,10.678,3.5,12v2c0,1.656,1.343,3,3,3h5c1.656,0,3-1.344,3-3v-2
				C14.5,10.678,13.641,9.57,12.453,9.17z M5.5,6c0-2.209,1.567-4,3.5-4c1.934,0,3.5,1.791,3.5,4s-1.566,4-3.5,4
				C7.067,10,5.5,8.208,5.5,6z M13.5,14c0,1.104-0.896,2-2,2h-5c-1.104,0-2-0.896-2-2v-2c0-1.051,0.813-1.902,1.842-1.984
				C7.088,10.627,8.001,11,9,11c0.998,0,1.912-0.373,2.658-0.984C12.688,10.098,13.5,10.949,13.5,12V14z"/>
		</g>
	</g>
</g>
<g id="Layer_1">
</g>
</svg>
