<?xml version="1.0" encoding="iso-8859-1"?>
<!-- Generator: Adobe Illustrator 16.0.0, SVG Export Plug-In . SVG Version: 6.00 Build 0)  -->
<!DOCTYPE svg PUBLIC "-//W3C//DTD SVG 1.1//EN" "http://www.w3.org/Graphics/SVG/1.1/DTD/svg11.dtd">
<svg version="1.1" xmlns="http://www.w3.org/2000/svg" xmlns:xlink="http://www.w3.org/1999/xlink" x="0px" y="0px" width="16px"
	 height="16px" viewBox="0 0 16 16" style="enable-background:new 0 0 16 16;" xml:space="preserve">
<g id="user-single-a-list" style="enable-background:new    ;">
	<g id="user-single-a-list_1_">
		<g>
			<path d="M12.5,5h4C16.776,5,17,4.776,17,4.5C17,4.224,16.776,4,16.5,4h-4C12.225,4,12,4.224,12,4.5C12,4.776,12.225,5,12.5,5z
				 M16.5,7h-4C12.225,7,12,7.224,12,7.5C12,7.776,12.225,8,12.5,8h4C16.776,8,17,7.776,17,7.5C17,7.224,16.776,7,16.5,7z
				 M9.954,9.17C10.598,8.304,11,7.209,11,6C11,3.239,8.985,1,6.5,1S2,3.239,2,6c0,1.21,0.402,2.305,1.046,3.17
				C1.86,9.57,1,10.68,1,12v2c0,1.656,1.343,3,3,3h5c1.657,0,3-1.344,3-3v-2C12,10.68,11.141,9.57,9.954,9.17z M3,6
				C3,3.791,4.567,2,6.5,2S10,3.791,10,6s-1.567,4-3.5,4S3,8.208,3,6z M11,14c0,1.104-0.896,2-2,2H4c-1.104,0-2-0.896-2-2v-2
				c0-1.051,0.813-1.902,1.842-1.984C4.589,10.627,5.502,11,6.5,11s1.911-0.373,2.658-0.984C10.188,10.098,11,10.949,11,12V14z
				 M16.5,10h-3c-0.275,0-0.5,0.225-0.5,0.5s0.225,0.5,0.5,0.5h3c0.276,0,0.5-0.225,0.5-0.5S16.776,10,16.5,10z M16.5,13h-3
				c-0.275,0-0.5,0.225-0.5,0.5c0,0.277,0.225,0.5,0.5,0.5h3c0.276,0,0.5-0.223,0.5-0.5C17,13.225,16.776,13,16.5,13z"/>
		</g>
	</g>
</g>
<g id="Layer_1">
</g>
</svg>
