<?xml version="1.0" encoding="iso-8859-1"?>
<!-- Generator: Adobe Illustrator 16.0.0, SVG Export Plug-In . SVG Version: 6.00 Build 0)  -->
<!DOCTYPE svg PUBLIC "-//W3C//DTD SVG 1.1//EN" "http://www.w3.org/Graphics/SVG/1.1/DTD/svg11.dtd">
<svg version="1.1" xmlns="http://www.w3.org/2000/svg" xmlns:xlink="http://www.w3.org/1999/xlink" x="0px" y="0px" width="16px"
	 height="16px" viewBox="0 0 16 16" style="enable-background:new 0 0 16 16;" xml:space="preserve">
<g id="user-alt-minus" style="enable-background:new    ;">
	<g id="user-alt-minus_1_">
		<g>
			<path d="M10.001,10.516V12.1c0.604,0.146,1.239,0.308,1.845,0.47c0.258-0.334,0.557-0.636,0.906-0.875
				c-0.744-0.208-1.494-0.401-2.009-0.53c1.404-1.099,2.26-3.126,2.26-5.06C13.003,3.285,12.185,1,8.5,1
				C4.816,1,3.997,3.285,3.997,6.104c0,1.939,0.86,3.973,2.272,5.069c-1.337,0.327-4.129,1.047-4.501,1.428
				c-0.782,0.8-1.099,3.199-0.317,4.398h10.105c-0.181-0.311-0.32-0.644-0.413-0.999H2.001c-0.203-0.825,0.083-2.145,0.409-2.557
				c0.505-0.276,2.7-0.886,4.591-1.33v-1.597c-1.256-0.853-2-2.708-2-4.395c0-2.279,0.583-4.126,3.498-4.126
				s3.498,1.847,3.498,4.126C11.998,7.808,11.255,9.662,10.001,10.516z M16.501,14h-4c-0.275,0-0.5,0.225-0.5,0.5
				c0,0.276,0.225,0.501,0.5,0.501h4c0.276,0,0.5-0.225,0.5-0.501C17.001,14.225,16.777,14,16.501,14z"/>
		</g>
	</g>
</g>
<g id="Layer_1">
</g>
</svg>
