<?xml version="1.0" encoding="iso-8859-1"?>
<!-- Generator: Adobe Illustrator 16.0.0, SVG Export Plug-In . SVG Version: 6.00 Build 0)  -->
<!DOCTYPE svg PUBLIC "-//W3C//DTD SVG 1.1//EN" "http://www.w3.org/Graphics/SVG/1.1/DTD/svg11.dtd">
<svg version="1.1" xmlns="http://www.w3.org/2000/svg" xmlns:xlink="http://www.w3.org/1999/xlink" x="0px" y="0px" width="16px"
	 height="16px" viewBox="0 0 16 16" style="enable-background:new 0 0 16 16;" xml:space="preserve">
<g id="user-female-tick" style="enable-background:new    ;">
	<g id="user-female-tick_1_">
		<g>
			<path d="M9.698,11.536c0.266-0.146,0.509-0.332,0.742-0.536c1.158,0,2.645,0,3.059,0c-1,0-1-4.499-1-4.499h-0.021
				c0.008-0.133,0.023-0.266,0.023-0.396C12.501,3.286,11.683,1,7.999,1S3.496,3.286,3.496,6.104c0,0.131,0.016,0.264,0.024,0.396
				H3.5c0,0,0,4.499-1,4.499c0.414,0,1.902,0,3.06,0c0.238,0.208,0.488,0.398,0.76,0.546c-0.783,0.192-4.075,1.018-4.505,1.424
				c-0.776,0.733-1.167,2.565-0.391,3.664c0,0,0.443,0.366,6.606,0.366c1.196,0,2.169-0.014,2.969-0.036v-0.971l-3.067-0.008
				c0,0-5.43,0.014-5.432,0.015c-1.097-0.423-0.541-2.146,0.191-2.5C3.365,13.174,6.387,12.228,7,12.036v-1.255
				C6.592,10.607,6.222,10.345,5.904,10C5.549,10,4.258,10,4,10c0.5,0,0.5-3.499,0.5-3.499h0.028C4.52,6.374,4.5,6.247,4.5,6.122
				c0-2.278,0.583-4.126,3.498-4.126c2.915,0,3.498,1.848,3.498,4.126c0,0.125-0.02,0.252-0.027,0.379h0.03c0,0,0,3.499,0.5,3.499
				c-0.259,0-1.555,0-1.906,0C9.775,10.344,9.406,10.606,9,10.78v1.333c0.45,0.125,1.216,0.34,1.999,0.569V12
				C10.999,12,10.964,11.854,9.698,11.536z M16.857,12.143c-0.188-0.188-0.492-0.188-0.68,0l-2.679,2.679l-0.679-0.679
				c-0.188-0.188-0.491-0.188-0.679,0s-0.188,0.491,0,0.68l0.975,0.974c0.014,0.02,0.008,0.045,0.025,0.063
				c0.099,0.099,0.229,0.138,0.357,0.133c0.13,0.005,0.259-0.034,0.358-0.133c0.017-0.018,0.012-0.043,0.025-0.063l2.975-2.975
				C17.045,12.634,17.045,12.33,16.857,12.143z"/>
		</g>
	</g>
</g>
<g id="Layer_1">
</g>
</svg>
