<?xml version="1.0" encoding="iso-8859-1"?>
<!-- Generator: Adobe Illustrator 16.0.0, SVG Export Plug-In . SVG Version: 6.00 Build 0)  -->
<!DOCTYPE svg PUBLIC "-//W3C//DTD SVG 1.1//EN" "http://www.w3.org/Graphics/SVG/1.1/DTD/svg11.dtd">
<svg version="1.1" xmlns="http://www.w3.org/2000/svg" xmlns:xlink="http://www.w3.org/1999/xlink" x="0px" y="0px" width="16px"
	 height="16px" viewBox="0 0 16 16" style="enable-background:new 0 0 16 16;" xml:space="preserve">
<g id="user-alt-cross" style="enable-background:new    ;">
	<g id="user-alt-cross_1_">
		<g>
			<path d="M13.004,6.104C13.004,3.285,12.186,1,8.5,1C4.816,1,3.998,3.285,3.998,6.104c0,1.939,0.86,3.973,2.272,5.069
				c-1.337,0.327-4.129,1.047-4.501,1.428c-0.782,0.8-1.099,3.199-0.317,4.398h10.105c-0.181-0.311-0.32-0.644-0.413-0.999H2.002
				c-0.203-0.825,0.083-2.145,0.409-2.557c0.505-0.276,2.7-0.886,4.591-1.33v-1.597c-1.256-0.853-2-2.708-2-4.395
				c0-2.279,0.583-4.126,3.498-4.126c2.916,0,3.499,1.847,3.499,4.126c0,1.685-0.743,3.539-1.997,4.393V12.1
				c0.604,0.146,1.239,0.308,1.845,0.47c0.258-0.334,0.557-0.636,0.906-0.875c-0.744-0.208-1.494-0.401-2.009-0.53
				C12.148,10.065,13.004,8.038,13.004,6.104z M15.681,15.001l1.18-1.18c0.187-0.187,0.187-0.491,0-0.679
				c-0.188-0.188-0.492-0.188-0.68,0l-1.179,1.179l-1.179-1.179c-0.188-0.188-0.491-0.188-0.679,0s-0.188,0.492,0,0.679l1.179,1.18
				l-1.179,1.179c-0.188,0.188-0.188,0.49,0,0.679c0.188,0.188,0.491,0.188,0.679,0l1.179-1.179l1.179,1.179
				c0.188,0.188,0.492,0.188,0.68,0c0.187-0.188,0.187-0.491,0-0.679L15.681,15.001z"/>
		</g>
	</g>
</g>
<g id="Layer_1">
</g>
</svg>
