<?xml version="1.0" encoding="iso-8859-1"?>
<!-- Generator: Adobe Illustrator 16.0.0, SVG Export Plug-In . SVG Version: 6.00 Build 0)  -->
<!DOCTYPE svg PUBLIC "-//W3C//DTD SVG 1.1//EN" "http://www.w3.org/Graphics/SVG/1.1/DTD/svg11.dtd">
<svg version="1.1" xmlns="http://www.w3.org/2000/svg" xmlns:xlink="http://www.w3.org/1999/xlink" x="0px" y="0px" width="16px"
	 height="16px" viewBox="0 0 16 16" style="enable-background:new 0 0 16 16;" xml:space="preserve">
<g id="user-male-cross" style="enable-background:new    ;">
	<g id="user-male-cross_1_">
		<g>
			<path d="M9.004,1c-2.762,0-5,2.911-5,6.501c0,2.222,0.861,4.181,2.171,5.353C3.821,13.82,1.004,15.342,1.004,16
				c0,0.727,0.448,1,1,1h9v-1H2.271c0.914-0.693,3.183-1.813,4.888-2.471C7.73,13.826,8.351,14,9.004,14s1.273-0.174,1.846-0.469
				c0.053,0.02,0.101,0.037,0.154,0.059v-0.139c1.765-1.004,3-3.287,3-5.951C14.004,3.911,11.766,1,9.004,1z M9.004,13
				c-2.209,0-4-2.463-4-5.5c0-3.038,1.791-5.501,4-5.501s4,2.463,4,5.501C13.004,10.537,11.213,13,9.004,13z M15.734,14.992
				l1.108-1.109c0.204-0.203,0.204-0.535,0-0.738s-0.535-0.203-0.739,0l-1.107,1.109l-1.108-1.109c-0.204-0.203-0.535-0.203-0.739,0
				s-0.204,0.535,0,0.738l1.108,1.109L13.148,16.1c-0.204,0.205-0.204,0.535,0,0.74c0.204,0.203,0.535,0.203,0.739,0l1.108-1.109
				l1.107,1.109c0.204,0.203,0.535,0.203,0.739,0c0.204-0.205,0.204-0.535,0-0.74L15.734,14.992z"/>
		</g>
	</g>
</g>
<g id="Layer_1">
</g>
</svg>
