<?xml version="1.0" encoding="iso-8859-1"?>
<!-- Generator: Adobe Illustrator 16.0.0, SVG Export Plug-In . SVG Version: 6.00 Build 0)  -->
<!DOCTYPE svg PUBLIC "-//W3C//DTD SVG 1.1//EN" "http://www.w3.org/Graphics/SVG/1.1/DTD/svg11.dtd">
<svg version="1.1" xmlns="http://www.w3.org/2000/svg" xmlns:xlink="http://www.w3.org/1999/xlink" x="0px" y="0px" width="16px"
	 height="16px" viewBox="0 0 16 16" style="enable-background:new 0 0 16 16;" xml:space="preserve">
<g id="user-alt" style="enable-background:new    ;">
	<g id="user-alt_1_">
		<g>
			<path d="M15.743,12.602c-0.36-0.372-3.195-1.111-4.501-1.438c1.404-1.099,2.26-3.126,2.26-5.06C13.502,3.286,12.684,1,8.999,1
				C5.314,1,4.496,3.286,4.496,6.104c0,1.939,0.86,3.973,2.272,5.069c-1.337,0.327-4.129,1.047-4.501,1.428
				c-0.782,0.8-1.099,3.199-0.317,4.398h14.104C16.828,15.801,16.52,13.401,15.743,12.602z M15.5,16.001h-13
				c-0.203-0.825,0.083-2.145,0.409-2.557c0.505-0.276,2.7-0.886,4.591-1.33v-1.597c-1.256-0.853-2-2.708-2-4.395
				c0-2.279,0.583-4.127,3.498-4.127c2.916,0,3.499,1.848,3.499,4.127c0,1.685-0.743,3.539-1.997,4.393V12.1
				c1.881,0.451,4.088,1.071,4.601,1.346C15.423,13.86,15.702,15.176,15.5,16.001z"/>
		</g>
	</g>
</g>
<g id="Layer_1">
</g>
</svg>
