<?xml version="1.0" encoding="iso-8859-1"?>
<!-- Generator: Adobe Illustrator 16.0.0, SVG Export Plug-In . SVG Version: 6.00 Build 0)  -->
<!DOCTYPE svg PUBLIC "-//W3C//DTD SVG 1.1//EN" "http://www.w3.org/Graphics/SVG/1.1/DTD/svg11.dtd">
<svg version="1.1" xmlns="http://www.w3.org/2000/svg" xmlns:xlink="http://www.w3.org/1999/xlink" x="0px" y="0px" width="16px"
	 height="16px" viewBox="0 0 16 16" style="enable-background:new 0 0 16 16;" xml:space="preserve">
<g id="user-single-check" style="enable-background:new    ;">
	<g id="user-single-check_1_">
		<g>
			<path d="M11.927,11.461c-0.611-0.668-1.368-1.199-2.225-1.537C11.073,9.15,12,7.685,12,6C12,3.515,9.985,1.5,7.5,1.5
				C5.015,1.5,3,3.515,3,6c0,1.685,0.927,3.15,2.298,3.923C3.076,10.801,1.5,12.965,1.5,15.5v1h1v-1c0-2.762,2.238-5,5-5
				c1.492,0,2.816,0.668,3.732,1.703C11.43,11.924,11.667,11.682,11.927,11.461z M4,6c0-1.934,1.567-3.5,3.5-3.5S11,4.067,11,6
				c0,1.933-1.566,3.5-3.5,3.5S4,7.933,4,6z M16.357,12.609c-0.189-0.188-0.495-0.188-0.684,0l-2.695,2.701l-0.684-0.684
				c-0.188-0.189-0.494-0.189-0.683,0c-0.188,0.188-0.188,0.494,0,0.684l0.934,0.936c0.021,0.039,0.04,0.078,0.072,0.109
				c0.1,0.1,0.23,0.143,0.36,0.139c0.13,0.004,0.261-0.039,0.359-0.139c0.032-0.031,0.052-0.07,0.072-0.109l2.947-2.951
				C16.546,13.105,16.546,12.799,16.357,12.609z"/>
		</g>
	</g>
</g>
<g id="Layer_1">
</g>
</svg>
