<?xml version="1.0" encoding="iso-8859-1"?>
<!-- Generator: Adobe Illustrator 16.0.0, SVG Export Plug-In . SVG Version: 6.00 Build 0)  -->
<!DOCTYPE svg PUBLIC "-//W3C//DTD SVG 1.1//EN" "http://www.w3.org/Graphics/SVG/1.1/DTD/svg11.dtd">
<svg version="1.1" xmlns="http://www.w3.org/2000/svg" xmlns:xlink="http://www.w3.org/1999/xlink" x="0px" y="0px" width="16px"
	 height="16px" viewBox="0 0 16 16" style="enable-background:new 0 0 16 16;" xml:space="preserve">
<g id="user-contact-book" style="enable-background:new    ;">
	<g id="user-contact-book_1_">
		<g>
			<path d="M15,1H4C3.448,1,3,1.448,3,2v2H2.5C2.224,4,2,4.224,2,4.5C2,4.777,2.224,5,2.5,5H3V7H2.5C2.224,7,2,7.224,2,7.5
				C2,7.777,2.224,8,2.5,8H3v2H2.5C2.224,10,2,10.223,2,10.5C2,10.775,2.224,11,2.5,11H3v2H2.5C2.224,13,2,13.223,2,13.5
				C2,13.775,2.224,14,2.5,14H3v2c0,0.553,0.448,1,1,1h11c0.553,0,1-0.447,1-1V2C16,1.448,15.553,1,15,1z M12,16H4.5
				C4.224,16,4,15.775,4,15.5V14h0.5C4.776,14,5,13.775,5,13.5C5,13.223,4.776,13,4.5,13H4v-2h0.5C4.776,11,5,10.775,5,10.5
				C5,10.223,4.776,10,4.5,10H4V8h0.5C4.776,8,5,7.777,5,7.5C5,7.224,4.776,7,4.5,7H4V5h0.5C4.776,5,5,4.777,5,4.5
				C5,4.224,4.776,4,4.5,4H4V2.5C4,2.224,4.224,2,4.5,2H12V16z M15,15.5c0,0.275-0.225,0.5-0.5,0.5H13V2h1.5
				C14.775,2,15,2.224,15,2.5V15.5z"/>
		</g>
	</g>
</g>
<g id="Layer_1">
</g>
</svg>
