<?xml version="1.0" encoding="iso-8859-1"?>
<!-- Generator: Adobe Illustrator 16.0.0, SVG Export Plug-In . SVG Version: 6.00 Build 0)  -->
<!DOCTYPE svg PUBLIC "-//W3C//DTD SVG 1.1//EN" "http://www.w3.org/Graphics/SVG/1.1/DTD/svg11.dtd">
<svg version="1.1" xmlns="http://www.w3.org/2000/svg" xmlns:xlink="http://www.w3.org/1999/xlink" x="0px" y="0px" width="16px"
	 height="16px" viewBox="0 0 16 16" style="enable-background:new 0 0 16 16;" xml:space="preserve">
<g id="user-single-a-plus" style="enable-background:new    ;">
	<g id="user-single-a-plus_1_">
		<g>
			<path d="M15.5,14H14v-1.5c0-0.276-0.225-0.5-0.5-0.5S13,12.224,13,12.5V14h-1.5c-0.275,0-0.5,0.225-0.5,0.501
				c0,0.275,0.225,0.5,0.5,0.5H13v1.5C13,16.776,13.225,17,13.5,17s0.5-0.224,0.5-0.499v-1.5h1.5c0.275,0,0.5-0.225,0.5-0.5
				C16,14.225,15.775,14,15.5,14z M4.842,10.017c0.747,0.611,1.66,0.984,2.658,0.984c0.998,0,1.912-0.373,2.658-0.984
				c0.67,0.053,1.244,0.436,1.564,0.984h1.1c-0.309-0.86-0.998-1.537-1.869-1.831C11.598,8.305,12,7.21,12,6c0-2.761-2.016-5-4.5-5
				C5.015,1,3,3.239,3,6c0,1.21,0.402,2.305,1.046,3.17C2.86,9.57,2,10.68,2,12.001V14c0,1.657,1.343,3,3,3h5v-0.999H5
				c-1.104,0-2-0.896-2-2.001v-1.999C3,10.95,3.813,10.098,4.842,10.017z M4,6c0-2.209,1.567-4,3.5-4C9.434,2,11,3.791,11,6
				c0,2.21-1.566,4.001-3.5,4.001C5.567,10.001,4,8.21,4,6z"/>
		</g>
	</g>
</g>
<g id="Layer_1">
</g>
</svg>
