<?xml version="1.0" encoding="iso-8859-1"?>
<!-- Generator: Adobe Illustrator 16.0.0, SVG Export Plug-In . SVG Version: 6.00 Build 0)  -->
<!DOCTYPE svg PUBLIC "-//W3C//DTD SVG 1.1//EN" "http://www.w3.org/Graphics/SVG/1.1/DTD/svg11.dtd">
<svg version="1.1" xmlns="http://www.w3.org/2000/svg" xmlns:xlink="http://www.w3.org/1999/xlink" x="0px" y="0px" width="16px"
	 height="16px" viewBox="0 0 16 16" style="enable-background:new 0 0 16 16;" xml:space="preserve">
<g id="user-single-a-cross" style="enable-background:new    ;">
	<g id="user-single-a-cross_1_">
		<g>
			<path d="M14.17,13.984l1.18-1.188c0.188-0.189,0.188-0.495,0-0.685c-0.188-0.188-0.491-0.188-0.679,0l-1.181,1.188l-1.18-1.188
				c-0.188-0.188-0.492-0.188-0.68,0c-0.188,0.189-0.188,0.495,0,0.685l1.18,1.188l-1.18,1.188c-0.188,0.188-0.188,0.495,0,0.685
				c0.188,0.188,0.492,0.188,0.68,0l1.18-1.188l1.181,1.188c0.188,0.188,0.491,0.188,0.679,0c0.188-0.189,0.188-0.496,0-0.685
				L14.17,13.984z M5.444,10.017c0.771,0.611,1.713,0.984,2.744,0.984s1.974-0.373,2.743-0.984c0.692,0.053,1.284,0.436,1.616,0.984
				h1.136c-0.318-0.86-1.031-1.537-1.93-1.831c0.664-0.865,1.08-1.96,1.08-3.17c0-2.761-2.08-5-4.646-5S3.542,3.239,3.542,6
				c0,1.21,0.415,2.305,1.08,3.17c-1.225,0.4-2.112,1.51-2.112,2.831V14c0,1.657,1.387,3,3.097,3h4.903l0.001-0.998l-4.904-0.001
				c-1.14,0-2.064-0.896-2.064-2.001v-1.999C3.542,10.95,4.381,10.098,5.444,10.017z M4.575,6c0-2.209,1.617-4,3.613-4
				c1.995,0,3.613,1.791,3.613,4c0,2.21-1.618,4-3.613,4C6.192,10,4.575,8.21,4.575,6z"/>
		</g>
	</g>
</g>
<g id="Layer_1">
</g>
</svg>
