<?xml version="1.0" encoding="iso-8859-1"?>
<!-- Generator: Adobe Illustrator 16.0.0, SVG Export Plug-In . SVG Version: 6.00 Build 0)  -->
<!DOCTYPE svg PUBLIC "-//W3C//DTD SVG 1.1//EN" "http://www.w3.org/Graphics/SVG/1.1/DTD/svg11.dtd">
<svg version="1.1" xmlns="http://www.w3.org/2000/svg" xmlns:xlink="http://www.w3.org/1999/xlink" x="0px" y="0px" width="16px"
	 height="16px" viewBox="0 0 16 16" style="enable-background:new 0 0 16 16;" xml:space="preserve">
<g id="user-alt-check" style="enable-background:new    ;">
	<g id="user-alt-check_1_">
		<g>
			<path d="M10.002,10.516V12.1c0.604,0.146,1.239,0.308,1.845,0.47c0.258-0.334,0.557-0.636,0.906-0.875
				c-0.744-0.208-1.494-0.401-2.009-0.53c1.404-1.099,2.26-3.126,2.26-5.06C13.004,3.285,12.186,1,8.5,1
				C4.816,1,3.998,3.285,3.998,6.104c0,1.939,0.86,3.973,2.272,5.069c-1.337,0.327-4.129,1.047-4.501,1.428
				c-0.782,0.8-1.099,3.199-0.317,4.398h10.105c-0.181-0.311-0.321-0.644-0.413-0.999H2.002c-0.203-0.825,0.083-2.145,0.409-2.557
				c0.505-0.276,2.7-0.886,4.591-1.33v-1.597c-1.256-0.853-2-2.708-2-4.395c0-2.279,0.583-4.126,3.498-4.126
				c2.916,0,3.499,1.847,3.499,4.126C11.999,7.808,11.256,9.662,10.002,10.516z M16.86,12.143c-0.188-0.188-0.492-0.188-0.68,0
				l-2.679,2.679l-0.679-0.679c-0.188-0.188-0.491-0.188-0.679,0s-0.188,0.491,0,0.679l0.975,0.975
				c0.014,0.02,0.008,0.045,0.025,0.063c0.099,0.099,0.229,0.138,0.357,0.133c0.13,0.005,0.259-0.034,0.358-0.133
				c0.017-0.018,0.012-0.043,0.025-0.063l2.975-2.974C17.047,12.634,17.047,12.33,16.86,12.143z"/>
		</g>
	</g>
</g>
<g id="Layer_1">
</g>
</svg>
