<?xml version="1.0" encoding="iso-8859-1"?>
<!-- Generator: Adobe Illustrator 16.0.0, SVG Export Plug-In . SVG Version: 6.00 Build 0)  -->
<!DOCTYPE svg PUBLIC "-//W3C//DTD SVG 1.1//EN" "http://www.w3.org/Graphics/SVG/1.1/DTD/svg11.dtd">
<svg version="1.1" xmlns="http://www.w3.org/2000/svg" xmlns:xlink="http://www.w3.org/1999/xlink" x="0px" y="0px" width="16px"
	 height="16px" viewBox="0 0 16 16" style="enable-background:new 0 0 16 16;" xml:space="preserve">
<g id="user-single-a-check" style="enable-background:new    ;">
	<g id="user-single-a-check_1_">
		<g>
			<path d="M15.856,12.111c-0.188-0.188-0.493-0.188-0.681,0l-2.688,2.7l-0.681-0.685c-0.188-0.188-0.493-0.188-0.682,0
				c-0.188,0.189-0.188,0.495,0,0.685l0.978,0.982c0.014,0.02,0.009,0.045,0.025,0.063c0.1,0.1,0.229,0.14,0.359,0.134
				c0.13,0.006,0.26-0.034,0.358-0.134c0.018-0.018,0.012-0.043,0.026-0.063l2.983-2.998C16.044,12.606,16.044,12.301,15.856,12.111
				z M4.942,10.016C5.715,10.627,6.659,11,7.692,11c1.032,0,1.977-0.373,2.749-0.984c0.693,0.053,1.287,0.436,1.62,0.984h1.137
				c-0.318-0.86-1.033-1.537-1.934-1.831c0.666-0.865,1.082-1.96,1.082-3.17c0-2.761-2.084-5-4.654-5c-2.571,0-4.655,2.239-4.655,5
				c0,1.21,0.416,2.305,1.082,3.17c-1.228,0.4-2.117,1.51-2.117,2.831v1.999c0,1.657,1.39,3,3.104,3l4.896,0.002v-1L5.106,16
				c-1.144,0-2.069-0.896-2.069-2.001V12C3.037,10.949,3.878,10.097,4.942,10.016z M4.071,5.999c0-2.209,1.621-4,3.621-4
				c1.999,0,3.62,1.791,3.62,4c0,2.21-1.621,4.001-3.62,4.001C5.692,10,4.071,8.209,4.071,5.999z"/>
		</g>
	</g>
</g>
<g id="Layer_1">
</g>
</svg>
