<?xml version="1.0" encoding="iso-8859-1"?>
<!-- Generator: Adobe Illustrator 16.0.0, SVG Export Plug-In . SVG Version: 6.00 Build 0)  -->
<!DOCTYPE svg PUBLIC "-//W3C//DTD SVG 1.1//EN" "http://www.w3.org/Graphics/SVG/1.1/DTD/svg11.dtd">
<svg version="1.1" xmlns="http://www.w3.org/2000/svg" xmlns:xlink="http://www.w3.org/1999/xlink" x="0px" y="0px" width="16px"
	 height="16px" viewBox="0 0 16 16" style="enable-background:new 0 0 16 16;" xml:space="preserve">
<g id="user-key" style="enable-background:new    ;">
	<g id="user-key_1_">
		<g>
			<path d="M14.108,2.887c-1.857-1.856-4.868-1.856-6.726,0C5.656,4.614,5.557,7.328,7.041,9.194l-4.384,3.993
				c-0.144,0.131-0.181,0.318-0.123,0.483l-0.035,0.035l2.807,2.799l0.702-0.699l-2.264-2.258l1.363-1.241l2.195,2.199l0.699-0.7
				L5.84,11.64l1.902-1.733c1.868,1.536,4.621,1.452,6.366-0.293C15.965,7.756,15.965,4.745,14.108,2.887z M13.402,8.9
				c-1.463,1.464-3.836,1.464-5.3,0c-1.464-1.463-1.464-3.837,0-5.3c1.464-1.464,3.837-1.464,5.3,0
				C14.866,5.063,14.866,7.438,13.402,8.9z"/>
		</g>
	</g>
</g>
<g id="Layer_1">
</g>
</svg>
