<?xml version="1.0" encoding="iso-8859-1"?>
<!-- Generator: Adobe Illustrator 16.0.0, SVG Export Plug-In . SVG Version: 6.00 Build 0)  -->
<!DOCTYPE svg PUBLIC "-//W3C//DTD SVG 1.1//EN" "http://www.w3.org/Graphics/SVG/1.1/DTD/svg11.dtd">
<svg version="1.1" xmlns="http://www.w3.org/2000/svg" xmlns:xlink="http://www.w3.org/1999/xlink" x="0px" y="0px" width="16px"
	 height="16px" viewBox="0 0 16 16" style="enable-background:new 0 0 16 16;" xml:space="preserve">
<g id="user-male-check" style="enable-background:new    ;">
	<g id="user-male-check_1_">
		<g>
			<path d="M16.858,12.143c-0.188-0.188-0.492-0.188-0.68,0L13.5,14.82l-0.679-0.678c-0.188-0.188-0.491-0.188-0.679,0
				s-0.188,0.492,0,0.68l0.975,0.973c0.014,0.02,0.008,0.045,0.025,0.063c0.099,0.1,0.229,0.139,0.357,0.133
				c0.13,0.006,0.259-0.033,0.358-0.133c0.017-0.018,0.012-0.043,0.025-0.063l2.975-2.975C17.045,12.633,17.045,12.33,16.858,12.143
				z M14,7.5C14,3.911,11.762,1,9.001,1c-2.762,0-5,2.911-5,6.501c0,2.222,0.86,4.181,2.171,5.353
				C3.817,13.82,1.001,15.342,1.001,16c0,0.727,0.447,1,1,1H11v-1H2.267c0.915-0.693,3.183-1.813,4.889-2.471
				C7.727,13.826,8.347,14,9.001,14c0.652,0,1.272-0.174,1.845-0.469c0.053,0.02,0.101,0.037,0.154,0.059v-0.139
				C12.765,12.447,14,10.164,14,7.5z M9.001,13c-2.21,0-4-2.463-4-5.5c0-3.038,1.79-5.5,4-5.5C11.209,2,13,4.462,13,7.5
				C13,10.537,11.209,13,9.001,13z"/>
		</g>
	</g>
</g>
<g id="Layer_1">
</g>
</svg>
