<?xml version="1.0" encoding="iso-8859-1"?>
<!-- Generator: Adobe Illustrator 16.0.0, SVG Export Plug-In . SVG Version: 6.00 Build 0)  -->
<!DOCTYPE svg PUBLIC "-//W3C//DTD SVG 1.1//EN" "http://www.w3.org/Graphics/SVG/1.1/DTD/svg11.dtd">
<svg version="1.1" xmlns="http://www.w3.org/2000/svg" xmlns:xlink="http://www.w3.org/1999/xlink" x="0px" y="0px" width="16px"
	 height="16px" viewBox="0 0 16 16" style="enable-background:new 0 0 16 16;" xml:space="preserve">
<g id="user-single-round" style="enable-background:new    ;">
	<g id="user-single-round_1_">
		<g>
			<path d="M9,1C4.582,1,1,4.582,1,9s3.582,8,8,8c4.418,0,8-3.582,8-8S13.418,1,9,1z M9,16c-1.543,0-2.956-0.515-4.113-1.36
				c0.204-0.346,0.572-0.895,1.134-1.457c0.416-0.416,0.921-0.832,1.37-1.18c0.484,0.308,1.026,0.498,1.61,0.498
				s1.125-0.19,1.609-0.498c0.449,0.348,0.955,0.764,1.369,1.18c0.563,0.563,0.932,1.111,1.135,1.457C11.957,15.485,10.543,16,9,16z
				 M6.5,8.251C6.5,6.455,7.619,5,9,5s2.5,1.455,2.5,3.251c0,1.795-1.119,3.249-2.5,3.249S6.5,10.046,6.5,8.251z M13.855,14.027
				c-0.184-0.328-0.547-0.902-1.143-1.497c-0.408-0.407-0.902-0.817-1.348-1.166c0.693-0.776,1.135-1.879,1.135-3.113
				C12.5,5.903,10.934,4,9,4C7.067,4,5.5,5.903,5.5,8.251c0,1.234,0.441,2.337,1.134,3.113c-0.445,0.349-0.939,0.759-1.347,1.166
				c-0.595,0.595-0.959,1.169-1.143,1.497C2.826,12.754,2,10.977,2,9c0-3.866,3.134-7,7-7c3.865,0,7,3.134,7,7
				C16,10.977,15.174,12.754,13.855,14.027z"/>
		</g>
	</g>
</g>
<g id="Layer_1">
</g>
</svg>
