<?xml version="1.0" encoding="iso-8859-1"?>
<!-- Generator: Adobe Illustrator 16.0.0, SVG Export Plug-In . SVG Version: 6.00 Build 0)  -->
<!DOCTYPE svg PUBLIC "-//W3C//DTD SVG 1.1//EN" "http://www.w3.org/Graphics/SVG/1.1/DTD/svg11.dtd">
<svg version="1.1" xmlns="http://www.w3.org/2000/svg" xmlns:xlink="http://www.w3.org/1999/xlink" x="0px" y="0px" width="16px"
	 height="16px" viewBox="0 0 16 16" style="enable-background:new 0 0 16 16;" xml:space="preserve">
<g id="user-single" style="enable-background:new    ;">
	<g id="user-single_1_">
		<g>
			<path d="M11.201,9.924C12.572,9.15,13.5,7.685,13.5,6c0-2.485-2.016-4.5-4.5-4.5C6.515,1.5,4.5,3.515,4.5,6
				c0,1.685,0.927,3.15,2.298,3.923C4.575,10.801,3,12.965,3,15.5v1h1v-1c0-2.762,2.238-5,5-5s5,2.238,5,5v1h1v-1
				C15,12.965,13.424,10.801,11.201,9.924z M5.5,6c0-1.934,1.567-3.5,3.5-3.5c1.934,0,3.5,1.566,3.5,3.5c0,1.933-1.566,3.5-3.5,3.5
				C7.067,9.5,5.5,7.933,5.5,6z"/>
		</g>
	</g>
</g>
<g id="Layer_1">
</g>
</svg>
