<?xml version="1.0" encoding="iso-8859-1"?>
<!-- Generator: Adobe Illustrator 16.0.0, SVG Export Plug-In . SVG Version: 6.00 Build 0)  -->
<!DOCTYPE svg PUBLIC "-//W3C//DTD SVG 1.1//EN" "http://www.w3.org/Graphics/SVG/1.1/DTD/svg11.dtd">
<svg version="1.1" xmlns="http://www.w3.org/2000/svg" xmlns:xlink="http://www.w3.org/1999/xlink" x="0px" y="0px" width="16px"
	 height="16px" viewBox="0 0 16 16" style="enable-background:new 0 0 16 16;" xml:space="preserve">
<g id="user-female-list" style="enable-background:new    ;">
	<g id="user-female-list_1_">
		<g>
			<path d="M6,11.626v-1.1C5.77,10.376,5.552,10.206,5.357,10c-0.636,0.001-1.555,0.001-1.858,0.001C4.227,10,4,6.501,4,6.501h0.009
				C4.007,6.465,4,6.429,4,6.394c0-2.152,0.583-4.396,3.498-4.396s3.498,2.244,3.498,4.396c0,0.035-0.008,0.071-0.008,0.107h0.011
				c0,0,0.018,3.499,0.5,3.5c-0.223,0-1.197,0-1.86-0.001C9.445,10.206,9.228,10.375,9,10.525v1.104
				c0.348-0.161,0.669-0.377,0.966-0.629c1.239,0,2.658,0,3.033,0c-0.733,0-0.979-2.544-1.058-3.806
				c0.036-0.274,0.056-0.55,0.056-0.823C11.997,3.682,11.179,1,7.498,1S3,3.682,3,6.372c0,0.277,0.02,0.558,0.057,0.835
				C2.978,8.475,2.73,11.001,2,11.001c0.375,0,1.79,0,3.027,0C5.325,11.254,5.65,11.464,6,11.626z M13.499,5h3
				c0.276,0,0.5-0.224,0.5-0.499c0-0.276-0.224-0.5-0.5-0.5h-3c-0.275,0-0.5,0.224-0.5,0.5C12.999,4.776,13.224,5,13.499,5z
				 M9.265,11.677H9v1.032c1.031,0.308,2.895,0.876,3.399,1.104c0.683,0.309,0.901,1.867,0,2.188l-4.72-0.013
				c0,0-5.091,0.013-5.093,0.013c-1.028-0.37-0.506-1.877,0.179-2.188C3.237,13.599,4.928,13.086,6,12.769v-1.02
				c-0.897,0.223-3.816,0.969-4.214,1.347c-0.749,0.71-1.125,2.484-0.377,3.549c0,0,0.427,0.355,6.37,0.355s5.814-0.355,5.814-0.355
				c0.743-1.064,0.372-2.839-0.371-3.549C12.771,12.665,9.265,11.677,9.265,11.677z M16.499,7h-3c-0.275,0-0.5,0.225-0.5,0.5
				c0,0.276,0.225,0.501,0.5,0.501h3c0.276,0,0.5-0.225,0.5-0.501C16.999,7.225,16.775,7,16.499,7z M16.499,13h-1
				c-0.275,0-0.5,0.225-0.5,0.5c0,0.277,0.225,0.5,0.5,0.5h1c0.276,0,0.5-0.223,0.5-0.5C16.999,13.225,16.775,13,16.499,13z
				 M16.499,10.001h-2c-0.276,0-0.5,0.224-0.5,0.499c0,0.276,0.224,0.5,0.5,0.5h2c0.276,0,0.5-0.224,0.5-0.5
				C16.999,10.225,16.775,10.001,16.499,10.001z"/>
		</g>
	</g>
</g>
<g id="Layer_1">
</g>
</svg>
