<?xml version="1.0" encoding="iso-8859-1"?>
<!-- Generator: Adobe Illustrator 16.0.0, SVG Export Plug-In . SVG Version: 6.00 Build 0)  -->
<!DOCTYPE svg PUBLIC "-//W3C//DTD SVG 1.1//EN" "http://www.w3.org/Graphics/SVG/1.1/DTD/svg11.dtd">
<svg version="1.1" xmlns="http://www.w3.org/2000/svg" xmlns:xlink="http://www.w3.org/1999/xlink" x="0px" y="0px" width="16px"
	 height="16px" viewBox="0 0 16 16" style="enable-background:new 0 0 16 16;" xml:space="preserve">
<g id="user-alt-plus" style="enable-background:new    ;">
	<g id="user-alt-plus_1_">
		<g>
			<path d="M16.501,14h-1.5v-1.5c0-0.277-0.224-0.5-0.5-0.5c-0.275,0-0.5,0.223-0.5,0.5V14h-1.5c-0.275,0-0.5,0.225-0.5,0.5
				s0.225,0.5,0.5,0.5h1.5v1.5c0,0.275,0.225,0.5,0.5,0.5c0.276,0,0.5-0.225,0.5-0.5V15h1.5c0.276,0,0.5-0.225,0.5-0.5
				S16.777,14,16.501,14z M10.001,10.516V12.1c0.604,0.145,1.239,0.307,1.845,0.469c0.258-0.334,0.557-0.635,0.906-0.875
				c-0.744-0.207-1.494-0.4-2.009-0.529c1.404-1.1,2.26-3.126,2.26-5.06C13.003,3.285,12.185,1,8.5,1
				C4.816,1,3.997,3.285,3.997,6.104c0,1.939,0.86,3.972,2.272,5.07C4.932,11.5,2.14,12.221,1.768,12.602
				C0.985,13.4,0.668,15.799,1.451,17h10.105c-0.181-0.311-0.32-0.645-0.413-1H2.001c-0.203-0.824,0.083-2.145,0.409-2.557
				c0.505-0.275,2.7-0.885,4.591-1.33v-1.596c-1.256-0.854-2-2.708-2-4.395c0-2.279,0.583-4.127,3.498-4.127
				s3.498,1.848,3.498,4.127C11.998,7.807,11.255,9.662,10.001,10.516z"/>
		</g>
	</g>
</g>
<g id="Layer_1">
</g>
</svg>
