<?xml version="1.0" encoding="iso-8859-1"?>
<!-- Generator: Adobe Illustrator 16.0.0, SVG Export Plug-In . SVG Version: 6.00 Build 0)  -->
<!DOCTYPE svg PUBLIC "-//W3C//DTD SVG 1.1//EN" "http://www.w3.org/Graphics/SVG/1.1/DTD/svg11.dtd">
<svg version="1.1" xmlns="http://www.w3.org/2000/svg" xmlns:xlink="http://www.w3.org/1999/xlink" x="0px" y="0px" width="16px"
	 height="16px" viewBox="0 0 16 16" style="enable-background:new 0 0 16 16;" xml:space="preserve">
<g id="user-single-plus" style="enable-background:new    ;">
	<g id="user-single-plus_1_">
		<g>
			<path d="M11.926,11.461c-0.611-0.668-1.367-1.199-2.225-1.537C11.072,9.15,12,7.685,12,6C12,3.515,9.984,1.5,7.5,1.5
				C5.015,1.5,3,3.515,3,6c0,1.685,0.927,3.15,2.298,3.923C3.075,10.801,1.5,12.965,1.5,15.5v1h1v-1c0-2.762,2.238-5,5-5
				c1.492,0,2.816,0.668,3.732,1.703C11.43,11.924,11.666,11.682,11.926,11.461z M4,6c0-1.934,1.567-3.5,3.5-3.5
				C9.434,2.5,11,4.067,11,6c0,1.933-1.566,3.5-3.5,3.5C5.567,9.5,4,7.933,4,6z M16,13.498h-1.5v-1.5c0-0.275-0.225-0.5-0.5-0.5
				s-0.5,0.225-0.5,0.5v1.5H12c-0.275,0-0.5,0.225-0.5,0.5c0,0.277,0.225,0.5,0.5,0.5h1.5v1.5c0,0.277,0.225,0.5,0.5,0.5
				s0.5-0.223,0.5-0.5v-1.5H16c0.275,0,0.5-0.223,0.5-0.5C16.5,13.723,16.275,13.498,16,13.498z"/>
		</g>
	</g>
</g>
<g id="Layer_1">
</g>
</svg>
