<?xml version="1.0" encoding="iso-8859-1"?>
<!-- Generator: Adobe Illustrator 16.0.0, SVG Export Plug-In . SVG Version: 6.00 Build 0)  -->
<!DOCTYPE svg PUBLIC "-//W3C//DTD SVG 1.1//EN" "http://www.w3.org/Graphics/SVG/1.1/DTD/svg11.dtd">
<svg version="1.1" xmlns="http://www.w3.org/2000/svg" xmlns:xlink="http://www.w3.org/1999/xlink" x="0px" y="0px" width="16px"
	 height="16px" viewBox="0 0 16 16" style="enable-background:new 0 0 16 16;" xml:space="preserve">
<g id="user-password" style="enable-background:new    ;">
	<g id="user-password_1_">
		<g>
			<path d="M9,10c-0.276,0-0.5,0.225-0.5,0.5v2C8.5,12.775,8.724,13,9,13c0.275,0,0.5-0.225,0.5-0.5v-2C9.5,10.225,9.275,10,9,10z
				 M13.5,8.351V5.148C13.5,2.857,11.484,1,9,1C6.515,1,4.5,2.857,4.5,5.148v3.203c-0.626,0.893-1,1.975-1,3.149
				C3.5,14.537,5.962,17,9,17c3.037,0,5.5-2.463,5.5-5.5C14.5,10.326,14.125,9.244,13.5,8.351z M5.5,5.13C5.5,3.402,7.067,2,9,2
				c1.934,0,3.5,1.402,3.5,3.131V7.29C11.547,6.497,10.338,6,9,6C7.663,6,6.453,6.497,5.5,7.29V5.13z M9,16
				c-2.485,0-4.5-2.014-4.5-4.5S6.515,7,9,7c2.484,0,4.5,2.014,4.5,4.5S11.484,16,9,16z"/>
		</g>
	</g>
</g>
<g id="Layer_1">
</g>
</svg>
