<?xml version="1.0" encoding="iso-8859-1"?>
<!-- Generator: Adobe Illustrator 16.0.0, SVG Export Plug-In . SVG Version: 6.00 Build 0)  -->
<!DOCTYPE svg PUBLIC "-//W3C//DTD SVG 1.1//EN" "http://www.w3.org/Graphics/SVG/1.1/DTD/svg11.dtd">
<svg version="1.1" xmlns="http://www.w3.org/2000/svg" xmlns:xlink="http://www.w3.org/1999/xlink" x="0px" y="0px" width="16px"
	 height="16px" viewBox="0 0 16 16" style="enable-background:new 0 0 16 16;" xml:space="preserve">
<g id="user-lock-u-a" style="enable-background:new    ;">
	<g id="user-lock-u-a_1_">
		<g>
			<path d="M5.5,13h3C8.776,13,9,12.776,9,12.5S8.776,12,8.5,12h-3C5.224,12,5,12.224,5,12.5S5.224,13,5.5,13z M13,1
				c-2.209,0-4,1.791-4,4v2H3C1.895,7,1,7.942,1,9.105v5.79C1,16.058,1.895,17,3,17h8c1.104,0,2-0.942,2-2.104V14.5v-0.999V9.105
				C13,7.942,12.104,7,11,7h-1V5c0-1.656,1.344-3,3-3s3,1.344,3,3v1h1V5C17,2.791,15.209,1,13,1z M11,7.99c0.553,0,1,0.479,1,1.069
				v5.882c0,0.59-0.447,1.068-1,1.068H3c-0.552,0-1-0.479-1-1.068V9.06C2,8.469,2.448,7.99,3,7.99H11z"/>
		</g>
	</g>
</g>
<g id="Layer_1">
</g>
</svg>
