<?xml version="1.0" encoding="iso-8859-1"?>
<!-- Generator: Adobe Illustrator 16.0.0, SVG Export Plug-In . SVG Version: 6.00 Build 0)  -->
<!DOCTYPE svg PUBLIC "-//W3C//DTD SVG 1.1//EN" "http://www.w3.org/Graphics/SVG/1.1/DTD/svg11.dtd">
<svg version="1.1" xmlns="http://www.w3.org/2000/svg" xmlns:xlink="http://www.w3.org/1999/xlink" x="0px" y="0px" width="16px"
	 height="16px" viewBox="0 0 16 16" style="enable-background:new 0 0 16 16;" xml:space="preserve">
<g id="user-male-sign" style="enable-background:new    ;">
	<g id="user-male-sign_1_">
		<g>
			<path d="M11.906,7.226C12.281,6.589,12.5,5.824,12.5,5C12.5,2.792,10.934,1,9,1C7.067,1,5.5,2.792,5.5,5
				c0,0.824,0.219,1.59,0.593,2.227C5.447,7.558,5,8.223,5,9l1.5,6c0,0,0.896,2,2,2h1c1.105,0,2-2,2-2L13,9
				C13,8.223,12.553,7.558,11.906,7.226z M9,2c1.381,0,2.5,1.344,2.5,3C11.5,6.657,10.381,8,9,8S6.5,6.657,6.5,5
				C6.5,3.343,7.619,2,9,2z M10.5,15c-0.328,0.578-0.447,1-1,1h-1c-0.552,0-0.715-0.301-1-1L6,9c0-0.467,0.326-0.84,0.759-0.951
				C7.367,8.634,8.143,9,9,9s1.633-0.365,2.242-0.951C11.674,8.16,12,8.533,12,9L10.5,15z"/>
		</g>
	</g>
</g>
<g id="Layer_1">
</g>
</svg>
