<?xml version="1.0" encoding="iso-8859-1"?>
<!-- Generator: Adobe Illustrator 16.0.0, SVG Export Plug-In . SVG Version: 6.00 Build 0)  -->
<!DOCTYPE svg PUBLIC "-//W3C//DTD SVG 1.1//EN" "http://www.w3.org/Graphics/SVG/1.1/DTD/svg11.dtd">
<svg version="1.1" xmlns="http://www.w3.org/2000/svg" xmlns:xlink="http://www.w3.org/1999/xlink" x="0px" y="0px" width="16px"
	 height="16px" viewBox="0 0 16 16" style="enable-background:new 0 0 16 16;" xml:space="preserve">
<g id="user-single-cross" style="enable-background:new    ;">
	<g id="user-single-cross_1_">
		<g>
			<path d="M12.004,6c0-2.485-2.015-4.501-4.5-4.501S3.004,3.515,3.004,6c0,1.685,0.928,3.15,2.299,3.921
				c-2.224,0.879-3.799,3.043-3.799,5.578v1h1v-1c0-2.762,2.238-5,5-5c1.492,0,2.816,0.668,3.733,1.703
				c0.196-0.279,0.434-0.521,0.693-0.742c-0.611-0.668-1.368-1.199-2.225-1.539C11.077,9.15,12.004,7.685,12.004,6z M7.504,9.5
				c-1.933,0-3.5-1.567-3.5-3.5c0-1.934,1.567-3.5,3.5-3.5s3.5,1.566,3.5,3.5C11.004,7.933,9.437,9.5,7.504,9.5z M15.234,14.49
				l1.108-1.107c0.204-0.205,0.204-0.535,0-0.738c-0.204-0.205-0.535-0.205-0.739,0l-1.107,1.107l-1.108-1.107
				c-0.204-0.205-0.535-0.205-0.739,0c-0.204,0.203-0.204,0.533,0,0.738l1.108,1.107L12.648,15.6c-0.204,0.203-0.204,0.535,0,0.738
				c0.204,0.205,0.535,0.205,0.739,0l1.108-1.107l1.107,1.107c0.205,0.205,0.535,0.205,0.739,0c0.204-0.203,0.204-0.535,0-0.738
				L15.234,14.49z"/>
		</g>
	</g>
</g>
<g id="Layer_1">
</g>
</svg>
