<?xml version="1.0" encoding="iso-8859-1"?>
<!-- Generator: Adobe Illustrator 16.0.0, SVG Export Plug-In . SVG Version: 6.00 Build 0)  -->
<!DOCTYPE svg PUBLIC "-//W3C//DTD SVG 1.1//EN" "http://www.w3.org/Graphics/SVG/1.1/DTD/svg11.dtd">
<svg version="1.1" xmlns="http://www.w3.org/2000/svg" xmlns:xlink="http://www.w3.org/1999/xlink" x="0px" y="0px" width="16px"
	 height="16px" viewBox="0 0 16 16" style="enable-background:new 0 0 16 16;" xml:space="preserve">
<g id="user-lock-u" style="enable-background:new    ;">
	<g id="user-lock-u_1_">
		<g>
			<path d="M11,12H8c-0.276,0-0.5,0.223-0.5,0.5C7.5,12.775,7.724,13,8,13h3c0.275,0,0.5-0.225,0.5-0.5C11.5,12.223,11.275,12,11,12
				z M13.5,7L13.5,7L12.5,7h-1h-6V5.5C5.5,3.568,7.067,2,9,2c1.762,0,3.205,1.306,3.449,3h1C13.197,2.753,11.314,1,9,1
				C6.515,1,4.5,3.015,4.5,5.5V7c-1.105,0-2,0.896-2,2v6c0,1.104,0.895,2,2,2h9c1.104,0,2-0.896,2-2V9C15.5,7.896,14.604,7,13.5,7z
				 M14.5,15c0,0.553-0.447,1-1,1h-9c-0.552,0-1-0.447-1-1V9c0-0.552,0.448-1,1-1h9c0.553,0,1,0.448,1,1V15z"/>
		</g>
	</g>
</g>
<g id="Layer_1">
</g>
</svg>
