<?xml version="1.0" encoding="iso-8859-1"?>
<!-- Generator: Adobe Illustrator 16.0.0, SVG Export Plug-In . SVG Version: 6.00 Build 0)  -->
<!DOCTYPE svg PUBLIC "-//W3C//DTD SVG 1.1//EN" "http://www.w3.org/Graphics/SVG/1.1/DTD/svg11.dtd">
<svg version="1.1" xmlns="http://www.w3.org/2000/svg" xmlns:xlink="http://www.w3.org/1999/xlink" x="0px" y="0px" width="16px"
	 height="16px" viewBox="0 0 16 16" style="enable-background:new 0 0 16 16;" xml:space="preserve">
<g id="user-female-group" style="enable-background:new    ;">
	<g id="user-female-group_1_">
		<g>
			<path d="M16.308,11.702c-0.338-0.307-2.908-0.945-3.707-1.138c0.284-0.156,0.555-0.339,0.795-0.564c0.976,0,2.149,0,2.489,0
				c-0.864,0-0.864-3-0.864-3H14.93c0.043-0.274,0.069-0.551,0.069-0.823C14.999,3.87,14.271,2,10.998,2
				c-0.587,0-1.066,0.078-1.5,0.19c0.642,0.166,1.133,0.441,1.496,0.808c0.001,0,0.003-0.001,0.004-0.001
				c2.499,0,2.999,1.437,2.999,3.209c0,0.137-0.02,0.275-0.033,0.413C13.992,7.496,14.091,9,14.436,9c-0.188,0-0.938,0-1.45,0
				c-0.166,0.195-0.355,0.356-0.558,0.5l0.071,1.764c1.05,0.273,2.584,0.686,2.978,0.861c0.594,0.265,0.784,1.602,0,1.875
				l-1.478-0.004v0.96c2.431-0.082,2.64-0.256,2.64-0.256C17.299,13.801,16.969,12.302,16.308,11.702z M12.308,12.703
				c-0.338-0.308-2.908-0.945-3.707-1.138c0.284-0.157,0.555-0.34,0.795-0.564c0.976,0,2.149,0,2.489,0
				C11.021,11.001,11.021,8,11.021,8H10.93c0.043-0.274,0.069-0.55,0.069-0.823c0-2.307-0.728-4.176-4.001-4.176
				c-3.273,0-4,1.869-4,4.176c0,0.107,0.021,0.216,0.027,0.323H2.978c0,0,0,3.501-0.864,3.501c0.339,0,1.512,0,2.487,0
				c0.244,0.229,0.52,0.414,0.81,0.572c-0.842,0.199-3.364,0.815-3.713,1.13c-0.666,0.6-1,2.099-0.335,2.997c0,0,0.38,0.3,5.663,0.3
				s5.613-0.3,5.613-0.3c0.156-0.212,0.252-0.457,0.307-0.716c0.021-0.001,0.034-0.001,0.055-0.002v-0.155
				c-0.013,0.001-0.018,0.003-0.031,0.005C13.079,14.028,12.782,13.134,12.308,12.703z M11.477,15l-4.539-0.011
				c0,0-4.427,0.01-4.429,0.011c-0.894-0.316-0.44-1.609,0.156-1.875C3.169,12.9,5.267,12.29,6,12.079v-1.314
				C5.624,10.588,5.29,10.327,5.011,10c-0.511,0-1.26,0-1.448,0c0.343,0,0.442-1.483,0.472-2.363C4.02,7.493,4,7.349,4,7.207
				c0-1.773,0.5-3.21,2.998-3.21c2.499,0,2.999,1.437,2.999,3.21c0,0.136-0.02,0.274-0.033,0.413C9.992,8.496,10.091,10,10.437,10
				c-0.188,0-0.939,0-1.451,0C8.708,10.327,8.374,10.587,8,10.764v1.37c0.975,0.251,3.015,0.785,3.477,0.991
				C12.07,13.39,12.261,14.727,11.477,15z"/>
		</g>
	</g>
</g>
<g id="Layer_1">
</g>
</svg>
