<?xml version="1.0" encoding="iso-8859-1"?>
<!-- Generator: Adobe Illustrator 16.0.0, SVG Export Plug-In . SVG Version: 6.00 Build 0)  -->
<!DOCTYPE svg PUBLIC "-//W3C//DTD SVG 1.1//EN" "http://www.w3.org/Graphics/SVG/1.1/DTD/svg11.dtd">
<svg version="1.1" xmlns="http://www.w3.org/2000/svg" xmlns:xlink="http://www.w3.org/1999/xlink" x="0px" y="0px" width="16px"
	 height="16px" viewBox="0 0 16 16" style="enable-background:new 0 0 16 16;" xml:space="preserve">
<g id="user-password-u-a" style="enable-background:new    ;">
	<g id="user-password-u-a_1_">
		<g>
			<path d="M6.5,11.5C6.5,11.776,6.724,12,7,12h2c0.276,0,0.5-0.224,0.5-0.5C9.5,11.225,9.276,11,9,11H7
				C6.724,11,6.5,11.225,6.5,11.5z M11.5,1c-2.209,0-4,1.791-4,4v1.051c-2.799,0.257-5,2.583-5,5.449C2.5,14.538,4.962,17,8,17
				c3.038,0,5.5-2.462,5.5-5.5c0-2.866-2.201-5.193-5-5.449V5c0-1.656,1.344-3,3-3s2.998,1.343,3,2.999h1
				C15.498,2.79,13.709,1,11.5,1z M12.5,11.5c0,2.486-2.016,4.501-4.5,4.501S3.5,13.986,3.5,11.5C3.5,9.015,5.515,7,8,7
				S12.5,9.015,12.5,11.5z"/>
		</g>
	</g>
</g>
<g id="Layer_1">
</g>
</svg>
