<?xml version="1.0" encoding="iso-8859-1"?>
<!-- Generator: Adobe Illustrator 16.0.0, SVG Export Plug-In . SVG Version: 6.00 Build 0)  -->
<!DOCTYPE svg PUBLIC "-//W3C//DTD SVG 1.1//EN" "http://www.w3.org/Graphics/SVG/1.1/DTD/svg11.dtd">
<svg version="1.1" xmlns="http://www.w3.org/2000/svg" xmlns:xlink="http://www.w3.org/1999/xlink" x="0px" y="0px" width="16px"
	 height="16px" viewBox="0 0 16 16" style="enable-background:new 0 0 16 16;" xml:space="preserve">
<g id="user-alt-group" style="enable-background:new    ;">
	<g id="user-alt-group_1_">
		<g>
			<path d="M16.308,11.203c-0.297-0.271-2.328-0.798-3.36-1.054c0.973-0.931,1.554-2.489,1.554-3.973C14.501,3.87,13.864,2,10.998,2
				c-0.909,0-1.574,0.205-2.085,0.536c0.695,0.052,1.246,0.224,1.671,0.5c0.135-0.016,0.262-0.039,0.414-0.039
				c2.083,0,2.499,1.438,2.499,3.209c0,1.286-0.514,2.693-1.378,3.374v0.666l0.138,0.454c1.037,0.269,2.794,0.735,3.22,0.925
				c0.594,0.265,0.784,1.602,0,1.876l-1.529-0.005c0.058,0.318,0.066,0.648,0.005,0.963c2.482-0.082,2.687-0.258,2.687-0.258
				C17.299,13.301,16.969,11.802,16.308,11.203z M8.905,11.639c0.997-0.977,1.596-2.643,1.596-4.23C10.501,4.974,9.864,3,6.999,3
				S3.496,4.974,3.496,7.408c0,1.593,0.604,3.264,1.605,4.238c-1.039,0.252-3.092,0.776-3.403,1.057c-0.666,0.6-1,2.099-0.335,2.997
				c0,0,0.38,0.3,5.663,0.3s5.614-0.3,5.614-0.3c0.66-0.898,0.33-2.397-0.331-2.997C12.007,12.43,9.924,11.891,8.905,11.639z
				 M11.477,15l-4.539-0.011c0,0-4.427,0.011-4.429,0.011c-0.894-0.316-0.44-1.609,0.156-1.875c0.453-0.202,2.208-0.72,3.091-0.977
				l0.121-0.401v-0.69C5.013,10.327,4.5,8.82,4.5,7.443c0-1.898,0.417-3.438,2.499-3.438s2.499,1.539,2.499,3.438
				c0,1.378-0.513,2.885-1.378,3.614v0.689L8.256,12.2c1.038,0.269,2.794,0.735,3.22,0.925C12.07,13.39,12.261,14.727,11.477,15z"/>
		</g>
	</g>
</g>
<g id="Layer_1">
</g>
</svg>
