<?xml version="1.0" encoding="iso-8859-1"?>
<!-- Generator: Adobe Illustrator 16.0.0, SVG Export Plug-In . SVG Version: 6.00 Build 0)  -->
<!DOCTYPE svg PUBLIC "-//W3C//DTD SVG 1.1//EN" "http://www.w3.org/Graphics/SVG/1.1/DTD/svg11.dtd">
<svg version="1.1" xmlns="http://www.w3.org/2000/svg" xmlns:xlink="http://www.w3.org/1999/xlink" x="0px" y="0px" width="16px"
	 height="16px" viewBox="0 0 16 16" style="enable-background:new 0 0 16 16;" xml:space="preserve">
<g id="user-female-sign" style="enable-background:new    ;">
	<g id="user-female-sign_1_">
		<g>
			<path d="M11.246,8.044C12.006,7.31,12.5,6.227,12.5,5C12.5,2.792,10.934,1,9,1C7.067,1,5.5,2.792,5.5,5
				c0,1.228,0.493,2.311,1.253,3.045C6.597,8.329,4,15,4,15c0,1.104,0.896,2,2,2h6c1.105,0,2-0.896,2-2
				C14,15,11.402,8.329,11.246,8.044z M6.5,5c0-1.656,1.119-3,2.5-3s2.5,1.344,2.5,3C11.5,6.657,10.381,8,9,8S6.5,6.657,6.5,5z
				 M12,16H6c-0.552,0-1-0.449-1-1c0,0,2.529-6.244,2.572-6.356C8.009,8.87,8.49,9,9,9c0.51,0,0.99-0.13,1.428-0.355
				C10.471,8.756,13,15,13,15C13,15.551,12.553,16,12,16z"/>
		</g>
	</g>
</g>
<g id="Layer_1">
</g>
</svg>
