<?xml version="1.0" encoding="iso-8859-1"?>
<!-- Generator: Adobe Illustrator 16.0.0, SVG Export Plug-In . SVG Version: 6.00 Build 0)  -->
<!DOCTYPE svg PUBLIC "-//W3C//DTD SVG 1.1//EN" "http://www.w3.org/Graphics/SVG/1.1/DTD/svg11.dtd">
<svg version="1.1" xmlns="http://www.w3.org/2000/svg" xmlns:xlink="http://www.w3.org/1999/xlink" x="0px" y="0px" width="16px"
	 height="16px" viewBox="0 0 16 16" style="enable-background:new 0 0 16 16;" xml:space="preserve">
<g id="user-female" style="enable-background:new    ;">
	<g id="user-female_1_">
		<g>
			<path d="M15.192,12.97c-0.42-0.4-3.813-1.264-4.494-1.434c0.266-0.146,0.509-0.332,0.742-0.536c1.158,0,2.645,0,3.059,0
				c-1,0-1-4.5-1-4.5h-0.021c0.008-0.132,0.023-0.265,0.023-0.396C13.501,3.285,12.683,1,8.998,1C5.314,1,4.495,3.285,4.495,6.104
				c0,0.131,0.016,0.264,0.024,0.396H4.5c0,0,0,4.5-1,4.5c0.414,0,1.902,0,3.06,0c0.238,0.208,0.488,0.398,0.76,0.546
				c-0.783,0.192-4.075,1.018-4.505,1.424c-0.776,0.733-1.167,2.565-0.391,3.664c0,0,0.443,0.366,6.606,0.366
				s6.549-0.366,6.549-0.366C16.349,15.535,15.963,13.703,15.192,12.97z M14.499,16l-5.567-0.015c0,0-5.43,0.015-5.432,0.015
				c-1.097-0.423-0.541-2.146,0.191-2.499C4.365,13.174,7.387,12.228,8,12.036v-1.035v-0.229C7.592,10.6,7.221,10.344,6.904,10
				C6.549,10,5.258,10,5,10c0.5,0,0.5-3.5,0.5-3.5h0.028C5.519,6.374,5.5,6.247,5.5,6.122c0-2.278,0.583-4.126,3.498-4.126
				s3.498,1.848,3.498,4.126c0,0.125-0.02,0.252-0.027,0.378h0.03c0,0,0,3.5,0.5,3.5c-0.259,0-1.555,0-1.906,0
				c-0.316,0.343-0.687,0.599-1.094,0.771V11v0.001v1.112c1.065,0.296,3.894,1.093,4.5,1.388C15.228,13.853,15.461,15.635,14.499,16
				z"/>
		</g>
	</g>
</g>
<g id="Layer_1">
</g>
</svg>
