<?xml version="1.0" encoding="iso-8859-1"?>
<!-- Generator: Adobe Illustrator 16.0.0, SVG Export Plug-In . SVG Version: 6.00 Build 0)  -->
<!DOCTYPE svg PUBLIC "-//W3C//DTD SVG 1.1//EN" "http://www.w3.org/Graphics/SVG/1.1/DTD/svg11.dtd">
<svg version="1.1" xmlns="http://www.w3.org/2000/svg" xmlns:xlink="http://www.w3.org/1999/xlink" x="0px" y="0px" width="16px"
	 height="16px" viewBox="0 0 16 16" style="enable-background:new 0 0 16 16;" xml:space="preserve">
<g id="user-female-cross" style="enable-background:new    ;">
	<g id="user-female-cross_1_">
		<g>
			<path d="M10.444,11c1.158,0,2.645,0,3.059,0c-1,0-1-4.499-1-4.499h-0.021c0.008-0.133,0.023-0.266,0.023-0.396
				C12.505,3.286,11.687,1,8.002,1S3.499,3.286,3.499,6.104c0,0.131,0.016,0.264,0.024,0.396h-0.02c0,0,0,4.499-1,4.499
				c0.414,0,1.901,0,3.06,0c0.238,0.208,0.488,0.398,0.76,0.546c-0.783,0.192-4.075,1.018-4.505,1.424
				c-0.776,0.733-1.167,2.565-0.391,3.664c0,0,0.443,0.366,6.606,0.366c1.196,0,2.17-0.014,2.97-0.036v-0.971l-3.067-0.008
				c0,0-5.43,0.014-5.432,0.015c-1.097-0.423-0.541-2.146,0.191-2.499c0.674-0.327,3.696-1.273,4.309-1.465v-1.255
				c-0.408-0.174-0.778-0.437-1.096-0.78c-0.355,0-1.646,0-1.904,0c0.5,0,0.5-3.5,0.5-3.5h0.028
				C4.523,6.374,4.504,6.247,4.504,6.122c0-2.278,0.583-4.125,3.498-4.125S11.5,3.844,11.5,6.122c0,0.125-0.02,0.252-0.027,0.379
				h0.03c0,0,0,3.5,0.5,3.5c-0.259,0-1.555,0-1.906,0c-0.317,0.343-0.687,0.605-1.093,0.779v1.333
				c0.45,0.125,1.216,0.34,1.999,0.569V12h0.455c-0.775-0.216-1.483-0.396-1.756-0.464C9.968,11.391,10.211,11.204,10.444,11z
				 M15.733,14.992l1.108-1.108c0.204-0.204,0.204-0.534,0-0.739c-0.204-0.203-0.535-0.203-0.739,0l-1.107,1.109l-1.108-1.109
				c-0.204-0.203-0.535-0.203-0.739,0c-0.204,0.205-0.204,0.535,0,0.739l1.108,1.108l-1.108,1.108c-0.204,0.204-0.204,0.535,0,0.739
				c0.204,0.203,0.535,0.203,0.739,0l1.108-1.108l1.108,1.108c0.203,0.203,0.534,0.203,0.738,0c0.204-0.204,0.204-0.535,0-0.739
				L15.733,14.992z"/>
		</g>
	</g>
</g>
<g id="Layer_1">
</g>
</svg>
