<?xml version="1.0" encoding="iso-8859-1"?>
<!-- Generator: Adobe Illustrator 16.0.0, SVG Export Plug-In . SVG Version: 6.00 Build 0)  -->
<!DOCTYPE svg PUBLIC "-//W3C//DTD SVG 1.1//EN" "http://www.w3.org/Graphics/SVG/1.1/DTD/svg11.dtd">
<svg version="1.1" xmlns="http://www.w3.org/2000/svg" xmlns:xlink="http://www.w3.org/1999/xlink" x="0px" y="0px" width="16px"
	 height="16px" viewBox="0 0 16 16" style="enable-background:new 0 0 16 16;" xml:space="preserve">
<g id="user-female-minus" style="enable-background:new    ;">
	<g id="user-female-minus_1_">
		<g>
			<path d="M9.698,11.536c0.266-0.146,0.509-0.332,0.742-0.536c1.158,0,2.645,0,3.059,0c-1,0-1-4.499-1-4.499h-0.021
				c0.008-0.133,0.023-0.266,0.023-0.396C12.501,3.286,11.683,1,7.998,1C4.314,1,3.495,3.286,3.495,6.104
				c0,0.131,0.016,0.264,0.024,0.396H3.5c0,0,0,4.499-1,4.499c0.414,0,1.902,0,3.06,0c0.238,0.208,0.488,0.398,0.76,0.546
				c-0.783,0.192-4.075,1.018-4.505,1.424c-0.776,0.733-1.167,2.565-0.391,3.664c0,0,0.443,0.366,6.606,0.366
				c1.196,0,2.17-0.014,2.97-0.036v-0.971l-3.067-0.008c0,0-5.43,0.014-5.432,0.015c-1.097-0.423-0.541-2.146,0.191-2.5
				C3.365,13.174,6.387,12.228,7,12.036v-1.255C6.592,10.607,6.222,10.345,5.904,10C5.549,10,4.258,10,4,10
				c0.5,0,0.5-3.499,0.5-3.499h0.028C4.52,6.374,4.5,6.247,4.5,6.122c0-2.278,0.583-4.126,3.498-4.126s3.498,1.848,3.498,4.126
				c0,0.125-0.019,0.252-0.027,0.379h0.03c0,0,0,3.499,0.5,3.499c-0.259,0-1.555,0-1.906,0C9.775,10.344,9.406,10.606,9,10.78v1.333
				c0.451,0.125,1.216,0.34,2,0.569V12C10.999,12,10.964,11.854,9.698,11.536z M16.499,14h-4c-0.275,0-0.5,0.224-0.5,0.5
				s0.225,0.5,0.5,0.5h4c0.276,0,0.5-0.224,0.5-0.5S16.775,14,16.499,14z"/>
		</g>
	</g>
</g>
<g id="Layer_1">
</g>
</svg>
