<?xml version="1.0" encoding="iso-8859-1"?>
<!-- Generator: Adobe Illustrator 16.0.0, SVG Export Plug-In . SVG Version: 6.00 Build 0)  -->
<!DOCTYPE svg PUBLIC "-//W3C//DTD SVG 1.1//EN" "http://www.w3.org/Graphics/SVG/1.1/DTD/svg11.dtd">
<svg version="1.1" xmlns="http://www.w3.org/2000/svg" xmlns:xlink="http://www.w3.org/1999/xlink" x="0px" y="0px" width="16px"
	 height="16px" viewBox="0 0 16 16" style="enable-background:new 0 0 16 16;" xml:space="preserve">
<g id="user-single-minus" style="enable-background:new    ;">
	<g id="user-single-minus_1_">
		<g>
			<path d="M16,13.498h-4c-0.275,0-0.5,0.224-0.5,0.5s0.225,0.5,0.5,0.5h4c0.275,0,0.5-0.224,0.5-0.5S16.275,13.498,16,13.498z
				 M9.701,9.923C11.072,9.15,12,7.685,12,6c0-2.485-2.016-4.5-4.5-4.5C5.015,1.5,3,3.515,3,6c0,1.685,0.928,3.15,2.298,3.923
				C3.075,10.801,1.5,12.965,1.5,15.499V16.5h1v-1.001c0-2.761,2.238-4.999,5-4.999c1.394,0,2.652,0.572,3.559,1.492
				c0.168-0.289,0.361-0.562,0.594-0.798C11.092,10.655,10.438,10.213,9.701,9.923z M4,6c0-1.934,1.567-3.5,3.5-3.5
				C9.434,2.5,11,4.066,11,6c0,1.933-1.566,3.5-3.5,3.5C5.567,9.5,4,7.933,4,6z"/>
		</g>
	</g>
</g>
<g id="Layer_1">
</g>
</svg>
