<?xml version="1.0" encoding="iso-8859-1"?>
<!-- Generator: Adobe Illustrator 16.0.0, SVG Export Plug-In . SVG Version: 6.00 Build 0)  -->
<!DOCTYPE svg PUBLIC "-//W3C//DTD SVG 1.1//EN" "http://www.w3.org/Graphics/SVG/1.1/DTD/svg11.dtd">
<svg version="1.1" xmlns="http://www.w3.org/2000/svg" xmlns:xlink="http://www.w3.org/1999/xlink" x="0px" y="0px" width="16px"
	 height="16px" viewBox="0 0 16 16" style="enable-background:new 0 0 16 16;" xml:space="preserve">
<g id="user-alt-list" style="enable-background:new    ;">
	<g id="user-alt-list_1_">
		<g>
			<path d="M14.505,5h1.997c0.275,0,0.499-0.224,0.499-0.5S16.777,4,16.502,4h-1.997c-0.276,0-0.5,0.224-0.5,0.5S14.229,5,14.505,5z
				 M9.971,11.533c1.779-0.952,2.881-3.257,2.881-5.429C12.852,3.286,12.008,1,8.211,1c-3.796,0-4.64,2.286-4.64,5.104
				c0,2.181,1.111,4.493,2.904,5.438c-0.798,0.188-4.237,1.019-4.685,1.426C0.984,13.701,0.658,15.9,1.464,17l6.781-0.002L14.964,17
				c0.8-1.1,0.481-3.299-0.318-4.031C14.208,12.567,10.66,11.699,9.971,11.533z M14.315,16l-6.071-0.002L2.11,16
				c-0.209-0.757,0.006-1.882,0.342-2.259c0.528-0.258,2.335-0.829,4.302-1.239h0.428v-1.729c-1.6-0.656-2.575-2.753-2.575-4.649
				c0-2.279,0.601-4.127,3.604-4.127s3.604,1.848,3.604,4.127c0,1.896-0.975,3.99-2.572,4.647v1.731h0.489
				c1.943,0.414,3.72,0.986,4.25,1.24C14.314,14.122,14.523,15.243,14.315,16z M16.502,10h-0.998c-0.276,0-0.5,0.225-0.5,0.5
				c0,0.276,0.224,0.5,0.5,0.5h0.998c0.275,0,0.499-0.224,0.499-0.5C17.001,10.225,16.777,10,16.502,10z M16.502,7h-1.997
				c-0.276,0-0.5,0.224-0.5,0.5s0.224,0.5,0.5,0.5h1.997c0.275,0,0.499-0.224,0.499-0.5S16.777,7,16.502,7z M16.502,13
				c-0.275,0-0.499,0.225-0.499,0.5c0,0.276,0.224,0.5,0.499,0.5c0.276,0,0.499-0.224,0.499-0.5C17.001,13.225,16.778,13,16.502,13z
				"/>
		</g>
	</g>
</g>
<g id="Layer_1">
</g>
</svg>
