<?xml version="1.0" encoding="iso-8859-1"?>
<!-- Generator: Adobe Illustrator 16.0.0, SVG Export Plug-In . SVG Version: 6.00 Build 0)  -->
<!DOCTYPE svg PUBLIC "-//W3C//DTD SVG 1.1//EN" "http://www.w3.org/Graphics/SVG/1.1/DTD/svg11.dtd">
<svg version="1.1" xmlns="http://www.w3.org/2000/svg" xmlns:xlink="http://www.w3.org/1999/xlink" x="0px" y="0px" width="16px"
	 height="16px" viewBox="0 0 16 16" style="enable-background:new 0 0 16 16;" xml:space="preserve">
<g id="user-male-plus" style="enable-background:new    ;">
	<g id="user-male-plus_1_">
		<g>
			<path d="M14,7.5C14,3.911,11.762,1,9,1S4,3.911,4,7.5c0,2.222,0.861,4.181,2.171,5.353C3.817,13.82,1,15.342,1,16
				c0,0.727,0.448,1,1,1h9v-1H2.266c0.915-0.693,3.183-1.813,4.888-2.471C7.726,13.826,8.346,14,9,14
				c0.652,0,1.273-0.174,1.846-0.469c0.053,0.02,0.1,0.037,0.154,0.059v-0.139C12.764,12.447,14,10.164,14,7.5z M9,13
				c-2.209,0-4-2.463-4-5.5C5,4.462,6.791,2,9,2c2.209,0,4,2.462,4,5.5C13,10.537,11.209,13,9,13z M16.5,14H15v-1.5
				c0-0.275-0.225-0.5-0.5-0.5S14,12.225,14,12.5V14h-1.5c-0.275,0-0.5,0.223-0.5,0.5c0,0.275,0.225,0.5,0.5,0.5H14v1.5
				c0,0.275,0.225,0.5,0.5,0.5s0.5-0.225,0.5-0.5V15h1.5c0.275,0,0.5-0.225,0.5-0.5C17,14.223,16.775,14,16.5,14z"/>
		</g>
	</g>
</g>
<g id="Layer_1">
</g>
</svg>
