<?xml version="1.0" encoding="iso-8859-1"?>
<!-- Generator: Adobe Illustrator 16.0.0, SVG Export Plug-In . SVG Version: 6.00 Build 0)  -->
<!DOCTYPE svg PUBLIC "-//W3C//DTD SVG 1.1//EN" "http://www.w3.org/Graphics/SVG/1.1/DTD/svg11.dtd">
<svg version="1.1" xmlns="http://www.w3.org/2000/svg" xmlns:xlink="http://www.w3.org/1999/xlink" x="0px" y="0px" width="16px"
	 height="16px" viewBox="0 0 16 16" style="enable-background:new 0 0 16 16;" xml:space="preserve">
<g id="user-single-a-group" style="enable-background:new    ;">
	<g id="user-single-a-group_1_">
		<g>
			<path d="M13.5,9h-0.779c0.26,0.289,0.463,0.626,0.596,1H13.5c1.104,0,2,0.896,2,2s-0.896,2-2,2v1.001c1.656,0,3-1.344,3-3.001
				C16.5,10.344,15.156,9,13.5,9z M15.5,5c0-2.209-1.566-4-3.5-4c-0.533,0-1.031,0.146-1.482,0.389
				c0.256,0.233,0.494,0.493,0.709,0.773C11.471,2.065,11.729,2,12,2c1.381,0,2.5,1.344,2.5,3c0,1.58-1.021,2.86-2.313,2.978
				c-0.049,0.154-0.105,0.304-0.166,0.451c0.234,0.139,0.449,0.301,0.637,0.496C14.275,8.571,15.5,6.952,15.5,5z M10.453,9.17
				C11.098,8.305,11.5,7.21,11.5,6c0-2.762-2.016-5-4.5-5C4.515,1,2.5,3.238,2.5,6c0,1.21,0.402,2.305,1.046,3.17
				C2.359,9.57,1.5,10.68,1.5,12v2c0,1.657,1.343,3,3,3h5c1.656,0,3-1.343,3-3v-2C12.5,10.68,11.641,9.57,10.453,9.17z M3.5,6
				c0-2.209,1.567-4,3.5-4s3.5,1.791,3.5,4c0,2.21-1.567,4-3.5,4S3.5,8.21,3.5,6z M11.5,14c0,1.104-0.896,2.001-2,2.001h-5
				c-1.104,0-2-0.896-2-2.001v-2c0-1.05,0.813-1.901,1.842-1.983C5.088,10.627,6.001,11,7,11c0.998,0,1.912-0.373,2.658-0.983
				C10.688,10.099,11.5,10.95,11.5,12V14z"/>
		</g>
	</g>
</g>
<g id="Layer_1">
</g>
</svg>
