<?xml version="1.0" encoding="iso-8859-1"?>
<!-- Generator: Adobe Illustrator 16.0.0, SVG Export Plug-In . SVG Version: 6.00 Build 0)  -->
<!DOCTYPE svg PUBLIC "-//W3C//DTD SVG 1.1//EN" "http://www.w3.org/Graphics/SVG/1.1/DTD/svg11.dtd">
<svg version="1.1" xmlns="http://www.w3.org/2000/svg" xmlns:xlink="http://www.w3.org/1999/xlink" x="0px" y="0px" width="16px"
	 height="16px" viewBox="0 0 16 16" style="enable-background:new 0 0 16 16;" xml:space="preserve">
<g id="volume-mute-a" style="enable-background:new    ;">
	<g id="volume-mute-a_2_">
		<g>
			<path d="M15.339,10.129l-2.142-2.146l2.126-2.131c0.196-0.196,0.196-0.515,0-0.712s-0.515-0.197-0.711,0l-2.126,2.13l-2.126-2.13
				c-0.196-0.197-0.515-0.197-0.711,0s-0.196,0.516,0,0.712l2.125,2.131l-2.141,2.146c-0.196,0.196-0.196,0.516,0,0.713
				s0.515,0.197,0.711,0l2.142-2.146l2.142,2.146c0.196,0.197,0.515,0.197,0.711,0S15.535,10.325,15.339,10.129z M1.509,4.999
				c-0.551,0-0.998,0.447-0.998,1v4c0,0.553,0.447,1,0.998,1h1.996l4.989,3v-12l-4.989,3H1.509z M7.497,12.499l-3.992-2.5H3.006
				H2.008c-0.275,0-0.499-0.224-0.499-0.5v-3c0-0.275,0.224-0.5,0.499-0.5h0.998h0.499l3.992-2.5V12.499z"/>
		</g>
	</g>
</g>
<g id="Layer_1">
</g>
</svg>
