<?xml version="1.0" encoding="iso-8859-1"?>
<!-- Generator: Adobe Illustrator 16.0.0, SVG Export Plug-In . SVG Version: 6.00 Build 0)  -->
<!DOCTYPE svg PUBLIC "-//W3C//DTD SVG 1.1//EN" "http://www.w3.org/Graphics/SVG/1.1/DTD/svg11.dtd">
<svg version="1.1" xmlns="http://www.w3.org/2000/svg" xmlns:xlink="http://www.w3.org/1999/xlink" x="0px" y="0px" width="16px"
	 height="16px" viewBox="0 0 16 16" style="enable-background:new 0 0 16 16;" xml:space="preserve">
<g id="volume-mute" style="enable-background:new    ;">
	<g id="volume-mute_2_">
		<g>
			<path d="M1.509,4.999c-0.551,0-0.998,0.447-0.998,1v4c0,0.553,0.447,1,0.998,1h1.996l4.989,3v-12l-4.989,3H1.509z M4.504,5.373
				l2.993-1.874v9l-2.993-1.874V5.373z M3.506,10L3.506,10L3.505,9.499c0,0.002-0.001,0.003-0.001,0.005v0.495H3.006h-0.5H2.008
				c-0.275,0-0.499-0.224-0.499-0.5v-3c0-0.275,0.224-0.5,0.499-0.5h0.498h0.5h0.498v0.495c0,0.002,0.001,0.003,0.001,0.005v-0.5
				l0.001-0.001V10z M15.339,10.129l-2.142-2.146l2.126-2.131c0.196-0.196,0.196-0.515,0-0.712s-0.515-0.197-0.711,0l-2.126,2.13
				l-2.126-2.13c-0.196-0.197-0.515-0.197-0.711,0s-0.196,0.516,0,0.712l2.126,2.131l-2.142,2.146c-0.196,0.196-0.196,0.516,0,0.713
				s0.515,0.197,0.711,0l2.142-2.146l2.142,2.146c0.196,0.197,0.515,0.197,0.711,0S15.535,10.325,15.339,10.129z"/>
		</g>
	</g>
</g>
<g id="Layer_1">
</g>
</svg>
