<?xml version="1.0" encoding="iso-8859-1"?>
<!-- Generator: Adobe Illustrator 16.0.0, SVG Export Plug-In . SVG Version: 6.00 Build 0)  -->
<!DOCTYPE svg PUBLIC "-//W3C//DTD SVG 1.1//EN" "http://www.w3.org/Graphics/SVG/1.1/DTD/svg11.dtd">
<svg version="1.1" xmlns="http://www.w3.org/2000/svg" xmlns:xlink="http://www.w3.org/1999/xlink" x="0px" y="0px" width="16px"
	 height="16px" viewBox="0 0 16 16" style="enable-background:new 0 0 16 16;" xml:space="preserve">
<g id="volume-high" style="enable-background:new    ;">
	<g id="volume-high_1_">
		<g>
			<path d="M12.499,7.999c0-1.761-1.307-3.205-3-3.449v0.999c1.141,0.232,2,1.24,2,2.45c0,1.209-0.859,2.219-2,2.449v1
				C11.192,11.204,12.499,9.761,12.499,7.999z M9.499,1.1v1c2.836,0.479,5,2.928,5,5.899c0,2.973-2.164,5.422-5,5.9v0.998
				c3.389-0.488,6-3.375,6-6.898C15.499,4.476,12.888,1.589,9.499,1.1z M1.499,5c-0.552,0-1,0.448-1,1v4c0,0.553,0.448,1,1,1h2l5,3
				V2l-5,3H1.499z M3.499,9.999h-0.5h-0.5h-0.5c-0.276,0-0.5-0.225-0.5-0.5v-3c0-0.275,0.224-0.5,0.5-0.5h0.5h0.5h0.5V9.999z
				 M4.499,5.375l3-1.875v9l-3-1.875V5.375z"/>
		</g>
	</g>
</g>
<g id="Layer_1">
</g>
</svg>
