<?xml version="1.0" encoding="iso-8859-1"?>
<!-- Generator: Adobe Illustrator 16.0.0, SVG Export Plug-In . SVG Version: 6.00 Build 0)  -->
<!DOCTYPE svg PUBLIC "-//W3C//DTD SVG 1.1//EN" "http://www.w3.org/Graphics/SVG/1.1/DTD/svg11.dtd">
<svg version="1.1" xmlns="http://www.w3.org/2000/svg" xmlns:xlink="http://www.w3.org/1999/xlink" x="0px" y="0px" width="16px"
	 height="16px" viewBox="0 0 16 16" style="enable-background:new 0 0 16 16;" xml:space="preserve">
<g id="volume-medium-a" style="enable-background:new    ;">
	<g id="volume-medium-a_2_">
		<g>
			<path d="M2.999,4.999c-0.552,0-1,0.448-1,1v4c0,0.553,0.448,1,1,1h2l5,3v-12l-5,3H2.999z M8.999,12.499l-4-2.5h-0.5h-1
				c-0.276,0-0.5-0.225-0.5-0.5v-3c0-0.275,0.224-0.5,0.5-0.5h1h0.5l4-2.5V12.499z M10.999,4.55v0.999c1.141,0.232,2,1.24,2,2.45
				c0,1.209-0.859,2.218-2,2.449v1c1.693-0.244,3-1.688,3-3.449S12.692,4.794,10.999,4.55z"/>
		</g>
	</g>
</g>
<g id="Layer_1">
</g>
</svg>
