<?xml version="1.0" encoding="iso-8859-1"?>
<!-- Generator: Adobe Illustrator 16.0.0, SVG Export Plug-In . SVG Version: 6.00 Build 0)  -->
<!DOCTYPE svg PUBLIC "-//W3C//DTD SVG 1.1//EN" "http://www.w3.org/Graphics/SVG/1.1/DTD/svg11.dtd">
<svg version="1.1" xmlns="http://www.w3.org/2000/svg" xmlns:xlink="http://www.w3.org/1999/xlink" x="0px" y="0px" width="16px"
	 height="16px" viewBox="0 0 16 16" style="enable-background:new 0 0 16 16;" xml:space="preserve">
<g id="weather-cloud-sun" style="enable-background:new    ;">
	<g id="weather-cloud-sun_1_">
		<g>
			<path d="M10.394,3.539c-0.906-1.796-2.746-3.04-4.895-3.04c-3.038,0-5.5,2.463-5.5,5.501c0,0.959,0.251,1.856,0.683,2.641
				C0.256,9.328-0.001,10.132-0.001,11c0,2.485,2.015,4.499,4.5,4.499h5.5c3.314,0,6-2.687,6-6
				C15.999,6.321,13.519,3.746,10.394,3.539z M5.499,1.5c1.589,0,2.979,0.828,3.779,2.072C7.361,3.805,5.729,4.937,4.807,6.53
				C4.703,6.523,4.604,6.499,4.499,6.499c-1.214,0-2.312,0.486-3.121,1.269C1.142,7.225,0.999,6.632,0.999,6
				C0.999,3.514,3.014,1.5,5.499,1.5z M10.999,14.398v0.101h-7v-0.05c-1.694-0.245-3-1.688-3-3.449c0-1.934,1.567-3.501,3.5-3.501
				c0.303,0,0.591,0.051,0.872,0.123C6.113,5.793,7.902,4.5,9.999,4.5c2.762,0,5,2.238,5,4.999
				C14.999,11.919,13.28,13.936,10.999,14.398z"/>
		</g>
	</g>
</g>
<g id="Layer_1">
</g>
</svg>
