<?xml version="1.0" encoding="iso-8859-1"?>
<!-- Generator: Adobe Illustrator 16.0.0, SVG Export Plug-In . SVG Version: 6.00 Build 0)  -->
<!DOCTYPE svg PUBLIC "-//W3C//DTD SVG 1.1//EN" "http://www.w3.org/Graphics/SVG/1.1/DTD/svg11.dtd">
<svg version="1.1" xmlns="http://www.w3.org/2000/svg" xmlns:xlink="http://www.w3.org/1999/xlink" x="0px" y="0px" width="16px"
	 height="16px" viewBox="0 0 16 16" style="enable-background:new 0 0 16 16;" xml:space="preserve">
<g id="weather-wind-pressure-a" style="enable-background:new    ;">
	<g id="weather-wind-pressure-a_1_">
		<g>
			<path d="M11.913,7.495c1.705,0,3.086-1.343,3.086-3c0-1.631-1.342-2.951-3.01-2.992v1c1.1,0.04,1.98,0.913,1.98,1.992
				s-0.881,1.953-1.98,1.992v0.008h-0.076H3v1h0.011H11.913z M12.007,4.495H4.995v1h7.012V4.495z M2.002,11.496h5.984v-1.001H2.002
				V11.496z M11.913,8.496H3.011H0.999v1.001h4V9.495h6.01h0.904c1.137,0,2.057,0.896,2.057,2.001c0,1.104-0.92,1.999-2.057,1.999
				h-0.904v1h0.904c1.705,0,3.086-1.343,3.086-2.999C14.999,9.839,13.618,8.496,11.913,8.496z"/>
		</g>
	</g>
</g>
<g id="Layer_1">
</g>
</svg>
