<?xml version="1.0" encoding="iso-8859-1"?>
<!-- Generator: Adobe Illustrator 16.0.0, SVG Export Plug-In . SVG Version: 6.00 Build 0)  -->
<!DOCTYPE svg PUBLIC "-//W3C//DTD SVG 1.1//EN" "http://www.w3.org/Graphics/SVG/1.1/DTD/svg11.dtd">
<svg version="1.1" xmlns="http://www.w3.org/2000/svg" xmlns:xlink="http://www.w3.org/1999/xlink" x="0px" y="0px" width="16px"
	 height="16px" viewBox="0 0 16 16" style="enable-background:new 0 0 16 16;" xml:space="preserve">
<g id="weather-moon-a" style="enable-background:new    ;">
	<g id="weather-moon-a_2_">
		<g>
			<path d="M13.681,11.999c-3.362,0-6.088-2.687-6.088-6c0-1.993,0.997-3.746,2.514-4.837C9.622,1.06,9.122,0.999,8.607,0.999
				c-3.923,0-7.103,3.134-7.103,7s3.18,7,7.103,7c2.449,0,4.607-1.222,5.885-3.08C14.224,11.954,13.958,11.999,13.681,11.999z
				 M8.607,13.999c-3.356,0-6.088-2.691-6.088-6c0-3.052,2.323-5.578,5.317-5.952C7.029,3.2,6.578,4.578,6.578,5.999
				c0,3.358,2.412,6.172,5.618,6.847C11.168,13.585,9.916,13.999,8.607,13.999z"/>
		</g>
	</g>
</g>
<g id="Layer_1">
</g>
</svg>
