<?xml version="1.0" encoding="iso-8859-1"?>
<!-- Generator: Adobe Illustrator 16.0.0, SVG Export Plug-In . SVG Version: 6.00 Build 0)  -->
<!DOCTYPE svg PUBLIC "-//W3C//DTD SVG 1.1//EN" "http://www.w3.org/Graphics/SVG/1.1/DTD/svg11.dtd">
<svg version="1.1" xmlns="http://www.w3.org/2000/svg" xmlns:xlink="http://www.w3.org/1999/xlink" x="0px" y="0px" width="16px"
	 height="16px" viewBox="0 0 16 16" style="enable-background:new 0 0 16 16;" xml:space="preserve">
<g id="weather-wind" style="enable-background:new    ;">
	<g id="weather-wind_2_">
		<g>
			<path d="M14.999,1.499l-12-1c-0.276,0-0.5,0.224-0.5,0.499v0.501h1l4,0.363v4.772l-4,0.364v-4.5h-1v4.999
				c0,0.276,0.224,0.501,0.5,0.501l12-1c0.275,0,0.5-0.224,0.5-0.5V1.998C15.499,1.722,15.274,1.499,14.999,1.499z M11.499,6.271
				l-3,0.272V1.953l3,0.273V6.271z M14.499,5.998l-2,0.183V2.316l2,0.183V5.998z M0.999,0.499c-0.276,0-0.5,0.224-0.5,0.499v14
				c0,0.276,0.224,0.501,0.5,0.501c0.276,0,0.5-0.225,0.5-0.501v-14C1.499,0.723,1.275,0.499,0.999,0.499z"/>
		</g>
	</g>
</g>
<g id="Layer_1">
</g>
</svg>
