<?xml version="1.0" encoding="iso-8859-1"?>
<!-- Generator: Adobe Illustrator 16.0.0, SVG Export Plug-In . SVG Version: 6.00 Build 0)  -->
<!DOCTYPE svg PUBLIC "-//W3C//DTD SVG 1.1//EN" "http://www.w3.org/Graphics/SVG/1.1/DTD/svg11.dtd">
<svg version="1.1" xmlns="http://www.w3.org/2000/svg" xmlns:xlink="http://www.w3.org/1999/xlink" x="0px" y="0px" width="16px"
	 height="16px" viewBox="0 0 16 16" style="enable-background:new 0 0 16 16;" xml:space="preserve">
<g id="weather-moon-b" style="enable-background:new    ;">
	<g id="weather-moon-b_1_">
		<g>
			<path d="M12.194,0.495c0.049,0.391,0.082,0.788,0.082,1.192c0,5.369-4.518,9.722-10.09,9.722c-0.75,0-1.479-0.084-2.183-0.234
				c1.432,2.576,4.25,4.328,7.494,4.328c4.693,0,8.498-3.666,8.498-8.187C15.995,4.467,14.483,1.96,12.194,0.495z M7.497,14.479
				c-1.978,0-3.834-0.752-5.204-2.047c5.708-0.053,10.403-4.256,10.985-9.621c1.059,1.259,1.654,2.84,1.654,4.504
				C14.933,11.267,11.597,14.479,7.497,14.479z"/>
		</g>
	</g>
</g>
<g id="Layer_1">
</g>
</svg>
