<?xml version="1.0" encoding="iso-8859-1"?>
<!-- Generator: Adobe Illustrator 16.0.0, SVG Export Plug-In . SVG Version: 6.00 Build 0)  -->
<!DOCTYPE svg PUBLIC "-//W3C//DTD SVG 1.1//EN" "http://www.w3.org/Graphics/SVG/1.1/DTD/svg11.dtd">
<svg version="1.1" xmlns="http://www.w3.org/2000/svg" xmlns:xlink="http://www.w3.org/1999/xlink" x="0px" y="0px" width="16px"
	 height="16px" viewBox="0 0 16 16" style="enable-background:new 0 0 16 16;" xml:space="preserve">
<g id="weather-cloud-snow" style="enable-background:new    ;">
	<g id="weather-cloud-snow_2_">
		<g>
			<path d="M6,12.991H4.997v1.012H6V12.991z M8.997,16.001h1.004v-1.01H8.997V16.001z M5.997,16.001H7v-1.01H5.997V16.001z
				 M12.054,2.578c-0.721-1.521-2.26-2.581-4.055-2.581c-1.984,0-3.649,1.293-4.248,3.076C1.624,3.43-0.001,5.268-0.001,7.498
				c0,2.486,2.015,4.5,4.5,4.5h7v-0.025c2.504-0.133,4.5-2.188,4.5-4.724C15.999,4.9,14.292,2.962,12.054,2.578z M11.499,10.972
				v0.025h-7c-1.933,0-3.5-1.566-3.5-3.5c0-1.934,1.567-3.501,3.5-3.501c0.017,0,0.033,0.005,0.05,0.005
				c0.243-1.696,1.687-3.004,3.45-3.004c1.586,0,2.91,1.062,3.34,2.509c2.029,0.049,3.66,1.701,3.66,3.741
				C14.999,9.231,13.45,10.841,11.499,10.972z M10.997,14.003h1.004v-1.012h-1.004V14.003z M9.001,12.991H7.997v1.012h1.004V12.991z
				"/>
		</g>
	</g>
</g>
<g id="Layer_1">
</g>
</svg>
