<?xml version="1.0" encoding="iso-8859-1"?>
<!-- Generator: Adobe Illustrator 16.0.0, SVG Export Plug-In . SVG Version: 6.00 Build 0)  -->
<!DOCTYPE svg PUBLIC "-//W3C//DTD SVG 1.1//EN" "http://www.w3.org/Graphics/SVG/1.1/DTD/svg11.dtd">
<svg version="1.1" xmlns="http://www.w3.org/2000/svg" xmlns:xlink="http://www.w3.org/1999/xlink" x="0px" y="0px" width="16px"
	 height="16px" viewBox="0 0 16 16" style="enable-background:new 0 0 16 16;" xml:space="preserve">
<g id="weather-sun-a" style="enable-background:new    ;">
	<g id="weather-sun-a_1_">
		<g>
			<path d="M2.499,7.499h-2v1h2V7.499z M2.342,12.948l0.707,0.707l1.414-1.414l-0.707-0.707L2.342,12.948z M4.463,3.756L3.049,2.342
				L2.342,3.049l1.414,1.414L4.463,3.756z M13.656,3.049l-0.708-0.707l-1.414,1.414l0.707,0.708L13.656,3.049z M8.499,0.5h-1v1.999
				h1V0.5z M7.499,15.499h1v-2h-1V15.499z M13.499,7.499v1h2v-1H13.499z M11.534,12.241l1.414,1.414l0.707-0.707l-1.414-1.414
				L11.534,12.241z M7.999,3.499c-2.485,0-4.5,2.015-4.5,4.5c0,2.487,2.015,4.5,4.5,4.5s4.5-2.014,4.5-4.5
				C12.499,5.513,10.484,3.499,7.999,3.499z M7.999,11.493c-1.93,0-3.494-1.564-3.494-3.495c0-1.929,1.564-3.493,3.494-3.493
				s3.494,1.564,3.494,3.493C11.493,9.929,9.929,11.493,7.999,11.493z"/>
		</g>
	</g>
</g>
<g id="Layer_1">
</g>
</svg>
