<?xml version="1.0" encoding="iso-8859-1"?>
<!-- Generator: Adobe Illustrator 16.0.0, SVG Export Plug-In . SVG Version: 6.00 Build 0)  -->
<!DOCTYPE svg PUBLIC "-//W3C//DTD SVG 1.1//EN" "http://www.w3.org/Graphics/SVG/1.1/DTD/svg11.dtd">
<svg version="1.1" xmlns="http://www.w3.org/2000/svg" xmlns:xlink="http://www.w3.org/1999/xlink" x="0px" y="0px" width="16px"
	 height="16px" viewBox="0 0 16 16" style="enable-background:new 0 0 16 16;" xml:space="preserve">
<g id="weather-moon" style="enable-background:new    ;">
	<g id="weather-moon_1_">
		<g>
			<path d="M7.998,8c0-3.526,2.609-6.435,6.001-6.922c-1.179-0.682-2.542-1.079-4.001-1.079c-4.418,0-8,3.582-8,8.001
				c0,4.418,3.582,7.999,8,7.999c1.459,0,2.822-0.396,4-1.079C10.607,14.434,7.998,11.525,7.998,8z M9.998,14.999
				c-3.86,0-7-3.14-7-6.999c0-3.86,3.14-7,7-7c0.341,0,0.681,0.025,1.017,0.075C8.603,2.471,6.998,5.086,6.998,8
				c0,2.913,1.604,5.527,4.016,6.924C10.679,14.975,10.339,14.999,9.998,14.999z"/>
		</g>
	</g>
</g>
<g id="Layer_1">
</g>
</svg>
