<?xml version="1.0" encoding="iso-8859-1"?>
<!-- Generator: Adobe Illustrator 16.0.0, SVG Export Plug-In . SVG Version: 6.00 Build 0)  -->
<!DOCTYPE svg PUBLIC "-//W3C//DTD SVG 1.1//EN" "http://www.w3.org/Graphics/SVG/1.1/DTD/svg11.dtd">
<svg version="1.1" xmlns="http://www.w3.org/2000/svg" xmlns:xlink="http://www.w3.org/1999/xlink" x="0px" y="0px" width="16px"
	 height="16px" viewBox="0 0 16 16" style="enable-background:new 0 0 16 16;" xml:space="preserve">
<g id="weather-sun-b" style="enable-background:new    ;">
	<g id="weather-sun-b_2_">
		<g>
			<path d="M3.499,7.499h-3V8.5h3V7.499z M8.499,0.499h-1V3.5h1V0.499z M13.655,3.05l-0.707-0.707l-1.414,1.414l0.707,0.707
				L13.655,3.05z M2.342,12.949l0.708,0.707l1.414-1.414l-0.707-0.707L2.342,12.949z M2.342,3.05l1.415,1.414l0.707-0.707
				L3.049,2.343L2.342,3.05z M7.999,4.5c-1.933,0-3.5,1.566-3.5,3.499c0,1.934,1.567,3.501,3.5,3.501c1.934,0,3.5-1.567,3.5-3.501
				C11.499,6.066,9.933,4.5,7.999,4.5z M7.999,10.505c-1.384,0-2.505-1.122-2.505-2.506c0-1.383,1.122-2.505,2.505-2.505
				c1.383,0,2.506,1.122,2.506,2.505C10.505,9.383,9.382,10.505,7.999,10.505z M12.499,7.499V8.5h3V7.499H12.499z M11.534,12.242
				l1.414,1.414l0.707-0.707l-1.414-1.414L11.534,12.242z M7.499,15.499h1V12.5h-1V15.499z"/>
		</g>
	</g>
</g>
<g id="Layer_1">
</g>
</svg>
