<?xml version="1.0" encoding="iso-8859-1"?>
<!-- Generator: Adobe Illustrator 16.0.0, SVG Export Plug-In . SVG Version: 6.00 Build 0)  -->
<!DOCTYPE svg PUBLIC "-//W3C//DTD SVG 1.1//EN" "http://www.w3.org/Graphics/SVG/1.1/DTD/svg11.dtd">
<svg version="1.1" xmlns="http://www.w3.org/2000/svg" xmlns:xlink="http://www.w3.org/1999/xlink" x="0px" y="0px" width="16px"
	 height="16px" viewBox="0 0 16 16" style="enable-background:new 0 0 16 16;" xml:space="preserve">
<g id="weather-cloud-rainy-a" style="enable-background:new    ;">
	<g id="weather-cloud-rainy-a_2_">
		<g>
			<path d="M7.997,16.002h1.004v-3.011H7.997V16.002z M4.997,16.002H6v-3.011H4.997V16.002z M9.999-0.004
				c-2.229,0-4.15,1.229-5.185,3.032C4.708,3.021,4.607,2.996,4.499,2.996c-2.485,0-4.5,2.016-4.5,4.5c0,2.485,2.015,4.5,4.5,4.5
				c0.17,0,0.334-0.021,0.5-0.039v0.039h5c3.314,0,6-2.686,6-6C15.999,2.683,13.313-0.004,9.999-0.004z M10.999,10.896v0.1h-0.99
				c-0.004,0.001-0.006,0.002-0.01,0.002s-0.008-0.001-0.012-0.002H4.509c-0.003,0.001-0.007,0.002-0.01,0.002
				c-0.004,0-0.007-0.001-0.011-0.002H3.999v-0.049c-1.694-0.244-3-1.688-3-3.45c0-1.933,1.567-3.5,3.5-3.5
				c0.303,0,0.591,0.051,0.872,0.123C6.113,2.29,7.902,0.997,9.999,0.997c2.762,0,5,2.238,5,4.999
				C14.999,8.415,13.28,10.433,10.999,10.896z M10.997,16.002h1.004v-3.011h-1.004V16.002z"/>
		</g>
	</g>
</g>
<g id="Layer_1">
</g>
</svg>
