<?xml version="1.0" encoding="iso-8859-1"?>
<!-- Generator: Adobe Illustrator 16.0.0, SVG Export Plug-In . SVG Version: 6.00 Build 0)  -->
<!DOCTYPE svg PUBLIC "-//W3C//DTD SVG 1.1//EN" "http://www.w3.org/Graphics/SVG/1.1/DTD/svg11.dtd">
<svg version="1.1" xmlns="http://www.w3.org/2000/svg" xmlns:xlink="http://www.w3.org/1999/xlink" x="0px" y="0px" width="16px"
	 height="16px" viewBox="0 0 16 16" style="enable-background:new 0 0 16 16;" xml:space="preserve">
<g id="weather-sunset-a" style="enable-background:new    ;">
	<g id="weather-sunset-a_2_">
		<g>
			<path d="M7.999,15.999c1.404,0,2.723-0.363,3.869-1H4.129C5.276,15.636,6.594,15.999,7.999,15.999z M1.324,9.999
				c-0.191-0.638-0.325-1.3-0.325-2c0-3.865,3.134-7,7-7c3.865,0,7,3.135,7,7c0,0.7-0.135,1.362-0.326,2h1.064
				c0.164-0.64,0.262-1.308,0.262-2c0-4.418-3.582-8-8-8c-4.418,0-8,3.582-8,8c0,0.692,0.097,1.36,0.262,2H1.324z M1.499,13.999h13
				v-1h-13V13.999z M-0.001,12h16v-1h-16V12z"/>
		</g>
	</g>
</g>
<g id="Layer_1">
</g>
</svg>
