<?xml version="1.0" encoding="iso-8859-1"?>
<!-- Generator: Adobe Illustrator 16.0.0, SVG Export Plug-In . SVG Version: 6.00 Build 0)  -->
<!DOCTYPE svg PUBLIC "-//W3C//DTD SVG 1.1//EN" "http://www.w3.org/Graphics/SVG/1.1/DTD/svg11.dtd">
<svg version="1.1" xmlns="http://www.w3.org/2000/svg" xmlns:xlink="http://www.w3.org/1999/xlink" x="0px" y="0px" width="16px"
	 height="16px" viewBox="0 0 16 16" style="enable-background:new 0 0 16 16;" xml:space="preserve">
<g id="weather-cloud-stormy" style="enable-background:new    ;">
	<g id="weather-cloud-stormy_1_">
		<g>
			<path d="M12.054,2.581C11.333,1.06,9.794,0,7.999,0C6.015,0,4.35,1.293,3.751,3.076C1.624,3.434-0.001,5.271-0.001,7.501
				c0,2.313,1.753,4.197,4,4.449v-1c-1.694-0.245-3-1.688-3-3.449C0.999,5.567,2.566,4,4.499,4c0.017,0,0.033,0.005,0.05,0.005
				c0.243-1.696,1.687-3.004,3.45-3.004c1.586,0,2.91,1.062,3.34,2.509c2.029,0.049,3.66,1.701,3.66,3.741
				c0,1.813-1.289,3.326-3,3.674v1c2.264-0.361,4-2.308,4-4.674C15.999,4.903,14.292,2.966,12.054,2.581z M9.468,11.848
				c-0.012-0.038-0.029-0.07-0.051-0.104c-0.012-0.021-0.023-0.04-0.039-0.059C9.351,11.651,9.317,11.625,9.28,11.6
				c-0.012-0.009-0.018-0.021-0.031-0.029c-0.006-0.004-0.014-0.004-0.021-0.007c-0.037-0.02-0.076-0.031-0.119-0.041
				c-0.023-0.005-0.047-0.013-0.072-0.015c-0.012-0.001-0.023-0.007-0.037-0.007h-1.64l1.573-2.743
				c0.137-0.24,0.055-0.549-0.184-0.688c-0.24-0.14-0.545-0.057-0.684,0.185l-2,3.487c-0.008,0.015-0.008,0.03-0.015,0.044
				c-0.011,0.022-0.016,0.046-0.023,0.07c-0.011,0.038-0.021,0.074-0.023,0.113c0,0.011-0.006,0.02-0.006,0.03
				c0,0.022,0.01,0.042,0.013,0.063c0.004,0.031,0.008,0.061,0.018,0.09c0.012,0.038,0.03,0.07,0.05,0.104
				c0.012,0.021,0.024,0.04,0.039,0.059c0.029,0.034,0.062,0.062,0.099,0.088c0.011,0.008,0.018,0.021,0.031,0.027
				c0.006,0.004,0.013,0.003,0.019,0.006c0.039,0.021,0.081,0.033,0.125,0.043c0.022,0.005,0.044,0.012,0.067,0.013
				c0.014,0.002,0.025,0.009,0.04,0.009h1.639l-1.572,2.741c-0.138,0.241-0.056,0.549,0.183,0.688
				c0.239,0.139,0.545,0.057,0.683-0.185l2.001-3.488c0.008-0.014,0.008-0.029,0.014-0.043c0.012-0.022,0.016-0.046,0.023-0.07
				c0.012-0.038,0.021-0.075,0.023-0.113c0-0.011,0.006-0.02,0.006-0.031c0-0.022-0.01-0.041-0.014-0.063
				C9.481,11.906,9.478,11.877,9.468,11.848z"/>
		</g>
	</g>
</g>
<g id="Layer_1">
</g>
</svg>
