<?xml version="1.0" encoding="iso-8859-1"?>
<!-- Generator: Adobe Illustrator 16.0.0, SVG Export Plug-In . SVG Version: 6.00 Build 0)  -->
<!DOCTYPE svg PUBLIC "-//W3C//DTD SVG 1.1//EN" "http://www.w3.org/Graphics/SVG/1.1/DTD/svg11.dtd">
<svg version="1.1" xmlns="http://www.w3.org/2000/svg" xmlns:xlink="http://www.w3.org/1999/xlink" x="0px" y="0px" width="16px"
	 height="16px" viewBox="0 0 16 16" style="enable-background:new 0 0 16 16;" xml:space="preserve">
<g id="weather-cloud-stormy-a" style="enable-background:new    ;">
	<g id="weather-cloud-stormy-a_1_">
		<g>
			<path d="M9.999,0.5c-2.228,0-4.15,1.229-5.185,3.032C4.708,3.525,4.607,3.5,4.499,3.5c-2.485,0-4.5,2.016-4.5,4.5
				c0,2.314,1.753,4.199,4,4.45v-1c-1.694-0.244-3-1.688-3-3.45c0-1.933,1.567-3.499,3.5-3.499c0.303,0,0.591,0.05,0.871,0.122
				c0.743-1.829,2.532-3.122,4.629-3.122c2.762,0,5,2.238,5,4.999c0,2.05-1.236,3.807-3,4.578v1.055c2.324-0.826,4-3.023,4-5.633
				C15.999,3.187,13.313,0.5,9.999,0.5z M9.468,11.348c-0.012-0.037-0.029-0.07-0.049-0.103c-0.014-0.021-0.025-0.041-0.041-0.061
				c-0.027-0.033-0.061-0.061-0.096-0.085c-0.014-0.009-0.02-0.021-0.033-0.029c-0.008-0.004-0.014-0.004-0.021-0.007
				c-0.037-0.02-0.076-0.031-0.119-0.041c-0.023-0.005-0.047-0.013-0.072-0.015c-0.012-0.001-0.023-0.007-0.037-0.007h-1.64
				l1.573-2.743C9.069,8.017,8.987,7.709,8.749,7.57c-0.24-0.139-0.545-0.057-0.684,0.185l-2,3.488
				c-0.008,0.014-0.008,0.029-0.015,0.044c-0.011,0.021-0.016,0.045-0.023,0.068c-0.011,0.038-0.021,0.075-0.023,0.114
				c0,0.011-0.006,0.02-0.006,0.031c0,0.022,0.01,0.042,0.013,0.063c0.004,0.03,0.008,0.06,0.018,0.089
				c0.012,0.038,0.03,0.07,0.05,0.104c0.013,0.021,0.024,0.041,0.04,0.06c0.028,0.033,0.061,0.06,0.096,0.085
				c0.012,0.009,0.02,0.021,0.033,0.029c0.007,0.004,0.014,0.004,0.021,0.008c0.037,0.02,0.077,0.03,0.119,0.04
				c0.024,0.005,0.048,0.013,0.072,0.015c0.013,0.001,0.024,0.008,0.038,0.008h1.639l-1.572,2.742
				c-0.138,0.24-0.056,0.549,0.183,0.688c0.239,0.139,0.545,0.057,0.683-0.184l2.001-3.489c0.008-0.014,0.008-0.028,0.014-0.043
				c0.012-0.022,0.016-0.046,0.023-0.07c0.012-0.038,0.021-0.074,0.023-0.113c0-0.011,0.006-0.02,0.006-0.03
				c0-0.022-0.01-0.042-0.014-0.063C9.481,11.406,9.478,11.377,9.468,11.348z"/>
		</g>
	</g>
</g>
<g id="Layer_1">
</g>
</svg>
