<?xml version="1.0" encoding="iso-8859-1"?>
<!-- Generator: Adobe Illustrator 16.0.0, SVG Export Plug-In . SVG Version: 6.00 Build 0)  -->
<!DOCTYPE svg PUBLIC "-//W3C//DTD SVG 1.1//EN" "http://www.w3.org/Graphics/SVG/1.1/DTD/svg11.dtd">
<svg version="1.1" xmlns="http://www.w3.org/2000/svg" xmlns:xlink="http://www.w3.org/1999/xlink" x="0px" y="0px" width="16px"
	 height="16px" viewBox="0 0 16 16" style="enable-background:new 0 0 16 16;" xml:space="preserve">
<g id="weather-sun-r" style="enable-background:new    ;">
	<g id="weather-sun-r_2_">
		<g>
			<path d="M3.11,4.403L1.695,2.989L0.988,3.695L2.403,5.11L3.11,4.403z M8.499,0.499h-1v2h1V0.499z M15.01,3.695l-0.707-0.706
				l-1.414,1.414l0.707,0.707L15.01,3.695z M2.993,9.499c0-2.765,2.241-5.006,5.006-5.006s5.006,2.241,5.006,5.006h0.994
				c0-3.313-2.686-6-6-6c-3.313,0-6,2.687-6,6H2.993z M-0.001,10.499V11.5h16v-1.001H-0.001z M0.999,13.499h14V12.5h-14V13.499z
				 M2.499,15.499h11v-1h-11V15.499z"/>
		</g>
	</g>
</g>
<g id="Layer_1">
</g>
</svg>
