<?xml version="1.0" encoding="iso-8859-1"?>
<!-- Generator: Adobe Illustrator 16.0.0, SVG Export Plug-In . SVG Version: 6.00 Build 0)  -->
<!DOCTYPE svg PUBLIC "-//W3C//DTD SVG 1.1//EN" "http://www.w3.org/Graphics/SVG/1.1/DTD/svg11.dtd">
<svg version="1.1" xmlns="http://www.w3.org/2000/svg" xmlns:xlink="http://www.w3.org/1999/xlink" x="0px" y="0px" width="16px"
	 height="16px" viewBox="0 0 16 16" style="enable-background:new 0 0 16 16;" xml:space="preserve">
<g id="weather-cloud-rainy" style="enable-background:new    ;">
	<g id="weather-cloud-rainy_2_">
		<g>
			<path d="M2.997,16.001H4v-2.51H2.997V16.001z M5.997,16.001H7v-2.51H5.997V16.001z M11.997,16.001h1.004v-2.51h-1.004V16.001z
				 M8.997,16.001h1.004v-2.51H8.997V16.001z M12.054,2.578c-0.721-1.521-2.26-2.581-4.055-2.581c-1.984,0-3.65,1.293-4.248,3.076
				C1.624,3.43-0.001,5.267-0.001,7.498c0,2.486,2.015,4.5,4.5,4.5h7v-0.025c2.504-0.133,4.5-2.188,4.5-4.724
				C15.999,4.9,14.292,2.962,12.054,2.578z M11.499,10.972v0.025h-7c-1.933,0-3.5-1.566-3.5-3.5c0-1.934,1.567-3.501,3.5-3.501
				c0.017,0,0.033,0.005,0.05,0.005c0.243-1.695,1.687-3.004,3.45-3.004c1.586,0,2.91,1.062,3.34,2.509
				c2.029,0.049,3.66,1.701,3.66,3.741C14.999,9.231,13.45,10.841,11.499,10.972z"/>
		</g>
	</g>
</g>
<g id="Layer_1">
</g>
</svg>
