<?xml version="1.0" encoding="iso-8859-1"?>
<!-- Generator: Adobe Illustrator 16.0.0, SVG Export Plug-In . SVG Version: 6.00 Build 0)  -->
<!DOCTYPE svg PUBLIC "-//W3C//DTD SVG 1.1//EN" "http://www.w3.org/Graphics/SVG/1.1/DTD/svg11.dtd">
<svg version="1.1" xmlns="http://www.w3.org/2000/svg" xmlns:xlink="http://www.w3.org/1999/xlink" x="0px" y="0px" width="16px"
	 height="16px" viewBox="0 0 16 16" style="enable-background:new 0 0 16 16;" xml:space="preserve">
<g id="weather-cloud-a" style="enable-background:new    ;">
	<g id="weather-cloud-a_2_">
		<g>
			<path d="M9.999,1.999c-2.229,0-4.15,1.229-5.185,3.032C4.708,5.023,4.607,4.999,4.499,4.999c-2.485,0-4.5,2.015-4.5,4.5
				s2.015,4.5,4.5,4.5h5.5c3.314,0,6-2.686,6-6C15.999,4.686,13.313,1.999,9.999,1.999z M10.999,12.898v0.101h-7v-0.05
				c-1.694-0.244-3-1.688-3-3.45c0-1.933,1.567-3.5,3.5-3.5c0.303,0,0.591,0.051,0.872,0.123c0.743-1.83,2.532-3.123,4.628-3.123
				c2.762,0,5,2.239,5,5C14.999,10.419,13.28,12.436,10.999,12.898z"/>
		</g>
	</g>
</g>
<g id="Layer_1">
</g>
</svg>
