<?xml version="1.0" encoding="iso-8859-1"?>
<!-- Generator: Adobe Illustrator 16.0.0, SVG Export Plug-In . SVG Version: 6.00 Build 0)  -->
<!DOCTYPE svg PUBLIC "-//W3C//DTD SVG 1.1//EN" "http://www.w3.org/Graphics/SVG/1.1/DTD/svg11.dtd">
<svg version="1.1" xmlns="http://www.w3.org/2000/svg" xmlns:xlink="http://www.w3.org/1999/xlink" x="0px" y="0px" width="16px"
	 height="16px" viewBox="0 0 16 16" style="enable-background:new 0 0 16 16;" xml:space="preserve">
<g id="weather-moon-r" style="enable-background:new    ;">
	<g id="weather-moon-r_2_">
		<g>
			<path d="M8.499,14.499h-5c-0.276,0-0.5,0.225-0.5,0.5c0,0.276,0.224,0.5,0.5,0.5h5c0.275,0,0.5-0.224,0.5-0.5
				C8.999,14.724,8.774,14.499,8.499,14.499z M8.317,10.499C8.126,9.862,7.999,9.199,7.999,8.5c0-3.526,2.61-6.435,6-6.922
				c-1.178-0.682-2.541-1.079-4-1.079c-4.419,0-8.001,3.582-8.001,8.001c0,0.691,0.097,1.359,0.262,1.999h-2.261V11.5h16v-1.001
				H8.317z M3.325,10.499C3.133,9.861,2.999,9.199,2.999,8.5c0-3.86,3.14-7,7-7c0.34,0,0.68,0.025,1.016,0.075
				C8.603,2.971,6.999,5.586,6.999,8.5c0,0.688,0.096,1.356,0.265,1.999H3.325z M9.499,12.499h-7c-0.276,0-0.5,0.224-0.5,0.501
				c0,0.275,0.224,0.499,0.5,0.499h7c0.275,0,0.5-0.224,0.5-0.499C9.999,12.723,9.774,12.499,9.499,12.499z"/>
		</g>
	</g>
</g>
<g id="Layer_1">
</g>
</svg>
