<?xml version="1.0" encoding="iso-8859-1"?>
<!-- Generator: Adobe Illustrator 16.0.0, SVG Export Plug-In . SVG Version: 6.00 Build 0)  -->
<!DOCTYPE svg PUBLIC "-//W3C//DTD SVG 1.1//EN" "http://www.w3.org/Graphics/SVG/1.1/DTD/svg11.dtd">
<svg version="1.1" xmlns="http://www.w3.org/2000/svg" xmlns:xlink="http://www.w3.org/1999/xlink" x="0px" y="0px" width="16px"
	 height="16px" viewBox="0 0 16 16" style="enable-background:new 0 0 16 16;" xml:space="preserve">
<g id="weather-wind-pressure" style="enable-background:new    ;">
	<g id="weather-wind-pressure_2_">
		<g>
			<path d="M11.499,4.5h-7v1h7V4.5z M14.499,4.5c0-1.657-1.344-3-3-3v1c1.104,0,2,0.895,2,2c0,1.104-0.896,2-2,2h-9v1h9
				C13.155,7.5,14.499,6.156,14.499,4.5z M11.499,8.499h-10v1h9h1c1.104,0,2,0.895,2,2s-0.896,2-2,2h-1v1h1c1.656,0,3-1.344,3-3
				S13.155,8.499,11.499,8.499z M7.499,10.499h-4v1h4c0.553,0,1,0.447,1,1s-0.447,1-1,1v1c1.104,0,2-0.895,2-2
				C9.499,11.396,8.603,10.499,7.499,10.499z"/>
		</g>
	</g>
</g>
<g id="Layer_1">
</g>
</svg>
