<?xml version="1.0" encoding="iso-8859-1"?>
<!-- Generator: Adobe Illustrator 16.0.0, SVG Export Plug-In . SVG Version: 6.00 Build 0)  -->
<!DOCTYPE svg PUBLIC "-//W3C//DTD SVG 1.1//EN" "http://www.w3.org/Graphics/SVG/1.1/DTD/svg11.dtd">
<svg version="1.1" xmlns="http://www.w3.org/2000/svg" xmlns:xlink="http://www.w3.org/1999/xlink" x="0px" y="0px" width="16px"
	 height="16px" viewBox="0 0 16 16" style="enable-background:new 0 0 16 16;" xml:space="preserve">
<g id="weather-cloud" style="enable-background:new    ;">
	<g id="weather-cloud_1_">
		<g>
			<path d="M12.055,4.581C11.333,3.059,9.795,2,7.999,2C6.015,2,4.35,3.292,3.751,5.075C1.624,5.432-0.001,7.27-0.001,9.499
				c0,2.486,2.015,4.5,4.5,4.5h7v-0.025c2.505-0.133,4.5-2.188,4.5-4.725C15.999,6.901,14.293,4.964,12.055,4.581z M11.499,12.974
				v0.025h-7c-1.933,0-3.5-1.566-3.5-3.5c0-1.933,1.567-3.5,3.5-3.5c0.018,0,0.033,0.004,0.05,0.004
				c0.242-1.696,1.687-3.005,3.45-3.005c1.587,0,2.911,1.063,3.341,2.509c2.028,0.05,3.659,1.702,3.659,3.742
				C14.999,11.235,13.451,12.843,11.499,12.974z"/>
		</g>
	</g>
</g>
<g id="Layer_1">
</g>
</svg>
