<?xml version="1.0" encoding="iso-8859-1"?>
<!-- Generator: Adobe Illustrator 16.0.0, SVG Export Plug-In . SVG Version: 6.00 Build 0)  -->
<!DOCTYPE svg PUBLIC "-//W3C//DTD SVG 1.1//EN" "http://www.w3.org/Graphics/SVG/1.1/DTD/svg11.dtd">
<svg version="1.1" xmlns="http://www.w3.org/2000/svg" xmlns:xlink="http://www.w3.org/1999/xlink" x="0px" y="0px" width="16px"
	 height="16px" viewBox="0 0 16 16" style="enable-background:new 0 0 16 16;" xml:space="preserve">
<g id="weather-sunrise" style="enable-background:new    ;">
	<g id="weather-sunrise_1_">
		<g>
			<path d="M8.499,2.999h-1v2h1V2.999z M15.01,6.196l-0.707-0.707l-1.414,1.414l0.707,0.707L15.01,6.196z M3.094,11
				c0.464-2.286,2.483-4.007,4.905-4.007c2.423,0,4.442,1.721,4.905,4.007h0.994c-0.478-2.836-2.928-5.001-5.899-5.001
				S2.578,8.164,2.1,11H3.094z M3.11,6.903L1.695,5.489L0.988,6.196L2.403,7.61L3.11,6.903z M-0.001,11.999v1h16v-1H-0.001z"/>
		</g>
	</g>
</g>
<g id="Layer_1">
</g>
</svg>
