<?xml version="1.0" encoding="iso-8859-1"?>
<!-- Generator: Adobe Illustrator 16.0.0, SVG Export Plug-In . SVG Version: 6.00 Build 0)  -->
<!DOCTYPE svg PUBLIC "-//W3C//DTD SVG 1.1//EN" "http://www.w3.org/Graphics/SVG/1.1/DTD/svg11.dtd">
<svg version="1.1" xmlns="http://www.w3.org/2000/svg" xmlns:xlink="http://www.w3.org/1999/xlink" x="0px" y="0px" width="17px"
	 height="16px" viewBox="0 0 17 16" style="enable-background:new 0 0 17 16;" xml:space="preserve">
<g id="web-url-b" style="enable-background:new    ;">
	<g id="web-url-b_2_">
		<g>
			<path d="M6.781,10.873l-2.155,2.155c-0.595,0.595-1.56,0.595-2.155,0c-0.595-0.596-0.595-1.561,0-2.155l2.155-2.155l1.428-1.429
				C5.293,7.183,4.493,7.414,3.908,8l-2.155,2.155c-0.992,0.991-0.992,2.6,0,3.591c0.992,0.992,2.6,0.992,3.592,0l2.155-2.155
				c0.586-0.585,0.816-1.385,0.71-2.146L6.781,10.873z M13.246,2.252c-0.992-0.992-2.6-0.992-3.592,0L7.499,4.408
				c-0.585,0.585-0.816,1.385-0.71,2.146l1.429-1.428l2.154-2.156c0.596-0.594,1.561-0.594,2.155,0c0.596,0.596,0.596,1.562,0,2.156
				l-2.155,2.154L8.944,8.71C9.706,8.815,10.505,8.585,11.091,8l2.155-2.156C14.237,4.853,14.237,3.245,13.246,2.252z M6.063,8.718
				l0.718,0.719l2.155-2.156L8.218,6.562L6.063,8.718z"/>
		</g>
	</g>
</g>
<g id="Layer_1">
</g>
</svg>
