<?xml version="1.0" encoding="iso-8859-1"?>
<!-- Generator: Adobe Illustrator 16.0.0, SVG Export Plug-In . SVG Version: 6.00 Build 0)  -->
<!DOCTYPE svg PUBLIC "-//W3C//DTD SVG 1.1//EN" "http://www.w3.org/Graphics/SVG/1.1/DTD/svg11.dtd">
<svg version="1.1" xmlns="http://www.w3.org/2000/svg" xmlns:xlink="http://www.w3.org/1999/xlink" x="0px" y="0px" width="17px"
	 height="16px" viewBox="0 0 17 16" style="enable-background:new 0 0 17 16;" xml:space="preserve">
<g id="web-url" style="enable-background:new    ;">
	<g id="web-url_2_">
		<g>
			<path d="M6.062,13.069l-1.09,1.089l-0.363,0.363c-0.601,0.602-1.579,0.602-2.18,0l-1.453-1.452c-0.601-0.602-0.601-1.579,0-2.18
				l4.722-4.724c0.602-0.601,1.579-0.601,2.18,0l0.726,0.727l0.363,0.364c0.101,0.1,0.232,0.15,0.363,0.15
				c0.132,0,0.264-0.051,0.363-0.15c0.201-0.201,0.201-0.525,0-0.727L9.331,6.166L8.604,5.44c-1.001-1.002-2.631-1.002-3.632,0
				L0.25,10.163c-1.001,1.002-1.001,2.631,0,3.633l1.453,1.452c1.001,1.002,2.632,1.001,3.633,0l0.363-0.363l1.09-1.089
				c0.2-0.201,0.2-0.526,0-0.727C6.587,12.868,6.263,12.868,6.062,13.069z M14.723,2.113l-1.336-1.337
				c-1.018-1.017-2.712-1.039-3.702-0.049L9.331,1.081l-1.09,1.09c-0.2,0.2-0.2,0.525,0,0.727c0.101,0.1,0.232,0.15,0.363,0.15
				c0.132,0,0.264-0.051,0.363-0.15l1.09-1.09l0.354-0.354c0.586-0.585,1.637-0.563,2.248,0.049l1.338,1.337
				c0.611,0.611,0.633,1.661,0.047,2.247l-3.269,3.27L9.5,9.632c-0.623,0.623-1.837,0.679-2.406,0.109l-0.612-0.61
				c-0.02-0.02-0.032-0.045-0.05-0.065L6.425,9.073L6.062,8.71c-0.201-0.201-0.526-0.201-0.727,0c-0.201,0.201-0.201,0.526,0,0.728
				l0.42,0.42l0.611,0.611l0.058,0.058c0.029,0.028,0.064,0.044,0.097,0.064c0.951,0.792,2.512,0.752,3.518-0.082l0.018,0.018
				c0.036-0.036,0.066-0.076,0.101-0.113c0.021-0.021,0.047-0.034,0.068-0.056l4.544-4.544C15.761,4.823,15.739,3.129,14.723,2.113z
				"/>
		</g>
	</g>
</g>
<g id="Layer_1">
</g>
</svg>
