<?xml version="1.0" encoding="iso-8859-1"?>
<!-- Generator: Adobe Illustrator 16.0.0, SVG Export Plug-In . SVG Version: 6.00 Build 0)  -->
<!DOCTYPE svg PUBLIC "-//W3C//DTD SVG 1.1//EN" "http://www.w3.org/Graphics/SVG/1.1/DTD/svg11.dtd">
<svg version="1.1" xmlns="http://www.w3.org/2000/svg" xmlns:xlink="http://www.w3.org/1999/xlink" x="0px" y="0px" width="17px"
	 height="16px" viewBox="0 0 17 16" style="enable-background:new 0 0 17 16;" xml:space="preserve">
<g id="web-database" style="enable-background:new    ;">
	<g id="web-database_2_">
		<g>
			<path d="M11.665,13.998h0.668c0.367,0,0.666-0.298,0.666-0.666v-0.667c0-0.368-0.299-0.666-0.666-0.666h-0.668
				c-0.367,0-0.666,0.298-0.666,0.666v0.667C10.999,13.7,11.298,13.998,11.665,13.998z M11.665,8.999h0.668
				c0.367,0,0.666-0.299,0.666-0.667V7.665c0-0.368-0.299-0.666-0.666-0.666h-0.668c-0.367,0-0.666,0.298-0.666,0.666v0.667
				C10.999,8.7,11.298,8.999,11.665,8.999z M13.999-0.001h-13c-0.552,0-1,0.447-1,1v14c0,0.553,0.448,1,1,1h13c0.553,0,1-0.447,1-1
				v-14C14.999,0.446,14.552-0.001,13.999-0.001z M13.999,4.999h-11.5c-0.276,0-0.5,0.224-0.5,0.5c0,0.275,0.224,0.5,0.5,0.5h11.5v4
				h-11.5c-0.276,0-0.5,0.224-0.5,0.5s0.224,0.5,0.5,0.5h11.5v3.5c0,0.276-0.225,0.5-0.5,0.5h-12c-0.276,0-0.5-0.224-0.5-0.5v-13
				c0-0.276,0.224-0.5,0.5-0.5h12c0.275,0,0.5,0.224,0.5,0.5V4.999z M12.333,1.999h-0.668c-0.367,0-0.666,0.299-0.666,0.667v0.666
				c0,0.368,0.299,0.667,0.666,0.667h0.668c0.367,0,0.666-0.299,0.666-0.667V2.666C12.999,2.298,12.7,1.999,12.333,1.999z"/>
		</g>
	</g>
</g>
<g id="Layer_1">
</g>
</svg>
