<?xml version="1.0" encoding="iso-8859-1"?>
<!-- Generator: Adobe Illustrator 16.0.0, SVG Export Plug-In . SVG Version: 6.00 Build 0)  -->
<!DOCTYPE svg PUBLIC "-//W3C//DTD SVG 1.1//EN" "http://www.w3.org/Graphics/SVG/1.1/DTD/svg11.dtd">
<svg version="1.1" xmlns="http://www.w3.org/2000/svg" xmlns:xlink="http://www.w3.org/1999/xlink" x="0px" y="0px" width="17px"
	 height="16px" viewBox="0 0 17 16" style="enable-background:new 0 0 17 16;" xml:space="preserve">
<g id="web-rss" style="enable-background:new    ;">
	<g id="web-rss_2_">
		<g>
			<path d="M2.249,1.999c-0.253,0-0.501,0.022-0.75,0.038v0.987c0.167-0.008,0.331-0.025,0.5-0.025c5.799,0,10.5,4.701,10.5,10.501
				c0,0.168-0.018,0.333-0.025,0.499h0.988c0.016-0.248,0.037-0.496,0.037-0.749C13.499,7.036,8.462,1.999,2.249,1.999z M1.499,10v1
				c1.657,0,3,1.343,3,2.999h1C5.499,11.79,3.708,10,1.499,10z M1.999,6c-0.169,0-0.334,0.014-0.5,0.024v0.987
				c0.083-0.003,0.166-0.013,0.25-0.013c3.729,0,6.75,3.022,6.75,6.751c0,0.084-0.01,0.166-0.014,0.249h0.988
				c0.012-0.165,0.025-0.331,0.025-0.499C9.499,9.357,6.141,6,1.999,6z"/>
		</g>
	</g>
</g>
<g id="Layer_1">
</g>
</svg>
