<?xml version="1.0" encoding="iso-8859-1"?>
<!-- Generator: Adobe Illustrator 16.0.0, SVG Export Plug-In . SVG Version: 6.00 Build 0)  -->
<!DOCTYPE svg PUBLIC "-//W3C//DTD SVG 1.1//EN" "http://www.w3.org/Graphics/SVG/1.1/DTD/svg11.dtd">
<svg version="1.1" xmlns="http://www.w3.org/2000/svg" xmlns:xlink="http://www.w3.org/1999/xlink" x="0px" y="0px" width="17px"
	 height="16px" viewBox="0 0 17 16" style="enable-background:new 0 0 17 16;" xml:space="preserve">
<g id="web-upload" style="enable-background:new    ;">
	<g id="web-upload_1_">
		<g>
			<path d="M4.857,5.852l2.142-2.499v7.645c0,0.275,0.223,0.499,0.5,0.499s0.5-0.224,0.5-0.499V3.353l2.141,2.499
				c0.197,0.197,0.518,0.197,0.715,0c0.197-0.196,0.197-0.517,0-0.713L7.857,1.641c-0.005-0.005-0.014-0.002-0.02-0.008
				C7.752,1.554,7.641,1.505,7.517,1.5c-0.002,0-0.003,0-0.004,0c-0.135-0.005-0.27,0.038-0.372,0.141L4.144,5.139
				c-0.197,0.196-0.197,0.517,0,0.713C4.34,6.049,4.66,6.049,4.857,5.852z M14.499,9.498c-0.275,0-0.5,0.224-0.5,0.499v3.501h-13
				V9.997c0-0.275-0.224-0.499-0.5-0.499c-0.276,0-0.5,0.224-0.5,0.499v4c0,0.276,0.224,0.501,0.5,0.501h14
				c0.275,0,0.5-0.225,0.5-0.501v-4C14.999,9.722,14.774,9.498,14.499,9.498z"/>
		</g>
	</g>
</g>
<g id="Layer_1">
</g>
</svg>
