<?xml version="1.0" encoding="iso-8859-1"?>
<!-- Generator: Adobe Illustrator 16.0.0, SVG Export Plug-In . SVG Version: 6.00 Build 0)  -->
<!DOCTYPE svg PUBLIC "-//W3C//DTD SVG 1.1//EN" "http://www.w3.org/Graphics/SVG/1.1/DTD/svg11.dtd">
<svg version="1.1" xmlns="http://www.w3.org/2000/svg" xmlns:xlink="http://www.w3.org/1999/xlink" x="0px" y="0px" width="17px"
	 height="16px" viewBox="0 0 17 16" style="enable-background:new 0 0 17 16;" xml:space="preserve">
<g id="web-internet-a" style="enable-background:new    ;">
	<g id="web-internet-a_2_">
		<g>
			<path d="M7.499,0c-4.418,0-8,3.581-8,7.999c0,4.418,3.582,8,8,8c4.418,0,8-3.582,8-8C15.499,3.581,11.917,0,7.499,0z
				 M13.177,3.948c0.633,0.887,1.072,1.922,1.234,3.051h-3.938c-0.037-0.777-0.119-1.514-0.232-2.205
				C11.427,4.613,12.437,4.318,13.177,3.948z M12.821,3.499h-0.859c-0.529,0.148-1.18,0.268-1.904,0.354
				C9.81,2.772,9.472,1.855,9.067,1.19C10.565,1.534,11.864,2.367,12.821,3.499z M9.499,7.999c0,1.114-0.082,2.151-0.213,3.086
				c-0.572-0.053-1.168-0.086-1.788-0.086c-0.619,0-1.214,0.033-1.787,0.086C5.58,10.149,5.499,9.112,5.499,7.999H9.499z
				 M5.528,6.999c0.03-0.742,0.099-1.438,0.19-2.087c0.57,0.054,1.163,0.087,1.78,0.087c0.618,0,1.211-0.033,1.782-0.087
				C9.37,5.56,9.438,6.256,9.47,6.999H5.528z M7.499,0.999c0.67,0,1.252,1.169,1.614,2.938C8.597,3.973,8.062,4,7.499,4
				C6.936,4,6.402,3.973,5.885,3.937C6.246,2.167,6.83,0.999,7.499,0.999z M5.93,1.19C5.525,1.855,5.188,2.772,4.94,3.853
				C4.215,3.766,3.566,3.647,3.036,3.499H2.177C3.134,2.367,4.433,1.534,5.93,1.19z M1.82,3.948c0.742,0.37,1.751,0.665,2.937,0.846
				C4.643,5.485,4.56,6.221,4.523,6.999H0.586C0.749,5.87,1.187,4.834,1.82,3.948z M1.801,12.019
				c-0.809-1.139-1.302-2.516-1.302-4.02h4c0,1.141,0.092,2.221,0.254,3.202C3.569,11.374,2.555,11.659,1.801,12.019z M2.161,12.499
				h0.81c0.547-0.15,1.217-0.273,1.968-0.359c0.248,1.082,0.586,2.002,0.992,2.668C4.43,14.462,3.122,13.632,2.161,12.499z
				 M7.499,14.999c-0.671,0-1.261-1.166-1.624-2.939c0.52-0.035,1.057-0.061,1.624-0.061c0.567,0,1.104,0.025,1.624,0.061
				C8.761,13.833,8.169,14.999,7.499,14.999z M9.067,14.808c0.406-0.666,0.744-1.586,0.992-2.668c0.75,0.086,1.42,0.209,1.967,0.359
				h0.811C11.876,13.632,10.567,14.462,9.067,14.808z M10.245,11.2c0.16-0.98,0.254-2.061,0.254-3.202h4
				c0,1.504-0.494,2.881-1.303,4.02C12.442,11.659,11.429,11.374,10.245,11.2z"/>
		</g>
	</g>
</g>
<g id="Layer_1">
</g>
</svg>
