<?xml version="1.0" encoding="iso-8859-1"?>
<!-- Generator: Adobe Illustrator 16.0.0, SVG Export Plug-In . SVG Version: 6.00 Build 0)  -->
<!DOCTYPE svg PUBLIC "-//W3C//DTD SVG 1.1//EN" "http://www.w3.org/Graphics/SVG/1.1/DTD/svg11.dtd">
<svg version="1.1" xmlns="http://www.w3.org/2000/svg" xmlns:xlink="http://www.w3.org/1999/xlink" x="0px" y="0px" width="17px"
	 height="16px" viewBox="0 0 17 16" style="enable-background:new 0 0 17 16;" xml:space="preserve">
<g id="web-url-a" style="enable-background:new    ;">
	<g id="web-url-a_1_">
		<g>
			<path d="M6.999,9.499h-6.5v-3h3.5c0.276,0,0.5-0.224,0.5-0.499c0-0.276-0.224-0.501-0.5-0.501h-4c-0.276,0-0.5,0.225-0.5,0.501v4
				c0,0.275,0.224,0.499,0.5,0.499h7c0.276,0,0.5-0.224,0.5-0.499C7.499,9.724,7.275,9.499,6.999,9.499z M8.999,7.5h-3
				c-0.276,0-0.5,0.224-0.5,0.5c0,0.275,0.224,0.499,0.5,0.499h3c0.275,0,0.5-0.224,0.5-0.499C9.499,7.724,9.274,7.5,8.999,7.5z
				 M14.999,5.499h-7c-0.275,0-0.5,0.225-0.5,0.501c0,0.275,0.225,0.499,0.5,0.499h6.5v3h-3.5c-0.275,0-0.5,0.225-0.5,0.501
				c0,0.275,0.225,0.499,0.5,0.499h4c0.275,0,0.5-0.224,0.5-0.499V6C15.499,5.724,15.274,5.499,14.999,5.499z"/>
		</g>
	</g>
</g>
<g id="Layer_1">
</g>
</svg>
