<?xml version="1.0" encoding="iso-8859-1"?>
<!-- Generator: Adobe Illustrator 16.0.0, SVG Export Plug-In . SVG Version: 6.00 Build 0)  -->
<!DOCTYPE svg PUBLIC "-//W3C//DTD SVG 1.1//EN" "http://www.w3.org/Graphics/SVG/1.1/DTD/svg11.dtd">
<svg version="1.1" xmlns="http://www.w3.org/2000/svg" xmlns:xlink="http://www.w3.org/1999/xlink" x="0px" y="0px" width="17px"
	 height="16px" viewBox="0 0 17 16" style="enable-background:new 0 0 17 16;" xml:space="preserve">
<g id="web-share-a" style="enable-background:new    ;">
	<g id="web-share-a_1_">
		<g>
			<path d="M11.999,9.999c-0.67,0-1.258,0.332-1.621,0.836l-5.427-2.41c0.03-0.138,0.048-0.279,0.048-0.426
				c0-0.073-0.014-0.144-0.022-0.215l5.536-2.459c0.365,0.411,0.893,0.674,1.486,0.674c1.104,0,2-0.896,2-2s-0.896-2-2-2
				c-1.105,0-2,0.896-2,2c0,0.146,0.018,0.288,0.047,0.426L4.62,6.835C4.256,6.331,3.668,5.999,2.999,5.999c-1.104,0-2,0.896-2,2
				s0.896,2,2,2c0.593,0,1.12-0.263,1.487-0.674l5.535,2.459c-0.008,0.071-0.021,0.142-0.021,0.215c0,1.104,0.895,2,2,2
				c1.104,0,2-0.896,2-2S13.103,9.999,11.999,9.999z M10.999,3h2v2h-2V3z M3.999,9.001h-2v-2h2V9.001z M12.999,13.001h-2v-2h2
				V13.001z"/>
		</g>
	</g>
</g>
<g id="Layer_1">
</g>
</svg>
