<?xml version="1.0" encoding="iso-8859-1"?>
<!-- Generator: Adobe Illustrator 16.0.0, SVG Export Plug-In . SVG Version: 6.00 Build 0)  -->
<!DOCTYPE svg PUBLIC "-//W3C//DTD SVG 1.1//EN" "http://www.w3.org/Graphics/SVG/1.1/DTD/svg11.dtd">
<svg version="1.1" xmlns="http://www.w3.org/2000/svg" xmlns:xlink="http://www.w3.org/1999/xlink" x="0px" y="0px" width="17px"
	 height="16px" viewBox="0 0 17 16" style="enable-background:new 0 0 17 16;" xml:space="preserve">
<g id="web-logout" style="enable-background:new    ;">
	<g id="web-logout_2_">
		<g>
			<path d="M15.476,7.883c-0.018-0.088-0.051-0.173-0.119-0.241c-0.008-0.007-0.016-0.008-0.023-0.011
				c-0.035-0.031-0.076-0.059-0.119-0.079l-4.883-3.911c-0.189-0.19-0.498-0.19-0.689,0c-0.191,0.191-0.191,0.5,0,0.691l3.953,3.166
				H1.999c-0.276,0-0.5,0.225-0.5,0.5c0,0.277,0.224,0.5,0.5,0.5h11.596l-3.953,3.166c-0.191,0.191-0.191,0.5,0,0.691
				s0.5,0.191,0.689,0l4.885-3.912c0.043-0.021,0.082-0.047,0.117-0.078c0.008-0.002,0.018-0.004,0.023-0.01
				c0.068-0.068,0.102-0.152,0.119-0.24c0.01-0.039,0.023-0.076,0.023-0.117C15.499,7.958,15.485,7.921,15.476,7.883z M0.499,13.999
				V2c0-0.276,0.224-0.5,0.5-0.5l6.5,1.624V2.054l-7-1.556c-0.552,0-1,0.448-1,1.001v13c0,0.553,0.448,1,1,1l7-1.557v-1.068
				l-6.5,1.625C0.723,14.499,0.499,14.274,0.499,13.999z"/>
		</g>
	</g>
</g>
<g id="Layer_1">
</g>
</svg>
