<?xml version="1.0" encoding="iso-8859-1"?>
<!-- Generator: Adobe Illustrator 16.0.0, SVG Export Plug-In . SVG Version: 6.00 Build 0)  -->
<!DOCTYPE svg PUBLIC "-//W3C//DTD SVG 1.1//EN" "http://www.w3.org/Graphics/SVG/1.1/DTD/svg11.dtd">
<svg version="1.1" xmlns="http://www.w3.org/2000/svg" xmlns:xlink="http://www.w3.org/1999/xlink" x="0px" y="0px" width="17px"
	 height="16px" viewBox="0 0 17 16" style="enable-background:new 0 0 17 16;" xml:space="preserve">
<g id="web-browser-window" style="enable-background:new    ;">
	<g id="web-browser-window_2_">
		<g>
			<path d="M1.499,0.999h9c0.553,0,1,0.448,1,1h1c0-1.104-0.896-1.999-2-1.999h-9c-1.104,0-2,0.895-2,1.999v1V4v7
				c0,1.105,0.896,2,2,2v-1c-0.553,0-1-0.447-1-1V4h1V2.999h-1v-1C0.499,1.447,0.946,0.999,1.499,0.999z M13.499,2.999h-1h-1h-7
				c-1.104,0-2,0.896-2,2.001v0.999v1v5v1v1c0,1.104,0.895,2,2,2h9c1.104,0,2-0.896,2-2v-7v-1V5
				C15.499,3.894,14.603,2.999,13.499,2.999z M14.499,13.999c0,0.553-0.447,1-1,1h-9c-0.552,0-1-0.447-1-1v-7h11V13.999z
				 M14.499,5.999h-11V5c0-0.553,0.447-1,1-1h9c0.553,0,1,0.447,1,1V5.999z"/>
		</g>
	</g>
</g>
<g id="Layer_1">
</g>
</svg>
