<?xml version="1.0" encoding="iso-8859-1"?>
<!-- Generator: Adobe Illustrator 16.0.0, SVG Export Plug-In . SVG Version: 6.00 Build 0)  -->
<!DOCTYPE svg PUBLIC "-//W3C//DTD SVG 1.1//EN" "http://www.w3.org/Graphics/SVG/1.1/DTD/svg11.dtd">
<svg version="1.1" xmlns="http://www.w3.org/2000/svg" xmlns:xlink="http://www.w3.org/1999/xlink" x="0px" y="0px" width="17px"
	 height="16px" viewBox="0 0 17 16" style="enable-background:new 0 0 17 16;" xml:space="preserve">
<g id="web-browser-tick" style="enable-background:new    ;">
	<g id="web-browser-tick_2_">
		<g>
			<path d="M1.999,3.499h1v-1h-1V3.499z M6.75,12.493l0.002,0.002l4.243-4.242l-0.748-0.75l-3.573,3.572L4.752,9.504l-0.749,0.748
				l2.744,2.244L6.75,12.493z M14.499,0.499h-14c-0.276,0-0.5,0.225-0.5,0.5v14c0,0.276,0.224,0.5,0.5,0.5h14
				c0.275,0,0.5-0.224,0.5-0.5v-14C14.999,0.724,14.774,0.499,14.499,0.499z M13.999,13.999c0,0.276-0.225,0.501-0.5,0.501h-12
				c-0.276,0-0.5-0.225-0.5-0.501v-8.5h13V13.999z M13.999,4.5h-13V2c0-0.277,0.224-0.501,0.5-0.501h12c0.275,0,0.5,0.224,0.5,0.501
				V4.5z M5.999,3.499h1v-1h-1V3.499z M3.999,3.499h1v-1h-1V3.499z"/>
		</g>
	</g>
</g>
<g id="Layer_1">
</g>
</svg>
