<?xml version="1.0" encoding="iso-8859-1"?>
<!-- Generator: Adobe Illustrator 16.0.0, SVG Export Plug-In . SVG Version: 6.00 Build 0)  -->
<!DOCTYPE svg PUBLIC "-//W3C//DTD SVG 1.1//EN" "http://www.w3.org/Graphics/SVG/1.1/DTD/svg11.dtd">
<svg version="1.1" xmlns="http://www.w3.org/2000/svg" xmlns:xlink="http://www.w3.org/1999/xlink" x="0px" y="0px" width="17px"
	 height="16px" viewBox="0 0 17 16" style="enable-background:new 0 0 17 16;" xml:space="preserve">
<g id="web-browser-b" style="enable-background:new    ;">
	<g id="web-browser-b_2_">
		<g>
			<path d="M1.499,4.999h7v-1h-7V4.999z M12.499-0.001h-8c-0.885,0-1.672,0.391-2.222,1h10.222V1c1.104,0,2,0.895,2,1.999v8
				c0,0.001,0,0.001,0,0.001v2.221c0.609-0.549,1-1.337,1-2.222v-8C15.499,1.343,14.156-0.001,12.499-0.001z M9.499,4.999h1v-1h-1
				V4.999z M10.499,1.999h-8c-1.657,0-3,1.344-3,3v1v1v6c0,1.657,1.343,3,3,3h8c1.657,0,3-1.343,3-3v-6v-1v-1
				C13.499,3.343,12.156,1.999,10.499,1.999z M12.499,12.999c0,1.105-0.896,2-2,2h-8c-1.104,0-2-0.895-2-2v-6h12V12.999z
				 M12.499,5.999h-12v-1c0-1.104,0.896-2,2-2h8c1.104,0,2,0.896,2,2V5.999z"/>
		</g>
	</g>
</g>
<g id="Layer_1">
</g>
</svg>
