<?xml version="1.0" encoding="iso-8859-1"?>
<!-- Generator: Adobe Illustrator 16.0.0, SVG Export Plug-In . SVG Version: 6.00 Build 0)  -->
<!DOCTYPE svg PUBLIC "-//W3C//DTD SVG 1.1//EN" "http://www.w3.org/Graphics/SVG/1.1/DTD/svg11.dtd">
<svg version="1.1" xmlns="http://www.w3.org/2000/svg" xmlns:xlink="http://www.w3.org/1999/xlink" x="0px" y="0px" width="17px"
	 height="16px" viewBox="0 0 17 16" style="enable-background:new 0 0 17 16;" xml:space="preserve">
<g id="web-browser-tab-tick" style="enable-background:new    ;">
	<g id="web-browser-tab-tick_1_">
		<g>
			<path d="M8.821,7.002l-3.646,3.647l-2-1.646L2.502,9.677l2,1.645l0,0.002l0.673,0.672l0.066-0.064l0.08,0.064l0.673-0.672
				l-0.081-0.066l3.581-3.581L8.821,7.002z M14.499-0.001h-10c-0.553,0-1,0.448-1,1.001v1h1V1.5c0-0.276,0.224-0.5,0.5-0.5h9
				c0.275,0,0.5,0.224,0.5,0.5v9c0,0.275-0.225,0.5-0.5,0.5h-0.5v1h1c0.553,0,1-0.447,1-1V1C15.499,0.447,15.052-0.001,14.499-0.001
				z M11.499,3h-11c-0.552,0-1,0.447-1,1v11c0,0.553,0.448,1,1,1h11c0.553,0,1-0.447,1-1V4C12.499,3.447,12.052,3,11.499,3z
				 M11.499,14.499c0,0.277-0.225,0.5-0.5,0.5h-10c-0.276,0-0.5-0.223-0.5-0.5v-10c0-0.276,0.224-0.5,0.5-0.5h10
				c0.275,0,0.5,0.224,0.5,0.5V14.499z"/>
		</g>
	</g>
</g>
<g id="Layer_1">
</g>
</svg>
