<?xml version="1.0" encoding="iso-8859-1"?>
<!-- Generator: Adobe Illustrator 16.0.0, SVG Export Plug-In . SVG Version: 6.00 Build 0)  -->
<!DOCTYPE svg PUBLIC "-//W3C//DTD SVG 1.1//EN" "http://www.w3.org/Graphics/SVG/1.1/DTD/svg11.dtd">
<svg version="1.1" xmlns="http://www.w3.org/2000/svg" xmlns:xlink="http://www.w3.org/1999/xlink" x="0px" y="0px" width="17px"
	 height="16px" viewBox="0 0 17 16" style="enable-background:new 0 0 17 16;" xml:space="preserve">
<g id="web-download" style="enable-background:new    ;">
	<g id="web-download_2_">
		<g>
			<path d="M7.141,11.354c0.103,0.102,0.236,0.146,0.371,0.143c0.001-0.002,0.002-0.002,0.003-0.002
				c0.125-0.004,0.238-0.053,0.323-0.133c0.006-0.006,0.014-0.002,0.019-0.008l2.998-3.497c0.197-0.197,0.197-0.517,0-0.714
				s-0.518-0.197-0.713,0l-2.143,2.5V2c0-0.276-0.224-0.5-0.5-0.5c-0.275,0-0.5,0.224-0.5,0.5v7.644l-2.142-2.5
				c-0.197-0.197-0.517-0.197-0.713,0c-0.197,0.197-0.197,0.517,0,0.714L7.141,11.354z M14.499,9.499c-0.275,0-0.5,0.225-0.5,0.5
				v3.5h-13v-3.5c0-0.275-0.224-0.5-0.5-0.5c-0.276,0-0.5,0.225-0.5,0.5v4c0,0.277,0.224,0.5,0.5,0.5h14c0.275,0,0.5-0.223,0.5-0.5
				v-4C14.999,9.724,14.774,9.499,14.499,9.499z"/>
		</g>
	</g>
</g>
<g id="Layer_1">
</g>
</svg>
