<?xml version="1.0" encoding="iso-8859-1"?>
<!-- Generator: Adobe Illustrator 16.0.0, SVG Export Plug-In . SVG Version: 6.00 Build 0)  -->
<!DOCTYPE svg PUBLIC "-//W3C//DTD SVG 1.1//EN" "http://www.w3.org/Graphics/SVG/1.1/DTD/svg11.dtd">
<svg version="1.1" xmlns="http://www.w3.org/2000/svg" xmlns:xlink="http://www.w3.org/1999/xlink" x="0px" y="0px" width="17px"
	 height="16px" viewBox="0 0 17 16" style="enable-background:new 0 0 17 16;" xml:space="preserve">
<g id="web-inspect" style="enable-background:new    ;">
	<g id="web-inspect_2_">
		<g>
			<path d="M10.446,11.058c1.385-1.387,1.385-3.634,0-5.021c-1.383-1.386-3.627-1.386-5.012,0c-1.261,1.264-1.36,3.235-0.322,4.626
				l-3.616,3.622l0.716,0.718l3.616-3.622C7.216,12.42,9.187,12.321,10.446,11.058z M6.151,6.755c0.988-0.99,2.592-0.99,3.581,0
				s0.988,2.596,0,3.586s-2.592,0.99-3.581,0C5.162,9.351,5.162,7.745,6.151,6.755z M14.999-0.001h-15c-0.276,0-0.5,0.225-0.5,0.5
				V11h1V3.999h2V4h1V3.999h11v10.5c0,0.276-0.225,0.501-0.5,0.501h-8.5v0.999h9.5c0.275,0,0.5-0.224,0.5-0.5v-15
				C15.499,0.224,15.274-0.001,14.999-0.001z M2.499,2.999h-2v-1.5c0-0.276,0.224-0.5,0.5-0.5h1.5V2.999z M14.499,2.999h-11v-2h10.5
				c0.275,0,0.5,0.224,0.5,0.5V2.999z"/>
		</g>
	</g>
</g>
<g id="Layer_1">
</g>
</svg>
