<?xml version="1.0" encoding="iso-8859-1"?>
<!-- Generator: Adobe Illustrator 16.0.0, SVG Export Plug-In . SVG Version: 6.00 Build 0)  -->
<!DOCTYPE svg PUBLIC "-//W3C//DTD SVG 1.1//EN" "http://www.w3.org/Graphics/SVG/1.1/DTD/svg11.dtd">
<svg version="1.1" xmlns="http://www.w3.org/2000/svg" xmlns:xlink="http://www.w3.org/1999/xlink" x="0px" y="0px" width="17px"
	 height="16px" viewBox="0 0 17 16" style="enable-background:new 0 0 17 16;" xml:space="preserve">
<g id="web-traffic-b" style="enable-background:new    ;">
	<g id="web-traffic-b_1_">
		<g>
			<path d="M1.499,7.999c-1.104,0-2,0.896-2,2v4c0,1.105,0.895,2,2,2c1.105,0,2-0.895,2-2v-4C3.499,8.896,2.604,7.999,1.499,7.999z
				 M2.499,13.999c0,0.553-0.448,1-1,1c-0.552,0-1-0.447-1-1v-4c0-0.553,0.448-1,1-1c0.553,0,1,0.447,1,1V13.999z M7.499-0.001
				c-1.104,0-2,0.896-2,2v12c0,1.105,0.896,2,2,2s2-0.895,2-2v-12C9.499,0.894,8.603-0.001,7.499-0.001z M8.499,13.999
				c0,0.553-0.447,1-1,1c-0.552,0-1-0.447-1-1v-12c0-0.553,0.448-1,1-1c0.553,0,1,0.447,1,1V13.999z M13.499,4c-1.105,0-2,0.895-2,2
				v8c0,1.105,0.895,2,2,2c1.104,0,2-0.895,2-2V6C15.499,4.894,14.603,4,13.499,4z M14.499,13.999c0,0.553-0.447,1-1,1s-1-0.447-1-1
				V6c0-0.553,0.447-1.001,1-1.001s1,0.448,1,1.001V13.999z"/>
		</g>
	</g>
</g>
<g id="Layer_1">
</g>
</svg>
