<?xml version="1.0" encoding="iso-8859-1"?>
<!-- Generator: Adobe Illustrator 16.0.0, SVG Export Plug-In . SVG Version: 6.00 Build 0)  -->
<!DOCTYPE svg PUBLIC "-//W3C//DTD SVG 1.1//EN" "http://www.w3.org/Graphics/SVG/1.1/DTD/svg11.dtd">
<svg version="1.1" xmlns="http://www.w3.org/2000/svg" xmlns:xlink="http://www.w3.org/1999/xlink" x="0px" y="0px" width="17px"
	 height="16px" viewBox="0 0 17 16" style="enable-background:new 0 0 17 16;" xml:space="preserve">
<g id="web-report-a" style="enable-background:new    ;">
	<g id="web-report-a_2_">
		<g>
			<path d="M13.999,4h-5V2.999V2h-1h-5V0.999c0-0.552-0.448-0.999-1-0.999h-1c-0.552,0-1,0.447-1,0.999v2v7v5c0,0.553,0.448,1,1,1h1
				c0.552,0,1-0.447,1-1v-4h5v2h1h5c0.553,0,1-0.447,1-1V5C14.999,4.447,14.552,4,13.999,4z M1.999,14.499
				c0,0.275-0.224,0.5-0.5,0.5c-0.276,0-0.5-0.225-0.5-0.5v-13c0-0.275,0.224-0.5,0.5-0.5c0.276,0,0.5,0.225,0.5,0.5V14.499z
				 M7.999,9.999h-5v-7h5V9.999z M13.999,11.499c0,0.275-0.225,0.5-0.5,0.5h-4.5v-1v-1V5h4.5c0.275,0,0.5,0.224,0.5,0.5V11.499z"/>
		</g>
	</g>
</g>
<g id="Layer_1">
</g>
</svg>
