<?xml version="1.0" encoding="iso-8859-1"?>
<!-- Generator: Adobe Illustrator 16.0.0, SVG Export Plug-In . SVG Version: 6.00 Build 0)  -->
<!DOCTYPE svg PUBLIC "-//W3C//DTD SVG 1.1//EN" "http://www.w3.org/Graphics/SVG/1.1/DTD/svg11.dtd">
<svg version="1.1" xmlns="http://www.w3.org/2000/svg" xmlns:xlink="http://www.w3.org/1999/xlink" x="0px" y="0px" width="17px"
	 height="16px" viewBox="0 0 17 16" style="enable-background:new 0 0 17 16;" xml:space="preserve">
<g id="web-webcam" style="enable-background:new    ;">
	<g id="web-webcam_1_">
		<g>
			<path d="M14.499,7c0-3.866-3.135-7.001-7-7.001s-7,3.135-7,7.001c0,2.98,1.871,5.509,4.496,6.517l-0.296,1.482h-1.7
				c-0.276,0-0.5,0.225-0.5,0.5c0,0.277,0.224,0.5,0.5,0.5h1.5h6h1.5c0.275,0,0.5-0.223,0.5-0.5c0-0.275-0.225-0.5-0.5-0.5H10.3
				l-0.297-1.482C12.628,12.509,14.499,9.979,14.499,7z M5.499,14.999l0.4-1.201c0.516,0.121,1.046,0.201,1.599,0.201
				c0.553,0,1.084-0.08,1.6-0.201l0.4,1.201H5.499z M7.499,12.999c-3.313,0-6-2.686-6-6c0-3.314,2.686-6,6-6c3.315,0,6,2.686,6,6
				C13.499,10.313,10.813,12.999,7.499,12.999z M7.499,4c-1.657,0-3,1.343-3,3c0,1.656,1.343,3,3,3s3-1.344,3-3
				C10.499,5.342,9.155,4,7.499,4z M7.499,8.999c-1.104,0-2-0.895-2-2c0-1.105,0.896-2.001,2-2.001c1.104,0,2,0.896,2,2.001
				C9.499,8.104,8.603,8.999,7.499,8.999z"/>
		</g>
	</g>
</g>
<g id="Layer_1">
</g>
</svg>
