<?xml version="1.0" encoding="iso-8859-1"?>
<!-- Generator: Adobe Illustrator 16.0.0, SVG Export Plug-In . SVG Version: 6.00 Build 0)  -->
<!DOCTYPE svg PUBLIC "-//W3C//DTD SVG 1.1//EN" "http://www.w3.org/Graphics/SVG/1.1/DTD/svg11.dtd">
<svg version="1.1" xmlns="http://www.w3.org/2000/svg" xmlns:xlink="http://www.w3.org/1999/xlink" x="0px" y="0px" width="17px"
	 height="16px" viewBox="0 0 17 16" style="enable-background:new 0 0 17 16;" xml:space="preserve">
<g id="web-statistic" style="enable-background:new    ;">
	<g id="web-statistic_1_">
		<g>
			<path d="M14.499-0.001h-14c-0.552,0-1,0.447-1,1v14c0,0.553,0.448,1,1,1h14c0.553,0,1-0.447,1-1v-14
				C15.499,0.446,15.052-0.001,14.499-0.001z M14.499,14.499c0,0.276-0.225,0.5-0.5,0.5h-13c-0.276,0-0.5-0.224-0.5-0.5v-3.74
				l3.849-3.444l3.831,2.623l0.057,0.058l0.012-0.012l0.016,0.012l0.73-0.733l-0.014-0.01l5.52-5.521V14.499z M14.499,2.268
				L8.11,8.656L4.319,6.061L4.262,6.004L4.25,6.014l-0.015-0.01L4.012,6.228L0.499,9.372V1.499c0-0.276,0.224-0.5,0.5-0.5h13
				c0.275,0,0.5,0.224,0.5,0.5V2.268z"/>
		</g>
	</g>
</g>
<g id="Layer_1">
</g>
</svg>
