<?xml version="1.0" encoding="iso-8859-1"?>
<!-- Generator: Adobe Illustrator 16.0.0, SVG Export Plug-In . SVG Version: 6.00 Build 0)  -->
<!DOCTYPE svg PUBLIC "-//W3C//DTD SVG 1.1//EN" "http://www.w3.org/Graphics/SVG/1.1/DTD/svg11.dtd">
<svg version="1.1" xmlns="http://www.w3.org/2000/svg" xmlns:xlink="http://www.w3.org/1999/xlink" x="0px" y="0px" width="17px"
	 height="16px" viewBox="0 0 17 16" style="enable-background:new 0 0 17 16;" xml:space="preserve">
<g id="web-broken-link" style="enable-background:new    ;">
	<g id="web-broken-link_1_">
		<g>
			<path d="M4.566,4.275C4.704,4.495,5.01,4.57,5.249,4.443C5.488,4.316,5.57,4.035,5.432,3.815l-1-1.593
				c-0.138-0.22-0.444-0.296-0.683-0.168C3.51,2.182,3.428,2.462,3.566,2.683L4.566,4.275z M6.999,4.499c0.276,0,0.5-0.224,0.5-0.5
				v-2c0-0.276-0.224-0.5-0.5-0.5c-0.275,0-0.5,0.224-0.5,0.5v2C6.499,4.275,6.723,4.499,6.999,4.499z M8.749,4.443
				C8.987,4.57,9.294,4.495,9.433,4.275l1-1.593c0.137-0.221,0.055-0.501-0.184-0.628c-0.238-0.128-0.545-0.052-0.684,0.168
				l-1,1.593C8.429,4.035,8.511,4.316,8.749,4.443z M14.999,5.499h-7c-0.275,0-0.5,0.224-0.5,0.5c0,0.275,0.225,0.499,0.5,0.499h6.5
				v3h-3.5c-0.275,0-0.5,0.225-0.5,0.501c0,0.275,0.225,0.5,0.5,0.5h4c0.275,0,0.5-0.225,0.5-0.5v-4
				C15.499,5.723,15.274,5.499,14.999,5.499z M5.249,11.555c-0.239-0.127-0.545-0.052-0.683,0.169l-1,1.592
				c-0.138,0.22-0.056,0.501,0.183,0.628c0.239,0.128,0.544,0.052,0.683-0.168l1-1.593C5.57,11.963,5.488,11.682,5.249,11.555z
				 M9.433,11.724c-0.139-0.221-0.445-0.296-0.684-0.169s-0.32,0.408-0.184,0.628l1,1.593c0.139,0.22,0.445,0.296,0.684,0.168
				c0.238-0.127,0.32-0.408,0.184-0.628L9.433,11.724z M6.999,11.499c-0.275,0-0.5,0.224-0.5,0.5v1.999
				c0,0.276,0.224,0.501,0.5,0.501c0.276,0,0.5-0.225,0.5-0.501v-1.999C7.499,11.723,7.275,11.499,6.999,11.499z M6.999,9.498h-6.5
				v-3h3.5c0.276,0,0.5-0.224,0.5-0.499c0-0.276-0.224-0.5-0.5-0.5h-4c-0.276,0-0.5,0.224-0.5,0.5v4c0,0.275,0.224,0.5,0.5,0.5h7
				c0.276,0,0.5-0.225,0.5-0.5C7.499,9.723,7.275,9.498,6.999,9.498z"/>
		</g>
	</g>
</g>
<g id="Layer_1">
</g>
</svg>
