<?xml version="1.0" encoding="iso-8859-1"?>
<!-- Generator: Adobe Illustrator 16.0.0, SVG Export Plug-In . SVG Version: 6.00 Build 0)  -->
<!DOCTYPE svg PUBLIC "-//W3C//DTD SVG 1.1//EN" "http://www.w3.org/Graphics/SVG/1.1/DTD/svg11.dtd">
<svg version="1.1" xmlns="http://www.w3.org/2000/svg" xmlns:xlink="http://www.w3.org/1999/xlink" x="0px" y="0px" width="17px"
	 height="16px" viewBox="0 0 17 16" style="enable-background:new 0 0 17 16;" xml:space="preserve">
<g id="web-browser-minus" style="enable-background:new    ;">
	<g id="web-browser-minus_2_">
		<g>
			<path d="M1.999,3.499h1v-1h-1V3.499z M9.999,9.499h-5V10.5h5V9.499z M5.999,3.499h1v-1h-1V3.499z M14.499,0.499h-14
				c-0.276,0-0.5,0.224-0.5,0.5v14c0,0.276,0.224,0.5,0.5,0.5h14c0.275,0,0.5-0.224,0.5-0.5v-14
				C14.999,0.723,14.774,0.499,14.499,0.499z M13.999,13.999c0,0.276-0.225,0.501-0.5,0.501h-12c-0.276,0-0.5-0.225-0.5-0.501v-8.5
				h13V13.999z M13.999,4.499h-13v-2.5c0-0.276,0.224-0.5,0.5-0.5h12c0.275,0,0.5,0.224,0.5,0.5V4.499z M3.999,3.499h1v-1h-1V3.499z
				"/>
		</g>
	</g>
</g>
<g id="Layer_1">
</g>
</svg>
