<?xml version="1.0" encoding="iso-8859-1"?>
<!-- Generator: Adobe Illustrator 16.0.0, SVG Export Plug-In . SVG Version: 6.00 Build 0)  -->
<!DOCTYPE svg PUBLIC "-//W3C//DTD SVG 1.1//EN" "http://www.w3.org/Graphics/SVG/1.1/DTD/svg11.dtd">
<svg version="1.1" xmlns="http://www.w3.org/2000/svg" xmlns:xlink="http://www.w3.org/1999/xlink" x="0px" y="0px" width="17px"
	 height="16px" viewBox="0 0 17 16" style="enable-background:new 0 0 17 16;" xml:space="preserve">
<g id="web-share-b" style="enable-background:new    ;">
	<g id="web-share-b_2_">
		<g>
			<path d="M12.499,8.999c-1.15,0-2.139,0.655-2.641,1.605L5.427,8.637c0.045-0.206,0.072-0.418,0.072-0.638
				c0-0.146-0.023-0.286-0.043-0.428l4.499-1.999c0.529,0.854,1.467,1.427,2.545,1.427c1.656,0,3-1.343,3-3c0-1.656-1.344-3-3-3
				s-3,1.344-3,3c0,0.219,0.025,0.432,0.07,0.638L5.14,6.604c-0.503-0.95-1.491-1.605-2.641-1.605c-1.657,0-3,1.343-3,3s1.343,3,3,3
				c1.077,0,2.015-0.573,2.543-1.426l4.5,1.998c-0.02,0.141-0.043,0.281-0.043,0.428c0,1.657,1.344,3,3,3s3-1.343,3-3
				C15.499,10.343,14.155,8.999,12.499,8.999z M12.499,1.999c1.104,0,2,0.896,2,2s-0.896,2-2,2c-1.105,0-2-0.896-2-2
				S11.394,1.999,12.499,1.999z M2.499,9.999c-1.105,0-2-0.896-2-2s0.896-2,2-2c1.104,0,2,0.896,2,2S3.604,9.999,2.499,9.999z
				 M12.499,13.999c-1.105,0-2-0.896-2-2s0.895-2,2-2c1.104,0,2,0.896,2,2S13.603,13.999,12.499,13.999z"/>
		</g>
	</g>
</g>
<g id="Layer_1">
</g>
</svg>
