<?xml version="1.0" encoding="iso-8859-1"?>
<!-- Generator: Adobe Illustrator 16.0.0, SVG Export Plug-In . SVG Version: 6.00 Build 0)  -->
<!DOCTYPE svg PUBLIC "-//W3C//DTD SVG 1.1//EN" "http://www.w3.org/Graphics/SVG/1.1/DTD/svg11.dtd">
<svg version="1.1" xmlns="http://www.w3.org/2000/svg" xmlns:xlink="http://www.w3.org/1999/xlink" x="0px" y="0px" width="17px"
	 height="16px" viewBox="0 0 17 16" style="enable-background:new 0 0 17 16;" xml:space="preserve">
<g id="web-traffic-c" style="enable-background:new    ;">
	<g id="web-traffic-c_2_">
		<g>
			<path d="M2.499,5c-0.829,0-1.5,0.671-1.5,1.5v7.5c0,0.828,0.671,1.5,1.5,1.5c0.828,0,1.5-0.672,1.5-1.5V6.5
				C3.999,5.67,3.327,5,2.499,5z M2.999,13.999c0,0.275-0.224,0.5-0.5,0.5c-0.276,0-0.5-0.225-0.5-0.5V6.5
				c0-0.276,0.224-0.5,0.5-0.5c0.276,0,0.5,0.224,0.5,0.5V13.999z M12.499,8.499c-0.828,0-1.5,0.672-1.5,1.5v4
				c0,0.828,0.672,1.5,1.5,1.5s1.5-0.672,1.5-1.5v-4C13.999,9.171,13.327,8.499,12.499,8.499z M12.999,13.999
				c0,0.275-0.225,0.5-0.5,0.5c-0.277,0-0.5-0.225-0.5-0.5v-4c0-0.275,0.223-0.5,0.5-0.5c0.275,0,0.5,0.225,0.5,0.5V13.999z
				 M7.499,0.5c-0.828,0-1.5,0.671-1.5,1.5v12c0,0.828,0.671,1.5,1.5,1.5c0.829,0,1.5-0.672,1.5-1.5V2
				C8.999,1.17,8.327,0.5,7.499,0.5z M7.999,13.999c0,0.275-0.224,0.5-0.5,0.5s-0.5-0.225-0.5-0.5V2c0-0.276,0.223-0.501,0.5-0.501
				s0.5,0.225,0.5,0.501V13.999z"/>
		</g>
	</g>
</g>
<g id="Layer_1">
</g>
</svg>
