<?xml version="1.0" encoding="iso-8859-1"?>
<!-- Generator: Adobe Illustrator 16.0.0, SVG Export Plug-In . SVG Version: 6.00 Build 0)  -->
<!DOCTYPE svg PUBLIC "-//W3C//DTD SVG 1.1//EN" "http://www.w3.org/Graphics/SVG/1.1/DTD/svg11.dtd">
<svg version="1.1" xmlns="http://www.w3.org/2000/svg" xmlns:xlink="http://www.w3.org/1999/xlink" x="0px" y="0px" width="17px"
	 height="16px" viewBox="0 0 17 16" style="enable-background:new 0 0 17 16;" xml:space="preserve">
<g id="web-bug" style="enable-background:new    ;">
	<g id="web-bug_1_">
		<g>
			<path d="M15.499,9.999v-1h-2.1c-0.127-0.716-0.377-1.39-0.732-1.998l1.83-1.094l-0.504-0.903l-1.924,1.149
				c-0.924-1.096-2.229-1.835-3.707-2.056l2.133-3.604L9.669-0.001l-2.17,3.667L5.328-0.001L4.503,0.494l2.144,3.621
				C5.164,4.332,3.853,5.057,2.929,6.153L1.005,5.004L0.501,5.907L2.33,7.001C1.976,7.609,1.726,8.283,1.598,8.999h-2.099v1h2
				c0,0.79,0.162,1.541,0.439,2.232l-1.438,0.859l0.504,0.903l1.409-0.842c1.059,1.703,2.932,2.847,5.084,2.847
				s4.026-1.144,5.084-2.847l1.41,0.842l0.504-0.903l-1.438-0.859c0.277-0.691,0.439-1.442,0.439-2.232H15.499z M7.499,4.999
				c1.631,0,3.065,0.792,3.977,2H3.521C4.434,5.791,5.868,4.999,7.499,4.999z M7.499,14.999c-2.761,0-5-2.238-5-5
				c0-0.712,0.153-1.387,0.422-2h9.156c0.268,0.613,0.422,1.288,0.422,2C12.499,12.761,10.261,14.999,7.499,14.999z"/>
		</g>
	</g>
</g>
<g id="Layer_1">
</g>
</svg>
