<?xml version="1.0" encoding="iso-8859-1"?>
<!-- Generator: Adobe Illustrator 16.0.0, SVG Export Plug-In . SVG Version: 6.00 Build 0)  -->
<!DOCTYPE svg PUBLIC "-//W3C//DTD SVG 1.1//EN" "http://www.w3.org/Graphics/SVG/1.1/DTD/svg11.dtd">
<svg version="1.1" xmlns="http://www.w3.org/2000/svg" xmlns:xlink="http://www.w3.org/1999/xlink" x="0px" y="0px" width="17px"
	 height="16px" viewBox="0 0 17 16" style="enable-background:new 0 0 17 16;" xml:space="preserve">
<g id="web-share" style="enable-background:new    ;">
	<g id="web-share_2_">
		<g>
			<path d="M12.499,9.499c-0.881,0-1.65,0.457-2.096,1.144L4.959,8.39c0.02-0.129,0.04-0.257,0.04-0.391
				c0-0.073-0.016-0.143-0.022-0.215l5.434-2.414c0.447,0.68,1.215,1.129,2.088,1.129c1.381,0,2.5-1.119,2.5-2.5s-1.119-2.5-2.5-2.5
				s-2.5,1.119-2.5,2.5c0,0.146,0.02,0.288,0.043,0.428l-5.358,2.38C4.259,6.031,3.445,5.499,2.499,5.499
				c-1.381,0-2.5,1.119-2.5,2.5s1.119,2.5,2.5,2.5c0.879,0,1.65-0.456,2.095-1.144l5.444,2.254c-0.02,0.128-0.039,0.256-0.039,0.39
				c0,1.381,1.119,2.5,2.5,2.5s2.5-1.119,2.5-2.5S13.88,9.499,12.499,9.499z M12.499,2.499c0.828,0,1.5,0.672,1.5,1.5
				s-0.672,1.5-1.5,1.5s-1.5-0.672-1.5-1.5S11.671,2.499,12.499,2.499z M2.499,9.499c-0.829,0-1.5-0.672-1.5-1.5
				c0-0.829,0.671-1.501,1.5-1.501c0.828,0,1.5,0.672,1.5,1.501C3.999,8.827,3.327,9.499,2.499,9.499z M12.499,13.499
				c-0.828,0-1.5-0.672-1.5-1.5s0.672-1.5,1.5-1.5s1.5,0.672,1.5,1.5S13.327,13.499,12.499,13.499z"/>
		</g>
	</g>
</g>
<g id="Layer_1">
</g>
</svg>
