<?xml version="1.0" encoding="iso-8859-1"?>
<!-- Generator: Adobe Illustrator 16.0.0, SVG Export Plug-In . SVG Version: 6.00 Build 0)  -->
<!DOCTYPE svg PUBLIC "-//W3C//DTD SVG 1.1//EN" "http://www.w3.org/Graphics/SVG/1.1/DTD/svg11.dtd">
<svg version="1.1" xmlns="http://www.w3.org/2000/svg" xmlns:xlink="http://www.w3.org/1999/xlink" x="0px" y="0px" width="17px"
	 height="16px" viewBox="0 0 17 16" style="enable-background:new 0 0 17 16;" xml:space="preserve">
<g id="web-browser-cross" style="enable-background:new    ;">
	<g id="web-browser-cross_1_">
		<g>
			<path d="M5.003,11.747l0.749,0.748L7.5,10.748l1.748,1.748l0.748-0.749L8.249,10l1.746-1.747l-0.748-0.75L7.5,9.251L5.752,7.503
				l-0.749,0.75L6.75,10L5.003,11.747z M1.999,3.499h1v-1h-1V3.499z M14.499,0.499h-14c-0.276,0-0.5,0.225-0.5,0.5v14
				c0,0.276,0.224,0.5,0.5,0.5h14c0.275,0,0.5-0.224,0.5-0.5v-14C14.999,0.724,14.774,0.499,14.499,0.499z M13.999,13.999
				c0,0.276-0.225,0.501-0.5,0.501h-12c-0.276,0-0.5-0.225-0.5-0.501v-8.5h13V13.999z M13.999,4.5h-13V2
				c0-0.277,0.224-0.501,0.5-0.501h12c0.275,0,0.5,0.224,0.5,0.501V4.5z M3.999,3.499h1v-1h-1V3.499z M5.999,3.499h1v-1h-1V3.499z"
				/>
		</g>
	</g>
</g>
<g id="Layer_1">
</g>
</svg>
