<?xml version="1.0" encoding="iso-8859-1"?>
<!-- Generator: Adobe Illustrator 16.0.0, SVG Export Plug-In . SVG Version: 6.00 Build 0)  -->
<!DOCTYPE svg PUBLIC "-//W3C//DTD SVG 1.1//EN" "http://www.w3.org/Graphics/SVG/1.1/DTD/svg11.dtd">
<svg version="1.1" xmlns="http://www.w3.org/2000/svg" xmlns:xlink="http://www.w3.org/1999/xlink" x="0px" y="0px" width="17px"
	 height="16px" viewBox="0 0 17 16" style="enable-background:new 0 0 17 16;" xml:space="preserve">
<g id="web-internet" style="enable-background:new    ;">
	<g id="web-internet_1_">
		<g>
			<path d="M7.499,0c-4.418,0-8,3.581-8,7.999c0,4.418,3.582,8,8,8c4.418,0,8-3.582,8-8C15.499,3.581,11.917,0,7.499,0z M14.411,7
				h-3.938c-0.033-0.702-0.104-1.369-0.199-2.002h3.531C14.101,5.621,14.31,6.292,14.411,7z M13.218,4h-3.129
				c-0.25-1.145-0.598-2.115-1.021-2.81C10.78,1.583,12.243,2.607,13.218,4z M9.499,7.999c0,1.078-0.076,2.088-0.199,3H5.699
				c-0.125-0.912-0.2-1.922-0.2-3H9.499z M5.528,7C5.557,6.29,5.623,5.625,5.707,4.999H9.29C9.376,5.625,9.44,6.29,9.47,7H5.528z
				 M7.499,0.999c0.678,0,1.266,1.196,1.625,3.001h-3.25C6.233,2.195,6.822,0.999,7.499,0.999z M5.93,1.19
				C5.507,1.884,5.158,2.855,4.908,4H1.779C2.754,2.607,4.217,1.583,5.93,1.19z M1.192,4.999h3.531C4.627,5.631,4.557,6.298,4.523,7
				H0.585C0.688,6.292,0.896,5.621,1.192,4.999z M0.499,7.999C0.499,7.999,0.499,7.999,0.499,7.999c0,0,0,0,0-0.001V7.999h4
				c0,1.063,0.079,2.074,0.22,3H1.202C0.765,10.089,0.499,9.079,0.499,7.999z M1.788,11.999h3.115
				c0.25,1.146,0.603,2.113,1.026,2.809C4.22,14.415,2.767,13.386,1.788,11.999z M7.499,14.999c-0.679,0-1.276-1.189-1.638-3h3.277
				C8.776,13.81,8.179,14.999,7.499,14.999z M9.067,14.808c0.424-0.695,0.777-1.662,1.027-2.809h3.115
				C12.231,13.386,10.778,14.415,9.067,14.808z M10.278,10.999c0.141-0.926,0.221-1.938,0.221-3h4c0,1.08-0.266,2.09-0.703,3H10.278
				z"/>
		</g>
	</g>
</g>
<g id="Layer_1">
</g>
</svg>
