<?xml version="1.0" encoding="iso-8859-1"?>
<!-- Generator: Adobe Illustrator 16.0.0, SVG Export Plug-In . SVG Version: 6.00 Build 0)  -->
<!DOCTYPE svg PUBLIC "-//W3C//DTD SVG 1.1//EN" "http://www.w3.org/Graphics/SVG/1.1/DTD/svg11.dtd">
<svg version="1.1" xmlns="http://www.w3.org/2000/svg" xmlns:xlink="http://www.w3.org/1999/xlink" x="0px" y="0px" width="17px"
	 height="16px" viewBox="0 0 17 16" style="enable-background:new 0 0 17 16;" xml:space="preserve">
<g id="web-reading-list" style="enable-background:new    ;">
	<g id="web-reading-list_2_">
		<g>
			<path d="M15.499,5.5h-1v0.055c-0.635-0.649-1.52-1.056-2.5-1.056c-1.307,0-2.434,0.725-3.033,1.786
				C8.579,6.148,8.042,5.999,7.489,5.999c-0.547,0-1.076,0.148-1.457,0.284C5.43,5.224,4.305,4.499,2.999,4.499
				c-0.981,0-1.865,0.406-2.5,1.056V5.5h-1v1.999h0.05c-0.024,0.165-0.05,0.329-0.05,0.5c0,1.934,1.567,3.5,3.5,3.5
				c1.933,0,3.5-1.566,3.5-3.5c0-0.284-0.043-0.557-0.107-0.821c0.333-0.095,0.709-0.179,1.103-0.179
				c0.397,0,0.776,0.085,1.112,0.179C8.542,7.443,8.499,7.715,8.499,7.999c0,1.934,1.566,3.5,3.5,3.5s3.5-1.566,3.5-3.5
				c0-0.171-0.027-0.335-0.051-0.5h0.051V5.5z M2.999,10.499c-1.381,0-2.5-1.118-2.5-2.5c0-1.38,1.119-2.499,2.5-2.499
				c1.38,0,2.5,1.119,2.5,2.499C5.499,9.381,4.379,10.499,2.999,10.499z M11.999,10.499c-1.381,0-2.5-1.118-2.5-2.5
				c0-1.38,1.119-2.499,2.5-2.499s2.5,1.119,2.5,2.499C14.499,9.381,13.38,10.499,11.999,10.499z"/>
		</g>
	</g>
</g>
<g id="Layer_1">
</g>
</svg>
