<?xml version="1.0" encoding="iso-8859-1"?>
<!-- Generator: Adobe Illustrator 16.0.0, SVG Export Plug-In . SVG Version: 6.00 Build 0)  -->
<!DOCTYPE svg PUBLIC "-//W3C//DTD SVG 1.1//EN" "http://www.w3.org/Graphics/SVG/1.1/DTD/svg11.dtd">
<svg version="1.1" xmlns="http://www.w3.org/2000/svg" xmlns:xlink="http://www.w3.org/1999/xlink" x="0px" y="0px" width="17px"
	 height="16px" viewBox="0 0 17 16" style="enable-background:new 0 0 17 16;" xml:space="preserve">
<g id="web-code" style="enable-background:new    ;">
	<g id="web-code_1_">
		<g>
			<path d="M3.319,4.095c-0.212-0.162-0.557-0.162-0.77,0l-2.876,3.193c-0.212,0.162-0.212,0.425,0,0.587
				C-0.27,7.919-0.192,7.92-0.122,7.941l2.664,2.935c0.214,0.162,0.562,0.162,0.776,0c0.214-0.162,0.214-0.424,0-0.587L0.784,7.498
				l2.535-2.815C3.532,4.52,3.532,4.257,3.319,4.095z M11.233,1.067c-0.24-0.139-0.549-0.057-0.688,0.184L3.552,14.252
				c-0.138,0.239-0.056,0.543,0.183,0.681c0.239,0.137,0.545,0.056,0.683-0.183l7-12.998C11.558,1.512,11.475,1.205,11.233,1.067z
				 M15.323,7.095c-0.068-0.052-0.16-0.059-0.246-0.077l-2.653-2.923c-0.214-0.162-0.562-0.162-0.775,0s-0.214,0.425,0,0.587
				l2.544,2.804l-2.544,2.803c-0.214,0.163-0.214,0.425,0,0.587s0.562,0.162,0.775,0l2.899-3.194
				C15.537,7.519,15.537,7.257,15.323,7.095z"/>
		</g>
	</g>
</g>
<g id="Layer_1">
</g>
</svg>
