<?xml version="1.0" encoding="iso-8859-1"?>
<!-- Generator: Adobe Illustrator 16.0.0, SVG Export Plug-In . SVG Version: 6.00 Build 0)  -->
<!DOCTYPE svg PUBLIC "-//W3C//DTD SVG 1.1//EN" "http://www.w3.org/Graphics/SVG/1.1/DTD/svg11.dtd">
<svg version="1.1" xmlns="http://www.w3.org/2000/svg" xmlns:xlink="http://www.w3.org/1999/xlink" x="0px" y="0px" width="17px"
	 height="16px" viewBox="0 0 17 16" style="enable-background:new 0 0 17 16;" xml:space="preserve">
<g id="web-browser-a" style="enable-background:new    ;">
	<g id="web-browser-a_1_">
		<g>
			<path d="M14.999,0.499h-15c-0.276,0-0.5,0.225-0.5,0.5v14c0,0.276,0.224,0.5,0.5,0.5h15c0.275,0,0.5-0.224,0.5-0.5v-14
				C15.499,0.724,15.274,0.499,14.999,0.499z M14.499,13.999c0,0.276-0.225,0.501-0.5,0.501h-13c-0.276,0-0.5-0.225-0.5-0.501v-10.5
				h14V13.999z M14.499,2.499h-14V2c0-0.277,0.224-0.501,0.5-0.501h13c0.275,0,0.5,0.224,0.5,0.501V2.499z"/>
		</g>
	</g>
</g>
<g id="Layer_1">
</g>
</svg>
