<svg xmlns="http://www.w3.org/2000/svg" xmlns:xlink="http://www.w3.org/1999/xlink" preserveAspectRatio="xMidYMid" width="25" height="25" viewBox="0 0 25 25">
  <defs>
    <style>
      .cls-1 {
        fill: #3c4042;
        fill-rule: evenodd;
      }
    </style>
  </defs>
  <path d="M23.437,24.999 L1.562,24.999 C0.699,24.999 -0.000,24.299 -0.000,23.436 L-0.000,1.560 C-0.000,0.697 0.699,-0.002 1.562,-0.002 L23.437,-0.002 C24.300,-0.002 25.000,0.697 25.000,1.560 L25.000,23.436 C25.000,24.299 24.300,24.999 23.437,24.999 ZM24.000,1.999 C24.000,1.446 23.552,0.999 23.000,0.999 L2.000,0.999 C1.448,0.999 1.000,1.446 1.000,1.999 L1.000,22.999 C1.000,23.551 1.448,23.999 2.000,23.999 L23.000,23.999 C23.552,23.999 24.000,23.551 24.000,22.999 L24.000,1.999 ZM21.000,20.999 L22.000,20.999 L22.000,21.998 L21.000,21.998 L21.000,20.999 ZM12.500,21.998 C7.253,21.998 3.000,17.745 3.000,12.498 C3.000,7.251 7.253,2.998 12.500,2.998 C17.747,2.998 22.000,7.251 22.000,12.498 C22.000,17.745 17.747,21.998 12.500,21.998 ZM12.500,3.998 C7.805,3.998 4.000,7.803 4.000,12.498 C4.000,17.192 7.805,20.999 12.500,20.999 C17.194,20.999 21.000,17.192 21.000,12.498 C21.000,7.803 17.194,3.998 12.500,3.998 ZM12.500,16.998 C10.015,16.998 8.000,14.983 8.000,12.498 C8.000,10.013 10.015,7.998 12.500,7.998 C14.985,7.998 17.000,10.013 17.000,12.498 C17.000,14.983 14.985,16.998 12.500,16.998 ZM12.500,8.998 C10.567,8.998 9.000,10.564 9.000,12.498 C9.000,14.432 10.567,15.997 12.500,15.997 C14.433,15.997 16.000,14.432 16.000,12.498 C16.000,10.564 14.433,8.998 12.500,8.998 ZM21.000,2.998 L22.000,2.998 L22.000,3.998 L21.000,3.998 L21.000,2.998 ZM3.000,2.998 L4.000,2.998 L4.000,3.998 L3.000,3.998 L3.000,2.998 ZM4.000,21.998 L3.000,21.998 L3.000,20.999 L4.000,20.999 L4.000,21.998 Z" class="cls-1"/>
</svg>
