<svg xmlns="http://www.w3.org/2000/svg" xmlns:xlink="http://www.w3.org/1999/xlink" preserveAspectRatio="xMidYMid" width="15" height="23" viewBox="0 0 15 23">
  <defs>
    <style>
      .cls-1 {
        fill: #3c4042;
        fill-rule: evenodd;
      }
    </style>
  </defs>
  <path d="M14.984,11.575 L14.984,13.814 C14.984,17.226 12.837,19.993 9.163,19.993 L5.836,19.993 C2.162,19.993 0.015,17.226 0.015,13.814 L0.015,11.574 C0.011,11.549 -0.000,11.526 -0.000,11.500 C-0.000,11.473 0.011,11.449 0.015,11.424 L0.015,9.180 C0.015,9.121 0.027,9.067 0.029,9.009 L0.996,9.009 L0.996,10.999 L14.003,10.999 L14.003,9.009 L14.971,9.009 C14.972,9.067 14.984,9.121 14.984,9.180 L14.984,11.423 C14.989,11.449 15.000,11.472 15.000,11.500 C15.000,11.526 14.989,11.549 14.984,11.575 ZM14.003,11.999 L0.996,11.999 L0.996,13.994 C0.996,16.753 2.563,18.990 5.641,18.990 L9.358,18.990 C12.436,18.990 14.003,16.753 14.003,13.994 L14.003,11.999 ZM0.015,8.004 L14.984,8.004 L14.984,9.005 L0.015,9.005 L0.015,8.004 ZM10.000,1.999 L11.000,1.999 L11.000,5.999 L10.000,5.999 L10.000,1.999 ZM7.000,-0.001 L8.000,-0.001 L8.000,5.999 L7.000,5.999 L7.000,-0.001 ZM4.000,1.999 L5.000,1.999 L5.000,5.999 L4.000,5.999 L4.000,1.999 ZM14.000,20.990 L14.000,22.144 C12.115,22.681 9.893,22.998 7.500,22.998 C5.106,22.998 2.885,22.681 1.000,22.144 L1.000,20.990 C2.811,21.550 5.056,21.886 7.500,21.886 C9.943,21.886 12.189,21.550 14.000,20.990 Z" class="cls-1"/>
</svg>
