<svg xmlns="http://www.w3.org/2000/svg" xmlns:xlink="http://www.w3.org/1999/xlink" preserveAspectRatio="xMidYMid" width="19" height="23" viewBox="0 0 19 23">
  <defs>
    <style>
      .cls-1 {
        fill: #3c4042;
        fill-rule: evenodd;
      }
    </style>
  </defs>
  <path d="M17.416,21.463 C17.416,22.310 16.707,22.997 15.833,22.997 L3.166,22.997 C2.292,22.997 1.583,22.310 1.583,21.463 L-0.000,1.530 C-0.000,0.684 0.709,-0.003 1.583,-0.003 L17.416,-0.003 C18.291,-0.003 19.000,0.684 19.000,1.530 L17.416,21.463 ZM17.150,0.997 L1.850,0.997 C1.380,0.997 1.000,1.358 1.000,1.805 L2.700,21.189 C2.700,21.635 3.080,21.997 3.550,21.997 L15.450,21.997 C15.919,21.997 16.300,21.635 16.300,21.189 L18.000,1.805 C18.000,1.358 17.619,0.997 17.150,0.997 Z" class="cls-1"/>
</svg>
