<svg xmlns="http://www.w3.org/2000/svg" xmlns:xlink="http://www.w3.org/1999/xlink" preserveAspectRatio="xMidYMid" width="17" height="25" viewBox="0 0 17 25">
  <defs>
    <style>
      .cls-1 {
        fill: #3c4042;
        fill-rule: evenodd;
      }
    </style>
  </defs>
  <path d="M9.000,15.000 L9.000,15.000 L9.000,23.999 L13.500,23.999 C13.776,23.999 14.000,24.223 14.000,24.499 C14.000,24.776 13.776,24.999 13.500,24.999 L3.500,24.999 C3.224,24.999 3.000,24.776 3.000,24.499 C3.000,24.223 3.224,23.999 3.500,23.999 L8.000,23.999 L8.000,14.999 C3.668,14.461 -0.000,12.360 -0.000,6.249 C-0.000,3.123 1.298,-0.000 1.298,-0.000 L15.146,-0.000 C15.146,-0.000 17.000,3.123 17.000,6.249 C17.000,12.360 13.884,14.431 9.000,15.000 ZM8.063,14.000 L8.942,14.000 C11.370,13.710 13.021,13.070 14.134,11.986 C15.181,10.967 15.773,9.484 15.943,7.492 C14.963,7.932 12.873,8.754 10.926,8.754 C9.779,8.754 8.682,8.468 7.894,7.649 C6.058,5.740 1.982,7.514 1.111,7.926 C1.615,11.515 3.859,13.461 8.063,14.000 ZM14.549,1.000 L1.993,1.000 C1.640,2.020 1.000,4.154 1.000,6.249 C1.000,6.447 1.010,6.637 1.018,6.827 C2.456,6.192 6.482,4.706 8.604,6.911 C10.286,8.659 14.455,7.102 15.998,6.320 C15.998,6.296 16.000,6.273 16.000,6.249 C16.000,4.117 15.030,1.945 14.549,1.000 Z" class="cls-1"/>
</svg>
