<svg xmlns="http://www.w3.org/2000/svg" xmlns:xlink="http://www.w3.org/1999/xlink" preserveAspectRatio="xMidYMid" width="23.5" height="24" viewBox="0 0 23.5 24">
  <defs>
    <style>
      .cls-1 {
        fill: #3c4042;
        fill-rule: evenodd;
      }
    </style>
  </defs>
  <path d="M21.500,14.999 L19.748,14.999 C18.860,18.450 15.728,21.000 12.000,21.000 L8.000,21.000 C3.581,21.000 -0.000,17.418 -0.000,13.000 L-0.000,8.997 L1.000,8.997 L1.000,8.998 L19.000,8.998 L19.000,8.997 L20.000,8.997 L20.000,9.999 L21.500,9.999 C22.604,9.999 23.500,10.894 23.500,11.999 L23.500,12.999 C23.500,14.104 22.604,14.999 21.500,14.999 ZM1.000,13.000 C1.000,16.859 4.140,20.000 8.000,20.000 L12.000,20.000 C15.860,20.000 19.000,16.859 19.000,13.000 L19.000,12.998 L1.000,12.998 L1.000,13.000 ZM1.000,9.998 L1.000,11.998 L19.000,11.998 L19.000,9.998 L1.000,9.998 ZM22.500,11.999 C22.500,11.447 22.052,10.999 21.500,10.999 L20.000,10.999 L20.000,13.000 C20.000,13.339 19.976,13.672 19.935,13.999 L21.500,13.999 C22.052,13.999 22.500,13.552 22.500,12.999 L22.500,11.999 ZM14.000,1.999 L15.000,1.999 L15.000,6.999 L14.000,6.999 L14.000,1.999 ZM10.000,-0.001 L11.000,-0.001 L11.000,6.999 L10.000,6.999 L10.000,-0.001 ZM5.000,1.999 L6.000,1.999 L6.000,6.999 L5.000,6.999 L5.000,1.999 ZM2.500,22.999 L17.500,22.999 C17.776,22.999 18.000,23.223 18.000,23.499 C18.000,23.776 17.776,23.999 17.500,23.999 L2.500,23.999 C2.224,23.999 2.000,23.776 2.000,23.499 C2.000,23.223 2.224,22.999 2.500,22.999 Z" class="cls-1"/>
</svg>
