<svg xmlns="http://www.w3.org/2000/svg" xmlns:xlink="http://www.w3.org/1999/xlink" preserveAspectRatio="xMidYMid" width="19.75" height="20" viewBox="0 0 19.75 20">
  <defs>
    <style>
      .cls-1 {
        fill: #3c4042;
        fill-rule: evenodd;
      }
    </style>
  </defs>
  <path d="M10.750,14.000 L10.750,14.000 L10.750,18.998 L9.750,18.998 L9.750,13.998 L9.874,13.998 L-0.000,0.999 L-0.000,-0.000 L19.750,-0.000 L19.750,0.999 L10.750,14.000 ZM1.137,1.000 L10.359,12.988 L18.658,1.000 L1.137,1.000 ZM6.250,18.999 L14.250,18.999 C14.526,18.999 14.750,19.223 14.750,19.500 C14.750,19.775 14.526,19.999 14.250,19.999 L6.250,19.999 C5.974,19.999 5.750,19.775 5.750,19.500 C5.750,19.223 5.974,18.999 6.250,18.999 Z" class="cls-1"/>
</svg>
