<svg xmlns="http://www.w3.org/2000/svg" xmlns:xlink="http://www.w3.org/1999/xlink" preserveAspectRatio="xMidYMid" width="25" height="20" viewBox="0 0 25 20">
  <defs>
    <style>
      .cls-1 {
        fill: #3c4042;
        fill-rule: evenodd;
      }
    </style>
  </defs>
  <path d="M20.000,12.000 C20.000,12.000 20.000,12.000 20.000,12.000 C18.797,14.765 16.628,16.999 13.000,16.999 L8.000,16.999 C3.685,16.999 -0.000,14.314 -0.000,9.999 L-0.000,-0.000 L20.000,-0.000 L20.000,2.000 C20.000,2.000 20.000,2.000 20.000,2.000 C22.761,2.000 25.000,4.238 25.000,7.000 C25.000,9.761 22.761,12.000 20.000,12.000 ZM19.000,0.999 L1.000,0.999 L1.000,9.999 C1.000,13.451 4.548,16.000 8.000,16.000 L13.000,16.000 C16.452,16.000 19.000,13.451 19.000,9.999 L19.000,0.999 ZM20.000,2.999 C20.000,2.999 20.000,2.999 20.000,2.999 L20.000,11.000 C20.000,11.000 20.000,11.000 20.000,11.000 C22.209,11.000 24.000,9.209 24.000,7.000 C24.000,4.791 22.209,2.999 20.000,2.999 ZM0.500,18.999 L19.500,18.999 C19.776,18.999 20.000,19.223 20.000,19.500 C20.000,19.775 19.776,19.999 19.500,19.999 L0.500,19.999 C0.224,19.999 -0.000,19.775 -0.000,19.500 C-0.000,19.223 0.224,18.999 0.500,18.999 Z" class="cls-1"/>
</svg>
