<svg xmlns="http://www.w3.org/2000/svg" xmlns:xlink="http://www.w3.org/1999/xlink" preserveAspectRatio="xMidYMid" width="21" height="25" viewBox="0 0 21 25">
  <defs>
    <style>
      .cls-1 {
        fill: #3c4042;
        fill-rule: evenodd;
      }
    </style>
  </defs>
  <path d="M19.500,9.000 L18.882,9.000 L17.000,24.999 L4.000,24.999 L2.118,9.000 L1.500,9.000 C0.672,9.000 -0.000,8.233 -0.000,7.285 L-0.000,5.998 L-0.000,5.998 L-0.000,5.997 L-0.000,4.715 C-0.000,3.928 0.466,3.272 1.098,3.070 L2.250,-0.002 L18.750,-0.002 L19.902,3.070 C20.534,3.272 21.000,3.927 21.000,4.715 L21.000,7.285 C21.000,8.233 20.328,9.000 19.500,9.000 ZM5.000,23.999 L16.000,23.999 L16.533,19.998 L4.466,19.998 L5.000,23.999 ZM4.333,18.999 L16.667,18.999 L17.333,13.999 L3.666,13.999 L4.333,18.999 ZM3.533,12.998 L17.467,12.998 L18.000,9.000 L3.000,9.000 L3.533,12.998 ZM18.250,1.000 L2.750,1.000 L2.050,3.000 L18.950,3.000 L18.250,1.000 ZM20.000,4.715 C20.000,4.293 19.736,3.999 19.500,3.999 L1.500,3.999 C1.263,3.999 1.000,4.293 1.000,4.715 L1.000,7.285 C1.000,7.706 1.263,8.000 1.500,8.000 L19.500,8.000 C19.736,8.000 20.000,7.706 20.000,7.285 L20.000,4.715 Z" class="cls-1"/>
</svg>
