<svg xmlns="http://www.w3.org/2000/svg" xmlns:xlink="http://www.w3.org/1999/xlink" preserveAspectRatio="xMidYMid" width="9" height="25" viewBox="0 0 9 25">
  <defs>
    <style>
      .cls-1 {
        fill: #3c4042;
        fill-rule: evenodd;
      }
    </style>
  </defs>
  <path d="M4.500,24.998 L-0.000,24.999 C-0.000,24.999 -0.000,12.780 -0.000,11.999 C-0.000,8.999 2.000,8.999 2.000,8.999 L2.000,3.998 L2.000,3.998 L2.000,2.998 L2.000,2.998 L2.000,-0.001 L4.500,-0.002 L7.000,-0.001 L7.000,8.999 C7.000,8.999 9.000,8.999 9.000,11.999 C9.000,12.780 9.000,24.999 9.000,24.999 L4.500,24.998 ZM3.000,0.999 L3.000,2.998 L6.000,2.998 L6.000,0.999 L3.000,0.999 ZM8.000,11.999 C8.000,9.999 6.000,9.999 6.000,9.999 L6.000,3.998 L3.000,3.998 L3.000,9.999 C3.000,9.999 1.000,9.999 1.000,11.999 C1.000,12.780 1.000,23.999 1.000,23.999 L3.000,23.999 L6.000,23.999 L8.000,23.999 C8.000,23.999 8.000,12.780 8.000,11.999 Z" class="cls-1"/>
</svg>
