<svg xmlns="http://www.w3.org/2000/svg" xmlns:xlink="http://www.w3.org/1999/xlink" preserveAspectRatio="xMidYMid" width="17" height="22" viewBox="0 0 17 22">
  <defs>
    <style>
      .cls-1 {
        fill: #3c4042;
        fill-rule: evenodd;
      }
    </style>
  </defs>
  <path d="M16.500,21.999 L0.500,21.999 C0.224,21.999 -0.000,21.775 -0.000,21.499 C-0.000,21.223 0.224,20.999 0.500,20.999 L16.500,20.999 C16.776,20.999 17.000,21.223 17.000,21.499 C17.000,21.775 16.776,21.999 16.500,21.999 ZM10.163,19.992 L6.836,19.992 C3.162,19.992 1.015,17.225 1.015,13.814 L1.015,9.180 C1.015,9.121 1.027,9.067 1.029,9.009 L1.996,9.009 L1.996,13.994 C1.996,16.753 3.563,18.990 6.642,18.990 L10.358,18.990 C13.436,18.990 15.003,16.753 15.003,13.994 L15.003,9.009 L15.971,9.009 C15.972,9.067 15.984,9.121 15.984,9.180 L15.984,13.814 C15.984,17.225 13.837,19.992 10.163,19.992 ZM1.015,8.004 L15.984,8.004 L15.984,9.006 L1.015,9.006 L1.015,8.004 ZM11.000,1.999 L12.000,1.999 L12.000,5.999 L11.000,5.999 L11.000,1.999 ZM8.000,-0.001 L9.000,-0.001 L9.000,5.999 L8.000,5.999 L8.000,-0.001 ZM5.000,1.999 L6.000,1.999 L6.000,5.999 L5.000,5.999 L5.000,1.999 Z" class="cls-1"/>
</svg>
