<svg xmlns="http://www.w3.org/2000/svg" xmlns:xlink="http://www.w3.org/1999/xlink" preserveAspectRatio="xMidYMid" width="17" height="25" viewBox="0 0 17 25">
  <defs>
    <style>
      .cls-1 {
        fill: #3c4042;
        fill-rule: evenodd;
      }
    </style>
  </defs>
  <path d="M9.000,15.001 L9.000,15.001 L9.000,23.999 L13.500,23.999 C13.776,23.999 14.000,24.223 14.000,24.499 C14.000,24.776 13.776,24.999 13.500,24.999 L3.500,24.999 C3.224,24.999 3.000,24.776 3.000,24.499 C3.000,24.223 3.224,23.999 3.500,23.999 L8.000,23.999 L8.000,15.001 C3.668,14.462 -0.000,10.017 -0.000,3.904 C-0.000,2.460 -0.000,-0.001 -0.000,-0.001 L17.000,-0.001 C17.000,-0.001 17.000,2.955 17.000,3.904 C17.000,10.018 13.331,14.462 9.000,15.001 ZM16.000,0.999 L1.000,0.999 L1.000,3.904 C1.000,6.575 1.772,9.074 3.175,10.942 C4.470,12.667 6.204,13.751 8.064,14.001 L8.936,14.001 C10.795,13.751 12.530,12.667 13.825,10.942 C15.227,9.074 16.000,6.575 16.000,3.904 L16.000,0.999 Z" class="cls-1"/>
</svg>
