<svg xmlns="http://www.w3.org/2000/svg" xmlns:xlink="http://www.w3.org/1999/xlink" preserveAspectRatio="xMidYMid" width="24" height="22" viewBox="0 0 24 22">
  <defs>
    <style>
      .cls-1 {
        fill: #3c4042;
        fill-rule: evenodd;
      }
    </style>
  </defs>
  <path d="M21.643,17.998 L19.000,17.998 L19.000,18.855 C19.000,20.591 17.582,21.998 15.833,21.998 L3.166,21.998 C1.418,21.998 -0.000,20.591 -0.000,18.855 L-0.000,3.141 C-0.000,1.405 1.418,-0.002 3.166,-0.002 L15.833,-0.002 C17.582,-0.002 19.000,1.405 19.000,3.141 L19.000,6.998 L21.643,6.998 C22.944,6.998 24.000,8.054 24.000,9.355 L24.000,15.640 C24.000,16.943 22.944,17.998 21.643,17.998 ZM18.000,3.000 C18.000,1.894 17.104,0.999 16.000,0.999 L3.000,0.999 C1.895,0.999 1.000,1.894 1.000,3.000 L1.000,18.999 C1.000,20.104 1.895,20.999 3.000,20.999 L16.000,20.999 C17.104,20.999 18.000,20.104 18.000,18.999 L18.000,3.000 ZM23.000,9.999 C23.000,8.894 22.104,7.999 21.000,7.999 L19.000,7.999 L19.000,16.999 L21.000,16.999 C22.104,16.999 23.000,16.104 23.000,14.998 L23.000,9.999 Z" class="cls-1"/>
</svg>
