<svg xmlns="http://www.w3.org/2000/svg" xmlns:xlink="http://www.w3.org/1999/xlink" preserveAspectRatio="xMidYMid" width="23.75" height="23" viewBox="0 0 23.75 23">
  <defs>
    <style>
      .cls-1 {
        fill: #3c4042;
        fill-rule: evenodd;
      }
    </style>
  </defs>
  <path d="M18.750,9.999 C17.783,9.999 16.884,9.720 16.119,9.245 L10.750,17.000 L10.750,17.000 L10.750,21.998 L9.750,21.998 L9.750,16.998 L9.874,16.998 L-0.000,4.000 L-0.000,2.999 L3.638,2.999 L1.738,0.622 L2.461,-0.010 L4.867,2.999 L14.168,2.999 C14.940,1.234 16.699,-0.002 18.750,-0.002 C21.511,-0.002 23.750,2.237 23.750,4.998 C23.750,7.760 21.511,9.999 18.750,9.999 ZM5.666,4.000 L10.762,10.376 L10.038,11.009 L4.437,4.000 L1.137,4.000 L10.359,15.988 L18.658,4.000 L5.666,4.000 ZM18.750,0.998 C17.269,0.998 15.980,1.804 15.288,2.999 L19.750,2.999 L19.750,4.000 L16.689,8.422 C17.291,8.785 17.995,8.998 18.750,8.998 C20.959,8.998 22.750,7.207 22.750,4.998 C22.750,2.789 20.959,0.998 18.750,0.998 ZM6.250,21.999 L14.250,21.999 C14.526,21.999 14.750,22.223 14.750,22.499 C14.750,22.775 14.526,22.999 14.250,22.999 L6.250,22.999 C5.974,22.999 5.750,22.775 5.750,22.499 C5.750,22.223 5.974,21.999 6.250,21.999 Z" class="cls-1"/>
</svg>
