<svg xmlns="http://www.w3.org/2000/svg" xmlns:xlink="http://www.w3.org/1999/xlink" preserveAspectRatio="xMidYMid" width="15" height="25" viewBox="0 0 15 25">
  <defs>
    <style>
      .cls-1 {
        fill: #3c4042;
        fill-rule: evenodd;
      }
    </style>
  </defs>
  <path d="M14.935,20.997 C14.611,23.244 12.128,24.997 7.500,24.997 C2.871,24.997 0.389,23.244 0.065,20.997 L-0.000,20.997 L-0.000,6.997 L-0.000,6.997 C0.000,4.787 2.529,2.997 7.500,2.997 C7.677,2.997 7.828,3.016 8.000,3.020 L8.000,0.998 L8.000,0.998 L8.000,-0.002 L14.000,-0.002 L14.000,0.998 L9.000,0.998 L9.000,3.067 C12.969,3.395 14.999,5.024 15.000,6.997 L15.000,6.997 L15.000,20.997 L14.935,20.997 ZM9.000,4.055 L9.000,8.998 L8.000,8.998 L8.000,4.016 C7.829,4.012 7.679,3.997 7.500,3.997 C3.012,3.997 1.000,5.339 1.000,6.996 C1.000,8.653 3.012,9.997 7.500,9.997 C11.987,9.997 14.000,8.653 14.000,6.996 C14.000,5.538 12.435,4.325 9.000,4.055 ZM14.000,19.997 L14.000,9.161 C12.839,10.263 10.672,10.997 7.500,10.997 C4.327,10.997 2.160,10.263 1.000,9.161 L1.000,19.997 L1.067,19.997 C1.035,20.162 1.000,20.326 1.000,20.497 C1.000,22.429 3.012,23.997 7.500,23.997 C11.987,23.997 14.000,22.429 14.000,20.497 C14.000,20.326 13.964,20.162 13.932,19.997 L14.000,19.997 Z" class="cls-1"/>
</svg>
