<svg xmlns="http://www.w3.org/2000/svg" xmlns:xlink="http://www.w3.org/1999/xlink" preserveAspectRatio="xMidYMid" width="19" height="24" viewBox="0 0 19 24">
  <defs>
    <style>
      .cls-1 {
        fill: #3c4042;
        fill-rule: evenodd;
      }
    </style>
  </defs>
  <path d="M17.000,7.999 L17.000,7.999 L17.000,15.997 L17.000,16.998 L17.000,22.350 C17.000,23.259 16.328,23.996 15.500,23.996 L3.500,23.996 C2.671,23.996 2.000,23.259 2.000,22.350 L2.000,16.998 L2.000,15.997 L2.000,7.999 C0.895,7.999 -0.000,7.103 -0.000,5.999 L-0.000,3.999 C-0.000,2.895 0.895,2.000 2.000,2.000 L17.000,2.000 C18.104,2.000 19.000,2.895 19.000,3.999 L19.000,5.999 C19.000,7.104 18.104,7.999 17.000,7.999 ZM3.000,22.232 C3.000,22.654 3.363,22.996 3.812,22.996 L15.187,22.996 C15.636,22.996 16.000,22.654 16.000,22.232 L16.000,16.998 L13.949,16.998 C13.697,19.245 11.813,20.998 9.500,20.998 C7.186,20.998 5.303,19.245 5.050,16.998 L3.000,16.998 L3.000,22.232 ZM13.000,16.496 C13.000,14.565 11.433,12.998 9.500,12.998 C7.567,12.998 6.000,14.565 6.000,16.496 C6.000,18.430 7.567,19.997 9.500,19.997 C11.433,19.997 13.000,18.430 13.000,16.496 ZM3.000,15.997 L5.050,15.997 C5.301,13.751 7.185,11.997 9.500,11.997 C11.814,11.997 13.698,13.751 13.949,15.997 L16.000,15.997 L16.000,7.999 L3.000,7.999 L3.000,15.997 ZM18.000,3.999 C18.000,3.447 17.552,2.999 17.000,2.999 L2.000,2.999 C1.448,2.999 1.000,3.447 1.000,3.999 L1.000,5.999 C1.000,6.552 1.448,6.999 2.000,6.999 L17.000,6.999 C17.552,6.999 18.000,6.552 18.000,5.999 L18.000,3.999 ZM14.500,0.999 L4.500,0.999 C4.224,0.999 4.000,0.775 4.000,0.499 C4.000,0.223 4.224,-0.001 4.500,-0.001 L14.500,-0.001 C14.776,-0.001 15.000,0.223 15.000,0.499 C15.000,0.775 14.776,0.999 14.500,0.999 Z" class="cls-1"/>
</svg>
