<svg xmlns="http://www.w3.org/2000/svg" xmlns:xlink="http://www.w3.org/1999/xlink" preserveAspectRatio="xMidYMid" width="17" height="25" viewBox="0 0 17 25">
  <defs>
    <style>
      .cls-1 {
        fill: #3c4042;
        fill-rule: evenodd;
      }
    </style>
  </defs>
  <path d="M9.000,15.001 L9.000,15.001 L9.000,23.999 L13.500,23.999 C13.776,23.999 14.000,24.223 14.000,24.499 C14.000,24.776 13.776,24.999 13.500,24.999 L3.500,24.999 C3.224,24.999 3.000,24.776 3.000,24.499 C3.000,24.223 3.224,23.999 3.500,23.999 L8.000,23.999 L8.000,15.001 C3.668,14.462 -0.000,10.017 -0.000,3.904 C-0.000,2.460 -0.000,-0.001 -0.000,-0.001 L17.000,-0.001 C17.000,-0.001 17.000,2.955 17.000,3.904 C17.000,10.018 13.331,14.462 9.000,15.001 ZM3.175,10.942 C4.470,12.667 6.204,13.751 8.064,14.001 L8.936,14.001 C10.795,13.751 12.530,12.667 13.825,10.942 C14.585,9.930 15.158,8.731 15.525,7.422 C14.442,7.874 12.630,8.504 10.926,8.504 C9.779,8.504 8.682,8.218 7.894,7.399 C6.256,5.697 2.836,6.925 1.498,7.502 C1.866,8.781 2.431,9.951 3.175,10.942 ZM16.000,0.999 L1.000,0.999 L1.000,3.904 C1.000,4.787 1.086,5.649 1.250,6.478 C2.850,5.804 6.587,4.565 8.604,6.661 C10.221,8.342 14.137,6.967 15.808,6.164 C15.933,5.432 16.000,4.676 16.000,3.904 L16.000,0.999 Z" class="cls-1"/>
</svg>
