<svg xmlns="http://www.w3.org/2000/svg" xmlns:xlink="http://www.w3.org/1999/xlink" preserveAspectRatio="xMidYMid" width="13" height="25" viewBox="0 0 13 25">
  <defs>
    <style>
      .cls-1 {
        fill: #3c4042;
        fill-rule: evenodd;
      }
    </style>
  </defs>
  <path d="M13.000,22.000 C13.000,23.657 11.657,24.999 10.000,24.999 L3.000,24.999 C1.343,24.999 0.000,23.657 0.000,22.000 C0.000,21.998 0.000,21.998 0.000,21.996 L-0.000,21.996 C-0.000,21.996 0.000,11.461 0.000,10.692 C0.000,9.923 3.000,9.000 3.000,9.000 L3.000,3.998 L3.000,3.722 C2.405,3.376 2.000,2.738 2.000,1.999 C2.000,0.895 2.896,-0.000 4.000,-0.000 L9.000,-0.000 C10.105,-0.000 11.000,0.895 11.000,1.999 C11.000,2.738 10.596,3.376 10.000,3.722 L10.000,9.000 C10.000,9.000 13.000,9.923 13.000,10.692 C13.000,11.461 13.000,21.996 13.000,21.996 C13.000,21.998 13.000,21.998 13.000,22.000 ZM9.000,1.000 L4.000,1.000 C3.448,1.000 3.000,1.448 3.000,1.999 C3.000,2.354 3.188,2.675 3.503,2.858 L3.750,3.001 L3.750,3.000 L9.254,3.000 L9.497,2.858 C9.812,2.675 10.000,2.354 10.000,1.999 C10.000,1.448 9.552,1.000 9.000,1.000 ZM9.706,9.956 L9.001,9.738 L9.000,9.000 L9.000,4.000 L4.000,4.000 L4.000,9.000 L4.000,9.739 L3.294,9.956 C2.368,10.241 1.361,10.681 1.000,10.948 L1.000,21.077 L1.000,21.996 C1.000,23.102 1.898,23.999 3.000,23.999 L10.000,23.999 C11.094,23.999 11.986,23.117 12.000,22.026 L12.000,21.996 L12.000,10.948 C11.639,10.681 10.632,10.241 9.706,9.956 Z" class="cls-1"/>
</svg>
