<svg xmlns="http://www.w3.org/2000/svg" xmlns:xlink="http://www.w3.org/1999/xlink" preserveAspectRatio="xMidYMid" width="17" height="25" viewBox="0 0 17 25">
  <defs>
    <style>
      .cls-1 {
        fill: #3c4042;
        fill-rule: evenodd;
      }
    </style>
  </defs>
  <path d="M9.000,15.000 L9.000,15.000 L9.000,23.999 L13.500,23.999 C13.776,23.999 14.000,24.223 14.000,24.499 C14.000,24.776 13.776,24.999 13.500,24.999 L3.500,24.999 C3.224,24.999 3.000,24.776 3.000,24.499 C3.000,24.223 3.224,23.999 3.500,23.999 L8.000,23.999 L8.000,14.999 C3.668,14.461 -0.000,12.360 -0.000,6.249 C-0.000,3.123 1.298,-0.000 1.298,-0.000 L15.146,-0.000 C15.146,-0.000 17.000,3.123 17.000,6.249 C17.000,12.360 13.884,14.431 9.000,15.000 ZM14.549,1.000 L1.993,1.000 C1.640,2.020 1.000,4.154 1.000,6.249 C1.000,10.918 3.245,13.383 8.063,14.000 L8.942,14.000 C11.370,13.710 13.021,13.070 14.134,11.986 C15.390,10.764 16.000,8.887 16.000,6.249 C16.000,4.117 15.030,1.945 14.549,1.000 Z" class="cls-1"/>
</svg>
