<svg xmlns="http://www.w3.org/2000/svg" xmlns:xlink="http://www.w3.org/1999/xlink" preserveAspectRatio="xMidYMid" width="21" height="17" viewBox="0 0 21 17">
  <defs>
    <style>
      .cls-1 {
        fill: #3c4042;
        fill-rule: evenodd;
      }
    </style>
  </defs>
  <path d="M15.890,11.816 C14.977,14.711 13.715,16.999 12.000,16.999 L6.000,16.999 C1.323,16.999 -0.000,-0.001 -0.000,-0.001 L18.000,-0.001 C18.000,-0.001 17.904,1.219 17.676,2.999 L20.817,2.999 C20.817,2.999 22.441,10.592 15.890,11.816 ZM1.000,0.999 C1.000,0.999 3.000,15.999 6.000,15.999 L12.000,15.999 C15.000,15.999 17.000,0.999 17.000,0.999 L1.000,0.999 ZM19.938,3.999 L17.542,3.999 C17.252,6.051 16.809,8.594 16.168,10.886 C20.779,10.016 19.938,3.999 19.938,3.999 Z" class="cls-1"/>
</svg>
