<svg xmlns="http://www.w3.org/2000/svg" xmlns:xlink="http://www.w3.org/1999/xlink" preserveAspectRatio="xMidYMid" width="21" height="20" viewBox="0 0 21 20">
  <defs>
    <style>
      .cls-1 {
        fill: #3c4042;
        fill-rule: evenodd;
      }
    </style>
  </defs>
  <path d="M15.890,11.816 C14.977,14.711 13.715,16.999 12.000,16.999 L6.000,16.999 C1.323,16.999 -0.000,-0.000 -0.000,-0.000 L18.000,-0.000 C18.000,-0.000 17.904,1.220 17.676,2.999 L20.817,2.999 C20.817,2.999 22.441,10.592 15.890,11.816 ZM6.000,15.999 L12.000,15.999 C13.693,15.999 15.068,11.221 15.944,7.058 C14.927,8.107 12.930,10.946 9.000,7.999 C5.993,5.744 3.040,7.325 2.226,7.846 C3.106,11.801 4.413,15.999 6.000,15.999 ZM1.000,0.999 C1.000,0.999 1.373,3.795 2.038,6.971 C2.416,6.701 5.679,4.509 9.000,6.999 C13.000,9.999 14.441,7.561 16.000,5.999 L16.000,6.787 C16.641,3.688 17.000,0.999 17.000,0.999 L1.000,0.999 ZM19.938,3.999 L17.542,3.999 C17.252,6.051 16.809,8.594 16.168,10.886 C20.779,10.016 19.938,3.999 19.938,3.999 ZM3.500,18.999 L14.500,18.999 C14.776,18.999 15.000,19.223 15.000,19.499 C15.000,19.775 14.776,19.999 14.500,19.999 L3.500,19.999 C3.224,19.999 3.000,19.775 3.000,19.499 C3.000,19.223 3.224,18.999 3.500,18.999 Z" class="cls-1"/>
</svg>
