<svg xmlns="http://www.w3.org/2000/svg" xmlns:xlink="http://www.w3.org/1999/xlink" preserveAspectRatio="xMidYMid" width="15" height="24" viewBox="0 0 15 24">
  <defs>
    <style>
      .cls-1 {
        fill: #3c4042;
        fill-rule: evenodd;
      }
    </style>
  </defs>
  <path d="M15.000,19.997 C15.000,22.207 12.470,23.998 7.500,23.998 C2.529,23.998 -0.000,22.207 -0.000,19.997 L-0.000,19.997 L-0.000,19.997 L-0.000,3.997 L-0.000,3.997 L-0.000,3.997 C-0.000,1.788 2.529,-0.003 7.500,-0.003 C12.470,-0.003 15.000,1.788 15.000,3.997 L15.000,3.997 L15.000,3.997 L15.000,19.997 L15.000,19.997 L15.000,19.997 ZM7.500,0.997 C3.012,0.997 1.000,2.339 1.000,3.996 C1.000,5.653 3.012,6.997 7.500,6.997 C11.987,6.997 14.000,5.653 14.000,3.996 C14.000,2.339 11.987,0.997 7.500,0.997 ZM14.000,6.161 C12.839,7.264 10.672,7.997 7.500,7.997 C4.327,7.997 2.160,7.264 1.000,6.161 L1.000,19.997 C1.000,21.654 3.012,22.998 7.500,22.998 C11.987,22.998 14.000,21.654 14.000,19.997 L14.000,6.161 Z" class="cls-1"/>
</svg>
