<svg xmlns="http://www.w3.org/2000/svg" xmlns:xlink="http://www.w3.org/1999/xlink" preserveAspectRatio="xMidYMid" width="25" height="25" viewBox="0 0 25 25">
  <defs>
    <style>
      .cls-1 {
        fill: #3c4042;
        fill-rule: evenodd;
      }
    </style>
  </defs>
  <path d="M22.000,17.997 L22.000,17.999 L20.000,17.999 L20.000,23.437 C20.000,24.300 19.311,25.000 18.461,25.000 L1.538,25.000 C0.688,25.000 -0.000,24.300 -0.000,23.437 L-0.000,1.562 C-0.000,0.699 0.688,-0.000 1.538,-0.000 L18.461,-0.000 C19.311,-0.000 20.000,0.699 20.000,1.562 L20.000,6.000 L21.981,6.000 C21.987,6.000 21.993,5.998 22.000,5.998 C23.657,5.998 25.000,7.430 25.000,9.198 L25.000,14.797 C25.000,16.565 23.657,17.997 22.000,17.997 ZM19.000,1.562 C19.000,1.252 18.758,1.000 18.461,1.000 L1.538,1.000 C1.241,1.000 1.000,1.252 1.000,1.562 L1.000,23.437 C1.000,23.748 1.241,24.000 1.538,24.000 L18.461,24.000 C18.758,24.000 19.000,23.748 19.000,23.437 L19.000,1.562 ZM24.000,8.816 C24.000,7.811 23.104,6.998 22.000,6.998 L20.000,6.998 L20.000,16.997 L22.000,16.997 C23.104,16.997 24.000,16.183 24.000,15.178 L24.000,8.816 ZM14.000,6.999 L15.000,6.999 L15.000,17.999 L14.000,17.999 L14.000,6.999 ZM9.000,6.999 L10.000,6.999 L10.000,17.999 L9.000,17.999 L9.000,6.999 ZM4.000,6.999 L5.000,6.999 L5.000,17.999 L4.000,17.999 L4.000,6.999 Z" class="cls-1"/>
</svg>
