<svg xmlns="http://www.w3.org/2000/svg" xmlns:xlink="http://www.w3.org/1999/xlink" preserveAspectRatio="xMidYMid" width="19" height="25" viewBox="0 0 19 25">
  <defs>
    <style>
      .cls-1 {
        fill: #3c4042;
        fill-rule: evenodd;
      }
    </style>
  </defs>
  <path d="M17.417,11.999 L16.711,11.999 L15.375,23.400 C15.375,24.284 14.703,24.999 13.875,24.999 L4.875,24.999 C4.046,24.999 3.375,24.284 3.375,23.400 L2.039,11.999 L1.583,11.999 C0.709,11.999 -0.000,11.232 -0.000,10.286 L-0.000,7.714 C-0.000,6.768 0.709,6.000 1.583,6.000 L2.150,6.000 C2.845,2.577 5.871,-0.001 9.500,-0.001 C13.129,-0.001 16.155,2.577 16.850,6.000 L17.417,6.000 C18.291,6.000 19.000,6.768 19.000,7.714 L19.000,10.286 C19.000,11.232 18.291,11.999 17.417,11.999 ZM4.368,23.283 L4.375,23.341 L4.375,23.400 C4.375,23.730 4.599,24.000 4.875,24.000 L13.875,24.000 C14.151,24.000 14.375,23.730 14.375,23.400 L14.375,23.341 L14.382,23.283 L15.704,11.999 L3.046,11.999 L4.368,23.283 ZM9.500,1.000 C6.427,1.000 3.859,3.134 3.181,6.000 L15.819,6.000 C15.141,3.134 12.573,1.000 9.500,1.000 ZM18.000,7.714 C18.000,7.327 17.733,7.000 17.417,7.000 L1.583,7.000 C1.267,7.000 1.000,7.327 1.000,7.714 L1.000,10.286 C1.000,10.673 1.267,10.999 1.583,10.999 L17.417,10.999 C17.733,10.999 18.000,10.673 18.000,10.286 L18.000,7.714 ZM11.000,20.997 L12.000,20.997 L12.000,21.998 L11.000,21.998 L11.000,20.997 ZM11.000,13.998 L12.000,13.998 L12.000,14.998 L11.000,14.998 L11.000,13.998 ZM11.000,17.998 L10.000,17.998 L10.000,16.997 L11.000,16.997 L11.000,17.998 ZM7.000,19.998 L8.000,19.998 L8.000,20.998 L7.000,20.998 L7.000,19.998 ZM6.000,15.998 L7.000,15.998 L7.000,16.997 L6.000,16.997 L6.000,15.998 Z" class="cls-1"/>
</svg>
