<svg xmlns="http://www.w3.org/2000/svg" xmlns:xlink="http://www.w3.org/1999/xlink" preserveAspectRatio="xMidYMid" width="19" height="25" viewBox="0 0 19 25">
  <defs>
    <style>
      .cls-1 {
        fill: #3c4042;
        fill-rule: evenodd;
      }
    </style>
  </defs>
  <path d="M17.416,11.996 L16.836,11.996 L15.500,23.396 C15.500,24.280 14.828,24.996 14.000,24.996 L5.000,24.996 C4.171,24.996 3.500,24.280 3.500,23.396 L2.164,11.996 L1.583,11.996 C0.709,11.996 -0.000,11.229 -0.000,10.283 L-0.000,7.711 C-0.000,6.765 0.709,5.997 1.583,5.997 L2.188,5.997 C2.959,2.551 5.803,-0.003 9.500,-0.003 C13.197,-0.003 16.041,2.551 16.812,5.997 L17.416,5.997 C18.291,5.997 19.000,6.765 19.000,7.711 L19.000,10.283 C19.000,11.229 18.291,11.996 17.416,11.996 ZM4.625,23.122 C4.625,23.604 4.989,23.996 5.437,23.996 L13.562,23.996 C14.011,23.996 14.375,23.604 14.375,23.122 L15.851,11.996 L3.149,11.996 L4.625,23.122 ZM9.500,0.997 C6.392,0.999 3.683,3.366 3.114,5.997 L15.885,5.997 C15.317,3.365 12.608,0.995 9.500,0.997 ZM18.000,8.329 C18.000,7.593 17.619,6.995 17.150,6.995 L16.999,6.995 C16.999,6.997 17.000,6.998 17.000,6.999 L16.000,6.999 C16.000,6.998 16.000,6.997 16.000,6.995 L3.000,6.995 C3.000,6.997 3.000,6.998 3.000,6.999 L2.000,6.999 C2.000,6.998 2.000,6.997 2.000,6.995 L1.850,6.995 C1.380,6.995 1.000,7.593 1.000,8.329 L1.000,9.662 C1.000,10.400 1.380,10.996 1.850,10.996 L17.150,10.996 C17.619,10.996 18.000,10.400 18.000,9.662 L18.000,8.329 ZM6.000,15.997 L13.000,15.997 L13.000,19.998 L6.000,19.998 L6.000,15.997 ZM7.000,18.996 L12.000,18.996 L12.000,16.996 L7.000,16.996 L7.000,18.996 Z" class="cls-1"/>
</svg>
