<svg xmlns="http://www.w3.org/2000/svg" xmlns:xlink="http://www.w3.org/1999/xlink" preserveAspectRatio="xMidYMid" width="21" height="25" viewBox="0 0 21 25">
  <defs>
    <style>
      .cls-1 {
        fill: #3c4042;
        fill-rule: evenodd;
      }
    </style>
  </defs>
  <path d="M20.250,8.998 L18.900,8.998 L17.300,24.998 L3.700,24.998 L2.100,8.998 L0.750,8.998 C0.336,8.998 -0.000,8.663 -0.000,8.249 L-0.000,3.749 C-0.000,3.334 0.336,2.998 0.750,2.998 L4.987,2.998 L3.004,0.532 L3.796,-0.001 L6.207,2.998 L20.250,2.998 C20.664,2.998 21.000,3.334 21.000,3.749 L21.000,8.249 C21.000,8.663 20.664,8.998 20.250,8.998 ZM4.750,24.000 L16.250,24.000 L17.883,8.998 L9.000,8.998 L9.000,19.999 L8.000,19.999 L8.000,8.998 L3.117,8.998 L4.750,24.000 ZM1.000,3.998 L1.000,7.998 L8.000,7.998 L8.000,6.745 L5.791,3.998 L1.000,3.998 ZM20.000,3.998 L7.011,3.998 L9.000,5.999 L9.000,7.998 L20.000,7.998 L20.000,3.998 Z" class="cls-1"/>
</svg>
