<svg xmlns="http://www.w3.org/2000/svg" xmlns:xlink="http://www.w3.org/1999/xlink" preserveAspectRatio="xMidYMid" width="25" height="23" viewBox="0 0 25 23">
  <defs>
    <style>
      .cls-1 {
        fill: #3c4042;
        fill-rule: evenodd;
      }
    </style>
  </defs>
  <path d="M17.187,17.996 L12.505,17.996 L5.000,22.998 L5.000,17.487 C2.077,16.403 -0.000,13.687 -0.000,10.498 L-0.000,7.500 C-0.000,3.359 3.498,0.003 7.812,0.003 L17.187,0.003 C21.502,0.003 25.000,3.359 25.000,7.500 L25.000,10.498 C25.000,14.640 21.502,17.996 17.187,17.996 ZM24.000,7.500 C24.000,3.917 20.944,1.002 17.187,1.002 L7.812,1.002 C4.056,1.002 1.000,3.917 1.000,7.500 L1.000,10.498 C1.000,13.479 3.126,15.971 6.000,16.733 L6.000,21.130 L12.202,16.996 L17.187,16.996 C20.944,16.996 24.000,14.081 24.000,10.498 L24.000,7.500 ZM18.500,11.012 C17.671,11.012 17.000,10.339 17.000,9.509 C17.000,8.681 17.671,8.008 18.500,8.008 C19.328,8.008 20.000,8.681 20.000,9.509 C20.000,10.339 19.328,11.012 18.500,11.012 ZM12.500,11.012 C11.671,11.012 11.000,10.339 11.000,9.509 C11.000,8.681 11.671,8.008 12.500,8.008 C13.328,8.008 14.000,8.681 14.000,9.509 C14.000,10.339 13.328,11.012 12.500,11.012 ZM6.500,11.012 C5.671,11.012 5.000,10.339 5.000,9.509 C5.000,8.681 5.671,8.008 6.500,8.008 C7.328,8.008 8.000,8.681 8.000,9.509 C8.000,10.339 7.328,11.012 6.500,11.012 Z" class="cls-1"/>
</svg>
