<svg xmlns="http://www.w3.org/2000/svg" xmlns:xlink="http://www.w3.org/1999/xlink" preserveAspectRatio="xMidYMid" width="25" height="22" viewBox="0 0 25 22">
  <defs>
    <style>
      .cls-1 {
        fill: #3c4042;
        fill-rule: evenodd;
      }
    </style>
  </defs>
  <path d="M24.828,5.832 L15.833,14.827 C15.736,14.924 15.609,14.970 15.483,14.969 C15.350,14.972 15.218,14.927 15.117,14.826 L10.141,10.851 C9.945,10.655 9.945,10.337 10.141,10.140 C10.337,9.944 10.655,9.944 10.852,10.140 L15.457,13.820 L24.136,5.140 C24.327,4.949 24.637,4.949 24.828,5.140 C25.019,5.331 25.019,5.641 24.828,5.832 ZM17.000,0.999 L3.000,0.999 C1.895,0.999 1.000,1.894 1.000,2.999 L1.000,18.999 C1.000,20.104 1.895,20.999 3.000,20.999 L17.000,20.999 C18.104,20.999 19.000,20.104 19.000,18.999 L19.000,15.993 L20.000,15.993 L20.000,18.855 C20.000,20.591 18.622,21.997 16.923,21.997 L3.077,21.997 C1.377,21.997 -0.000,20.591 -0.000,18.855 L-0.000,3.141 C-0.000,1.405 1.377,-0.003 3.077,-0.003 L16.923,-0.003 C18.570,-0.003 19.903,1.322 19.984,2.984 L18.998,2.984 C18.990,1.886 18.099,0.999 17.000,0.999 Z" class="cls-1"/>
</svg>
