<svg xmlns="http://www.w3.org/2000/svg" xmlns:xlink="http://www.w3.org/1999/xlink" preserveAspectRatio="xMidYMid" width="25" height="25" viewBox="0 0 25 25">
  <defs>
    <style>
      .cls-1 {
        fill: #3c4042;
        fill-rule: evenodd;
      }
    </style>
  </defs>
  <path d="M21.000,18.953 L21.000,24.999 L14.333,18.999 L4.687,18.999 C2.098,18.999 -0.000,17.664 -0.000,15.041 L-0.000,4.749 C-0.000,2.125 2.098,-0.001 4.687,-0.001 L20.312,-0.001 C22.901,-0.001 25.000,2.125 25.000,4.749 L25.000,15.041 C25.000,17.426 23.260,18.733 21.000,18.953 ZM24.000,4.749 C24.000,2.682 22.346,1.000 20.312,1.000 L4.687,1.000 C2.654,1.000 1.000,2.682 1.000,4.749 L1.000,15.041 C1.000,17.785 3.822,17.999 4.687,17.999 L14.716,17.999 L20.000,22.754 L20.000,17.999 L20.312,17.999 C21.178,17.999 24.000,17.785 24.000,15.041 L24.000,4.749 ZM18.500,10.999 C17.671,10.999 17.000,10.327 17.000,9.499 C17.000,8.670 17.671,7.999 18.500,7.999 C19.328,7.999 20.000,8.670 20.000,9.499 C20.000,10.327 19.328,10.999 18.500,10.999 ZM12.500,10.999 C11.671,10.999 11.000,10.327 11.000,9.499 C11.000,8.670 11.671,7.999 12.500,7.999 C13.328,7.999 14.000,8.670 14.000,9.499 C14.000,10.327 13.328,10.999 12.500,10.999 ZM6.500,10.999 C5.671,10.999 5.000,10.327 5.000,9.499 C5.000,8.670 5.671,7.999 6.500,7.999 C7.328,7.999 8.000,8.670 8.000,9.499 C8.000,10.327 7.328,10.999 6.500,10.999 Z" class="cls-1"/>
</svg>
