<svg xmlns="http://www.w3.org/2000/svg" xmlns:xlink="http://www.w3.org/1999/xlink" preserveAspectRatio="xMidYMid" width="25" height="23" viewBox="0 0 25 23">
  <defs>
    <style>
      .cls-1 {
        fill: #3c4042;
        fill-rule: evenodd;
      }
    </style>
  </defs>
  <path d="M24.953,0.621 C24.962,0.668 24.982,0.713 24.982,0.763 L24.982,12.985 L23.986,12.985 L23.986,1.772 C23.986,1.677 23.963,1.587 23.931,1.503 L12.870,9.814 C12.860,9.826 12.864,9.842 12.854,9.853 C12.756,9.951 12.628,9.990 12.500,9.985 C12.372,9.990 12.244,9.951 12.146,9.853 C12.135,9.842 12.139,9.826 12.130,9.814 L1.053,1.492 C1.018,1.579 0.996,1.672 0.996,1.772 L0.996,18.219 C0.996,18.645 1.347,18.991 1.781,18.991 L12.000,18.991 L12.000,19.931 L0.780,19.931 C0.349,19.931 -0.000,19.588 -0.000,19.164 L-0.000,0.763 C-0.000,0.703 0.021,0.648 0.035,0.591 C-0.020,0.427 -0.015,0.247 0.116,0.115 C0.248,-0.016 0.427,-0.020 0.592,0.034 C0.654,0.019 0.714,-0.003 0.780,-0.003 L24.201,-0.003 C24.272,-0.003 24.336,0.019 24.402,0.037 C24.568,-0.021 24.750,-0.018 24.883,0.115 C25.023,0.255 25.023,0.448 24.953,0.621 ZM1.965,1.000 L12.500,8.915 L23.034,1.000 L1.965,1.000 ZM15.140,15.139 C15.333,14.946 15.646,14.946 15.839,15.139 L19.000,18.300 L22.160,15.139 C22.353,14.946 22.666,14.946 22.859,15.139 C23.052,15.333 23.052,15.645 22.859,15.838 L19.699,18.999 L22.828,22.128 C23.021,22.321 23.021,22.635 22.828,22.827 C22.636,23.021 22.322,23.021 22.130,22.827 L19.000,19.698 L15.870,22.827 C15.677,23.021 15.364,23.021 15.171,22.827 C14.978,22.635 14.978,22.321 15.171,22.128 L18.301,18.999 L15.140,15.838 C14.947,15.645 14.947,15.333 15.140,15.139 Z" class="cls-1"/>
</svg>
