<svg xmlns="http://www.w3.org/2000/svg" xmlns:xlink="http://www.w3.org/1999/xlink" preserveAspectRatio="xMidYMid" width="25" height="20" viewBox="0 0 25 20">
  <defs>
    <style>
      .cls-1 {
        fill: #3c4042;
        fill-rule: evenodd;
      }
    </style>
  </defs>
  <path d="M23.437,19.998 L1.562,19.998 C0.699,19.998 -0.000,19.309 -0.000,18.460 L-0.000,1.537 C-0.000,0.687 0.699,-0.003 1.562,-0.003 L23.437,-0.003 C24.300,-0.003 25.000,0.687 25.000,1.537 L25.000,18.460 C25.000,19.309 24.300,19.998 23.437,19.998 ZM24.000,1.999 C24.000,1.447 23.552,0.999 23.000,0.999 L2.000,0.999 C1.448,0.999 1.000,1.447 1.000,1.999 L1.000,17.999 C1.000,18.551 1.448,18.999 2.000,18.999 L23.000,18.999 C23.552,18.999 24.000,18.551 24.000,17.999 L24.000,1.999 ZM16.000,3.012 L22.000,3.012 L22.000,9.009 L16.000,9.009 L16.000,3.012 ZM17.000,8.004 L21.000,8.004 L21.000,3.984 L17.000,3.984 L17.000,8.004 ZM3.000,14.000 L14.000,14.000 L14.000,15.004 L3.000,15.004 L3.000,14.000 ZM3.000,10.990 L14.000,10.990 L14.000,11.995 L3.000,11.995 L3.000,10.990 Z" class="cls-1"/>
</svg>
