<svg xmlns="http://www.w3.org/2000/svg" xmlns:xlink="http://www.w3.org/1999/xlink" preserveAspectRatio="xMidYMid" width="25" height="11" viewBox="0 0 25 11">
  <defs>
    <style>
      .cls-1 {
        fill: #3c4042;
        fill-rule: evenodd;
      }
    </style>
  </defs>
  <path d="M19.500,10.997 C19.331,10.997 19.165,10.987 19.000,10.972 L19.000,10.998 L5.000,10.998 L5.000,10.972 C2.197,10.719 -0.000,8.366 -0.000,5.497 C-0.000,2.460 2.462,-0.002 5.500,-0.002 C8.537,-0.002 11.000,2.460 11.000,5.497 C11.000,7.357 10.075,8.997 8.662,9.993 L16.337,9.993 C14.925,8.997 14.000,7.357 14.000,5.497 C14.000,2.460 16.462,-0.002 19.500,-0.002 C22.537,-0.002 25.000,2.460 25.000,5.497 C25.000,8.535 22.537,10.997 19.500,10.997 ZM5.500,1.008 C3.014,1.008 1.000,3.018 1.000,5.497 C1.000,7.977 3.014,9.987 5.500,9.987 C7.985,9.987 10.000,7.977 10.000,5.497 C10.000,3.018 7.985,1.008 5.500,1.008 ZM19.500,1.008 C17.014,1.008 15.000,3.018 15.000,5.497 C15.000,7.977 17.014,9.987 19.500,9.987 C21.985,9.987 24.000,7.977 24.000,5.497 C24.000,3.018 21.985,1.008 19.500,1.008 Z" class="cls-1"/>
</svg>
