<svg xmlns="http://www.w3.org/2000/svg" xmlns:xlink="http://www.w3.org/1999/xlink" preserveAspectRatio="xMidYMid" width="25" height="25" viewBox="0 0 25 25">
  <defs>
    <style>
      .cls-1 {
        fill: #3c4042;
        fill-rule: evenodd;
      }
    </style>
  </defs>
  <path d="M24.917,0.798 C25.012,2.222 25.123,5.693 24.303,9.010 L23.972,9.010 L19.000,10.882 L21.606,12.721 C21.668,12.632 21.747,12.559 21.807,12.468 L22.824,12.725 C22.579,13.133 22.299,13.511 22.000,13.872 L22.000,13.999 L21.936,13.946 C21.816,14.086 21.705,14.233 21.575,14.363 C18.724,17.213 15.078,19.004 11.972,19.004 C10.487,19.004 9.141,18.565 8.049,17.666 L0.706,25.008 L-0.010,24.294 L7.320,16.963 C4.510,13.598 6.435,7.675 10.618,3.409 C13.482,0.488 18.800,-0.005 22.065,-0.005 C22.978,-0.005 23.721,0.033 24.215,0.068 L24.294,-0.011 L24.385,0.080 C24.689,0.104 24.862,0.123 24.862,0.123 C24.862,0.123 24.880,0.295 24.903,0.599 L25.010,0.705 L24.917,0.798 ZM22.066,0.998 C19.198,0.998 13.992,1.403 11.336,4.111 C11.085,4.367 10.844,4.631 10.609,4.901 L13.353,7.646 L12.646,8.353 L9.971,5.678 C9.435,6.369 8.954,7.095 8.542,7.834 L11.353,10.646 L10.646,11.352 L8.065,8.771 C6.770,11.530 6.526,14.349 8.041,16.242 L23.260,1.023 C22.904,1.009 22.513,0.998 22.066,0.998 ZM23.958,1.757 L8.758,16.957 C9.616,17.636 10.685,18.000 11.972,18.000 C14.775,18.000 18.182,16.336 20.864,13.654 C20.972,13.546 21.051,13.409 21.151,13.293 L17.782,10.492 L23.455,8.218 C23.976,5.780 24.011,3.294 23.958,1.757 Z" class="cls-1"/>
</svg>
