<svg xmlns="http://www.w3.org/2000/svg" xmlns:xlink="http://www.w3.org/1999/xlink" preserveAspectRatio="xMidYMid" width="25" height="23" viewBox="0 0 25 23">
  <defs>
    <style>
      .cls-1 {
        fill: #3c4042;
        fill-rule: evenodd;
      }
    </style>
  </defs>
  <path d="M24.982,0.763 L24.982,12.985 L23.986,12.985 L23.986,1.772 C23.986,1.677 23.963,1.587 23.931,1.503 L12.870,9.814 C12.860,9.826 12.864,9.842 12.854,9.853 C12.756,9.951 12.628,9.990 12.500,9.985 C12.372,9.990 12.244,9.951 12.146,9.853 C12.135,9.842 12.139,9.826 12.130,9.814 L1.053,1.492 C1.018,1.579 0.996,1.672 0.996,1.772 L0.996,18.219 C0.996,18.645 1.347,18.992 1.781,18.992 L12.000,18.992 L12.000,19.931 L0.780,19.931 C0.349,19.931 -0.000,19.588 -0.000,19.163 L-0.000,0.763 C-0.000,0.703 0.021,0.648 0.035,0.591 C-0.020,0.427 -0.015,0.247 0.116,0.116 C0.248,-0.016 0.427,-0.020 0.592,0.034 C0.654,0.019 0.714,-0.003 0.780,-0.003 L24.201,-0.003 C24.272,-0.003 24.336,0.019 24.402,0.037 C24.568,-0.021 24.750,-0.018 24.883,0.116 C25.023,0.255 25.023,0.449 24.952,0.621 C24.962,0.668 24.982,0.713 24.982,0.763 ZM1.965,1.000 L12.500,8.915 L23.035,1.000 L1.965,1.000 ZM18.500,18.999 L21.000,18.999 L21.000,16.499 C21.000,16.223 21.224,16.000 21.500,16.000 C21.776,16.000 22.000,16.223 22.000,16.499 L22.000,18.999 L24.500,18.999 C24.776,18.999 25.000,19.223 25.000,19.499 C25.000,19.775 24.776,19.999 24.500,19.999 L22.000,19.999 L22.000,22.500 C22.000,22.775 21.776,22.999 21.500,22.999 C21.224,22.999 21.000,22.775 21.000,22.500 L21.000,19.999 L18.500,19.999 C18.224,19.999 18.000,19.775 18.000,19.499 C18.000,19.223 18.224,18.999 18.500,18.999 Z" class="cls-1"/>
</svg>
