<svg xmlns="http://www.w3.org/2000/svg" xmlns:xlink="http://www.w3.org/1999/xlink" preserveAspectRatio="xMidYMid" width="25.03" height="25" viewBox="0 0 25.03 25">
  <defs>
    <style>
      .cls-1 {
        fill: #3c4042;
        fill-rule: evenodd;
      }
    </style>
  </defs>
  <path d="M17.829,16.997 L17.000,16.997 L17.000,16.960 C16.877,16.980 16.753,16.997 16.625,16.997 L15.000,16.997 L14.000,16.997 L11.166,16.997 L12.000,22.000 L6.000,25.000 L5.111,16.997 L2.375,16.997 C1.063,16.997 -0.000,15.990 -0.000,14.747 L-0.000,7.247 C-0.000,6.005 1.063,4.998 2.375,4.998 L14.000,4.998 L15.000,4.998 L16.625,4.998 C16.753,4.998 16.877,5.016 17.000,5.035 L17.000,4.998 L17.833,4.998 L25.016,-0.001 L25.016,21.999 L17.829,16.997 ZM6.835,23.463 L10.892,21.435 L10.153,16.999 L6.117,16.999 L6.835,23.463 ZM14.000,5.999 L2.000,5.999 C1.448,5.999 1.000,6.446 1.000,6.999 L1.000,14.999 C1.000,15.552 1.448,15.999 2.000,15.999 L14.000,15.999 L14.000,5.999 ZM17.000,5.999 L15.000,5.999 L15.000,15.999 L17.000,15.999 L17.000,5.999 ZM18.000,5.999 L17.000,5.999 L17.000,15.999 L18.000,15.999 L18.000,5.999 ZM23.965,1.975 L19.000,5.430 L19.000,7.247 C19.000,7.247 19.000,7.247 19.000,7.247 L19.000,14.747 C19.000,14.747 19.000,14.747 19.000,14.748 L19.000,16.569 L23.965,20.024 L23.965,1.975 Z" class="cls-1"/>
</svg>
