<svg xmlns="http://www.w3.org/2000/svg" xmlns:xlink="http://www.w3.org/1999/xlink" preserveAspectRatio="xMidYMid" width="25" height="25" viewBox="0 0 25 25">
  <defs>
    <style>
      .cls-1 {
        fill: #3c4042;
        fill-rule: evenodd;
      }
    </style>
  </defs>
  <path d="M17.268,17.289 C13.819,20.727 8.814,24.854 4.556,24.987 C4.546,24.987 4.535,24.989 4.525,24.989 C3.004,24.989 0.423,21.371 0.397,21.335 C0.132,20.956 0.007,20.518 0.007,20.105 C0.007,19.582 0.209,19.102 0.582,18.832 C0.977,18.548 5.130,15.784 5.611,15.481 C5.837,15.338 6.111,15.267 6.413,15.267 C6.791,15.267 7.212,15.379 7.633,15.601 C8.035,15.810 9.254,16.503 9.851,16.842 C10.380,16.472 11.625,15.520 13.558,13.590 C15.506,11.651 16.452,10.418 16.822,9.896 C16.480,9.300 15.786,8.084 15.574,7.683 C15.357,7.270 15.246,6.847 15.246,6.466 C15.246,6.170 15.312,5.899 15.449,5.676 C15.762,5.165 18.545,0.993 18.814,0.611 C19.070,0.247 19.543,0.009 20.088,0.009 C20.482,0.009 20.914,0.134 21.327,0.422 C21.363,0.447 24.993,3.071 24.993,4.564 L24.993,4.598 C24.856,8.861 20.716,13.852 17.268,17.289 ZM20.750,1.239 C20.537,1.090 20.306,1.009 20.088,1.009 C19.860,1.009 19.692,1.101 19.632,1.186 C19.346,1.590 16.588,5.732 16.301,6.199 C16.265,6.257 16.246,6.353 16.246,6.466 C16.246,6.688 16.322,6.955 16.460,7.218 C16.636,7.553 17.211,8.564 17.689,9.398 L18.007,9.951 L17.638,10.472 C17.222,11.061 16.230,12.341 14.264,14.300 C12.293,16.266 11.012,17.251 10.424,17.661 L9.907,18.024 L9.357,17.711 C8.820,17.406 7.563,16.692 7.170,16.487 C6.899,16.345 6.631,16.267 6.413,16.267 C6.301,16.267 6.207,16.287 6.148,16.326 C5.648,16.640 1.507,19.399 1.166,19.643 C1.087,19.700 1.007,19.866 1.007,20.105 C1.007,20.335 1.082,20.568 1.217,20.764 C2.410,22.430 3.990,23.971 4.525,23.989 C7.591,23.891 11.866,21.261 16.562,16.581 C19.882,13.271 23.867,8.500 23.994,4.566 C23.960,3.982 22.192,2.268 20.750,1.239 Z" class="cls-1"/>
</svg>
