<svg xmlns="http://www.w3.org/2000/svg" xmlns:xlink="http://www.w3.org/1999/xlink" preserveAspectRatio="xMidYMid" width="21" height="24" viewBox="0 0 21 24">
  <defs>
    <style>
      .cls-1 {
        fill: #3c4042;
        fill-rule: evenodd;
      }
    </style>
  </defs>
  <path d="M20.500,19.999 L0.500,19.999 C0.224,19.999 -0.000,19.775 -0.000,19.499 C-0.000,19.223 0.224,18.999 0.500,18.999 L2.000,18.999 L2.000,7.999 C2.000,4.685 4.686,1.999 8.000,1.999 L9.095,1.999 C9.037,1.841 8.993,1.675 8.993,1.497 C8.993,0.669 9.667,-0.002 10.500,-0.002 C11.332,-0.002 12.007,0.669 12.007,1.497 C12.007,1.675 11.962,1.841 11.905,1.999 L13.000,1.999 C16.314,1.999 19.000,4.685 19.000,7.999 L19.000,18.999 L20.500,18.999 C20.776,18.999 21.000,19.223 21.000,19.499 C21.000,19.775 20.776,19.999 20.500,19.999 ZM18.992,18.997 L18.000,18.997 L18.000,7.999 C18.000,5.238 15.761,2.999 13.000,2.999 L8.000,2.999 C5.238,2.999 3.000,5.238 3.000,7.999 L3.000,18.997 L2.007,18.997 L2.007,18.999 L10.490,18.999 C10.493,18.999 10.496,18.998 10.500,18.998 C10.503,18.998 10.506,18.999 10.510,18.999 L18.992,18.999 L18.992,18.997 ZM10.500,23.998 C9.293,23.998 8.286,23.138 8.055,21.997 L12.944,21.997 C12.713,23.138 11.707,23.998 10.500,23.998 Z" class="cls-1"/>
</svg>
