<svg xmlns="http://www.w3.org/2000/svg" xmlns:xlink="http://www.w3.org/1999/xlink" preserveAspectRatio="xMidYMid" width="17" height="25.03" viewBox="0 0 17 25.03">
  <defs>
    <style>
      .cls-1 {
        fill: #3c4042;
        fill-rule: evenodd;
      }
    </style>
  </defs>
  <path d="M9.272,22.042 L8.994,22.042 L8.994,24.029 L10.500,24.029 C10.776,24.029 11.000,24.253 11.000,24.529 C11.000,24.806 10.776,25.029 10.500,25.029 L6.500,25.029 C6.224,25.029 6.000,24.806 6.000,24.529 C6.000,24.253 6.224,24.029 6.500,24.029 L8.005,24.029 L8.005,22.042 L7.727,22.042 C3.459,22.042 -0.000,18.541 -0.000,14.225 L-0.000,12.021 L1.015,12.021 L1.015,14.733 C1.015,18.203 3.994,21.018 7.668,21.018 L9.331,21.018 C13.006,21.018 15.984,18.203 15.984,14.733 L15.984,12.021 L17.000,12.021 L17.000,14.225 C17.000,18.541 13.540,22.042 9.272,22.042 ZM8.500,19.024 C5.461,19.024 2.997,16.541 2.997,13.479 L2.997,5.559 C2.997,2.495 5.461,0.013 8.500,0.013 C11.539,0.013 14.003,2.495 14.003,5.559 L14.003,13.479 C14.003,16.541 11.539,19.024 8.500,19.024 ZM13.000,5.529 C13.000,3.044 10.985,1.028 8.500,1.028 C6.015,1.028 4.000,3.044 4.000,5.529 L4.000,13.529 C4.000,16.015 6.015,18.029 8.500,18.029 C10.985,18.029 13.000,16.015 13.000,13.529 L13.000,5.529 Z" class="cls-1"/>
</svg>
