<svg xmlns="http://www.w3.org/2000/svg" xmlns:xlink="http://www.w3.org/1999/xlink" preserveAspectRatio="xMidYMid" width="25" height="25" viewBox="0 0 25 25">
  <defs>
    <style>
      .cls-1 {
        fill: #3c4042;
        fill-rule: evenodd;
      }
    </style>
  </defs>
  <path d="M21.000,18.945 L21.000,25.000 L13.500,19.000 L4.687,19.000 C2.099,19.000 -0.000,16.958 -0.000,14.440 L-0.000,4.560 C-0.000,2.041 2.099,-0.001 4.687,-0.001 L20.312,-0.001 C22.901,-0.001 25.000,2.041 25.000,4.560 L25.000,14.440 C25.000,16.730 23.262,18.621 21.000,18.945 ZM24.000,4.560 C24.000,2.596 22.345,0.999 20.312,0.999 L4.687,0.999 C2.654,0.999 1.000,2.596 1.000,4.560 L1.000,14.440 C1.000,16.403 2.654,18.000 4.687,18.000 L13.851,18.000 L20.000,22.919 L20.000,18.000 L20.312,18.000 C22.345,18.000 24.000,16.403 24.000,14.440 L24.000,4.560 ZM14.696,9.166 C14.365,9.497 14.102,9.755 13.904,9.942 C13.707,10.129 13.560,10.313 13.464,10.494 C13.368,10.675 13.304,10.897 13.272,11.158 C13.240,11.420 13.219,11.795 13.208,12.286 L12.200,12.286 C12.189,11.795 12.216,11.385 12.280,11.054 C12.344,10.724 12.448,10.425 12.592,10.158 C12.736,9.891 12.928,9.636 13.168,9.390 C13.408,9.145 13.699,8.867 14.040,8.558 C14.339,8.281 14.587,7.971 14.784,7.630 C14.981,7.289 15.080,6.910 15.080,6.494 C15.080,6.174 15.019,5.881 14.896,5.614 C14.774,5.347 14.608,5.121 14.400,4.934 C14.192,4.748 13.949,4.601 13.672,4.494 C13.395,4.387 13.102,4.334 12.792,4.334 C12.366,4.334 11.987,4.409 11.656,4.558 C11.325,4.707 11.054,4.913 10.840,5.174 C10.627,5.435 10.467,5.742 10.360,6.094 C10.254,6.446 10.206,6.830 10.216,7.246 L9.208,7.246 C9.208,6.681 9.288,6.166 9.448,5.702 C9.608,5.238 9.845,4.843 10.160,4.518 C10.475,4.192 10.856,3.939 11.304,3.758 C11.752,3.577 12.264,3.486 12.840,3.486 C13.288,3.486 13.707,3.553 14.096,3.686 C14.486,3.819 14.830,4.014 15.128,4.270 C15.427,4.526 15.661,4.836 15.832,5.198 C16.003,5.561 16.088,5.976 16.088,6.446 C16.088,7.043 15.957,7.550 15.696,7.966 C15.435,8.382 15.101,8.782 14.696,9.166 ZM13.384,15.150 L12.040,15.150 L12.040,13.454 L13.384,13.454 L13.384,15.150 Z" class="cls-1"/>
</svg>
