<svg xmlns="http://www.w3.org/2000/svg" xmlns:xlink="http://www.w3.org/1999/xlink" preserveAspectRatio="xMidYMid" width="19" height="25" viewBox="0 0 19 25">
  <defs>
    <style>
      .cls-1 {
        fill: #3c4042;
        fill-rule: evenodd;
      }
    </style>
  </defs>
  <path d="M15.799,19.997 L17.416,19.997 C18.291,19.997 19.000,20.743 19.000,21.664 L19.000,23.331 C19.000,24.251 18.291,24.997 17.416,24.997 L1.583,24.997 C0.709,24.997 -0.000,24.251 -0.000,23.331 L-0.000,21.664 C-0.000,20.743 0.709,19.997 1.583,19.997 L3.200,19.997 L-0.000,13.798 L9.500,-0.000 L19.000,13.798 L15.799,19.997 ZM2.500,20.999 C1.672,20.999 1.000,21.671 1.000,22.499 C1.000,23.327 1.672,23.999 2.500,23.999 L16.500,23.999 C17.328,23.999 18.000,23.327 18.000,22.499 C18.000,21.671 17.328,20.999 16.500,20.999 L2.500,20.999 ZM9.500,1.752 L9.331,1.998 L9.669,1.998 L9.500,1.752 ZM8.993,7.998 L8.993,2.488 L1.157,13.870 L4.321,19.997 L14.678,19.997 L17.842,13.870 L10.006,2.488 L10.006,7.998 L8.993,7.998 ZM13.011,13.497 C13.011,15.431 11.439,16.997 9.500,16.997 C7.560,16.997 5.988,15.431 5.988,13.497 C5.988,11.564 7.560,9.997 9.500,9.997 C11.439,9.997 13.011,11.564 13.011,13.497 ZM9.500,10.997 C8.128,10.997 7.016,12.116 7.016,13.496 C7.016,14.877 8.128,15.997 9.500,15.997 C10.871,15.997 11.983,14.877 11.983,13.496 C11.983,12.116 10.871,10.997 9.500,10.997 Z" class="cls-1"/>
</svg>
