<svg xmlns="http://www.w3.org/2000/svg" xmlns:xlink="http://www.w3.org/1999/xlink" preserveAspectRatio="xMidYMid" width="25" height="25" viewBox="0 0 25 25">
  <defs>
    <style>
      .cls-1 {
        fill: #3c4042;
        fill-rule: evenodd;
      }
    </style>
  </defs>
  <path d="M24.418,6.166 C24.023,6.450 19.870,9.214 19.389,9.517 C19.163,9.660 18.888,9.731 18.587,9.731 C18.209,9.731 17.788,9.619 17.366,9.398 C16.965,9.188 15.745,8.495 15.148,8.156 C14.620,8.527 13.375,9.478 11.442,11.407 C9.493,13.347 8.548,14.579 8.178,15.102 C8.520,15.699 9.214,16.914 9.426,17.316 C9.643,17.728 9.754,18.150 9.754,18.532 C9.754,18.827 9.688,19.099 9.551,19.322 C9.237,19.833 6.455,24.005 6.186,24.387 C5.930,24.751 5.456,24.989 4.911,24.989 C4.518,24.989 4.086,24.864 3.673,24.576 C3.637,24.552 0.007,21.927 0.007,20.434 L0.007,20.399 C0.144,16.137 4.283,11.146 7.732,7.709 C11.181,4.272 16.185,0.145 20.444,0.011 C20.454,0.011 20.465,0.009 20.475,0.009 C21.995,0.009 24.577,3.627 24.603,3.663 C24.867,4.043 24.993,4.480 24.993,4.893 C24.993,5.416 24.791,5.897 24.418,6.166 ZM23.782,4.235 C22.590,2.568 21.010,1.027 20.474,1.010 C17.409,1.107 13.133,3.738 8.438,8.417 C5.117,11.727 1.133,16.498 1.006,20.432 C1.040,21.016 2.808,22.730 4.250,23.759 C4.463,23.908 4.693,23.989 4.911,23.989 C5.140,23.989 5.308,23.897 5.367,23.812 C5.653,23.407 8.412,19.266 8.698,18.799 C8.734,18.740 8.754,18.645 8.754,18.532 C8.754,18.310 8.678,18.043 8.540,17.781 C8.363,17.445 7.789,16.434 7.311,15.600 L6.992,15.046 L7.361,14.525 C7.777,13.936 8.770,12.657 10.735,10.698 C12.707,8.732 13.987,7.748 14.575,7.337 L15.093,6.975 L15.642,7.287 C16.179,7.592 17.437,8.306 17.830,8.512 C18.100,8.653 18.368,8.731 18.587,8.731 C18.698,8.731 18.793,8.711 18.852,8.673 C19.352,8.358 23.493,5.600 23.834,5.355 C23.912,5.298 23.993,5.132 23.993,4.893 C23.993,4.663 23.918,4.430 23.782,4.235 Z" class="cls-1"/>
</svg>
