<svg xmlns="http://www.w3.org/2000/svg" xmlns:xlink="http://www.w3.org/1999/xlink" preserveAspectRatio="xMidYMid" width="25" height="21" viewBox="0 0 25 21">
  <defs>
    <style>
      .cls-1 {
        fill: #3c4042;
        fill-rule: evenodd;
      }
    </style>
  </defs>
  <path d="M24.000,18.989 L24.000,17.889 C23.824,17.956 23.637,18.001 23.437,18.001 L12.000,16.384 L12.000,20.499 C12.000,20.775 11.776,20.999 11.500,20.999 C11.398,20.999 11.309,20.961 11.230,20.909 L5.500,18.999 C5.224,18.999 5.000,18.775 5.000,18.499 L5.000,15.395 L1.562,14.909 C0.700,14.909 -0.000,14.217 -0.000,13.363 L-0.000,5.634 C-0.000,4.780 0.700,4.089 1.562,4.089 L23.437,0.997 C23.637,0.997 23.824,1.042 24.000,1.109 L24.000,-0.002 L25.000,-0.002 L25.000,2.542 L25.000,16.456 L25.000,18.989 L24.000,18.989 ZM6.000,18.165 L11.000,19.832 L11.000,16.243 L6.000,15.536 L6.000,18.165 ZM1.633,5.089 L1.562,5.089 C1.252,5.089 1.000,5.333 1.000,5.634 L1.000,13.363 C1.000,13.664 1.252,13.909 1.562,13.909 L1.633,13.909 L1.702,13.919 L20.000,16.506 L20.000,2.493 L1.702,5.079 L1.633,5.089 ZM24.000,2.542 C24.000,2.260 23.776,2.025 23.490,2.000 L21.000,2.352 L21.000,16.647 L23.490,16.999 C23.776,16.973 24.000,16.739 24.000,16.456 L24.000,2.542 Z" class="cls-1"/>
</svg>
