<svg xmlns="http://www.w3.org/2000/svg" xmlns:xlink="http://www.w3.org/1999/xlink" preserveAspectRatio="xMidYMid" width="25" height="25" viewBox="0 0 25 25">
  <defs>
    <style>
      .cls-1 {
        fill: #3c4042;
        fill-rule: evenodd;
      }
    </style>
  </defs>
  <path d="M25.000,8.782 L25.000,24.457 L25.003,24.462 L25.000,24.464 L25.000,24.999 L24.172,24.999 L24.164,25.004 L24.160,24.999 L0.839,24.999 L0.835,25.004 L0.828,24.999 L-0.000,24.999 L-0.000,24.464 L-0.004,24.462 L-0.000,24.457 L-0.000,8.782 L-0.008,8.776 L-0.000,8.766 L-0.000,8.000 L12.500,-0.001 L25.000,8.000 L25.000,8.766 L25.008,8.776 L25.000,8.782 ZM23.298,24.000 L16.349,15.946 L12.651,19.008 L12.500,18.828 L12.349,19.008 L8.650,15.946 L1.702,24.000 L23.298,24.000 ZM1.000,23.275 L7.797,15.239 L1.000,9.610 L1.000,23.275 ZM12.500,1.186 L1.183,8.430 L12.500,17.802 L23.816,8.430 L12.500,1.186 ZM24.000,9.610 L17.203,15.239 L24.000,23.275 L24.000,9.610 Z" class="cls-1"/>
</svg>
