<svg xmlns="http://www.w3.org/2000/svg" xmlns:xlink="http://www.w3.org/1999/xlink" preserveAspectRatio="xMidYMid" width="25" height="19.94" viewBox="0 0 25 19.94">
  <defs>
    <style>
      .cls-1 {
        fill: #3c4042;
        fill-rule: evenodd;
      }
    </style>
  </defs>
  <path d="M24.953,0.620 C24.962,0.668 24.982,0.713 24.982,0.764 L24.982,19.163 C24.982,19.587 24.632,19.930 24.201,19.930 L0.780,19.930 C0.349,19.930 -0.000,19.587 -0.000,19.163 L-0.000,0.764 C-0.000,0.703 0.021,0.648 0.035,0.591 C-0.020,0.426 -0.015,0.247 0.116,0.115 C0.248,-0.016 0.427,-0.021 0.592,0.034 C0.654,0.019 0.714,-0.003 0.780,-0.003 L24.201,-0.003 C24.272,-0.003 24.336,0.019 24.402,0.037 C24.568,-0.021 24.750,-0.018 24.883,0.115 C25.023,0.255 25.023,0.448 24.953,0.620 ZM0.996,1.773 L0.996,18.218 C0.996,18.645 1.347,18.991 1.781,18.991 L23.201,18.991 C23.635,18.991 23.986,18.645 23.986,18.218 L23.986,1.773 C23.986,1.677 23.963,1.588 23.931,1.503 L12.870,9.814 C12.860,9.826 12.864,9.842 12.854,9.853 C12.756,9.951 12.628,9.990 12.500,9.985 C12.372,9.990 12.244,9.951 12.146,9.853 C12.135,9.842 12.139,9.826 12.130,9.814 L1.053,1.491 C1.018,1.579 0.996,1.673 0.996,1.773 ZM12.500,8.915 L23.034,1.001 L1.966,1.001 L12.500,8.915 Z" class="cls-1"/>
</svg>
