<svg xmlns="http://www.w3.org/2000/svg" xmlns:xlink="http://www.w3.org/1999/xlink" preserveAspectRatio="xMidYMid" width="21" height="23" viewBox="0 0 21 23">
  <defs>
    <style>
      .cls-1 {
        fill: #3c4042;
        fill-rule: evenodd;
      }
    </style>
  </defs>
  <path d="M-0.000,18.992 L-0.000,17.996 L21.000,17.996 L21.000,18.992 L-0.000,18.992 ZM18.758,17.994 L17.542,17.994 C17.542,17.994 17.542,17.994 17.542,17.994 L18.000,17.994 L18.000,15.005 L18.000,15.005 L18.000,9.499 C18.000,4.999 15.000,1.999 10.500,1.999 C6.000,1.999 3.000,4.999 3.000,9.499 L3.000,15.005 L3.000,15.005 L3.000,17.994 L3.458,17.994 C3.458,17.994 3.458,17.994 3.458,17.994 L2.241,17.994 L2.241,17.994 L2.000,17.994 L2.000,15.005 L2.000,15.005 L2.000,8.922 C2.000,4.762 5.123,1.356 9.094,1.025 C9.294,0.432 9.838,-0.003 10.500,-0.003 C11.162,-0.003 11.706,0.432 11.905,1.025 C15.876,1.356 19.000,4.762 19.000,8.922 L19.000,15.005 L19.000,15.005 L19.000,17.994 L18.758,17.994 L18.758,17.994 ZM10.500,22.009 C11.714,22.009 12.725,21.140 12.951,19.988 L13.951,19.988 C13.712,21.690 12.266,23.003 10.500,23.003 C8.734,23.003 7.288,21.690 7.049,19.988 L8.049,19.988 C8.275,21.140 9.285,22.009 10.500,22.009 Z" class="cls-1"/>
</svg>
