<svg xmlns="http://www.w3.org/2000/svg" xmlns:xlink="http://www.w3.org/1999/xlink" preserveAspectRatio="xMidYMid" width="25" height="25" viewBox="0 0 25 25">
  <defs>
    <style>
      .cls-1 {
        fill: #3c4042;
        fill-rule: evenodd;
      }
    </style>
  </defs>
  <path d="M21.000,18.953 L21.000,24.999 L14.333,18.999 L4.687,18.999 C2.098,18.999 -0.000,17.664 -0.000,15.041 L-0.000,4.749 C-0.000,2.125 2.098,-0.001 4.687,-0.001 L20.312,-0.001 C22.901,-0.001 25.000,2.125 25.000,4.749 L25.000,15.041 C25.000,17.426 23.260,18.733 21.000,18.953 ZM24.000,4.749 C24.000,2.682 22.346,1.000 20.312,1.000 L4.687,1.000 C2.654,1.000 1.000,2.682 1.000,4.749 L1.000,15.041 C1.000,17.785 3.822,17.999 4.687,17.999 L14.716,17.999 L20.000,22.754 L20.000,17.999 L20.312,17.999 C21.178,17.999 24.000,17.785 24.000,15.041 L24.000,4.749 ZM18.500,7.999 L6.500,7.999 C6.224,7.999 6.000,7.775 6.000,7.499 C6.000,7.223 6.224,6.999 6.500,6.999 L18.500,6.999 C18.776,6.999 19.000,7.223 19.000,7.499 C19.000,7.775 18.776,7.999 18.500,7.999 ZM7.500,10.999 L17.500,10.999 C17.776,10.999 18.000,11.223 18.000,11.499 C18.000,11.775 17.776,11.999 17.500,11.999 L7.500,11.999 C7.224,11.999 7.000,11.775 7.000,11.499 C7.000,11.223 7.224,10.999 7.500,10.999 Z" class="cls-1"/>
</svg>
