<svg xmlns="http://www.w3.org/2000/svg" xmlns:xlink="http://www.w3.org/1999/xlink" preserveAspectRatio="xMidYMid" width="18.188" height="25.03" viewBox="0 0 18.188 25.03">
  <defs>
    <style>
      .cls-1 {
        fill: #3c4042;
        fill-rule: evenodd;
      }
    </style>
  </defs>
  <path d="M0.708,20.613 L0.010,19.915 L17.479,2.445 L18.178,3.143 L0.708,20.613 ZM9.094,1.028 C6.609,1.028 4.594,3.044 4.594,5.529 L4.594,12.530 L3.596,13.528 C3.596,13.512 3.591,13.496 3.591,13.479 L3.591,5.559 C3.591,2.495 6.055,0.013 9.094,0.013 C11.258,0.013 13.111,1.283 14.010,3.114 L13.265,3.858 C12.601,2.202 10.988,1.028 9.094,1.028 ZM0.594,14.225 L0.594,12.021 L1.609,12.021 L1.609,14.733 C1.609,14.981 1.628,15.225 1.658,15.466 L0.867,16.257 C0.694,15.608 0.594,14.929 0.594,14.225 ZM14.596,9.521 L14.596,13.479 C14.596,16.541 12.133,19.024 9.094,19.024 C7.960,19.024 6.908,18.678 6.032,18.086 L6.759,17.359 C7.442,17.776 8.235,18.029 9.094,18.029 C11.579,18.029 13.594,16.015 13.594,13.529 L13.594,10.524 L14.596,9.521 ZM8.321,22.042 C6.570,22.042 4.961,21.446 3.665,20.453 L4.327,19.792 C5.429,20.559 6.787,21.018 8.262,21.018 L9.925,21.018 C13.600,21.018 16.578,18.203 16.578,14.733 L16.578,12.021 L17.594,12.021 L17.594,14.225 C17.594,18.541 14.134,22.042 9.866,22.042 L9.588,22.042 L9.588,24.029 L11.094,24.029 C11.370,24.029 11.594,24.253 11.594,24.529 C11.594,24.806 11.370,25.029 11.094,25.029 L7.094,25.029 C6.818,25.029 6.594,24.806 6.594,24.529 C6.594,24.253 6.818,24.029 7.094,24.029 L8.599,24.029 L8.599,22.042 L8.321,22.042 Z" class="cls-1"/>
</svg>
