<svg xmlns="http://www.w3.org/2000/svg" xmlns:xlink="http://www.w3.org/1999/xlink" preserveAspectRatio="xMidYMid" width="25" height="25" viewBox="0 0 25 25">
  <defs>
    <style>
      .cls-1 {
        fill: #3c4042;
        fill-rule: evenodd;
      }
    </style>
  </defs>
  <path d="M24.990,0.597 C24.983,0.648 24.966,0.695 24.944,0.742 C24.942,0.746 24.943,0.749 24.941,0.752 L24.920,0.794 C24.913,0.806 24.910,0.819 24.902,0.830 L12.943,24.767 C12.898,24.847 12.830,24.901 12.755,24.942 C12.753,24.943 12.752,24.946 12.750,24.947 C12.743,24.951 12.736,24.950 12.729,24.954 C12.690,24.973 12.651,24.989 12.607,24.996 C12.400,25.044 12.179,24.958 12.067,24.757 L12.036,24.665 C12.028,24.643 12.020,24.622 12.014,24.599 L9.113,15.899 L0.434,12.987 C0.284,12.969 0.143,12.888 0.062,12.741 C-0.074,12.493 0.007,12.177 0.242,12.034 L24.090,0.156 L24.117,0.128 C24.150,0.096 24.197,0.101 24.235,0.079 C24.287,0.048 24.339,0.021 24.400,0.011 C24.459,0.001 24.505,0.003 24.564,0.014 C24.579,0.016 24.594,0.011 24.609,0.015 C24.638,0.021 24.663,0.032 24.690,0.043 C24.707,0.051 24.725,0.051 24.741,0.062 C24.750,0.066 24.755,0.075 24.763,0.081 C24.776,0.089 24.785,0.101 24.797,0.110 C24.809,0.121 24.827,0.116 24.839,0.128 C24.848,0.137 24.844,0.150 24.852,0.159 C24.856,0.163 24.859,0.165 24.863,0.169 C24.878,0.186 24.894,0.202 24.907,0.221 C24.916,0.234 24.929,0.243 24.938,0.258 C24.949,0.279 24.950,0.302 24.959,0.324 C24.970,0.353 24.980,0.381 24.987,0.411 C24.994,0.445 24.996,0.478 24.996,0.513 C24.996,0.541 24.995,0.568 24.990,0.597 ZM12.585,23.193 L22.657,3.031 L10.061,15.628 L12.585,23.193 ZM1.792,12.403 L9.317,14.928 L21.816,2.429 L1.792,12.403 Z" class="cls-1"/>
</svg>
