<svg xmlns="http://www.w3.org/2000/svg" xmlns:xlink="http://www.w3.org/1999/xlink" preserveAspectRatio="xMidYMid" width="25" height="25" viewBox="0 0 25 25">
  <defs>
    <style>
      .cls-1 {
        fill: #3c4042;
        fill-rule: evenodd;
      }
    </style>
  </defs>
  <path d="M12.505,22.000 C12.272,22.000 11.927,22.012 11.625,22.012 C11.488,22.012 11.359,22.009 11.255,22.002 L5.005,25.000 L5.005,19.785 C1.974,17.777 0.005,14.595 0.005,11.000 C0.005,4.925 5.601,-0.001 12.505,-0.001 C19.408,-0.001 25.005,4.925 25.005,11.000 C25.005,17.075 19.408,22.000 12.505,22.000 ZM12.505,0.999 C6.164,0.999 1.005,5.486 1.005,11.000 C1.005,14.137 2.664,17.035 5.557,18.951 L6.005,19.248 L6.005,19.785 L6.005,23.411 L10.823,21.101 L11.061,20.986 L11.325,21.005 C11.395,21.009 11.496,21.012 11.625,21.012 C11.779,21.012 11.945,21.008 12.101,21.006 C12.250,21.003 12.390,21.000 12.505,21.000 C18.846,21.000 24.005,16.514 24.005,11.000 C24.005,5.486 18.846,0.999 12.505,0.999 ZM14.576,10.916 C14.245,11.246 13.982,11.505 13.784,11.692 C13.587,11.879 13.440,12.063 13.344,12.244 C13.248,12.426 13.184,12.646 13.152,12.908 C13.120,13.169 13.099,13.545 13.088,14.036 L12.080,14.036 C12.069,13.545 12.096,13.134 12.160,12.804 C12.224,12.474 12.328,12.174 12.472,11.907 C12.616,11.641 12.808,11.385 13.048,11.140 C13.288,10.894 13.579,10.617 13.920,10.308 C14.219,10.030 14.467,9.721 14.664,9.380 C14.861,9.039 14.960,8.660 14.960,8.243 C14.960,7.924 14.899,7.630 14.776,7.363 C14.653,7.097 14.488,6.870 14.280,6.683 C14.072,6.497 13.829,6.350 13.552,6.243 C13.275,6.137 12.981,6.083 12.672,6.083 C12.245,6.083 11.867,6.159 11.536,6.308 C11.206,6.457 10.933,6.662 10.720,6.924 C10.507,7.185 10.347,7.492 10.240,7.844 C10.133,8.195 10.085,8.580 10.096,8.995 L9.088,8.995 C9.088,8.431 9.168,7.915 9.328,7.451 C9.488,6.987 9.726,6.593 10.040,6.268 C10.355,5.942 10.736,5.689 11.184,5.508 C11.632,5.326 12.144,5.236 12.720,5.236 C13.168,5.236 13.587,5.303 13.976,5.435 C14.366,5.569 14.709,5.763 15.008,6.020 C15.307,6.276 15.542,6.585 15.712,6.947 C15.883,7.310 15.968,7.726 15.968,8.195 C15.968,8.793 15.838,9.299 15.576,9.716 C15.315,10.131 14.981,10.531 14.576,10.916 ZM13.264,16.900 L11.920,16.900 L11.920,15.204 L13.264,15.204 L13.264,16.900 Z" class="cls-1"/>
</svg>
