<svg xmlns="http://www.w3.org/2000/svg" xmlns:xlink="http://www.w3.org/1999/xlink" preserveAspectRatio="xMidYMid" width="25" height="11" viewBox="0 0 25 11">
  <defs>
    <style>
      .cls-1 {
        fill: #3c4042;
        fill-rule: evenodd;
      }
    </style>
  </defs>
  <path d="M23.000,8.999 L22.000,8.999 L22.000,8.999 L22.000,9.426 C22.000,10.295 21.254,10.998 20.333,10.998 L18.666,10.998 C17.746,10.998 17.000,10.295 17.000,9.426 L17.000,5.999 L8.000,5.999 L8.000,9.426 C8.000,10.295 7.254,10.998 6.333,10.998 L4.666,10.998 C3.746,10.998 3.000,10.295 3.000,9.426 L3.000,8.999 L2.000,8.999 C0.895,8.999 -0.000,8.104 -0.000,6.999 L-0.000,3.999 C-0.000,2.894 0.895,1.999 2.000,1.999 L3.000,1.999 L3.000,1.570 C3.000,0.701 3.746,-0.002 4.666,-0.002 L6.333,-0.002 C7.254,-0.002 8.000,0.701 8.000,1.570 L8.000,4.999 L17.000,4.999 L17.000,1.570 C17.000,0.701 17.746,-0.002 18.666,-0.002 L20.333,-0.002 C21.254,-0.002 22.000,0.701 22.000,1.570 L22.000,1.999 L22.000,1.999 L23.000,1.999 C24.104,1.999 25.000,2.894 25.000,3.999 L25.000,6.999 C25.000,8.104 24.104,8.999 23.000,8.999 ZM3.000,2.999 L2.000,2.999 C1.447,2.999 1.000,3.447 1.000,3.999 L1.000,6.999 C1.000,7.552 1.447,7.999 2.000,7.999 L3.000,7.999 L3.000,2.999 ZM7.000,1.999 C7.000,1.447 6.552,0.999 6.000,0.999 L5.000,0.999 C4.447,0.999 4.000,1.447 4.000,1.999 L4.000,8.999 C4.000,9.552 4.447,9.999 5.000,9.999 L6.000,9.999 C6.552,9.999 7.000,9.552 7.000,8.999 L7.000,1.999 ZM21.000,1.999 C21.000,1.447 20.552,0.999 20.000,0.999 L19.000,0.999 C18.447,0.999 18.000,1.447 18.000,1.999 L18.000,8.999 C18.000,9.552 18.447,9.999 19.000,9.999 L20.000,9.999 C20.552,9.999 21.000,9.552 21.000,8.999 L21.000,1.999 ZM24.000,3.999 C24.000,3.447 23.552,2.999 23.000,2.999 L22.000,2.999 L22.000,2.999 L22.000,7.999 L22.000,7.999 L23.000,7.999 C23.552,7.999 24.000,7.552 24.000,6.999 L24.000,3.999 Z" class="cls-1"/>
</svg>
