<svg xmlns="http://www.w3.org/2000/svg" xmlns:xlink="http://www.w3.org/1999/xlink" preserveAspectRatio="xMidYMid" width="23" height="11" viewBox="0 0 23 11">
  <defs>
    <style>
      .cls-1 {
        fill: #3c4042;
        fill-rule: evenodd;
      }
    </style>
  </defs>
  <path d="M22.500,7.999 C22.224,7.999 22.000,7.775 22.000,7.500 L22.000,3.499 C22.000,3.223 22.224,2.999 22.500,2.999 C22.776,2.999 23.000,3.223 23.000,3.499 L23.000,7.500 C23.000,7.775 22.776,7.999 22.500,7.999 ZM19.500,8.999 C19.224,8.999 19.000,8.775 19.000,8.499 L19.000,2.499 C19.000,2.223 19.224,1.999 19.500,1.999 C19.776,1.999 20.000,2.223 20.000,2.499 L20.000,8.499 C20.000,8.775 19.776,8.999 19.500,8.999 ZM16.500,11.000 C16.224,11.000 16.000,10.775 16.000,10.499 L16.000,5.999 L7.000,5.999 L7.000,10.499 C7.000,10.775 6.776,11.000 6.500,11.000 C6.224,11.000 6.000,10.775 6.000,10.499 L6.000,0.499 C6.000,0.223 6.224,-0.001 6.500,-0.001 C6.776,-0.001 7.000,0.223 7.000,0.499 L7.000,4.999 L16.000,4.999 L16.000,0.499 C16.000,0.223 16.224,-0.001 16.500,-0.001 C16.776,-0.001 17.000,0.223 17.000,0.499 L17.000,10.499 C17.000,10.775 16.776,11.000 16.500,11.000 ZM3.500,8.999 C3.224,8.999 3.000,8.775 3.000,8.499 L3.000,2.499 C3.000,2.223 3.224,1.999 3.500,1.999 C3.776,1.999 4.000,2.223 4.000,2.499 L4.000,8.499 C4.000,8.775 3.776,8.999 3.500,8.999 ZM0.500,7.999 C0.224,7.999 -0.000,7.775 -0.000,7.500 L-0.000,3.499 C-0.000,3.223 0.224,2.999 0.500,2.999 C0.776,2.999 1.000,3.223 1.000,3.499 L1.000,7.500 C1.000,7.775 0.776,7.999 0.500,7.999 Z" class="cls-1"/>
</svg>
