<svg xmlns="http://www.w3.org/2000/svg" xmlns:xlink="http://www.w3.org/1999/xlink" preserveAspectRatio="xMidYMid" width="22" height="23" viewBox="0 0 22 23">
  <defs>
    <style>
      .cls-1 {
        fill: #3c4042;
        fill-rule: evenodd;
      }
    </style>
  </defs>
  <path d="M18.000,12.000 C17.949,12.000 17.903,11.987 17.853,11.985 C17.939,12.311 18.000,12.646 18.000,13.000 C18.000,15.065 16.430,16.744 14.422,16.957 C14.781,17.557 15.000,18.250 15.000,19.000 C15.000,21.209 13.209,23.000 11.000,23.000 C8.791,23.000 7.000,21.209 7.000,19.000 C7.000,18.250 7.219,17.557 7.578,16.957 C5.570,16.744 4.000,15.065 4.000,13.000 C4.000,12.646 4.061,12.311 4.147,11.985 C4.097,11.987 4.050,12.000 4.000,12.000 C1.791,12.000 -0.000,10.209 -0.000,8.000 C-0.000,5.791 1.791,4.000 4.000,4.000 C5.339,4.000 6.517,4.663 7.243,5.673 C7.792,4.120 9.258,3.000 11.000,3.000 L11.000,1.002 L8.500,1.002 C8.224,1.002 8.000,0.778 8.000,0.502 C8.000,0.225 8.224,0.001 8.500,0.001 L11.494,0.001 C11.496,0.001 11.498,-0.001 11.500,-0.001 C11.502,-0.001 11.504,0.001 11.506,0.001 L14.500,0.001 C14.776,0.001 15.000,0.225 15.000,0.502 C15.000,0.778 14.776,1.002 14.500,1.002 L12.000,1.002 L12.000,3.141 C13.287,3.475 14.325,4.425 14.767,5.661 C15.494,4.658 16.667,4.000 18.000,4.000 C20.209,4.000 22.000,5.791 22.000,8.000 C22.000,10.209 20.209,12.000 18.000,12.000 ZM11.000,21.999 C12.657,21.999 14.000,20.656 14.000,18.999 C14.000,17.343 12.657,16.000 11.000,16.000 C9.343,16.000 8.000,17.343 8.000,18.999 C8.000,20.656 9.343,21.999 11.000,21.999 ZM4.000,5.000 C2.343,5.000 1.000,6.343 1.000,7.999 C1.000,9.657 2.343,10.999 4.000,10.999 C5.657,10.999 7.000,9.657 7.000,7.999 C7.000,6.343 5.657,5.000 4.000,5.000 ZM5.266,11.776 C5.098,12.150 5.000,12.562 5.000,13.000 C5.000,14.656 6.343,15.999 8.000,15.999 C8.148,15.999 8.290,15.976 8.433,15.956 C8.920,15.545 9.496,15.239 10.140,15.097 C10.671,14.556 11.000,13.817 11.000,13.000 C11.000,12.182 10.671,11.443 10.141,10.902 C9.496,10.761 8.919,10.454 8.431,10.043 C8.289,10.022 8.148,9.999 8.000,9.999 C7.799,9.999 7.603,10.021 7.413,10.059 C6.927,10.862 6.171,11.472 5.266,11.776 ZM11.000,3.999 C9.343,3.999 8.000,5.343 8.000,7.000 C8.000,8.656 9.343,9.999 11.000,9.999 C12.657,9.999 14.000,8.656 14.000,7.000 C14.000,5.343 12.657,3.999 11.000,3.999 ZM14.586,10.059 C14.397,10.021 14.201,9.999 14.000,9.999 C13.846,9.999 13.702,10.032 13.555,10.054 C13.082,10.450 12.524,10.745 11.902,10.889 C11.789,11.002 11.672,11.113 11.577,11.243 C11.839,11.775 12.000,12.367 12.000,13.000 C12.000,13.633 11.839,14.224 11.578,14.756 C11.672,14.886 11.789,14.997 11.903,15.111 C12.524,15.255 13.081,15.549 13.553,15.944 C13.701,15.967 13.846,15.999 14.000,15.999 C15.657,15.999 17.000,14.656 17.000,13.000 C17.000,12.562 16.902,12.150 16.734,11.776 C15.828,11.472 15.072,10.862 14.586,10.059 ZM18.000,5.000 C16.343,5.000 15.000,6.343 15.000,7.999 C15.000,9.657 16.343,10.999 18.000,10.999 C19.657,10.999 21.000,9.657 21.000,7.999 C21.000,6.343 19.657,5.000 18.000,5.000 Z" class="cls-1"/>
</svg>
