<svg xmlns="http://www.w3.org/2000/svg" xmlns:xlink="http://www.w3.org/1999/xlink" preserveAspectRatio="xMidYMid" width="22" height="22" viewBox="0 0 22 22">
  <defs>
    <style>
      .cls-1 {
        fill: #3c4042;
        fill-rule: evenodd;
      }
    </style>
  </defs>
  <path d="M21.343,18.144 L21.239,18.039 C19.001,20.473 15.816,22.013 12.259,22.013 C5.490,22.013 0.003,16.494 0.003,9.687 C0.003,5.755 1.841,2.260 4.693,0.004 L5.392,0.707 C5.392,0.708 5.391,0.708 5.391,0.708 L12.944,8.303 L12.944,8.303 L13.637,9.000 L13.637,9.001 L15.485,10.859 L15.485,10.859 L15.485,10.859 L21.188,16.593 C21.188,16.593 21.188,16.593 21.189,16.592 L21.888,17.296 C21.888,17.296 21.888,17.297 21.887,17.297 L22.002,17.413 C21.794,17.667 21.570,17.907 21.343,18.144 ZM15.489,12.257 L15.504,18.301 L14.579,18.299 L14.561,11.324 L12.944,9.698 L7.408,15.264 L6.715,14.567 L12.251,9.001 L10.630,7.371 L4.480,8.168 L4.332,7.216 L9.774,6.510 L4.647,1.354 C2.403,3.425 0.983,6.383 0.983,9.687 C0.983,15.950 6.031,21.027 12.259,21.027 C15.545,21.027 18.486,19.599 20.546,17.342 L15.489,12.257 Z" class="cls-1"/>
</svg>
