<svg xmlns="http://www.w3.org/2000/svg" xmlns:xlink="http://www.w3.org/1999/xlink" preserveAspectRatio="xMidYMid" width="21" height="25" viewBox="0 0 21 25">
  <defs>
    <style>
      .cls-1 {
        fill: #3c4042;
        fill-rule: evenodd;
      }
    </style>
  </defs>
  <path d="M20.767,11.998 L19.724,11.998 C19.892,11.526 20.000,11.026 20.000,10.498 C20.000,8.013 17.985,5.998 15.500,5.998 C13.015,5.998 11.000,8.013 11.000,10.498 C11.000,11.026 11.108,11.526 11.275,11.998 L9.724,11.998 C9.892,11.526 10.000,11.026 10.000,10.498 C10.000,8.013 7.985,5.998 5.500,5.998 C3.014,5.998 1.000,8.013 1.000,10.498 C1.000,11.026 1.108,11.526 1.275,11.998 L0.233,11.998 C0.096,11.518 -0.000,11.021 -0.000,10.498 C-0.000,7.598 2.251,5.248 5.096,5.039 C5.558,2.183 8.015,-0.001 11.000,-0.001 C14.042,-0.001 16.529,2.270 16.920,5.207 C19.265,5.836 21.000,7.955 21.000,10.498 C21.000,11.021 20.903,11.518 20.767,11.998 ZM11.000,0.998 C8.560,0.998 6.535,2.747 6.095,5.058 C8.062,5.272 9.706,6.520 10.494,8.243 C11.356,6.333 13.268,4.998 15.500,4.998 C15.638,4.998 15.767,5.029 15.903,5.039 C15.455,2.737 13.432,0.998 11.000,0.998 ZM11.308,24.998 L-0.000,12.998 L21.000,12.998 L11.308,24.998 ZM11.326,22.997 L19.000,13.999 L2.000,13.999 L11.326,22.997 Z" class="cls-1"/>
</svg>
