<svg xmlns="http://www.w3.org/2000/svg" xmlns:xlink="http://www.w3.org/1999/xlink" preserveAspectRatio="xMidYMid" width="25" height="23.25" viewBox="0 0 25 23.25">
  <defs>
    <style>
      .cls-1 {
        fill: #3c4042;
        fill-rule: evenodd;
      }
    </style>
  </defs>
  <path d="M25.000,9.499 C25.000,9.601 24.969,9.695 24.917,9.774 C24.434,14.530 21.293,18.499 17.000,20.161 L17.000,23.250 L8.000,23.250 L8.000,20.161 C3.706,18.499 0.565,14.530 0.083,9.774 C0.031,9.695 -0.000,9.601 -0.000,9.499 C-0.000,9.426 0.016,9.358 0.044,9.295 C0.038,9.196 0.029,9.098 0.025,8.999 L0.500,8.999 L1.025,8.999 L23.975,8.999 L24.500,8.999 L24.975,8.999 C24.971,9.098 24.962,9.196 24.956,9.295 C24.984,9.358 25.000,9.426 25.000,9.499 ZM16.000,22.247 L16.000,19.998 L9.000,19.998 L9.000,22.247 L16.000,22.247 ZM1.114,9.999 C1.648,14.096 4.333,17.514 8.000,19.079 L8.000,18.998 L17.000,18.998 L17.000,19.079 C20.667,17.514 23.351,14.096 23.886,9.999 L1.114,9.999 ZM17.798,6.997 L16.208,6.997 L22.158,2.102 C22.375,1.924 22.700,1.949 22.886,2.157 C23.071,2.366 23.045,2.679 22.828,2.858 L17.798,6.997 ZM14.275,6.997 L13.148,6.997 L17.088,0.263 C17.226,0.027 17.522,-0.048 17.749,0.095 C17.976,0.238 18.049,0.546 17.911,0.782 L14.275,6.997 Z" class="cls-1"/>
</svg>
