<svg xmlns="http://www.w3.org/2000/svg" xmlns:xlink="http://www.w3.org/1999/xlink" preserveAspectRatio="xMidYMid" width="13" height="25" viewBox="0 0 13 25">
  <defs>
    <style>
      .cls-1 {
        fill: #3c4042;
        fill-rule: evenodd;
      }
    </style>
  </defs>
  <path d="M9.889,18.997 L9.000,18.997 L9.000,22.999 C9.000,24.104 8.104,24.999 7.000,24.999 L6.000,24.999 C4.895,24.999 4.000,24.104 4.000,22.999 L4.000,18.997 L3.111,18.997 C1.393,18.997 -0.000,17.580 -0.000,15.831 L-0.000,3.165 C-0.000,3.165 -0.000,3.165 -0.000,3.164 L-0.000,5.998 C-0.000,2.683 1.563,-0.001 5.000,-0.001 L7.000,-0.001 C10.436,-0.001 13.000,2.683 13.000,5.998 L13.000,8.998 L13.000,15.831 C13.000,17.580 11.607,18.997 9.889,18.997 ZM5.000,22.499 C5.000,23.328 5.671,23.999 6.500,23.999 C7.328,23.999 8.000,23.328 8.000,22.499 L8.000,18.997 L5.000,18.997 L5.000,22.499 ZM12.000,5.999 C12.000,3.514 9.577,0.999 7.000,0.999 L5.000,0.999 C2.422,0.999 1.000,3.514 1.000,5.999 L1.000,8.999 L1.000,8.999 L1.000,16.298 C1.000,17.236 1.767,17.998 2.714,17.998 L10.285,17.998 C11.232,17.998 12.000,17.236 12.000,16.298 L12.000,8.998 L12.000,8.998 L12.000,5.999 Z" class="cls-1"/>
</svg>
