<svg xmlns="http://www.w3.org/2000/svg" xmlns:xlink="http://www.w3.org/1999/xlink" preserveAspectRatio="xMidYMid" width="23" height="23" viewBox="0 0 23 23">
  <defs>
    <style>
      .cls-1 {
        fill: #3c4042;
        fill-rule: evenodd;
      }
    </style>
  </defs>
  <path d="M23.000,7.998 C23.000,13.912 18.117,18.722 12.000,18.974 L12.000,21.998 L15.000,21.998 L15.000,22.999 L8.000,22.999 L8.000,21.998 L11.000,21.998 L11.000,18.974 C4.882,18.722 0.000,13.912 -0.000,7.998 L-0.000,7.998 L-0.000,6.998 L0.053,6.998 L0.053,6.998 L1.050,6.998 C1.302,4.752 3.186,2.999 5.500,2.999 C6.092,2.999 6.655,3.120 7.173,3.329 C7.691,1.414 9.422,-0.001 11.500,-0.001 C13.577,-0.001 15.309,1.414 15.827,3.329 C16.345,3.120 16.907,2.999 17.500,2.999 C19.814,2.999 21.697,4.752 21.949,6.998 L22.947,6.998 L22.947,6.998 L23.000,6.998 L23.000,7.998 L23.000,7.998 ZM11.000,17.974 L12.000,17.974 C17.565,17.724 22.000,13.360 22.000,7.998 L1.000,7.998 C1.000,13.360 5.435,17.724 11.000,17.974 ZM5.500,3.998 C3.738,3.998 2.295,5.305 2.050,6.998 L8.949,6.998 C8.705,5.305 7.261,3.998 5.500,3.998 ZM11.500,0.999 C9.802,0.999 8.389,2.208 8.069,3.811 C9.102,4.533 9.788,5.683 9.937,6.998 L13.062,6.998 C13.212,5.683 13.897,4.533 14.931,3.811 C14.611,2.208 13.197,0.999 11.500,0.999 ZM17.500,3.998 C15.738,3.998 14.295,5.305 14.050,6.998 L20.949,6.998 C20.705,5.305 19.261,3.998 17.500,3.998 Z" class="cls-1"/>
</svg>
