<svg xmlns="http://www.w3.org/2000/svg" xmlns:xlink="http://www.w3.org/1999/xlink" preserveAspectRatio="xMidYMid" width="21.876" height="24.875" viewBox="0 0 21.876 24.875">
  <defs>
    <style>
      .cls-1 {
        fill: #3c4042;
        fill-rule: evenodd;
      }
    </style>
  </defs>
  <path d="M15.625,24.874 C12.500,24.874 12.500,23.355 10.938,23.355 C9.375,23.355 9.375,24.874 6.250,24.874 C2.884,24.874 0.000,15.826 0.000,12.374 C0.000,8.922 2.729,6.124 6.096,6.124 C8.182,6.124 9.670,7.687 10.938,7.687 C12.205,7.687 13.694,6.124 15.781,6.124 C19.146,6.124 21.875,8.922 21.875,12.374 C21.875,15.826 18.991,24.874 15.625,24.874 ZM15.781,7.124 C14.844,7.124 14.014,7.541 13.210,7.944 C12.449,8.326 11.730,8.687 10.938,8.687 C10.146,8.687 9.427,8.326 8.665,7.944 C7.862,7.541 7.031,7.124 6.096,7.124 C3.286,7.124 1.000,9.479 1.000,12.374 C1.000,16.077 3.942,23.874 6.250,23.874 C7.770,23.874 8.320,23.497 8.901,23.097 C9.382,22.767 9.980,22.355 10.938,22.355 C11.896,22.355 12.494,22.767 12.975,23.097 C13.556,23.497 14.105,23.874 15.625,23.874 C17.934,23.874 20.875,16.077 20.875,12.374 C20.875,9.479 18.590,7.124 15.781,7.124 ZM12.329,3.426 C11.669,4.542 11.682,5.645 11.682,5.645 C11.498,6.008 11.090,6.132 10.771,5.924 C10.452,5.713 10.343,5.249 10.527,4.886 C10.527,4.886 10.530,3.755 11.198,2.627 C11.863,1.502 13.194,0.381 13.194,0.381 C13.378,0.019 13.785,-0.106 14.105,0.103 C14.423,0.313 14.533,0.777 14.348,1.141 C14.348,1.141 13.002,2.288 12.329,3.426 Z" class="cls-1"/>
</svg>
