<svg xmlns="http://www.w3.org/2000/svg" xmlns:xlink="http://www.w3.org/1999/xlink" preserveAspectRatio="xMidYMid" width="24.969" height="21" viewBox="0 0 24.969 21">
  <defs>
    <style>
      .cls-1 {
        fill: #3c4042;
        fill-rule: evenodd;
      }
    </style>
  </defs>
  <path d="M16.156,20.817 C15.946,20.923 15.716,20.998 15.461,20.998 L12.475,20.998 C12.474,20.998 12.471,20.998 12.469,20.998 L9.477,20.998 C9.220,20.998 8.991,20.922 8.780,20.815 C-0.790,19.866 0.011,15.270 0.011,15.270 C0.011,6.836 3.295,-0.002 12.469,-0.002 C21.642,-0.002 24.927,6.836 24.927,15.270 C24.927,15.270 25.729,19.869 16.156,20.817 ZM8.955,19.165 C8.955,19.625 9.348,19.998 9.834,19.998 L15.104,19.998 C15.589,19.998 15.983,19.625 15.983,19.165 L15.983,15.832 C15.983,15.371 15.589,14.998 15.104,14.998 L9.834,14.998 C9.348,14.998 8.955,15.371 8.955,15.832 L8.955,19.165 ZM23.951,15.673 L23.951,15.536 C23.951,8.904 21.959,0.998 12.469,0.998 C2.979,0.998 0.987,8.904 0.987,15.536 L0.987,15.725 L0.968,15.788 C0.961,15.940 0.973,16.624 1.681,17.381 C2.376,18.123 4.061,19.246 8.013,19.744 C8.007,19.694 7.981,19.650 7.981,19.598 L7.981,15.398 C7.981,14.625 8.651,13.998 9.477,13.998 L15.461,13.998 C16.287,13.998 16.956,14.625 16.956,15.398 L16.956,19.598 C16.956,19.650 16.931,19.694 16.925,19.746 C20.984,19.236 22.663,18.066 23.338,17.295 C24.021,16.511 23.977,15.814 23.975,15.808 L23.951,15.673 Z" class="cls-1"/>
</svg>
