<svg xmlns="http://www.w3.org/2000/svg" xmlns:xlink="http://www.w3.org/1999/xlink" preserveAspectRatio="xMidYMid" width="25" height="24" viewBox="0 0 25 24">
  <defs>
    <style>
      .cls-1 {
        fill: #3c4042;
        fill-rule: evenodd;
      }
    </style>
  </defs>
  <path d="M23.527,18.980 L22.357,22.398 C22.357,23.282 21.621,23.998 20.714,23.998 L4.286,23.998 C3.378,23.998 2.643,23.282 2.643,22.398 L1.473,18.980 C0.654,18.933 -0.000,18.295 -0.000,17.498 L-0.000,14.498 C-0.000,13.670 0.699,12.997 1.562,12.997 L2.182,12.997 C2.067,12.348 2.000,11.681 2.000,10.997 C2.000,4.922 6.701,-0.003 12.500,-0.003 C18.299,-0.003 23.000,4.922 23.000,10.997 C23.000,11.681 22.932,12.348 22.818,12.997 L23.437,12.997 C24.300,12.997 25.000,13.670 25.000,14.498 L25.000,17.498 C25.000,18.295 24.346,18.933 23.527,18.980 ZM3.750,21.998 C3.750,22.550 4.141,22.998 4.625,22.998 L20.375,22.998 C20.858,22.998 21.250,22.550 21.250,21.998 L22.562,18.997 L2.437,18.997 L3.750,21.998 ZM12.500,0.997 C7.253,0.997 3.000,5.475 3.000,10.997 C3.000,11.683 3.070,12.351 3.195,12.997 L21.804,12.997 C21.930,12.351 22.000,11.683 22.000,10.997 C22.000,5.475 17.746,0.997 12.500,0.997 ZM24.000,14.998 C24.000,14.445 23.632,13.998 23.178,13.998 L1.821,13.998 C1.367,13.998 1.000,14.445 1.000,14.998 L1.000,16.997 C1.000,17.550 1.367,17.998 1.821,17.998 L23.178,17.998 C23.632,17.998 24.000,17.550 24.000,16.997 L24.000,14.998 Z" class="cls-1"/>
</svg>
