<svg xmlns="http://www.w3.org/2000/svg" xmlns:xlink="http://www.w3.org/1999/xlink" preserveAspectRatio="xMidYMid" width="25" height="18" viewBox="0 0 25 18">
  <defs>
    <style>
      .cls-1 {
        fill: #3c4042;
        fill-rule: evenodd;
      }
    </style>
  </defs>
  <path d="M24.975,4.998 C24.981,5.165 25.000,5.329 25.000,5.497 C25.000,12.401 19.403,17.997 12.500,17.997 C5.596,17.997 -0.000,12.401 -0.000,5.497 C-0.000,5.329 0.018,5.165 0.025,4.998 L0.081,4.998 C0.031,4.834 -0.000,4.667 -0.000,4.498 C-0.000,2.013 5.596,-0.003 12.500,-0.003 C19.403,-0.003 25.000,2.013 25.000,4.498 C25.000,4.667 24.969,4.834 24.918,4.998 L24.975,4.998 ZM12.500,16.998 C18.583,16.998 23.549,12.271 23.960,6.293 C22.033,7.884 17.630,8.997 12.500,8.997 C7.370,8.997 2.966,7.884 1.040,6.293 C1.450,12.271 6.417,16.998 12.500,16.998 ZM12.500,0.997 C6.148,0.997 1.000,2.564 1.000,4.498 C1.000,6.430 6.148,7.998 12.500,7.998 C18.851,7.998 24.000,6.430 24.000,4.498 C24.000,2.564 18.851,0.997 12.500,0.997 Z" class="cls-1"/>
</svg>
