<svg xmlns="http://www.w3.org/2000/svg" xmlns:xlink="http://www.w3.org/1999/xlink" preserveAspectRatio="xMidYMid" width="25" height="25" viewBox="0 0 25 25">
  <defs>
    <style>
      .cls-1 {
        fill: #3c4042;
        fill-rule: evenodd;
      }
    </style>
  </defs>
  <path d="M23.437,24.997 L1.562,24.997 C0.699,24.997 -0.000,24.301 -0.000,23.441 L-0.000,17.998 L-0.000,16.998 L-0.000,13.998 L-0.000,12.998 L-0.000,12.552 C-0.000,12.355 0.045,12.170 0.112,11.997 L0.025,11.997 C0.289,5.327 5.765,-0.002 12.500,-0.002 C19.234,-0.002 24.710,5.327 24.974,11.997 L24.887,11.997 C24.954,12.170 25.000,12.355 25.000,12.552 L25.000,12.998 L25.000,13.998 L25.000,16.998 L25.000,17.998 L25.000,23.441 C25.000,24.301 24.300,24.997 23.437,24.997 ZM1.000,23.185 C1.000,23.633 1.367,23.996 1.821,23.996 L23.178,23.996 C23.632,23.996 24.000,23.633 24.000,23.185 L24.000,17.998 L1.000,17.998 L1.000,23.185 ZM1.000,16.998 L24.000,16.998 L24.000,13.998 L1.000,13.998 L1.000,16.998 ZM24.000,11.000 L23.876,11.000 C23.140,5.359 18.341,0.997 12.500,0.997 C6.658,0.997 1.859,5.359 1.124,11.000 L1.000,11.000 L1.000,11.809 C1.000,11.809 1.000,11.809 1.000,11.809 L1.000,12.998 L1.000,12.998 L1.000,12.999 L24.000,12.999 L24.000,11.000 ZM23.178,10.997 L23.437,10.997 C23.441,10.997 23.444,10.999 23.447,11.000 L23.188,11.000 C23.185,10.999 23.182,10.997 23.178,10.997 ZM1.552,11.000 C1.556,10.999 1.559,10.997 1.562,10.997 L1.821,10.997 C1.817,10.997 1.815,10.999 1.811,11.000 L1.552,11.000 Z" class="cls-1"/>
</svg>
