<svg xmlns="http://www.w3.org/2000/svg" xmlns:xlink="http://www.w3.org/1999/xlink" preserveAspectRatio="xMidYMid" width="25" height="25" viewBox="0 0 25 25">
  <defs>
    <style>
      .cls-1 {
        fill: #3c4042;
        fill-rule: evenodd;
      }
    </style>
  </defs>
  <path d="M19.000,22.997 C15.686,22.997 13.000,20.311 13.000,16.998 C13.000,14.316 14.769,12.073 17.195,11.304 C16.634,10.720 15.841,9.709 15.000,7.999 C14.142,6.255 12.993,3.468 12.397,1.993 C11.509,3.468 9.858,6.255 9.000,7.999 C7.957,10.118 7.424,12.045 7.179,13.116 C9.928,13.665 12.000,16.087 12.000,18.997 C12.000,22.311 9.313,24.998 6.000,24.998 C2.686,24.998 -0.000,22.311 -0.000,18.997 C-0.000,15.683 2.686,12.998 6.000,12.998 C6.069,12.998 6.133,13.015 6.202,13.018 C6.461,11.909 7.000,9.999 8.000,7.999 C9.000,5.999 12.000,1.000 12.000,1.000 L8.500,1.000 C8.224,1.000 8.000,0.775 8.000,0.499 C8.000,0.223 8.224,-0.001 8.500,-0.001 L16.500,-0.001 C16.776,-0.001 17.000,0.223 17.000,0.499 C17.000,0.775 16.776,1.000 16.500,1.000 L13.000,1.000 C13.000,1.000 14.793,5.796 16.000,7.999 C16.812,9.482 17.545,10.466 18.085,11.089 C18.385,11.043 18.686,10.997 19.000,10.997 C22.313,10.997 25.000,13.684 25.000,16.998 C25.000,20.311 22.313,22.997 19.000,22.997 ZM6.019,13.999 L6.000,13.999 L6.000,13.997 C6.000,13.997 6.000,13.997 6.000,13.997 C3.238,13.997 1.000,16.236 1.000,18.997 C1.000,21.758 3.238,23.997 6.000,23.997 C8.761,23.997 11.000,21.758 11.000,18.997 C11.000,16.243 8.772,14.010 6.019,13.999 ZM19.000,11.997 C18.999,11.997 18.998,11.997 18.998,11.997 L19.000,11.999 L18.980,11.999 C16.228,12.010 14.000,14.242 14.000,16.998 C14.000,19.759 16.238,21.997 19.000,21.997 C21.761,21.997 24.000,19.759 24.000,16.998 C24.000,14.235 21.761,11.997 19.000,11.997 Z" class="cls-1"/>
</svg>
