<svg xmlns="http://www.w3.org/2000/svg" xmlns:xlink="http://www.w3.org/1999/xlink" preserveAspectRatio="xMidYMid" width="21.938" height="22.031" viewBox="0 0 21.938 22.031">
  <defs>
    <style>
      .cls-1 {
        fill: #3c4042;
        fill-rule: evenodd;
      }
    </style>
  </defs>
  <path d="M19.875,9.892 C17.657,12.105 14.369,13.355 11.963,13.153 L12.178,13.370 L8.640,16.903 C8.641,16.904 8.642,16.905 8.643,16.906 C9.823,18.077 9.828,19.970 8.655,21.135 C7.481,22.301 5.573,22.296 4.393,21.125 C3.655,20.392 3.377,19.376 3.560,18.433 C2.610,18.618 1.589,18.345 0.853,17.611 C-0.321,16.439 -0.321,14.540 0.853,13.370 C2.023,12.201 3.919,12.199 5.094,13.362 L8.634,9.827 L8.781,9.974 C8.594,7.592 9.863,4.351 12.079,2.139 C15.155,-0.929 18.314,-0.296 20.284,1.670 C22.254,3.636 22.951,6.824 19.875,9.892 ZM8.961,10.918 L5.803,14.072 L5.799,14.068 L4.909,14.955 C4.686,14.101 3.915,13.469 2.989,13.469 C1.887,13.471 0.993,14.363 0.991,15.462 C0.989,16.561 1.882,17.451 2.983,17.450 C3.149,17.450 3.307,17.424 3.461,17.386 L4.590,18.513 C4.550,18.670 4.522,18.831 4.522,18.999 C4.522,20.098 5.414,20.988 6.515,20.987 C7.615,20.987 8.508,20.096 8.509,18.998 C8.509,18.080 7.884,17.317 7.037,17.087 L7.931,16.197 L7.929,16.195 L11.129,12.999 C10.563,12.848 10.049,12.627 9.675,12.254 C9.326,11.905 9.113,11.433 8.961,10.918 ZM19.579,2.379 C17.968,0.768 15.607,0.031 12.883,2.751 C10.159,5.473 8.781,9.947 10.392,11.558 C12.004,13.169 16.523,11.838 19.247,9.116 C21.971,6.395 21.190,3.990 19.579,2.379 Z" class="cls-1"/>
</svg>
