<svg xmlns="http://www.w3.org/2000/svg" xmlns:xlink="http://www.w3.org/1999/xlink" preserveAspectRatio="xMidYMid" width="13" height="25" viewBox="0 0 13 25">
  <defs>
    <style>
      .cls-1 {
        fill: #3c4042;
        fill-rule: evenodd;
      }
    </style>
  </defs>
  <path d="M10.111,18.998 L9.000,18.998 L9.000,22.999 C9.000,24.104 8.104,24.999 7.000,24.999 L6.000,24.999 C4.895,24.999 4.000,24.104 4.000,22.999 L4.000,18.998 L2.889,18.998 C1.293,18.998 -0.000,17.581 -0.000,15.832 L-0.000,3.165 C-0.000,1.415 1.293,-0.002 2.889,-0.002 L10.111,-0.002 C11.706,-0.002 13.000,1.415 13.000,3.165 L13.000,15.832 C13.000,17.581 11.706,18.998 10.111,18.998 ZM5.000,22.499 C5.000,23.328 5.671,23.999 6.500,23.999 C7.328,23.999 8.000,23.328 8.000,22.499 L8.000,18.998 L5.000,18.998 L5.000,22.499 ZM12.000,2.698 C12.000,1.759 11.296,0.998 10.428,0.998 L2.571,0.998 C1.703,0.998 1.000,1.759 1.000,2.698 L1.000,16.299 C1.000,17.236 1.703,17.998 2.571,17.998 L10.428,17.998 C11.296,17.998 12.000,17.236 12.000,16.299 L12.000,2.698 Z" class="cls-1"/>
</svg>
