<svg xmlns="http://www.w3.org/2000/svg" xmlns:xlink="http://www.w3.org/1999/xlink" preserveAspectRatio="xMidYMid" width="19" height="17" viewBox="0 0 19 17">
  <defs>
    <style>
      .cls-1 {
        fill: #3c4042;
        fill-rule: evenodd;
      }
    </style>
  </defs>
  <path d="M11.800,16.900 C11.626,16.958 11.443,16.997 11.250,16.997 L9.560,16.997 C9.541,16.997 9.525,16.998 9.505,16.998 C9.504,16.998 9.501,16.998 9.500,16.998 C9.480,16.998 9.464,16.997 9.445,16.997 L7.750,16.997 C7.555,16.997 7.371,16.958 7.196,16.899 C-0.649,16.254 -0.007,12.362 -0.007,12.362 C-0.007,5.534 2.499,-0.001 9.500,-0.001 C16.500,-0.001 19.007,5.534 19.007,12.362 C19.007,12.362 19.649,16.258 11.800,16.900 ZM7.000,16.000 L12.000,16.000 L12.000,11.000 L7.000,11.000 L7.000,16.000 ZM17.978,12.665 C17.978,4.924 15.125,0.998 9.500,0.998 C3.874,0.998 1.022,4.924 1.022,12.665 L1.022,12.872 L1.006,12.917 C1.006,13.063 1.048,13.526 1.538,14.046 C2.051,14.593 3.273,15.415 6.096,15.794 C6.038,15.621 6.000,15.439 6.000,15.246 L6.000,11.747 C6.000,10.780 6.783,9.997 7.750,9.997 L11.250,9.997 C12.216,9.997 13.000,10.780 13.000,11.747 L13.000,15.246 C13.000,15.439 12.961,15.621 12.903,15.795 C15.727,15.417 16.949,14.594 17.462,14.048 C17.961,13.518 17.995,13.046 17.993,12.910 L17.950,12.739 L17.978,12.665 Z" class="cls-1"/>
</svg>
