<svg xmlns="http://www.w3.org/2000/svg" xmlns:xlink="http://www.w3.org/1999/xlink" preserveAspectRatio="xMidYMid" width="25" height="23" viewBox="0 0 25 23">
  <defs>
    <style>
      .cls-1 {
        fill: #3c4042;
        fill-rule: evenodd;
      }
    </style>
  </defs>
  <path d="M25.000,11.499 C25.000,11.603 24.960,11.695 24.906,11.775 C24.264,18.076 18.970,22.999 12.500,22.999 C6.030,22.999 0.736,18.076 0.094,11.775 C0.039,11.695 -0.000,11.603 -0.000,11.499 C-0.000,11.422 0.020,11.352 0.051,11.287 C0.045,11.190 0.029,11.096 0.025,10.999 L0.500,10.999 L1.025,10.999 L23.975,10.999 L24.500,10.999 L24.975,10.999 C24.971,11.096 24.955,11.190 24.949,11.287 C24.980,11.352 25.000,11.422 25.000,11.499 ZM12.500,21.999 C16.858,21.999 20.635,19.567 22.581,15.992 L2.419,15.992 C4.365,19.567 8.141,21.999 12.500,21.999 ZM1.117,11.999 C1.262,13.107 1.564,14.163 2.000,15.149 L2.000,14.991 L23.000,14.991 L23.000,15.150 C23.436,14.164 23.738,13.107 23.882,11.999 L1.117,11.999 ZM15.350,9.010 L13.761,9.010 L22.158,2.102 C22.375,1.924 22.700,1.948 22.886,2.158 C23.071,2.366 23.045,2.679 22.828,2.858 L15.350,9.010 ZM13.097,9.010 L11.971,9.010 L17.088,0.263 C17.226,0.026 17.522,-0.048 17.749,0.095 C17.976,0.239 18.049,0.546 17.910,0.782 L13.097,9.010 Z" class="cls-1"/>
</svg>
