<svg xmlns="http://www.w3.org/2000/svg" xmlns:xlink="http://www.w3.org/1999/xlink" preserveAspectRatio="xMidYMid" width="21" height="23" viewBox="0 0 21 23">
  <defs>
    <style>
      .cls-1 {
        fill: #3c4042;
        fill-rule: evenodd;
      }
    </style>
  </defs>
  <path d="M18.000,8.847 L18.000,20.612 C18.000,21.931 16.992,22.999 15.750,22.999 L5.250,22.999 C4.007,22.999 3.000,21.931 3.000,20.612 L3.000,8.843 C1.256,8.477 -0.000,7.383 -0.000,5.070 C-0.000,2.132 2.000,-0.001 4.000,-0.001 L4.000,-0.002 L17.000,-0.002 L17.000,-0.001 C17.000,-0.001 17.000,-0.001 17.000,-0.001 C19.000,-0.001 21.000,2.158 21.000,5.096 C21.000,7.408 19.743,8.488 18.000,8.847 ZM16.000,0.998 C15.858,0.998 15.725,1.026 15.587,1.041 C15.514,1.032 15.450,0.998 15.375,0.998 L5.625,0.998 C5.549,0.998 5.485,1.032 5.412,1.041 C5.275,1.026 5.141,0.998 5.000,0.998 C2.791,0.998 1.000,2.678 1.000,4.963 C1.000,6.888 2.278,7.716 4.000,7.932 L4.000,20.383 C4.000,21.275 4.727,21.998 5.625,21.998 L15.375,21.998 C16.272,21.998 17.000,21.275 17.000,20.383 L17.000,7.932 C18.722,7.717 20.000,6.888 20.000,4.963 C20.000,2.678 18.209,0.998 16.000,0.998 Z" class="cls-1"/>
</svg>
