<svg xmlns="http://www.w3.org/2000/svg" xmlns:xlink="http://www.w3.org/1999/xlink" preserveAspectRatio="xMidYMid" width="22" height="22" viewBox="0 0 22 22">
  <defs>
    <style>
      .cls-1 {
        fill: #3c4042;
        fill-rule: evenodd;
      }
    </style>
  </defs>
  <path d="M15.002,21.997 L13.995,21.997 L8.004,21.997 L6.997,21.997 L-0.000,21.997 L-0.000,15.000 L-0.000,13.995 L-0.000,8.002 L-0.000,6.996 L-0.000,-0.002 L8.004,-0.002 L8.004,6.995 L15.002,6.995 L15.002,13.993 L22.000,13.993 L22.000,21.997 L15.002,21.997 ZM6.997,1.005 L1.007,1.005 L1.007,6.996 L6.997,6.996 L6.997,1.005 ZM6.997,8.002 L1.007,8.002 L1.007,13.995 L6.997,13.995 L6.997,8.002 ZM6.997,15.000 L1.007,15.000 L1.007,20.990 L6.997,20.990 L6.997,15.000 ZM13.993,8.003 L8.006,8.003 L8.006,13.992 L13.993,13.992 L13.993,8.003 ZM13.993,15.000 L8.006,15.000 L8.006,20.987 L13.993,20.987 L13.993,15.000 ZM20.992,15.000 L15.002,15.000 L15.002,20.987 L20.992,20.987 L20.992,15.000 Z" class="cls-1"/>
</svg>
