<svg xmlns="http://www.w3.org/2000/svg" xmlns:xlink="http://www.w3.org/1999/xlink" preserveAspectRatio="xMidYMid" width="25" height="25" viewBox="0 0 25 25">
  <defs>
    <style>
      .cls-1 {
        fill: #3c4042;
        fill-rule: evenodd;
      }
    </style>
  </defs>
  <path d="M22.000,20.610 L22.000,18.977 C23.260,17.132 24.000,14.902 24.000,12.499 C24.000,6.148 18.851,0.999 12.500,0.999 C6.149,0.999 1.000,6.148 1.000,12.499 C1.000,14.902 1.739,17.131 3.000,18.977 L3.000,20.610 C1.133,18.426 -0.000,15.597 -0.000,12.499 C-0.000,5.595 5.596,-0.001 12.500,-0.001 C19.403,-0.001 25.000,5.595 25.000,12.499 C25.000,15.597 23.866,18.426 22.000,20.610 ZM12.200,6.999 L12.800,6.999 C14.567,6.999 16.000,8.432 16.000,10.199 L16.000,21.799 C16.000,21.867 15.984,21.932 15.980,21.999 L16.000,21.999 L16.000,24.999 L12.800,24.999 L12.200,24.999 L9.000,24.999 L9.000,21.999 L9.020,21.999 C9.016,21.932 9.000,21.867 9.000,21.799 L9.000,10.199 C9.000,8.432 10.432,6.999 12.200,6.999 ZM9.992,23.999 L15.007,23.999 L15.007,21.999 L14.723,21.999 C14.894,21.704 15.000,21.365 15.000,20.999 L15.000,9.999 C15.000,8.894 14.104,7.999 13.000,7.999 L12.000,7.999 C10.895,7.999 10.000,8.894 10.000,9.999 L10.000,20.999 C10.000,21.365 10.105,21.704 10.277,21.999 L9.992,21.999 L9.992,23.999 ZM14.000,11.998 L11.000,11.998 L11.000,9.999 L14.000,9.999 L14.000,11.998 Z" class="cls-1"/>
</svg>
