<svg xmlns="http://www.w3.org/2000/svg" xmlns:xlink="http://www.w3.org/1999/xlink" preserveAspectRatio="xMidYMid" width="23" height="25" viewBox="0 0 23 25">
  <defs>
    <style>
      .cls-1 {
        fill: #3c4042;
        fill-rule: evenodd;
      }
    </style>
  </defs>
  <path d="M23.000,9.499 C23.000,14.086 20.301,18.033 16.409,19.874 L18.996,24.509 L18.190,24.990 L15.540,20.242 C14.282,20.715 12.924,20.985 11.500,20.985 C10.076,20.985 8.718,20.715 7.459,20.242 L4.810,24.990 L4.004,24.509 L6.590,19.874 C2.698,18.033 -0.000,14.086 -0.000,9.499 C-0.000,8.987 0.046,8.487 0.113,7.994 L-0.000,7.994 L-0.000,7.006 L0.280,7.006 C0.280,7.004 0.280,7.002 0.281,7.000 L1.309,7.000 C1.309,7.002 1.309,7.004 1.308,7.006 L21.691,7.006 C21.691,7.004 21.691,7.002 21.690,7.000 L22.719,7.000 C22.719,7.002 22.719,7.004 22.720,7.006 L23.000,7.006 L23.000,7.994 L22.887,7.994 C22.954,8.487 23.000,8.987 23.000,9.499 ZM21.875,7.994 L1.124,7.994 C1.051,8.484 1.000,8.982 1.000,9.493 C1.000,15.298 5.701,20.003 11.500,20.003 C17.299,20.003 22.000,15.298 22.000,9.493 C22.000,8.982 21.949,8.484 21.875,7.994 ZM15.000,2.000 L16.000,2.000 L16.000,4.987 L15.000,4.987 L15.000,2.000 ZM11.000,0.007 L12.000,0.007 L12.000,4.986 L11.000,4.986 L11.000,0.007 ZM7.000,2.000 L8.000,2.000 L8.000,4.987 L7.000,4.987 L7.000,2.000 Z" class="cls-1"/>
</svg>
