<svg xmlns="http://www.w3.org/2000/svg" xmlns:xlink="http://www.w3.org/1999/xlink" preserveAspectRatio="xMidYMid" width="25" height="19" viewBox="0 0 25 19">
  <defs>
    <style>
      .cls-1 {
        fill: #3c4042;
        fill-rule: evenodd;
      }
    </style>
  </defs>
  <path d="M23.437,18.996 L1.562,18.996 C0.699,18.996 -0.000,18.288 -0.000,17.413 L-0.000,1.580 C-0.000,0.705 0.699,-0.003 1.562,-0.003 L23.437,-0.003 C24.300,-0.003 25.000,0.705 25.000,1.580 L25.000,17.413 C25.000,18.288 24.300,18.996 23.437,18.996 ZM24.000,1.847 C24.000,1.377 23.632,0.996 23.178,0.996 L1.821,0.996 C1.368,0.996 1.000,1.377 1.000,1.847 L1.000,17.146 C1.000,17.616 1.368,17.997 1.821,17.997 L23.178,17.997 C23.632,17.997 24.000,17.616 24.000,17.146 L24.000,1.847 ZM19.000,7.999 L22.000,7.999 L22.000,8.999 L19.000,8.999 L19.000,7.999 ZM19.000,4.999 L22.000,4.999 L22.000,5.999 L19.000,5.999 L19.000,4.999 ZM15.444,15.996 L4.555,15.996 C3.696,15.996 3.000,15.269 3.000,14.372 L3.000,4.622 C3.000,3.724 3.696,2.997 4.555,2.997 L15.444,2.997 C16.303,2.997 17.000,3.724 17.000,4.622 L17.000,14.372 C17.000,15.269 16.303,15.996 15.444,15.996 ZM16.000,4.914 C16.000,4.407 15.616,3.997 15.143,3.997 L4.857,3.997 C4.383,3.997 4.000,4.407 4.000,4.914 L4.000,14.080 C4.000,14.586 4.383,14.997 4.857,14.997 L15.143,14.997 C15.616,14.997 16.000,14.586 16.000,14.080 L16.000,4.914 Z" class="cls-1"/>
</svg>
