<svg xmlns="http://www.w3.org/2000/svg" xmlns:xlink="http://www.w3.org/1999/xlink" preserveAspectRatio="xMidYMid" width="20" height="25" viewBox="0 0 20 25">
  <defs>
    <style>
      .cls-1 {
        fill: #3c4042;
        fill-rule: evenodd;
      }
    </style>
  </defs>
  <path d="M10.000,25.000 C4.476,25.000 -0.000,20.453 -0.000,14.843 C-0.000,9.234 10.000,-0.001 10.000,-0.001 C10.000,-0.001 20.000,9.234 20.000,14.843 C20.000,20.453 15.522,25.000 10.000,25.000 ZM10.000,1.377 C6.971,4.318 1.000,10.925 1.000,14.843 C1.000,19.891 5.037,23.999 10.000,23.999 C14.963,23.999 19.000,19.891 19.000,14.843 C19.000,10.921 13.029,4.317 10.000,1.377 ZM10.000,21.000 C7.238,21.000 5.000,18.736 5.000,15.944 C5.000,13.151 10.000,7.999 10.000,7.999 C10.000,7.999 15.000,13.151 15.000,15.944 C15.000,18.736 12.762,21.000 10.000,21.000 ZM10.000,9.466 C8.223,11.445 6.000,14.423 6.000,15.944 C6.000,18.180 7.794,20.000 10.000,20.000 C12.206,20.000 14.000,18.180 14.000,15.944 C14.000,14.420 11.777,11.444 10.000,9.466 Z" class="cls-1"/>
</svg>
