<svg xmlns="http://www.w3.org/2000/svg" xmlns:xlink="http://www.w3.org/1999/xlink" preserveAspectRatio="xMidYMid" width="20" height="25" viewBox="0 0 20 25">
  <defs>
    <style>
      .cls-1 {
        fill: #3c4042;
        fill-rule: evenodd;
      }
    </style>
  </defs>
  <path d="M19.999,15.275 C19.999,20.914 15.758,25.007 9.914,25.007 C4.115,25.007 0.001,20.914 0.001,15.275 C0.001,12.282 1.765,9.057 1.840,8.923 C1.979,8.672 2.238,8.524 2.519,8.524 C2.548,8.524 2.578,8.525 2.608,8.528 C2.918,8.569 3.173,8.798 3.254,9.105 C3.258,9.124 3.734,10.934 4.361,11.940 C4.782,12.615 5.210,13.094 5.691,13.426 C5.365,11.990 5.116,9.832 5.521,7.617 C6.635,1.536 11.339,0.081 11.540,0.023 C11.610,0.002 11.682,-0.009 11.753,-0.009 C11.943,-0.009 12.129,0.064 12.272,0.198 C12.469,0.381 12.558,0.656 12.508,0.922 C12.500,0.966 11.724,5.223 13.372,8.849 C13.521,9.180 13.730,9.563 13.955,9.946 C14.018,9.420 14.117,8.861 14.270,8.318 C14.875,6.166 16.438,5.431 16.504,5.401 C16.605,5.354 16.711,5.332 16.818,5.332 C16.988,5.332 17.155,5.389 17.294,5.500 C17.519,5.680 17.627,5.972 17.576,6.258 C17.567,6.311 17.349,7.776 18.574,9.853 C19.680,11.727 19.999,12.944 19.999,15.275 ZM16.572,6.527 C16.176,6.823 15.536,7.454 15.217,8.592 C15.092,9.034 14.997,9.530 14.931,10.067 L14.583,12.966 L13.109,10.458 C12.840,10.000 12.627,9.599 12.477,9.267 C10.978,5.968 11.316,2.299 11.483,1.103 C10.451,1.521 7.342,3.148 6.489,7.800 C6.076,10.058 6.413,12.153 6.650,13.201 L7.214,15.686 L5.137,14.252 C4.547,13.845 4.021,13.263 3.529,12.475 C3.042,11.693 2.657,10.562 2.453,9.892 C1.980,10.867 0.985,13.167 0.985,15.275 C0.985,20.415 4.657,24.007 9.914,24.007 C15.187,24.007 19.014,20.335 19.014,15.275 C19.014,13.132 18.738,12.077 17.730,10.366 C16.696,8.615 16.560,7.209 16.572,6.527 Z" class="cls-1"/>
</svg>
