<svg xmlns="http://www.w3.org/2000/svg" xmlns:xlink="http://www.w3.org/1999/xlink" preserveAspectRatio="xMidYMid" width="13" height="25" viewBox="0 0 13 25">
  <defs>
    <style>
      .cls-1 {
        fill: #3c4042;
        fill-rule: evenodd;
      }
    </style>
  </defs>
  <path d="M12.278,13.999 L7.000,13.999 L7.000,18.998 L9.000,18.998 L9.000,24.999 L7.000,24.999 L6.000,24.999 L4.000,24.999 L4.000,18.998 L6.000,18.998 L6.000,13.999 L0.722,13.999 C0.323,13.999 -0.000,13.650 -0.000,13.220 L-0.000,0.777 C-0.000,0.346 0.323,-0.002 0.722,-0.002 L12.278,-0.002 C12.676,-0.002 13.000,0.346 13.000,0.777 L13.000,13.220 C13.000,13.650 12.676,13.999 12.278,13.999 ZM5.000,19.998 L5.000,23.998 L8.000,23.998 L8.000,19.998 L5.000,19.998 ZM12.000,0.998 L1.000,0.998 L1.000,12.998 L6.000,12.998 L7.000,12.998 L12.000,12.998 L12.000,0.998 ZM10.000,10.998 L9.000,10.998 L9.000,2.998 L10.000,2.998 L10.000,10.998 ZM6.000,2.998 L7.000,2.998 L7.000,10.998 L6.000,10.998 L6.000,2.998 ZM3.000,2.998 L4.000,2.998 L4.000,10.998 L3.000,10.998 L3.000,2.998 Z" class="cls-1"/>
</svg>
