<svg xmlns="http://www.w3.org/2000/svg" xmlns:xlink="http://www.w3.org/1999/xlink" preserveAspectRatio="xMidYMid" width="23" height="23" viewBox="0 0 23 23">
  <defs>
    <style>
      .cls-1 {
        fill: #3c4042;
        fill-rule: evenodd;
      }
    </style>
  </defs>
  <path d="M0.354,22.999 C0.193,22.999 0.107,22.996 0.107,22.996 C-1.330,1.325 17.401,-0.000 22.004,-0.000 C22.646,-0.000 23.013,0.025 23.013,0.025 C23.755,22.330 2.866,22.999 0.354,22.999 ZM22.000,2.011 C21.688,2.137 18.818,3.364 14.133,7.729 L20.995,8.492 C21.590,6.522 21.936,4.367 22.000,2.011 ZM16.899,15.636 C18.576,13.902 19.832,11.835 20.683,9.463 L13.188,8.631 C11.472,10.300 9.535,12.384 7.422,14.935 L14.876,17.420 C15.577,16.888 16.258,16.299 16.899,15.636 ZM13.863,18.137 L6.738,15.762 C5.267,17.577 3.714,19.619 2.085,21.924 C4.752,21.719 9.603,20.944 13.863,18.137 ZM6.026,6.794 C5.912,6.909 5.792,7.012 5.680,7.131 C2.365,10.673 0.811,15.659 1.055,21.959 C1.267,21.615 3.191,18.518 6.108,14.767 L6.189,14.525 L6.276,14.554 C7.200,13.373 8.216,12.135 9.310,10.899 L6.026,6.794 ZM22.004,0.999 C19.681,0.999 12.079,1.388 6.749,6.096 L9.988,10.145 C13.539,6.248 17.782,2.523 22.030,0.999 C22.022,0.999 22.013,0.999 22.004,0.999 ZM22.031,0.999 L22.031,1.029 C22.031,1.019 22.032,1.009 22.032,0.999 C22.031,0.999 22.031,0.999 22.031,0.999 Z" class="cls-1"/>
</svg>
