<svg xmlns="http://www.w3.org/2000/svg" xmlns:xlink="http://www.w3.org/1999/xlink" preserveAspectRatio="xMidYMid" width="15" height="23" viewBox="0 0 15 23">
  <defs>
    <style>
      .cls-1 {
        fill: #3c4042;
        fill-rule: evenodd;
      }
    </style>
  </defs>
  <path d="M7.500,22.998 C3.358,22.998 -0.000,18.877 -0.000,13.797 C-0.000,8.716 7.500,-0.003 7.500,-0.003 C7.500,-0.003 15.000,8.716 15.000,13.797 C15.000,18.877 11.642,22.998 7.500,22.998 ZM7.500,1.997 C7.500,1.997 1.000,9.579 1.000,13.997 C1.000,18.415 3.910,21.996 7.500,21.996 C11.090,21.996 14.000,18.415 14.000,13.997 C14.000,9.579 7.500,1.997 7.500,1.997 ZM3.000,15.510 C3.000,14.585 3.281,13.726 3.760,13.011 C3.757,13.097 3.748,13.181 3.748,13.266 C3.748,16.571 6.426,19.249 9.730,19.249 C9.817,19.249 9.900,19.240 9.985,19.237 C9.271,19.716 8.412,19.997 7.487,19.997 C5.009,19.997 3.000,17.988 3.000,15.510 Z" class="cls-1"/>
</svg>
