<svg xmlns="http://www.w3.org/2000/svg" xmlns:xlink="http://www.w3.org/1999/xlink" preserveAspectRatio="xMidYMid" width="16.188" height="25" viewBox="0 0 16.188 25">
  <defs>
    <style>
      .cls-1 {
        fill: #3c4042;
        fill-rule: evenodd;
      }
    </style>
  </defs>
  <path d="M16.000,13.999 L16.000,13.999 L16.000,14.010 L11.000,14.010 L11.000,24.997 L10.006,24.997 L10.006,0.398 L10.006,0.397 L10.006,0.397 L10.006,0.015 L10.961,0.015 L11.000,-0.001 C11.000,-0.001 13.907,2.891 14.954,6.012 C16.177,9.653 16.000,13.999 16.000,13.999 ZM14.000,7.000 C13.374,4.494 11.965,2.537 11.000,1.425 L11.000,12.993 L14.956,12.993 C14.879,11.794 14.656,9.622 14.000,7.000 ZM4.196,12.990 L3.993,12.990 L3.993,24.998 L3.000,24.998 L3.000,12.990 L2.794,12.990 C1.246,12.990 -0.010,11.558 -0.010,9.791 L-0.007,7.007 L-0.010,7.007 L-0.010,5.991 L-0.006,5.991 L-0.000,0.014 L1.010,0.014 L1.010,5.991 L6.011,5.991 L6.011,0.014 L7.000,0.014 L7.000,9.791 C7.000,11.558 5.745,12.990 4.196,12.990 ZM6.011,7.007 L1.010,7.007 L1.010,10.245 C1.010,11.213 1.757,11.997 2.677,11.997 L4.344,11.997 C5.264,11.997 6.011,11.213 6.011,10.245 L6.011,7.007 ZM3.000,0.014 L3.993,0.014 L3.993,5.987 L3.000,5.987 L3.000,0.014 Z" class="cls-1"/>
</svg>
