<svg xmlns="http://www.w3.org/2000/svg" xmlns:xlink="http://www.w3.org/1999/xlink" preserveAspectRatio="xMidYMid" width="20" height="25" viewBox="0 0 20 25">
  <defs>
    <style>
      .cls-1 {
        fill: #3c4042;
        fill-rule: evenodd;
      }
    </style>
  </defs>
  <path d="M18.461,24.997 L5.508,24.997 C5.505,24.998 5.503,24.999 5.500,24.999 C5.497,24.999 5.495,24.998 5.492,24.997 L1.538,24.997 C0.689,24.997 -0.000,24.298 -0.000,23.435 L-0.000,1.560 C-0.000,0.697 0.689,-0.003 1.538,-0.003 L18.461,-0.003 C19.311,-0.003 20.000,0.697 20.000,1.560 L20.000,23.435 C20.000,24.298 19.311,24.997 18.461,24.997 ZM1.000,1.820 L1.000,23.177 C1.000,23.630 1.366,23.998 1.818,23.998 L5.000,23.998 L5.000,0.998 L1.818,0.998 C1.366,0.998 1.000,1.366 1.000,1.820 ZM19.000,1.820 C19.000,1.366 18.633,0.998 18.181,0.998 L6.000,0.998 L6.000,23.998 L18.181,23.998 C18.633,23.998 19.000,23.630 19.000,23.177 L19.000,1.820 ZM15.500,13.999 L10.500,13.999 C10.224,13.999 10.000,13.775 10.000,13.498 C10.000,13.223 10.224,13.000 10.500,13.000 L15.500,13.000 C15.776,13.000 16.000,13.223 16.000,13.498 C16.000,13.775 15.776,13.999 15.500,13.999 ZM15.500,8.999 L10.500,8.999 C10.224,8.999 10.000,8.775 10.000,8.499 C10.000,8.223 10.224,7.999 10.500,7.999 L15.500,7.999 C15.776,7.999 16.000,8.223 16.000,8.499 C16.000,8.775 15.776,8.999 15.500,8.999 Z" class="cls-1"/>
</svg>
