<svg xmlns="http://www.w3.org/2000/svg" xmlns:xlink="http://www.w3.org/1999/xlink" preserveAspectRatio="xMidYMid" width="16.188" height="25" viewBox="0 0 16.188 25">
  <defs>
    <style>
      .cls-1 {
        fill: #3c4042;
        fill-rule: evenodd;
      }
    </style>
  </defs>
  <path d="M16.000,14.000 L16.000,14.000 L16.000,14.010 L11.000,14.010 L11.000,24.998 L10.006,24.998 L10.006,0.398 L10.006,0.397 L10.006,0.397 L10.006,0.014 L10.961,0.014 L11.000,-0.002 C11.000,-0.002 13.907,2.891 14.954,6.012 C16.177,9.653 16.000,14.000 16.000,14.000 ZM14.000,6.999 C13.374,4.494 11.965,2.537 11.000,1.425 L11.000,12.993 L14.956,12.993 C14.878,11.794 14.655,9.622 14.000,6.999 ZM4.196,9.990 L3.997,9.990 L3.993,24.998 L3.000,24.998 L3.000,9.990 L2.794,9.990 C1.246,9.990 -0.010,8.557 -0.010,6.791 L-0.000,-0.001 L1.011,0.014 L1.011,7.245 C1.011,8.212 1.757,8.996 2.677,8.996 L3.000,8.996 L3.000,8.975 L3.000,8.975 L3.000,0.029 L3.000,0.029 L3.000,-0.001 L4.000,-0.001 L3.998,8.996 L4.344,8.996 C5.264,8.996 6.011,8.212 6.011,7.245 L6.011,0.014 L7.000,-0.001 L7.000,6.791 C7.000,8.557 5.744,9.990 4.196,9.990 Z" class="cls-1"/>
</svg>
