<svg xmlns="http://www.w3.org/2000/svg" xmlns:xlink="http://www.w3.org/1999/xlink" preserveAspectRatio="xMidYMid" width="25" height="23" viewBox="0 0 25 23">
  <defs>
    <style>
      .cls-1 {
        fill: #3c4042;
        fill-rule: evenodd;
      }
    </style>
  </defs>
  <path d="M20.995,7.997 C20.995,10.206 20.103,11.997 19.003,11.997 C17.904,11.997 17.012,10.206 17.012,7.997 C17.012,5.788 17.904,3.997 19.003,3.997 C20.103,3.997 20.995,5.788 20.995,7.997 ZM18.002,7.996 C18.002,9.515 18.449,10.746 19.001,10.746 C19.553,10.746 20.000,9.515 20.000,7.996 C20.000,6.477 19.553,5.246 19.001,5.246 C18.449,5.246 18.002,6.477 18.002,7.996 ZM19.019,15.996 L19.019,15.998 L14.022,15.998 L14.022,14.998 L17.014,14.998 L19.019,14.998 L19.019,14.995 C21.767,14.983 23.992,11.856 23.992,7.997 C23.992,4.131 21.758,0.997 19.003,0.997 C16.492,0.997 14.435,3.609 14.086,6.998 L14.016,6.998 L14.016,7.981 C14.016,7.986 14.015,7.992 14.015,7.997 C14.015,8.002 14.016,8.007 14.016,8.012 L14.016,12.449 C14.015,12.448 14.015,12.447 14.014,12.446 L14.014,22.997 L-0.008,22.997 L-0.008,7.923 C-0.008,7.917 -0.009,7.910 -0.009,7.903 C-0.009,7.896 -0.008,7.890 -0.008,7.883 L-0.008,6.997 L0.033,6.997 C0.369,3.058 2.865,-0.002 5.897,-0.002 C5.929,-0.002 5.959,0.003 5.991,0.003 L5.991,-0.002 L17.991,-0.002 L17.991,0.120 C18.321,0.045 18.658,-0.002 19.003,-0.002 C22.319,-0.002 25.007,3.578 25.007,7.997 C25.007,12.409 22.328,15.985 19.019,15.996 ZM11.991,0.997 L11.991,0.997 L6.010,0.997 C6.009,0.997 6.008,0.997 6.007,0.997 C6.007,0.997 6.006,0.997 6.005,0.997 L5.991,0.997 L5.991,0.999 C3.477,1.011 1.420,3.617 1.071,6.997 L1.007,6.997 L1.007,7.878 C1.007,7.918 0.999,7.956 0.999,7.997 C0.999,8.038 1.007,8.075 1.007,8.116 L1.007,21.997 L13.000,21.997 L13.000,6.997 L13.051,6.997 C13.294,4.411 14.459,2.208 16.099,0.997 L11.991,0.997 Z" class="cls-1"/>
</svg>
