<svg xmlns="http://www.w3.org/2000/svg" xmlns:xlink="http://www.w3.org/1999/xlink" preserveAspectRatio="xMidYMid" width="25" height="25" viewBox="0 0 25 25">
  <defs>
    <style>
      .cls-1 {
        fill: #3c4042;
        fill-rule: evenodd;
      }
    </style>
  </defs>
  <path d="M12.500,24.998 C5.596,24.998 -0.000,19.402 -0.000,12.498 C-0.000,5.594 5.596,-0.003 12.500,-0.003 C19.403,-0.003 25.000,5.594 25.000,12.498 C25.000,19.402 19.403,24.998 12.500,24.998 ZM12.500,0.998 C6.149,0.998 1.000,6.147 1.000,12.498 C1.000,18.850 6.149,23.999 12.500,23.999 C18.851,23.999 24.000,18.850 24.000,12.498 C24.000,6.147 18.851,0.998 12.500,0.998 ZM12.500,18.998 C8.910,18.998 6.000,16.088 6.000,12.498 C6.000,8.908 8.910,5.997 12.500,5.997 C16.090,5.997 19.000,8.908 19.000,12.498 C19.000,16.088 16.090,18.998 12.500,18.998 ZM12.500,6.998 C9.462,6.998 7.000,9.460 7.000,12.498 C7.000,15.535 9.462,17.998 12.500,17.998 C15.537,17.998 18.000,15.535 18.000,12.498 C18.000,9.460 15.537,6.998 12.500,6.998 Z" class="cls-1"/>
</svg>
