<svg xmlns="http://www.w3.org/2000/svg" xmlns:xlink="http://www.w3.org/1999/xlink" preserveAspectRatio="xMidYMid" width="24" height="21" viewBox="0 0 24 21">
  <defs>
    <style>
      .cls-1 {
        fill: #3c4042;
        fill-rule: evenodd;
      }
    </style>
  </defs>
  <path d="M24.010,17.997 L-0.010,17.997 L-0.010,16.438 L0.032,16.438 C0.014,16.179 -0.011,15.922 -0.010,15.659 C-0.002,10.000 3.617,5.551 8.997,4.339 L8.997,2.664 C8.997,1.192 10.342,-0.002 12.000,-0.002 C13.658,-0.002 15.002,1.192 15.002,2.664 L15.002,4.338 C20.385,5.551 24.010,9.999 24.010,15.659 C24.010,15.922 23.986,16.179 23.967,16.438 L24.010,16.438 L24.010,17.997 ZM14.001,2.497 C14.001,1.670 13.105,0.998 12.000,0.998 C10.894,0.998 9.998,1.670 9.998,2.497 L9.998,4.155 C10.646,4.061 11.310,3.999 12.000,3.999 C12.689,3.999 13.353,4.061 14.001,4.155 L14.001,2.497 ZM12.000,4.999 C5.541,4.999 0.990,9.985 0.990,16.140 C0.990,16.429 1.013,16.713 1.036,16.997 L22.964,16.997 C22.986,16.713 23.009,16.429 23.009,16.140 C23.009,9.985 18.459,4.999 12.000,4.999 ZM0.500,19.999 L23.500,19.999 C23.776,19.999 24.000,20.223 24.000,20.499 C24.000,20.775 23.776,20.999 23.500,20.999 L0.500,20.999 C0.224,20.999 -0.000,20.775 -0.000,20.499 C-0.000,20.223 0.224,19.999 0.500,19.999 Z" class="cls-1"/>
</svg>
