<svg xmlns="http://www.w3.org/2000/svg" xmlns:xlink="http://www.w3.org/1999/xlink" preserveAspectRatio="xMidYMid" width="17" height="25" viewBox="0 0 17 25">
  <defs>
    <style>
      .cls-1 {
        fill: #3c4042;
        fill-rule: evenodd;
      }
    </style>
  </defs>
  <path d="M15.454,24.998 L1.545,24.998 C0.692,24.998 -0.000,24.298 -0.000,23.435 L-0.000,11.998 L-0.000,10.998 L-0.000,1.560 C-0.000,0.697 0.692,-0.003 1.545,-0.003 L15.454,-0.003 C16.308,-0.003 17.000,0.697 17.000,1.560 L17.000,10.998 L17.000,11.998 L17.000,23.435 C17.000,24.298 16.308,24.998 15.454,24.998 ZM15.984,1.819 C15.984,1.365 15.612,0.997 15.153,0.997 L1.847,0.997 C1.387,0.997 1.015,1.365 1.015,1.819 L1.015,10.998 L15.984,10.998 L15.984,1.819 ZM15.984,11.998 L1.015,11.998 L1.015,23.176 C1.015,23.630 1.387,23.997 1.847,23.997 L15.153,23.997 C15.612,23.997 15.984,23.630 15.984,23.176 L15.984,11.998 ZM2.998,13.998 L4.007,13.998 L4.007,16.997 L2.998,16.997 L2.998,13.998 ZM4.007,8.997 L2.998,8.997 L2.998,5.997 L4.007,5.997 L4.007,8.997 Z" class="cls-1"/>
</svg>
