<svg xmlns="http://www.w3.org/2000/svg" xmlns:xlink="http://www.w3.org/1999/xlink" preserveAspectRatio="xMidYMid" width="19" height="25" viewBox="0 0 19 25">
  <defs>
    <style>
      .cls-1 {
        fill: #3c4042;
        fill-rule: evenodd;
      }
    </style>
  </defs>
  <path d="M18.000,8.665 L18.000,16.000 C18.000,16.000 18.000,16.000 18.000,15.999 L18.000,17.028 L18.000,20.997 L17.713,20.997 C16.897,23.300 14.161,24.996 9.500,24.996 C4.838,24.996 2.102,23.300 1.286,20.997 L1.000,20.997 L1.000,8.665 C0.365,7.860 -0.000,6.957 -0.000,5.997 C-0.000,4.749 0.604,3.590 1.637,2.629 C2.639,1.246 4.862,0.255 8.253,0.054 C8.662,0.020 9.076,-0.003 9.500,-0.003 C9.923,-0.003 10.337,0.020 10.746,0.054 C14.137,0.255 16.361,1.246 17.362,2.629 C18.395,3.590 19.000,4.749 19.000,5.997 C19.000,6.957 18.634,7.860 18.000,8.665 ZM2.000,19.997 L2.060,19.997 C2.361,22.244 4.679,23.996 9.500,23.996 C14.320,23.996 16.638,22.244 16.939,19.997 L17.000,19.997 L17.000,18.474 C14.634,19.991 10.000,19.997 10.000,19.997 L10.000,11.978 C9.833,11.983 9.669,11.997 9.500,11.997 C6.447,11.997 3.738,11.084 2.000,9.670 L2.000,19.997 ZM17.000,17.374 L17.000,9.670 C15.553,10.847 13.430,11.667 11.000,11.912 L11.000,18.999 C11.000,18.999 14.984,18.998 17.000,17.374 ZM9.500,0.997 C4.322,0.997 2.000,2.564 2.000,4.497 C2.000,6.430 4.322,7.997 9.500,7.997 C14.677,7.997 17.000,6.430 17.000,4.497 C17.000,2.564 14.677,0.997 9.500,0.997 ZM17.802,5.538 C17.094,7.519 14.317,8.997 9.500,8.997 C4.682,8.997 1.906,7.519 1.197,5.538 C1.071,5.847 1.000,6.167 1.000,6.497 C1.000,8.983 4.805,10.997 9.500,10.997 C14.194,10.997 18.000,8.983 18.000,6.497 C18.000,6.167 17.929,5.847 17.802,5.538 Z" class="cls-1"/>
</svg>
