<svg xmlns="http://www.w3.org/2000/svg" xmlns:xlink="http://www.w3.org/1999/xlink" preserveAspectRatio="xMidYMid" width="21" height="25" viewBox="0 0 21 25">
  <defs>
    <style>
      .cls-1 {
        fill: #3c4042;
        fill-rule: evenodd;
      }
    </style>
  </defs>
  <path d="M16.000,12.941 L16.000,24.997 L15.000,24.997 L15.000,12.941 C12.200,12.638 10.000,9.890 10.000,6.503 C10.000,2.914 12.462,0.005 15.500,0.005 C18.537,0.005 21.000,2.914 21.000,6.503 C21.000,9.890 18.799,12.638 16.000,12.941 ZM15.500,0.998 C13.014,0.998 11.000,3.462 11.000,6.503 C11.000,9.543 13.014,12.008 15.500,12.008 C17.985,12.008 20.000,9.543 20.000,6.503 C20.000,3.462 17.985,0.998 15.500,0.998 ZM4.196,12.989 L3.993,12.989 L3.993,24.998 L3.000,24.998 L3.000,12.989 L2.794,12.989 C1.246,12.989 -0.010,11.558 -0.010,9.791 L-0.007,7.007 L-0.010,7.007 L-0.010,5.991 L-0.006,5.991 L-0.000,-0.001 L1.010,-0.012 L1.010,5.991 L6.011,5.991 L6.011,-0.012 L7.000,-0.001 L7.000,9.791 C7.000,11.558 5.744,12.989 4.196,12.989 ZM6.011,7.007 L1.010,7.007 L1.010,10.245 C1.010,11.213 1.757,11.997 2.677,11.997 L4.344,11.997 C5.264,11.997 6.011,11.213 6.011,10.245 L6.011,7.007 ZM3.000,0.014 L3.993,0.014 L3.993,5.987 L3.000,5.987 L3.000,0.014 Z" class="cls-1"/>
</svg>
