<svg xmlns="http://www.w3.org/2000/svg" xmlns:xlink="http://www.w3.org/1999/xlink" preserveAspectRatio="xMidYMid" width="18" height="25" viewBox="0 0 18 25">
  <defs>
    <style>
      .cls-1 {
        fill: #3c4042;
        fill-rule: evenodd;
      }
    </style>
  </defs>
  <path d="M16.500,24.999 L1.500,24.999 C1.500,24.999 -0.000,23.152 -0.000,21.150 C-0.000,18.783 1.500,13.798 1.500,13.798 L6.000,9.000 L6.000,3.999 L6.000,2.999 L6.000,-0.001 L12.000,-0.001 L12.000,2.999 L12.000,3.999 L12.000,9.000 L16.500,13.798 C16.500,13.798 18.000,18.783 18.000,21.150 C18.000,23.152 16.500,24.999 16.500,24.999 ZM2.015,24.000 L15.986,24.000 C16.267,23.574 16.697,22.829 16.894,21.998 L1.107,21.998 C1.304,22.827 1.734,23.574 2.015,24.000 ZM11.000,0.999 L7.000,0.999 L7.000,2.999 L11.000,2.999 L11.000,0.999 ZM15.608,14.310 L11.270,9.684 L11.000,9.395 L11.000,9.000 L11.000,3.999 L7.000,3.999 L7.000,9.000 L7.000,9.395 L6.729,9.684 L2.392,14.309 C2.302,14.620 2.125,15.247 1.930,15.999 L16.070,15.999 C15.898,15.332 15.733,14.735 15.608,14.310 ZM16.318,16.999 L1.681,16.999 C1.348,18.384 1.036,19.943 1.010,20.999 L16.990,20.999 C16.963,19.981 16.659,18.430 16.318,16.999 ZM17.000,21.150 C17.000,21.150 17.000,21.150 17.000,21.150 C17.000,21.150 17.000,21.149 17.000,21.149 L17.000,21.150 Z" class="cls-1"/>
</svg>
