<svg xmlns="http://www.w3.org/2000/svg" xmlns:xlink="http://www.w3.org/1999/xlink" preserveAspectRatio="xMidYMid" width="19" height="25" viewBox="0 0 19 25">
  <defs>
    <style>
      .cls-1 {
        fill: #3c4042;
        fill-rule: evenodd;
      }
    </style>
  </defs>
  <path d="M17.000,6.818 L17.000,9.498 C17.000,10.326 16.254,10.998 15.333,10.998 L14.000,10.998 L14.000,13.998 L14.367,13.998 C15.263,13.998 15.989,14.702 15.989,15.570 L15.989,21.998 L15.989,23.427 L15.989,24.999 L14.367,24.999 L4.633,24.999 L3.010,24.999 L3.010,23.427 L3.010,21.998 L3.010,15.570 C3.010,14.702 3.737,13.998 4.633,13.998 L5.000,13.998 L5.000,10.998 L3.667,10.998 C2.746,10.998 2.000,10.326 2.000,9.498 L2.000,6.818 C0.830,6.451 -0.000,5.553 -0.000,4.498 C-0.000,3.118 1.418,1.998 3.166,1.998 L9.003,1.998 L9.003,-0.002 L9.997,-0.002 L9.997,1.998 L15.833,1.998 C17.582,1.998 19.000,3.118 19.000,4.498 C19.000,5.553 18.170,6.451 17.000,6.818 ZM4.916,14.999 C4.410,14.999 4.000,15.401 4.000,15.898 L4.000,21.998 L4.000,23.998 L15.000,23.998 L15.000,21.998 L15.000,15.898 C15.000,15.401 14.589,14.999 14.083,14.999 L4.916,14.999 ZM13.011,13.998 L13.011,10.998 L5.988,10.998 L5.988,13.998 L13.011,13.998 ZM2.988,8.997 C2.988,9.550 3.404,9.998 3.918,9.998 L5.000,9.998 L14.000,9.998 L15.082,9.998 C15.595,9.998 16.012,9.550 16.012,8.997 L16.012,6.998 C16.012,6.993 16.010,6.989 16.010,6.984 C15.950,6.987 15.894,6.998 15.833,6.998 L3.166,6.998 C3.106,6.998 3.050,6.987 2.990,6.984 C2.990,6.989 2.988,6.993 2.988,6.998 L2.988,8.997 ZM16.309,2.998 L9.997,2.998 L9.003,2.998 L2.691,2.998 C1.751,2.998 0.989,3.670 0.989,4.497 C0.989,5.327 1.751,5.998 2.691,5.998 L16.309,5.998 C17.249,5.998 18.011,5.327 18.011,4.497 C18.011,3.670 17.249,2.998 16.309,2.998 Z" class="cls-1"/>
</svg>
