<svg xmlns="http://www.w3.org/2000/svg" xmlns:xlink="http://www.w3.org/1999/xlink" preserveAspectRatio="xMidYMid" width="21" height="25" viewBox="0 0 21 25">
  <defs>
    <style>
      .cls-1 {
        fill: #3c4042;
        fill-rule: evenodd;
      }
    </style>
  </defs>
  <path d="M16.000,12.941 L16.000,24.997 L15.000,24.997 L15.000,12.941 C12.200,12.638 10.000,9.890 10.000,6.503 C10.000,2.914 12.462,0.005 15.500,0.005 C18.537,0.005 21.000,2.914 21.000,6.503 C21.000,9.890 18.799,12.638 16.000,12.941 ZM15.500,0.998 C13.014,0.998 11.000,3.463 11.000,6.504 C11.000,9.544 13.014,12.009 15.500,12.009 C17.985,12.009 20.000,9.544 20.000,6.504 C20.000,3.463 17.985,0.998 15.500,0.998 ZM4.196,9.989 L3.993,9.989 L3.993,24.997 L3.000,24.997 L3.000,9.989 L2.794,9.989 C1.246,9.989 -0.010,8.557 -0.010,6.790 L-0.000,-0.001 L1.011,0.014 L1.011,7.245 C1.011,8.212 1.757,8.996 2.677,8.996 L3.000,8.996 L3.000,8.975 L3.000,0.029 L3.000,0.014 L3.993,0.014 L3.993,0.029 L3.993,8.975 L3.993,8.996 L4.344,8.996 C5.264,8.996 6.011,8.212 6.011,7.245 L6.011,0.014 L7.000,-0.001 L7.000,6.790 C7.000,8.557 5.744,9.989 4.196,9.989 Z" class="cls-1"/>
</svg>
