<svg xmlns="http://www.w3.org/2000/svg" xmlns:xlink="http://www.w3.org/1999/xlink" preserveAspectRatio="xMidYMid" width="25" height="19" viewBox="0 0 25 19">
  <defs>
    <style>
      .cls-1 {
        fill: #3c4042;
        fill-rule: evenodd;
      }
    </style>
  </defs>
  <path d="M-0.010,13.881 C-0.010,8.076 5.889,3.376 12.000,2.999 L12.000,1.000 L10.500,1.000 C10.224,1.000 10.000,0.775 10.000,0.499 C10.000,0.223 10.224,-0.000 10.500,-0.000 L14.500,-0.000 C14.776,-0.000 15.000,0.223 15.000,0.499 C15.000,0.775 14.776,1.000 14.500,1.000 L13.000,1.000 L13.000,2.999 C19.111,3.376 25.000,8.193 25.000,13.999 L25.000,15.999 L-0.000,15.999 C-0.000,15.999 -0.010,13.842 -0.010,13.881 ZM1.033,14.987 L23.967,14.987 C23.987,14.728 24.008,14.468 24.008,14.202 C24.008,8.572 18.000,4.016 12.500,4.008 C7.000,3.999 0.991,8.572 0.991,14.202 C0.991,14.468 1.012,14.728 1.033,14.987 ZM0.500,17.999 L24.500,17.999 C24.776,17.999 25.000,18.224 25.000,18.499 C25.000,18.775 24.776,18.999 24.500,18.999 L0.500,18.999 C0.224,18.999 -0.000,18.775 -0.000,18.499 C-0.000,18.224 0.224,17.999 0.500,17.999 Z" class="cls-1"/>
</svg>
