<svg xmlns="http://www.w3.org/2000/svg" xmlns:xlink="http://www.w3.org/1999/xlink" preserveAspectRatio="xMidYMid" width="23" height="25" viewBox="0 0 23 25">
  <defs>
    <style>
      .cls-1 {
        fill: #3c4042;
        fill-rule: evenodd;
      }
    </style>
  </defs>
  <path d="M11.500,24.997 C5.148,24.997 -0.000,23.206 -0.000,20.997 C-0.000,19.213 3.359,17.704 7.995,17.188 L7.995,18.170 C3.915,18.582 0.986,19.690 0.986,20.996 C0.986,22.653 5.690,23.996 11.492,23.996 C17.294,23.996 21.997,22.653 21.997,20.996 C21.997,19.692 19.077,18.585 15.004,18.172 L15.004,17.188 C19.641,17.704 23.000,19.213 23.000,20.997 C23.000,23.206 17.851,24.997 11.500,24.997 ZM12.000,12.947 L12.000,21.499 C12.000,21.775 11.776,21.999 11.500,21.999 C11.224,21.999 11.000,21.775 11.000,21.499 L11.000,12.947 C7.651,12.687 5.006,9.916 5.006,6.497 C5.006,2.907 7.913,-0.003 11.500,-0.003 C15.086,-0.003 17.994,2.907 17.994,6.497 C17.994,9.916 15.348,12.687 12.000,12.947 ZM11.500,0.997 C8.467,0.997 6.008,3.459 6.008,6.497 C6.008,9.535 8.467,11.996 11.500,11.996 C14.532,11.996 16.991,9.535 16.991,6.497 C16.991,3.459 14.532,0.997 11.500,0.997 Z" class="cls-1"/>
</svg>
