<svg xmlns="http://www.w3.org/2000/svg" xmlns:xlink="http://www.w3.org/1999/xlink" preserveAspectRatio="xMidYMid" width="19" height="25" viewBox="0 0 19 25">
  <defs>
    <style>
      .cls-1 {
        fill: #3c4042;
        fill-rule: evenodd;
      }
    </style>
  </defs>
  <path d="M9.500,25.000 C9.500,25.000 -0.000,14.552 -0.000,9.374 C-0.000,4.197 4.253,-0.001 9.500,-0.001 C14.747,-0.001 19.000,4.197 19.000,9.374 C19.000,14.552 9.500,25.000 9.500,25.000 ZM9.500,0.999 C4.813,0.999 1.000,4.755 1.000,9.374 C1.000,12.970 6.581,20.134 9.500,23.492 C12.419,20.133 18.000,12.967 18.000,9.374 C18.000,4.755 14.186,0.999 9.500,0.999 ZM9.500,10.997 C7.567,10.997 6.000,9.431 6.000,7.497 C6.000,5.564 7.567,3.997 9.500,3.997 C11.433,3.997 13.000,5.564 13.000,7.497 C13.000,9.431 11.433,10.997 9.500,10.997 ZM9.500,4.997 C8.119,4.997 7.000,6.116 7.000,7.497 C7.000,8.878 8.119,9.996 9.500,9.996 C10.880,9.996 12.000,8.878 12.000,7.497 C12.000,6.116 10.880,4.997 9.500,4.997 Z" class="cls-1"/>
</svg>
