<svg xmlns="http://www.w3.org/2000/svg" xmlns:xlink="http://www.w3.org/1999/xlink" preserveAspectRatio="xMidYMid" width="19" height="25" viewBox="0 0 19 25">
  <defs>
    <style>
      .cls-1 {
        fill: #3c4042;
        fill-rule: evenodd;
      }
    </style>
  </defs>
  <path d="M18.854,3.788 L10.905,11.736 C10.884,11.775 10.889,11.823 10.856,11.856 C10.752,11.959 10.616,11.992 10.480,11.980 C10.349,11.989 10.217,11.953 10.116,11.853 C10.088,11.825 10.094,11.784 10.074,11.751 L7.114,8.790 C6.927,8.603 6.927,8.300 7.114,8.113 C7.301,7.926 7.604,7.926 7.791,8.113 L10.488,10.810 L18.182,3.116 C18.367,2.930 18.668,2.930 18.854,3.116 C19.039,3.301 19.039,3.602 18.854,3.788 ZM1.000,9.374 C1.000,12.970 6.581,20.134 9.500,23.492 C12.260,20.316 17.392,13.741 17.945,9.996 L18.935,9.996 C18.270,15.340 9.500,25.000 9.500,25.000 C9.500,25.000 -0.000,14.552 -0.000,9.374 C-0.000,4.197 4.253,-0.001 9.500,-0.001 C11.128,-0.001 12.660,0.404 14.000,1.117 L14.000,2.282 C12.693,1.474 11.153,0.999 9.500,0.999 C4.813,0.999 1.000,4.755 1.000,9.374 Z" class="cls-1"/>
</svg>
