<svg xmlns="http://www.w3.org/2000/svg" xmlns:xlink="http://www.w3.org/1999/xlink" preserveAspectRatio="xMidYMid" width="19" height="25" viewBox="0 0 19 25">
  <defs>
    <style>
      .cls-1 {
        fill: #3c4042;
        fill-rule: evenodd;
      }
    </style>
  </defs>
  <path d="M10.378,23.999 L16.500,23.999 C16.776,23.999 17.000,24.223 17.000,24.499 C17.000,24.775 16.776,24.999 16.500,24.999 L9.500,24.999 C9.500,24.999 9.500,25.000 9.500,25.000 C9.500,25.000 9.499,24.999 9.499,24.999 L2.500,24.999 C2.224,24.999 2.000,24.775 2.000,24.499 C2.000,24.223 2.224,23.999 2.500,23.999 L8.621,23.999 C6.268,21.263 -0.000,13.580 -0.000,9.374 C-0.000,4.197 4.253,-0.001 9.500,-0.001 C14.747,-0.001 19.000,4.197 19.000,9.374 C19.000,13.580 12.731,21.263 10.378,23.999 ZM9.500,0.999 C4.813,0.999 1.000,4.755 1.000,9.374 C1.000,12.970 6.581,20.134 9.500,23.492 C12.419,20.133 18.000,12.967 18.000,9.374 C18.000,4.755 14.186,0.999 9.500,0.999 ZM12.500,8.999 L6.500,8.999 C6.224,8.999 6.000,8.776 6.000,8.499 C6.000,8.223 6.224,7.999 6.500,7.999 L12.500,7.999 C12.776,7.999 13.000,8.223 13.000,8.499 C13.000,8.776 12.776,8.999 12.500,8.999 Z" class="cls-1"/>
</svg>
