<svg xmlns="http://www.w3.org/2000/svg" xmlns:xlink="http://www.w3.org/1999/xlink" preserveAspectRatio="xMidYMid" width="25" height="25" viewBox="0 0 25 25">
  <defs>
    <style>
      .cls-1 {
        fill: #3c4042;
        fill-rule: evenodd;
      }
    </style>
  </defs>
  <path d="M24.000,8.409 L24.000,8.997 L23.854,8.997 C22.445,14.521 19.334,21.809 12.500,25.000 C5.665,21.809 2.554,14.521 1.146,8.997 L1.000,8.997 L1.000,8.408 C0.125,4.751 -0.000,2.002 -0.000,2.002 C2.026,3.217 3.844,3.667 5.422,3.667 C9.930,3.667 12.500,-0.001 12.500,-0.001 C12.500,-0.001 15.070,3.667 19.577,3.667 C21.156,3.667 22.973,3.218 25.000,2.002 C25.000,2.002 24.874,4.752 24.000,8.409 ZM12.500,23.888 C18.570,20.818 21.447,14.176 22.807,8.997 L2.198,8.997 C3.560,14.177 6.438,20.822 12.500,23.888 ZM19.577,4.668 C16.099,4.668 13.680,2.744 12.500,1.532 C11.320,2.744 8.901,4.668 5.422,4.668 C4.029,4.668 2.605,4.353 1.171,3.731 C1.306,4.804 1.544,6.298 1.944,7.997 L23.059,7.997 C23.459,6.297 23.696,4.804 23.830,3.730 C22.396,4.353 20.971,4.668 19.577,4.668 Z" class="cls-1"/>
</svg>
