<svg xmlns="http://www.w3.org/2000/svg" xmlns:xlink="http://www.w3.org/1999/xlink" preserveAspectRatio="xMidYMid" width="25" height="23" viewBox="0 0 25 23">
  <defs>
    <style>
      .cls-1 {
        fill: #3c4042;
        fill-rule: evenodd;
      }
    </style>
  </defs>
  <path d="M18.000,17.999 L12.000,21.999 L6.000,19.999 L-0.000,22.999 L-0.000,4.580 L6.000,1.999 L12.000,4.999 L18.000,-0.001 L25.000,4.000 L25.000,21.999 L18.000,17.999 ZM24.000,4.534 L18.066,1.245 L12.640,5.767 L12.169,6.159 L11.606,5.918 L6.000,3.087 L1.000,5.238 L1.000,21.381 L5.552,19.104 L5.901,18.930 L6.275,19.037 L11.830,20.910 L17.445,17.167 L18.000,16.797 L18.554,17.167 L24.000,20.131 L24.000,4.534 ZM18.000,14.499 L18.000,4.499 C18.000,4.223 18.224,4.000 18.500,4.000 C18.776,4.000 19.000,4.223 19.000,4.499 L19.000,14.499 C19.000,14.775 18.776,14.999 18.500,14.999 C18.224,14.999 18.000,14.775 18.000,14.499 ZM12.500,17.999 C12.224,17.999 12.000,17.776 12.000,17.499 L12.000,8.499 C12.000,8.223 12.224,7.999 12.500,7.999 C12.776,7.999 13.000,8.223 13.000,8.499 L13.000,17.499 C13.000,17.776 12.776,17.999 12.500,17.999 ZM6.500,16.999 C6.224,16.999 6.000,16.776 6.000,16.499 L6.000,6.499 C6.000,6.223 6.224,5.999 6.500,5.999 C6.776,5.999 7.000,6.223 7.000,6.499 L7.000,16.499 C7.000,16.776 6.776,16.999 6.500,16.999 Z" class="cls-1"/>
</svg>
