<svg xmlns="http://www.w3.org/2000/svg" xmlns:xlink="http://www.w3.org/1999/xlink" preserveAspectRatio="xMidYMid" width="20" height="24" viewBox="0 0 20 24">
  <defs>
    <style>
      .cls-1 {
        fill: #3c4042;
        fill-rule: evenodd;
      }
    </style>
  </defs>
  <path d="M16.000,15.999 L16.000,21.999 C16.000,23.104 15.105,23.999 14.000,23.999 L10.000,23.999 C8.895,23.999 8.000,23.104 8.000,21.999 L8.000,15.999 L3.076,15.999 L-0.000,10.499 L3.076,4.999 L8.000,4.999 L8.000,1.999 C8.000,0.895 8.895,-0.001 10.000,-0.001 L14.000,-0.001 C15.105,-0.001 16.000,0.895 16.000,1.999 L16.000,4.999 L20.000,4.999 L20.000,15.999 L16.000,15.999 ZM9.000,21.999 C9.000,22.551 9.448,22.999 10.000,22.999 L14.000,22.999 C14.552,22.999 15.000,22.551 15.000,21.999 L15.000,15.999 L9.000,15.999 L9.000,21.999 ZM15.000,1.999 C15.000,1.447 14.552,0.999 14.000,0.999 L10.000,0.999 C9.448,0.999 9.000,1.447 9.000,1.999 L9.000,4.999 L15.000,4.999 L15.000,1.999 ZM19.000,5.999 L3.663,5.999 L1.146,10.499 L3.663,14.999 L19.000,14.999 L19.000,5.999 Z" class="cls-1"/>
</svg>
