<svg xmlns="http://www.w3.org/2000/svg" xmlns:xlink="http://www.w3.org/1999/xlink" preserveAspectRatio="xMidYMid" width="25" height="25" viewBox="0 0 25 25">
  <defs>
    <style>
      .cls-1 {
        fill: #3c4042;
        fill-rule: evenodd;
      }
    </style>
  </defs>
  <path d="M17.000,24.999 L17.000,23.999 L23.556,23.999 L21.306,17.999 L20.000,17.999 L20.000,16.999 L22.000,16.999 L25.000,24.999 L17.000,24.999 ZM3.000,9.374 C3.000,4.197 7.253,-0.001 12.500,-0.001 C17.747,-0.001 22.000,4.197 22.000,9.374 C22.000,14.552 12.500,25.000 12.500,25.000 C12.500,25.000 3.000,14.552 3.000,9.374 ZM12.500,0.999 C7.813,0.999 4.000,4.755 4.000,9.374 C4.000,12.970 9.581,20.134 12.500,23.492 C15.419,20.133 21.000,12.967 21.000,9.374 C21.000,4.755 17.186,0.999 12.500,0.999 ZM9.000,7.497 C9.000,5.564 10.567,3.997 12.500,3.997 C14.433,3.997 16.000,5.564 16.000,7.497 C16.000,9.431 14.433,10.997 12.500,10.997 C10.567,10.997 9.000,9.431 9.000,7.497 ZM15.000,7.497 C15.000,6.116 13.880,4.997 12.500,4.997 C11.119,4.997 10.000,6.116 10.000,7.497 C10.000,8.878 11.119,9.996 12.500,9.996 C13.880,9.996 15.000,8.878 15.000,7.497 ZM5.000,16.999 L5.000,17.999 L3.693,17.999 L1.443,23.999 L8.000,23.999 L8.000,24.999 L-0.000,24.999 L3.000,16.999 L5.000,16.999 Z" class="cls-1"/>
</svg>
