<svg xmlns="http://www.w3.org/2000/svg" xmlns:xlink="http://www.w3.org/1999/xlink" preserveAspectRatio="xMidYMid" width="19" height="25" viewBox="0 0 19 25">
  <defs>
    <style>
      .cls-1 {
        fill: #3c4042;
        fill-rule: evenodd;
      }
    </style>
  </defs>
  <path d="M9.500,24.999 C9.500,24.999 -0.000,14.551 -0.000,9.375 C-0.000,4.197 4.254,-0.000 9.500,-0.000 C14.747,-0.000 19.000,4.197 19.000,9.375 C19.000,14.551 9.500,24.999 9.500,24.999 ZM9.500,1.000 C4.813,1.000 1.000,4.757 1.000,9.375 C1.000,12.969 6.581,20.134 9.500,23.492 C12.419,20.133 18.000,12.967 18.000,9.375 C18.000,4.757 14.186,1.000 9.500,1.000 ZM9.500,13.999 C7.015,13.999 5.000,11.984 5.000,9.499 C5.000,7.014 7.015,4.999 9.500,4.999 C11.985,4.999 14.000,7.014 14.000,9.499 C14.000,11.984 11.985,13.999 9.500,13.999 ZM9.500,5.999 C7.567,5.999 6.000,7.566 6.000,9.499 C6.000,11.431 7.567,12.999 9.500,12.999 C11.433,12.999 13.000,11.431 13.000,9.499 C13.000,7.566 11.433,5.999 9.500,5.999 Z" class="cls-1"/>
</svg>
