<svg xmlns="http://www.w3.org/2000/svg" xmlns:xlink="http://www.w3.org/1999/xlink" preserveAspectRatio="xMidYMid" width="25" height="25" viewBox="0 0 25 25">
  <defs>
    <style>
      .cls-1 {
        fill: #3c4042;
        fill-rule: evenodd;
      }
    </style>
  </defs>
  <path d="M12.500,24.998 C5.596,24.998 -0.000,19.400 -0.000,12.497 C-0.000,5.593 5.596,-0.003 12.500,-0.003 C19.403,-0.003 25.000,5.593 25.000,12.497 C25.000,19.400 19.403,24.998 12.500,24.998 ZM12.500,0.997 C6.149,0.997 1.000,6.146 1.000,12.497 C1.000,18.848 6.149,23.996 12.500,23.996 C18.851,23.996 24.000,18.848 24.000,12.497 C24.000,6.146 18.851,0.997 12.500,0.997 ZM6.011,18.999 L10.336,10.332 L18.988,5.997 L14.663,14.667 L6.011,18.999 ZM13.391,14.141 L10.861,11.611 L8.335,16.672 L13.391,14.141 ZM11.590,10.867 L14.129,13.407 L16.664,8.325 L11.590,10.867 Z" class="cls-1"/>
</svg>
