<svg xmlns="http://www.w3.org/2000/svg" xmlns:xlink="http://www.w3.org/1999/xlink" preserveAspectRatio="xMidYMid" width="23" height="25" viewBox="0 0 23 25">
  <defs>
    <style>
      .cls-1 {
        fill: #3c4042;
        fill-rule: evenodd;
      }
    </style>
  </defs>
  <path d="M19.071,24.999 L3.928,24.999 C1.758,24.999 -0.000,23.249 -0.000,21.092 L-0.000,3.904 C-0.000,1.747 1.758,-0.002 3.928,-0.002 L19.071,-0.002 C21.241,-0.002 23.000,1.747 23.000,3.904 L23.000,21.092 C23.000,23.249 21.241,24.999 19.071,24.999 ZM11.500,6.994 C8.466,6.994 6.006,9.457 6.006,12.495 C6.006,15.532 8.466,17.995 11.500,17.995 C14.534,17.995 16.993,15.532 16.993,12.495 C16.993,9.457 14.534,6.994 11.500,6.994 ZM21.000,1.999 L17.000,1.999 L17.000,5.998 L21.000,5.998 L21.000,1.999 ZM22.000,14.248 C22.000,14.163 21.981,14.083 21.975,13.998 L21.999,13.998 L21.999,10.998 L18.999,10.998 L18.999,11.015 C18.947,11.012 18.898,11.000 18.846,10.999 C18.944,11.483 18.996,11.985 18.996,12.499 C18.996,16.639 15.640,19.995 11.500,19.995 C7.359,19.995 4.003,16.639 4.003,12.499 C4.003,11.985 4.055,11.483 4.154,10.999 C4.101,11.000 4.052,11.012 3.999,11.015 L3.999,10.998 L1.000,10.998 L1.000,13.998 L1.024,13.998 C1.018,14.083 1.000,14.163 1.000,14.248 L1.000,20.748 C1.000,22.543 2.416,23.998 4.164,23.998 L18.835,23.998 C20.583,23.998 22.000,22.543 22.000,20.748 L22.000,14.248 Z" class="cls-1"/>
</svg>
