<svg xmlns="http://www.w3.org/2000/svg" xmlns:xlink="http://www.w3.org/1999/xlink" preserveAspectRatio="xMidYMid" width="25" height="23" viewBox="0 0 25 23">
  <defs>
    <style>
      .cls-1 {
        fill: #3c4042;
        fill-rule: evenodd;
      }
    </style>
  </defs>
  <path d="M17.968,16.865 L13.281,13.032 L19.531,9.198 L25.000,12.266 L17.968,16.865 ZM12.500,3.831 L17.968,-0.002 L25.000,4.598 L19.531,9.198 L12.500,3.831 ZM7.031,16.865 L-0.000,12.266 L5.468,8.432 L12.500,13.032 L7.031,16.865 ZM-0.000,4.598 L7.031,-0.002 L12.500,3.831 L5.468,8.432 L-0.000,4.598 ZM12.500,14.565 L13.281,14.565 L17.968,18.398 L20.312,16.609 L20.312,17.632 L12.500,22.998 L4.687,17.632 L4.687,16.099 L7.031,17.632 L12.500,14.565 Z" class="cls-1"/>
</svg>
