<svg xmlns="http://www.w3.org/2000/svg" xmlns:xlink="http://www.w3.org/1999/xlink" preserveAspectRatio="xMidYMid" width="23" height="23" viewBox="0 0 23 23">
  <defs>
    <style>
      .cls-1 {
        fill: #3c4042;
        fill-rule: evenodd;
      }
    </style>
  </defs>
  <path d="M11.500,22.997 C5.148,22.997 -0.000,17.850 -0.000,11.498 C-0.000,5.147 5.148,-0.002 11.500,-0.002 C17.851,-0.002 23.000,5.147 23.000,11.498 C23.000,17.850 17.851,22.997 11.500,22.997 ZM20.602,12.784 C19.470,12.502 17.341,12.121 14.921,12.416 C16.201,15.728 16.718,18.322 16.835,18.984 C18.841,17.552 20.243,15.336 20.602,12.784 ZM15.187,19.924 C14.724,17.387 13.916,14.990 12.997,12.797 C10.404,13.518 7.708,15.179 5.681,18.622 C7.266,19.919 9.291,20.698 11.500,20.698 C12.812,20.698 14.058,20.419 15.187,19.924 ZM2.300,11.498 C2.300,13.719 3.087,15.756 4.397,17.346 C5.410,15.665 7.864,12.437 12.294,11.185 C12.003,10.564 11.710,9.943 11.412,9.370 C7.234,10.985 4.086,11.110 2.338,10.972 C2.328,11.148 2.300,11.319 2.300,11.498 ZM2.584,9.312 C4.920,9.333 7.999,8.929 10.655,7.977 C9.434,5.811 8.276,4.134 7.578,3.185 C5.103,4.355 3.250,6.599 2.584,9.312 ZM11.500,2.298 C10.743,2.298 10.012,2.399 9.309,2.571 C10.550,4.086 11.588,5.664 12.471,7.219 C14.878,6.082 16.449,4.880 17.165,4.259 C15.602,3.035 13.639,2.298 11.500,2.298 ZM18.529,5.569 C16.637,6.849 14.862,7.842 13.218,8.602 C13.600,9.348 13.940,10.079 14.251,10.791 C16.102,10.555 18.238,10.665 20.681,11.290 C20.631,9.113 19.839,7.120 18.529,5.569 Z" class="cls-1"/>
</svg>
