<svg xmlns="http://www.w3.org/2000/svg" xmlns:xlink="http://www.w3.org/1999/xlink" preserveAspectRatio="xMidYMid" width="20" height="20" viewBox="0 0 20 20">
  <defs>
    <style>
      .cls-1 {
        fill: #3c4042;
        fill-rule: evenodd;
      }
    </style>
  </defs>
  <path d="M10.000,19.998 C4.477,19.998 -0.000,15.521 -0.000,9.998 C-0.000,4.475 4.477,-0.002 10.000,-0.002 C15.523,-0.002 20.000,4.475 20.000,9.998 C20.000,15.521 15.523,19.998 10.000,19.998 ZM10.000,3.094 C6.186,3.094 3.095,6.185 3.095,9.998 C3.095,11.742 3.653,13.138 4.615,13.076 C5.577,13.012 8.138,13.843 7.692,6.922 C12.753,7.690 13.846,11.536 13.846,11.536 C13.846,11.536 14.615,13.076 15.384,13.076 C16.154,13.076 16.923,10.768 16.904,9.998 C16.812,6.186 13.813,3.094 10.000,3.094 Z" class="cls-1"/>
</svg>
