<svg xmlns="http://www.w3.org/2000/svg" xmlns:xlink="http://www.w3.org/1999/xlink" preserveAspectRatio="xMidYMid" width="18" height="19" viewBox="0 0 18 19">
  <defs>
    <style>
      .cls-1 {
        fill: #3c4042;
        fill-rule: evenodd;
      }
    </style>
  </defs>
  <path d="M15.280,10.729 C13.470,12.117 10.941,12.808 7.692,12.808 L6.931,12.808 C6.358,12.808 5.788,13.282 5.659,13.858 L4.745,17.955 C4.618,18.535 4.045,19.007 3.474,19.007 L0.808,19.007 C0.237,19.007 -0.126,18.535 0.004,17.955 L3.756,1.053 C3.887,0.474 4.457,0.004 5.031,0.004 L10.581,0.004 C11.780,0.004 12.823,0.089 13.715,0.259 C14.604,0.430 15.372,0.722 16.026,1.143 C16.664,1.557 17.154,2.100 17.489,2.765 C17.828,3.434 17.996,4.264 17.996,5.259 C17.996,7.522 17.090,9.345 15.280,10.729 ZM8.820,9.178 C10.046,9.121 11.028,8.832 11.745,8.289 C12.545,7.682 12.948,6.815 12.948,5.693 C12.948,6.541 13.143,4.713 12.172,4.050 C11.655,3.691 10.884,3.511 9.867,3.511 L8.994,3.511 C8.425,3.511 7.853,3.983 7.723,4.562 L6.922,8.148 C6.796,8.727 7.158,9.202 7.730,9.202 L8.820,9.178 Z" class="cls-1"/>
</svg>
