<svg xmlns="http://www.w3.org/2000/svg" xmlns:xlink="http://www.w3.org/1999/xlink" preserveAspectRatio="xMidYMid" width="21" height="25.03" viewBox="0 0 21 25.03">
  <defs>
    <style>
      .cls-1 {
        fill: #3c4042;
        fill-rule: evenodd;
      }
    </style>
  </defs>
  <path d="M1.837,4.582 C1.837,4.582 1.837,4.582 1.838,4.582 L4.383,4.582 C4.528,4.582 4.646,4.462 4.646,4.316 C4.646,4.315 4.615,2.110 4.615,1.496 L4.615,1.490 C4.615,0.986 4.720,0.547 4.902,0.179 L4.989,0.014 C4.979,0.015 4.969,0.020 4.959,0.030 L0.016,4.988 C0.006,4.995 0.000,5.005 -0.002,5.016 C0.100,4.966 0.240,4.896 0.259,4.887 C0.690,4.690 1.212,4.582 1.837,4.582 ZM20.418,4.379 C20.231,3.380 19.636,2.889 19.097,2.695 C18.518,2.486 17.340,2.269 15.862,2.096 C14.673,1.956 13.274,1.967 12.430,1.993 C12.328,1.301 11.841,0.668 11.296,0.449 C9.845,-0.134 7.602,0.007 7.026,0.168 C6.568,0.296 6.062,0.557 5.780,0.960 C5.591,1.229 5.468,1.573 5.468,2.056 C5.468,2.327 5.475,2.970 5.482,3.541 C5.489,4.113 5.497,4.625 5.497,4.629 C5.496,5.138 5.082,5.553 4.569,5.554 L2.215,5.554 C1.713,5.554 1.330,5.638 1.037,5.770 C0.743,5.903 0.535,6.082 0.377,6.294 C0.063,6.716 0.009,7.235 0.010,7.765 C0.010,7.765 0.014,8.198 0.119,9.037 C0.206,9.686 0.911,14.218 1.582,15.597 C1.841,16.133 2.014,16.356 2.524,16.593 C3.662,17.078 6.259,17.619 7.476,17.773 C8.691,17.928 9.454,18.253 9.908,17.303 C9.910,17.300 10.000,17.067 10.122,16.724 C10.517,15.530 10.572,14.472 10.572,13.707 C10.572,13.629 10.687,13.625 10.687,13.707 C10.687,14.248 10.583,16.161 12.032,16.674 C12.604,16.876 13.790,17.057 14.996,17.198 C16.086,17.323 16.877,17.751 16.877,20.541 C16.877,22.238 16.520,22.470 14.652,22.470 C13.137,22.470 12.560,22.510 12.560,21.310 C12.560,20.339 13.522,20.441 14.234,20.441 C14.553,20.441 14.322,20.205 14.322,19.606 C14.322,19.011 14.695,18.667 14.342,18.657 C11.877,18.590 10.427,18.654 10.427,21.730 C10.427,24.522 11.498,25.040 14.996,25.040 C17.739,25.040 18.705,24.951 19.838,21.445 C20.063,20.753 20.604,18.642 20.933,15.096 C21.140,12.854 20.737,6.087 20.418,4.379 ZM15.636,11.858 C15.297,11.846 14.971,11.868 14.667,11.917 C14.753,11.228 15.038,10.382 16.048,10.417 C17.166,10.456 17.323,11.510 17.327,12.224 C16.856,12.015 16.272,11.880 15.636,11.858 Z" class="cls-1"/>
</svg>
