<svg xmlns="http://www.w3.org/2000/svg" xmlns:xlink="http://www.w3.org/1999/xlink" preserveAspectRatio="xMidYMid" width="25" height="20" viewBox="0 0 25 20">
  <defs>
    <style>
      .cls-1 {
        fill: #575b5e;
        fill-rule: evenodd;
      }
    </style>
  </defs>
  <path d="M24.031,18.902 C23.377,19.631 22.457,20.000 21.297,20.000 L16.999,20.000 L16.999,20.003 L8.001,20.003 L8.001,20.000 L3.689,20.000 C2.528,20.000 1.607,19.631 0.952,18.901 C-0.102,17.727 -0.031,16.031 -0.008,15.720 L-0.008,3.783 C-0.109,2.792 0.423,0.628 3.188,0.077 C3.452,0.025 3.730,-0.003 4.014,-0.003 C6.626,-0.003 9.667,2.201 12.608,4.687 C15.825,1.898 19.122,-0.463 21.829,0.085 C24.560,0.644 25.086,2.837 24.983,3.917 L24.983,4.999 L25.000,4.999 L25.010,6.399 L25.010,16.000 C25.034,16.311 25.086,17.728 24.031,18.902 ZM15.910,19.002 C15.641,17.217 14.277,15.996 12.497,15.996 C10.690,15.996 9.354,17.191 9.089,19.002 L15.910,19.002 ZM24.000,3.999 C24.024,3.644 23.460,1.462 21.515,1.050 C19.198,0.556 15.617,3.479 13.575,5.506 C15.032,6.741 17.346,8.546 19.518,8.546 C21.088,8.546 22.903,6.963 24.000,4.999 L24.000,3.999 ZM24.011,16.075 L24.008,16.037 L24.008,16.000 L24.008,6.699 C22.792,8.589 21.284,9.546 19.518,9.546 C16.736,9.546 13.959,7.160 12.468,5.879 C9.657,3.465 6.455,0.997 4.014,0.997 C3.798,0.997 3.586,1.018 3.385,1.058 C0.805,1.572 0.987,3.661 0.989,3.681 L0.994,3.732 L0.994,3.783 L0.994,15.720 L0.994,15.756 L0.992,15.793 C0.980,15.949 0.904,17.348 1.699,18.234 C2.162,18.749 2.813,19.000 3.689,19.000 L8.096,19.000 C8.373,16.733 10.063,14.995 12.497,14.995 C14.930,14.995 16.625,16.733 16.903,19.000 L21.297,19.000 C22.172,19.000 22.822,18.751 23.284,18.235 C24.066,17.366 24.026,16.283 24.011,16.075 Z" class="cls-1"/>
</svg>
