<svg xmlns="http://www.w3.org/2000/svg" xmlns:xlink="http://www.w3.org/1999/xlink" preserveAspectRatio="xMidYMid" width="21.062" height="20.15" viewBox="0 0 21.062 20.15">
  <defs>
    <style>
      .cls-1 {
        fill: #3c4042;
        fill-rule: evenodd;
      }
    </style>
  </defs>
  <path d="M21.074,10.068 C21.074,11.515 20.749,12.887 20.175,14.131 L16.740,14.131 L16.740,1.938 C19.363,3.770 21.074,6.725 21.074,10.068 ZM15.742,1.317 L15.742,8.118 L8.086,0.278 C8.873,0.098 9.689,-0.006 10.533,-0.006 C12.430,-0.006 14.205,0.479 15.742,1.317 ZM0.804,13.944 L5.669,9.294 L5.669,19.001 C3.489,17.914 1.756,16.126 0.804,13.944 ZM6.761,15.125 L19.640,15.125 C17.814,18.123 14.425,20.143 10.533,20.143 C9.202,20.143 7.934,19.898 6.761,19.467 L6.761,15.125 ZM9.723,3.868 L0.392,12.787 C0.138,11.921 -0.007,11.011 -0.007,10.068 C-0.007,5.878 2.671,2.287 6.479,0.768 L6.480,0.768 L9.723,3.868 Z" class="cls-1"/>
</svg>
