<svg xmlns="http://www.w3.org/2000/svg" xmlns:xlink="http://www.w3.org/1999/xlink" preserveAspectRatio="xMidYMid" width="25" height="20" viewBox="0 0 25 20">
  <defs>
    <style>
      .cls-1 {
        fill: #3c4042;
        fill-rule: evenodd;
      }
    </style>
  </defs>
  <path d="M23.585,6.558 C21.701,4.665 18.647,4.665 16.764,6.558 L9.090,14.270 C8.619,14.744 8.619,15.511 9.090,15.984 C9.561,16.458 10.325,16.458 10.795,15.984 L18.469,8.272 C19.411,7.326 20.938,7.326 21.879,8.272 C22.821,9.218 22.821,10.753 21.879,11.700 L14.354,19.264 C15.295,20.211 16.822,20.211 17.764,19.264 L23.585,13.413 C25.468,11.520 25.468,8.452 23.585,6.558 ZM21.027,9.129 C20.556,8.656 19.792,8.656 19.322,9.129 L11.648,16.841 C10.706,17.787 9.179,17.787 8.238,16.841 C7.767,16.368 7.003,16.368 6.533,16.841 C6.061,17.314 6.061,18.081 6.533,18.555 C8.416,20.448 11.470,20.448 13.354,18.555 L21.027,10.843 C21.498,10.370 21.498,9.602 21.027,9.129 ZM18.469,1.417 C16.585,-0.476 13.532,-0.476 11.648,1.417 L3.975,9.129 C3.504,9.602 3.504,10.370 3.975,10.843 C4.445,11.316 5.209,11.316 5.680,10.843 L13.354,3.130 C14.295,2.184 15.822,2.184 16.763,3.130 C17.235,3.604 17.998,3.604 18.469,3.130 C18.940,2.657 18.940,1.890 18.469,1.417 ZM15.911,3.987 C15.440,3.515 14.677,3.515 14.206,3.987 L6.533,11.700 C5.590,12.646 4.064,12.646 3.122,11.700 C2.180,10.753 2.180,9.218 3.122,8.272 L10.648,0.708 C9.706,-0.239 8.179,-0.239 7.238,0.708 L1.417,6.558 C-0.467,8.452 -0.467,11.520 1.417,13.413 C3.300,15.307 6.354,15.307 8.238,13.413 L15.911,5.701 C16.382,5.229 16.382,4.461 15.911,3.987 Z" class="cls-1"/>
</svg>
