<svg xmlns="http://www.w3.org/2000/svg" xmlns:xlink="http://www.w3.org/1999/xlink" preserveAspectRatio="xMidYMid" width="25" height="20" viewBox="0 0 25 20">
  <defs>
    <style>
      .cls-1 {
        fill: #3c4042;
        fill-rule: evenodd;
      }
    </style>
  </defs>
  <path d="M21.724,8.409 C21.815,8.928 21.875,9.456 21.875,9.998 C21.875,14.614 16.406,19.998 11.718,19.998 C6.250,19.998 -0.000,15.383 -0.000,9.998 C-0.000,5.383 5.468,-0.001 10.937,-0.001 C12.025,-0.001 13.072,0.149 14.062,0.421 L14.062,6.525 C12.986,6.117 11.653,6.031 10.302,6.374 C7.553,7.071 5.784,9.259 6.351,11.260 C6.918,13.263 9.605,14.320 12.354,13.623 C14.170,13.162 15.541,12.047 16.110,10.767 L16.406,10.767 L16.406,9.526 C16.406,9.504 16.406,9.483 16.406,9.461 L16.406,1.369 C16.518,1.428 16.638,1.474 16.747,1.537 L17.187,1.537 L17.288,1.867 C17.668,2.116 18.028,2.387 18.369,2.677 C20.407,3.811 23.500,5.383 25.000,5.383 C25.000,5.383 23.455,7.280 21.724,8.409 Z" class="cls-1"/>
</svg>
