<svg xmlns="http://www.w3.org/2000/svg" xmlns:xlink="http://www.w3.org/1999/xlink" preserveAspectRatio="xMidYMid" width="24.969" height="25" viewBox="0 0 24.969 25">
  <defs>
    <style>
      .cls-1 {
        fill: #3c4042;
        fill-rule: evenodd;
      }
    </style>
  </defs>
  <path d="M8.371,6.930 L12.913,6.930 L12.913,14.430 C12.913,14.430 19.619,16.366 20.520,10.386 C20.665,3.749 12.553,3.784 12.553,3.784 C12.553,3.784 7.470,3.473 4.946,7.378 C3.035,10.490 5.487,13.290 5.487,13.290 L2.206,16.090 C2.206,16.090 -2.733,10.247 2.098,3.922 C8.371,-2.888 18.988,1.204 18.988,1.204 C18.988,1.204 27.190,4.406 24.378,12.910 C20.485,20.652 12.950,17.783 12.950,17.783 L12.950,21.656 C12.950,21.656 12.661,23.798 9.993,24.732 C7.325,25.666 4.874,23.902 4.874,23.902 L4.874,19.996 C6.092,21.189 7.724,21.869 8.371,20.135 L8.371,6.930 L8.371,6.930 Z" class="cls-1"/>
</svg>
