<svg xmlns="http://www.w3.org/2000/svg" xmlns:xlink="http://www.w3.org/1999/xlink" preserveAspectRatio="xMidYMid" width="25" height="21.85" viewBox="0 0 25 21.85">
  <defs>
    <style>
      .cls-1 {
        fill: #3c4042;
        fill-rule: evenodd;
      }
    </style>
  </defs>
  <path d="M7.196,1.219 C7.196,1.219 9.449,0.177 10.345,1.839 C11.061,2.331 10.775,9.246 11.133,11.277 C11.491,13.307 12.709,14.422 13.497,13.636 C15.074,12.063 15.074,12.063 17.438,8.917 C19.517,6.151 17.187,5.586 16.650,5.771 C16.113,5.956 13.271,6.215 14.285,4.984 C15.300,3.754 18.358,1.298 19.015,1.051 C20.268,0.191 22.980,-0.794 24.532,1.051 C25.320,2.626 25.132,4.898 23.744,8.130 C21.379,13.636 11.494,21.365 11.494,21.365 C11.494,21.365 7.657,22.807 6.404,20.714 C5.150,18.623 4.827,9.489 4.827,8.130 C4.827,5.771 4.039,6.557 2.463,7.344 C1.758,7.696 -0.539,7.830 0.098,6.557 C0.886,4.984 6.659,1.650 7.196,1.219 Z" class="cls-1"/>
</svg>
