<svg xmlns="http://www.w3.org/2000/svg" xmlns:xlink="http://www.w3.org/1999/xlink" preserveAspectRatio="xMidYMid" width="22" height="22" viewBox="0 0 22 22">
  <defs>
    <style>
      .cls-1 {
        fill: #3c4042;
        fill-rule: evenodd;
      }
    </style>
  </defs>
  <path d="M19.904,21.998 L2.095,21.998 C0.938,21.998 -0.000,21.061 -0.000,19.903 L-0.000,2.094 C-0.000,0.936 0.938,-0.001 2.095,-0.001 L19.904,-0.001 C21.062,-0.001 22.000,0.936 22.000,2.094 L22.000,19.903 C22.000,21.061 21.062,21.998 19.904,21.998 ZM5.421,4.706 C4.518,4.706 3.927,5.379 3.927,6.264 C3.927,7.130 4.500,7.823 5.386,7.823 L5.403,7.823 C6.324,7.823 6.897,7.130 6.897,6.264 C6.880,5.379 6.324,4.706 5.421,4.706 ZM7.065,8.798 L4.083,8.798 L4.083,18.075 L7.065,18.075 L7.065,8.798 ZM18.849,12.939 C18.849,10.187 17.424,8.652 15.394,8.652 C13.755,8.652 13.023,9.523 12.613,10.132 L12.613,8.863 L9.430,8.863 C9.470,9.704 9.430,18.075 9.430,18.075 L12.613,18.075 L12.613,13.072 C12.613,12.805 12.633,12.537 12.715,12.346 C12.938,11.811 13.446,11.257 14.298,11.257 C15.415,11.257 15.763,12.079 15.763,13.282 L15.763,18.075 L18.849,18.075 L18.849,12.939 ZM12.593,10.162 C12.599,10.152 12.607,10.141 12.613,10.132 L12.613,10.162 L12.593,10.162 Z" class="cls-1"/>
</svg>
