<svg xmlns="http://www.w3.org/2000/svg" xmlns:xlink="http://www.w3.org/1999/xlink" preserveAspectRatio="xMidYMid" width="25" height="25" viewBox="0 0 25 25">
  <defs>
    <style>
      .cls-1 {
        fill: #3c4042;
        fill-rule: evenodd;
      }
    </style>
  </defs>
  <path d="M12.500,-0.006 C5.594,-0.006 -0.005,5.592 -0.005,12.498 C-0.005,17.618 3.074,22.018 7.480,23.951 C7.445,23.078 7.474,22.030 7.698,21.080 C7.938,20.064 9.307,14.266 9.307,14.266 C9.307,14.266 8.907,13.468 8.907,12.288 C8.907,10.435 9.982,9.051 11.319,9.051 C12.456,9.051 13.006,9.905 13.006,10.929 C13.006,12.072 12.277,13.781 11.902,15.365 C11.588,16.692 12.567,17.774 13.875,17.774 C16.245,17.774 17.840,14.731 17.840,11.126 C17.840,8.385 15.994,6.334 12.637,6.334 C8.844,6.334 6.481,9.163 6.481,12.322 C6.481,13.412 6.802,14.180 7.305,14.775 C7.536,15.049 7.569,15.158 7.485,15.472 C7.425,15.701 7.287,16.256 7.230,16.475 C7.147,16.792 6.890,16.905 6.604,16.788 C4.857,16.075 4.043,14.162 4.043,12.011 C4.043,8.459 7.039,4.199 12.980,4.199 C17.754,4.199 20.896,7.655 20.896,11.363 C20.896,16.268 18.169,19.933 14.149,19.933 C12.799,19.933 11.529,19.202 11.094,18.374 C11.094,18.374 10.369,21.255 10.215,21.812 C9.950,22.776 9.431,23.740 8.956,24.491 C10.081,24.822 11.269,25.003 12.500,25.003 C19.405,25.003 25.004,19.404 25.004,12.498 C25.004,5.592 19.405,-0.006 12.500,-0.006 Z" class="cls-1"/>
</svg>
