<svg xmlns="http://www.w3.org/2000/svg" xmlns:xlink="http://www.w3.org/1999/xlink" preserveAspectRatio="xMidYMid" width="22" height="22" viewBox="0 0 22 22">
  <defs>
    <style>
      .cls-1 {
        fill: #3c4042;
        fill-rule: evenodd;
      }
    </style>
  </defs>
  <path d="M18.857,21.999 L3.143,21.999 C1.407,21.999 -0.000,20.591 -0.000,18.856 L-0.000,3.142 C-0.000,1.407 1.407,-0.001 3.143,-0.001 L18.857,-0.001 C20.593,-0.001 22.000,1.407 22.000,3.142 L22.000,18.856 C22.000,20.591 20.593,21.999 18.857,21.999 ZM17.004,6.329 C17.004,5.591 16.407,4.994 15.670,4.994 L6.330,4.994 C5.593,4.994 4.995,5.591 4.995,6.329 L4.995,15.669 C4.995,16.406 5.593,17.003 6.330,17.003 L15.670,17.003 C16.407,17.003 17.004,16.406 17.004,15.669 L17.004,6.329 ZM13.240,13.986 L8.759,13.986 C8.347,13.986 8.013,13.651 8.013,13.240 L8.013,8.758 C8.013,8.347 8.347,8.012 8.759,8.012 L13.240,8.012 C13.653,8.012 13.987,8.347 13.987,8.758 L13.987,13.240 C13.987,13.651 13.653,13.986 13.240,13.986 Z" class="cls-1"/>
</svg>
