<svg xmlns="http://www.w3.org/2000/svg" xmlns:xlink="http://www.w3.org/1999/xlink" preserveAspectRatio="xMidYMid" width="25" height="20" viewBox="0 0 25 20">
  <defs>
    <style>
      .cls-1 {
        fill: #3c4042;
        fill-rule: evenodd;
      }
    </style>
  </defs>
  <path d="M25.000,2.300 L22.656,4.602 C22.656,4.602 22.656,4.394 22.656,4.987 C22.656,5.407 22.587,5.809 22.487,6.199 C22.432,9.366 21.405,13.566 17.187,16.881 C8.889,23.401 -0.000,17.648 -0.000,17.648 C7.031,17.648 7.031,15.346 7.031,15.346 C5.468,15.346 2.343,12.276 2.343,12.276 C3.125,13.044 4.687,12.276 4.687,12.276 C0.781,9.974 0.781,7.672 0.781,7.672 C1.562,8.439 3.125,7.672 3.125,7.672 C-0.782,4.602 1.562,0.766 1.562,0.766 C2.343,4.602 12.500,6.137 12.500,6.137 L12.629,6.074 C12.549,5.723 12.500,4.978 12.500,4.602 C12.500,1.847 14.773,-0.002 17.578,-0.002 C19.121,-0.002 20.487,0.689 21.419,1.757 L21.875,1.533 L24.218,-0.002 L22.656,3.068 L25.000,2.300 Z" class="cls-1"/>
</svg>
