<svg xmlns="http://www.w3.org/2000/svg" xmlns:xlink="http://www.w3.org/1999/xlink" preserveAspectRatio="xMidYMid" width="20" height="25" viewBox="0 0 20 25">
  <defs>
    <style>
      .cls-1 {
        fill: #3c4042;
        fill-rule: evenodd;
      }
    </style>
  </defs>
  <path d="M19.772,19.518 C19.922,19.941 19.998,20.364 19.998,20.787 C19.998,23.186 17.922,24.986 15.471,24.986 C12.452,24.986 9.772,21.880 6.905,20.717 C5.470,20.151 3.924,19.836 2.377,19.836 C1.622,19.836 0.906,19.906 0.188,20.012 C0.076,19.623 -0.000,19.199 -0.000,18.778 C-0.000,17.683 0.453,16.589 1.245,15.779 C3.547,13.380 7.396,9.571 11.282,4.879 C9.395,5.020 8.038,5.054 7.207,5.054 C4.679,5.054 3.661,4.245 3.661,3.256 C3.661,2.480 4.528,1.069 5.395,0.012 C6.641,0.717 8.793,1.069 11.771,1.069 C14.489,1.069 16.186,0.857 18.451,0.434 C18.527,0.717 18.565,0.999 18.565,1.316 C18.565,2.127 18.263,2.938 17.659,3.610 C16.829,4.525 12.075,9.641 11.282,10.452 C9.131,12.708 6.830,14.614 5.358,16.484 C7.358,16.519 9.735,17.683 11.546,18.847 C13.244,19.941 15.471,20.577 16.942,20.577 C18.036,20.577 18.941,20.259 19.772,19.518 Z" class="cls-1"/>
</svg>
