<svg xmlns="http://www.w3.org/2000/svg" xmlns:xlink="http://www.w3.org/1999/xlink" preserveAspectRatio="xMidYMid" width="22" height="22" viewBox="0 0 22 22">
  <defs>
    <style>
      .cls-1 {
        fill: #3c4042;
        fill-rule: evenodd;
      }
    </style>
  </defs>
  <path d="M19.991,11.379 C19.986,11.381 19.982,11.383 19.979,11.382 C19.979,11.387 19.979,11.391 19.979,11.395 C17.755,12.493 14.903,12.816 12.107,10.357 C12.100,10.351 12.092,10.346 12.086,10.338 L14.119,2.340 C14.733,2.963 16.121,4.143 18.245,4.291 C19.312,4.365 20.563,4.178 21.995,3.530 L19.991,11.379 ZM2.499,8.973 L4.523,1.144 C7.894,-0.467 9.723,0.080 10.127,0.168 C11.177,0.421 12.699,1.345 12.699,1.345 L12.699,1.350 C12.286,2.959 11.063,7.725 10.652,9.312 C7.530,7.202 5.265,7.651 2.499,8.973 ZM10.189,11.137 C9.923,12.173 8.520,17.621 8.107,19.213 C5.037,17.127 2.721,17.586 -0.006,18.882 L2.003,10.952 C2.868,10.482 6.970,8.583 10.189,11.137 ZM19.411,13.459 L17.477,21.144 C15.871,21.831 14.591,22.060 13.523,21.987 C11.834,21.873 9.601,20.049 9.605,20.051 L11.611,12.131 C14.158,14.789 17.533,14.141 19.411,13.459 Z" class="cls-1"/>
</svg>
