<svg xmlns="http://www.w3.org/2000/svg" xmlns:xlink="http://www.w3.org/1999/xlink" preserveAspectRatio="xMidYMid" width="20" height="20" viewBox="0 0 20 20">
  <defs>
    <style>
      .cls-1 {
        fill: #3c4042;
        fill-rule: evenodd;
      }
    </style>
  </defs>
  <path d="M18.661,18.128 C18.390,18.346 18.106,18.313 17.944,18.155 C17.719,17.941 17.829,17.638 17.845,17.595 C17.950,17.313 18.108,16.886 18.238,16.459 C18.596,15.306 18.413,15.101 18.453,15.243 C18.450,15.240 18.444,15.237 18.436,15.232 C18.076,15.061 15.808,15.353 15.663,15.232 C15.497,15.096 15.368,14.716 15.777,14.400 C16.278,14.027 17.053,13.629 18.392,13.628 C19.688,13.634 19.906,13.982 19.923,14.002 L19.934,14.016 C19.934,14.016 20.447,16.480 18.661,18.128 ZM13.512,14.403 C13.144,14.718 13.010,14.574 12.779,14.403 C12.644,14.301 12.491,14.187 12.326,14.055 C12.164,13.934 11.190,12.814 11.190,12.710 C10.618,13.320 10.046,13.779 9.417,14.083 C8.788,14.389 8.101,14.541 7.415,14.541 C6.157,14.541 5.185,14.186 4.499,13.423 C3.755,12.610 3.412,11.644 3.412,10.423 C3.412,9.661 3.583,8.949 3.869,8.339 C4.212,7.729 4.670,6.870 5.242,6.514 C5.871,6.209 6.729,5.904 7.816,5.650 C9.302,5.345 10.332,5.041 10.903,4.787 L10.903,4.379 C10.903,3.667 10.790,3.611 10.446,3.305 C10.160,3.001 9.588,2.849 8.730,2.849 C8.159,2.849 7.701,2.950 7.415,3.204 C7.187,3.374 7.009,3.632 6.848,3.982 C6.700,4.304 6.519,4.557 5.938,4.432 C5.467,4.332 4.843,4.198 4.383,4.100 C3.817,3.981 3.723,3.770 4.093,2.848 C4.410,2.060 4.856,1.428 5.413,0.967 C6.214,0.357 7.415,0.001 8.959,0.001 C10.389,0.001 11.475,0.205 12.162,0.611 C12.848,1.018 13.362,1.476 13.649,2.085 C13.935,2.696 14.049,3.762 14.049,5.389 L14.096,9.360 C14.096,10.941 14.270,11.828 14.902,12.240 C15.203,12.435 15.319,12.692 14.828,13.114 C14.353,13.521 13.901,14.069 13.512,14.403 ZM10.903,7.577 C10.503,7.729 9.799,7.529 8.884,7.732 C8.026,7.935 7.238,8.455 6.952,8.659 C6.495,9.015 6.614,9.559 6.614,10.067 C6.614,10.576 6.786,11.033 7.129,11.388 C7.415,11.795 7.873,11.949 8.387,11.949 C8.959,11.949 9.531,11.745 10.046,11.338 C10.446,10.983 10.675,10.576 10.790,10.118 C10.903,9.763 10.903,9.202 10.903,8.288 L10.903,7.577 ZM16.840,16.033 C17.150,16.033 17.437,16.278 17.442,16.643 C17.443,16.849 17.335,17.046 17.177,17.172 C16.420,17.828 12.190,20.038 9.048,20.003 C5.906,19.968 2.685,17.901 0.186,15.562 C-0.124,15.298 -0.034,14.927 0.121,14.770 C0.327,14.558 0.594,14.633 0.733,14.711 C3.396,16.304 7.669,17.844 9.012,17.844 C12.546,17.844 15.196,16.468 16.840,16.033 Z" class="cls-1"/>
</svg>
