<svg xmlns="http://www.w3.org/2000/svg" xmlns:xlink="http://www.w3.org/1999/xlink" preserveAspectRatio="xMidYMid" width="14.969" height="25" viewBox="0 0 14.969 25">
  <defs>
    <style>
      .cls-1 {
        fill: #3c4042;
        fill-rule: evenodd;
      }
    </style>
  </defs>
  <path d="M13.940,24.999 C10.416,24.999 5.145,24.999 1.415,24.999 C-0.294,24.999 -0.294,24.999 0.422,23.603 C1.885,20.757 3.835,15.402 3.969,15.034 L3.969,14.998 L3.969,14.998 L3.969,7.999 L2.969,7.999 L2.969,6.999 L11.969,6.999 L11.969,7.999 L10.969,7.999 L10.969,14.998 L10.969,14.999 L10.981,14.999 C10.981,14.999 13.085,20.431 14.637,23.449 C15.434,24.999 14.630,24.999 13.940,24.999 ZM9.969,7.999 L4.969,7.999 L4.969,14.998 L9.969,14.998 L9.969,7.999 ZM13.747,23.905 C12.489,21.458 10.907,17.535 10.300,15.999 L4.680,15.999 C4.095,17.578 2.572,21.590 1.343,24.000 C1.367,24.000 1.391,24.000 1.415,24.000 L13.794,24.000 C13.780,23.970 13.765,23.938 13.747,23.905 ZM11.469,2.999 C10.640,2.999 9.969,2.327 9.969,1.498 C9.969,0.670 10.640,-0.002 11.469,-0.002 C12.297,-0.002 12.969,0.670 12.969,1.498 C12.969,2.327 12.297,2.999 11.469,2.999 ZM6.469,4.999 C5.640,4.999 4.969,4.327 4.969,3.499 C4.969,2.670 5.640,1.999 6.469,1.999 C7.297,1.999 7.969,2.670 7.969,3.499 C7.969,4.327 7.297,4.999 6.469,4.999 Z" class="cls-1"/>
</svg>
