<svg xmlns="http://www.w3.org/2000/svg" xmlns:xlink="http://www.w3.org/1999/xlink" preserveAspectRatio="xMidYMid" width="18.969" height="25" viewBox="0 0 18.969 25">
  <defs>
    <style>
      .cls-1 {
        fill: #3c4042;
        fill-rule: evenodd;
      }
    </style>
  </defs>
  <path d="M18.920,1.881 C18.701,2.683 17.862,3.159 17.047,2.945 C16.231,2.731 15.748,1.908 15.967,1.106 C16.186,0.305 17.025,-0.171 17.840,0.043 C18.656,0.257 19.139,1.081 18.920,1.881 ZM11.596,3.587 C10.781,3.373 10.297,2.550 10.516,1.748 C10.735,0.946 11.574,0.470 12.390,0.685 C13.205,0.899 13.688,1.722 13.469,2.524 C13.250,3.325 12.412,3.801 11.596,3.587 ZM16.217,7.911 L15.232,7.652 L13.382,14.423 L13.394,14.427 C13.394,14.427 14.029,20.224 14.758,23.544 C15.133,25.250 14.342,25.042 13.663,24.864 C10.194,23.953 5.005,22.590 1.334,21.626 C-0.349,21.183 -0.349,21.183 0.725,20.019 C2.918,17.645 6.252,12.970 6.482,12.648 L6.491,12.613 L6.491,12.613 L8.342,5.843 L7.358,5.584 L7.622,4.617 L16.481,6.943 L16.217,7.911 ZM1.527,20.640 C1.551,20.646 1.574,20.652 1.598,20.658 L13.783,23.859 C13.777,23.827 13.770,23.792 13.762,23.756 C13.171,21.064 12.651,16.861 12.459,15.217 L6.927,13.765 C5.933,15.140 3.374,18.627 1.527,20.640 ZM9.326,6.101 L7.476,12.871 L12.397,14.164 L14.248,7.394 L9.326,6.101 Z" class="cls-1"/>
</svg>
