<svg xmlns="http://www.w3.org/2000/svg" xmlns:xlink="http://www.w3.org/1999/xlink" preserveAspectRatio="xMidYMid" width="17" height="25" viewBox="0 0 17 25">
  <defs>
    <style>
      .cls-1 {
        fill: #3c4042;
        fill-rule: evenodd;
      }
    </style>
  </defs>
  <path d="M9.000,16.973 L9.000,19.999 L11.500,19.999 C11.776,19.999 12.000,20.223 12.000,20.500 C12.000,20.775 11.776,20.999 11.500,20.999 L9.000,20.999 L9.000,24.499 C9.000,24.776 8.776,24.999 8.500,24.999 C8.224,24.999 8.000,24.776 8.000,24.499 L8.000,20.999 L5.500,20.999 C5.224,20.999 5.000,20.775 5.000,20.500 C5.000,20.223 5.224,19.999 5.500,19.999 L8.000,19.999 L8.000,16.973 C3.540,16.715 -0.000,13.025 -0.000,8.498 C-0.000,3.804 3.804,-0.002 8.496,-0.002 C13.188,-0.002 16.992,3.804 16.992,8.498 C16.992,13.023 13.456,16.710 9.000,16.973 ZM8.496,0.998 C4.349,0.998 0.987,4.355 0.987,8.498 C0.987,12.640 4.349,15.998 8.496,15.998 C12.642,15.998 16.004,12.640 16.004,8.498 C16.004,4.355 12.642,0.998 8.496,0.998 Z" class="cls-1"/>
</svg>
