<svg xmlns="http://www.w3.org/2000/svg" xmlns:xlink="http://www.w3.org/1999/xlink" preserveAspectRatio="xMidYMid" width="25" height="25" viewBox="0 0 25 25">
  <defs>
    <style>
      .cls-1 {
        fill: #3c4042;
        fill-rule: evenodd;
      }
    </style>
  </defs>
  <path d="M23.437,24.998 L1.562,24.998 C0.699,24.998 -0.000,24.298 -0.000,23.436 L-0.000,1.560 C-0.000,0.698 0.699,-0.003 1.562,-0.003 L23.437,-0.003 C24.300,-0.003 25.000,0.698 25.000,1.560 L25.000,23.436 C25.000,24.298 24.300,24.998 23.437,24.998 ZM24.000,1.999 C24.000,1.446 23.552,0.999 23.000,0.999 L2.000,0.999 C1.448,0.999 1.000,1.446 1.000,1.999 L1.000,22.999 C1.000,23.551 1.448,23.999 2.000,23.999 L23.000,23.999 C23.552,23.999 24.000,23.551 24.000,22.999 L24.000,1.999 ZM12.500,7.999 C9.596,7.999 6.968,8.954 5.067,10.496 L4.411,9.749 C6.489,8.050 9.345,6.999 12.500,6.999 C15.658,6.999 18.517,8.052 20.595,9.754 L19.941,10.503 C18.039,8.957 15.408,7.999 12.500,7.999 ZM17.240,13.597 L16.587,14.345 C15.580,13.525 14.130,12.999 12.500,12.999 C10.879,12.999 9.436,13.519 8.429,14.330 L7.775,13.583 C8.960,12.614 10.632,11.999 12.500,11.999 C14.376,11.999 16.053,12.619 17.240,13.597 ZM14.117,17.174 L12.524,18.999 L10.915,17.165 C11.423,17.064 11.949,16.999 12.500,16.999 C13.063,16.999 13.599,17.068 14.117,17.174 Z" class="cls-1"/>
</svg>
