<svg xmlns="http://www.w3.org/2000/svg" xmlns:xlink="http://www.w3.org/1999/xlink" preserveAspectRatio="xMidYMid" width="21" height="24" viewBox="0 0 21 24">
  <defs>
    <style>
      .cls-1 {
        fill: #3c4042;
        fill-rule: evenodd;
      }
    </style>
  </defs>
  <path d="M10.000,20.949 L10.000,22.999 L12.500,22.999 C12.776,22.999 13.000,23.223 13.000,23.499 C13.000,23.776 12.776,23.999 12.500,23.999 L6.500,23.999 C6.224,23.999 6.000,23.776 6.000,23.499 C6.000,23.223 6.224,22.999 6.500,22.999 L9.000,22.999 L9.000,20.999 C7.962,20.999 6.960,20.853 6.000,20.606 L6.000,19.574 C6.955,19.845 7.958,19.999 9.000,19.999 C15.075,19.999 20.000,15.075 20.000,8.999 C20.000,5.275 18.144,1.989 15.312,-0.001 L16.919,-0.001 C19.416,2.199 21.000,5.410 21.000,8.999 C21.000,15.289 16.158,20.439 10.000,20.949 ZM17.992,9.027 C17.992,13.995 13.968,17.996 9.003,17.996 C4.037,17.996 0.012,13.995 0.012,9.027 C0.012,4.060 4.037,0.008 9.003,0.008 C13.968,0.008 17.992,4.060 17.992,9.027 ZM9.003,1.008 C4.595,1.008 1.009,4.622 1.009,9.030 C1.009,13.437 4.595,16.996 9.003,16.996 C13.410,16.996 16.995,13.437 16.995,9.030 C16.995,4.622 13.410,1.008 9.003,1.008 Z" class="cls-1"/>
</svg>
