<svg xmlns="http://www.w3.org/2000/svg" xmlns:xlink="http://www.w3.org/1999/xlink" preserveAspectRatio="xMidYMid" width="23" height="22" viewBox="0 0 23 22">
  <defs>
    <style>
      .cls-1 {
        fill: #3c4042;
        fill-rule: evenodd;
      }
    </style>
  </defs>
  <path d="M-0.000,21.999 L-0.000,17.999 L-0.000,16.999 L-0.000,6.165 L5.750,10.915 L9.222,6.136 C8.479,5.494 8.000,4.557 8.000,3.499 C8.000,1.566 9.567,-0.002 11.500,-0.002 C13.433,-0.002 15.000,1.566 15.000,3.499 C15.000,4.557 14.520,5.494 13.778,6.136 L17.250,10.915 L23.000,6.165 L23.000,16.999 L23.000,17.999 L23.000,21.999 L-0.000,21.999 ZM14.000,3.498 C14.000,2.118 12.881,0.998 11.500,0.998 C10.119,0.998 9.000,2.118 9.000,3.498 C9.000,4.879 10.119,5.998 11.500,5.998 C12.881,5.998 14.000,4.879 14.000,3.498 ZM22.000,8.289 L17.886,11.687 L17.066,12.364 L16.441,11.503 L12.939,6.682 C12.499,6.881 12.015,6.999 11.500,6.999 C10.985,6.999 10.500,6.881 10.060,6.682 L6.558,11.503 L5.933,12.364 L5.113,11.687 L1.000,8.289 L1.000,16.999 L22.000,16.999 L22.000,8.289 ZM22.000,17.999 L1.000,17.999 L1.000,21.000 L22.000,21.000 L22.000,17.999 Z" class="cls-1"/>
</svg>
