<svg xmlns="http://www.w3.org/2000/svg" xmlns:xlink="http://www.w3.org/1999/xlink" preserveAspectRatio="xMidYMid" width="25" height="25" viewBox="0 0 25 25">
  <defs>
    <style>
      .cls-1 {
        fill: #3c4042;
        fill-rule: evenodd;
      }
    </style>
  </defs>
  <path d="M21.957,3.011 C23.311,4.365 23.311,6.570 21.957,7.924 C21.905,7.975 21.847,8.016 21.790,8.059 L21.652,8.165 L20.786,8.859 L21.570,9.643 L23.712,11.784 C24.099,12.171 24.099,12.801 23.712,13.188 L13.184,23.715 C12.797,24.103 12.168,24.103 11.780,23.715 L1.253,13.188 C0.866,12.801 0.865,12.171 1.253,11.784 L3.379,9.658 C3.482,9.788 3.592,9.912 3.709,10.029 C5.451,11.771 8.284,11.771 10.026,10.029 C11.767,8.287 11.767,5.454 10.026,3.713 C9.908,3.595 9.784,3.485 9.655,3.382 L11.780,1.256 C12.167,0.869 12.797,0.869 13.184,1.256 L15.325,3.397 L16.109,4.181 L16.802,3.315 L16.906,3.181 C16.950,3.123 16.991,3.063 17.044,3.011 C18.398,1.656 20.603,1.656 21.957,3.011 M22.659,2.309 C20.915,0.565 18.087,0.565 16.342,2.309 C16.222,2.429 16.130,2.565 16.027,2.695 L13.886,0.555 C13.111,-0.220 11.854,-0.220 11.078,0.555 L8.026,3.607 C8.499,3.774 8.946,4.036 9.324,4.414 C10.681,5.770 10.680,7.971 9.324,9.327 C7.968,10.684 5.768,10.684 4.411,9.327 C4.033,8.949 3.771,8.502 3.604,8.029 L0.551,11.082 C-0.224,11.857 -0.224,13.114 0.551,13.890 L11.078,24.417 C11.854,25.192 13.111,25.192 13.886,24.417 L24.414,13.890 C25.189,13.114 25.189,11.857 24.414,11.082 L22.272,8.940 C22.402,8.837 22.539,8.746 22.659,8.626 C24.403,6.882 24.403,4.054 22.659,2.309 L22.659,2.309 Z" class="cls-1"/>
</svg>
