<svg xmlns="http://www.w3.org/2000/svg" xmlns:xlink="http://www.w3.org/1999/xlink" preserveAspectRatio="xMidYMid" width="25" height="25" viewBox="0 0 25 25">
  <defs>
    <style>
      .cls-1 {
        fill: #3c4042;
        fill-rule: evenodd;
      }
    </style>
  </defs>
  <path d="M23.437,24.999 L1.562,24.999 C0.699,24.999 -0.000,24.299 -0.000,23.436 L-0.000,1.561 C-0.000,0.698 0.699,-0.002 1.562,-0.002 L23.437,-0.002 C24.300,-0.002 25.000,0.698 25.000,1.561 L25.000,23.436 C25.000,24.299 24.300,24.999 23.437,24.999 ZM24.000,1.999 C24.000,1.447 23.552,0.999 23.000,0.999 L2.000,0.999 C1.448,0.999 1.000,1.447 1.000,1.999 L1.000,22.999 C1.000,23.552 1.448,23.999 2.000,23.999 L23.000,23.999 C23.552,23.999 24.000,23.552 24.000,22.999 L24.000,1.999 ZM18.000,19.999 L17.000,19.999 C16.448,19.999 16.000,19.551 16.000,18.998 L16.000,17.999 C16.000,17.447 16.448,16.999 17.000,16.999 L18.000,16.999 C18.552,16.999 19.000,17.447 19.000,17.999 L19.000,18.998 C19.000,19.551 18.552,19.999 18.000,19.999 ZM18.000,14.000 L17.000,14.000 C16.448,14.000 16.000,13.551 16.000,12.999 L16.000,11.999 C16.000,11.446 16.448,10.999 17.000,10.999 L18.000,10.999 C18.552,10.999 19.000,11.446 19.000,11.999 L19.000,12.999 C19.000,13.551 18.552,14.000 18.000,14.000 ZM18.000,8.000 L17.000,8.000 C16.448,8.000 16.000,7.552 16.000,6.999 L16.000,5.999 C16.000,5.446 16.448,4.999 17.000,4.999 L18.000,4.999 C18.552,4.999 19.000,5.446 19.000,5.999 L19.000,6.999 C19.000,7.552 18.552,8.000 18.000,8.000 ZM8.000,19.999 L7.000,19.999 C6.447,19.999 6.000,19.551 6.000,18.998 L6.000,17.999 C6.000,17.447 6.447,16.999 7.000,16.999 L8.000,16.999 C8.552,16.999 9.000,17.447 9.000,17.999 L9.000,18.998 C9.000,19.551 8.552,19.999 8.000,19.999 ZM8.000,14.000 L7.000,14.000 C6.447,14.000 6.000,13.551 6.000,12.999 L6.000,11.999 C6.000,11.446 6.447,10.999 7.000,10.999 L8.000,10.999 C8.552,10.999 9.000,11.446 9.000,11.999 L9.000,12.999 C9.000,13.551 8.552,14.000 8.000,14.000 ZM8.000,8.000 L7.000,8.000 C6.447,8.000 6.000,7.552 6.000,6.999 L6.000,5.999 C6.000,5.446 6.447,4.999 7.000,4.999 L8.000,4.999 C8.552,4.999 9.000,5.446 9.000,5.999 L9.000,6.999 C9.000,7.552 8.552,8.000 8.000,8.000 Z" class="cls-1"/>
</svg>
