<svg xmlns="http://www.w3.org/2000/svg" xmlns:xlink="http://www.w3.org/1999/xlink" preserveAspectRatio="xMidYMid" width="25" height="25" viewBox="0 0 25 25">
  <defs>
    <style>
      .cls-1 {
        fill: #3c4042;
        fill-rule: evenodd;
      }
    </style>
  </defs>
  <path d="M12.500,24.998 C5.596,24.998 -0.000,19.401 -0.000,12.498 C-0.000,5.594 5.596,-0.003 12.500,-0.003 C19.403,-0.003 25.000,5.594 25.000,12.498 C25.000,19.401 19.403,24.998 12.500,24.998 ZM12.500,0.998 C6.148,0.998 1.000,6.147 1.000,12.498 C1.000,18.849 6.148,23.997 12.500,23.997 C18.851,23.997 24.000,18.849 24.000,12.498 C24.000,6.147 18.851,0.998 12.500,0.998 ZM12.500,14.999 C9.747,14.999 7.463,16.610 6.079,18.998 L4.946,18.998 C6.420,16.039 9.214,13.999 12.500,13.999 C15.785,13.999 18.621,16.039 19.991,18.998 L18.938,18.998 C17.651,16.610 15.253,14.999 12.500,14.999 ZM16.506,10.998 C15.681,10.998 15.012,10.327 15.012,9.498 C15.012,8.669 15.681,7.998 16.506,7.998 C17.331,7.998 18.000,8.669 18.000,9.498 C18.000,10.327 17.331,10.998 16.506,10.998 ZM8.493,10.998 C7.668,10.998 7.000,10.327 7.000,9.498 C7.000,8.669 7.668,7.998 8.493,7.998 C9.318,7.998 9.987,8.669 9.987,9.498 C9.987,10.327 9.318,10.998 8.493,10.998 Z" class="cls-1"/>
</svg>
