<svg xmlns="http://www.w3.org/2000/svg" xmlns:xlink="http://www.w3.org/1999/xlink" preserveAspectRatio="xMidYMid" width="24" height="23" viewBox="0 0 24 23">
  <defs>
    <style>
      .cls-1 {
        fill: #3c4042;
        fill-rule: evenodd;
      }
    </style>
  </defs>
  <path d="M23.500,6.999 C23.224,6.999 23.000,6.776 23.000,6.499 L23.000,1.661 L15.273,9.387 C16.347,10.810 16.992,12.577 16.992,14.498 C16.992,19.192 13.188,22.998 8.496,22.998 C3.804,22.998 -0.000,19.192 -0.000,14.498 C-0.000,9.804 3.804,5.997 8.496,5.997 C10.915,5.997 13.092,7.014 14.639,8.637 L22.277,0.999 L17.500,0.999 C17.224,0.999 17.000,0.775 17.000,0.499 C17.000,0.223 17.224,-0.001 17.500,-0.001 L23.476,-0.001 C23.481,-0.001 23.484,-0.001 23.489,-0.001 L23.500,-0.001 C23.776,-0.001 24.000,0.223 24.000,0.499 L24.000,6.499 C24.000,6.776 23.776,6.999 23.500,6.999 ZM8.496,6.998 C4.349,6.998 0.987,10.356 0.987,14.498 C0.987,18.640 4.349,21.998 8.496,21.998 C12.642,21.998 16.004,18.640 16.004,14.498 C16.004,12.791 15.426,11.222 14.465,9.962 C14.348,9.956 14.230,9.917 14.141,9.828 C14.031,9.718 14.002,9.573 14.019,9.430 C12.646,7.938 10.683,6.998 8.496,6.998 Z" class="cls-1"/>
</svg>
