<svg xmlns="http://www.w3.org/2000/svg" xmlns:xlink="http://www.w3.org/1999/xlink" preserveAspectRatio="xMidYMid" width="23" height="22" viewBox="0 0 23 22">
  <defs>
    <style>
      .cls-1 {
        fill: #3c4042;
        fill-rule: evenodd;
      }
    </style>
  </defs>
  <path d="M21.400,20.998 L20.000,20.998 L20.000,21.998 L19.000,21.998 L19.000,20.998 L17.600,20.998 C16.716,20.998 16.000,20.282 16.000,19.398 L16.000,15.598 C16.000,14.714 16.716,13.998 17.600,13.998 L19.000,13.998 L19.000,-0.002 L20.000,-0.002 L20.000,13.998 L21.400,13.998 C22.283,13.998 23.000,14.714 23.000,15.598 L23.000,19.398 C23.000,20.282 22.283,20.998 21.400,20.998 ZM22.000,15.999 C22.000,15.447 21.552,14.999 21.000,14.999 L18.000,14.999 C17.447,14.999 17.000,15.447 17.000,15.999 L17.000,18.998 C17.000,19.552 17.447,19.999 18.000,19.999 L21.000,19.999 C21.552,19.999 22.000,19.552 22.000,18.998 L22.000,15.999 ZM13.400,8.998 L12.000,8.998 L12.000,21.998 L11.000,21.998 L11.000,8.998 L9.600,8.998 C8.716,8.998 8.000,8.282 8.000,7.398 L8.000,3.598 C8.000,2.714 8.716,1.999 9.600,1.999 L11.000,1.999 L11.000,-0.002 L12.000,-0.002 L12.000,1.999 L13.400,1.999 C14.283,1.999 15.000,2.714 15.000,3.598 L15.000,7.398 C15.000,8.282 14.283,8.998 13.400,8.998 ZM14.000,3.999 C14.000,3.447 13.552,2.999 13.000,2.999 L10.000,2.999 C9.447,2.999 9.000,3.447 9.000,3.999 L9.000,6.999 C9.000,7.551 9.447,7.999 10.000,7.999 L13.000,7.999 C13.552,7.999 14.000,7.551 14.000,6.999 L14.000,3.999 ZM5.400,17.998 L4.000,17.998 L4.000,21.998 L3.000,21.998 L3.000,17.998 L1.600,17.998 C0.716,17.998 -0.000,17.282 -0.000,16.398 L-0.000,12.598 C-0.000,11.715 0.716,10.999 1.600,10.999 L3.000,10.999 L3.000,-0.002 L4.000,-0.002 L4.000,10.999 L5.400,10.999 C6.283,10.999 7.000,11.715 7.000,12.598 L7.000,16.398 C7.000,17.282 6.283,17.998 5.400,17.998 ZM6.000,12.999 C6.000,12.447 5.552,11.999 5.000,11.999 L2.000,11.999 C1.447,11.999 1.000,12.447 1.000,12.999 L1.000,15.999 C1.000,16.551 1.447,16.999 2.000,16.999 L5.000,16.999 C5.552,16.999 6.000,16.551 6.000,15.999 L6.000,12.999 Z" class="cls-1"/>
</svg>
