<svg xmlns="http://www.w3.org/2000/svg" xmlns:xlink="http://www.w3.org/1999/xlink" preserveAspectRatio="xMidYMid" width="15" height="21" viewBox="0 0 15 21">
  <defs>
    <style>
      .cls-1 {
        fill: #3c4042;
        fill-rule: evenodd;
      }
    </style>
  </defs>
  <path d="M13.000,20.999 L11.000,20.999 C9.895,20.999 9.000,20.104 9.000,18.999 L9.000,1.998 C9.000,0.894 9.895,-0.001 11.000,-0.001 L13.000,-0.001 C14.104,-0.001 15.000,0.894 15.000,1.998 L15.000,18.999 C15.000,20.104 14.104,20.999 13.000,20.999 ZM14.000,1.998 C14.000,1.447 13.552,0.999 13.000,0.999 L11.000,0.999 C10.448,0.999 10.000,1.447 10.000,1.998 L10.000,18.999 C10.000,19.551 10.448,19.999 11.000,19.999 L13.000,19.999 C13.552,19.999 14.000,19.551 14.000,18.999 L14.000,1.998 ZM4.000,20.999 L2.000,20.999 C0.895,20.999 -0.000,20.104 -0.000,18.999 L-0.000,1.998 C-0.000,0.894 0.895,-0.001 2.000,-0.001 L4.000,-0.001 C5.104,-0.001 6.000,0.894 6.000,1.998 L6.000,18.999 C6.000,20.104 5.104,20.999 4.000,20.999 ZM5.000,1.998 C5.000,1.447 4.552,0.999 4.000,0.999 L2.000,0.999 C1.448,0.999 1.000,1.447 1.000,1.998 L1.000,18.999 C1.000,19.551 1.448,19.999 2.000,19.999 L4.000,19.999 C4.552,19.999 5.000,19.551 5.000,18.999 L5.000,1.998 Z" class="cls-1"/>
</svg>
