<svg xmlns="http://www.w3.org/2000/svg" xmlns:xlink="http://www.w3.org/1999/xlink" preserveAspectRatio="xMidYMid" width="25" height="25" viewBox="0 0 25 25">
  <defs>
    <style>
      .cls-1 {
        fill: #3c4042;
        fill-rule: evenodd;
      }
    </style>
  </defs>
  <path d="M23.437,21.998 L1.562,21.998 C0.699,21.998 -0.000,21.294 -0.000,20.427 L-0.000,1.570 C-0.000,0.702 0.699,-0.002 1.562,-0.002 L23.437,-0.002 C24.300,-0.002 25.000,0.702 25.000,1.570 L25.000,20.427 C25.000,21.294 24.300,21.998 23.437,21.998 ZM24.000,1.999 C24.000,1.446 23.552,0.999 23.000,0.999 L2.000,0.999 C1.448,0.999 1.000,1.446 1.000,1.999 L1.000,19.999 C1.000,20.551 1.448,20.999 2.000,20.999 L23.000,20.999 C23.552,20.999 24.000,20.551 24.000,19.999 L24.000,1.999 ZM13.525,18.342 C11.482,19.388 9.144,19.186 8.302,17.892 C7.460,16.599 8.433,14.701 10.475,13.655 C12.101,12.821 13.903,12.791 15.000,13.463 L15.000,4.002 L16.000,4.002 L16.000,15.006 L15.980,15.006 C16.058,16.175 15.130,17.520 13.525,18.342 ZM11.015,14.547 C9.446,15.307 8.615,16.566 9.158,17.356 C9.702,18.146 11.415,18.170 12.984,17.409 C14.553,16.649 15.385,15.391 14.841,14.601 C14.297,13.810 12.585,13.786 11.015,14.547 ZM23.000,24.999 L2.000,24.999 L2.000,23.999 L23.000,23.999 L23.000,24.999 Z" class="cls-1"/>
</svg>
