<svg xmlns="http://www.w3.org/2000/svg" xmlns:xlink="http://www.w3.org/1999/xlink" preserveAspectRatio="xMidYMid" width="25" height="25" viewBox="0 0 25 25">
  <defs>
    <style>
      .cls-1 {
        fill: #3c4042;
        fill-rule: evenodd;
      }
    </style>
  </defs>
  <path d="M19.000,23.160 L19.000,23.436 C19.000,24.299 18.291,24.998 17.416,24.998 L1.583,24.998 C0.709,24.998 -0.000,24.299 -0.000,23.436 L-0.000,1.561 C-0.000,0.698 0.709,-0.002 1.583,-0.002 L17.416,-0.002 C18.291,-0.002 19.000,0.698 19.000,1.561 L19.000,1.836 C22.593,4.031 25.000,7.979 25.000,12.498 C25.000,17.018 22.593,20.965 19.000,23.160 ZM18.000,1.999 C18.000,1.447 17.552,1.000 17.000,1.000 L2.000,1.000 C1.448,1.000 1.000,1.447 1.000,1.999 L1.000,22.999 C1.000,23.551 1.448,23.999 2.000,23.999 L17.000,23.999 C17.552,23.999 18.000,23.551 18.000,22.999 L18.000,17.765 C17.520,17.902 17.023,17.998 16.500,17.998 C13.462,17.998 11.000,15.536 11.000,12.498 C11.000,9.461 13.462,6.997 16.500,6.997 C17.023,6.997 17.520,7.094 18.000,7.231 L18.000,1.999 ZM19.000,3.015 L19.000,7.625 C19.000,7.625 19.000,7.625 19.000,7.625 L19.000,7.998 L18.000,7.998 L17.000,7.998 L17.000,8.049 C16.833,8.030 16.671,7.998 16.500,7.998 C14.014,7.998 12.000,10.013 12.000,12.497 C12.000,14.983 14.014,16.997 16.500,16.997 C16.671,16.997 16.833,16.966 17.000,16.947 L17.000,16.997 L18.000,16.997 L18.000,16.998 L19.000,16.998 L19.000,17.371 C19.000,17.371 19.000,17.371 19.000,17.371 L19.000,21.982 C22.018,19.909 24.000,16.436 24.000,12.498 C24.000,8.560 22.018,5.087 19.000,3.015 Z" class="cls-1"/>
</svg>
