<svg xmlns="http://www.w3.org/2000/svg" xmlns:xlink="http://www.w3.org/1999/xlink" preserveAspectRatio="xMidYMid" width="25" height="25" viewBox="0 0 25 25">
  <defs>
    <style>
      .cls-1 {
        fill: #3c4042;
        fill-rule: evenodd;
      }
    </style>
  </defs>
  <path d="M23.428,24.999 L4.571,24.999 C3.703,24.999 3.000,24.299 3.000,23.436 L3.000,22.998 L1.571,22.998 C0.703,22.998 -0.000,22.327 -0.000,21.498 L-0.000,3.498 C-0.000,2.670 0.703,1.998 1.571,1.998 L3.000,1.998 L3.000,1.561 C3.000,0.698 3.703,-0.002 4.571,-0.002 L23.428,-0.002 C24.296,-0.002 25.000,0.698 25.000,1.561 L25.000,23.436 C25.000,24.299 24.296,24.999 23.428,24.999 ZM3.000,2.999 L2.000,2.999 C1.447,2.999 1.000,3.447 1.000,3.999 L1.000,20.999 C1.000,21.552 1.447,21.999 2.000,21.999 L3.000,21.999 L3.000,2.999 ZM24.000,1.999 C24.000,1.446 23.552,0.999 23.000,0.999 L5.000,0.999 C4.448,0.999 4.000,1.446 4.000,1.999 L4.000,23.000 C4.000,23.551 4.448,23.999 5.000,23.999 L23.000,23.999 C23.552,23.999 24.000,23.551 24.000,23.000 L24.000,1.999 Z" class="cls-1"/>
</svg>
