<svg xmlns="http://www.w3.org/2000/svg" xmlns:xlink="http://www.w3.org/1999/xlink" preserveAspectRatio="xMidYMid" width="16" height="25" viewBox="0 0 16 25">
  <defs>
    <style>
      .cls-1 {
        fill: #3c4042;
        fill-rule: evenodd;
      }
    </style>
  </defs>
  <path d="M14.400,9.998 L14.311,9.998 C13.781,11.109 12.976,12.065 11.972,12.759 L10.500,23.444 C10.500,24.303 9.828,24.999 9.000,24.999 L7.000,24.999 C6.171,24.999 5.500,24.303 5.500,23.444 L4.028,12.759 C3.023,12.065 2.219,11.110 1.688,9.998 L1.600,9.998 C0.716,9.998 -0.000,9.252 -0.000,8.331 L-0.000,6.664 C-0.000,5.856 0.552,5.183 1.285,5.031 C2.135,2.123 4.817,-0.002 8.000,-0.002 C11.182,-0.002 13.864,2.123 14.715,5.031 C15.447,5.183 16.000,5.856 16.000,6.664 L16.000,8.331 C16.000,9.252 15.283,9.998 14.400,9.998 ZM6.500,23.444 C6.500,23.749 6.724,23.999 7.000,23.999 L9.000,23.999 C9.275,23.999 9.500,23.749 9.500,23.444 L10.878,13.374 C9.999,13.772 9.027,13.998 8.000,13.998 C6.973,13.998 6.000,13.772 5.121,13.374 L6.500,23.444 ZM8.000,12.998 C10.215,12.998 12.128,11.784 13.167,9.998 L2.832,9.998 C3.872,11.784 5.785,12.998 8.000,12.998 ZM8.000,0.998 C5.391,0.998 3.194,2.673 2.367,4.998 L13.632,4.998 C12.806,2.673 10.608,0.998 8.000,0.998 ZM15.000,6.999 C15.000,6.447 14.552,5.999 14.000,5.999 L2.000,5.999 C1.448,5.999 1.000,6.447 1.000,6.999 L1.000,7.999 C1.000,8.552 1.448,8.999 2.000,8.999 L14.000,8.999 C14.552,8.999 15.000,8.552 15.000,7.999 L15.000,6.999 Z" class="cls-1"/>
</svg>
