<svg xmlns="http://www.w3.org/2000/svg" xmlns:xlink="http://www.w3.org/1999/xlink" preserveAspectRatio="xMidYMid" width="20" height="22" viewBox="0 0 20 22">
  <defs>
    <style>
      .cls-1 {
        fill: #3c4042;
        fill-rule: evenodd;
      }
    </style>
  </defs>
  <path d="M19.925,14.999 C20.251,17.013 18.839,19.441 16.285,20.890 C13.224,22.628 9.720,22.294 8.457,20.144 C7.195,17.995 8.653,14.843 11.714,13.106 C14.413,11.574 17.452,11.657 19.000,13.170 L19.000,-0.002 L20.000,-0.002 L20.000,14.999 L19.925,14.999 ZM18.805,14.454 C18.019,12.753 15.230,12.516 12.576,13.921 C9.922,15.326 8.408,17.843 9.194,19.543 C9.980,21.242 12.769,21.480 15.423,20.075 C18.077,18.669 19.591,16.153 18.805,14.454 ZM15.500,6.999 L0.500,6.999 C0.224,6.999 -0.000,6.775 -0.000,6.499 C-0.000,6.223 0.224,5.999 0.500,5.999 L15.500,5.999 C15.776,5.999 16.000,6.223 16.000,6.499 C16.000,6.775 15.776,6.999 15.500,6.999 ZM15.500,1.999 L0.500,1.999 C0.224,1.999 -0.000,1.776 -0.000,1.499 C-0.000,1.223 0.224,0.999 0.500,0.999 L15.500,0.999 C15.776,0.999 16.000,1.223 16.000,1.499 C16.000,1.776 15.776,1.999 15.500,1.999 ZM0.500,10.999 L10.500,10.999 C10.776,10.999 11.000,11.223 11.000,11.499 C11.000,11.776 10.776,11.999 10.500,11.999 L0.500,11.999 C0.224,11.999 -0.000,11.776 -0.000,11.499 C-0.000,11.223 0.224,10.999 0.500,10.999 ZM0.500,15.999 L5.500,15.999 C5.776,15.999 6.000,16.223 6.000,16.498 C6.000,16.775 5.776,17.000 5.500,17.000 L0.500,17.000 C0.224,17.000 -0.000,16.775 -0.000,16.498 C-0.000,16.223 0.224,15.999 0.500,15.999 Z" class="cls-1"/>
</svg>
