<svg xmlns="http://www.w3.org/2000/svg" xmlns:xlink="http://www.w3.org/1999/xlink" preserveAspectRatio="xMidYMid" width="20.031" height="19.03" viewBox="0 0 20.031 19.03">
  <defs>
    <style>
      .cls-1 {
        fill: #3c4042;
        fill-rule: evenodd;
      }
    </style>
  </defs>
  <path d="M10.261,9.499 L19.863,18.139 C20.063,18.338 20.063,18.664 19.863,18.863 C19.663,19.064 19.339,19.064 19.138,18.863 L9.166,9.892 C9.058,9.783 9.020,9.641 9.029,9.499 C9.020,9.357 9.058,9.215 9.166,9.107 L19.138,0.135 C19.339,-0.066 19.663,-0.066 19.863,0.135 C20.063,0.335 20.063,0.659 19.863,0.859 L10.261,9.499 ZM8.886,16.883 C8.700,17.070 8.398,17.070 8.212,16.883 L0.225,9.887 C0.200,9.870 0.168,9.876 0.146,9.855 C0.048,9.756 0.009,9.628 0.014,9.499 C0.009,9.371 0.048,9.242 0.146,9.144 C0.168,9.122 0.200,9.128 0.225,9.112 L8.212,2.114 C8.398,1.928 8.700,1.928 8.886,2.114 C9.072,2.301 9.072,2.602 8.886,2.788 L1.225,9.499 L8.886,16.210 C9.072,16.396 9.072,16.698 8.886,16.883 Z" class="cls-1"/>
</svg>
