<svg xmlns="http://www.w3.org/2000/svg" xmlns:xlink="http://www.w3.org/1999/xlink" preserveAspectRatio="xMidYMid" width="25" height="21" viewBox="0 0 25 21">
  <defs>
    <style>
      .cls-1 {
        fill: #3c4042;
        fill-rule: evenodd;
      }
    </style>
  </defs>
  <path d="M22.000,13.999 L19.000,9.998 L21.974,9.998 C21.713,4.985 17.577,0.998 12.500,0.998 C8.881,0.998 5.737,3.022 4.133,5.998 L3.024,5.998 C4.711,2.455 8.314,-0.001 12.500,-0.001 C18.130,-0.001 22.712,4.433 22.974,9.998 L25.000,9.998 L22.000,13.999 ZM12.209,8.590 L11.569,9.237 L10.987,8.620 L12.625,6.988 L13.507,6.988 L13.507,13.157 L15.000,13.157 L15.000,14.013 L11.036,14.013 L11.036,13.157 L12.538,13.157 L12.538,8.620 C12.538,8.401 12.548,8.182 12.548,8.182 L12.528,8.182 C12.528,8.182 12.451,8.341 12.209,8.590 ZM3.352,12.998 C4.448,17.029 8.120,19.998 12.500,19.998 C15.229,19.998 17.682,18.841 19.415,16.998 L20.736,16.998 C18.813,19.431 15.842,20.998 12.500,20.998 C7.563,20.998 3.434,17.589 2.314,12.998 L-0.000,12.998 L3.000,8.998 L6.000,12.998 L3.352,12.998 Z" class="cls-1"/>
</svg>
