<svg xmlns="http://www.w3.org/2000/svg" xmlns:xlink="http://www.w3.org/1999/xlink" preserveAspectRatio="xMidYMid" width="24" height="19" viewBox="0 0 24 19">
  <defs>
    <style>
      .cls-1 {
        fill: #3c4042;
        fill-rule: evenodd;
      }
    </style>
  </defs>
  <path d="M18.000,4.006 L15.341,4.006 L15.406,4.198 L7.000,15.999 L6.993,15.993 L-0.000,15.993 L-0.000,14.990 L6.007,14.990 L15.000,3.000 L15.001,3.003 L18.000,3.003 L18.000,-0.003 L24.000,3.493 L18.000,6.988 L18.000,4.006 ZM6.005,4.006 L-0.000,4.006 L-0.000,3.003 L6.996,3.003 L7.000,3.000 L9.793,6.919 L8.973,7.964 L6.005,4.006 ZM15.406,14.796 L15.340,14.990 L18.000,14.990 L18.000,12.008 L24.000,15.503 L18.000,18.998 L18.000,15.993 L15.002,15.993 L15.000,15.999 L12.000,11.999 L12.747,11.065 L15.406,14.796 Z" class="cls-1"/>
</svg>
