<svg xmlns="http://www.w3.org/2000/svg" xmlns:xlink="http://www.w3.org/1999/xlink" preserveAspectRatio="xMidYMid" width="25" height="23" viewBox="0 0 25 23">
  <defs>
    <style>
      .cls-1 {
        fill: #3c4042;
        fill-rule: evenodd;
      }
    </style>
  </defs>
  <path d="M25.000,0.990 L25.000,13.998 L24.966,13.998 C25.084,15.748 23.808,17.768 21.595,19.001 C18.789,20.565 15.576,20.264 14.419,18.330 C13.262,16.395 14.598,13.559 17.405,11.995 C19.832,10.643 22.558,10.691 24.000,11.979 L24.000,1.193 L11.000,3.825 L11.000,16.997 L10.967,16.997 C11.084,18.748 9.808,20.768 7.595,22.001 C4.789,23.565 1.576,23.265 0.419,21.329 C-0.738,19.395 0.599,16.559 3.404,14.995 C5.832,13.643 8.558,13.691 10.000,14.979 L10.000,3.030 L9.995,3.009 L10.000,3.008 L10.000,2.998 L10.049,2.998 L24.000,0.173 L24.000,-0.002 L25.000,-0.002 L25.000,0.968 L25.004,0.989 L25.000,0.990 ZM23.825,13.271 C23.117,11.785 20.607,11.575 18.219,12.806 C15.830,14.035 14.467,16.237 15.175,17.725 C15.882,19.211 18.392,19.420 20.781,18.191 C23.169,16.961 24.532,14.758 23.825,13.271 ZM9.825,16.272 C9.117,14.784 6.607,14.576 4.219,15.805 C1.830,17.035 0.467,19.237 1.175,20.725 C1.882,22.211 4.392,22.421 6.781,21.190 C9.169,19.961 10.532,17.758 9.825,16.272 Z" class="cls-1"/>
</svg>
