<svg xmlns="http://www.w3.org/2000/svg" xmlns:xlink="http://www.w3.org/1999/xlink" preserveAspectRatio="xMidYMid" width="19" height="25" viewBox="0 0 19 25">
  <defs>
    <style>
      .cls-1 {
        fill: #3c4042;
        fill-rule: evenodd;
      }
    </style>
  </defs>
  <path d="M17.416,24.998 L1.583,24.998 C0.709,24.998 -0.000,24.298 -0.000,23.435 L-0.000,1.560 C-0.000,0.697 0.709,-0.002 1.583,-0.002 L17.416,-0.002 C18.291,-0.002 19.000,0.697 19.000,1.560 L19.000,23.435 C19.000,24.298 18.291,24.998 17.416,24.998 ZM18.000,1.999 C18.000,1.446 17.552,0.999 17.000,0.999 L2.000,0.999 C1.448,0.999 1.000,1.446 1.000,1.999 L1.000,22.999 C1.000,23.551 1.448,23.999 2.000,23.999 L17.000,23.999 C17.552,23.999 18.000,23.551 18.000,22.999 L18.000,1.999 ZM9.500,22.998 C6.462,22.998 4.000,20.535 4.000,17.498 C4.000,14.460 6.462,11.997 9.500,11.997 C12.537,11.997 15.000,14.460 15.000,17.498 C15.000,20.535 12.537,22.998 9.500,22.998 ZM9.500,12.998 C7.014,12.998 5.000,15.012 5.000,17.498 C5.000,19.983 7.014,21.997 9.500,21.997 C11.985,21.997 14.000,19.983 14.000,17.498 C14.000,15.012 11.985,12.998 9.500,12.998 ZM9.500,9.998 C7.567,9.998 6.000,8.431 6.000,6.498 C6.000,4.565 7.567,2.998 9.500,2.998 C11.433,2.998 13.000,4.565 13.000,6.498 C13.000,8.431 11.433,9.998 9.500,9.998 ZM9.500,3.998 C8.119,3.998 7.000,5.117 7.000,6.497 C7.000,7.879 8.119,8.998 9.500,8.998 C10.880,8.998 12.000,7.879 12.000,6.497 C12.000,5.117 10.880,3.998 9.500,3.998 Z" class="cls-1"/>
</svg>
