<svg xmlns="http://www.w3.org/2000/svg" xmlns:xlink="http://www.w3.org/1999/xlink" preserveAspectRatio="xMidYMid" width="20" height="19" viewBox="0 0 20 19">
  <defs>
    <style>
      .cls-1 {
        fill: #3c4042;
        fill-rule: evenodd;
      }
    </style>
  </defs>
  <path d="M19.854,9.838 C19.832,9.859 19.800,9.854 19.776,9.870 L11.788,16.856 C11.602,17.042 11.300,17.042 11.114,16.856 C10.928,16.670 10.928,16.370 11.114,16.183 L18.775,9.483 L11.114,2.783 C10.928,2.598 10.928,2.297 11.114,2.110 C11.300,1.925 11.602,1.925 11.788,2.110 L19.776,9.097 C19.800,9.113 19.832,9.108 19.854,9.129 C19.952,9.227 19.991,9.355 19.986,9.483 C19.991,9.612 19.952,9.740 19.854,9.838 ZM0.861,18.832 C0.661,19.032 0.337,19.032 0.137,18.832 C-0.064,18.632 -0.064,18.308 0.137,18.109 L9.739,9.483 L0.137,0.858 C-0.064,0.658 -0.064,0.334 0.137,0.135 C0.337,-0.066 0.661,-0.066 0.861,0.135 L10.833,9.091 C10.942,9.200 10.980,9.342 10.971,9.483 C10.980,9.625 10.942,9.767 10.833,9.875 L0.861,18.832 Z" class="cls-1"/>
</svg>
