<svg xmlns="http://www.w3.org/2000/svg" xmlns:xlink="http://www.w3.org/1999/xlink" preserveAspectRatio="xMidYMid" width="25" height="25" viewBox="0 0 25 25">
  <defs>
    <style>
      .cls-1 {
        fill: #3c4042;
        fill-rule: evenodd;
      }
    </style>
  </defs>
  <path d="M23.437,21.998 L1.562,21.998 C0.699,21.998 -0.000,21.294 -0.000,20.427 L-0.000,1.570 C-0.000,0.702 0.699,-0.002 1.562,-0.002 L23.437,-0.002 C24.300,-0.002 25.000,0.702 25.000,1.570 L25.000,20.427 C25.000,21.294 24.300,21.998 23.437,21.998 ZM24.000,1.999 C24.000,1.446 23.552,0.999 23.000,0.999 L2.000,0.999 C1.448,0.999 1.000,1.446 1.000,1.999 L1.000,19.999 C1.000,20.551 1.448,20.999 2.000,20.999 L23.000,20.999 C23.552,20.999 24.000,20.551 24.000,19.999 L24.000,1.999 ZM18.525,16.342 C16.482,17.389 14.144,17.187 13.302,15.892 C12.460,14.598 13.432,12.701 15.475,11.655 C17.101,10.822 18.903,10.792 20.000,11.463 L20.000,3.932 L11.000,5.855 L11.000,14.994 L10.979,14.994 C11.064,16.164 10.136,17.517 8.525,18.342 C6.483,19.388 4.144,19.186 3.302,17.892 C2.460,16.599 3.433,14.701 5.475,13.655 C7.101,12.821 8.903,12.791 10.000,13.463 L10.000,4.990 L11.000,4.990 L11.000,5.066 L20.000,3.143 L20.000,3.003 L20.657,3.003 L20.709,2.991 L20.713,3.003 L21.000,3.003 L21.000,12.006 L20.612,12.006 C20.638,12.041 20.674,12.067 20.698,12.104 C21.540,13.397 20.567,15.296 18.525,16.342 ZM9.841,14.601 C9.297,13.810 7.585,13.786 6.015,14.547 C4.446,15.307 3.615,16.566 4.158,17.356 C4.702,18.146 6.415,18.170 7.984,17.409 C9.553,16.649 10.385,15.391 9.841,14.601 ZM19.841,12.601 C19.297,11.810 17.585,11.786 16.015,12.546 C14.446,13.307 13.615,14.565 14.158,15.355 C14.702,16.146 16.415,16.171 17.984,15.410 C19.553,14.649 20.385,13.391 19.841,12.601 ZM23.000,24.999 L2.000,24.999 L2.000,23.999 L23.000,23.999 L23.000,24.999 Z" class="cls-1"/>
</svg>
