<svg xmlns="http://www.w3.org/2000/svg" xmlns:xlink="http://www.w3.org/1999/xlink" preserveAspectRatio="xMidYMid" width="18" height="23" viewBox="0 0 18 23">
  <defs>
    <style>
      .cls-1 {
        fill: #3c4042;
        fill-rule: evenodd;
      }
    </style>
  </defs>
  <path d="M17.270,7.009 L12.000,1.739 L12.000,16.998 L11.947,16.998 C11.757,18.770 10.427,20.675 8.286,21.890 C5.224,23.628 1.719,23.294 0.457,21.144 C-0.805,18.995 0.653,15.843 3.714,14.106 C6.413,12.574 9.452,12.657 11.000,14.170 L11.000,0.739 L10.990,0.729 L11.000,0.721 L11.000,-0.002 L12.000,-0.002 L12.000,-0.000 L12.000,-0.000 L18.010,6.269 L17.270,7.009 ZM10.805,15.453 C10.019,13.753 7.231,13.515 4.576,14.921 C1.922,16.326 0.408,18.843 1.194,20.543 C1.980,22.242 4.769,22.480 7.423,21.076 C10.077,19.669 11.591,17.152 10.805,15.453 Z" class="cls-1"/>
</svg>
