<svg xmlns="http://www.w3.org/2000/svg" xmlns:xlink="http://www.w3.org/1999/xlink" preserveAspectRatio="xMidYMid" width="25" height="23" viewBox="0 0 25 23">
  <defs>
    <style>
      .cls-1 {
        fill: #3c4042;
        fill-rule: evenodd;
      }
    </style>
  </defs>
  <path d="M18.750,17.998 L13.575,17.998 L16.985,22.333 L16.166,22.999 L12.231,17.998 L11.986,17.998 L11.986,17.686 L11.970,17.666 L11.986,17.653 L11.986,16.999 L18.500,16.999 C21.537,16.999 24.000,14.536 24.000,11.499 C24.000,8.462 21.537,5.999 18.500,5.999 L17.000,5.999 L17.000,4.998 L18.750,4.998 C22.201,4.998 25.000,7.909 25.000,11.498 C25.000,15.088 22.201,17.998 18.750,17.998 ZM13.000,5.999 L6.500,5.999 C3.462,5.999 1.000,8.462 1.000,11.499 C1.000,14.536 3.462,16.999 6.500,16.999 L8.000,16.999 L8.000,17.998 L6.250,17.998 C2.798,17.998 -0.000,15.088 -0.000,11.498 C-0.000,7.909 2.798,4.998 6.250,4.998 L11.404,4.998 L7.984,0.665 L8.805,-0.001 L12.752,4.998 L13.000,4.998 L13.000,5.312 L13.016,5.333 L13.000,5.346 L13.000,5.999 Z" class="cls-1"/>
</svg>
