<svg xmlns="http://www.w3.org/2000/svg" xmlns:xlink="http://www.w3.org/1999/xlink" preserveAspectRatio="xMidYMid" width="19" height="19.03" viewBox="0 0 19 19.03">
  <defs>
    <style>
      .cls-1 {
        fill: #3c4042;
        fill-rule: evenodd;
      }
    </style>
  </defs>
  <path d="M11.194,9.499 L18.855,16.210 C19.041,16.396 19.041,16.698 18.855,16.883 C18.669,17.070 18.367,17.070 18.181,16.883 L10.194,9.887 C10.169,9.870 10.137,9.876 10.115,9.855 C10.017,9.756 9.978,9.628 9.983,9.499 C9.978,9.371 10.017,9.242 10.115,9.144 C10.137,9.122 10.169,9.128 10.194,9.112 L18.181,2.114 C18.367,1.928 18.669,1.928 18.855,2.114 C19.041,2.301 19.041,2.602 18.855,2.788 L11.194,9.499 ZM1.230,9.499 L10.832,18.139 C11.032,18.338 11.032,18.664 10.832,18.863 C10.632,19.064 10.308,19.064 10.107,18.863 L0.136,9.892 C0.027,9.783 -0.011,9.641 -0.002,9.499 C-0.011,9.357 0.027,9.215 0.136,9.107 L10.107,0.135 C10.308,-0.066 10.632,-0.066 10.832,0.135 C11.032,0.335 11.032,0.659 10.832,0.859 L1.230,9.499 Z" class="cls-1"/>
</svg>
