<svg xmlns="http://www.w3.org/2000/svg" xmlns:xlink="http://www.w3.org/1999/xlink" preserveAspectRatio="xMidYMid" width="9" height="17" viewBox="0 0 9 17">
  <defs>
    <style>
      .cls-1 {
        fill: #3c4042;
        fill-rule: evenodd;
      }
    </style>
  </defs>
  <path d="M8.500,16.999 C8.224,16.999 8.000,16.775 8.000,16.500 L8.000,0.499 C8.000,0.223 8.224,-0.001 8.500,-0.001 C8.776,-0.001 9.000,0.223 9.000,0.499 L9.000,16.500 C9.000,16.775 8.776,16.999 8.500,16.999 ZM0.500,16.999 C0.224,16.999 -0.000,16.775 -0.000,16.500 L-0.000,0.499 C-0.000,0.223 0.224,-0.001 0.500,-0.001 C0.776,-0.001 1.000,0.223 1.000,0.499 L1.000,16.500 C1.000,16.775 0.776,16.999 0.500,16.999 Z" class="cls-1"/>
</svg>
