<svg xmlns="http://www.w3.org/2000/svg" xmlns:xlink="http://www.w3.org/1999/xlink" preserveAspectRatio="xMidYMid" width="18.969" height="19" viewBox="0 0 18.969 19">
  <defs>
    <style>
      .cls-1 {
        fill: #3c4042;
        fill-rule: evenodd;
      }
    </style>
  </defs>
  <path d="M18.833,9.875 L8.861,18.833 C8.661,19.032 8.337,19.032 8.137,18.833 C7.936,18.633 7.936,18.308 8.137,18.109 L17.739,9.483 L8.137,0.858 C7.936,0.658 7.936,0.334 8.137,0.134 C8.337,-0.066 8.661,-0.066 8.861,0.134 L18.833,9.092 C18.942,9.200 18.980,9.342 18.971,9.483 C18.980,9.625 18.942,9.768 18.833,9.875 ZM8.854,9.129 C8.952,9.227 8.991,9.355 8.986,9.483 C8.991,9.612 8.952,9.740 8.854,9.838 C8.832,9.860 8.800,9.854 8.775,9.871 L0.788,16.856 C0.602,17.042 0.300,17.042 0.114,16.856 C-0.072,16.671 -0.072,16.369 0.114,16.183 L7.774,9.483 L0.114,2.783 C-0.072,2.598 -0.072,2.296 0.114,2.111 C0.300,1.925 0.602,1.925 0.788,2.111 L8.776,9.097 C8.800,9.113 8.832,9.108 8.854,9.129 Z" class="cls-1"/>
</svg>
