<svg xmlns="http://www.w3.org/2000/svg" xmlns:xlink="http://www.w3.org/1999/xlink" preserveAspectRatio="xMidYMid" width="25" height="25" viewBox="0 0 25 25">
  <defs>
    <style>
      .cls-1 {
        fill: #3c4042;
        fill-rule: evenodd;
      }
    </style>
  </defs>
  <path d="M20.981,21.661 L20.652,22.009 L20.628,21.983 C18.441,23.858 15.606,24.999 12.500,24.999 C5.596,24.999 -0.000,19.401 -0.000,12.498 C-0.000,8.865 1.560,5.604 4.035,3.320 L4.348,2.989 L4.371,3.014 C6.557,1.138 9.393,-0.002 12.500,-0.002 C19.403,-0.002 25.000,5.595 25.000,12.498 C25.000,16.123 23.447,19.378 20.981,21.661 ZM20.668,20.589 C21.937,19.308 22.905,17.729 23.462,15.968 L16.669,14.176 C16.472,14.665 16.185,15.104 15.838,15.491 L20.668,20.589 ZM16.000,12.498 C16.000,10.564 14.433,8.998 12.500,8.998 C10.567,8.998 9.000,10.564 9.000,12.498 C9.000,14.430 10.567,15.997 12.500,15.997 C14.433,15.997 16.000,14.430 16.000,12.498 ZM1.000,12.498 C1.000,18.850 6.148,23.998 12.500,23.998 C15.339,23.998 17.934,22.964 19.940,21.258 L15.106,16.155 C14.369,16.681 13.474,16.998 12.500,16.998 C10.015,16.998 8.000,14.983 8.000,12.498 C8.000,12.260 8.034,12.030 8.070,11.801 L1.278,10.008 C1.101,10.811 1.000,11.642 1.000,12.498 ZM4.330,4.408 C3.061,5.689 2.094,7.268 1.536,9.030 L8.330,10.822 C8.527,10.333 8.814,9.893 9.161,9.507 L4.330,4.408 ZM12.500,0.998 C9.660,0.998 7.064,2.032 5.058,3.739 L9.892,8.842 C10.629,8.315 11.525,7.998 12.500,7.998 C14.985,7.998 17.000,10.013 17.000,12.498 C17.000,12.737 16.965,12.967 16.929,13.197 L23.721,14.989 C23.898,14.186 24.000,13.354 24.000,12.498 C24.000,6.146 18.851,0.998 12.500,0.998 Z" class="cls-1"/>
</svg>
