<svg xmlns="http://www.w3.org/2000/svg" xmlns:xlink="http://www.w3.org/1999/xlink" preserveAspectRatio="xMidYMid" width="24" height="25" viewBox="0 0 24 25">
  <defs>
    <style>
      .cls-1 {
        fill: #3c4042;
        fill-rule: evenodd;
      }
    </style>
  </defs>
  <path d="M22.000,21.999 L22.000,24.999 L21.000,24.999 L21.000,21.999 L18.000,21.999 C17.241,21.999 16.589,21.571 16.250,20.949 C15.496,19.951 15.000,18.335 15.000,16.498 C15.000,14.657 15.498,13.037 16.256,12.039 C16.595,11.425 17.240,11.004 17.990,11.000 C17.994,11.000 17.997,10.998 18.000,10.998 C18.001,10.998 18.003,10.999 18.004,10.999 L22.000,10.999 C22.000,10.998 22.000,10.998 22.000,10.998 C22.000,5.475 17.523,0.998 12.000,0.998 C6.477,0.998 2.000,5.475 2.000,10.998 C2.000,10.998 2.000,10.998 2.000,10.999 C2.000,10.999 2.000,10.999 2.000,10.999 L5.995,10.999 C5.997,10.999 5.998,10.998 6.000,10.998 C6.003,10.998 6.006,11.000 6.009,11.000 C6.760,11.004 7.405,11.425 7.744,12.039 C8.502,13.037 9.000,14.657 9.000,16.498 C9.000,18.335 8.504,19.951 7.749,20.949 C7.410,21.571 6.758,21.999 6.000,21.999 L2.000,21.999 C0.895,21.999 -0.000,21.104 -0.000,19.999 L-0.000,12.999 C-0.000,12.255 0.411,11.614 1.013,11.269 C1.011,11.178 1.000,11.089 1.000,10.998 C1.000,4.923 5.925,-0.003 12.000,-0.003 C18.075,-0.003 23.000,4.923 23.000,10.998 C23.000,11.089 22.989,11.178 22.986,11.269 C23.589,11.613 24.000,12.255 24.000,12.999 L24.000,19.999 C24.000,21.104 23.104,21.999 22.000,21.999 ZM6.000,20.999 C7.104,20.999 8.000,18.984 8.000,16.498 C8.000,14.013 7.104,11.998 6.000,11.998 C4.895,11.998 4.000,14.013 4.000,16.498 C4.000,18.984 4.895,20.999 6.000,20.999 ZM1.000,12.999 L1.000,19.999 C1.000,20.552 1.448,20.999 2.000,20.999 L4.283,20.999 C3.509,20.004 3.000,18.363 3.000,16.498 C3.000,14.635 3.508,12.994 4.282,11.999 L2.000,11.999 C1.448,11.999 1.000,12.447 1.000,12.999 ZM18.000,11.998 C16.895,11.998 16.000,14.013 16.000,16.498 C16.000,18.984 16.895,20.999 18.000,20.999 C19.104,20.999 20.000,18.984 20.000,16.498 C20.000,14.013 19.104,11.998 18.000,11.998 ZM23.000,12.999 C23.000,12.447 22.552,11.999 22.000,11.999 L19.718,11.999 C20.491,12.994 21.000,14.635 21.000,16.498 C21.000,18.363 20.491,20.004 19.717,20.999 L22.000,20.999 C22.552,20.999 23.000,20.552 23.000,19.999 L23.000,12.999 Z" class="cls-1"/>
</svg>
