<svg xmlns="http://www.w3.org/2000/svg" xmlns:xlink="http://www.w3.org/1999/xlink" preserveAspectRatio="xMidYMid" width="25" height="25" viewBox="0 0 25 25">
  <defs>
    <style>
      .cls-1 {
        fill: #3c4042;
        fill-rule: evenodd;
      }
    </style>
  </defs>
  <path d="M25.000,22.999 C25.000,24.104 24.104,24.999 23.000,24.999 L2.000,24.999 C0.895,24.999 -0.000,24.104 -0.000,22.999 L-0.000,5.999 C-0.000,4.894 0.895,3.999 2.000,3.999 L14.889,3.999 L0.370,0.945 C0.105,0.875 -0.052,0.608 0.019,0.348 C0.090,0.088 0.362,-0.066 0.627,0.004 L19.618,3.999 L23.000,3.999 C23.793,3.999 24.473,4.465 24.796,5.135 C24.954,5.250 25.035,5.451 24.980,5.650 C24.978,5.660 24.970,5.666 24.967,5.675 C24.985,5.781 25.000,5.888 25.000,5.999 L25.000,22.999 ZM24.000,5.999 C24.000,5.447 23.552,4.999 23.000,4.999 L2.000,4.999 C1.448,4.999 1.000,5.447 1.000,5.999 L1.000,22.999 C1.000,23.551 1.448,23.999 2.000,23.999 L23.000,23.999 C23.552,23.999 24.000,23.551 24.000,22.999 L24.000,5.999 ZM20.000,12.998 L22.000,12.998 L22.000,13.999 L20.000,13.999 L20.000,12.998 ZM20.000,9.998 L22.000,9.998 L22.000,10.998 L20.000,10.998 L20.000,9.998 ZM10.500,21.998 C6.358,21.998 3.000,18.641 3.000,14.498 C3.000,10.356 6.358,6.998 10.500,6.998 C14.642,6.998 18.000,10.356 18.000,14.498 C18.000,18.641 14.642,21.998 10.500,21.998 ZM10.500,7.998 C8.201,7.998 6.193,9.198 5.037,10.998 L15.963,10.998 C14.807,9.198 12.798,7.998 10.500,7.998 ZM16.498,11.998 L4.501,11.998 C4.242,12.620 4.105,13.298 4.050,13.999 L16.950,13.999 C16.895,13.298 16.758,12.620 16.498,11.998 ZM16.000,17.930 C16.540,17.066 16.877,16.069 16.963,14.998 L4.050,14.998 C4.105,15.699 4.242,16.377 4.501,16.999 L16.000,16.999 L16.000,17.930 ZM5.037,17.999 C6.193,19.799 8.202,20.998 10.500,20.998 C12.798,20.998 14.806,19.799 15.962,17.999 L5.037,17.999 Z" class="cls-1"/>
</svg>
