<svg xmlns="http://www.w3.org/2000/svg" xmlns:xlink="http://www.w3.org/1999/xlink" preserveAspectRatio="xMidYMid" width="25" height="23" viewBox="0 0 25 23">
  <defs>
    <style>
      .cls-1 {
        fill: #3c4042;
        fill-rule: evenodd;
      }
    </style>
  </defs>
  <path d="M18.750,17.998 L13.575,17.998 L16.985,22.332 L16.166,22.999 L12.231,17.998 L11.986,17.998 L11.986,17.686 L11.970,17.666 L11.986,17.652 L11.986,16.999 L18.500,16.999 C21.537,16.999 24.000,14.536 24.000,11.499 C24.000,10.457 23.694,9.493 23.190,8.663 C23.402,8.328 23.587,7.974 23.716,7.592 C24.511,8.682 25.000,10.026 25.000,11.498 C25.000,15.088 22.202,17.998 18.750,17.998 ZM16.036,8.157 L17.538,8.157 L17.538,3.619 C17.538,3.401 17.548,3.182 17.548,3.182 L17.528,3.182 C17.528,3.182 17.451,3.341 17.208,3.589 L16.569,4.236 L15.987,3.619 L17.625,1.988 L18.507,1.988 L18.507,8.157 L20.000,8.157 L20.000,9.013 L16.036,9.013 L16.036,8.157 ZM13.000,5.999 L6.500,5.999 C3.462,5.999 1.000,8.462 1.000,11.499 C1.000,14.536 3.462,16.999 6.500,16.999 L8.000,16.999 L8.000,17.998 L6.250,17.998 C2.798,17.998 -0.000,15.088 -0.000,11.498 C-0.000,7.909 2.798,4.998 6.250,4.998 L11.404,4.998 L7.984,0.666 L8.806,-0.001 L12.752,4.998 L13.000,4.998 L13.000,5.312 L13.016,5.333 L13.000,5.346 L13.000,5.999 Z" class="cls-1"/>
</svg>
