<svg xmlns="http://www.w3.org/2000/svg" xmlns:xlink="http://www.w3.org/1999/xlink" preserveAspectRatio="xMidYMid" width="25" height="17.03" viewBox="0 0 25 17.03">
  <defs>
    <style>
      .cls-1 {
        fill: #3c4042;
        fill-rule: evenodd;
      }
    </style>
  </defs>
  <path d="M24.996,4.517 C24.992,4.642 24.942,4.754 24.863,4.839 C24.858,4.843 24.860,4.851 24.856,4.855 C24.769,4.942 24.656,4.985 24.542,4.990 C24.527,4.992 24.515,4.999 24.500,4.999 L14.742,4.999 L13.213,6.747 L12.488,6.023 L14.139,4.135 C14.259,4.015 14.420,3.977 14.575,3.999 L23.322,3.999 L20.114,0.790 C19.927,0.604 19.927,0.300 20.114,0.114 C20.301,-0.075 20.604,-0.075 20.791,0.114 L24.762,4.084 C24.902,4.172 25.000,4.321 25.000,4.499 C25.000,4.505 24.997,4.510 24.996,4.516 C24.996,4.517 24.996,4.517 24.996,4.517 ZM24.500,11.999 C24.506,11.999 24.511,12.002 24.517,12.002 C24.640,12.002 24.762,12.049 24.856,12.143 C24.861,12.147 24.859,12.155 24.863,12.159 C24.942,12.245 24.992,12.357 24.996,12.481 C24.996,12.481 24.996,12.481 24.996,12.482 C24.997,12.488 25.000,12.493 25.000,12.499 C25.000,12.677 24.902,12.826 24.762,12.915 L20.791,16.885 C20.604,17.072 20.301,17.072 20.114,16.885 C19.927,16.698 19.927,16.395 20.114,16.208 L23.322,12.999 L14.500,12.999 C14.421,12.999 14.350,12.977 14.284,12.945 C14.219,12.920 14.159,12.883 14.107,12.831 L7.258,4.999 L0.500,4.999 C0.224,4.999 -0.000,4.775 -0.000,4.499 C-0.000,4.223 0.224,3.999 0.500,3.999 L7.424,3.999 C7.579,3.977 7.741,4.015 7.860,4.135 L14.738,11.999 L24.500,11.999 ZM0.500,11.999 L7.262,11.999 L8.895,10.131 L9.620,10.856 L7.892,12.831 C7.841,12.883 7.780,12.920 7.716,12.945 C7.650,12.977 7.578,12.999 7.500,12.999 L0.500,12.999 C0.224,12.999 -0.000,12.775 -0.000,12.499 C-0.000,12.223 0.224,11.999 0.500,11.999 Z" class="cls-1"/>
</svg>
