<svg xmlns="http://www.w3.org/2000/svg" xmlns:xlink="http://www.w3.org/1999/xlink" preserveAspectRatio="xMidYMid" width="21" height="13" viewBox="0 0 21 13">
  <defs>
    <style>
      .cls-1 {
        fill: #3c4042;
        fill-rule: evenodd;
      }
    </style>
  </defs>
  <path d="M4.000,12.998 L4.000,11.998 L21.000,11.998 L21.000,12.998 L4.000,12.998 ZM4.000,5.998 L21.000,5.998 L21.000,6.998 L4.000,6.998 L4.000,5.998 ZM4.000,-0.002 L21.000,-0.002 L21.000,0.998 L4.000,0.998 L4.000,-0.002 ZM-0.000,11.998 L1.000,11.998 L1.000,12.998 L-0.000,12.998 L-0.000,11.998 ZM-0.000,5.998 L1.000,5.998 L1.000,6.998 L-0.000,6.998 L-0.000,5.998 ZM-0.000,-0.002 L1.000,-0.002 L1.000,0.998 L-0.000,0.998 L-0.000,-0.002 Z" class="cls-1"/>
</svg>
