<svg xmlns="http://www.w3.org/2000/svg" xmlns:xlink="http://www.w3.org/1999/xlink" preserveAspectRatio="xMidYMid" width="25" height="25" viewBox="0 0 25 25">
  <defs>
    <style>
      .cls-1 {
        fill: #3c4042;
        fill-rule: evenodd;
      }
    </style>
  </defs>
  <path d="M12.500,24.999 C5.596,24.999 -0.000,19.401 -0.000,12.498 C-0.000,5.595 5.596,-0.002 12.500,-0.002 C19.403,-0.002 25.000,5.595 25.000,12.498 C25.000,19.401 19.403,24.999 12.500,24.999 ZM12.500,0.998 C6.149,0.998 1.000,6.146 1.000,12.498 C1.000,18.850 6.149,23.998 12.500,23.998 C18.851,23.998 24.000,18.850 24.000,12.498 C24.000,6.146 18.851,0.998 12.500,0.998 ZM12.500,14.997 C11.119,14.997 10.000,13.878 10.000,12.498 C10.000,11.118 11.119,9.998 12.500,9.998 C13.880,9.998 15.000,11.118 15.000,12.498 C15.000,13.878 13.880,14.997 12.500,14.997 Z" class="cls-1"/>
</svg>
