<svg xmlns="http://www.w3.org/2000/svg" xmlns:xlink="http://www.w3.org/1999/xlink" preserveAspectRatio="xMidYMid" width="23" height="22" viewBox="0 0 23 22">
  <defs>
    <style>
      .cls-1 {
        fill: #3c4042;
        fill-rule: evenodd;
      }
    </style>
  </defs>
  <path d="M20.000,20.948 L20.000,21.998 L19.000,21.998 L19.000,20.948 C17.306,20.703 16.000,19.260 16.000,17.498 C16.000,15.736 17.306,14.293 19.000,14.049 L19.000,-0.002 L20.000,-0.002 L20.000,14.049 C21.694,14.293 23.000,15.736 23.000,17.498 C23.000,19.260 21.694,20.703 20.000,20.948 ZM19.500,14.997 C18.119,14.997 17.000,16.118 17.000,17.498 C17.000,18.879 18.119,19.998 19.500,19.998 C20.880,19.998 22.000,18.879 22.000,17.498 C22.000,16.118 20.880,14.997 19.500,14.997 ZM12.000,8.948 L12.000,21.998 L11.000,21.998 L11.000,8.948 C9.306,8.704 8.000,7.260 8.000,5.498 C8.000,3.736 9.306,2.293 11.000,2.049 L11.000,-0.002 L12.000,-0.002 L12.000,2.049 C13.694,2.293 15.000,3.736 15.000,5.498 C15.000,7.260 13.694,8.704 12.000,8.948 ZM11.500,2.998 C10.119,2.998 9.000,4.117 9.000,5.498 C9.000,6.879 10.119,7.998 11.500,7.998 C12.880,7.998 14.000,6.879 14.000,5.498 C14.000,4.117 12.880,2.998 11.500,2.998 ZM4.000,16.948 L4.000,21.998 L3.000,21.998 L3.000,16.948 C1.306,16.703 -0.000,15.260 -0.000,13.498 C-0.000,11.736 1.306,10.293 3.000,10.049 L3.000,-0.002 L4.000,-0.002 L4.000,10.049 C5.694,10.293 7.000,11.736 7.000,13.498 C7.000,15.260 5.694,16.703 4.000,16.948 ZM3.500,10.999 C2.119,10.999 1.000,12.117 1.000,13.498 C1.000,14.879 2.119,15.998 3.500,15.998 C4.880,15.998 6.000,14.879 6.000,13.498 C6.000,12.117 4.880,10.999 3.500,10.999 Z" class="cls-1"/>
</svg>
