<svg xmlns="http://www.w3.org/2000/svg" xmlns:xlink="http://www.w3.org/1999/xlink" preserveAspectRatio="xMidYMid" width="19" height="19" viewBox="0 0 19 19">
  <defs>
    <style>
      .cls-1 {
        fill: #3c4042;
        fill-rule: evenodd;
      }
    </style>
  </defs>
  <path d="M17.416,18.999 L1.583,18.999 C0.709,18.999 -0.000,18.289 -0.000,17.415 L-0.000,1.581 C-0.000,0.707 0.709,-0.002 1.583,-0.002 L17.416,-0.002 C18.291,-0.002 19.000,0.707 19.000,1.581 L19.000,17.415 C19.000,18.289 18.291,18.999 17.416,18.999 ZM18.000,1.999 C18.000,1.447 17.552,0.998 17.000,0.998 L2.000,0.998 C1.448,0.998 1.000,1.447 1.000,1.999 L1.000,16.999 C1.000,17.552 1.448,17.999 2.000,17.999 L17.000,17.999 C17.552,17.999 18.000,17.552 18.000,16.999 L18.000,1.999 Z" class="cls-1"/>
</svg>
