<svg xmlns="http://www.w3.org/2000/svg" xmlns:xlink="http://www.w3.org/1999/xlink" preserveAspectRatio="xMidYMid" width="25" height="25" viewBox="0 0 25 25">
  <defs>
    <style>
      .cls-1 {
        fill: #3c4042;
        fill-rule: evenodd;
      }
    </style>
  </defs>
  <path d="M19.500,10.997 C16.462,10.997 14.000,8.535 14.000,5.497 C14.000,2.459 16.462,-0.003 19.500,-0.003 C22.537,-0.003 25.000,2.459 25.000,5.497 C25.000,8.535 22.537,10.997 19.500,10.997 ZM19.500,0.997 C17.014,0.997 15.000,3.012 15.000,5.497 C15.000,7.982 17.014,9.997 19.500,9.997 C21.985,9.997 24.000,7.982 24.000,5.497 C24.000,3.012 21.985,0.997 19.500,0.997 ZM1.000,6.999 L1.000,20.000 C1.000,22.208 2.791,23.999 5.000,23.999 L18.000,23.999 C20.209,23.999 22.000,22.208 22.000,20.000 L22.000,12.997 L23.000,12.997 L23.000,20.397 C23.000,22.937 20.940,24.998 18.400,24.998 L4.600,24.998 C2.059,24.998 -0.000,22.937 -0.000,20.397 L-0.000,6.597 C-0.000,4.057 2.059,1.997 4.600,1.997 L12.000,1.997 L12.000,2.999 L5.000,2.999 C2.791,2.999 1.000,4.790 1.000,6.999 Z" class="cls-1"/>
</svg>
