<svg xmlns="http://www.w3.org/2000/svg" xmlns:xlink="http://www.w3.org/1999/xlink" preserveAspectRatio="xMidYMid" width="25" height="25" viewBox="0 0 25 25">
  <defs>
    <style>
      .cls-1 {
        fill: #3c4042;
        fill-rule: evenodd;
      }
    </style>
  </defs>
  <path d="M23.375,15.399 L20.601,15.854 L22.240,18.138 C22.875,18.773 22.882,19.794 22.257,20.418 L20.419,22.258 C19.794,22.882 18.774,22.874 18.139,22.239 L15.855,20.599 L15.400,23.374 C15.400,24.272 14.682,24.999 13.800,24.999 L11.200,24.999 C10.316,24.999 9.600,24.272 9.600,23.374 L9.145,20.599 L6.861,22.239 C6.226,22.874 5.206,22.882 4.581,22.258 L2.742,20.418 C2.118,19.794 2.124,18.773 2.759,18.138 L4.399,15.854 L1.625,15.399 C0.727,15.399 0.000,14.684 0.000,13.800 L0.000,11.199 C0.000,10.317 0.727,9.599 1.625,9.599 L4.399,9.144 L2.760,6.860 C2.125,6.225 2.117,5.204 2.742,4.580 L4.580,2.741 C5.205,2.117 6.226,2.124 6.861,2.758 L9.145,4.398 L9.600,1.625 C9.600,0.727 10.316,-0.001 11.200,-0.001 L13.800,-0.001 C14.682,-0.001 15.400,0.727 15.400,1.625 L15.855,4.398 L18.138,2.758 C18.773,2.124 19.795,2.117 20.419,2.741 L22.258,4.580 C22.883,5.204 22.875,6.225 22.240,6.860 L20.600,9.144 L23.375,9.599 C24.272,9.599 25.000,10.317 25.000,11.199 L25.000,13.800 C25.000,14.684 24.272,15.399 23.375,15.399 ZM24.000,11.199 C24.000,10.868 23.719,10.598 23.375,10.598 L18.861,9.864 L21.533,6.153 C21.777,5.909 21.785,5.521 21.551,5.287 L19.712,3.448 C19.478,3.214 19.089,3.222 18.846,3.466 L15.135,6.138 L14.400,1.625 C14.400,1.280 14.131,0.999 13.800,0.999 L11.200,0.999 C10.869,0.999 10.600,1.280 10.600,1.625 L9.865,6.138 L6.154,3.466 C5.910,3.222 5.521,3.214 5.287,3.448 L3.449,5.287 C3.215,5.521 3.223,5.909 3.467,6.153 L6.139,9.864 L1.625,10.598 C1.280,10.598 1.000,10.868 1.000,11.199 L1.000,13.800 C1.000,14.130 1.280,14.399 1.625,14.399 L6.139,15.134 L3.466,18.845 C3.223,19.089 3.215,19.478 3.449,19.712 L5.288,21.550 C5.521,21.784 5.910,21.776 6.154,21.532 L9.865,18.860 L10.600,23.374 C10.600,23.719 10.869,23.999 11.200,23.999 L13.800,23.999 C14.131,23.999 14.400,23.719 14.400,23.374 L15.135,18.860 L18.846,21.532 C19.090,21.776 19.478,21.784 19.712,21.550 L21.551,19.712 C21.785,19.478 21.777,19.089 21.533,18.845 L18.861,15.134 L23.375,14.399 C23.719,14.399 24.000,14.130 24.000,13.800 L24.000,11.199 ZM12.500,16.997 C10.014,16.997 8.000,14.982 8.000,12.497 C8.000,10.011 10.014,7.996 12.500,7.996 C14.985,7.996 17.000,10.011 17.000,12.497 C17.000,14.982 14.985,16.997 12.500,16.997 ZM12.500,8.995 C10.567,8.995 9.000,10.563 9.000,12.496 C9.000,14.429 10.567,15.996 12.500,15.996 C14.432,15.996 16.000,14.429 16.000,12.496 C16.000,10.563 14.432,8.995 12.500,8.995 Z" class="cls-1"/>
</svg>
