<svg xmlns="http://www.w3.org/2000/svg" xmlns:xlink="http://www.w3.org/1999/xlink" preserveAspectRatio="xMidYMid" width="25" height="16" viewBox="0 0 25 16">
  <defs>
    <style>
      .cls-1 {
        fill: #3c4042;
        fill-rule: evenodd;
      }
    </style>
  </defs>
  <path d="M18.750,15.997 L6.250,15.997 C2.798,15.997 -0.000,13.132 -0.000,9.597 L-0.000,6.396 C-0.000,2.863 2.798,-0.004 6.250,-0.004 L18.750,-0.004 C22.202,-0.004 25.000,2.863 25.000,6.396 L25.000,9.597 C25.000,13.132 22.202,15.997 18.750,15.997 ZM24.000,5.999 C24.000,3.238 21.761,0.999 19.000,0.999 L6.000,0.999 C3.238,0.999 1.000,3.238 1.000,5.999 L1.000,9.999 C1.000,12.761 3.238,15.000 6.000,15.000 L19.000,15.000 C21.761,15.000 24.000,12.761 24.000,9.999 L24.000,5.999 ZM17.000,12.984 C14.238,12.984 12.000,10.750 12.000,7.996 C12.000,5.243 14.238,3.010 17.000,3.010 C19.761,3.010 22.000,5.243 22.000,7.996 C22.000,10.750 19.761,12.984 17.000,12.984 ZM17.000,3.981 C14.791,3.981 13.000,5.777 13.000,7.996 C13.000,10.215 14.791,12.012 17.000,12.012 C19.209,12.012 21.000,10.215 21.000,7.996 C21.000,5.777 19.209,3.981 17.000,3.981 Z" class="cls-1"/>
</svg>
