<svg xmlns="http://www.w3.org/2000/svg" xmlns:xlink="http://www.w3.org/1999/xlink" preserveAspectRatio="xMidYMid" width="25" height="16" viewBox="0 0 25 16">
  <defs>
    <style>
      .cls-1 {
        fill: #3c4042;
        fill-rule: evenodd;
      }
    </style>
  </defs>
  <path d="M18.750,15.997 L6.250,15.997 C2.798,15.997 -0.000,13.132 -0.000,9.597 L-0.000,6.396 C-0.000,2.863 2.798,-0.004 6.250,-0.004 L18.750,-0.004 C22.202,-0.004 25.000,2.863 25.000,6.396 L25.000,9.597 C25.000,13.132 22.202,15.997 18.750,15.997 ZM24.000,5.999 C24.000,3.238 21.761,0.999 19.000,0.999 L6.000,0.999 C3.238,0.999 1.000,3.238 1.000,5.999 L1.000,9.999 C1.000,12.761 3.238,15.000 6.000,15.000 L19.000,15.000 C21.761,15.000 24.000,12.761 24.000,9.999 L24.000,5.999 ZM8.000,12.984 C5.238,12.984 3.000,10.750 3.000,7.996 C3.000,5.243 5.238,3.010 8.000,3.010 C10.761,3.010 13.000,5.243 13.000,7.996 C13.000,10.750 10.761,12.984 8.000,12.984 ZM8.000,3.981 C5.791,3.981 4.000,5.777 4.000,7.996 C4.000,10.215 5.791,12.012 8.000,12.012 C10.209,12.012 12.000,10.215 12.000,7.996 C12.000,5.777 10.209,3.981 8.000,3.981 Z" class="cls-1"/>
</svg>
