<svg xmlns="http://www.w3.org/2000/svg" xmlns:xlink="http://www.w3.org/1999/xlink" preserveAspectRatio="xMidYMid" width="25" height="25" viewBox="0 0 25 25">
  <defs>
    <style>
      .cls-1 {
        fill: #3c4042;
        fill-rule: evenodd;
      }
    </style>
  </defs>
  <path d="M24.998,17.999 L24.998,18.999 L22.000,18.999 L22.000,21.998 L19.000,21.998 L19.000,24.997 L18.000,24.997 L18.000,21.998 L15.000,21.998 L15.000,24.997 L14.000,24.997 L14.000,21.998 L11.000,21.998 L11.000,24.997 L10.000,24.997 L10.000,21.998 L7.000,21.998 L7.000,24.997 L6.000,24.997 L6.000,21.998 L3.000,21.998 L3.000,18.999 L-0.002,18.999 L-0.002,17.999 L3.000,17.999 L3.000,14.999 L-0.002,14.999 L-0.002,13.999 L3.000,13.999 L3.000,10.999 L-0.002,10.999 L-0.002,10.000 L3.000,10.000 L3.000,6.999 L-0.002,6.999 L-0.002,5.999 L3.000,5.999 L3.000,2.997 L6.000,2.997 L6.000,-0.002 L7.000,-0.002 L7.000,2.997 L10.000,2.997 L10.000,-0.002 L11.000,-0.002 L11.000,2.997 L14.000,2.997 L14.000,-0.002 L15.000,-0.002 L15.000,2.997 L18.000,2.997 L18.000,-0.002 L19.000,-0.002 L19.000,2.997 L22.000,2.997 L22.000,5.999 L24.998,5.999 L24.998,6.999 L22.000,6.999 L22.000,10.000 L24.998,10.000 L24.998,10.999 L22.000,10.999 L22.000,13.999 L24.998,13.999 L24.998,14.999 L22.000,14.999 L22.000,17.999 L24.998,17.999 ZM21.000,3.997 L4.000,3.997 L4.000,20.997 L21.000,20.997 L21.000,3.997 Z" class="cls-1"/>
</svg>
