<svg xmlns="http://www.w3.org/2000/svg" xmlns:xlink="http://www.w3.org/1999/xlink" preserveAspectRatio="xMidYMid" width="25" height="25" viewBox="0 0 25 25">
  <defs>
    <style>
      .cls-1 {
        fill: #3c4042;
        fill-rule: evenodd;
      }
    </style>
  </defs>
  <path d="M21.500,8.999 C23.433,8.999 25.000,10.566 25.000,12.499 C25.000,14.432 23.433,15.999 21.500,15.999 L21.303,15.999 C21.270,16.082 21.227,16.160 21.192,16.242 L21.339,16.388 C22.705,17.755 22.705,19.971 21.339,21.338 C19.972,22.705 17.756,22.705 16.389,21.338 L16.257,21.206 C16.170,21.243 16.088,21.288 16.000,21.323 L16.000,21.499 C16.000,23.432 14.433,24.999 12.500,24.999 C10.567,24.999 9.000,23.432 9.000,21.499 L9.000,21.324 C8.912,21.288 8.830,21.243 8.743,21.206 L8.611,21.338 C7.244,22.705 5.028,22.705 3.661,21.338 C2.294,19.971 2.294,17.755 3.661,16.388 L3.807,16.242 C3.772,16.160 3.729,16.082 3.696,15.999 L3.500,15.999 C1.567,15.999 -0.000,14.432 -0.000,12.499 C-0.000,10.566 1.567,8.999 3.500,8.999 L3.694,8.999 C3.728,8.916 3.771,8.837 3.806,8.755 L3.661,8.610 C2.294,7.243 2.294,5.027 3.661,3.660 C5.028,2.293 7.244,2.293 8.611,3.660 L8.741,3.790 C8.828,3.752 8.911,3.706 9.000,3.671 L9.000,3.499 C9.000,1.567 10.567,-0.001 12.500,-0.001 C14.433,-0.001 16.000,1.567 16.000,3.499 L16.000,3.671 C16.089,3.706 16.172,3.752 16.259,3.790 L16.389,3.660 C17.756,2.293 19.972,2.293 21.339,3.660 C22.705,5.027 22.705,7.243 21.339,8.610 L21.193,8.756 C21.229,8.838 21.272,8.916 21.305,8.999 L21.500,8.999 ZM20.632,7.903 C21.608,6.926 21.608,5.343 20.632,4.368 C19.655,3.391 18.072,3.391 17.096,4.368 L16.476,4.987 C16.008,4.739 15.515,4.531 15.000,4.373 L15.000,3.499 C15.000,2.118 13.881,1.000 12.500,1.000 C11.119,1.000 10.000,2.118 10.000,3.499 L10.000,4.372 C9.485,4.531 8.992,4.739 8.523,4.987 L7.904,4.368 C6.927,3.391 5.344,3.391 4.368,4.368 C3.392,5.343 3.392,6.926 4.368,7.903 L4.988,8.523 C4.740,8.991 4.532,9.485 4.374,10.000 L3.500,10.000 C2.119,10.000 1.000,11.118 1.000,12.499 C1.000,13.880 2.119,14.999 3.500,14.999 L4.375,14.999 C4.533,15.514 4.741,16.006 4.990,16.474 L4.368,17.096 C3.392,18.072 3.392,19.654 4.368,20.631 C5.344,21.607 6.927,21.607 7.904,20.631 L8.526,20.009 C8.993,20.256 9.486,20.464 10.000,20.622 L10.000,21.499 C10.000,22.880 11.119,23.999 12.500,23.999 C13.881,23.999 15.000,22.880 15.000,21.499 L15.000,20.622 C15.514,20.464 16.006,20.256 16.474,20.009 L17.096,20.631 C18.072,21.607 19.655,21.607 20.632,20.631 C21.608,19.654 21.608,18.072 20.632,17.096 L20.010,16.473 C20.258,16.006 20.466,15.514 20.624,14.999 L21.500,14.999 C22.881,14.999 24.000,13.880 24.000,12.499 C24.000,11.118 22.881,10.000 21.500,10.000 L20.625,10.000 C20.467,9.485 20.259,8.992 20.011,8.523 L20.632,7.903 ZM12.500,16.997 C10.014,16.997 8.000,14.982 8.000,12.497 C8.000,10.012 10.014,7.997 12.500,7.997 C14.985,7.997 17.000,10.012 17.000,12.497 C17.000,14.982 14.985,16.997 12.500,16.997 ZM12.500,8.997 C10.567,8.997 9.000,10.564 9.000,12.497 C9.000,14.430 10.567,15.996 12.500,15.996 C14.433,15.996 16.000,14.430 16.000,12.497 C16.000,10.564 14.433,8.997 12.500,8.997 Z" class="cls-1"/>
</svg>
