<svg xmlns="http://www.w3.org/2000/svg" xmlns:xlink="http://www.w3.org/1999/xlink" preserveAspectRatio="xMidYMid" width="22" height="22" viewBox="0 0 22 22">
  <defs>
    <style>
      .cls-1 {
        fill: #3c4042;
        fill-rule: evenodd;
      }
    </style>
  </defs>
  <path d="M14.734,1.008 L15.044,1.308 L13.965,2.387 L13.633,2.718 L13.674,3.185 L14.015,7.071 L14.089,7.910 L14.928,7.984 L18.818,8.328 L19.285,8.369 L19.617,8.038 L20.782,6.874 L21.007,7.093 C20.993,8.626 20.389,10.106 19.262,11.233 C18.140,12.354 16.644,12.972 15.049,12.972 C14.350,12.972 13.661,12.853 13.002,12.618 L12.404,12.405 L11.954,12.854 L4.485,20.320 C4.055,20.749 3.475,20.996 2.893,20.996 C2.374,20.996 1.894,20.803 1.543,20.451 C1.176,20.085 0.983,19.583 0.999,19.040 C1.017,18.472 1.256,17.930 1.675,17.511 L9.144,10.046 L9.594,9.597 L9.380,8.998 C8.590,6.783 9.121,4.386 10.765,2.742 C11.830,1.678 13.232,1.068 14.734,1.008 M14.978,-0.001 C13.195,-0.001 11.416,0.671 10.055,2.031 C8.078,4.007 7.552,6.866 8.433,9.336 L0.965,16.800 C-0.277,18.042 -0.336,19.995 0.832,21.162 C1.394,21.723 2.136,22.001 2.893,22.001 C3.713,22.001 4.550,21.675 5.196,21.030 L12.665,13.565 C13.435,13.839 14.242,13.977 15.049,13.977 C16.832,13.977 18.611,13.304 19.972,11.944 C21.949,9.968 22.475,7.110 21.594,4.641 L20.795,5.440 C20.800,5.462 20.810,5.483 20.816,5.505 L20.772,5.463 L18.906,7.327 L15.016,6.983 L14.675,3.098 L16.477,1.297 L16.307,1.133 C16.395,1.152 16.479,1.185 16.566,1.208 L17.363,0.411 C16.593,0.137 15.785,-0.001 14.978,-0.001 L14.978,-0.001 Z" class="cls-1"/>
</svg>
