<svg xmlns="http://www.w3.org/2000/svg" xmlns:xlink="http://www.w3.org/1999/xlink" preserveAspectRatio="xMidYMid" width="25" height="25" viewBox="0 0 25 25">
  <defs>
    <style>
      .cls-1 {
        fill: #3c4042;
        fill-rule: evenodd;
      }
    </style>
  </defs>
  <path d="M23.374,16.009 L21.314,16.009 C21.281,16.091 21.251,16.175 21.216,16.256 L22.670,17.710 C23.305,18.345 23.343,19.336 22.755,19.923 L19.920,22.759 C19.332,23.347 18.341,23.309 17.706,22.674 L16.254,21.222 C16.174,21.256 16.091,21.286 16.010,21.318 L16.010,23.374 C16.010,24.271 15.336,24.999 14.505,24.999 L10.495,24.999 C9.664,24.999 8.990,24.271 8.990,23.374 L8.990,21.318 C8.907,21.285 8.824,21.256 8.742,21.221 L7.292,22.671 C6.657,23.305 5.666,23.344 5.078,22.756 L2.243,19.921 C1.655,19.333 1.693,18.342 2.328,17.707 L3.782,16.253 C3.747,16.173 3.718,16.090 3.686,16.009 L1.624,16.009 C0.727,16.009 -0.001,15.335 -0.001,14.504 L-0.001,10.494 C-0.001,9.663 0.727,8.989 1.624,8.989 L3.684,8.989 C3.716,8.909 3.745,8.826 3.779,8.746 L2.327,7.294 C1.692,6.660 1.655,5.670 2.242,5.082 L5.078,2.246 C5.665,1.659 6.656,1.696 7.291,2.331 L8.737,3.777 C8.820,3.741 8.905,3.710 8.990,3.676 L8.990,1.624 C8.990,0.726 9.664,-0.002 10.495,-0.002 L14.505,-0.002 C15.336,-0.002 16.010,0.726 16.010,1.624 L16.010,3.676 C16.093,3.709 16.178,3.740 16.260,3.775 L17.707,2.328 C18.342,1.693 19.333,1.655 19.921,2.243 L22.756,5.079 C23.344,5.666 23.306,6.657 22.671,7.292 L21.219,8.744 C21.254,8.824 21.283,8.907 21.315,8.989 L23.374,8.989 C24.272,8.989 24.999,9.663 24.999,10.494 L24.999,14.504 C24.999,15.335 24.272,16.009 23.374,16.009 ZM24.000,10.999 C24.000,10.447 23.552,9.999 23.000,9.999 L20.593,9.999 C20.438,9.493 20.223,9.015 19.982,8.553 L21.692,6.842 C22.083,6.452 22.083,5.818 21.692,5.428 L19.571,3.307 C19.180,2.916 18.547,2.916 18.157,3.307 L16.463,5.000 C15.997,4.751 15.513,4.532 15.000,4.373 L15.000,1.999 C15.000,1.447 14.552,0.999 14.000,0.999 L11.000,0.999 C10.448,0.999 10.000,1.447 10.000,1.999 L10.000,4.373 C9.485,4.532 9.000,4.752 8.533,5.002 L6.842,3.310 C6.452,2.920 5.819,2.920 5.428,3.310 L3.307,5.432 C2.916,5.822 2.916,6.456 3.307,6.846 L5.016,8.556 C4.775,9.016 4.561,9.494 4.406,9.999 L2.000,9.999 C1.448,9.999 1.000,10.447 1.000,10.999 L1.000,13.999 C1.000,14.552 1.448,14.999 2.000,14.999 L4.407,14.999 C4.563,15.505 4.777,15.983 5.019,16.444 L3.307,18.156 C2.917,18.546 2.917,19.180 3.307,19.570 L5.429,21.691 C5.819,22.082 6.452,22.082 6.843,21.691 L8.539,19.995 C9.004,20.243 9.487,20.463 10.000,20.621 L10.000,22.999 C10.000,23.552 10.448,23.999 11.000,23.999 L14.000,23.999 C14.552,23.999 15.000,23.552 15.000,22.999 L15.000,20.621 C15.511,20.463 15.993,20.244 16.457,19.997 L18.156,21.696 C18.547,22.086 19.180,22.086 19.570,21.696 L21.692,19.574 C22.082,19.184 22.082,18.551 21.692,18.160 L19.979,16.447 C20.221,15.985 20.436,15.506 20.592,14.999 L23.000,14.999 C23.552,14.999 24.000,14.552 24.000,13.999 L24.000,10.999 ZM12.500,16.997 C10.007,16.997 7.986,14.982 7.986,12.497 C7.986,10.012 10.007,7.996 12.500,7.996 C14.992,7.996 17.013,10.012 17.013,12.497 C17.013,14.982 14.992,16.997 12.500,16.997 ZM12.500,8.995 C10.563,8.995 8.993,10.563 8.993,12.496 C8.993,14.429 10.563,15.996 12.500,15.996 C14.436,15.996 16.006,14.429 16.006,12.496 C16.006,10.563 14.436,8.995 12.500,8.995 Z" class="cls-1"/>
</svg>
