<svg xmlns="http://www.w3.org/2000/svg" xmlns:xlink="http://www.w3.org/1999/xlink" preserveAspectRatio="xMidYMid" width="25" height="25" viewBox="0 0 25 25">
  <defs>
    <style>
      .cls-1 {
        fill: #3c4042;
        fill-rule: evenodd;
      }
    </style>
  </defs>
  <path d="M22.831,0.996 C23.357,0.996 23.696,1.159 23.771,1.234 C24.055,1.518 24.344,3.102 22.913,4.535 L17.760,9.699 L17.443,10.016 L17.470,10.463 C17.554,11.900 17.707,14.449 17.842,16.670 C17.969,18.772 18.088,20.758 18.095,20.904 C18.100,21.071 18.107,21.260 17.867,21.551 C17.415,22.101 16.319,23.268 16.320,23.268 L16.320,23.268 C16.266,23.322 16.219,23.352 16.184,23.368 C16.032,22.970 14.272,18.204 13.475,16.009 L12.949,14.563 L11.841,15.631 L8.647,18.708 L8.350,18.994 L8.341,19.407 C8.330,19.896 8.332,20.800 8.334,21.599 C8.335,22.231 8.337,22.796 8.331,23.028 C8.330,23.063 8.331,23.103 8.333,23.150 C8.339,23.300 8.116,23.622 7.893,23.888 C7.861,23.918 7.833,23.940 7.811,23.957 C7.680,23.746 7.393,23.287 7.056,22.750 C6.423,21.738 5.612,20.443 5.355,20.024 L5.228,19.816 L5.020,19.690 C3.356,18.683 1.451,17.463 1.027,17.174 C1.032,17.168 1.036,17.162 1.042,17.156 L1.076,17.124 C1.626,16.662 1.840,16.628 1.878,16.628 L1.968,16.628 L2.128,16.627 C2.382,16.627 2.802,16.633 3.274,16.639 C3.883,16.648 4.574,16.657 5.102,16.657 C5.298,16.657 5.472,16.655 5.612,16.653 L6.028,16.648 L6.317,16.348 L9.393,13.168 L10.459,12.066 L9.020,11.535 C6.776,10.707 1.968,8.905 1.610,8.766 C1.624,8.733 1.648,8.690 1.690,8.647 C1.702,8.636 2.880,7.527 3.429,7.073 C3.671,6.872 3.844,6.846 3.968,6.846 L4.047,6.848 C4.192,6.855 6.168,6.985 8.260,7.121 C10.504,7.268 13.090,7.437 14.541,7.529 L14.993,7.557 L15.312,7.237 L20.464,2.076 C21.401,1.136 22.350,0.996 22.831,0.996 M22.831,-0.003 C21.905,-0.003 20.770,0.353 19.756,1.369 L14.604,6.530 C11.703,6.347 4.271,5.855 4.087,5.849 C4.053,5.848 4.014,5.846 3.968,5.846 C3.717,5.846 3.283,5.895 2.790,6.302 C2.211,6.783 1.005,7.919 1.005,7.919 C0.713,8.212 0.566,8.574 0.601,8.915 C0.623,9.121 0.734,9.496 1.238,9.694 C1.545,9.815 6.422,11.643 8.674,12.472 L5.598,15.653 C5.462,15.655 5.293,15.657 5.102,15.657 C4.164,15.657 2.711,15.627 2.128,15.627 C2.051,15.627 1.989,15.627 1.946,15.628 C1.939,15.628 1.931,15.628 1.924,15.628 C1.903,15.628 1.879,15.628 1.852,15.628 C1.645,15.628 1.257,15.667 0.433,16.357 L0.364,16.421 C0.073,16.713 0.005,17.003 -0.001,17.195 C-0.007,17.391 0.046,17.676 0.331,17.906 C0.502,18.045 2.700,19.455 4.502,20.546 C4.934,21.250 6.923,24.417 7.027,24.590 C7.178,24.846 7.426,24.992 7.723,25.001 C7.731,25.001 7.738,25.001 7.747,25.001 C8.035,25.001 8.331,24.858 8.621,24.577 C9.440,23.616 9.327,23.219 9.331,23.051 C9.344,22.528 9.322,20.308 9.341,19.428 L12.535,16.351 C13.351,18.596 15.137,23.432 15.256,23.740 C15.455,24.247 15.829,24.357 16.035,24.377 C16.068,24.382 16.102,24.383 16.137,24.383 C16.445,24.383 16.765,24.238 17.028,23.974 C17.028,23.974 18.159,22.771 18.640,22.187 C19.122,21.601 19.102,21.102 19.094,20.866 C19.090,20.702 18.637,13.297 18.468,10.405 L23.621,5.242 C25.447,3.412 25.157,1.205 24.478,0.526 C24.178,0.226 23.571,-0.003 22.831,-0.003 L22.831,-0.003 Z" class="cls-1"/>
</svg>
