<svg xmlns="http://www.w3.org/2000/svg" xmlns:xlink="http://www.w3.org/1999/xlink" preserveAspectRatio="xMidYMid" width="25" height="25" viewBox="0 0 25 25">
  <defs>
    <style>
      .cls-1 {
        fill: #3c4042;
        fill-rule: evenodd;
      }
    </style>
  </defs>
  <path d="M22.656,25.000 L2.343,25.000 C1.049,25.000 -0.000,23.949 -0.000,22.656 L-0.000,2.342 C-0.000,1.048 1.049,-0.001 2.343,-0.001 L22.656,-0.001 C23.950,-0.001 25.000,1.048 25.000,2.342 L25.000,22.656 C25.000,23.949 23.950,25.000 22.656,25.000 ZM24.000,2.342 C24.000,1.602 23.397,0.999 22.656,0.999 L2.343,0.999 C1.603,0.999 1.000,1.602 1.000,2.342 L1.000,22.656 C1.000,23.396 1.603,24.000 2.343,24.000 L22.656,24.000 C23.397,24.000 24.000,23.396 24.000,22.656 L24.000,2.342 ZM20.500,18.999 L8.000,18.999 L8.000,20.997 L7.000,20.997 L7.000,18.999 L4.500,18.999 C4.224,18.999 4.000,18.775 4.000,18.499 C4.000,18.223 4.224,17.999 4.500,17.999 L7.000,17.999 L7.000,15.996 L8.000,15.996 L8.000,17.999 L20.500,17.999 C20.776,17.999 21.000,18.223 21.000,18.499 C21.000,18.775 20.776,18.999 20.500,18.999 ZM20.500,13.000 L19.000,13.000 L19.000,14.996 L18.000,14.996 L18.000,13.000 L4.500,13.000 C4.224,13.000 4.000,12.775 4.000,12.499 C4.000,12.223 4.224,11.999 4.500,11.999 L18.000,11.999 L18.000,9.997 L19.000,9.997 L19.000,11.999 L20.500,11.999 C20.776,11.999 21.000,12.223 21.000,12.499 C21.000,12.775 20.776,13.000 20.500,13.000 ZM20.500,6.999 L12.000,6.999 L12.000,8.996 L11.000,8.996 L11.000,6.999 L4.500,6.999 C4.224,6.999 4.000,6.775 4.000,6.499 C4.000,6.223 4.224,5.999 4.500,5.999 L11.000,5.999 L11.000,3.997 L12.000,3.997 L12.000,5.999 L20.500,5.999 C20.776,5.999 21.000,6.223 21.000,6.499 C21.000,6.775 20.776,6.999 20.500,6.999 Z" class="cls-1"/>
</svg>
