<svg xmlns="http://www.w3.org/2000/svg" xmlns:xlink="http://www.w3.org/1999/xlink" preserveAspectRatio="xMidYMid" width="25" height="25" viewBox="0 0 25 25">
  <defs>
    <style>
      .cls-1 {
        fill: #3c4042;
        fill-rule: evenodd;
      }
    </style>
  </defs>
  <path d="M22.656,25.000 L2.344,25.000 C1.049,25.000 -0.000,23.949 -0.000,22.656 L-0.000,2.342 C-0.000,1.048 1.049,-0.001 2.344,-0.001 L22.656,-0.001 C23.950,-0.001 25.000,1.048 25.000,2.342 L25.000,22.656 C25.000,23.949 23.950,25.000 22.656,25.000 ZM24.000,2.342 C24.000,1.602 23.397,0.999 22.656,0.999 L2.344,0.999 C1.603,0.999 1.000,1.602 1.000,2.342 L1.000,22.656 C1.000,23.396 1.603,24.000 2.344,24.000 L22.656,24.000 C23.397,24.000 24.000,23.396 24.000,22.656 L24.000,2.342 ZM20.500,18.999 L11.949,18.999 C11.717,20.140 10.709,20.998 9.500,20.998 C8.291,20.998 7.282,20.140 7.050,18.999 L4.500,18.999 C4.224,18.999 4.000,18.775 4.000,18.499 C4.000,18.223 4.224,17.999 4.500,17.999 L7.050,17.999 C7.281,16.858 8.290,15.998 9.500,15.998 C10.710,15.998 11.718,16.858 11.950,17.999 L20.500,17.999 C20.776,17.999 21.000,18.223 21.000,18.499 C21.000,18.775 20.776,18.999 20.500,18.999 ZM9.500,16.997 C8.671,16.997 8.000,17.669 8.000,18.497 C8.000,19.326 8.671,19.997 9.500,19.997 C10.328,19.997 11.000,19.326 11.000,18.497 C11.000,17.669 10.328,16.997 9.500,16.997 ZM20.500,13.000 L18.949,13.000 C18.717,14.140 17.709,14.997 16.500,14.997 C15.291,14.997 14.283,14.140 14.050,13.000 L4.500,13.000 C4.224,13.000 4.000,12.775 4.000,12.499 C4.000,12.223 4.224,11.999 4.500,11.999 L14.050,11.999 C14.281,10.857 15.290,9.998 16.500,9.998 C17.710,9.998 18.718,10.857 18.949,11.999 L20.500,11.999 C20.776,11.999 21.000,12.223 21.000,12.499 C21.000,12.775 20.776,13.000 20.500,13.000 ZM16.500,10.997 C15.671,10.997 15.000,11.669 15.000,12.497 C15.000,13.325 15.671,13.998 16.500,13.998 C17.328,13.998 18.000,13.325 18.000,12.497 C18.000,11.669 17.328,10.997 16.500,10.997 ZM20.500,6.999 L9.949,6.999 C9.717,8.140 8.709,8.998 7.500,8.998 C6.291,8.998 5.283,8.140 5.050,6.999 L4.500,6.999 C4.224,6.999 4.000,6.775 4.000,6.499 C4.000,6.223 4.224,5.999 4.500,5.999 L5.050,5.999 C5.281,4.857 6.290,3.998 7.500,3.998 C8.710,3.998 9.718,4.857 9.949,5.999 L20.500,5.999 C20.776,5.999 21.000,6.223 21.000,6.499 C21.000,6.775 20.776,6.999 20.500,6.999 ZM7.500,4.997 C6.671,4.997 6.000,5.670 6.000,6.498 C6.000,7.326 6.671,7.997 7.500,7.997 C8.328,7.997 9.000,7.326 9.000,6.498 C9.000,5.670 8.328,4.997 7.500,4.997 Z" class="cls-1"/>
</svg>
