<svg xmlns="http://www.w3.org/2000/svg" xmlns:xlink="http://www.w3.org/1999/xlink" preserveAspectRatio="xMidYMid" width="25" height="25" viewBox="0 0 25 25">
  <defs>
    <style>
      .cls-1 {
        fill: #3c4042;
        fill-rule: evenodd;
      }
    </style>
  </defs>
  <path d="M20.312,24.998 L4.687,24.998 C2.098,24.998 -0.000,22.931 -0.000,20.382 L-0.000,9.613 C-0.000,7.064 2.098,4.997 4.687,4.997 L11.319,4.997 L7.172,0.850 C6.976,0.654 6.976,0.336 7.172,0.140 C7.369,-0.056 7.687,-0.056 7.883,0.140 L12.500,4.757 L17.116,0.140 C17.313,-0.056 17.631,-0.056 17.827,0.140 C18.024,0.336 18.024,0.654 17.827,0.850 L13.681,4.997 L20.312,4.997 C22.901,4.997 25.000,7.064 25.000,9.613 L25.000,20.382 C25.000,22.931 22.901,24.998 20.312,24.998 ZM24.000,9.999 C24.000,7.790 22.209,5.999 20.000,5.999 L5.000,5.999 C2.791,5.999 1.000,7.790 1.000,9.999 L1.000,20.000 C1.000,22.209 2.791,23.999 5.000,23.999 L20.000,23.999 C22.209,23.999 24.000,22.209 24.000,20.000 L24.000,9.999 ZM18.833,21.997 L6.166,21.997 C4.417,21.997 3.000,20.605 3.000,18.887 L3.000,11.109 C3.000,9.391 4.417,7.997 6.166,7.997 L18.833,7.997 C20.582,7.997 22.000,9.391 22.000,11.109 L22.000,18.887 C22.000,20.605 20.582,21.997 18.833,21.997 ZM9.000,8.999 L6.000,8.999 C4.895,8.999 4.000,9.895 4.000,10.999 L4.000,18.999 C4.000,20.104 4.895,20.999 6.000,20.999 L9.000,20.999 L9.000,8.999 ZM10.000,8.999 L10.000,20.999 L15.000,20.999 L15.000,8.999 L10.000,8.999 ZM21.000,10.999 C21.000,9.895 20.104,8.999 19.000,8.999 L16.000,8.999 L16.000,20.999 L19.000,20.999 C20.104,20.999 21.000,20.104 21.000,18.999 L21.000,10.999 Z" class="cls-1"/>
</svg>
