<svg xmlns="http://www.w3.org/2000/svg" xmlns:xlink="http://www.w3.org/1999/xlink" preserveAspectRatio="xMidYMid" width="25" height="25" viewBox="0 0 25 25">
  <defs>
    <style>
      .cls-1 {
        fill: #3c4042;
        fill-rule: evenodd;
      }
    </style>
  </defs>
  <path d="M25.008,12.051 C24.998,12.050 24.988,12.050 24.979,12.049 C24.984,12.199 25.000,12.346 25.000,12.498 C25.000,19.401 19.403,24.998 12.500,24.998 C12.348,24.998 12.200,24.981 12.050,24.976 C12.051,24.986 12.051,24.998 12.051,25.008 C11.713,24.997 11.377,24.978 11.046,24.940 C11.045,24.929 11.045,24.918 11.044,24.907 C4.827,24.184 -0.000,18.908 -0.000,12.498 C-0.000,5.594 5.596,-0.002 12.500,-0.002 C12.652,-0.002 12.799,0.015 12.950,0.021 L12.950,0.021 C12.958,0.021 12.965,0.022 12.972,0.022 C13.301,0.034 13.628,0.052 13.950,0.089 C13.951,0.089 13.952,0.089 13.954,0.089 L13.954,0.089 C19.693,0.755 24.240,5.306 24.906,11.043 C24.917,11.044 24.928,11.045 24.939,11.045 C24.978,11.376 24.996,11.713 25.008,12.051 ZM24.000,12.498 C24.000,12.331 23.983,12.169 23.976,12.004 C20.856,12.018 18.025,13.227 15.895,15.187 L20.968,20.259 C22.844,18.213 24.000,15.494 24.000,12.498 ZM20.260,20.967 L15.188,15.894 C13.228,18.024 12.019,20.854 12.005,23.974 C12.170,23.981 12.333,23.998 12.500,23.998 C15.495,23.998 18.214,22.843 20.260,20.967 ZM11.007,23.889 C11.042,20.527 12.356,17.478 14.479,15.186 L12.500,13.206 L4.739,20.967 C6.439,22.525 8.606,23.574 11.007,23.889 ZM4.032,20.260 L11.793,12.499 L9.822,10.528 C7.528,12.652 4.475,13.966 1.109,13.993 C1.424,16.394 2.473,18.561 4.032,20.260 ZM1.000,12.498 C1.000,12.666 1.016,12.831 1.024,12.998 C4.148,12.992 6.983,11.783 9.115,9.821 L4.030,4.737 C2.154,6.783 1.000,9.502 1.000,12.498 ZM12.500,0.998 C9.504,0.998 6.784,2.153 4.737,4.030 L9.822,9.114 C11.784,6.982 12.993,4.146 12.999,1.022 C12.832,1.014 12.668,0.998 12.500,0.998 ZM13.994,1.107 C13.967,4.474 12.654,7.527 10.529,9.821 L12.500,11.792 L20.262,4.030 C18.562,2.471 16.395,1.422 13.994,1.107 ZM20.969,4.737 L13.207,12.499 L15.186,14.479 C17.479,12.355 20.528,11.041 23.891,11.006 C23.577,8.605 22.528,6.437 20.969,4.737 Z" class="cls-1"/>
</svg>
