<svg xmlns="http://www.w3.org/2000/svg" xmlns:xlink="http://www.w3.org/1999/xlink" preserveAspectRatio="xMidYMid" width="13" height="25" viewBox="0 0 13 25">
  <defs>
    <style>
      .cls-1 {
        fill: #3c4042;
        fill-rule: evenodd;
      }
    </style>
  </defs>
  <path d="M13.000,10.499 C13.000,10.499 13.000,10.499 13.000,10.500 L13.000,14.498 C13.000,14.499 13.000,14.499 13.000,14.499 C13.000,14.499 13.000,14.499 13.000,14.500 L13.000,16.921 C13.000,18.620 11.525,19.997 9.705,19.997 L7.000,19.997 L7.000,23.999 L11.500,23.999 C11.776,23.999 12.000,24.223 12.000,24.499 C12.000,24.775 11.776,24.999 11.500,24.999 L1.500,24.999 C1.223,24.999 1.000,24.775 1.000,24.499 C1.000,24.223 1.223,23.999 1.500,23.999 L6.000,23.999 L6.000,19.997 L3.294,19.997 C1.474,19.997 -0.000,18.620 -0.000,16.921 L-0.000,3.075 C-0.000,1.376 1.474,-0.002 3.294,-0.002 L9.705,-0.002 C11.525,-0.002 13.000,1.376 13.000,3.075 L13.000,6.499 C13.000,6.499 13.000,6.499 13.000,6.499 C13.000,6.499 13.000,6.499 13.000,6.500 L13.000,10.498 C13.000,10.499 13.000,10.499 13.000,10.499 ZM12.000,14.999 L9.500,14.999 C9.224,14.999 9.000,14.775 9.000,14.499 C9.000,14.223 9.224,13.999 9.500,13.999 L12.000,13.999 L12.000,10.999 L9.500,10.999 C9.224,10.999 9.000,10.775 9.000,10.499 C9.000,10.223 9.224,9.999 9.500,9.999 L12.000,9.999 L12.000,6.999 L9.500,6.999 C9.224,6.999 9.000,6.775 9.000,6.499 C9.000,6.223 9.224,5.999 9.500,5.999 L12.000,5.999 L12.000,2.999 C12.000,1.894 11.104,0.999 10.000,0.999 L3.000,0.999 C1.895,0.999 1.000,1.894 1.000,2.999 L1.000,5.999 L3.500,5.999 C3.776,5.999 4.000,6.223 4.000,6.499 C4.000,6.775 3.776,6.999 3.500,6.999 L1.000,6.999 L1.000,9.999 L3.500,9.999 C3.776,9.999 4.000,10.223 4.000,10.499 C4.000,10.775 3.776,10.999 3.500,10.999 L1.000,10.999 L1.000,13.999 L3.500,13.999 C3.776,13.999 4.000,14.223 4.000,14.499 C4.000,14.775 3.776,14.999 3.500,14.999 L1.000,14.999 L1.000,16.999 C1.000,18.103 1.895,18.999 3.000,18.999 L10.000,18.999 C11.104,18.999 12.000,18.103 12.000,16.999 L12.000,14.999 Z" class="cls-1"/>
</svg>
