<svg xmlns="http://www.w3.org/2000/svg" xmlns:xlink="http://www.w3.org/1999/xlink" preserveAspectRatio="xMidYMid" width="19" height="24" viewBox="0 0 19 24">
  <defs>
    <style>
      .cls-1 {
        fill: #3c4042;
        fill-rule: evenodd;
      }
    </style>
  </defs>
  <path d="M15.392,11.867 C16.396,13.143 17.000,14.748 17.000,16.499 C17.000,20.640 13.642,23.998 9.500,23.998 C5.357,23.998 2.000,20.640 2.000,16.499 C2.000,14.748 2.604,13.143 3.608,11.867 L0.003,1.633 L6.531,0.009 L9.701,9.008 C11.590,9.058 13.302,9.806 14.595,11.005 L17.643,2.350 L13.139,1.230 L11.141,6.902 L10.448,5.746 L12.468,0.009 L18.997,1.633 L15.392,11.867 ZM5.861,1.230 L1.356,2.350 L4.404,11.005 C5.539,9.952 6.997,9.245 8.616,9.054 L5.861,1.230 ZM9.500,9.997 C5.910,9.997 3.000,12.908 3.000,16.498 C3.000,20.088 5.910,22.998 9.500,22.998 C13.090,22.998 16.000,20.088 16.000,16.498 C16.000,12.908 13.090,9.997 9.500,9.997 ZM9.000,14.998 L8.000,14.998 L8.000,13.999 L9.000,13.999 L9.000,13.998 L10.000,13.998 L10.000,13.999 L10.000,14.998 L10.000,19.998 L9.000,19.998 L9.000,14.998 Z" class="cls-1"/>
</svg>
