<svg xmlns="http://www.w3.org/2000/svg" xmlns:xlink="http://www.w3.org/1999/xlink" preserveAspectRatio="xMidYMid" width="23" height="25" viewBox="0 0 23 25">
  <defs>
    <style>
      .cls-1 {
        fill: #3c4042;
        fill-rule: evenodd;
      }
    </style>
  </defs>
  <path d="M18.147,17.005 C16.962,17.005 15.524,16.708 13.800,15.912 C10.821,14.536 8.052,14.120 5.788,14.120 C3.662,14.120 1.991,14.487 1.000,14.775 L1.000,24.499 C1.000,24.776 0.776,24.999 0.500,24.999 C0.224,24.999 -0.000,24.776 -0.000,24.499 L-0.000,15.115 L-0.000,8.805 L-0.000,7.720 L-0.000,2.500 L-0.000,1.586 C-0.000,1.586 2.765,0.031 6.854,0.031 C8.898,0.031 11.274,0.421 13.800,1.586 C15.524,2.382 16.962,2.680 18.147,2.680 C21.706,2.680 23.000,-0.006 23.000,-0.006 L23.000,5.993 L23.000,7.077 L23.000,14.319 C23.000,14.319 21.706,17.005 18.147,17.005 ZM22.000,2.549 C21.097,3.176 19.839,3.698 18.147,3.698 C16.693,3.698 15.092,3.300 13.388,2.514 C11.282,1.542 9.085,1.051 6.854,1.051 C4.057,1.051 1.931,1.820 1.000,2.229 L1.000,7.228 C2.150,6.730 4.220,6.035 6.854,6.035 C8.898,6.035 11.274,6.456 13.800,7.720 C15.524,8.584 16.962,8.907 18.147,8.907 C20.009,8.907 21.239,8.111 22.000,7.350 L22.000,2.549 ZM18.147,9.992 C16.962,9.992 15.524,9.668 13.800,8.805 C11.274,7.540 8.898,7.119 6.854,7.119 C4.220,7.119 2.150,7.815 1.000,8.313 L1.000,13.717 C2.082,13.425 3.741,13.101 5.788,13.101 C8.671,13.101 11.506,13.735 14.213,14.984 C15.655,15.649 16.979,15.987 18.147,15.987 C20.536,15.987 21.668,14.559 22.000,14.043 L22.000,8.435 C21.239,9.196 20.009,9.992 18.147,9.992 Z" class="cls-1"/>
</svg>
