<svg xmlns="http://www.w3.org/2000/svg" xmlns:xlink="http://www.w3.org/1999/xlink" preserveAspectRatio="xMidYMid" width="23.031" height="23.03" viewBox="0 0 23.031 23.03">
  <defs>
    <style>
      .cls-1 {
        fill: #3c4042;
        fill-rule: evenodd;
      }
    </style>
  </defs>
  <path d="M20.968,11.850 L11.850,20.968 C9.139,23.680 4.743,23.680 2.031,20.968 C-0.681,18.256 -0.681,13.860 2.031,11.148 L10.448,2.732 L10.448,2.731 L11.149,2.030 C13.861,-0.681 18.257,-0.681 20.968,2.030 C23.680,4.742 23.680,9.138 20.968,11.850 ZM2.732,11.850 C0.408,14.174 0.408,17.943 2.732,20.266 C5.057,22.590 8.825,22.590 11.149,20.266 L2.733,11.850 L2.732,11.850 ZM11.149,3.433 L3.434,11.148 L11.850,19.565 L19.566,11.850 L11.149,3.433 ZM20.267,2.731 C17.943,0.407 14.175,0.407 11.850,2.731 L11.850,2.732 L20.267,11.148 L20.267,11.148 C22.591,8.824 22.591,5.056 20.267,2.731 ZM15.357,13.253 L13.955,11.850 L15.357,10.448 L16.760,11.850 L15.357,13.253 ZM11.850,9.746 L13.253,8.343 L14.656,9.746 L13.253,11.148 L11.850,9.746 ZM9.746,7.641 L11.149,6.239 L12.552,7.641 L11.149,9.044 L9.746,7.641 ZM8.344,11.850 L6.941,10.448 L8.344,9.044 L9.746,10.448 L8.344,11.850 ZM11.850,12.551 L10.448,13.953 L9.045,12.551 L10.448,11.148 L11.850,12.551 ZM13.955,14.655 L12.552,16.058 L11.149,14.655 L12.552,13.253 L13.955,14.655 Z" class="cls-1"/>
</svg>
