<svg xmlns="http://www.w3.org/2000/svg" xmlns:xlink="http://www.w3.org/1999/xlink" preserveAspectRatio="xMidYMid" width="25" height="25" viewBox="0 0 25 25">
  <defs>
    <style>
      .cls-1 {
        fill: #3c4042;
        fill-rule: evenodd;
      }
    </style>
  </defs>
  <path d="M25.000,12.498 C25.000,19.401 19.403,24.998 12.500,24.998 C5.596,24.998 -0.000,19.401 -0.000,12.498 C-0.000,9.542 1.032,6.830 2.747,4.690 C2.747,4.690 2.747,4.690 2.747,4.689 C2.748,4.689 2.749,4.688 2.749,4.687 C2.984,4.395 3.232,4.115 3.492,3.845 C3.492,3.845 3.492,3.845 3.492,3.844 C3.492,3.845 3.492,3.845 3.492,3.845 C5.767,1.477 8.958,-0.002 12.500,-0.002 C16.042,-0.002 19.233,1.478 21.507,3.845 C21.507,3.845 21.507,3.845 21.507,3.844 C21.508,3.846 21.509,3.847 21.511,3.848 C21.770,4.118 22.018,4.398 22.252,4.690 C22.252,4.690 22.252,4.690 22.252,4.690 C22.252,4.690 22.252,4.690 22.252,4.690 C23.968,6.830 25.000,9.542 25.000,12.498 ZM21.755,5.692 C21.282,6.526 20.691,7.289 20.000,7.961 L20.000,6.495 C20.419,5.986 20.758,5.421 21.055,4.832 C18.950,2.484 15.902,0.997 12.500,0.997 C9.097,0.997 6.050,2.483 3.944,4.832 C4.241,5.421 4.580,5.986 5.000,6.495 L5.000,7.961 C4.309,7.289 3.717,6.526 3.245,5.692 C1.840,7.599 1.000,9.947 1.000,12.498 C1.000,15.261 1.976,17.795 3.600,19.778 C4.009,19.155 4.462,18.562 5.000,18.040 L5.000,19.504 C4.733,19.827 4.493,20.170 4.273,20.525 C6.362,22.665 9.273,23.998 12.500,23.998 C15.726,23.998 18.638,22.665 20.726,20.525 C20.506,20.170 20.266,19.827 20.000,19.504 L20.000,18.040 C20.537,18.562 20.991,19.155 21.400,19.778 C23.024,17.795 24.000,15.261 24.000,12.498 C24.000,9.947 23.159,7.599 21.755,5.692 ZM16.000,15.594 C16.705,15.834 17.372,16.146 18.000,16.514 L18.000,17.697 C17.381,17.282 16.715,16.926 16.000,16.656 L16.000,15.594 ZM16.000,9.339 C16.714,9.070 17.382,8.714 18.000,8.299 L18.000,9.495 C17.373,9.862 16.704,10.170 16.000,10.408 L16.000,9.339 ZM11.000,16.115 L11.000,15.103 C11.490,15.036 11.990,14.999 12.500,14.999 C13.009,14.999 13.510,15.036 14.000,15.103 L14.000,16.115 C13.511,16.042 13.011,16.000 12.500,16.000 C11.989,16.000 11.489,16.042 11.000,16.115 ZM11.000,10.889 L11.000,9.884 C11.489,9.958 11.989,9.999 12.500,9.999 C13.011,9.999 13.511,9.958 14.000,9.884 L14.000,10.889 C13.509,10.956 13.010,10.999 12.500,10.999 C11.989,10.999 11.490,10.956 11.000,10.889 ZM7.000,16.514 C7.627,16.146 8.294,15.834 9.000,15.594 L9.000,16.656 C8.285,16.926 7.618,17.282 7.000,17.697 L7.000,16.514 ZM7.000,8.299 C7.618,8.714 8.285,9.070 9.000,9.339 L9.000,10.408 C8.296,10.170 7.626,9.862 7.000,9.495 L7.000,8.299 Z" class="cls-1"/>
</svg>
