<svg xmlns="http://www.w3.org/2000/svg" xmlns:xlink="http://www.w3.org/1999/xlink" preserveAspectRatio="xMidYMid" width="25" height="19" viewBox="0 0 25 19">
  <defs>
    <style>
      .cls-1 {
        fill: #3c4042;
        fill-rule: evenodd;
      }
    </style>
  </defs>
  <path d="M20.000,18.999 L5.000,18.999 C2.238,18.999 -0.000,16.760 -0.000,13.999 L-0.000,12.999 L-0.000,5.999 L-0.000,4.999 C-0.000,2.238 2.238,-0.001 5.000,-0.001 L20.000,-0.001 C22.761,-0.001 25.000,2.238 25.000,4.999 L25.000,5.999 L25.000,12.999 L25.000,13.999 C25.000,16.760 22.761,18.999 20.000,18.999 ZM1.000,11.999 L5.000,11.999 L5.000,6.999 L1.000,6.999 L1.000,11.999 ZM12.000,0.998 L5.000,0.998 C2.791,0.998 1.000,2.790 1.000,4.999 L1.000,5.999 L6.000,5.999 L6.000,12.999 L1.000,12.999 L1.000,13.999 C1.000,16.208 2.791,17.999 5.000,17.999 L12.000,17.999 L12.000,12.948 C10.306,12.704 9.000,11.261 9.000,9.499 C9.000,7.737 10.306,6.294 12.000,6.050 L12.000,0.998 ZM10.000,9.499 C10.000,10.879 11.119,11.999 12.500,11.999 C13.880,11.999 15.000,10.879 15.000,9.499 C15.000,8.118 13.880,6.999 12.500,6.999 C11.119,6.999 10.000,8.118 10.000,9.499 ZM24.000,6.999 L20.000,6.999 L20.000,11.999 L24.000,11.999 L24.000,6.999 ZM24.000,12.999 L19.000,12.999 L19.000,5.999 L24.000,5.999 L24.000,4.999 C24.000,2.790 22.209,0.998 20.000,0.998 L13.000,0.998 L13.000,6.050 C14.694,6.294 16.000,7.737 16.000,9.499 C16.000,11.261 14.694,12.704 13.000,12.948 L13.000,17.999 L20.000,17.999 C22.209,17.999 24.000,16.208 24.000,13.999 L24.000,12.999 Z" class="cls-1"/>
</svg>
