<svg xmlns="http://www.w3.org/2000/svg" xmlns:xlink="http://www.w3.org/1999/xlink" preserveAspectRatio="xMidYMid" width="9" height="25" viewBox="0 0 9 25">
  <defs>
    <style>
      .cls-1 {
        fill: #3c4042;
        fill-rule: evenodd;
      }
    </style>
  </defs>
  <path d="M9.000,15.955 L9.000,22.039 C9.000,23.674 7.656,24.998 6.000,24.998 L3.000,24.998 C1.343,24.998 -0.000,23.674 -0.000,22.039 L-0.000,15.955 C-0.000,14.670 0.837,13.587 2.000,13.179 L2.000,9.779 C0.837,9.290 -0.000,7.987 -0.000,6.442 L-0.000,5.554 C-0.000,3.590 1.343,1.997 3.000,1.997 L6.000,1.997 C7.656,1.997 9.000,3.590 9.000,5.554 L9.000,6.442 C9.000,7.987 8.162,9.290 7.000,9.779 L7.000,13.179 C8.162,13.587 9.000,14.670 9.000,15.955 ZM8.000,6.999 L8.000,4.999 C8.000,3.894 7.104,2.999 6.000,2.999 L3.000,2.999 C1.895,2.999 1.000,3.894 1.000,4.999 L1.000,6.999 C1.000,8.103 1.895,8.999 3.000,8.999 L6.000,8.999 C7.104,8.999 8.000,8.103 8.000,6.999 ZM3.000,9.996 L3.000,12.997 L6.000,12.997 L6.000,9.996 L3.000,9.996 ZM6.000,13.999 L3.000,13.999 C1.895,13.999 1.000,14.894 1.000,15.999 L1.000,21.999 C1.000,23.104 1.895,23.999 3.000,23.999 L6.000,23.999 C7.104,23.999 8.000,23.104 8.000,21.999 L8.000,15.999 C8.000,14.894 7.104,13.999 6.000,13.999 ZM6.500,0.999 L2.500,0.999 C2.224,0.999 2.000,0.775 2.000,0.499 C2.000,0.223 2.224,-0.001 2.500,-0.001 L6.500,-0.001 C6.776,-0.001 7.000,0.223 7.000,0.499 C7.000,0.775 6.776,0.999 6.500,0.999 Z" class="cls-1"/>
</svg>
