<svg xmlns="http://www.w3.org/2000/svg" xmlns:xlink="http://www.w3.org/1999/xlink" preserveAspectRatio="xMidYMid" width="23" height="25" viewBox="0 0 23 25">
  <defs>
    <style>
      .cls-1 {
        fill: #3c4042;
        fill-rule: evenodd;
      }
    </style>
  </defs>
  <path d="M18.000,24.999 L5.000,24.999 C2.238,24.999 -0.000,22.761 -0.000,19.999 L-0.000,4.999 C-0.000,2.238 2.238,-0.001 5.000,-0.001 L18.000,-0.001 C20.761,-0.001 23.000,2.238 23.000,4.999 L23.000,19.999 C23.000,22.761 20.761,24.999 18.000,24.999 ZM1.000,17.948 C3.799,17.692 6.000,15.365 6.000,12.499 C6.000,9.633 3.799,7.306 1.000,7.050 L1.000,17.948 ZM11.000,0.999 L5.000,0.999 C2.791,0.999 1.000,2.790 1.000,4.999 L1.000,6.049 C4.352,6.309 7.000,9.080 7.000,12.499 C7.000,15.918 4.352,18.689 1.000,18.949 L1.000,19.999 C1.000,22.208 2.791,24.000 5.000,24.000 L11.000,24.000 L11.000,0.999 ZM22.000,6.996 C19.200,7.255 17.000,9.605 17.000,12.499 C17.000,15.393 19.200,17.743 22.000,18.002 L22.000,6.996 ZM22.000,19.011 C18.648,18.750 16.000,15.951 16.000,12.499 C16.000,9.047 18.648,6.249 22.000,5.987 L22.000,4.999 C22.000,2.790 20.209,0.999 18.000,0.999 L12.000,0.999 L12.000,24.000 L18.000,24.000 C20.209,24.000 22.000,22.208 22.000,19.999 L22.000,19.011 Z" class="cls-1"/>
</svg>
