<svg xmlns="http://www.w3.org/2000/svg" xmlns:xlink="http://www.w3.org/1999/xlink" preserveAspectRatio="xMidYMid" width="19" height="25" viewBox="0 0 19 25">
  <defs>
    <style>
      .cls-1 {
        fill: #3c4042;
        fill-rule: evenodd;
      }
    </style>
  </defs>
  <path d="M14.502,14.393 C15.424,15.516 16.000,16.932 16.000,18.497 C16.000,22.087 13.089,24.998 9.500,24.998 C5.910,24.998 3.000,22.087 3.000,18.497 C3.000,16.932 3.576,15.516 4.497,14.393 L0.003,1.633 L6.531,0.010 L10.800,12.128 C11.895,12.351 12.872,12.870 13.692,13.568 L17.643,2.350 L13.139,1.231 L11.141,6.902 L10.448,5.746 L12.468,0.010 L18.997,1.633 L14.502,14.393 ZM5.861,1.231 L1.356,2.350 L5.307,13.568 C6.442,12.602 7.893,11.998 9.500,11.998 C9.554,11.998 9.604,12.012 9.658,12.013 L5.861,1.231 ZM9.500,12.997 C6.462,12.997 4.000,15.460 4.000,18.497 C4.000,21.536 6.462,23.998 9.500,23.998 C12.537,23.998 15.000,21.536 15.000,18.497 C15.000,15.460 12.537,12.997 9.500,12.997 Z" class="cls-1"/>
</svg>
