<svg xmlns="http://www.w3.org/2000/svg" xmlns:xlink="http://www.w3.org/1999/xlink" preserveAspectRatio="xMidYMid" width="25" height="25" viewBox="0 0 25 25">
  <defs>
    <style>
      .cls-1 {
        fill: #3c4042;
        fill-rule: evenodd;
      }
    </style>
  </defs>
  <path d="M23.325,18.748 C21.284,22.283 17.775,24.430 14.014,24.892 C14.013,24.894 14.012,24.897 14.011,24.899 C13.970,24.903 13.930,24.903 13.889,24.907 C13.554,24.945 13.218,24.969 12.880,24.980 C12.856,24.980 12.832,24.985 12.808,24.985 C12.809,24.984 12.810,24.982 12.811,24.981 C10.586,25.039 8.319,24.518 6.250,23.323 C0.271,19.872 -1.777,12.226 1.675,6.248 C3.721,2.703 7.244,0.554 11.017,0.100 C11.017,0.100 11.017,0.100 11.017,0.100 C11.019,0.100 11.020,0.100 11.021,0.100 C13.611,-0.211 16.317,0.268 18.750,1.673 C21.186,3.079 22.955,5.186 23.980,7.588 C23.980,7.588 23.980,7.588 23.980,7.588 C23.981,7.589 23.981,7.590 23.981,7.590 C24.145,7.974 24.290,8.365 24.414,8.764 C24.414,8.764 24.414,8.765 24.415,8.765 C24.415,8.765 24.415,8.765 24.415,8.765 C25.423,11.984 25.145,15.595 23.325,18.748 ZM6.750,22.457 C8.835,23.661 11.141,24.135 13.373,23.963 C13.787,23.062 14.028,22.062 14.028,20.999 C14.028,17.133 10.982,13.999 7.225,13.999 C5.017,13.999 3.075,15.098 1.837,16.779 C2.761,19.087 4.429,21.117 6.750,22.457 ZM18.250,2.538 C16.180,1.344 13.894,0.866 11.677,1.027 C11.249,1.930 11.000,2.933 11.000,3.999 C11.000,7.865 14.134,10.999 18.000,10.999 C20.129,10.999 22.012,10.031 23.290,8.528 C22.395,6.090 20.675,3.939 18.250,2.538 ZM23.636,9.649 C22.190,11.095 20.206,11.999 18.000,11.999 C13.581,11.999 10.000,8.417 10.000,3.999 C10.000,3.001 10.193,2.052 10.528,1.171 C7.288,1.737 4.313,3.678 2.541,6.748 C0.917,9.561 0.624,12.772 1.453,15.666 C2.875,14.034 4.928,12.999 7.225,12.999 C11.519,12.999 15.000,16.581 15.000,20.999 C15.000,21.995 14.813,22.942 14.489,23.821 C17.721,23.251 20.690,21.313 22.459,18.247 C24.023,15.538 24.355,12.458 23.636,9.649 Z" class="cls-1"/>
</svg>
