<svg xmlns="http://www.w3.org/2000/svg" xmlns:xlink="http://www.w3.org/1999/xlink" preserveAspectRatio="xMidYMid" width="25" height="25" viewBox="0 0 25 25">
  <defs>
    <style>
      .cls-1 {
        fill: #3c4042;
        fill-rule: evenodd;
      }
    </style>
  </defs>
  <path d="M12.500,24.997 C5.596,24.997 -0.000,19.401 -0.000,12.497 C-0.000,5.594 5.596,-0.003 12.500,-0.003 C19.403,-0.003 25.000,5.594 25.000,12.497 C25.000,19.401 19.403,24.997 12.500,24.997 ZM12.500,0.997 C6.148,0.997 1.000,6.146 1.000,12.497 C1.000,18.849 6.148,23.997 12.500,23.997 C18.851,23.997 24.000,18.849 24.000,12.497 C24.000,6.146 18.851,0.997 12.500,0.997 ZM12.198,15.994 C11.655,15.994 11.105,15.863 10.600,15.584 C9.069,14.742 8.545,12.873 9.429,11.412 C10.313,9.952 17.000,5.004 17.000,5.004 C17.000,5.004 15.854,13.006 14.971,14.467 C14.379,15.447 13.303,15.994 12.198,15.994 ZM10.284,11.931 C10.006,12.390 9.928,12.925 10.065,13.437 C10.209,13.975 10.571,14.427 11.082,14.709 C11.422,14.896 11.808,14.994 12.198,14.994 C12.991,14.994 13.726,14.594 14.115,13.949 C14.528,13.266 15.154,10.163 15.633,7.294 C13.247,9.137 10.703,11.238 10.284,11.931 Z" class="cls-1"/>
</svg>
