<svg xmlns="http://www.w3.org/2000/svg" xmlns:xlink="http://www.w3.org/1999/xlink" preserveAspectRatio="xMidYMid" width="19" height="25" viewBox="0 0 19 25">
  <defs>
    <style>
      .cls-1 {
        fill: #3c4042;
        fill-rule: evenodd;
      }
    </style>
  </defs>
  <path d="M14.502,14.393 C15.424,15.516 16.000,16.932 16.000,18.497 C16.000,22.087 13.090,24.997 9.500,24.997 C5.910,24.997 3.000,22.087 3.000,18.497 C3.000,16.932 3.576,15.516 4.497,14.393 L0.003,1.632 L6.531,0.009 L9.500,8.438 L12.468,0.009 L18.997,1.632 L14.502,14.393 ZM4.000,18.497 C4.000,21.534 6.462,23.997 9.500,23.997 C12.537,23.997 15.000,21.534 15.000,18.497 C15.000,15.459 12.537,12.998 9.500,12.998 C6.462,12.998 4.000,15.459 4.000,18.497 ZM5.861,1.231 L1.356,2.350 L5.307,13.568 C6.127,12.870 7.104,12.351 8.200,12.129 L8.949,10.000 L5.861,1.231 ZM9.341,12.014 C9.395,12.012 9.445,11.998 9.500,11.998 C11.106,11.998 12.558,12.603 13.692,13.568 L17.643,2.350 L13.139,1.231 L9.341,12.014 Z" class="cls-1"/>
</svg>
