<svg xmlns="http://www.w3.org/2000/svg" xmlns:xlink="http://www.w3.org/1999/xlink" preserveAspectRatio="xMidYMid" width="18.75" height="25" viewBox="0 0 18.75 25">
  <defs>
    <style>
      .cls-1 {
        fill: #3c4042;
        fill-rule: evenodd;
      }
    </style>
  </defs>
  <path d="M15.069,12.200 C14.817,11.972 14.553,11.757 14.275,11.559 L17.518,2.350 L13.014,1.231 L11.016,6.902 L10.421,5.909 L12.469,-0.008 L18.747,1.580 L15.069,12.200 ZM8.833,10.025 L5.736,1.231 L1.231,2.350 L4.475,11.559 C4.196,11.757 3.932,11.972 3.680,12.200 L0.003,1.580 L6.280,-0.008 L9.751,10.016 C9.625,10.011 9.502,9.997 9.375,9.997 C9.192,9.997 9.013,10.013 8.833,10.025 ZM9.375,11.998 C12.965,11.998 15.875,14.908 15.875,18.497 C15.875,22.087 12.965,24.998 9.375,24.998 C5.785,24.998 2.875,22.087 2.875,18.497 C2.875,14.908 5.785,11.998 9.375,11.998 ZM9.375,23.997 C12.412,23.997 14.875,21.535 14.875,18.497 C14.875,15.460 12.412,12.997 9.375,12.997 C6.337,12.997 3.875,15.460 3.875,18.497 C3.875,21.535 6.337,23.997 9.375,23.997 Z" class="cls-1"/>
</svg>
