<svg xmlns="http://www.w3.org/2000/svg" xmlns:xlink="http://www.w3.org/1999/xlink" preserveAspectRatio="xMidYMid" width="25" height="24" viewBox="0 0 25 24">
  <defs>
    <style>
      .cls-1 {
        fill: #3c4042;
        fill-rule: evenodd;
      }
    </style>
  </defs>
  <path d="M21.933,23.998 L3.066,23.998 C1.373,23.998 -0.000,22.621 -0.000,20.921 L-0.000,6.078 C-0.000,4.379 1.373,3.001 3.066,3.001 L7.008,3.001 L7.008,-0.003 L17.991,-0.003 L17.991,3.001 L21.933,3.001 C23.627,3.001 25.000,4.379 25.000,6.078 L25.000,20.921 C25.000,22.621 23.627,23.998 21.933,23.998 ZM16.987,0.999 L8.012,0.999 L8.012,3.002 L16.987,3.002 L16.987,0.999 ZM24.000,5.999 C24.000,4.894 23.104,3.999 22.000,3.999 L3.000,3.999 C1.895,3.999 1.000,4.894 1.000,5.999 L1.000,20.999 C1.000,22.103 1.895,23.000 3.000,23.000 L22.000,23.000 C23.104,23.000 24.000,22.103 24.000,20.999 L24.000,5.999 ZM13.000,17.999 L12.000,17.999 L12.000,13.999 L8.000,13.999 L8.000,12.999 L12.000,12.999 L12.000,8.999 L13.000,8.999 L13.000,12.999 L17.000,12.999 L17.000,13.999 L13.000,13.999 L13.000,17.999 Z" class="cls-1"/>
</svg>
