<svg xmlns="http://www.w3.org/2000/svg" xmlns:xlink="http://www.w3.org/1999/xlink" preserveAspectRatio="xMidYMid" width="25" height="25" viewBox="0 0 25 25">
  <defs>
    <style>
      .cls-1 {
        fill: #3c4042;
        fill-rule: evenodd;
      }
    </style>
  </defs>
  <path d="M24.935,11.258 C24.975,11.666 25.000,12.079 25.000,12.498 C25.000,19.401 19.403,24.998 12.500,24.998 C12.081,24.998 11.667,24.976 11.259,24.936 C11.264,24.957 11.265,24.979 11.270,25.000 C10.914,24.965 10.565,24.908 10.219,24.844 C10.215,24.823 10.213,24.801 10.209,24.779 C4.401,23.702 -0.000,18.618 -0.000,12.498 C-0.000,10.131 0.669,7.927 1.812,6.040 C1.812,6.040 1.812,6.040 1.812,6.040 C1.813,6.038 1.814,6.036 1.815,6.035 C2.015,5.705 2.229,5.386 2.458,5.077 C2.459,5.076 2.459,5.074 2.460,5.073 C2.461,5.073 2.461,5.073 2.461,5.073 C4.738,1.999 8.381,-0.002 12.500,-0.002 C12.917,-0.002 13.328,0.021 13.735,0.060 L13.735,0.060 C13.735,0.060 13.735,0.060 13.736,0.060 C14.080,0.094 14.417,0.150 14.752,0.211 C14.762,0.213 14.772,0.214 14.782,0.216 C14.782,0.216 14.782,0.216 14.782,0.216 C19.852,1.152 23.850,5.142 24.789,10.210 C24.807,10.213 24.826,10.215 24.844,10.218 C24.908,10.564 24.965,10.913 25.000,11.269 C24.979,11.264 24.956,11.263 24.935,11.258 ZM11.090,23.901 C11.553,23.958 12.021,23.997 12.500,23.997 C15.201,23.997 17.680,23.060 19.643,21.500 C19.062,18.388 17.730,15.548 15.832,13.173 C12.913,15.268 11.004,18.683 11.004,22.551 C11.004,23.009 11.037,23.458 11.090,23.901 ZM10.060,23.727 C10.021,23.340 10.000,22.949 10.000,22.551 C10.000,18.374 12.049,14.683 15.188,12.402 C14.383,11.497 13.497,10.667 12.534,9.930 C10.256,13.000 6.616,14.999 2.500,14.999 C2.081,14.999 1.670,14.972 1.263,14.930 C2.210,19.324 5.668,22.776 10.060,23.727 ZM1.000,12.498 C1.000,12.974 1.038,13.441 1.094,13.903 C1.555,13.961 2.023,13.999 2.500,13.999 C6.280,13.999 9.623,12.167 11.719,9.352 C9.166,7.602 6.167,6.465 2.921,6.137 C1.709,7.959 1.000,10.145 1.000,12.498 ZM13.903,1.091 C13.442,1.036 12.976,0.998 12.500,0.998 C8.917,0.998 5.717,2.637 3.608,5.206 C6.800,5.623 9.751,6.785 12.282,8.523 C13.365,6.769 14.000,4.710 14.000,2.499 C14.000,2.021 13.962,1.554 13.903,1.091 ZM14.931,1.260 C14.973,1.668 15.000,2.080 15.000,2.499 C15.000,4.928 14.295,7.188 13.096,9.107 C14.162,9.920 15.139,10.840 16.021,11.847 C17.925,10.682 20.156,9.999 22.552,9.999 C22.950,9.999 23.342,10.021 23.730,10.060 C22.779,5.666 19.326,2.207 14.931,1.260 ZM23.904,11.090 C23.460,11.037 23.010,11.004 22.552,11.004 C20.403,11.004 18.399,11.601 16.676,12.623 C18.524,14.962 19.848,17.726 20.504,20.745 C22.657,18.655 24.000,15.735 24.000,12.498 C24.000,12.020 23.960,11.552 23.904,11.090 Z" class="cls-1"/>
</svg>
