<svg xmlns="http://www.w3.org/2000/svg" xmlns:xlink="http://www.w3.org/1999/xlink" preserveAspectRatio="xMidYMid" width="20" height="25" viewBox="0 0 20 25">
  <defs>
    <style>
      .cls-1 {
        fill: #3c4042;
        fill-rule: evenodd;
      }
    </style>
  </defs>
  <path d="M17.748,21.998 L16.984,21.998 L16.984,20.999 L18.000,20.999 C18.552,20.999 19.000,20.551 19.000,20.000 L19.000,1.999 C19.000,1.447 18.552,0.999 18.000,0.999 L16.984,0.999 L16.984,0.998 L5.405,0.998 C5.813,0.394 6.482,-0.003 7.242,-0.003 L17.748,-0.003 C18.992,-0.003 20.000,1.053 20.000,2.354 L20.000,19.641 C20.000,20.942 18.992,21.998 17.748,21.998 ZM15.009,5.355 L15.009,22.640 C15.009,23.942 14.001,24.998 12.758,24.998 L2.251,24.998 C1.008,24.998 -0.000,23.942 -0.000,22.640 L-0.000,5.355 C-0.000,4.052 1.008,2.997 2.251,2.997 L12.758,2.997 C14.001,2.997 15.009,4.052 15.009,5.355 ZM2.000,3.999 C1.447,3.999 1.000,4.446 1.000,4.999 L1.000,22.999 C1.000,23.552 1.447,23.999 2.000,23.999 L13.000,23.999 C13.552,23.999 14.000,23.552 14.000,22.999 L14.000,4.999 C14.000,4.446 13.552,3.999 13.000,3.999 L2.000,3.999 Z" class="cls-1"/>
</svg>
