<svg xmlns="http://www.w3.org/2000/svg" xmlns:xlink="http://www.w3.org/1999/xlink" preserveAspectRatio="xMidYMid" width="25" height="20" viewBox="0 0 25 20">
  <defs>
    <style>
      .cls-1 {
        fill: #3c4042;
        fill-rule: evenodd;
      }
    </style>
  </defs>
  <path d="M16.775,17.761 C14.168,19.338 10.996,19.993 8.125,19.993 C4.443,19.993 1.255,18.917 0.382,17.331 C-0.482,15.763 0.203,12.388 2.000,9.081 L2.000,9.000 L2.023,9.035 C3.460,6.407 5.597,3.827 8.224,2.237 C10.831,0.660 14.004,0.005 16.875,0.005 C20.557,0.005 23.744,1.080 24.618,2.666 C26.173,5.489 22.724,14.162 16.775,17.761 ZM1.255,16.858 C1.792,17.834 4.126,18.856 7.458,18.981 L2.235,10.882 C1.080,13.456 0.688,15.829 1.255,16.858 ZM16.876,0.993 C13.856,0.993 10.967,1.734 8.742,3.080 C6.076,4.694 3.996,7.380 2.663,9.992 L8.671,18.989 C11.491,18.905 14.167,18.182 16.257,16.918 C18.952,15.287 21.049,12.561 22.380,9.922 L17.280,1.007 C17.144,1.004 17.016,0.993 16.876,0.993 ZM23.744,3.139 C23.268,2.273 21.371,1.370 18.622,1.089 L22.905,8.799 C23.951,6.349 24.288,4.127 23.744,3.139 ZM16.113,7.988 L17.428,9.742 L16.571,10.256 L15.308,8.573 L13.201,10.105 L14.429,11.742 L13.571,12.256 L12.397,10.690 L10.289,12.223 L11.429,13.741 L10.571,14.256 L9.485,12.808 L7.257,14.428 L6.742,13.570 L8.887,12.011 L7.571,10.256 L8.428,9.742 L9.692,11.426 L11.799,9.893 L10.571,8.256 L11.429,7.742 L12.603,9.308 L14.710,7.776 L13.571,6.256 L14.429,5.742 L15.515,7.190 L17.743,5.570 L18.257,6.428 L16.113,7.988 Z" class="cls-1"/>
</svg>
