<svg xmlns="http://www.w3.org/2000/svg" xmlns:xlink="http://www.w3.org/1999/xlink" preserveAspectRatio="xMidYMid" width="21" height="24" viewBox="0 0 21 24">
  <defs>
    <style>
      .cls-1 {
        fill: #3c4042;
        fill-rule: evenodd;
      }
    </style>
  </defs>
  <path d="M21.000,13.497 C21.000,19.296 16.299,23.997 10.500,23.997 C4.701,23.997 -0.000,19.296 -0.000,13.497 C-0.000,7.867 4.435,3.285 10.000,3.022 L10.000,0.999 L7.500,0.999 C7.224,0.999 7.000,0.775 7.000,0.499 C7.000,0.223 7.224,-0.001 7.500,-0.001 L13.500,-0.001 C13.776,-0.001 14.000,0.223 14.000,0.499 C14.000,0.775 13.776,0.999 13.500,0.999 L11.000,0.999 L11.000,3.022 C16.565,3.285 21.000,7.867 21.000,13.497 ZM10.508,3.997 C10.505,3.997 10.503,3.999 10.500,3.999 C10.497,3.999 10.495,3.997 10.492,3.997 C5.249,4.001 1.000,8.253 1.000,13.497 C1.000,18.743 5.253,22.997 10.500,22.997 C15.746,22.997 20.000,18.743 20.000,13.497 C20.000,8.253 15.751,4.001 10.508,3.997 ZM11.000,16.999 L10.000,16.999 C9.447,16.999 9.000,16.551 9.000,15.999 L9.000,14.999 C9.000,14.447 9.447,13.999 10.000,13.999 L10.000,8.499 C10.000,8.223 10.224,7.999 10.500,7.999 C10.776,7.999 11.000,8.223 11.000,8.499 L11.000,13.999 C11.552,13.999 12.000,14.447 12.000,14.999 L12.000,15.999 C12.000,16.551 11.552,16.999 11.000,16.999 Z" class="cls-1"/>
</svg>
