<svg xmlns="http://www.w3.org/2000/svg" xmlns:xlink="http://www.w3.org/1999/xlink" preserveAspectRatio="xMidYMid" width="25" height="25" viewBox="0 0 25 25">
  <defs>
    <style>
      .cls-1 {
        fill: #3c4042;
        fill-rule: evenodd;
      }
    </style>
  </defs>
  <path d="M24.141,6.435 L23.412,5.726 C23.771,5.235 23.986,4.637 23.986,3.988 C23.986,2.328 22.611,0.982 20.916,0.982 C20.245,0.982 19.629,1.198 19.124,1.556 L18.413,0.865 C19.106,0.334 19.968,0.004 20.916,0.004 C23.171,0.004 25.000,1.795 25.000,4.006 C25.000,4.923 24.672,5.759 24.141,6.435 ZM22.964,12.500 C22.964,16.744 20.395,20.392 16.702,22.053 L18.732,24.042 C18.952,24.257 18.952,24.607 18.732,24.823 C18.513,25.038 18.156,25.038 17.936,24.823 L15.561,22.495 C14.515,22.829 13.401,23.014 12.242,23.014 C11.084,23.014 9.972,22.829 8.927,22.496 L6.553,24.823 C6.333,25.038 5.977,25.038 5.757,24.823 C5.537,24.607 5.537,24.257 5.757,24.042 L7.785,22.054 C4.091,20.394 1.520,16.746 1.520,12.500 C1.520,6.693 6.320,1.987 12.242,1.987 C18.164,1.987 22.964,6.693 22.964,12.500 ZM12.258,2.999 C6.905,2.999 2.566,7.254 2.566,12.500 C2.566,17.748 6.905,22.001 12.258,22.001 C17.610,22.001 21.950,17.748 21.950,12.500 C21.950,7.254 17.610,2.999 12.258,2.999 ZM15.860,16.822 L11.879,12.921 C11.743,12.788 11.701,12.604 11.735,12.431 L11.735,5.499 C11.735,5.223 11.963,5.000 12.244,5.000 C12.526,5.000 12.755,5.223 12.755,5.499 L12.755,12.219 L16.656,16.042 C16.876,16.258 16.876,16.607 16.656,16.822 C16.437,17.038 16.080,17.038 15.860,16.822 ZM4.077,0.982 C2.381,0.982 1.006,2.328 1.006,3.988 C1.006,4.376 1.087,4.745 1.225,5.086 L0.462,5.828 C0.173,5.279 -0.006,4.666 -0.006,4.006 C-0.006,1.795 1.822,0.004 4.077,0.004 C4.763,0.004 5.398,0.185 5.965,0.477 L5.219,1.202 C4.866,1.063 4.481,0.982 4.077,0.982 Z" class="cls-1"/>
</svg>
