<svg xmlns="http://www.w3.org/2000/svg" xmlns:xlink="http://www.w3.org/1999/xlink" preserveAspectRatio="xMidYMid" width="21.969" height="21.97" viewBox="0 0 21.969 21.97">
  <defs>
    <style>
      .cls-1 {
        fill: #3c4042;
        fill-rule: evenodd;
      }
    </style>
  </defs>
  <path d="M20.975,18.969 C20.712,9.153 12.816,1.257 3.000,0.994 L3.000,-0.006 C13.368,0.258 21.711,8.601 21.975,18.969 L20.975,18.969 ZM4.000,4.969 L4.000,7.969 L3.000,7.969 L3.000,4.969 L4.000,4.969 ZM8.004,14.666 L2.950,19.720 C2.971,19.802 3.000,19.881 3.000,19.969 L3.000,20.969 C3.000,21.522 2.552,21.969 2.000,21.969 L1.000,21.969 C0.447,21.969 -0.000,21.522 -0.000,20.969 L-0.000,19.969 C-0.000,19.417 0.447,18.969 1.000,18.969 L2.000,18.969 C2.088,18.969 2.167,18.998 2.248,19.019 L7.303,13.965 L8.004,14.666 ZM13.008,9.715 L10.745,11.977 L9.991,11.223 L12.254,8.960 L13.008,9.715 ZM17.000,18.969 L14.000,18.969 L14.000,17.969 L17.000,17.969 L17.000,18.969 Z" class="cls-1"/>
</svg>
