<svg xmlns="http://www.w3.org/2000/svg" xmlns:xlink="http://www.w3.org/1999/xlink" preserveAspectRatio="xMidYMid" width="19" height="25" viewBox="0 0 19 25">
  <defs>
    <style>
      .cls-1 {
        fill: #3c4042;
        fill-rule: evenodd;
      }
    </style>
  </defs>
  <path d="M12.990,21.322 L12.990,25.001 L6.010,25.001 L6.010,21.323 C2.492,19.931 -0.000,16.508 -0.000,12.498 C-0.000,8.486 2.492,5.062 6.010,3.671 L6.010,-0.003 L12.990,-0.003 L12.990,3.671 C16.508,5.063 19.000,8.486 19.000,12.498 C19.000,16.508 16.508,19.931 12.990,21.322 ZM6.994,23.999 L12.006,23.999 L12.006,21.647 C11.206,21.866 10.369,21.992 9.500,21.992 C8.631,21.992 7.793,21.866 6.994,21.647 L6.994,23.999 ZM12.006,0.998 L6.994,0.998 L6.994,3.346 C7.793,3.128 8.631,3.001 9.500,3.001 C10.369,3.001 11.206,3.128 12.006,3.346 L12.006,0.998 ZM9.500,4.005 C4.815,4.005 1.017,7.806 1.017,12.497 C1.017,17.187 4.815,20.989 9.500,20.989 C14.185,20.989 17.982,17.187 17.982,12.497 C17.982,7.806 14.185,4.005 9.500,4.005 ZM15.008,12.994 L15.008,12.005 L17.010,12.005 L17.010,12.994 L15.008,12.994 ZM13.045,8.255 L14.461,6.839 L15.160,7.539 L13.745,8.954 L13.045,8.255 ZM15.160,17.460 L14.461,18.159 L13.045,16.744 L13.744,16.045 L15.160,17.460 ZM9.005,18.008 L9.994,18.008 L9.994,20.010 L9.005,20.010 L9.005,18.008 ZM9.005,5.007 L9.994,5.007 L9.994,7.010 L9.005,7.010 L9.005,5.007 ZM3.853,17.447 L5.269,16.031 L5.968,16.730 L4.552,18.146 L3.853,17.447 ZM3.853,7.551 L4.552,6.852 L5.968,8.268 L5.269,8.967 L3.853,7.551 ZM4.010,12.994 L2.008,12.994 L2.008,12.005 L4.010,12.005 L4.010,12.994 Z" class="cls-1"/>
</svg>
