<svg xmlns="http://www.w3.org/2000/svg" xmlns:xlink="http://www.w3.org/1999/xlink" preserveAspectRatio="xMidYMid" width="25" height="25" viewBox="0 0 25 25">
  <defs>
    <style>
      .cls-1 {
        fill: #3c4042;
        fill-rule: evenodd;
      }
    </style>
  </defs>
  <path d="M12.500,24.996 C5.596,24.996 -0.000,19.401 -0.000,12.497 C-0.000,5.593 5.596,-0.003 12.500,-0.003 C19.403,-0.003 25.000,5.593 25.000,12.497 C25.000,19.401 19.403,24.996 12.500,24.996 ZM12.500,0.997 C6.148,0.997 1.000,6.145 1.000,12.497 C1.000,18.848 6.148,23.996 12.500,23.996 C18.851,23.996 24.000,18.848 24.000,12.497 C24.000,6.145 18.851,0.997 12.500,0.997 ZM19.500,12.999 L14.949,12.999 C14.717,14.139 13.709,14.997 12.500,14.997 C11.119,14.997 10.000,13.878 10.000,12.498 C10.000,11.287 10.859,10.279 12.000,10.048 L12.000,3.499 C12.000,3.223 12.224,2.999 12.500,2.999 C12.776,2.999 13.000,3.223 13.000,3.499 L13.000,10.048 C13.979,10.246 14.747,11.019 14.946,11.999 L19.500,11.999 C19.776,11.999 20.000,12.223 20.000,12.499 C20.000,12.776 19.776,12.999 19.500,12.999 ZM12.500,10.997 C11.671,10.997 11.000,11.669 11.000,12.497 C11.000,13.325 11.671,13.997 12.500,13.997 C13.328,13.997 14.000,13.325 14.000,12.497 C14.000,11.669 13.328,10.997 12.500,10.997 Z" class="cls-1"/>
</svg>
