<svg xmlns="http://www.w3.org/2000/svg" xmlns:xlink="http://www.w3.org/1999/xlink" preserveAspectRatio="xMidYMid" width="25" height="25" viewBox="0 0 25 25">
  <defs>
    <style>
      .cls-1 {
        fill: #3c4042;
        fill-rule: evenodd;
      }
    </style>
  </defs>
  <path d="M24.158,6.434 L23.444,5.726 C23.795,5.235 24.007,4.637 24.007,3.987 C24.007,2.327 22.659,0.982 20.997,0.982 C20.340,0.982 19.736,1.199 19.241,1.556 L18.545,0.865 C19.224,0.333 20.068,0.004 20.998,0.004 C23.208,0.004 25.000,1.795 25.000,4.005 C25.000,4.923 24.678,5.759 24.158,6.434 ZM23.005,12.500 C23.005,16.744 20.487,20.392 16.868,22.053 L18.858,24.042 C19.073,24.258 19.073,24.608 18.858,24.823 C18.642,25.038 18.293,25.038 18.078,24.823 L15.749,22.495 C14.724,22.828 13.633,23.014 12.497,23.014 C11.363,23.014 10.273,22.829 9.249,22.496 L6.922,24.823 C6.707,25.038 6.357,25.038 6.142,24.823 C5.926,24.608 5.926,24.258 6.142,24.042 L8.130,22.054 C4.509,20.394 1.989,16.746 1.989,12.500 C1.989,6.694 6.694,1.986 12.497,1.986 C18.300,1.986 23.005,6.694 23.005,12.500 ZM12.513,2.999 C7.267,2.999 3.014,7.253 3.014,12.500 C3.014,17.748 7.267,22.002 12.513,22.002 C17.758,22.002 22.011,17.748 22.011,12.500 C22.011,7.253 17.758,2.999 12.513,2.999 ZM17.500,12.999 L12.500,12.999 C12.224,12.999 12.000,12.776 12.000,12.499 L12.000,5.500 C12.000,5.223 12.224,4.998 12.500,4.998 C12.776,4.998 13.000,5.223 13.000,5.500 L13.000,12.000 L17.500,12.000 C17.776,12.000 18.000,12.223 18.000,12.499 C18.000,12.776 17.776,12.999 17.500,12.999 ZM3.713,0.916 C2.171,0.916 0.921,2.169 0.921,3.716 C0.921,4.322 1.117,4.879 1.443,5.337 L0.781,5.997 C0.298,5.368 0.000,4.589 0.000,3.733 C0.000,1.673 1.662,0.003 3.712,0.003 C4.574,0.003 5.357,0.311 5.987,0.806 L5.342,1.450 C4.882,1.117 4.322,0.916 3.713,0.916 Z" class="cls-1"/>
</svg>
