<svg xmlns="http://www.w3.org/2000/svg" xmlns:xlink="http://www.w3.org/1999/xlink" preserveAspectRatio="xMidYMid" width="21" height="24" viewBox="0 0 21 24">
  <defs>
    <style>
      .cls-1 {
        fill: #3c4042;
        fill-rule: evenodd;
      }
    </style>
  </defs>
  <path d="M21.000,13.497 C21.000,19.296 16.299,23.997 10.500,23.997 C4.701,23.997 -0.000,19.296 -0.000,13.497 C-0.000,7.867 4.435,3.285 10.000,3.022 L10.000,0.999 L7.500,0.999 C7.224,0.999 7.000,0.775 7.000,0.499 C7.000,0.223 7.224,-0.001 7.500,-0.001 L13.500,-0.001 C13.776,-0.001 14.000,0.223 14.000,0.499 C14.000,0.775 13.776,0.999 13.500,0.999 L11.000,0.999 L11.000,3.022 C16.565,3.285 21.000,7.867 21.000,13.497 ZM10.508,3.997 C10.505,3.997 10.503,3.999 10.500,3.999 C10.497,3.999 10.495,3.997 10.492,3.997 C5.249,4.001 1.000,8.253 1.000,13.497 C1.000,18.743 5.253,22.997 10.500,22.997 C15.746,22.997 20.000,18.743 20.000,13.497 C20.000,8.253 15.751,4.002 10.508,3.997 ZM15.096,9.610 C14.901,9.805 14.584,9.805 14.389,9.610 C14.194,9.414 14.194,9.098 14.389,8.903 L15.803,7.489 C15.998,7.293 16.315,7.293 16.510,7.489 C16.706,7.684 16.706,8.000 16.510,8.195 L15.096,9.610 ZM10.500,21.999 C10.224,21.999 10.000,21.776 10.000,21.499 L10.000,19.499 C10.000,19.223 10.224,18.999 10.500,18.999 C10.776,18.999 11.000,19.223 11.000,19.499 L11.000,21.499 C11.000,21.776 10.776,21.999 10.500,21.999 ZM10.500,7.999 C10.224,7.999 10.000,7.775 10.000,7.500 L10.000,5.499 C10.000,5.223 10.224,4.999 10.500,4.999 C10.776,4.999 11.000,5.223 11.000,5.499 L11.000,7.500 C11.000,7.775 10.776,7.999 10.500,7.999 ZM5.197,19.510 C5.001,19.704 4.685,19.704 4.489,19.510 C4.294,19.314 4.294,18.998 4.489,18.803 L5.904,17.388 C6.099,17.193 6.415,17.193 6.611,17.388 C6.806,17.583 6.806,17.900 6.611,18.096 L5.197,19.510 ZM5.904,9.610 L4.489,8.195 C4.294,8.000 4.294,7.684 4.489,7.489 C4.685,7.293 5.001,7.293 5.197,7.489 L6.611,8.903 C6.806,9.098 6.806,9.414 6.611,9.610 C6.415,9.805 6.099,9.805 5.904,9.610 ZM5.000,13.499 C5.000,13.775 4.776,13.999 4.500,13.999 L2.500,13.999 C2.224,13.999 2.000,13.775 2.000,13.499 C2.000,13.223 2.224,12.999 2.500,12.999 L4.500,12.999 C4.776,12.999 5.000,13.223 5.000,13.499 ZM15.096,17.388 L16.510,18.803 C16.706,18.998 16.706,19.314 16.510,19.510 C16.315,19.704 15.998,19.704 15.803,19.510 L14.389,18.096 C14.194,17.900 14.194,17.583 14.389,17.388 C14.584,17.193 14.901,17.193 15.096,17.388 ZM16.000,13.499 C16.000,13.223 16.224,12.999 16.500,12.999 L18.500,12.999 C18.776,12.999 19.000,13.223 19.000,13.499 C19.000,13.775 18.776,13.999 18.500,13.999 L16.500,13.999 C16.224,13.999 16.000,13.775 16.000,13.499 Z" class="cls-1"/>
</svg>
