<svg xmlns="http://www.w3.org/2000/svg" xmlns:xlink="http://www.w3.org/1999/xlink" preserveAspectRatio="xMidYMid" width="23" height="23" viewBox="0 0 23 23">
  <defs>
    <style>
      .cls-1 {
        fill: #3c4042;
        fill-rule: evenodd;
      }
    </style>
  </defs>
  <path d="M11.500,22.997 C5.149,22.997 -0.000,17.849 -0.000,11.497 C-0.000,5.146 5.149,-0.003 11.500,-0.003 C17.851,-0.003 23.000,5.146 23.000,11.497 C23.000,17.849 17.851,22.997 11.500,22.997 ZM11.500,1.001 C5.702,1.001 1.002,5.699 1.002,11.497 C1.002,17.296 5.702,21.995 11.500,21.995 C17.298,21.995 21.998,17.296 21.998,11.497 C21.998,5.699 17.298,1.001 11.500,1.001 ZM11.991,12.014 L11.009,12.014 L11.009,3.002 L11.991,3.002 L11.991,11.007 L17.994,11.007 L17.994,12.009 L11.991,12.009 L11.991,12.014 ZM16.459,5.846 L17.167,5.138 L17.861,5.832 L17.153,6.540 L16.459,5.846 ZM5.145,5.838 L5.839,5.144 L6.547,5.852 L5.853,6.547 L5.145,5.838 ZM6.547,17.146 L5.839,17.853 L5.145,17.160 L5.853,16.452 L6.547,17.146 ZM11.991,19.995 L11.009,19.995 L11.009,18.994 L11.991,18.994 L11.991,19.995 ZM17.861,17.166 L17.167,17.860 L16.459,17.152 L17.153,16.458 L17.861,17.166 ZM3.004,11.008 L4.005,11.008 L4.005,11.990 L3.004,11.990 L3.004,11.008 Z" class="cls-1"/>
</svg>
