<svg xmlns="http://www.w3.org/2000/svg" xmlns:xlink="http://www.w3.org/1999/xlink" preserveAspectRatio="xMidYMid" width="25" height="25" viewBox="0 0 25 25">
  <defs>
    <style>
      .cls-1 {
        fill: #3c4042;
        fill-rule: evenodd;
      }
    </style>
  </defs>
  <path d="M12.500,24.997 C5.596,24.997 -0.000,19.401 -0.000,12.497 C-0.000,5.594 5.596,-0.003 12.500,-0.003 C19.403,-0.003 25.000,5.594 25.000,12.497 C25.000,19.401 19.403,24.997 12.500,24.997 ZM12.500,23.997 C17.253,23.997 21.332,21.113 23.084,16.998 L1.915,16.998 C3.667,21.113 7.746,23.997 12.500,23.997 ZM12.500,0.997 C6.148,0.997 1.000,6.146 1.000,12.497 C1.000,13.718 1.194,14.894 1.547,15.999 L12.095,15.999 L14.987,5.381 C15.062,5.106 15.349,4.943 15.629,5.016 C15.909,5.090 16.075,5.373 16.000,5.648 L13.182,15.999 L23.453,15.999 C23.806,14.894 24.000,13.718 24.000,12.497 C24.000,6.146 18.851,0.997 12.500,0.997 Z" class="cls-1"/>
</svg>
