<svg xmlns="http://www.w3.org/2000/svg" xmlns:xlink="http://www.w3.org/1999/xlink" preserveAspectRatio="xMidYMid" width="25" height="25" viewBox="0 0 25 25">
  <defs>
    <style>
      .cls-1 {
        fill: #3c4042;
        fill-rule: evenodd;
      }
    </style>
  </defs>
  <path d="M23.437,24.997 L1.562,24.997 C0.699,24.997 -0.000,24.297 -0.000,23.435 L-0.000,1.559 C-0.000,0.697 0.699,-0.003 1.562,-0.003 L23.437,-0.003 C24.300,-0.003 25.000,0.697 25.000,1.559 L25.000,23.435 C25.000,24.297 24.300,24.997 23.437,24.997 ZM24.000,1.999 C24.000,1.447 23.552,0.999 23.000,0.999 L2.000,0.999 C1.448,0.999 1.000,1.447 1.000,1.999 L1.000,22.999 C1.000,23.551 1.448,23.999 2.000,23.999 L23.000,23.999 C23.552,23.999 24.000,23.551 24.000,22.999 L24.000,1.999 ZM12.500,12.999 L6.500,12.999 C6.224,12.999 6.000,12.776 6.000,12.499 C6.000,12.223 6.224,11.999 6.500,11.999 L12.000,11.999 L12.000,3.499 C12.000,3.223 12.224,2.999 12.500,2.999 C12.776,2.999 13.000,3.223 13.000,3.499 L13.000,12.499 C13.000,12.776 12.776,12.999 12.500,12.999 Z" class="cls-1"/>
</svg>
