<svg xmlns="http://www.w3.org/2000/svg" xmlns:xlink="http://www.w3.org/1999/xlink" preserveAspectRatio="xMidYMid" width="23" height="25" viewBox="0 0 23 25">
  <defs>
    <style>
      .cls-1 {
        fill: #3c4042;
        fill-rule: evenodd;
      }
    </style>
  </defs>
  <path d="M21.000,24.999 L2.000,24.999 C0.895,24.999 -0.000,24.104 -0.000,22.999 L-0.000,7.998 L-0.000,7.998 L-0.000,6.998 L-0.000,6.998 L-0.000,3.999 C-0.000,2.894 0.895,2.000 2.000,2.000 L6.005,2.000 L6.005,-0.003 L7.006,-0.003 L7.006,2.000 L15.993,2.000 L15.993,-0.003 L16.994,-0.003 L16.994,2.000 L21.000,2.000 C22.104,2.000 23.000,2.894 23.000,3.999 L23.000,22.999 C23.000,24.104 22.104,24.999 21.000,24.999 ZM22.000,3.999 C22.000,3.447 21.552,2.999 21.000,2.999 L16.994,2.999 L16.994,3.998 L15.993,3.998 L15.993,2.999 L7.006,2.999 L7.006,3.998 L6.005,3.998 L6.005,2.999 L2.000,2.999 C1.448,2.999 1.000,3.447 1.000,3.999 L1.000,6.998 L22.000,6.998 L22.000,3.999 ZM22.000,7.998 L1.000,7.998 L1.000,22.999 C1.000,23.551 1.448,23.999 2.000,23.999 L21.000,23.999 C21.552,23.999 22.000,23.551 22.000,22.999 L22.000,7.998 ZM15.013,16.997 L19.986,16.997 L19.986,21.997 L15.013,21.997 L15.013,16.997 ZM16.028,20.996 L18.972,20.996 L18.972,17.995 L16.028,17.995 L16.028,20.996 ZM15.013,9.998 L19.986,9.998 L19.986,14.997 L15.013,14.997 L15.013,9.998 ZM16.028,13.996 L18.972,13.996 L18.972,10.995 L16.028,10.995 L16.028,13.996 ZM9.013,16.997 L13.986,16.997 L13.986,21.997 L9.013,21.997 L9.013,16.997 ZM10.028,20.996 L12.972,20.996 L12.972,17.995 L10.028,17.995 L10.028,20.996 ZM9.013,9.998 L13.986,9.998 L13.986,14.997 L9.013,14.997 L9.013,9.998 ZM10.028,13.996 L12.972,13.996 L12.972,10.995 L10.028,10.995 L10.028,13.996 ZM3.013,16.997 L7.986,16.997 L7.986,21.997 L3.013,21.997 L3.013,16.997 ZM4.028,20.996 L6.972,20.996 L6.972,17.995 L4.028,17.995 L4.028,20.996 ZM3.013,9.998 L7.986,9.998 L7.986,14.997 L3.013,14.997 L3.013,9.998 ZM4.028,13.996 L6.972,13.996 L6.972,10.995 L4.028,10.995 L4.028,13.996 Z" class="cls-1"/>
</svg>
