<svg xmlns="http://www.w3.org/2000/svg" xmlns:xlink="http://www.w3.org/1999/xlink" preserveAspectRatio="xMidYMid" width="25" height="25" viewBox="0 0 25 25">
  <defs>
    <style>
      .cls-1 {
        fill: #3c4042;
        fill-rule: evenodd;
      }
    </style>
  </defs>
  <path d="M12.500,24.997 C5.596,24.997 -0.000,19.401 -0.000,12.497 C-0.000,5.594 5.596,-0.003 12.500,-0.003 C19.403,-0.003 25.000,5.594 25.000,12.497 C25.000,19.401 19.403,24.997 12.500,24.997 ZM12.500,0.997 C6.148,0.997 1.000,6.146 1.000,12.497 C1.000,18.849 6.148,23.997 12.500,23.997 C18.851,23.997 24.000,18.849 24.000,12.497 C24.000,6.146 18.851,0.997 12.500,0.997 ZM19.998,12.999 L19.998,11.999 L21.998,11.999 L21.998,12.999 L19.998,12.999 ZM17.448,6.844 L18.862,5.429 L19.570,6.136 L18.155,7.551 L17.448,6.844 ZM19.569,18.861 L18.862,19.569 L17.448,18.155 L18.155,17.447 L19.569,18.861 ZM12.000,19.997 L13.000,19.997 L13.000,21.997 L12.000,21.997 L12.000,19.997 ZM12.000,2.997 L13.000,2.997 L13.000,4.998 L12.000,4.998 L12.000,2.997 ZM5.427,18.864 L6.842,17.450 L7.549,18.157 L6.135,19.572 L5.427,18.864 ZM5.427,6.133 L6.134,5.427 L7.549,6.841 L6.842,7.548 L5.427,6.133 ZM2.998,11.999 L4.998,11.999 L4.998,12.999 L2.998,12.999 L2.998,11.999 Z" class="cls-1"/>
</svg>
