<svg xmlns="http://www.w3.org/2000/svg" xmlns:xlink="http://www.w3.org/1999/xlink" preserveAspectRatio="xMidYMid" width="19" height="25" viewBox="0 0 19 25">
  <defs>
    <style>
      .cls-1 {
        fill: #3c4042;
        fill-rule: evenodd;
      }
    </style>
  </defs>
  <path d="M18.500,0.999 L16.000,0.999 L16.000,8.428 C16.019,8.577 15.979,8.733 15.864,8.847 L10.392,12.494 L15.833,16.119 C15.840,16.126 15.842,16.135 15.849,16.142 C15.941,16.233 16.000,16.359 16.000,16.499 L16.000,23.999 L18.500,23.999 C18.776,23.999 19.000,24.223 19.000,24.500 C19.000,24.775 18.776,24.999 18.500,24.999 L0.500,24.999 C0.224,24.999 -0.000,24.775 -0.000,24.500 C-0.000,24.223 0.224,23.999 0.500,23.999 L3.000,23.999 L3.000,16.499 C3.000,16.359 3.058,16.233 3.151,16.142 C3.158,16.135 3.160,16.126 3.167,16.119 L8.608,12.494 L3.135,8.847 C3.020,8.733 2.981,8.577 3.000,8.428 L3.000,0.999 L0.500,0.999 C0.224,0.999 -0.000,0.775 -0.000,0.499 C-0.000,0.222 0.224,-0.001 0.500,-0.001 L18.500,-0.001 C18.776,-0.001 19.000,0.222 19.000,0.499 C19.000,0.775 18.776,0.999 18.500,0.999 ZM4.000,16.752 L4.000,23.999 L15.000,23.999 L15.000,16.752 L9.500,13.088 L4.000,16.752 ZM4.000,0.999 L4.000,8.235 L9.500,11.899 L15.000,8.235 L15.000,0.999 L4.000,0.999 Z" class="cls-1"/>
</svg>
