<svg xmlns="http://www.w3.org/2000/svg" xmlns:xlink="http://www.w3.org/1999/xlink" preserveAspectRatio="xMidYMid" width="25" height="25" viewBox="0 0 25 25">
  <defs>
    <style>
      .cls-1 {
        fill: #3c4042;
        fill-rule: evenodd;
      }
    </style>
  </defs>
  <path d="M23.437,24.997 L1.562,24.997 C0.699,24.997 -0.000,24.297 -0.000,23.435 L-0.000,1.559 C-0.000,0.697 0.699,-0.003 1.562,-0.003 L23.437,-0.003 C24.300,-0.003 25.000,0.697 25.000,1.559 L25.000,23.435 C25.000,24.297 24.300,24.997 23.437,24.997 ZM24.000,1.999 C24.000,1.447 23.552,0.999 23.000,0.999 L2.000,0.999 C1.447,0.999 1.000,1.447 1.000,1.999 L1.000,22.999 C1.000,23.551 1.447,23.999 2.000,23.999 L23.000,23.999 C23.552,23.999 24.000,23.551 24.000,22.999 L24.000,1.999 ZM18.986,5.430 C18.989,5.454 19.000,5.474 19.000,5.499 C19.000,5.511 18.994,5.520 18.993,5.531 C18.991,5.564 18.983,5.595 18.974,5.627 C18.965,5.662 18.955,5.695 18.939,5.726 C18.934,5.735 18.934,5.745 18.929,5.754 C18.929,5.754 18.915,5.765 18.909,5.770 C18.851,5.858 18.772,5.927 18.671,5.965 C17.785,6.699 14.757,9.307 13.121,11.983 C11.083,15.316 9.988,19.744 9.988,19.744 C9.841,19.984 9.518,20.066 9.265,19.927 C9.011,19.789 8.925,19.483 9.071,19.244 C9.071,19.244 10.014,15.066 11.978,11.853 C13.409,9.512 15.863,7.159 17.155,5.999 L6.500,5.999 C6.224,5.999 6.000,5.775 6.000,5.499 C6.000,5.223 6.224,4.999 6.500,4.999 L18.500,4.999 C18.661,4.999 18.798,5.080 18.890,5.200 C18.893,5.203 18.894,5.206 18.897,5.210 C18.929,5.253 18.954,5.299 18.970,5.352 C18.979,5.377 18.982,5.403 18.986,5.430 Z" class="cls-1"/>
</svg>
