<svg xmlns="http://www.w3.org/2000/svg" xmlns:xlink="http://www.w3.org/1999/xlink" preserveAspectRatio="xMidYMid" width="25" height="25" viewBox="0 0 25 25">
  <defs>
    <style>
      .cls-1 {
        fill: #3c4042;
        fill-rule: evenodd;
      }
    </style>
  </defs>
  <path d="M23.437,24.997 L1.562,24.997 C0.699,24.997 -0.000,24.297 -0.000,23.435 L-0.000,5.997 L-0.000,4.998 L-0.000,1.559 C-0.000,0.697 0.699,-0.003 1.562,-0.003 L23.437,-0.003 C24.300,-0.003 25.000,0.697 25.000,1.559 L25.000,4.998 L25.000,5.997 L25.000,23.435 C25.000,24.297 24.300,24.997 23.437,24.997 ZM24.000,1.999 C24.000,1.447 23.552,0.999 23.000,0.999 L2.000,0.999 C1.448,0.999 1.000,1.447 1.000,1.999 L1.000,4.998 L24.000,4.998 L24.000,1.999 ZM24.000,5.997 L1.000,5.997 L1.000,22.999 C1.000,23.551 1.448,23.999 2.000,23.999 L23.000,23.999 C23.552,23.999 24.000,23.551 24.000,22.999 L24.000,5.997 ZM16.985,10.427 C16.989,10.452 17.000,10.474 17.000,10.499 C17.000,10.511 16.994,10.521 16.993,10.533 C16.991,10.573 16.981,10.611 16.969,10.651 C16.962,10.672 16.957,10.693 16.948,10.712 C16.939,10.731 16.939,10.753 16.928,10.771 L11.005,20.751 C10.856,21.002 10.527,21.087 10.269,20.943 C10.011,20.798 9.923,20.478 10.072,20.227 L15.549,10.999 L8.500,10.999 C8.224,10.999 8.000,10.776 8.000,10.499 C8.000,10.222 8.224,9.999 8.500,9.999 L16.382,9.999 C16.472,9.986 16.564,9.996 16.653,10.030 C16.672,10.036 16.691,10.040 16.710,10.048 C16.716,10.052 16.724,10.052 16.731,10.055 C16.746,10.064 16.755,10.079 16.770,10.089 C16.810,10.116 16.847,10.145 16.878,10.182 C16.889,10.196 16.897,10.210 16.907,10.225 C16.933,10.264 16.955,10.304 16.970,10.350 C16.978,10.375 16.981,10.401 16.985,10.427 Z" class="cls-1"/>
</svg>
