<svg xmlns="http://www.w3.org/2000/svg" xmlns:xlink="http://www.w3.org/1999/xlink" preserveAspectRatio="xMidYMid" width="25" height="25" viewBox="0 0 25 25">
  <defs>
    <style>
      .cls-1 {
        fill: #3c4042;
        fill-rule: evenodd;
      }
    </style>
  </defs>
  <path d="M25.000,12.500 L25.000,21.872 C25.000,23.599 23.601,24.997 21.875,24.997 L12.510,24.997 C12.506,24.997 12.503,24.999 12.500,24.999 C12.496,24.999 12.493,24.997 12.490,24.997 L3.125,24.997 C1.399,24.997 -0.000,23.599 -0.000,21.872 L-0.000,3.123 C-0.000,1.396 1.399,-0.003 3.125,-0.003 L21.875,-0.003 C23.601,-0.003 25.000,1.396 25.000,3.123 L25.000,12.498 C25.000,12.499 25.000,12.499 25.000,12.499 C25.000,12.499 25.000,12.499 25.000,12.500 ZM24.000,12.999 L21.500,12.999 C21.224,12.999 21.000,12.775 21.000,12.499 C21.000,12.223 21.224,11.999 21.500,11.999 L24.000,11.999 L24.000,2.999 C24.000,2.622 23.889,2.272 23.707,1.971 L21.839,3.839 C21.651,4.027 21.347,4.027 21.160,3.839 C20.972,3.652 20.972,3.348 21.160,3.160 L23.028,1.292 C22.727,1.110 22.377,0.999 22.000,0.999 L13.000,0.999 L13.000,3.499 C13.000,3.775 12.776,3.999 12.500,3.999 C12.224,3.999 12.000,3.775 12.000,3.499 L12.000,0.999 L3.000,0.999 C2.622,0.999 2.273,1.110 1.972,1.292 L3.840,3.160 C4.027,3.348 4.027,3.652 3.840,3.839 C3.652,4.027 3.349,4.027 3.161,3.839 L1.293,1.971 C1.111,2.272 1.000,2.622 1.000,2.999 L1.000,11.999 L3.500,11.999 C3.776,11.999 4.000,12.223 4.000,12.499 C4.000,12.775 3.776,12.999 3.500,12.999 L1.000,12.999 L1.000,21.999 C1.000,22.376 1.111,22.726 1.293,23.028 L3.191,21.129 C3.378,20.941 3.682,20.941 3.870,21.129 C4.057,21.316 4.057,21.621 3.870,21.808 L1.971,23.706 C2.273,23.888 2.622,23.999 3.000,23.999 L12.000,23.999 L12.000,21.499 C12.000,21.223 12.224,21.000 12.500,21.000 C12.776,21.000 13.000,21.223 13.000,21.499 L13.000,23.999 L22.000,23.999 C22.378,23.999 22.727,23.888 23.028,23.706 L21.130,21.808 C20.942,21.621 20.942,21.316 21.130,21.129 C21.317,20.941 21.621,20.941 21.809,21.129 L23.707,23.028 C23.889,22.726 24.000,22.376 24.000,21.999 L24.000,12.999 ZM12.500,12.999 L8.500,12.999 C8.224,12.999 8.000,12.775 8.000,12.499 C8.000,12.223 8.224,11.999 8.500,11.999 L12.000,11.999 L12.000,7.499 C12.000,7.223 12.224,6.999 12.500,6.999 C12.776,6.999 13.000,7.223 13.000,7.499 L13.000,12.499 C13.000,12.775 12.776,12.999 12.500,12.999 Z" class="cls-1"/>
</svg>
