<svg xmlns="http://www.w3.org/2000/svg" xmlns:xlink="http://www.w3.org/1999/xlink" preserveAspectRatio="xMidYMid" width="25" height="25" viewBox="0 0 25 25">
  <defs>
    <style>
      .cls-1 {
        fill: #3c4042;
        fill-rule: evenodd;
      }
    </style>
  </defs>
  <path d="M24.855,24.854 C24.669,25.040 24.367,25.040 24.181,24.854 L19.422,20.095 C19.655,19.879 19.880,19.654 20.096,19.421 L24.855,24.180 C25.041,24.366 25.041,24.668 24.855,24.854 ZM11.000,21.998 C4.925,21.998 -0.000,17.072 -0.000,10.998 C-0.000,4.922 4.925,-0.003 11.000,-0.003 C17.075,-0.003 22.000,4.922 22.000,10.998 C22.000,17.072 17.075,21.998 11.000,21.998 ZM11.000,0.997 C5.477,0.997 1.000,5.474 1.000,10.998 C1.000,16.520 5.477,20.997 11.000,20.997 C16.523,20.997 21.000,16.520 21.000,10.998 C21.000,5.474 16.523,0.997 11.000,0.997 Z" class="cls-1"/>
</svg>
