<svg xmlns="http://www.w3.org/2000/svg" xmlns:xlink="http://www.w3.org/1999/xlink" preserveAspectRatio="xMidYMid" width="23" height="25" viewBox="0 0 23 25">
  <defs>
    <style>
      .cls-1 {
        fill: #3c4042;
        fill-rule: evenodd;
      }
    </style>
  </defs>
  <path d="M21.428,13.998 L14.987,13.998 L14.987,23.373 C14.987,24.270 14.318,24.998 13.493,24.998 L10.506,24.998 C9.681,24.998 9.013,24.270 9.013,23.373 L9.013,13.998 L1.571,13.998 C0.703,13.998 -0.000,13.302 -0.000,12.443 L-0.000,1.554 C-0.000,0.695 0.703,-0.001 1.571,-0.001 L21.428,-0.001 C22.296,-0.001 23.000,0.695 23.000,1.554 L23.000,12.443 C23.000,13.302 22.296,13.998 21.428,13.998 ZM9.988,15.998 L10.000,15.998 L10.000,22.999 C10.000,23.551 10.447,23.999 11.000,23.999 L13.000,23.999 C13.552,23.999 14.000,23.551 14.000,22.999 L14.000,15.998 L14.011,15.998 L14.011,13.998 L9.988,13.998 L9.988,15.998 ZM22.000,1.999 C22.000,1.447 21.552,0.999 21.000,0.999 L20.008,0.999 L20.008,12.998 L19.003,12.998 L19.003,0.999 L4.997,0.999 L4.997,12.998 L3.991,12.998 L3.991,0.999 L2.000,0.999 C1.448,0.999 1.000,1.447 1.000,1.999 L1.000,11.999 C1.000,12.551 1.448,12.999 2.000,12.999 L21.000,12.999 C21.552,12.999 22.000,12.551 22.000,11.999 L22.000,1.999 Z" class="cls-1"/>
</svg>
