<svg xmlns="http://www.w3.org/2000/svg" xmlns:xlink="http://www.w3.org/1999/xlink" preserveAspectRatio="xMidYMid" width="25" height="12" viewBox="0 0 25 12">
  <defs>
    <style>
      .cls-1 {
        fill: #3c4042;
        fill-rule: evenodd;
      }
    </style>
  </defs>
  <path d="M25.000,8.856 L25.000,11.999 L22.001,11.999 L22.001,11.967 C22.000,11.967 22.000,11.967 22.000,11.967 L22.000,11.999 L21.667,11.999 L21.000,11.999 L18.334,11.999 C16.918,11.999 15.716,11.164 15.233,9.990 L1.584,9.990 C0.710,9.990 0.001,9.275 0.001,8.394 L0.001,4.605 C0.001,3.723 0.710,3.008 1.584,3.008 L7.001,3.008 L7.001,-0.001 L13.000,-0.001 L13.000,3.008 L15.233,3.008 C15.716,1.834 16.918,0.999 18.334,0.999 L21.000,0.999 L21.667,0.999 L22.000,0.999 L22.000,1.031 C22.000,1.031 22.000,1.031 22.001,1.031 L22.001,0.999 L25.000,0.999 L25.000,4.141 C25.000,4.142 25.000,4.142 25.000,4.143 L25.000,8.856 C25.000,8.856 25.000,8.856 25.000,8.856 ZM12.001,1.016 L8.000,1.016 L8.000,2.974 L12.001,2.974 L12.001,1.016 ZM15.016,3.999 L2.000,3.999 C1.447,3.999 1.000,4.447 1.000,4.999 L1.000,7.999 C1.000,8.551 1.447,8.999 2.000,8.999 L15.016,8.999 C15.013,8.950 15.000,8.905 15.000,8.856 L15.000,4.143 C15.000,4.093 15.013,4.048 15.016,3.999 ZM18.000,2.000 C16.895,2.000 16.000,2.895 16.000,3.999 L16.000,8.999 C16.000,10.103 16.895,10.999 18.000,10.999 L21.000,10.999 L21.000,2.000 L18.000,2.000 ZM24.001,2.009 L22.099,2.009 C22.066,2.007 22.034,2.000 22.000,2.000 L22.000,10.999 C22.034,10.999 22.066,10.991 22.099,10.989 L24.001,10.989 L24.001,2.009 Z" class="cls-1"/>
</svg>
