<svg xmlns="http://www.w3.org/2000/svg" xmlns:xlink="http://www.w3.org/1999/xlink" preserveAspectRatio="xMidYMid" width="25" height="23" viewBox="0 0 25 23">
  <defs>
    <style>
      .cls-1 {
        fill: #3c4042;
        fill-rule: evenodd;
      }
    </style>
  </defs>
  <path d="M24.218,22.999 L0.781,22.999 C0.350,22.999 -0.000,22.625 -0.000,22.164 L-0.000,18.826 C-0.000,18.365 0.350,17.992 0.781,17.992 L24.218,17.992 C24.650,17.992 25.000,18.365 25.000,18.826 L25.000,22.164 C25.000,22.625 24.650,22.999 24.218,22.999 ZM24.000,18.989 L1.000,18.989 L1.000,21.994 L24.000,21.994 L24.000,18.989 ZM5.000,16.990 L5.000,13.986 L5.000,3.003 L20.000,3.003 L20.000,13.986 L20.000,16.990 L19.000,16.990 L19.000,14.999 L19.000,14.999 L19.000,11.999 L19.000,11.999 L19.000,4.005 L6.000,4.005 L6.000,13.985 L6.000,13.985 L6.000,13.986 L6.000,13.986 L6.000,16.990 L5.000,16.990 ZM22.000,13.986 L22.000,1.999 C22.000,1.447 21.552,0.999 21.000,0.999 L4.000,0.999 C3.447,0.999 3.000,1.447 3.000,1.999 L3.000,13.986 L3.000,16.990 L2.000,16.990 L2.000,13.986 L2.000,1.543 C2.000,0.690 2.671,-0.001 3.500,-0.001 L21.500,-0.001 C22.328,-0.001 23.000,0.690 23.000,1.543 L23.000,13.986 L23.000,16.990 L22.000,16.990 L22.000,13.986 Z" class="cls-1"/>
</svg>
