<svg xmlns="http://www.w3.org/2000/svg" xmlns:xlink="http://www.w3.org/1999/xlink" preserveAspectRatio="xMidYMid" width="22" height="25" viewBox="0 0 22 25">
  <defs>
    <style>
      .cls-1 {
        fill: #3c4042;
        fill-rule: evenodd;
      }
    </style>
  </defs>
  <path d="M20.428,24.998 L1.571,24.998 C0.703,24.998 -0.000,24.298 -0.000,23.435 L-0.000,1.560 C-0.000,0.697 0.703,-0.003 1.571,-0.003 L20.428,-0.003 C21.296,-0.003 22.000,0.697 22.000,1.560 L22.000,23.435 C22.000,24.298 21.296,24.998 20.428,24.998 ZM21.000,1.999 C21.000,1.447 20.552,0.999 20.000,0.999 L2.000,0.999 C1.447,0.999 1.000,1.447 1.000,1.999 L1.000,22.999 C1.000,23.551 1.447,23.999 2.000,23.999 L20.000,23.999 C20.552,23.999 21.000,23.551 21.000,22.999 L21.000,1.999 ZM17.411,15.998 L4.589,15.998 C3.704,15.998 2.986,15.270 2.986,14.373 L2.986,4.623 C2.986,3.725 3.704,2.998 4.589,2.998 L17.411,2.998 C18.296,2.998 19.013,3.725 19.013,4.623 L19.013,14.373 C19.013,15.270 18.296,15.998 17.411,15.998 ZM18.000,4.999 C18.000,4.447 17.552,3.999 17.000,3.999 L5.000,3.999 C4.448,3.999 4.000,4.447 4.000,4.999 L4.000,14.000 C4.000,14.551 4.448,14.999 5.000,14.999 L17.000,14.999 C17.552,14.999 18.000,14.551 18.000,14.000 L18.000,4.999 ZM4.997,16.997 L6.003,16.997 L6.003,18.998 L8.014,18.998 L8.014,19.998 L6.003,19.998 L6.003,21.998 L4.997,21.998 L4.997,19.998 L2.985,19.998 L2.985,18.998 L4.997,18.998 L4.997,16.997 ZM14.986,18.845 L10.662,21.992 L10.013,21.153 L14.338,18.006 L14.986,18.845 ZM18.986,18.845 L14.662,21.992 L14.013,21.153 L18.338,18.006 L18.986,18.845 Z" class="cls-1"/>
</svg>
