<svg xmlns="http://www.w3.org/2000/svg" xmlns:xlink="http://www.w3.org/1999/xlink" preserveAspectRatio="xMidYMid" width="25" height="25" viewBox="0 0 25 25">
  <defs>
    <style>
      .cls-1 {
        fill: #3c4042;
        fill-rule: evenodd;
      }
    </style>
  </defs>
  <path d="M-0.000,24.998 L-0.000,-0.002 L25.000,-0.002 L25.000,24.998 L-0.000,24.998 ZM20.000,0.998 L5.000,0.998 L5.000,9.999 L20.000,9.999 L20.000,0.998 ZM24.000,0.998 L21.000,0.998 L21.000,10.998 L4.000,10.998 L4.000,0.998 L1.000,0.998 L1.000,23.998 L24.000,23.998 L24.000,0.998 ZM17.000,7.998 L11.000,7.998 L11.000,2.999 L17.000,2.999 L17.000,7.998 ZM16.000,3.998 L12.000,3.998 L12.000,6.998 L16.000,6.998 L16.000,3.998 Z" class="cls-1"/>
</svg>
