<svg xmlns="http://www.w3.org/2000/svg" xmlns:xlink="http://www.w3.org/1999/xlink" preserveAspectRatio="xMidYMid" width="23" height="23" viewBox="0 0 23 23">
  <defs>
    <style>
      .cls-1 {
        fill: #3c4042;
        fill-rule: evenodd;
      }
    </style>
  </defs>
  <path d="M21.807,8.992 L8.992,21.806 C7.419,23.379 4.869,23.379 3.297,21.806 L1.161,19.671 C-0.412,18.098 -0.412,15.548 1.161,13.975 L13.976,1.161 C15.549,-0.413 18.099,-0.413 19.671,1.161 L21.807,3.296 C23.380,4.868 23.380,7.419 21.807,8.992 ZM1.873,14.687 C0.693,15.866 0.693,17.780 1.873,18.958 L4.009,21.094 C5.188,22.274 7.101,22.274 8.280,21.094 L14.688,14.687 L8.276,8.284 L1.873,14.687 ZM21.095,4.008 L18.959,1.872 C17.780,0.692 15.867,0.692 14.688,1.872 L8.988,7.572 L15.400,13.975 L21.095,8.280 C22.275,7.100 22.275,5.188 21.095,4.008 ZM16.823,5.435 L17.536,4.723 L18.252,5.438 L17.539,6.149 L16.823,5.435 ZM17.542,8.998 L16.829,9.710 L16.113,8.995 L16.826,8.284 L17.542,8.998 ZM13.258,6.143 L13.971,5.431 L14.687,6.146 L13.974,6.857 L13.258,6.143 Z" class="cls-1"/>
</svg>
