<svg xmlns="http://www.w3.org/2000/svg" xmlns:xlink="http://www.w3.org/1999/xlink" preserveAspectRatio="xMidYMid" width="25" height="16" viewBox="0 0 25 16">
  <defs>
    <style>
      .cls-1 {
        fill: #3c4042;
        fill-rule: evenodd;
      }
    </style>
  </defs>
  <path d="M21.876,15.999 L21.001,15.999 L20.001,15.999 L9.001,15.999 L8.001,15.999 L3.127,15.999 C1.401,15.999 0.001,14.567 0.001,12.799 L0.001,3.199 C0.001,1.432 1.401,-0.001 3.127,-0.001 L8.001,-0.001 L9.001,-0.001 L20.001,-0.001 L21.001,-0.001 L21.876,-0.001 C23.602,-0.001 25.001,1.432 25.001,3.199 L25.001,12.799 C25.001,14.567 23.602,15.999 21.876,15.999 ZM3.000,0.999 C1.895,0.999 1.000,1.895 1.000,2.999 L1.000,12.999 C1.000,14.104 1.895,14.999 3.000,14.999 L8.001,14.999 L8.001,0.999 L3.000,0.999 ZM20.001,0.999 L9.001,0.999 L9.001,14.999 L20.001,14.999 L20.001,0.999 ZM24.000,2.999 C24.000,1.895 23.104,0.999 22.000,0.999 L21.001,0.999 L21.001,14.999 L22.000,14.999 C23.104,14.999 24.000,14.104 24.000,12.999 L24.000,2.999 ZM4.501,10.005 C3.673,10.005 3.002,9.330 3.002,8.499 C3.002,7.667 3.673,6.993 4.501,6.993 C5.330,6.993 6.001,7.667 6.001,8.499 C6.001,9.330 5.330,10.005 4.501,10.005 Z" class="cls-1"/>
</svg>
