<svg xmlns="http://www.w3.org/2000/svg" xmlns:xlink="http://www.w3.org/1999/xlink" preserveAspectRatio="xMidYMid" width="25" height="11" viewBox="0 0 25 11">
  <defs>
    <style>
      .cls-1 {
        fill: #3c4042;
        fill-rule: evenodd;
      }
    </style>
  </defs>
  <path d="M25.000,7.857 L25.000,10.999 L22.001,10.999 L22.001,10.967 C22.000,10.967 22.000,10.967 22.000,10.967 L22.000,10.999 L21.667,10.999 L21.000,10.999 L18.334,10.999 C16.918,10.999 15.716,10.164 15.233,8.990 L1.584,8.990 C0.709,8.990 0.001,8.276 0.001,7.394 L0.001,3.605 C0.001,2.723 0.709,2.008 1.584,2.008 L6.001,2.008 L6.001,0.999 L13.000,0.999 L13.000,2.008 L15.233,2.008 C15.716,0.835 16.918,-0.001 18.334,-0.001 L21.000,-0.001 L21.667,-0.001 L22.000,-0.001 L22.000,0.031 C22.000,0.031 22.000,0.031 22.001,0.031 L22.001,-0.001 L25.000,-0.001 L25.000,3.141 C25.000,3.142 25.000,3.142 25.000,3.142 L25.000,7.856 C25.000,7.857 25.000,7.857 25.000,7.857 ZM12.001,2.016 L7.000,2.016 L7.000,3.974 L12.001,3.974 L12.001,2.016 ZM13.000,2.998 L13.000,4.994 L6.001,4.994 L6.001,2.998 L2.000,2.998 C1.448,2.998 1.000,3.447 1.000,3.999 L1.000,6.999 C1.000,7.551 1.448,7.999 2.000,7.999 L15.016,7.999 C15.013,7.951 15.000,7.905 15.000,7.856 L15.000,3.142 C15.000,3.093 15.013,3.047 15.016,2.998 L13.000,2.998 ZM18.000,0.999 C16.895,0.999 16.000,1.894 16.000,2.998 L16.000,7.999 C16.000,9.104 16.895,9.999 18.000,9.999 L21.000,9.999 L21.000,0.999 L18.000,0.999 ZM24.001,1.009 L22.103,1.009 C22.068,1.008 22.035,0.999 22.000,0.999 L22.000,9.999 C22.034,9.999 22.066,9.991 22.099,9.989 L24.001,9.989 L24.001,1.009 Z" class="cls-1"/>
</svg>
