<svg xmlns="http://www.w3.org/2000/svg" xmlns:xlink="http://www.w3.org/1999/xlink" preserveAspectRatio="xMidYMid" width="25" height="23" viewBox="0 0 25 23">
  <defs>
    <style>
      .cls-1 {
        fill: #3c4042;
        fill-rule: evenodd;
      }
    </style>
  </defs>
  <path d="M21.875,22.999 L3.125,22.999 C1.399,22.999 -0.000,21.622 -0.000,19.922 L-0.000,6.076 C-0.000,4.377 1.399,2.999 3.125,2.999 L6.686,2.999 C7.648,1.499 8.847,-0.000 9.800,-0.000 L15.200,-0.000 C16.152,-0.000 17.352,1.499 18.314,2.999 L21.875,2.999 C23.601,2.999 25.000,4.377 25.000,6.076 L25.000,19.922 C25.000,21.622 23.601,22.999 21.875,22.999 ZM15.197,1.000 L9.800,1.000 C9.419,1.038 8.689,1.840 7.889,2.999 L17.110,2.999 C16.311,1.842 15.581,1.040 15.197,1.000 ZM24.000,6.076 C24.000,4.931 23.047,3.999 21.875,3.999 L3.125,3.999 C1.980,3.999 1.051,4.890 1.008,5.998 L5.000,5.998 L5.000,6.998 L1.000,6.998 L1.000,8.999 L5.000,8.999 L5.000,9.998 L1.000,9.998 L1.000,19.922 C1.000,21.067 1.953,21.999 3.125,21.999 L21.875,21.999 C23.047,21.999 24.000,21.067 24.000,19.922 L24.000,6.076 ZM12.500,17.997 C9.462,17.997 7.000,15.535 7.000,12.497 C7.000,9.460 9.462,6.998 12.500,6.998 C15.537,6.998 18.000,9.460 18.000,12.497 C18.000,15.535 15.537,17.997 12.500,17.997 ZM12.500,7.997 C10.014,7.997 8.000,10.011 8.000,12.497 C8.000,14.982 10.014,16.997 12.500,16.997 C14.985,16.997 17.000,14.982 17.000,12.497 C17.000,10.011 14.985,7.997 12.500,7.997 Z" class="cls-1"/>
</svg>
