<svg xmlns="http://www.w3.org/2000/svg" xmlns:xlink="http://www.w3.org/1999/xlink" preserveAspectRatio="xMidYMid" width="21" height="25" viewBox="0 0 21 25">
  <defs>
    <style>
      .cls-1 {
        fill: #3c4042;
        fill-rule: evenodd;
      }
    </style>
  </defs>
  <path d="M17.857,24.997 L3.142,24.997 C1.407,24.997 -0.000,23.598 -0.000,21.873 L-0.000,16.998 L-0.000,15.998 L-0.000,3.122 C-0.000,1.396 1.407,-0.002 3.142,-0.002 L17.857,-0.002 C19.593,-0.002 21.000,1.396 21.000,3.122 L21.000,15.998 L21.000,16.998 L21.000,21.873 C21.000,23.598 19.593,24.997 17.857,24.997 ZM20.000,2.999 C20.000,1.894 19.104,0.999 18.000,0.999 L3.000,0.999 C1.895,0.999 1.000,1.894 1.000,2.999 L1.000,15.998 L20.000,15.998 L20.000,2.999 ZM20.000,16.998 L1.000,16.998 L1.000,21.999 C1.000,23.104 1.895,23.999 3.000,23.999 L18.000,23.999 C19.104,23.999 20.000,23.104 20.000,21.999 L20.000,16.998 ZM10.500,21.997 C9.666,21.997 8.991,21.326 8.991,20.497 C8.991,19.670 9.666,18.998 10.500,18.998 C11.333,18.998 12.008,19.670 12.008,20.497 C12.008,21.326 11.333,21.997 10.500,21.997 Z" class="cls-1"/>
</svg>
