<svg xmlns="http://www.w3.org/2000/svg" xmlns:xlink="http://www.w3.org/1999/xlink" preserveAspectRatio="xMidYMid" width="25" height="19" viewBox="0 0 25 19">
  <defs>
    <style>
      .cls-1 {
        fill: #3c4042;
        fill-rule: evenodd;
      }
    </style>
  </defs>
  <path d="M20.314,18.999 L4.689,18.999 C2.100,18.999 0.001,16.872 0.001,14.249 L0.001,4.749 C0.001,2.125 2.100,-0.001 4.689,-0.001 L20.314,-0.001 C22.902,-0.001 25.001,2.125 25.001,4.749 L25.001,14.249 C25.001,16.872 22.902,18.999 20.314,18.999 ZM24.000,4.999 C24.000,2.790 22.209,0.999 20.000,0.999 L5.000,0.999 C2.791,0.999 1.000,2.790 1.000,4.999 L1.000,13.999 C1.000,16.208 2.791,17.999 5.000,17.999 L20.000,17.999 C22.209,17.999 24.000,16.208 24.000,13.999 L24.000,4.999 ZM21.000,5.999 L22.000,5.999 L22.000,13.000 L21.000,13.000 L21.000,5.999 ZM4.501,10.989 C3.673,10.989 3.002,10.322 3.002,9.499 C3.002,8.676 3.673,8.009 4.501,8.009 C5.330,8.009 6.001,8.676 6.001,9.499 C6.001,10.322 5.330,10.989 4.501,10.989 Z" class="cls-1"/>
</svg>
