<svg xmlns="http://www.w3.org/2000/svg" xmlns:xlink="http://www.w3.org/1999/xlink" preserveAspectRatio="xMidYMid" width="25" height="25" viewBox="0 0 25 25">
  <defs>
    <style>
      .cls-1 {
        fill: #3c4042;
        fill-rule: evenodd;
      }
    </style>
  </defs>
  <path d="M23.437,19.998 L17.000,19.998 L17.000,23.997 L8.000,23.997 L8.000,19.998 L1.562,19.998 C0.699,19.998 -0.000,19.309 -0.000,18.459 L-0.000,1.536 C-0.000,0.686 0.699,-0.002 1.562,-0.002 L23.437,-0.002 C24.300,-0.002 25.000,0.686 25.000,1.536 L25.000,18.459 C25.000,19.309 24.300,19.998 23.437,19.998 ZM9.000,23.997 L16.000,23.997 L16.000,19.997 L9.000,19.997 L9.000,23.997 ZM24.000,1.999 C24.000,1.447 23.552,0.999 23.000,0.999 L2.000,0.999 C1.448,0.999 1.000,1.447 1.000,1.999 L1.000,13.998 L24.000,13.998 L24.000,14.998 L1.000,14.998 L1.000,17.999 C1.000,18.551 1.448,18.999 2.000,18.999 L23.000,18.999 C23.552,18.999 24.000,18.551 24.000,17.999 L24.000,1.999 ZM19.000,24.999 L6.000,24.999 L6.000,23.998 L19.000,23.998 L19.000,24.999 Z" class="cls-1"/>
</svg>
