<svg xmlns="http://www.w3.org/2000/svg" xmlns:xlink="http://www.w3.org/1999/xlink" preserveAspectRatio="xMidYMid" width="25" height="22" viewBox="0 0 25 22">
  <defs>
    <style>
      .cls-1 {
        fill: #3c4042;
        fill-rule: evenodd;
      }
    </style>
  </defs>
  <path d="M24.200,21.999 L19.000,18.479 L19.000,18.748 C19.000,20.542 17.582,21.997 15.833,21.997 L3.166,21.997 C1.417,21.997 -0.000,20.542 -0.000,18.748 L-0.000,12.248 C-0.000,10.879 0.826,9.713 1.993,9.233 C0.791,8.426 -0.000,7.055 -0.000,5.497 C-0.000,3.013 2.014,0.998 4.500,0.998 C6.985,0.998 9.000,3.013 9.000,5.497 C9.000,6.920 8.327,8.172 7.297,8.997 L10.289,8.997 C9.496,8.044 9.000,6.835 9.000,5.497 C9.000,2.460 11.462,-0.003 14.500,-0.003 C17.537,-0.003 20.000,2.460 20.000,5.497 C20.000,7.248 19.166,8.789 17.892,9.796 C18.565,10.392 19.000,11.263 19.000,12.248 L19.000,12.521 L24.200,9.000 C24.641,9.000 25.000,9.363 25.000,9.812 L25.000,21.187 C25.000,21.635 24.641,21.999 24.200,21.999 ZM8.000,5.497 C8.000,3.565 6.433,1.997 4.500,1.997 C2.567,1.997 1.000,3.565 1.000,5.497 C1.000,7.430 2.567,8.997 4.500,8.997 C6.433,8.997 8.000,7.430 8.000,5.497 ZM19.000,5.497 C19.000,3.013 16.985,0.998 14.500,0.998 C12.014,0.998 10.000,3.013 10.000,5.497 C10.000,6.920 10.673,8.172 11.703,8.997 L15.833,8.997 C16.248,8.997 16.643,9.084 17.006,9.233 C18.208,8.426 19.000,7.055 19.000,5.497 ZM18.000,11.999 C18.000,10.894 17.104,9.999 16.000,9.999 L3.000,9.999 C1.895,9.999 1.000,10.894 1.000,11.999 L1.000,18.999 C1.000,20.104 1.895,20.999 3.000,20.999 L16.000,20.999 C17.104,20.999 18.000,20.104 18.000,18.999 L18.000,11.999 ZM24.000,10.342 L19.000,13.729 L19.000,17.272 L24.000,20.657 L24.000,10.342 Z" class="cls-1"/>
</svg>
