<svg xmlns="http://www.w3.org/2000/svg" xmlns:xlink="http://www.w3.org/1999/xlink" preserveAspectRatio="xMidYMid" width="25" height="23" viewBox="0 0 25 23">
  <defs>
    <style>
      .cls-1 {
        fill: #3c4042;
        fill-rule: evenodd;
      }
    </style>
  </defs>
  <path d="M23.437,22.998 L1.562,22.998 C0.699,22.998 -0.000,22.308 -0.000,21.458 L-0.000,3.536 C-0.000,2.685 0.699,1.997 1.562,1.997 L3.050,1.997 C3.283,0.857 4.291,-0.001 5.500,-0.001 L9.500,-0.001 C10.708,-0.001 11.717,0.857 11.949,1.997 L23.437,1.997 C24.300,1.997 25.000,2.685 25.000,3.536 L25.000,21.458 C25.000,22.308 24.300,22.998 23.437,22.998 ZM9.500,0.999 L5.500,0.999 C4.671,0.999 4.000,1.670 4.000,2.499 C4.000,3.327 4.671,3.999 5.500,3.999 L9.500,3.999 C10.328,3.999 11.000,3.327 11.000,2.499 C11.000,1.670 10.328,0.999 9.500,0.999 ZM24.000,3.770 C24.000,3.344 23.648,2.997 23.214,2.997 L11.950,2.997 C11.719,4.139 10.710,5.000 9.500,5.000 L5.500,5.000 C4.290,5.000 3.281,4.139 3.050,2.997 L1.786,2.997 C1.352,2.997 1.000,3.344 1.000,3.770 L1.000,21.225 C1.000,21.652 1.352,21.997 1.786,21.997 L23.214,21.997 C23.648,21.997 24.000,21.652 24.000,21.225 L24.000,3.770 ZM12.500,19.997 C8.910,19.997 6.000,17.087 6.000,13.497 C6.000,9.907 8.910,6.997 12.500,6.997 C16.090,6.997 19.000,9.907 19.000,13.497 C19.000,17.087 16.090,19.997 12.500,19.997 ZM12.500,7.997 C9.462,7.997 7.000,10.459 7.000,13.497 C7.000,16.534 9.462,18.998 12.500,18.998 C15.537,18.998 18.000,16.534 18.000,13.497 C18.000,10.459 15.537,7.997 12.500,7.997 Z" class="cls-1"/>
</svg>
