<svg xmlns="http://www.w3.org/2000/svg" xmlns:xlink="http://www.w3.org/1999/xlink" preserveAspectRatio="xMidYMid" width="11" height="25" viewBox="0 0 11 25">
  <defs>
    <style>
      .cls-1 {
        fill: #3c4042;
        fill-rule: evenodd;
      }
    </style>
  </defs>
  <path d="M8.991,9.766 L8.991,11.998 L10.000,11.998 L10.000,18.999 L8.991,18.999 L8.991,23.415 C8.991,24.289 8.276,24.998 7.394,24.998 L3.605,24.998 C2.724,24.998 2.009,24.289 2.009,23.415 L2.009,9.766 C0.835,9.282 -0.000,8.081 -0.000,6.665 L-0.000,3.999 L-0.000,3.331 L-0.000,2.999 L0.031,2.999 C0.031,2.999 0.031,2.999 0.031,2.998 L-0.000,2.998 L-0.000,-0.001 L3.143,-0.001 L7.857,-0.001 L11.000,-0.001 L11.000,2.998 L10.968,2.998 C10.968,2.999 10.968,2.999 10.968,2.999 L11.000,2.999 L11.000,3.331 L11.000,3.999 L11.000,6.665 C11.000,8.081 10.164,9.282 8.991,9.766 ZM8.983,17.998 L8.983,12.998 L7.025,12.998 L7.025,17.998 L8.983,17.998 ZM3.000,22.999 C3.000,23.551 3.448,23.999 4.000,23.999 L7.000,23.999 C7.552,23.999 8.000,23.551 8.000,22.999 L8.000,18.999 L6.005,18.999 L6.005,11.998 L8.000,11.998 L8.000,9.983 C7.951,9.985 7.906,9.998 7.857,9.998 L3.143,9.998 C3.094,9.998 3.048,9.985 3.000,9.983 L3.000,22.999 ZM9.990,2.897 L9.990,0.999 L1.010,0.999 L1.010,2.899 C1.008,2.932 1.000,2.964 1.000,2.999 L10.000,2.999 C10.000,2.964 9.991,2.932 9.990,2.897 ZM1.000,3.999 L1.000,6.999 C1.000,8.104 1.895,9.000 3.000,9.000 L8.000,9.000 C9.104,9.000 10.000,8.104 10.000,6.999 L10.000,3.999 L1.000,3.999 Z" class="cls-1"/>
</svg>
