<svg xmlns="http://www.w3.org/2000/svg" xmlns:xlink="http://www.w3.org/1999/xlink" preserveAspectRatio="xMidYMid" width="17" height="25" viewBox="0 0 17 25">
  <defs>
    <style>
      .cls-1 {
        fill: #3c4042;
        fill-rule: evenodd;
      }
    </style>
  </defs>
  <path d="M12.363,24.999 L4.636,24.999 C2.076,24.999 -0.000,22.888 -0.000,20.285 L-0.000,7.713 C-0.000,5.110 2.076,2.999 4.636,2.999 L8.000,2.999 L8.000,0.999 L3.500,0.999 C3.224,0.999 3.000,0.775 3.000,0.499 C3.000,0.223 3.224,-0.001 3.500,-0.001 L8.500,-0.001 C8.776,-0.001 9.000,0.223 9.000,0.499 L9.000,2.999 L12.363,2.999 C14.924,2.999 17.000,5.110 17.000,7.713 L17.000,20.285 C17.000,22.888 14.924,24.999 12.363,24.999 ZM16.000,7.713 C16.000,5.665 14.369,3.999 12.363,3.999 L4.636,3.999 C2.631,3.999 1.000,5.665 1.000,7.713 L1.000,20.285 C1.000,22.333 2.631,23.999 4.636,23.999 L12.363,23.999 C14.369,23.999 16.000,22.333 16.000,20.285 L16.000,7.713 ZM8.500,11.000 C8.224,11.000 8.000,10.775 8.000,10.499 L8.000,6.499 C8.000,6.223 8.224,5.999 8.500,5.999 C8.776,5.999 9.000,6.223 9.000,6.499 L9.000,10.499 C9.000,10.775 8.776,11.000 8.500,11.000 Z" class="cls-1"/>
</svg>
