<svg xmlns="http://www.w3.org/2000/svg" xmlns:xlink="http://www.w3.org/1999/xlink" preserveAspectRatio="xMidYMid" width="13" height="23" viewBox="0 0 13 23">
  <defs>
    <style>
      .cls-1 {
        fill: #3c4042;
        fill-rule: evenodd;
      }
    </style>
  </defs>
  <path d="M12.500,14.999 C12.776,14.999 13.000,15.223 13.000,15.499 C13.000,15.775 12.776,15.999 12.500,15.999 L6.000,15.999 L6.000,18.999 L12.500,18.999 C12.776,18.999 13.000,19.223 13.000,19.499 C13.000,19.775 12.776,19.999 12.500,19.999 L6.000,19.999 L6.000,20.999 C6.000,22.104 5.104,22.999 4.000,22.999 L2.000,22.999 C0.895,22.999 -0.000,22.104 -0.000,20.999 L-0.000,1.999 C-0.000,0.894 0.895,-0.001 2.000,-0.001 L4.000,-0.001 C5.104,-0.001 6.000,0.894 6.000,1.999 L6.000,3.000 L12.500,3.000 C12.776,3.000 13.000,3.223 13.000,3.499 C13.000,3.775 12.776,3.999 12.500,3.999 L6.000,3.999 L6.000,6.999 L12.500,6.999 C12.776,6.999 13.000,7.223 13.000,7.499 C13.000,7.775 12.776,7.999 12.500,7.999 L6.000,7.999 L6.000,10.999 L12.500,10.999 C12.776,10.999 13.000,11.223 13.000,11.499 C13.000,11.776 12.776,11.999 12.500,11.999 L6.000,11.999 L6.000,14.999 L12.500,14.999 ZM5.000,1.999 C5.000,1.447 4.552,0.999 4.000,0.999 L2.000,0.999 C1.447,0.999 1.000,1.447 1.000,1.999 L1.000,20.999 C1.000,21.551 1.447,21.999 2.000,21.999 L4.000,21.999 C4.552,21.999 5.000,21.551 5.000,20.999 L5.000,1.999 Z" class="cls-1"/>
</svg>
