<svg xmlns="http://www.w3.org/2000/svg" xmlns:xlink="http://www.w3.org/1999/xlink" preserveAspectRatio="xMidYMid" width="25" height="23" viewBox="0 0 25 23">
  <defs>
    <style>
      .cls-1 {
        fill: #3c4042;
        fill-rule: evenodd;
      }
    </style>
  </defs>
  <path d="M-0.000,22.998 L-0.000,3.997 L-0.000,2.997 L-0.000,-0.002 L9.000,-0.002 L9.000,2.997 L25.000,2.997 L25.000,22.998 L-0.000,22.998 ZM8.000,0.997 L1.000,0.997 L1.000,2.997 L8.000,2.997 L8.000,0.997 ZM24.000,3.997 L9.000,3.997 L9.000,3.997 L1.000,3.997 L1.000,21.997 L24.000,21.997 L24.000,3.997 ZM10.500,6.997 C14.090,6.997 17.000,9.908 17.000,13.498 C17.000,17.087 14.090,19.997 10.500,19.997 C6.910,19.997 4.000,17.087 4.000,13.498 C4.000,9.908 6.910,6.997 10.500,6.997 ZM10.500,18.997 C13.537,18.997 16.000,16.534 16.000,13.497 C16.000,10.459 13.537,7.997 10.500,7.997 C7.462,7.997 5.000,10.459 5.000,13.497 C5.000,16.534 7.462,18.997 10.500,18.997 ZM17.000,5.998 L22.000,5.998 L22.000,6.999 L17.000,6.999 L17.000,5.998 Z" class="cls-1"/>
</svg>
