<svg xmlns="http://www.w3.org/2000/svg" xmlns:xlink="http://www.w3.org/1999/xlink" preserveAspectRatio="xMidYMid" width="25" height="17" viewBox="0 0 25 17">
  <defs>
    <style>
      .cls-1 {
        fill: #3c4042;
        fill-rule: evenodd;
      }
    </style>
  </defs>
  <path d="M20.312,16.999 L4.687,16.999 C2.098,16.999 -0.000,14.923 -0.000,12.363 L-0.000,4.635 C-0.000,2.076 2.098,-0.001 4.687,-0.001 L20.312,-0.001 C22.901,-0.001 25.000,2.076 25.000,4.635 L25.000,12.363 C25.000,14.923 22.901,16.999 20.312,16.999 ZM24.000,4.635 C24.000,2.630 22.346,0.999 20.312,0.999 L4.687,0.999 C2.654,0.999 1.000,2.630 1.000,4.635 L1.000,12.363 C1.000,14.369 2.654,16.000 4.687,16.000 L20.312,16.000 C22.346,16.000 24.000,14.369 24.000,12.363 L24.000,4.635 ZM20.000,8.003 L22.000,8.003 L22.000,8.992 L20.000,8.992 L20.000,8.003 ZM20.000,5.006 L22.000,5.006 L22.000,5.995 L20.000,5.995 L20.000,5.006 ZM6.000,3.002 L19.000,3.002 L19.000,14.008 L6.000,14.008 L6.000,3.002 ZM7.000,12.999 L18.000,12.999 L18.000,3.999 L7.000,3.999 L7.000,12.999 ZM3.000,8.003 L5.000,8.003 L5.000,8.992 L3.000,8.992 L3.000,8.003 ZM3.000,5.006 L5.000,5.006 L5.000,5.995 L3.000,5.995 L3.000,5.006 Z" class="cls-1"/>
</svg>
