<svg xmlns="http://www.w3.org/2000/svg" xmlns:xlink="http://www.w3.org/1999/xlink" preserveAspectRatio="xMidYMid" width="23" height="23" viewBox="0 0 23 23">
  <defs>
    <style>
      .cls-1 {
        fill: #3c4042;
        fill-rule: evenodd;
      }
    </style>
  </defs>
  <path d="M21.466,17.991 L12.006,17.991 L12.006,21.995 L10.993,21.995 L10.993,17.991 L1.533,17.991 C0.686,17.991 -0.000,17.320 -0.000,16.491 L-0.000,1.496 C-0.000,0.668 0.686,-0.002 1.533,-0.002 L21.466,-0.002 C22.313,-0.002 23.000,0.668 23.000,1.496 L23.000,16.491 C23.000,17.320 22.313,17.991 21.466,17.991 ZM22.000,1.999 C22.000,1.447 21.552,0.999 21.000,0.999 L2.000,0.999 C1.448,0.999 1.000,1.447 1.000,1.999 L1.000,15.999 C1.000,16.552 1.448,16.999 2.000,16.999 L21.000,16.999 C21.552,16.999 22.000,16.552 22.000,15.999 L22.000,1.999 ZM8.500,21.999 L14.500,21.999 C14.776,21.999 15.000,22.223 15.000,22.499 C15.000,22.775 14.776,22.999 14.500,22.999 L8.500,22.999 C8.224,22.999 8.000,22.775 8.000,22.499 C8.000,22.223 8.224,21.999 8.500,21.999 Z" class="cls-1"/>
</svg>
