<svg xmlns="http://www.w3.org/2000/svg" xmlns:xlink="http://www.w3.org/1999/xlink" preserveAspectRatio="xMidYMid" width="23" height="25" viewBox="0 0 23 25">
  <defs>
    <style>
      .cls-1 {
        fill: #3c4042;
        fill-rule: evenodd;
      }
    </style>
  </defs>
  <path d="M23.000,5.499 L23.000,23.435 C23.000,24.298 22.313,24.998 21.466,24.998 L1.533,24.998 C0.686,24.998 -0.000,24.298 -0.000,23.435 L-0.000,1.560 C-0.000,0.697 0.686,-0.003 1.533,-0.003 L21.466,-0.003 C22.313,-0.003 23.000,0.697 23.000,1.560 L23.000,5.498 C23.000,5.499 23.000,5.499 23.000,5.499 C23.000,5.499 23.000,5.499 23.000,5.499 ZM22.000,1.999 C22.000,1.447 21.552,0.999 21.000,0.999 L2.000,0.999 C1.448,0.999 1.000,1.447 1.000,1.999 L1.000,4.998 L22.000,4.998 L22.000,1.999 ZM22.000,5.999 L1.000,5.999 L1.000,22.999 C1.000,23.551 1.448,23.999 2.000,23.999 L21.000,23.999 C21.552,23.999 22.000,23.551 22.000,22.999 L22.000,5.999 ZM19.000,20.999 L16.000,20.999 C15.448,20.999 15.000,20.551 15.000,19.999 L15.000,16.999 C15.000,16.447 15.448,15.999 16.000,15.999 L19.000,15.999 C19.552,15.999 20.000,16.447 20.000,16.999 L20.000,19.999 C20.000,20.551 19.552,20.999 19.000,20.999 ZM19.000,16.999 L16.000,16.999 L16.000,19.999 L19.000,19.999 L19.000,16.999 ZM19.000,13.999 L16.000,13.999 C15.448,13.999 15.000,13.552 15.000,12.999 L15.000,9.999 C15.000,9.447 15.448,8.999 16.000,8.999 L19.000,8.999 C19.552,8.999 20.000,9.447 20.000,9.999 L20.000,12.999 C20.000,13.552 19.552,13.999 19.000,13.999 ZM19.000,9.999 L16.000,9.999 L16.000,12.999 L19.000,12.999 L19.000,9.999 ZM13.000,20.999 L10.000,20.999 C9.448,20.999 9.000,20.551 9.000,19.999 L9.000,16.999 C9.000,16.447 9.448,15.999 10.000,15.999 L13.000,15.999 C13.552,15.999 14.000,16.447 14.000,16.999 L14.000,19.999 C14.000,20.551 13.552,20.999 13.000,20.999 ZM13.000,16.999 L10.000,16.999 L10.000,19.999 L13.000,19.999 L13.000,16.999 ZM13.000,13.999 L10.000,13.999 C9.448,13.999 9.000,13.552 9.000,12.999 L9.000,9.999 C9.000,9.447 9.448,8.999 10.000,8.999 L13.000,8.999 C13.552,8.999 14.000,9.447 14.000,9.999 L14.000,12.999 C14.000,13.552 13.552,13.999 13.000,13.999 ZM13.000,9.999 L10.000,9.999 L10.000,12.999 L13.000,12.999 L13.000,9.999 ZM7.000,20.999 L4.000,20.999 C3.447,20.999 3.000,20.551 3.000,19.999 L3.000,16.999 C3.000,16.447 3.447,15.999 4.000,15.999 L7.000,15.999 C7.552,15.999 8.000,16.447 8.000,16.999 L8.000,19.999 C8.000,20.551 7.552,20.999 7.000,20.999 ZM7.000,16.999 L4.000,16.999 L4.000,19.999 L7.000,19.999 L7.000,16.999 ZM7.000,13.999 L4.000,13.999 C3.447,13.999 3.000,13.552 3.000,12.999 L3.000,9.999 C3.000,9.447 3.447,8.999 4.000,8.999 L7.000,8.999 C7.552,8.999 8.000,9.447 8.000,9.999 L8.000,12.999 C8.000,13.552 7.552,13.999 7.000,13.999 ZM7.000,9.999 L4.000,9.999 L4.000,12.999 L7.000,12.999 L7.000,9.999 Z" class="cls-1"/>
</svg>
