<svg xmlns="http://www.w3.org/2000/svg" xmlns:xlink="http://www.w3.org/1999/xlink" preserveAspectRatio="xMidYMid" width="25" height="15" viewBox="0 0 25 15">
  <defs>
    <style>
      .cls-1 {
        fill: #3c4042;
        fill-rule: evenodd;
      }
    </style>
  </defs>
  <path d="M17.500,14.999 L7.500,14.999 C3.358,14.999 -0.000,11.641 -0.000,7.499 C-0.000,3.357 3.358,-0.001 7.500,-0.001 L17.500,-0.001 C21.642,-0.001 25.000,3.357 25.000,7.499 C25.000,11.641 21.642,14.999 17.500,14.999 ZM17.500,0.999 L7.500,0.999 C3.910,0.999 1.000,3.909 1.000,7.499 C1.000,11.089 3.910,13.998 7.500,13.998 L17.500,13.998 C21.090,13.998 24.000,11.089 24.000,7.499 C24.000,3.909 21.090,0.999 17.500,0.999 ZM16.666,11.015 L16.000,10.193 L21.333,5.983 L22.000,6.805 L16.666,11.015 ZM14.000,8.193 L19.333,3.983 L20.000,4.805 L14.666,9.015 L14.000,8.193 ZM7.000,11.012 L6.000,11.012 L6.000,7.996 L3.000,7.996 L3.000,7.000 L6.000,7.000 L6.000,3.984 L7.000,3.984 L7.000,7.000 L10.000,7.000 L10.000,7.996 L7.000,7.996 L7.000,11.012 Z" class="cls-1"/>
</svg>
