<svg xmlns="http://www.w3.org/2000/svg" xmlns:xlink="http://www.w3.org/1999/xlink" preserveAspectRatio="xMidYMid" width="16" height="25" viewBox="0 0 16 25">
  <defs>
    <style>
      .cls-1 {
        fill: #3c4042;
        fill-rule: evenodd;
      }
    </style>
  </defs>
  <path d="M12.800,24.997 L3.200,24.997 C1.432,24.997 -0.000,23.598 -0.000,21.873 L-0.000,16.998 L-0.000,15.998 L-0.000,4.998 L-0.000,3.998 L-0.000,3.122 C-0.000,1.396 1.432,-0.002 3.200,-0.002 L12.800,-0.002 C14.567,-0.002 16.000,1.396 16.000,3.122 L16.000,3.998 L16.000,4.998 L16.000,15.998 L16.000,16.998 L16.000,21.873 C16.000,23.598 14.567,24.997 12.800,24.997 ZM15.000,2.999 C15.000,1.894 14.104,0.999 13.000,0.999 L3.000,0.999 C1.895,0.999 1.000,1.894 1.000,2.999 L1.000,3.998 L15.000,3.998 L15.000,2.999 ZM15.000,4.998 L1.000,4.998 L1.000,15.998 L15.000,15.998 L15.000,4.998 ZM1.000,16.998 L1.000,21.999 C1.000,23.104 1.895,23.999 3.000,23.999 L13.000,23.999 C14.104,23.999 15.000,23.104 15.000,21.999 L15.000,16.998 L1.000,16.998 ZM8.500,21.997 C7.668,21.997 6.994,21.326 6.994,20.497 C6.994,19.670 7.668,18.998 8.500,18.998 C9.331,18.998 10.006,19.670 10.006,20.497 C10.006,21.326 9.331,21.997 8.500,21.997 Z" class="cls-1"/>
</svg>
