<svg xmlns="http://www.w3.org/2000/svg" xmlns:xlink="http://www.w3.org/1999/xlink" preserveAspectRatio="xMidYMid" width="25" height="24" viewBox="0 0 25 24">
  <defs>
    <style>
      .cls-1 {
        fill: #3c4042;
        fill-rule: evenodd;
      }
    </style>
  </defs>
  <path d="M25.000,14.999 L24.942,14.999 C24.961,15.118 25.000,15.230 25.000,15.354 L25.000,21.641 C25.000,22.943 23.925,23.998 22.600,23.998 L19.400,23.998 C18.074,23.998 17.000,22.943 17.000,21.641 L17.000,15.354 C17.000,14.053 18.074,12.997 19.400,12.997 L22.600,12.997 C22.739,12.997 22.867,13.034 23.000,13.057 L23.000,12.999 L23.963,12.999 C23.979,12.833 24.000,12.668 24.000,12.498 C24.000,6.146 18.851,0.997 12.500,0.997 C6.148,0.997 1.000,6.146 1.000,12.498 C1.000,12.668 1.021,12.833 1.036,12.999 L2.000,12.999 L2.000,13.057 C2.133,13.034 2.260,12.997 2.400,12.997 L5.600,12.997 C6.925,12.997 8.000,14.053 8.000,15.354 L8.000,21.641 C8.000,22.943 6.925,23.998 5.600,23.998 L2.400,23.998 C1.074,23.998 -0.000,22.943 -0.000,21.641 L-0.000,15.354 C-0.000,15.230 0.038,15.118 0.058,14.999 L-0.000,14.999 L-0.000,12.999 L0.033,12.999 C0.025,12.831 -0.000,12.668 -0.000,12.498 C-0.000,5.594 5.596,-0.002 12.500,-0.002 C19.403,-0.002 25.000,5.594 25.000,12.498 C25.000,12.668 24.975,12.831 24.967,12.999 L25.000,12.999 L25.000,14.999 ZM1.000,14.999 L1.000,15.999 L1.000,21.999 C1.000,22.551 1.448,22.999 2.000,22.999 L6.000,22.999 C6.552,22.999 7.000,22.551 7.000,21.999 L7.000,14.999 C7.000,14.447 6.552,13.999 6.000,13.999 L2.000,13.999 L2.000,13.999 L1.000,13.999 L1.000,14.999 ZM24.000,13.999 L23.000,13.999 L23.000,13.999 L23.000,13.999 L19.000,13.999 C18.448,13.999 18.000,14.447 18.000,14.999 L18.000,21.999 C18.000,22.551 18.448,22.999 19.000,22.999 L23.000,22.999 C23.552,22.999 24.000,22.551 24.000,21.999 L24.000,17.000 L24.000,17.000 L24.000,13.999 Z" class="cls-1"/>
</svg>
