<svg xmlns="http://www.w3.org/2000/svg" xmlns:xlink="http://www.w3.org/1999/xlink" preserveAspectRatio="xMidYMid" width="25" height="24" viewBox="0 0 25 24">
  <defs>
    <style>
      .cls-1 {
        fill: #3c4042;
        fill-rule: evenodd;
      }
    </style>
  </defs>
  <path d="M21.875,23.997 L3.125,23.997 C1.399,23.997 -0.000,22.579 -0.000,20.831 L-0.000,8.163 C-0.000,6.415 1.399,4.997 3.125,4.997 L10.287,4.997 L6.170,0.880 C5.965,0.675 5.965,0.342 6.170,0.136 C6.375,-0.069 6.708,-0.069 6.914,0.136 L11.774,4.997 L13.225,4.997 L18.086,0.136 C18.291,-0.069 18.624,-0.069 18.830,0.136 C19.035,0.342 19.035,0.675 18.830,0.880 L14.713,4.997 L21.875,4.997 C23.601,4.997 25.000,6.415 25.000,8.163 L25.000,20.831 C25.000,22.579 23.601,23.997 21.875,23.997 ZM24.000,7.999 C24.000,6.894 23.104,5.999 22.000,5.999 L3.000,5.999 C1.895,5.999 1.000,6.894 1.000,7.999 L1.000,20.999 C1.000,22.103 1.895,22.999 3.000,22.999 L22.000,22.999 C23.104,22.999 24.000,22.103 24.000,20.999 L24.000,7.999 ZM21.500,13.000 L17.500,13.000 C17.224,13.000 17.000,12.775 17.000,12.499 C17.000,12.223 17.224,11.999 17.500,11.999 L21.500,11.999 C21.776,11.999 22.000,12.223 22.000,12.499 C22.000,12.775 21.776,13.000 21.500,13.000 ZM21.500,9.999 L17.500,9.999 C17.224,9.999 17.000,9.775 17.000,9.499 C17.000,9.223 17.224,8.999 17.500,8.999 L21.500,8.999 C21.776,8.999 22.000,9.223 22.000,9.499 C22.000,9.775 21.776,9.999 21.500,9.999 ZM18.666,15.997 L20.333,15.997 C21.254,15.997 22.000,16.744 22.000,17.664 L22.000,19.331 C22.000,20.251 21.254,20.997 20.333,20.997 L18.666,20.997 C17.746,20.997 17.000,20.251 17.000,19.331 L17.000,17.664 C17.000,16.744 17.746,15.997 18.666,15.997 ZM18.000,18.999 C18.000,19.552 18.448,19.999 19.000,19.999 L20.000,19.999 C20.552,19.999 21.000,19.552 21.000,18.999 L21.000,17.998 C21.000,17.447 20.552,16.999 20.000,16.999 L19.000,16.999 C18.448,16.999 18.000,17.447 18.000,17.998 L18.000,18.999 ZM13.375,20.997 L4.625,20.997 C3.727,20.997 3.000,20.270 3.000,19.372 L3.000,9.622 C3.000,8.724 3.727,7.997 4.625,7.997 L13.375,7.997 C14.272,7.997 15.000,8.724 15.000,9.622 L15.000,19.372 C15.000,20.270 14.272,20.997 13.375,20.997 ZM14.000,9.999 C14.000,9.447 13.552,8.999 13.000,8.999 L5.000,8.999 C4.447,8.999 4.000,9.447 4.000,9.999 L4.000,18.999 C4.000,19.552 4.447,19.999 5.000,19.999 L13.000,19.999 C13.552,19.999 14.000,19.552 14.000,18.999 L14.000,9.999 Z" class="cls-1"/>
</svg>
