<svg xmlns="http://www.w3.org/2000/svg" xmlns:xlink="http://www.w3.org/1999/xlink" preserveAspectRatio="xMidYMid" width="25" height="17" viewBox="0 0 25 17">
  <defs>
    <style>
      .cls-1 {
        fill: #3c4042;
        fill-rule: evenodd;
      }
    </style>
  </defs>
  <path d="M25.000,12.445 L25.000,16.997 L24.000,16.997 L24.000,13.887 C23.824,13.956 23.637,14.001 23.437,14.001 L1.562,14.001 C1.363,14.001 1.175,13.956 1.000,13.887 L1.000,16.997 L-0.000,16.997 L-0.000,11.003 L-0.000,11.003 L-0.000,1.553 C-0.000,0.694 0.699,-0.002 1.562,-0.002 L23.437,-0.002 C24.300,-0.002 25.000,0.694 25.000,1.553 L25.000,12.445 L25.000,12.445 ZM24.000,12.445 L24.000,10.999 L24.000,1.553 C24.000,1.246 23.747,0.998 23.437,0.998 L1.562,0.998 C1.252,0.998 1.000,1.246 1.000,1.553 L1.000,10.999 L1.000,12.445 L1.000,12.999 L1.554,12.999 C1.557,12.999 1.560,13.001 1.562,13.001 L23.437,13.001 C23.440,13.001 23.443,12.999 23.445,12.999 L24.000,12.999 L24.000,12.445 ZM21.000,5.007 L22.000,5.007 L22.000,8.990 L21.000,8.990 L21.000,5.007 ZM18.000,5.007 L19.000,5.007 L19.000,8.990 L18.000,8.990 L18.000,5.007 ZM15.000,5.007 L16.000,5.007 L16.000,8.990 L15.000,8.990 L15.000,5.007 ZM7.000,11.003 C4.791,11.003 3.000,9.210 3.000,6.999 C3.000,4.787 4.791,2.995 7.000,2.995 C9.209,2.995 11.000,4.787 11.000,6.999 C11.000,9.210 9.209,11.003 7.000,11.003 ZM7.000,4.011 C5.343,4.011 4.000,5.348 4.000,6.998 C4.000,8.649 5.343,9.986 7.000,9.986 C8.657,9.986 10.000,8.649 10.000,6.998 C10.000,5.348 8.657,4.011 7.000,4.011 Z" class="cls-1"/>
</svg>
