<svg xmlns="http://www.w3.org/2000/svg" xmlns:xlink="http://www.w3.org/1999/xlink" preserveAspectRatio="xMidYMid" width="10" height="25" viewBox="0 0 10 25">
  <defs>
    <style>
      .cls-1 {
        fill: #3c4042;
        fill-rule: evenodd;
      }
    </style>
  </defs>
  <path d="M9.500,6.999 L2.500,6.999 C2.224,6.999 2.000,6.776 2.000,6.499 C2.000,6.223 2.224,5.999 2.500,5.999 L9.500,5.999 C9.776,5.999 10.000,6.223 10.000,6.499 C10.000,6.776 9.776,6.999 9.500,6.999 ZM9.500,4.000 L2.500,4.000 C2.224,4.000 2.000,3.775 2.000,3.499 C2.000,3.223 2.224,2.999 2.500,2.999 L9.500,2.999 C9.776,2.999 10.000,3.223 10.000,3.499 C10.000,3.775 9.776,4.000 9.500,4.000 ZM9.500,0.999 L2.500,0.999 C2.224,0.999 2.000,0.775 2.000,0.499 C2.000,0.223 2.224,-0.000 2.500,-0.000 L9.500,-0.000 C9.776,-0.000 10.000,0.223 10.000,0.499 C10.000,0.775 9.776,0.999 9.500,0.999 ZM0.500,24.999 C0.224,24.999 -0.000,24.775 -0.000,24.499 L-0.000,0.499 C-0.000,0.223 0.224,-0.000 0.500,-0.000 C0.776,-0.000 1.000,0.223 1.000,0.499 L1.000,24.499 C1.000,24.775 0.776,24.999 0.500,24.999 ZM2.500,8.999 L9.500,8.999 C9.776,8.999 10.000,9.223 10.000,9.499 C10.000,9.775 9.776,9.999 9.500,9.999 L2.500,9.999 C2.224,9.999 2.000,9.775 2.000,9.499 C2.000,9.223 2.224,8.999 2.500,8.999 Z" class="cls-1"/>
</svg>
