<svg xmlns="http://www.w3.org/2000/svg" xmlns:xlink="http://www.w3.org/1999/xlink" preserveAspectRatio="xMidYMid" width="25" height="25" viewBox="0 0 25 25">
  <defs>
    <style>
      .cls-1 {
        fill: #3c4042;
        fill-rule: evenodd;
      }
    </style>
  </defs>
  <path d="M21.093,7.998 L9.000,7.998 L9.000,12.999 L13.500,12.999 C13.776,12.999 14.000,13.223 14.000,13.499 L14.000,15.999 C15.104,15.999 16.000,16.894 16.000,17.999 L16.000,22.999 C16.000,24.103 15.104,24.999 14.000,24.999 L13.000,24.999 C11.895,24.999 11.000,24.103 11.000,22.999 L11.000,17.999 C11.000,16.894 11.895,15.999 13.000,15.999 L13.000,13.999 L8.500,13.999 C8.224,13.999 8.000,13.775 8.000,13.499 L8.000,7.998 L3.906,7.998 C1.749,7.998 -0.000,6.207 -0.000,3.998 C-0.000,1.789 1.749,-0.002 3.906,-0.002 L21.093,-0.002 C23.251,-0.002 25.000,1.789 25.000,3.998 C25.000,6.207 23.251,7.998 21.093,7.998 ZM12.000,17.999 L12.000,22.999 C12.000,23.551 12.448,23.999 13.000,23.999 L14.000,23.999 C14.552,23.999 15.000,23.551 15.000,22.999 L15.000,17.999 C15.000,17.447 14.552,16.999 14.000,16.999 L13.000,16.999 C12.448,16.999 12.000,17.447 12.000,17.999 ZM21.000,0.999 L4.000,0.999 C2.343,0.999 1.000,2.342 1.000,3.999 C1.000,5.656 2.343,6.999 4.000,6.999 L21.000,6.999 C22.657,6.999 24.000,5.656 24.000,3.999 C24.000,2.342 22.657,0.999 21.000,0.999 Z" class="cls-1"/>
</svg>
