<svg xmlns="http://www.w3.org/2000/svg" xmlns:xlink="http://www.w3.org/1999/xlink" preserveAspectRatio="xMidYMid" width="22" height="22" viewBox="0 0 22 22">
  <defs>
    <style>
      .cls-1 {
        fill: #3c4042;
        fill-rule: evenodd;
      }
    </style>
  </defs>
  <path d="M11.976,10.999 L21.784,18.107 C22.009,18.271 22.058,18.583 21.892,18.806 C21.727,19.029 21.410,19.076 21.184,18.913 L11.120,11.619 L6.540,14.939 C7.420,15.674 7.992,16.767 7.992,18.005 C7.992,20.218 6.203,22.012 3.996,22.012 C1.789,22.012 -0.000,20.218 -0.000,18.005 C-0.000,15.792 1.789,13.998 3.996,13.998 C4.580,13.998 5.131,14.131 5.631,14.356 L10.264,10.999 L5.641,7.648 C5.138,7.877 4.584,8.012 3.996,8.012 C1.789,8.012 -0.000,6.218 -0.000,4.004 C-0.000,1.792 1.789,-0.002 3.996,-0.002 C6.203,-0.002 7.992,1.792 7.992,4.004 C7.992,5.239 7.423,6.330 6.547,7.065 L11.120,10.378 L21.184,3.085 C21.410,2.922 21.727,2.969 21.892,3.192 C22.058,3.415 22.009,3.728 21.784,3.891 L11.976,10.999 ZM3.995,15.009 C2.344,15.009 1.005,16.350 1.005,18.006 C1.005,19.661 2.344,21.004 3.995,21.004 C5.646,21.004 6.984,19.661 6.984,18.006 C6.984,16.350 5.646,15.009 3.995,15.009 ZM6.984,4.006 C6.984,2.350 5.646,1.009 3.995,1.009 C2.344,1.009 1.005,2.350 1.005,4.006 C1.005,5.662 2.344,7.003 3.995,7.003 C5.646,7.003 6.984,5.662 6.984,4.006 Z" class="cls-1"/>
</svg>
