<svg xmlns="http://www.w3.org/2000/svg" xmlns:xlink="http://www.w3.org/1999/xlink" preserveAspectRatio="xMidYMid" width="25.281" height="25.281" viewBox="0 0 25.281 25.281">
  <defs>
    <style>
      .cls-1 {
        fill: #3c4042;
        fill-rule: evenodd;
      }
    </style>
  </defs>
  <path d="M20.231,10.992 C20.246,10.827 20.281,10.668 20.281,10.499 C20.281,10.326 20.246,10.163 20.230,9.993 L25.270,9.993 L25.270,10.992 L20.231,10.992 ZM18.278,6.287 L21.840,2.725 L22.547,3.430 L18.985,6.992 C18.771,6.735 18.536,6.501 18.278,6.287 ZM14.781,4.999 C14.612,4.999 14.453,5.034 14.288,5.049 L14.288,-0.013 L15.286,-0.013 L15.286,5.050 C15.117,5.034 14.954,4.999 14.781,4.999 ZM10.576,6.992 L7.000,3.415 L7.706,2.709 L11.284,6.287 C11.026,6.501 10.791,6.735 10.576,6.992 ZM9.281,10.499 C9.281,10.668 9.316,10.827 9.331,10.992 L4.270,10.992 L4.270,9.993 L9.332,9.993 C9.316,10.163 9.281,10.326 9.281,10.499 ZM11.274,14.703 L0.697,25.281 L-0.009,24.574 L10.569,13.996 C10.783,14.254 11.017,14.489 11.274,14.703 ZM14.781,15.999 C14.954,15.999 15.117,15.964 15.286,15.948 L15.286,20.988 L14.288,20.988 L14.288,15.949 C14.453,15.964 14.612,15.999 14.781,15.999 ZM18.993,13.997 L22.555,17.558 L21.849,18.264 L18.288,14.703 C18.545,14.489 18.779,14.254 18.993,13.997 Z" class="cls-1"/>
</svg>
