<svg xmlns="http://www.w3.org/2000/svg" xmlns:xlink="http://www.w3.org/1999/xlink" preserveAspectRatio="xMidYMid" width="24.969" height="24.969" viewBox="0 0 24.969 24.969">
  <defs>
    <style>
      .cls-1 {
        fill: #3c4042;
        fill-rule: evenodd;
      }
    </style>
  </defs>
  <path d="M18.913,11.991 C18.943,11.658 18.942,11.326 18.911,10.993 L24.978,10.993 L24.978,11.991 L18.913,11.991 ZM17.351,7.616 C17.228,7.494 17.088,7.403 16.957,7.295 L21.249,3.002 L21.956,3.708 L17.664,8.000 C17.558,7.872 17.470,7.736 17.351,7.616 ZM12.975,6.054 L12.975,-0.012 L13.974,-0.012 L13.974,6.056 C13.641,6.025 13.309,6.024 12.975,6.054 ZM9.581,7.616 C9.462,7.735 9.375,7.871 9.269,7.998 L4.981,3.708 L5.687,3.002 L9.977,7.293 C9.846,7.402 9.704,7.493 9.581,7.616 ZM8.019,11.991 L1.979,11.991 L1.979,10.993 L8.021,10.993 C7.990,11.326 7.989,11.658 8.019,11.991 ZM9.581,15.386 C9.701,15.505 9.838,15.593 9.965,15.699 L0.692,24.972 L-0.014,24.265 L9.260,14.992 C9.368,15.123 9.459,15.263 9.581,15.386 ZM13.974,16.946 L13.974,22.988 L12.975,22.988 L12.975,16.948 C13.309,16.978 13.641,16.977 13.974,16.946 ZM17.351,15.386 C17.474,15.262 17.565,15.121 17.674,14.989 L21.950,19.266 L21.244,19.972 L16.969,15.698 C17.096,15.592 17.232,15.504 17.351,15.386 Z" class="cls-1"/>
</svg>
