<svg xmlns="http://www.w3.org/2000/svg" xmlns:xlink="http://www.w3.org/1999/xlink" preserveAspectRatio="xMidYMid" width="19" height="20" viewBox="0 0 19 20">
  <defs>
    <style>
      .cls-1 {
        fill: #3c4042;
        fill-rule: evenodd;
      }
    </style>
  </defs>
  <path d="M13.000,4.998 L13.000,-0.001 L19.000,-0.001 L19.000,5.935 L19.000,5.998 L19.000,10.622 C19.000,15.800 14.746,19.998 9.500,19.998 C4.253,19.998 -0.000,15.800 -0.000,10.622 L-0.000,5.998 L-0.000,5.998 L-0.000,4.999 L-0.000,4.999 L-0.000,4.998 L-0.000,4.998 L-0.000,-0.001 L6.000,-0.001 L6.000,4.998 L6.000,5.999 L6.000,11.499 C6.000,13.432 7.567,14.999 9.500,14.999 C11.433,14.999 13.000,13.432 13.000,11.499 L13.000,5.999 L13.000,4.998 ZM18.000,1.000 L14.000,1.000 L14.000,4.999 L18.000,4.999 L18.000,1.000 ZM5.000,0.997 L0.986,0.997 L0.986,4.997 L5.000,4.997 L5.000,0.997 ZM9.500,15.999 C7.015,15.999 5.000,13.984 5.000,11.499 L5.000,5.988 L1.000,5.946 L1.000,10.999 C1.000,15.417 4.581,18.999 9.000,18.999 L10.000,18.999 C14.418,18.999 18.000,15.417 18.000,10.999 L18.000,5.946 L14.000,5.988 L14.000,11.499 C14.000,13.984 11.985,15.999 9.500,15.999 Z" class="cls-1"/>
</svg>
