<svg xmlns="http://www.w3.org/2000/svg" xmlns:xlink="http://www.w3.org/1999/xlink" preserveAspectRatio="xMidYMid" width="21" height="25" viewBox="0 0 21 25">
  <defs>
    <style>
      .cls-1 {
        fill: #3c4042;
        fill-rule: evenodd;
      }
    </style>
  </defs>
  <path d="M21.000,24.998 L-0.000,24.998 L-0.000,23.998 L0.472,23.998 C0.180,23.579 -0.000,23.063 -0.000,22.498 C-0.000,21.117 1.033,19.997 2.307,19.997 L10.000,19.997 L10.000,14.972 C6.092,14.714 3.000,11.471 3.000,7.497 C3.000,3.356 6.357,-0.003 10.500,-0.003 C14.642,-0.003 18.000,3.356 18.000,7.497 C18.000,11.471 14.908,14.714 11.000,14.972 L11.000,19.997 L18.692,19.997 C19.967,19.997 21.000,21.117 21.000,22.498 C21.000,23.063 20.820,23.579 20.527,23.998 L21.000,23.998 L21.000,24.998 ZM17.000,7.497 C17.000,3.908 14.089,0.997 10.500,0.997 C6.910,0.997 4.000,3.908 4.000,7.497 C4.000,11.088 6.910,13.997 10.500,13.997 C14.089,13.997 17.000,11.088 17.000,7.497 ZM20.000,21.995 L19.898,21.995 C19.690,21.417 19.150,20.999 18.500,20.999 L2.500,20.999 C1.850,20.999 1.310,21.417 1.102,21.995 L1.000,21.995 L1.000,23.995 L2.480,23.995 C2.487,23.995 2.493,23.999 2.500,23.999 L18.500,23.999 C18.507,23.999 18.513,23.995 18.520,23.995 L20.000,23.995 L20.000,22.500 C20.000,22.500 20.000,22.499 20.000,22.499 C20.000,22.499 20.000,22.498 20.000,22.498 L20.000,21.995 Z" class="cls-1"/>
</svg>
