<svg xmlns="http://www.w3.org/2000/svg" xmlns:xlink="http://www.w3.org/1999/xlink" preserveAspectRatio="xMidYMid" width="23" height="23" viewBox="0 0 23 23">
  <defs>
    <style>
      .cls-1 {
        fill: #3c4042;
        fill-rule: evenodd;
      }
    </style>
  </defs>
  <path d="M23.000,11.499 L23.000,11.499 L23.000,17.499 C23.000,17.499 23.000,17.499 23.000,17.499 L23.000,17.499 L23.000,21.464 C23.000,22.311 22.313,22.998 21.466,22.998 L17.510,22.998 C17.506,22.998 17.503,22.999 17.500,22.999 C17.496,22.999 17.493,22.998 17.490,22.998 L11.510,22.998 C11.506,22.998 11.503,22.999 11.500,22.999 C11.496,22.999 11.493,22.998 11.490,22.998 L5.510,22.998 C5.506,22.998 5.503,22.999 5.500,22.999 C5.496,22.999 5.493,22.998 5.490,22.998 L1.533,22.998 C0.686,22.998 -0.000,22.311 -0.000,21.464 L-0.000,1.530 C-0.000,0.684 0.686,-0.002 1.533,-0.002 L21.466,-0.002 C22.313,-0.002 23.000,0.684 23.000,1.530 L23.000,5.499 C23.000,5.499 23.000,5.499 23.000,5.499 L23.000,5.499 L23.000,11.499 C23.000,11.499 23.000,11.499 23.000,11.499 ZM18.000,21.999 L21.000,21.999 C21.552,21.999 22.000,21.552 22.000,20.999 L22.000,17.999 L18.000,17.999 L18.000,21.999 ZM18.000,16.999 L22.000,16.999 L22.000,11.999 L18.000,11.999 L18.000,16.999 ZM22.000,10.999 L22.000,5.999 L18.000,5.999 L18.000,10.999 L22.000,10.999 ZM12.000,21.999 L17.000,21.999 L17.000,17.999 L12.000,17.999 L12.000,21.999 ZM12.000,16.999 L17.000,16.999 L17.000,11.999 L12.000,11.999 L12.000,16.999 ZM17.000,10.999 L17.000,5.999 L12.000,5.999 L12.000,10.999 L17.000,10.999 ZM6.000,21.999 L11.000,21.999 L11.000,17.999 L6.000,17.999 L6.000,21.999 ZM6.000,16.999 L11.000,16.999 L11.000,11.999 L6.000,11.999 L6.000,16.999 ZM11.000,10.999 L11.000,5.999 L6.000,5.999 L6.000,10.999 L11.000,10.999 ZM1.000,20.999 C1.000,21.552 1.448,21.999 2.000,21.999 L5.000,21.999 L5.000,17.999 L1.000,17.999 L1.000,20.999 ZM1.000,16.999 L5.000,16.999 L5.000,11.999 L1.000,11.999 L1.000,16.999 ZM5.000,10.999 L5.000,5.999 L1.000,5.999 L1.000,10.999 L5.000,10.999 ZM2.000,0.999 C1.448,0.999 1.000,1.446 1.000,1.999 L1.000,4.999 L5.000,4.999 L5.000,0.999 L2.000,0.999 ZM6.000,0.999 L6.000,4.999 L11.000,4.999 L11.000,0.999 L6.000,0.999 ZM12.000,0.999 L12.000,4.999 L17.000,4.999 L17.000,0.999 L12.000,0.999 ZM21.000,0.999 L18.000,0.999 L18.000,4.999 L22.000,4.999 L22.000,1.999 C22.000,1.446 21.552,0.999 21.000,0.999 Z" class="cls-1"/>
</svg>
