<svg xmlns="http://www.w3.org/2000/svg" xmlns:xlink="http://www.w3.org/1999/xlink" preserveAspectRatio="xMidYMid" width="25" height="24" viewBox="0 0 25 24">
  <defs>
    <style>
      .cls-1 {
        fill: #3c4042;
        fill-rule: evenodd;
      }
    </style>
  </defs>
  <path d="M21.875,23.999 L3.125,23.999 C1.399,23.999 -0.000,22.621 -0.000,20.922 L-0.000,7.076 C-0.000,5.376 1.399,3.999 3.125,3.999 L6.009,3.999 C6.963,2.254 8.405,-0.001 9.500,-0.001 L15.500,-0.001 C16.595,-0.001 18.037,2.254 18.990,3.999 L21.875,3.999 C23.601,3.999 25.000,5.376 25.000,7.076 L25.000,20.922 C25.000,22.621 23.601,23.999 21.875,23.999 ZM1.000,12.998 L6.190,12.998 C6.361,12.277 6.648,11.603 7.036,10.998 L1.000,10.998 L1.000,12.998 ZM7.000,14.497 C7.000,17.535 9.462,19.997 12.500,19.997 C15.537,19.997 18.000,17.535 18.000,14.497 C18.000,11.459 15.537,8.997 12.500,8.997 C9.462,8.997 7.000,11.459 7.000,14.497 ZM15.484,0.999 L9.500,0.999 C9.054,1.094 8.101,2.353 7.153,3.999 L17.845,3.999 C16.901,2.361 15.948,1.108 15.484,0.999 ZM24.000,7.076 C24.000,5.931 23.047,4.999 21.875,4.999 L3.125,4.999 C1.953,4.999 1.000,5.931 1.000,7.076 L1.000,9.998 L7.824,9.998 C9.006,8.769 10.660,7.998 12.500,7.998 C14.340,7.998 15.993,8.769 17.176,9.998 L23.999,9.998 L23.999,10.998 L17.963,10.998 C18.352,11.603 18.638,12.277 18.809,12.998 L23.999,12.998 L23.999,13.997 L18.949,13.997 C18.962,14.165 19.000,14.326 19.000,14.497 C19.000,18.087 16.089,20.997 12.500,20.997 C8.910,20.997 6.000,18.087 6.000,14.497 C6.000,14.326 6.037,14.165 6.050,13.997 L1.000,13.997 L1.000,20.922 C1.000,22.067 1.953,23.000 3.125,23.000 L21.875,23.000 C23.047,23.000 24.000,22.067 24.000,20.922 L24.000,7.076 Z" class="cls-1"/>
</svg>
