<svg xmlns="http://www.w3.org/2000/svg" xmlns:xlink="http://www.w3.org/1999/xlink" preserveAspectRatio="xMidYMid" width="21.219" height="23" viewBox="0 0 21.219 23">
  <defs>
    <style>
      .cls-1 {
        fill: #3c4042;
        fill-rule: evenodd;
      }
    </style>
  </defs>
  <path d="M21.214,22.514 L20.337,23.012 L16.985,17.300 C15.643,17.747 14.211,17.999 12.719,17.999 C10.608,17.999 8.616,17.507 6.839,16.642 L3.100,23.012 L2.223,22.514 L5.949,16.167 C3.208,14.568 1.078,12.035 0.003,8.998 L1.067,8.998 C2.097,11.664 4.030,13.860 6.468,15.282 L9.874,9.479 C8.878,8.861 8.209,7.766 8.209,6.507 C8.209,4.739 9.521,3.291 11.220,3.051 L11.220,-0.002 L12.225,-0.002 L12.225,3.054 C13.912,3.305 15.211,4.748 15.211,6.507 C15.211,7.761 14.548,8.853 13.559,9.472 L17.433,16.072 C17.441,16.069 17.450,16.067 17.457,16.063 L17.980,16.935 C17.969,16.939 17.958,16.943 17.947,16.947 L21.214,22.514 ZM14.202,6.508 C14.202,5.126 13.086,4.006 11.708,4.006 C10.331,4.006 9.214,5.126 9.214,6.508 C9.214,7.890 10.331,9.011 11.708,9.011 C13.086,9.011 14.202,7.890 14.202,6.508 ZM12.627,9.875 C12.333,9.955 12.029,10.012 11.710,10.012 C11.396,10.012 11.098,9.957 10.808,9.880 L7.349,15.772 C8.977,16.552 10.793,16.999 12.719,16.999 C14.026,16.999 15.282,16.790 16.466,16.416 L12.627,9.875 Z" class="cls-1"/>
</svg>
