<svg xmlns="http://www.w3.org/2000/svg" xmlns:xlink="http://www.w3.org/1999/xlink" preserveAspectRatio="xMidYMid" width="25" height="22" viewBox="0 0 25 22">
  <defs>
    <style>
      .cls-1 {
        fill: #3c4042;
        fill-rule: evenodd;
      }
    </style>
  </defs>
  <path d="M23.437,21.997 L1.562,21.997 C0.699,21.997 -0.000,21.306 -0.000,20.452 L-0.000,6.542 C-0.000,5.690 0.699,4.999 1.562,4.999 L18.421,4.999 L2.353,0.983 C2.089,0.911 1.932,0.634 2.003,0.365 C2.073,0.096 2.345,-0.063 2.610,0.009 L22.579,4.999 L23.437,4.999 C24.300,4.999 25.000,5.690 25.000,6.542 L25.000,20.452 C25.000,21.306 24.300,21.997 23.437,21.997 ZM24.000,6.999 C24.000,6.447 23.552,5.999 23.000,5.999 L22.596,5.999 C22.576,6.002 22.556,5.999 22.535,5.999 L2.000,5.999 C1.447,5.999 1.000,6.447 1.000,6.999 L1.000,19.999 C1.000,20.551 1.447,20.999 2.000,20.999 L23.000,20.999 C23.552,20.999 24.000,20.551 24.000,19.999 L24.000,6.999 ZM16.500,18.997 C13.462,18.997 11.000,16.535 11.000,13.497 C11.000,10.460 13.462,7.997 16.500,7.997 C19.537,7.997 22.000,10.460 22.000,13.497 C22.000,16.535 19.537,18.997 16.500,18.997 ZM16.500,8.998 C14.014,8.998 12.000,11.012 12.000,13.497 C12.000,15.983 14.014,17.997 16.500,17.997 C18.985,17.997 21.000,15.983 21.000,13.497 C21.000,11.012 18.985,8.998 16.500,8.998 ZM8.500,16.998 L3.500,16.998 C3.224,16.998 3.000,16.775 3.000,16.499 C3.000,16.223 3.224,15.999 3.500,15.999 L8.500,15.999 C8.776,15.999 9.000,16.223 9.000,16.499 C9.000,16.775 8.776,16.998 8.500,16.998 ZM8.500,13.999 L3.500,13.999 C3.224,13.999 3.000,13.775 3.000,13.499 C3.000,13.223 3.224,12.999 3.500,12.999 L8.500,12.999 C8.776,12.999 9.000,13.223 9.000,13.499 C9.000,13.775 8.776,13.999 8.500,13.999 ZM8.500,10.999 L3.500,10.999 C3.224,10.999 3.000,10.775 3.000,10.499 C3.000,10.223 3.224,9.999 3.500,9.999 L8.500,9.999 C8.776,9.999 9.000,10.223 9.000,10.499 C9.000,10.775 8.776,10.999 8.500,10.999 Z" class="cls-1"/>
</svg>
