<svg xmlns="http://www.w3.org/2000/svg" xmlns:xlink="http://www.w3.org/1999/xlink" preserveAspectRatio="xMidYMid" width="21" height="25" viewBox="0 0 21 25">
  <defs>
    <style>
      .cls-1 {
        fill: #3c4042;
        fill-rule: evenodd;
      }
    </style>
  </defs>
  <path d="M12.000,24.998 L12.000,16.997 L9.000,16.997 L9.000,24.998 L-0.000,24.998 L-0.000,4.997 L2.000,4.997 L2.000,-0.003 L7.000,-0.003 L7.000,4.997 L9.000,4.997 L9.000,9.997 L12.000,9.997 L12.000,4.997 L14.000,4.997 L14.000,-0.003 L19.000,-0.003 L19.000,4.997 L21.000,4.997 L21.000,18.999 L21.000,19.998 L21.000,24.998 L12.000,24.998 ZM6.000,0.997 L3.000,0.997 L3.000,4.996 L6.000,4.996 L6.000,0.997 ZM8.000,5.997 L7.000,5.997 L7.000,5.998 L2.000,5.998 L2.000,5.997 L1.000,5.997 L1.000,18.999 L8.000,18.999 L8.000,5.997 ZM8.000,19.998 L1.000,19.998 L1.000,23.997 L8.000,23.997 L8.000,19.998 ZM12.000,10.998 L9.000,10.998 L9.000,15.997 L12.000,15.997 L12.000,10.998 ZM18.000,0.997 L15.000,0.997 L15.000,4.996 L18.000,4.996 L18.000,0.997 ZM20.000,5.997 L19.000,5.997 L19.000,5.998 L14.000,5.998 L14.000,5.997 L13.000,5.997 L13.000,18.999 L20.000,18.999 L20.000,5.997 ZM20.000,19.998 L13.000,19.998 L13.000,23.997 L20.000,23.997 L20.000,19.998 Z" class="cls-1"/>
</svg>
