<svg xmlns="http://www.w3.org/2000/svg" xmlns:xlink="http://www.w3.org/1999/xlink" preserveAspectRatio="xMidYMid" width="11" height="25" viewBox="0 0 11 25">
  <defs>
    <style>
      .cls-1 {
        fill: #3c4042;
        fill-rule: evenodd;
      }
    </style>
  </defs>
  <path d="M-0.000,24.998 L-0.000,-0.003 L11.000,-0.003 L11.000,4.997 L11.000,5.998 L11.000,9.998 L11.000,10.998 L11.000,14.998 L11.000,15.998 L11.000,19.998 L11.000,20.998 L11.000,24.998 L-0.000,24.998 ZM10.000,4.997 L10.000,0.997 L1.000,0.997 L1.000,23.998 L10.000,23.998 L10.000,20.998 L6.000,20.998 L6.000,19.998 L10.000,19.998 L10.000,15.998 L4.000,15.998 L4.000,14.998 L10.000,14.998 L10.000,10.998 L6.000,10.998 L6.000,9.998 L10.000,9.998 L10.000,5.998 L4.000,5.998 L4.000,4.997 L10.000,4.997 Z" class="cls-1"/>
</svg>
