<svg xmlns="http://www.w3.org/2000/svg" xmlns:xlink="http://www.w3.org/1999/xlink" preserveAspectRatio="xMidYMid" width="25" height="23" viewBox="0 0 25 23">
  <defs>
    <style>
      .cls-1 {
        fill: #3c4042;
        fill-rule: evenodd;
      }
    </style>
  </defs>
  <path d="M23.437,23.000 L1.562,23.000 C0.699,23.000 -0.000,22.290 -0.000,21.415 L-0.000,5.582 C-0.000,4.708 0.699,3.999 1.562,3.999 L5.571,3.999 L6.600,1.749 C6.600,1.749 7.316,-0.001 8.200,-0.001 L16.800,-0.001 C17.683,-0.001 18.399,1.749 18.399,1.749 L19.428,3.999 L23.437,3.999 C24.301,3.999 25.000,4.708 25.000,5.582 L25.000,21.415 C25.000,22.290 24.301,23.000 23.437,23.000 ZM17.490,2.165 C17.282,1.665 16.927,1.126 16.733,0.999 L8.266,0.999 C8.073,1.128 7.712,1.672 7.525,2.128 L6.671,3.999 L18.329,3.999 L17.490,2.165 ZM24.000,5.582 C24.000,5.261 23.747,4.999 23.437,4.999 L1.562,4.999 C1.252,4.999 1.000,5.261 1.000,5.582 L1.000,21.415 C1.000,21.738 1.252,22.000 1.562,22.000 L23.437,22.000 C23.747,22.000 24.000,21.738 24.000,21.415 L24.000,5.582 ZM12.500,19.997 C8.910,19.997 6.000,17.087 6.000,13.497 C6.000,9.907 8.910,6.997 12.500,6.997 C16.090,6.997 19.000,9.907 19.000,13.497 C19.000,17.087 16.090,19.997 12.500,19.997 ZM12.500,7.996 C9.462,7.996 7.000,10.459 7.000,13.497 C7.000,16.534 9.462,18.997 12.500,18.997 C15.537,18.997 18.000,16.534 18.000,13.497 C18.000,10.459 15.537,7.996 12.500,7.996 Z" class="cls-1"/>
</svg>
