<svg xmlns="http://www.w3.org/2000/svg" xmlns:xlink="http://www.w3.org/1999/xlink" preserveAspectRatio="xMidYMid" width="19" height="25" viewBox="0 0 19 25">
  <defs>
    <style>
      .cls-1 {
        fill: #3c4042;
        fill-rule: evenodd;
      }
    </style>
  </defs>
  <path d="M14.250,24.997 L4.750,24.997 C2.126,24.997 -0.000,22.899 -0.000,20.310 L-0.000,4.685 C-0.000,2.096 2.126,-0.002 4.750,-0.002 L14.250,-0.002 C16.873,-0.002 19.000,2.096 19.000,4.685 L19.000,20.310 C19.000,22.899 16.873,24.997 14.250,24.997 ZM18.000,4.999 C18.000,2.790 16.209,0.999 14.000,0.999 L5.000,0.999 C2.791,0.999 1.000,2.790 1.000,4.999 L1.000,19.999 C1.000,22.209 2.791,23.999 5.000,23.999 L14.000,23.999 C16.209,23.999 18.000,22.209 18.000,19.999 L18.000,4.999 ZM6.000,2.999 L13.000,2.999 L13.000,3.999 L6.000,3.999 L6.000,2.999 ZM9.500,18.998 C10.323,18.998 10.990,19.670 10.990,20.497 C10.990,21.326 10.323,21.997 9.500,21.997 C8.677,21.997 8.009,21.326 8.009,20.497 C8.009,19.670 8.677,18.998 9.500,18.998 Z" class="cls-1"/>
</svg>
