<svg xmlns="http://www.w3.org/2000/svg" xmlns:xlink="http://www.w3.org/1999/xlink" preserveAspectRatio="xMidYMid" width="22" height="22" viewBox="0 0 22 22">
  <defs>
    <style>
      .cls-1 {
        fill: #3c4042;
        fill-rule: evenodd;
      }
    </style>
  </defs>
  <path d="M21.849,10.677 C21.656,10.870 21.343,10.870 21.150,10.677 L16.612,6.139 L14.517,8.233 L19.056,12.772 C19.249,12.964 19.249,13.277 19.056,13.470 C18.863,13.663 18.550,13.663 18.358,13.470 L13.819,8.931 L11.725,11.026 L16.263,15.564 C16.456,15.757 16.456,16.070 16.263,16.263 C16.070,16.455 15.758,16.455 15.565,16.263 L11.027,11.724 L8.932,13.818 L13.470,18.357 C13.663,18.550 13.663,18.862 13.470,19.055 C13.278,19.248 12.965,19.248 12.772,19.055 L8.234,14.517 L6.139,16.611 L10.678,21.150 C10.870,21.342 10.870,21.655 10.678,21.848 C10.485,22.041 10.172,22.041 9.980,21.848 L5.441,17.309 L4.743,18.007 C3.972,18.779 2.722,18.779 1.950,18.007 L0.554,16.611 C-0.217,15.840 -0.217,14.590 0.554,13.818 L13.819,0.553 C14.591,-0.218 15.841,-0.218 16.612,0.553 L18.009,1.950 C18.780,2.721 18.780,3.971 18.009,4.743 L17.310,5.440 L21.849,9.978 C22.041,10.171 22.041,10.484 21.849,10.677 ZM17.310,2.647 L15.914,1.252 C15.528,0.866 14.903,0.866 14.518,1.252 L1.252,14.517 C0.867,14.902 0.867,15.527 1.252,15.913 L2.649,17.310 C3.034,17.695 3.659,17.695 4.045,17.310 L17.310,4.044 C17.696,3.659 17.696,3.033 17.310,2.647 Z" class="cls-1"/>
</svg>
