<svg xmlns="http://www.w3.org/2000/svg" xmlns:xlink="http://www.w3.org/1999/xlink" preserveAspectRatio="xMidYMid" width="25" height="22" viewBox="0 0 25 22">
  <defs>
    <style>
      .cls-1 {
        fill: #3c4042;
        fill-rule: evenodd;
      }
    </style>
  </defs>
  <path d="M25.000,14.999 L24.962,14.999 C24.972,15.083 25.000,15.162 25.000,15.247 L25.000,19.748 C25.000,20.991 23.992,21.997 22.750,21.997 L21.250,21.997 C20.007,21.997 19.000,20.991 19.000,19.748 L19.000,15.247 C19.000,14.005 20.007,12.997 21.250,12.997 L22.750,12.997 C22.837,12.997 22.916,13.024 23.000,13.034 L23.000,12.999 L23.963,12.999 C23.979,12.833 24.000,12.668 24.000,12.498 C24.000,6.146 18.851,0.997 12.500,0.997 C6.148,0.997 1.000,6.146 1.000,12.498 C1.000,12.668 1.020,12.833 1.036,12.999 L2.000,12.999 L2.000,13.034 C2.084,13.024 2.163,12.997 2.250,12.997 L3.750,12.997 C4.992,12.997 6.000,14.005 6.000,15.247 L6.000,19.748 C6.000,20.991 4.992,21.997 3.750,21.997 L2.250,21.997 C1.007,21.997 -0.000,20.991 -0.000,19.748 L-0.000,15.247 C-0.000,15.162 0.028,15.083 0.037,14.999 L-0.000,14.999 L-0.000,12.999 L0.033,12.999 C0.025,12.831 -0.000,12.668 -0.000,12.498 C-0.000,5.594 5.596,-0.002 12.500,-0.002 C19.403,-0.002 25.000,5.594 25.000,12.498 C25.000,12.668 24.975,12.831 24.967,12.999 L25.000,12.999 L25.000,14.999 ZM1.000,19.999 C1.000,20.552 1.448,20.999 2.000,20.999 L4.000,20.999 C4.552,20.999 5.000,20.552 5.000,19.999 L5.000,14.999 C5.000,14.447 4.552,13.999 4.000,13.999 L2.000,13.999 L2.000,13.999 L1.000,13.999 L1.000,14.999 L1.000,14.999 L1.000,19.999 ZM24.000,13.999 L23.000,13.999 L23.000,13.999 L21.000,13.999 C20.448,13.999 20.000,14.447 20.000,14.999 L20.000,19.999 C20.000,20.552 20.448,20.999 21.000,20.999 L23.000,20.999 C23.552,20.999 24.000,20.552 24.000,19.999 L24.000,15.999 L24.000,15.999 L24.000,13.999 Z" class="cls-1"/>
</svg>
