<svg xmlns="http://www.w3.org/2000/svg" xmlns:xlink="http://www.w3.org/1999/xlink" preserveAspectRatio="xMidYMid" width="25" height="21" viewBox="0 0 25 21">
  <defs>
    <style>
      .cls-1 {
        fill: #3c4042;
        fill-rule: evenodd;
      }
    </style>
  </defs>
  <path d="M21.876,20.999 L9.001,20.999 L8.001,20.999 L3.127,20.999 C1.401,20.999 0.001,19.592 0.001,17.856 L0.001,3.142 C0.001,1.407 1.401,-0.001 3.127,-0.001 L8.001,-0.001 L9.001,-0.001 L21.876,-0.001 C23.602,-0.001 25.001,1.407 25.001,3.142 L25.001,17.856 C25.001,19.592 23.602,20.999 21.876,20.999 ZM8.001,0.999 L3.000,0.999 C1.895,0.999 1.000,1.894 1.000,2.999 L1.000,17.999 C1.000,19.104 1.895,19.999 3.000,19.999 L8.001,19.999 L8.001,0.999 ZM24.000,2.999 C24.000,1.894 23.104,0.999 22.000,0.999 L9.001,0.999 L9.001,19.999 L22.000,19.999 C23.104,19.999 24.000,19.104 24.000,17.999 L24.000,2.999 ZM4.501,8.991 C5.330,8.991 6.001,9.666 6.001,10.499 C6.001,11.332 5.330,12.007 4.501,12.007 C3.673,12.007 3.002,11.332 3.002,10.499 C3.002,9.666 3.673,8.991 4.501,8.991 Z" class="cls-1"/>
</svg>
