<svg xmlns="http://www.w3.org/2000/svg" xmlns:xlink="http://www.w3.org/1999/xlink" preserveAspectRatio="xMidYMid" width="25" height="20" viewBox="0 0 25 20">
  <defs>
    <style>
      .cls-1 {
        fill: #3c4042;
        fill-rule: evenodd;
      }
    </style>
  </defs>
  <path d="M19.500,19.998 C16.632,19.998 14.303,17.797 14.050,14.999 L10.950,14.999 C10.696,17.797 8.368,19.998 5.500,19.998 C2.462,19.998 -0.000,17.539 -0.000,14.505 C-0.000,11.471 2.462,9.010 5.500,9.010 C5.709,9.010 5.907,9.050 6.110,9.072 L3.204,3.999 L0.500,3.999 C0.224,3.999 -0.000,3.775 -0.000,3.499 C-0.000,3.224 0.224,2.998 0.500,2.998 L3.500,2.998 C3.535,2.998 3.566,3.012 3.599,3.019 C3.614,3.022 3.628,3.023 3.643,3.028 C3.692,3.042 3.735,3.065 3.776,3.093 C3.788,3.101 3.800,3.108 3.812,3.117 C3.851,3.149 3.883,3.188 3.911,3.231 C3.917,3.240 3.927,3.246 3.933,3.256 L7.442,9.380 C8.015,9.598 8.536,9.914 9.000,10.296 L15.740,3.557 L15.088,0.999 L11.500,0.999 C11.224,0.999 11.000,0.775 11.000,0.500 C11.000,0.223 11.224,-0.001 11.500,-0.001 L15.391,-0.001 C15.482,-0.017 15.569,-0.004 15.649,0.029 C15.851,0.093 16.000,0.276 16.000,0.500 C16.000,0.514 15.992,0.528 15.991,0.543 L16.622,3.020 C16.704,3.040 16.790,3.052 16.854,3.116 C17.039,3.301 17.039,3.602 16.854,3.788 L16.825,3.816 L18.194,9.183 C18.614,9.081 19.047,9.010 19.500,9.010 C22.537,9.010 25.000,11.471 25.000,14.505 C25.000,17.539 22.537,19.998 19.500,19.998 ZM5.500,9.984 C3.014,9.984 1.000,12.001 1.000,14.487 C1.000,16.974 3.014,18.989 5.500,18.989 C7.810,18.989 9.691,17.241 9.948,14.999 L5.500,14.999 C5.224,14.999 5.000,14.775 5.000,14.499 C5.000,14.223 5.224,14.000 5.500,14.000 L9.951,14.000 C9.704,11.745 7.818,9.984 5.500,9.984 ZM16.013,4.628 L9.676,10.966 C10.390,11.798 10.843,12.846 10.953,14.000 L14.037,14.000 C14.224,11.987 15.487,10.292 17.255,9.499 L16.013,4.628 ZM19.500,9.984 C17.014,9.984 15.000,12.001 15.000,14.487 C15.000,16.974 17.014,18.989 19.500,18.989 C21.985,18.989 24.000,16.974 24.000,14.487 C24.000,12.001 21.985,9.984 19.500,9.984 Z" class="cls-1"/>
</svg>
