<svg xmlns="http://www.w3.org/2000/svg" xmlns:xlink="http://www.w3.org/1999/xlink" preserveAspectRatio="xMidYMid" width="25" height="24" viewBox="0 0 25 24">
  <defs>
    <style>
      .cls-1 {
        fill: #3c4042;
        fill-rule: evenodd;
      }
    </style>
  </defs>
  <path d="M25.000,21.997 L22.000,21.997 L22.000,23.498 C22.000,23.775 21.776,23.999 21.500,23.999 C21.224,23.999 21.000,23.775 21.000,23.498 L21.000,21.997 L4.000,21.997 L4.000,23.498 C4.000,23.775 3.776,23.999 3.500,23.999 C3.224,23.999 3.000,23.775 3.000,23.498 L3.000,21.997 L-0.000,21.997 L-0.000,18.998 L0.014,18.998 C0.012,18.949 -0.000,18.903 -0.000,18.854 L-0.000,14.140 C-0.000,12.717 0.947,11.529 2.237,11.142 L3.500,4.634 C3.500,2.075 5.514,-0.001 8.000,-0.001 L17.000,-0.001 C19.485,-0.001 21.500,2.075 21.500,4.634 L22.763,11.142 C24.053,11.529 25.000,12.717 25.000,14.140 L25.000,18.854 C25.000,18.903 24.987,18.949 24.985,18.998 L25.000,18.998 L25.000,21.997 ZM20.518,4.826 L20.500,4.731 L20.500,4.634 C20.500,2.630 18.930,0.999 17.000,0.999 L8.000,0.999 C6.070,0.999 4.500,2.630 4.500,4.634 L4.500,4.731 L4.481,4.826 L3.283,10.998 L21.716,10.998 L20.518,4.826 ZM24.000,18.999 L24.000,13.999 C24.000,12.894 23.104,12.000 22.000,12.000 L3.000,12.000 C1.895,12.000 1.000,12.894 1.000,13.999 L1.000,18.999 L1.000,20.999 L1.750,20.999 L1.750,21.000 L22.750,21.000 L22.750,20.999 L24.000,20.999 L24.000,18.999 ZM19.500,18.998 C18.119,18.998 17.000,17.878 17.000,16.498 C17.000,15.116 18.119,13.997 19.500,13.997 C20.881,13.997 22.000,15.116 22.000,16.498 C22.000,17.878 20.881,18.998 19.500,18.998 ZM19.500,14.995 C18.671,14.995 18.000,15.668 18.000,16.496 C18.000,17.324 18.671,17.997 19.500,17.997 C20.328,17.997 21.000,17.324 21.000,16.496 C21.000,15.668 20.328,14.995 19.500,14.995 ZM5.500,18.998 C4.119,18.998 3.000,17.878 3.000,16.498 C3.000,15.116 4.119,13.997 5.500,13.997 C6.880,13.997 8.000,15.116 8.000,16.498 C8.000,17.878 6.880,18.998 5.500,18.998 ZM5.500,14.995 C4.671,14.995 4.000,15.668 4.000,16.496 C4.000,17.324 4.671,17.997 5.500,17.997 C6.328,17.997 7.000,17.324 7.000,16.496 C7.000,15.668 6.328,14.995 5.500,14.995 Z" class="cls-1"/>
</svg>
