<svg xmlns="http://www.w3.org/2000/svg" xmlns:xlink="http://www.w3.org/1999/xlink" preserveAspectRatio="xMidYMid" width="25" height="25" viewBox="0 0 25 25">
  <defs>
    <style>
      .cls-1 {
        fill: #3c4042;
        fill-rule: evenodd;
      }
    </style>
  </defs>
  <path d="M24.000,15.619 L24.000,18.856 C24.000,20.187 23.169,21.319 22.000,21.777 L22.000,23.499 C22.000,24.327 21.403,24.998 20.666,24.998 L19.333,24.998 C18.597,24.998 18.000,24.327 18.000,23.499 L18.000,21.999 L7.000,21.999 L7.000,23.499 C7.000,24.327 6.403,24.998 5.666,24.998 L4.333,24.998 C3.597,24.998 3.000,24.327 3.000,23.499 L3.000,21.777 C1.831,21.319 1.000,20.187 1.000,18.856 L1.000,15.619 C0.385,14.916 -0.000,14.006 -0.000,12.999 C-0.000,11.522 0.809,10.246 2.000,9.553 L2.000,7.999 C2.000,3.581 5.581,-0.001 10.000,-0.001 L15.000,-0.001 C19.418,-0.001 23.000,3.581 23.000,7.999 L23.000,9.553 C24.190,10.246 25.000,11.522 25.000,12.999 C25.000,14.006 24.615,14.916 24.000,15.619 ZM19.000,23.248 C19.000,23.663 19.448,23.999 20.000,23.999 C20.552,23.999 21.000,23.663 21.000,23.248 L21.000,21.984 C20.951,21.987 20.906,21.999 20.857,21.999 L19.000,21.999 L19.000,23.248 ZM4.000,23.248 C4.000,23.663 4.447,23.999 5.000,23.999 C5.552,23.999 6.000,23.663 6.000,23.248 L6.000,21.999 L4.143,21.999 C4.094,21.999 4.048,21.987 4.000,21.984 L4.000,23.248 ZM2.000,19.198 C2.000,20.193 2.709,20.998 3.583,20.998 L20.416,20.998 C21.291,20.998 23.000,20.193 23.000,19.198 L23.000,18.999 L2.000,18.999 L2.000,19.198 ZM2.000,17.999 L23.000,17.999 L23.000,16.444 C22.409,16.788 21.732,16.999 21.000,16.999 C18.791,16.999 17.000,15.208 17.000,12.999 C17.000,12.651 17.058,12.320 17.141,11.998 L7.858,11.998 C7.942,12.320 8.000,12.651 8.000,12.999 C8.000,15.208 6.209,16.999 4.000,16.999 C3.267,16.999 2.590,16.788 2.000,16.444 L2.000,17.999 ZM1.000,12.999 C1.000,14.655 2.343,15.999 4.000,15.999 C5.657,15.999 7.000,14.655 7.000,12.999 C7.000,11.341 5.657,9.998 4.000,9.998 C2.343,9.998 1.000,11.341 1.000,12.999 ZM22.000,7.999 C22.000,4.133 18.866,0.999 15.000,0.999 L10.000,0.999 C6.134,0.999 3.000,4.133 3.000,7.999 L3.000,9.140 C3.321,9.057 3.652,8.999 4.000,8.999 C5.476,8.999 6.752,9.808 7.445,10.998 L17.555,10.998 C18.248,9.808 19.523,8.999 21.000,8.999 C21.347,8.999 21.678,9.057 22.000,9.140 L22.000,7.999 ZM21.000,9.998 C19.343,9.998 18.000,11.341 18.000,12.999 C18.000,14.655 19.343,15.999 21.000,15.999 C22.657,15.999 24.000,14.655 24.000,12.999 C24.000,11.341 22.657,9.998 21.000,9.998 Z" class="cls-1"/>
</svg>
