<svg xmlns="http://www.w3.org/2000/svg" xmlns:xlink="http://www.w3.org/1999/xlink" preserveAspectRatio="xMidYMid" width="25" height="18" viewBox="0 0 25 18">
  <defs>
    <style>
      .cls-1 {
        fill: #3c4042;
        fill-rule: evenodd;
      }
    </style>
  </defs>
  <path d="M24.214,14.008 L19.951,14.008 C19.973,14.168 20.000,14.328 20.000,14.495 C20.000,16.430 18.433,17.999 16.500,17.999 C14.567,17.999 13.000,16.430 13.000,14.495 C13.000,14.328 13.026,14.168 13.049,14.007 L8.951,14.007 C8.973,14.168 9.000,14.328 9.000,14.495 C9.000,16.430 7.433,17.999 5.500,17.999 C3.567,17.999 2.000,16.430 2.000,14.495 C2.000,14.328 2.026,14.168 2.049,14.007 L1.545,14.007 C0.692,14.007 -0.000,13.310 -0.000,12.450 L-0.000,1.555 C-0.000,0.695 0.692,-0.002 1.545,-0.002 L15.454,-0.002 C16.308,-0.002 17.000,0.695 17.000,1.555 L17.000,2.999 L24.214,2.999 C24.648,2.999 25.000,3.351 25.000,3.785 L25.000,8.004 L25.000,8.989 L25.000,13.220 C25.000,13.655 24.648,14.008 24.214,14.008 ZM5.500,16.990 C6.880,16.990 8.000,15.873 8.000,14.495 C8.000,13.116 6.880,11.999 5.500,11.999 C4.119,11.999 3.000,13.116 3.000,14.495 C3.000,15.873 4.119,16.990 5.500,16.990 ZM16.000,1.999 C16.000,1.447 15.552,0.999 15.000,0.999 L2.000,0.999 C1.448,0.999 1.000,1.447 1.000,1.999 L1.000,11.999 C1.000,12.552 1.448,12.999 2.000,12.999 L2.346,12.999 C2.908,11.815 4.104,10.991 5.500,10.991 C6.896,10.991 8.091,11.815 8.653,12.999 L13.346,12.999 C13.839,11.961 14.822,11.212 16.000,11.042 L16.000,1.999 ZM16.500,11.999 C15.119,11.999 14.000,13.116 14.000,14.495 C14.000,15.873 15.119,16.990 16.500,16.990 C17.880,16.990 19.000,15.873 19.000,14.495 C19.000,13.116 17.880,11.999 16.500,11.999 ZM24.000,4.007 L17.000,4.007 L17.000,8.004 L24.000,8.004 L24.000,4.007 ZM24.000,8.989 L17.000,8.989 L17.000,11.042 C18.171,11.211 19.148,11.952 19.644,12.982 L24.000,12.982 L24.000,8.989 Z" class="cls-1"/>
</svg>
