<svg xmlns="http://www.w3.org/2000/svg" xmlns:xlink="http://www.w3.org/1999/xlink" preserveAspectRatio="xMidYMid" width="22.06" height="25" viewBox="0 0 22.06 25">
  <defs>
    <style>
      .cls-1 {
        fill: #3c4042;
        fill-rule: evenodd;
      }
    </style>
  </defs>
  <path d="M22.049,20.999 L22.049,21.999 L20.030,21.999 L20.030,24.499 C20.030,24.775 19.806,24.999 19.530,24.999 C19.254,24.999 19.030,24.775 19.030,24.499 L19.030,21.999 L3.030,21.999 L3.030,24.499 C3.030,24.775 2.806,24.999 2.530,24.999 C2.254,24.999 2.030,24.775 2.030,24.499 L2.030,21.999 L0.011,21.999 L0.011,20.999 L0.809,20.999 C0.809,20.998 0.809,20.998 0.809,20.998 L0.030,20.998 L0.030,18.999 C0.030,18.999 0.030,18.999 0.030,18.998 C0.030,18.998 0.030,18.998 0.030,18.998 L0.030,16.999 L0.030,16.999 L0.030,15.999 L0.030,15.999 L0.030,15.999 L0.142,15.999 C0.076,15.827 0.030,15.646 0.030,15.453 L0.030,6.999 L0.030,5.998 L0.030,1.544 C0.030,0.690 0.733,-0.002 1.601,-0.002 L20.458,-0.002 C21.326,-0.002 22.030,0.690 22.030,1.544 L22.030,5.998 L22.030,6.999 L22.030,15.453 C22.030,15.646 21.984,15.827 21.918,15.999 L22.030,15.999 L22.030,15.999 L22.030,16.999 L22.030,18.956 C22.030,18.970 22.034,18.984 22.034,18.998 C22.034,19.013 22.030,19.026 22.030,19.041 L22.030,20.999 L22.049,20.999 ZM19.033,20.998 C20.132,20.998 21.024,20.103 21.024,18.998 C21.024,17.893 20.132,16.998 19.033,16.998 C17.933,16.998 17.041,17.893 17.041,18.998 C17.041,20.103 17.933,20.998 19.033,20.998 ZM5.255,20.999 L16.809,20.999 C16.330,20.466 16.030,19.770 16.030,18.998 C16.030,18.226 16.330,17.530 16.810,16.997 L5.254,16.997 C5.734,17.530 6.034,18.226 6.034,18.998 C6.034,19.770 5.734,20.466 5.255,20.999 ZM3.033,20.998 C4.132,20.998 5.024,20.103 5.024,18.998 C5.024,17.893 4.132,16.998 3.033,16.998 C1.933,16.998 1.041,17.893 1.041,18.998 C1.041,20.103 1.933,20.998 3.033,20.998 ZM21.030,1.999 C21.030,1.446 20.582,1.000 20.030,1.000 L2.030,1.000 C1.477,1.000 1.030,1.446 1.030,1.999 L1.030,5.998 L21.030,5.998 L21.030,1.999 ZM21.030,6.999 L1.030,6.999 L1.030,14.999 C1.030,15.015 1.038,15.029 1.039,15.045 L1.039,15.999 L2.026,15.999 C2.027,15.999 2.029,15.999 2.030,15.999 L20.030,15.999 C20.031,15.999 20.032,15.999 20.034,15.999 L21.020,15.999 L21.020,15.047 C21.021,15.030 21.030,15.016 21.030,14.999 L21.030,6.999 ZM14.017,3.999 L8.042,3.999 L8.042,2.998 L14.017,2.998 L14.017,3.999 Z" class="cls-1"/>
</svg>
