<svg xmlns="http://www.w3.org/2000/svg" xmlns:xlink="http://www.w3.org/1999/xlink" preserveAspectRatio="xMidYMid" width="25" height="25" viewBox="0 0 25 25">
  <defs>
    <style>
      .cls-1 {
        fill: #3c4042;
        fill-rule: evenodd;
      }
    </style>
  </defs>
  <path d="M22.000,21.986 L22.000,22.999 C22.000,24.104 21.104,24.999 20.000,24.999 L19.000,24.999 C17.895,24.999 17.000,24.104 17.000,22.999 L17.000,21.998 L8.000,21.998 L8.000,22.999 C8.000,24.104 7.104,24.999 6.000,24.999 L5.000,24.999 C3.895,24.999 3.000,24.104 3.000,22.999 L3.000,21.986 C1.333,21.919 -0.000,20.548 -0.000,18.856 L-0.000,14.999 L-0.000,13.999 L-0.000,5.999 L-0.000,4.999 L-0.000,3.142 C-0.000,1.405 1.399,-0.001 3.125,-0.001 L21.875,-0.001 C23.601,-0.001 25.000,1.405 25.000,3.142 L25.000,4.999 L25.000,5.999 L25.000,13.999 L25.000,14.999 L25.000,18.856 C25.000,20.548 23.666,21.919 22.000,21.986 ZM18.000,22.999 C18.000,23.551 18.448,23.999 19.000,23.999 L20.000,23.999 C20.552,23.999 21.000,23.551 21.000,22.999 L21.000,21.998 L18.000,21.998 L18.000,22.999 ZM4.000,22.999 C4.000,23.551 4.448,23.999 5.000,23.999 L6.000,23.999 C6.552,23.999 7.000,23.551 7.000,22.999 L7.000,21.998 L4.000,21.998 L4.000,22.999 ZM1.000,13.999 L5.000,13.999 L5.000,5.999 L1.000,5.999 L1.000,13.999 ZM24.000,2.999 C24.000,1.895 23.104,0.999 22.000,0.999 L3.000,0.999 C1.895,0.999 1.000,1.895 1.000,2.999 L1.000,4.999 L5.000,4.999 L5.000,4.999 L6.000,4.999 L6.000,4.999 L12.000,4.999 L12.000,4.999 L13.000,4.999 L13.000,4.999 L19.000,4.999 L19.000,4.999 L20.000,4.999 L20.000,4.999 L24.000,4.999 L24.000,2.999 ZM6.000,5.999 L6.000,13.999 L12.000,13.999 L12.000,5.999 L6.000,5.999 ZM13.000,5.999 L13.000,13.999 L19.000,13.999 L19.000,5.999 L13.000,5.999 ZM24.000,5.999 L20.000,5.999 L20.000,13.999 L24.000,13.999 L24.000,5.999 ZM24.000,14.999 L1.000,14.999 L1.000,18.999 C1.000,20.103 1.895,20.999 3.000,20.999 L22.000,20.999 C23.104,20.999 24.000,20.103 24.000,18.999 L24.000,14.999 Z" class="cls-1"/>
</svg>
