<svg xmlns="http://www.w3.org/2000/svg" xmlns:xlink="http://www.w3.org/1999/xlink" preserveAspectRatio="xMidYMid" width="25" height="17" viewBox="0 0 25 17">
  <defs>
    <style>
      .cls-1 {
        fill: #3c4042;
        fill-rule: evenodd;
      }
    </style>
  </defs>
  <path d="M19.500,16.999 C16.635,16.999 14.308,14.799 14.051,12.000 L10.949,12.000 C10.691,14.799 8.365,16.999 5.500,16.999 C2.462,16.999 -0.000,14.535 -0.000,11.496 C-0.000,8.456 2.462,5.993 5.500,5.993 C5.521,5.993 5.541,5.999 5.562,5.999 L8.000,5.999 L8.000,2.999 L6.500,2.999 C6.224,2.999 6.000,2.775 6.000,2.499 C6.000,2.223 6.224,1.998 6.500,1.998 L10.500,1.998 C10.776,1.998 11.000,2.223 11.000,2.499 C11.000,2.775 10.776,2.999 10.500,2.999 L9.000,2.999 L9.000,5.999 L18.363,5.999 L17.088,1.000 L13.500,1.000 C13.224,1.000 13.000,0.775 13.000,0.499 C13.000,0.223 13.224,-0.001 13.500,-0.001 L17.385,-0.001 C17.478,-0.018 17.568,-0.005 17.651,0.030 C17.674,0.037 17.696,0.043 17.717,0.053 C17.717,0.054 17.717,0.054 17.717,0.054 C17.883,0.135 18.000,0.302 18.000,0.499 C18.000,0.514 17.992,0.528 17.991,0.543 L19.382,5.999 L19.437,5.999 C19.459,5.999 19.478,5.993 19.500,5.993 C22.537,5.993 25.000,8.456 25.000,11.496 C25.000,14.535 22.537,16.999 19.500,16.999 ZM5.500,7.008 C3.014,7.008 1.000,9.017 1.000,11.495 C1.000,13.973 3.014,15.981 5.500,15.981 C7.812,15.981 9.695,14.236 9.949,12.000 L5.500,12.000 C5.224,12.000 5.000,11.775 5.000,11.499 C5.000,11.223 5.224,10.999 5.500,10.999 L9.950,10.999 C9.699,8.758 7.815,7.008 5.500,7.008 ZM8.626,6.999 C9.911,7.905 10.799,9.340 10.950,10.999 L14.050,10.999 C14.201,9.340 15.088,7.905 16.373,6.999 L8.626,6.999 ZM19.643,7.023 L21.004,12.363 C21.075,12.638 20.919,12.922 20.656,12.997 C20.394,13.070 20.124,12.906 20.053,12.631 L18.642,7.094 C16.568,7.494 15.000,9.310 15.000,11.495 C15.000,13.973 17.014,15.981 19.500,15.981 C21.985,15.981 24.000,13.973 24.000,11.495 C24.000,9.066 22.060,7.100 19.643,7.023 Z" class="cls-1"/>
</svg>
