<svg xmlns="http://www.w3.org/2000/svg" xmlns:xlink="http://www.w3.org/1999/xlink" preserveAspectRatio="xMidYMid" width="25" height="25" viewBox="0 0 25 25">
  <defs>
    <style>
      .cls-1 {
        fill: #3c4042;
        fill-rule: evenodd;
      }
    </style>
  </defs>
  <path d="M25.000,21.997 L23.000,21.997 L23.000,23.499 C23.000,24.326 22.254,24.998 21.333,24.998 L20.666,24.998 C19.746,24.998 19.000,24.326 19.000,23.499 L19.000,21.997 L6.000,21.997 L6.000,23.499 C6.000,24.326 5.254,24.998 4.333,24.998 L3.666,24.998 C2.746,24.998 2.000,24.326 2.000,23.499 L2.000,21.997 L-0.000,21.997 L-0.000,18.997 L0.022,18.997 C0.020,18.948 -0.000,18.904 -0.000,18.854 L-0.000,14.140 C-0.000,12.717 0.947,11.529 2.237,11.141 L3.500,4.635 C3.500,2.074 5.514,-0.001 8.000,-0.001 L17.000,-0.001 C19.485,-0.001 21.500,2.074 21.500,4.635 L22.763,11.141 C24.053,11.529 25.000,12.717 25.000,14.140 L25.000,18.854 C25.000,18.904 24.980,18.948 24.978,18.997 L25.000,18.997 L25.000,21.997 ZM20.000,22.999 C20.000,23.552 20.448,23.999 21.000,23.999 C21.552,23.999 22.000,23.552 22.000,22.999 L22.000,21.997 L21.875,21.997 L20.000,21.997 L20.000,22.999 ZM3.000,22.999 C3.000,23.552 3.448,23.999 4.000,23.999 C4.552,23.999 5.000,23.552 5.000,22.999 L5.000,21.997 L3.125,21.997 L3.000,21.997 L3.000,22.999 ZM20.518,4.825 L20.500,4.731 L20.500,4.635 C20.500,2.631 18.930,0.999 17.000,0.999 L8.000,0.999 C6.070,0.999 4.500,2.631 4.500,4.635 L4.500,4.731 L4.481,4.825 L3.284,10.997 L21.716,10.997 L20.518,4.825 ZM24.000,18.999 L24.000,13.999 C24.000,12.895 23.104,11.999 22.000,11.999 L3.000,11.999 C1.895,11.999 1.000,12.895 1.000,13.999 L1.000,18.999 L1.000,20.999 L3.000,20.999 L22.000,20.999 L24.000,20.999 L24.000,18.999 ZM19.500,18.997 C18.119,18.997 17.000,17.879 17.000,16.498 C17.000,15.116 18.119,13.997 19.500,13.997 C20.880,13.997 22.000,15.116 22.000,16.498 C22.000,17.879 20.880,18.997 19.500,18.997 ZM19.500,14.996 C18.671,14.996 18.000,15.668 18.000,16.497 C18.000,17.324 18.671,17.996 19.500,17.996 C20.328,17.996 21.000,17.324 21.000,16.497 C21.000,15.668 20.328,14.996 19.500,14.996 ZM5.500,18.997 C4.119,18.997 3.000,17.879 3.000,16.498 C3.000,15.116 4.119,13.997 5.500,13.997 C6.880,13.997 8.000,15.116 8.000,16.498 C8.000,17.879 6.880,18.997 5.500,18.997 ZM5.500,14.996 C4.671,14.996 4.000,15.668 4.000,16.497 C4.000,17.324 4.671,17.996 5.500,17.996 C6.328,17.996 7.000,17.324 7.000,16.497 C7.000,15.668 6.328,14.996 5.500,14.996 Z" class="cls-1"/>
</svg>
