<svg xmlns="http://www.w3.org/2000/svg" xmlns:xlink="http://www.w3.org/1999/xlink" preserveAspectRatio="xMidYMid" width="25" height="25" viewBox="0 0 25 25">
  <defs>
    <style>
      .cls-1 {
        fill: #3c4042;
        fill-rule: evenodd;
      }
    </style>
  </defs>
  <path d="M-0.000,24.999 L-0.000,23.999 L25.000,23.999 L25.000,24.999 L-0.000,24.999 ZM2.000,20.998 L23.000,20.998 L23.000,21.999 L2.000,21.999 L2.000,20.998 ZM19.000,18.998 L19.000,18.998 L19.000,18.999 L6.000,18.999 L6.000,18.998 C4.343,18.998 3.000,17.655 3.000,15.999 L3.000,12.999 L3.114,12.999 C3.046,12.825 3.000,12.640 3.000,12.443 L3.000,6.998 L3.000,5.998 L3.000,1.554 C3.000,0.695 3.709,-0.002 4.583,-0.002 L20.416,-0.002 C21.291,-0.002 22.000,0.695 22.000,1.554 L22.000,5.998 L22.000,6.998 L22.000,12.443 C22.000,12.639 21.953,12.825 21.885,12.999 L22.000,12.999 L22.000,15.999 C22.000,17.655 20.657,18.998 19.000,18.998 ZM19.000,17.998 C20.104,17.998 21.000,17.102 21.000,15.999 C21.000,14.893 20.104,13.998 19.000,13.998 C17.895,13.998 17.000,14.893 17.000,15.999 C17.000,17.102 17.895,17.998 19.000,17.998 ZM16.778,17.999 C16.299,17.467 16.000,16.770 16.000,15.999 C16.000,15.256 16.280,14.585 16.727,14.061 L8.272,14.061 C8.720,14.585 9.000,15.256 9.000,15.999 C9.000,16.770 8.700,17.467 8.221,17.999 L16.778,17.999 ZM6.000,17.998 C7.104,17.998 8.000,17.102 8.000,15.999 C8.000,14.893 7.104,13.998 6.000,13.998 C4.895,13.998 4.000,14.893 4.000,15.999 C4.000,17.102 4.895,17.998 6.000,17.998 ZM21.000,1.999 C21.000,1.446 20.552,0.999 20.000,0.999 L5.000,0.999 C4.447,0.999 4.000,1.446 4.000,1.999 L4.000,5.998 L21.000,5.998 L21.000,1.999 ZM21.000,6.998 L4.000,6.998 L4.000,12.999 L4.996,12.999 C4.997,12.999 4.998,12.999 5.000,12.999 L20.000,12.999 C20.001,12.999 20.002,12.999 20.004,12.999 L21.000,12.999 L21.000,11.999 C21.000,11.999 21.000,11.999 21.000,11.999 L21.000,6.998 ZM16.000,3.998 L9.000,3.998 L9.000,2.998 L16.000,2.998 L16.000,3.998 Z" class="cls-1"/>
</svg>
