<svg xmlns="http://www.w3.org/2000/svg" xmlns:xlink="http://www.w3.org/1999/xlink" preserveAspectRatio="xMidYMid" width="25" height="25" viewBox="0 0 25 25">
  <defs>
    <style>
      .cls-1 {
        fill: #3c4042;
        fill-rule: evenodd;
      }
    </style>
  </defs>
  <path d="M21.999,21.986 C21.999,21.991 22.000,21.994 22.000,21.999 C22.000,23.655 20.657,24.998 19.000,24.998 C17.343,24.998 16.000,23.655 16.000,21.999 L9.000,21.999 C9.000,23.655 7.657,24.998 6.000,24.998 C4.343,24.998 3.000,23.655 3.000,21.999 C3.000,21.994 3.001,21.991 3.001,21.986 C1.334,21.920 -0.000,20.549 -0.000,18.856 L-0.000,14.999 L-0.000,13.999 L-0.000,5.999 L-0.000,4.999 L-0.000,3.142 C-0.000,1.405 1.399,-0.001 3.125,-0.001 L21.875,-0.001 C23.601,-0.001 25.000,1.405 25.000,3.142 L25.000,4.999 L25.000,5.999 L25.000,13.999 L25.000,14.999 L25.000,18.856 C25.000,20.549 23.666,21.920 21.999,21.986 ZM19.000,23.998 C20.104,23.998 21.000,23.103 21.000,21.998 C21.000,20.894 20.104,19.998 19.000,19.998 C17.895,19.998 17.000,20.894 17.000,21.998 C17.000,23.103 17.895,23.998 19.000,23.998 ZM6.000,23.998 C7.104,23.998 8.000,23.103 8.000,21.998 C8.000,20.894 7.104,19.998 6.000,19.998 C4.895,19.998 4.000,20.894 4.000,21.998 C4.000,23.103 4.895,23.998 6.000,23.998 ZM1.000,13.999 L5.000,13.999 L5.000,5.999 L1.000,5.999 L1.000,13.999 ZM24.000,2.999 C24.000,1.895 23.104,0.999 22.000,0.999 L3.000,0.999 C1.895,0.999 1.000,1.895 1.000,2.999 L1.000,4.999 L5.000,4.999 L5.000,4.998 L6.000,4.998 L6.000,4.999 L12.000,4.999 L12.000,4.998 L13.000,4.998 L13.000,4.999 L19.000,4.999 L19.000,4.998 L20.000,4.998 L20.000,4.999 L24.000,4.999 L24.000,2.999 ZM6.000,5.999 L6.000,13.999 L12.000,13.999 L12.000,5.999 L6.000,5.999 ZM13.000,5.999 L13.000,13.999 L19.000,13.999 L19.000,5.999 L13.000,5.999 ZM24.000,5.999 L20.000,5.999 L20.000,13.999 L24.000,13.999 L24.000,5.999 ZM24.000,14.999 L1.000,14.999 L1.000,18.999 C1.000,20.104 1.895,20.999 3.000,20.999 L3.183,20.999 C3.596,19.836 4.695,18.998 6.000,18.998 C7.304,18.998 8.403,19.836 8.816,20.999 L16.183,20.999 C16.596,19.836 17.695,18.998 19.000,18.998 C20.304,18.998 21.403,19.836 21.816,20.999 L22.000,20.999 C23.104,20.999 24.000,20.104 24.000,18.999 L24.000,14.999 Z" class="cls-1"/>
</svg>
