<svg xmlns="http://www.w3.org/2000/svg" xmlns:xlink="http://www.w3.org/1999/xlink" preserveAspectRatio="xMidYMid" width="19" height="24" viewBox="0 0 19 24">
  <defs>
    <style>
      .cls-1 {
        fill: #3c4042;
        fill-rule: evenodd;
      }
    </style>
  </defs>
  <path d="M15.923,23.997 L9.506,23.998 C9.504,23.998 9.502,23.999 9.500,23.999 C9.498,23.999 9.496,23.998 9.494,23.998 L3.000,23.999 L-0.000,12.000 L3.989,10.740 L3.989,3.997 L7.000,3.997 L7.000,1.999 C7.000,0.894 7.895,-0.001 9.000,-0.001 L10.000,-0.001 C11.104,-0.001 12.000,0.894 12.000,1.999 L12.000,3.997 L15.010,3.997 L15.010,10.739 L19.000,12.000 L15.923,23.997 ZM1.198,12.670 L3.781,22.999 L9.000,22.998 L9.000,10.208 L1.198,12.670 ZM11.000,1.999 C11.000,1.447 10.552,0.999 10.000,0.999 L9.000,0.999 C8.448,0.999 8.000,1.447 8.000,1.999 L8.000,3.997 L11.000,3.997 L11.000,1.999 ZM14.003,4.996 L4.997,4.996 L4.997,10.423 L9.237,9.085 C9.314,9.035 9.401,8.999 9.500,8.999 C9.502,8.999 9.503,9.000 9.505,9.000 L9.508,8.999 L9.521,9.003 C9.606,9.007 9.681,9.035 9.749,9.075 L14.003,10.420 L14.003,4.996 ZM10.000,10.204 L10.000,22.998 L15.146,22.998 L17.796,12.668 L10.000,10.204 Z" class="cls-1"/>
</svg>
