<svg xmlns="http://www.w3.org/2000/svg" xmlns:xlink="http://www.w3.org/1999/xlink" preserveAspectRatio="xMidYMid" width="25" height="25" viewBox="0 0 25 25">
  <defs>
    <style>
      .cls-1 {
        fill: #3c4042;
        fill-rule: evenodd;
      }
    </style>
  </defs>
  <path d="M13.000,13.998 L12.000,13.998 L12.000,9.999 L12.000,-0.001 L12.000,-0.002 L13.000,-0.002 L13.000,0.449 L22.000,4.499 L13.000,9.449 L13.000,13.998 ZM19.762,4.588 L13.000,1.546 L13.000,8.308 L19.762,4.588 ZM22.000,25.000 L3.000,25.000 L-0.000,13.998 L25.000,13.998 L22.000,25.000 ZM3.763,24.000 L21.236,24.000 L22.599,18.999 L2.400,18.999 L3.763,24.000 ZM2.127,17.998 L22.872,17.998 L23.690,14.999 L1.309,14.999 L2.127,17.998 Z" class="cls-1"/>
</svg>
