<svg xmlns="http://www.w3.org/2000/svg" xmlns:xlink="http://www.w3.org/1999/xlink" preserveAspectRatio="xMidYMid" width="25" height="25" viewBox="0 0 25 25">
  <defs>
    <style>
      .cls-1 {
        fill: #3c4042;
        fill-rule: evenodd;
      }
    </style>
  </defs>
  <path d="M24.500,15.999 L20.500,15.999 C20.224,15.999 20.000,15.775 20.000,15.499 C20.000,15.223 20.224,14.999 20.500,14.999 L24.500,14.999 C24.776,14.999 25.000,15.223 25.000,15.499 C25.000,15.775 24.776,15.999 24.500,15.999 ZM24.500,10.999 L18.500,10.999 C18.224,10.999 18.000,10.775 18.000,10.499 C18.000,10.223 18.224,9.999 18.500,9.999 L24.500,9.999 C24.776,9.999 25.000,10.223 25.000,10.499 C25.000,10.775 24.776,10.999 24.500,10.999 ZM24.500,5.999 L18.500,5.999 C18.224,5.999 18.000,5.775 18.000,5.499 C18.000,5.223 18.224,4.999 18.500,4.999 L24.500,4.999 C24.776,4.999 25.000,5.223 25.000,5.499 C25.000,5.775 24.776,5.999 24.500,5.999 ZM12.363,24.997 L4.636,24.997 C2.075,24.997 -0.000,22.814 -0.000,20.123 L-0.000,16.872 C-0.000,14.749 1.299,12.961 3.101,12.293 C2.407,11.051 2.000,9.580 2.000,7.998 C2.000,3.580 5.134,-0.002 9.000,-0.002 C12.866,-0.002 16.000,3.580 16.000,7.998 C16.000,9.744 15.505,11.354 14.674,12.669 C16.058,13.513 17.000,15.069 17.000,16.872 L17.000,20.123 C17.000,22.814 14.924,24.997 12.363,24.997 ZM15.000,7.997 C15.000,4.131 12.313,0.997 9.000,0.997 C5.686,0.997 3.000,4.131 3.000,7.997 C3.000,11.863 5.686,14.998 9.000,14.998 C12.313,14.998 15.000,11.863 15.000,7.997 ZM16.000,16.999 C16.000,15.531 15.200,14.261 14.020,13.565 C12.748,15.064 10.971,15.997 9.000,15.997 C6.886,15.997 4.996,14.923 3.712,13.230 C2.139,13.768 1.000,15.243 1.000,16.999 L1.000,20.000 C1.000,22.208 2.791,24.000 5.000,24.000 L12.000,24.000 C14.209,24.000 16.000,22.208 16.000,20.000 L16.000,16.999 ZM20.500,20.000 L24.500,20.000 C24.776,20.000 25.000,20.223 25.000,20.499 C25.000,20.775 24.776,20.999 24.500,20.999 L20.500,20.999 C20.224,20.999 20.000,20.775 20.000,20.499 C20.000,20.223 20.224,20.000 20.500,20.000 Z" class="cls-1"/>
</svg>
