<svg xmlns="http://www.w3.org/2000/svg" xmlns:xlink="http://www.w3.org/1999/xlink" preserveAspectRatio="xMidYMid" width="13" height="25" viewBox="0 0 13 25">
  <defs>
    <style>
      .cls-1 {
        fill: #3c4042;
        fill-rule: evenodd;
      }
    </style>
  </defs>
  <path d="M13.000,12.199 L10.562,21.799 C10.562,23.566 9.107,24.999 7.312,24.999 L5.687,24.999 C3.892,24.999 2.437,23.566 2.437,21.799 L-0.000,12.199 C-0.000,10.905 0.783,9.797 1.906,9.292 C1.334,8.346 1.000,7.216 1.000,5.998 C1.000,2.684 3.462,-0.002 6.500,-0.002 C9.537,-0.002 12.000,2.684 12.000,5.998 C12.000,7.216 11.665,8.346 11.094,9.292 C12.216,9.797 13.000,10.905 13.000,12.199 ZM6.500,0.997 C4.014,0.997 2.000,3.236 2.000,5.998 C2.000,8.759 4.014,10.997 6.500,10.997 C8.985,10.997 11.000,8.759 11.000,5.998 C11.000,3.236 8.985,0.997 6.500,0.997 ZM10.483,10.127 C9.481,11.278 8.069,11.998 6.500,11.998 C4.931,11.998 3.519,11.278 2.517,10.128 C1.671,10.415 1.050,11.174 1.003,12.086 L3.407,21.553 L3.437,21.674 L3.437,21.799 C3.437,23.012 4.447,23.999 5.687,23.999 L7.312,23.999 C8.552,23.999 9.562,23.012 9.562,21.799 L9.562,21.674 L9.593,21.553 L11.997,12.086 C11.949,11.174 11.328,10.415 10.483,10.127 Z" class="cls-1"/>
</svg>
