<svg xmlns="http://www.w3.org/2000/svg" xmlns:xlink="http://www.w3.org/1999/xlink" preserveAspectRatio="xMidYMid" width="22" height="25" viewBox="0 0 22 25">
  <defs>
    <style>
      .cls-1 {
        fill: #3c4042;
        fill-rule: evenodd;
      }
    </style>
  </defs>
  <path d="M21.345,24.424 C21.345,24.424 20.739,24.997 11.047,24.997 C1.355,24.997 0.659,24.424 0.659,24.424 C-0.562,22.707 0.053,19.845 1.273,18.699 C1.885,18.126 6.368,16.755 8.170,16.220 C8.043,16.148 7.911,16.083 7.788,16.003 C6.012,16.003 2.767,16.003 1.987,16.003 C4.474,16.003 3.839,7.912 3.839,7.890 C3.839,3.535 5.140,0.002 10.998,0.002 C16.855,0.002 18.157,3.535 18.157,7.890 C18.157,7.891 17.530,16.003 20.012,16.003 C19.232,16.003 15.982,16.003 14.207,16.003 C14.072,16.091 13.928,16.163 13.787,16.242 C15.671,16.795 20.160,18.151 20.739,18.699 C21.951,19.845 22.556,22.707 21.345,24.424 ZM20.071,19.444 C19.758,19.232 18.045,18.533 13.505,17.201 L12.500,16.907 L12.500,15.814 L13.299,15.368 C13.343,15.344 13.387,15.320 13.431,15.297 C13.517,15.250 13.597,15.207 13.659,15.167 L13.909,15.003 L14.207,15.003 L17.718,15.003 C16.870,12.652 17.085,8.819 17.156,7.853 C17.147,2.988 15.361,1.002 10.998,1.002 C6.633,1.002 4.847,2.988 4.839,7.856 C4.952,9.471 5.069,12.860 4.288,15.003 L7.788,15.003 L8.087,15.003 L8.337,15.167 C8.385,15.198 8.453,15.235 8.524,15.273 C8.571,15.299 8.617,15.324 8.663,15.350 L9.500,15.823 L9.500,16.869 L8.455,17.179 C4.498,18.353 2.340,19.159 1.943,19.442 C1.149,20.206 0.619,22.250 1.312,23.579 C1.956,23.709 4.160,23.997 11.047,23.997 C17.885,23.997 20.056,23.712 20.687,23.584 C21.377,22.255 20.857,20.213 20.071,19.444 Z" class="cls-1"/>
</svg>
