<svg xmlns="http://www.w3.org/2000/svg" xmlns:xlink="http://www.w3.org/1999/xlink" preserveAspectRatio="xMidYMid" width="25" height="25" viewBox="0 0 25 25">
  <defs>
    <style>
      .cls-1 {
        fill: #3c4042;
        fill-rule: evenodd;
      }
    </style>
  </defs>
  <path d="M24.500,15.999 L21.500,15.999 C21.224,15.999 21.000,15.775 21.000,15.499 C21.000,15.223 21.224,14.999 21.500,14.999 L24.500,14.999 C24.776,14.999 25.000,15.223 25.000,15.499 C25.000,15.775 24.776,15.999 24.500,15.999 ZM24.500,10.999 L19.500,10.999 C19.224,10.999 19.000,10.775 19.000,10.499 C19.000,10.223 19.224,9.999 19.500,9.999 L24.500,9.999 C24.776,9.999 25.000,10.223 25.000,10.499 C25.000,10.775 24.776,10.999 24.500,10.999 ZM24.500,5.999 L19.500,5.999 C19.224,5.999 19.000,5.775 19.000,5.499 C19.000,5.223 19.224,4.999 19.500,4.999 L24.500,4.999 C24.776,4.999 25.000,5.223 25.000,5.499 C25.000,5.775 24.776,5.999 24.500,5.999 ZM13.042,16.103 C14.085,16.545 18.198,18.310 18.804,18.898 C19.946,20.006 20.518,22.780 19.375,24.443 C19.375,24.443 19.572,24.998 10.429,24.998 C1.285,24.998 0.628,24.443 0.628,24.443 C-0.523,22.780 0.057,20.006 1.208,18.898 C1.784,18.343 5.646,16.844 7.212,16.250 C7.067,16.170 6.920,16.096 6.781,16.004 C4.700,16.004 1.836,16.004 1.156,16.006 C2.686,16.004 2.975,9.006 2.975,9.006 L3.005,9.006 C2.987,8.772 2.976,8.539 2.976,8.306 C2.976,4.147 4.252,0.004 9.998,0.004 C15.743,0.004 17.019,4.147 17.019,8.306 C17.019,8.539 17.008,8.772 16.991,9.006 L17.024,9.006 C17.024,9.006 17.313,16.004 18.843,16.006 C18.163,16.004 15.295,16.004 13.214,16.004 C13.159,16.041 13.098,16.068 13.042,16.103 ZM16.070,10.006 L15.942,10.006 L15.990,8.930 C16.006,8.722 16.016,8.513 16.016,8.306 C16.016,3.323 14.104,1.003 9.998,1.003 C5.892,1.003 3.979,3.323 3.979,8.306 C3.979,8.514 3.990,8.724 4.006,8.933 L4.084,10.006 L3.929,10.006 C3.780,12.395 3.479,13.968 3.123,15.005 C4.249,15.005 5.634,15.005 6.781,15.005 L7.082,15.005 L7.334,15.171 C7.814,15.487 8.318,15.702 8.837,15.836 L9.000,15.999 L8.502,17.000 L8.051,17.000 C5.403,17.986 2.334,19.253 1.874,19.634 C1.137,20.345 0.633,22.313 1.274,23.598 C1.900,23.725 3.996,23.999 10.429,23.999 C16.322,23.999 18.164,23.761 18.699,23.652 C19.378,22.367 18.875,20.351 18.123,19.620 C17.713,19.263 14.976,17.999 12.604,17.000 L11.498,17.000 L11.000,15.999 L11.164,15.835 C11.681,15.700 12.182,15.486 12.660,15.171 L12.912,15.005 L13.214,15.005 C14.361,15.005 15.749,15.005 16.876,15.005 C16.520,13.968 16.218,12.395 16.070,10.006 ZM22.500,20.000 L24.500,20.000 C24.776,20.000 25.000,20.223 25.000,20.499 C25.000,20.775 24.776,20.999 24.500,20.999 L22.500,20.999 C22.224,20.999 22.000,20.775 22.000,20.499 C22.000,20.223 22.224,20.000 22.500,20.000 Z" class="cls-1"/>
</svg>
