<svg xmlns="http://www.w3.org/2000/svg" xmlns:xlink="http://www.w3.org/1999/xlink" preserveAspectRatio="xMidYMid" width="25" height="25" viewBox="0 0 25 25">
  <defs>
    <style>
      .cls-1 {
        fill: #3c4042;
        fill-rule: evenodd;
      }
    </style>
  </defs>
  <path d="M22.000,24.999 L21.000,24.999 L21.000,22.000 L18.000,22.000 L18.000,20.999 L21.000,20.999 L21.000,17.999 L22.000,17.999 L22.000,20.999 L25.000,20.999 L25.000,22.000 L22.000,22.000 L22.000,24.999 ZM18.742,19.137 L17.736,19.787 C17.085,19.483 16.440,19.197 15.829,18.949 C14.825,19.614 13.697,19.998 12.500,19.998 C11.303,19.998 10.175,19.614 9.171,18.949 C6.582,19.998 3.411,21.701 1.564,22.779 L1.478,22.827 L1.386,22.859 C1.194,22.926 1.000,23.117 1.000,23.398 C1.000,23.716 1.252,23.976 1.562,23.976 L16.000,23.976 L16.000,25.000 L1.562,25.000 C0.700,25.000 -0.000,24.284 -0.000,23.398 C-0.000,22.694 0.449,22.100 1.069,21.888 C1.529,21.620 5.045,19.589 8.246,18.230 C6.286,16.426 5.000,13.414 5.000,9.998 C5.000,4.475 8.358,-0.003 12.500,-0.003 C16.642,-0.003 20.000,4.475 20.000,9.998 C20.000,13.414 18.713,16.426 16.753,18.230 C17.414,18.510 18.084,18.821 18.742,19.137 ZM19.000,9.998 C19.000,5.027 16.090,0.997 12.500,0.997 C8.910,0.997 6.000,5.027 6.000,9.998 C6.000,14.968 8.910,18.998 12.500,18.998 C16.090,18.998 19.000,14.968 19.000,9.998 ZM25.000,23.399 L25.000,23.398 C25.000,23.398 25.000,23.398 25.000,23.398 C25.000,23.399 25.000,23.399 25.000,23.399 Z" class="cls-1"/>
</svg>
