<svg xmlns="http://www.w3.org/2000/svg" xmlns:xlink="http://www.w3.org/1999/xlink" preserveAspectRatio="xMidYMid" width="24" height="23" viewBox="0 0 24 23">
  <defs>
    <style>
      .cls-1 {
        fill: #3c4042;
        fill-rule: evenodd;
      }
    </style>
  </defs>
  <path d="M24.004,22.302 L23.303,23.003 L20.500,20.199 L17.696,23.003 L16.995,22.302 L19.799,19.499 L16.995,16.695 L17.696,15.995 L20.500,18.798 L23.303,15.995 L24.004,16.695 L21.200,19.499 L24.004,22.302 ZM15.000,14.999 L15.000,15.025 C13.517,13.763 11.599,12.999 9.500,12.999 C4.805,12.999 1.000,16.804 1.000,21.499 C1.000,21.668 1.015,21.833 1.025,21.999 L0.025,21.999 C0.016,21.832 -0.000,21.668 -0.000,21.499 C-0.000,17.192 2.868,13.559 6.797,12.395 C4.561,11.367 3.000,9.121 3.000,6.499 C3.000,2.909 5.910,-0.001 9.500,-0.001 C13.090,-0.001 16.000,2.909 16.000,6.499 C16.000,9.121 14.438,11.367 12.202,12.395 C13.829,12.876 15.255,13.798 16.389,14.999 L15.000,14.999 ZM15.000,6.499 C15.000,3.462 12.537,0.998 9.500,0.998 C6.462,0.998 4.000,3.462 4.000,6.499 C4.000,9.536 6.462,11.999 9.500,11.999 C12.537,11.999 15.000,9.536 15.000,6.499 Z" class="cls-1"/>
</svg>
