<svg xmlns="http://www.w3.org/2000/svg" xmlns:xlink="http://www.w3.org/1999/xlink" preserveAspectRatio="xMidYMid" width="22" height="25" viewBox="0 0 22 25">
  <defs>
    <style>
      .cls-1 {
        fill: #3c4042;
        fill-rule: evenodd;
      }
    </style>
  </defs>
  <path d="M21.369,24.425 C21.369,24.425 20.450,24.999 11.000,24.999 C1.551,24.999 0.665,24.425 0.665,24.425 C-0.525,22.707 0.075,19.845 1.265,18.700 C1.861,18.126 6.410,16.755 8.238,16.220 C5.634,14.706 4.037,11.187 4.037,7.886 C4.037,3.529 5.308,-0.003 11.029,-0.003 C16.749,-0.003 18.021,3.529 18.021,7.886 C18.021,11.062 16.539,14.436 14.107,16.036 C14.901,16.301 20.116,18.058 20.778,18.700 C21.960,19.845 22.550,22.707 21.369,24.425 ZM13.835,16.999 L13.632,16.999 L13.401,15.866 L13.401,15.326 C15.684,13.970 17.042,10.767 17.042,7.868 C17.042,4.070 16.039,0.991 11.029,0.991 C6.018,0.991 5.016,4.070 5.016,7.868 C5.016,11.169 6.773,14.869 9.656,15.780 L9.656,15.866 L9.427,16.999 L9.142,16.999 C6.059,17.877 2.462,19.050 1.927,19.447 C1.173,20.175 0.649,22.227 1.318,23.572 C1.995,23.702 4.270,23.999 11.000,23.999 C17.738,23.999 20.029,23.702 20.715,23.570 C21.379,22.222 20.859,20.170 20.084,19.419 C19.626,19.057 16.511,17.889 13.835,16.999 Z" class="cls-1"/>
</svg>
