<svg xmlns="http://www.w3.org/2000/svg" xmlns:xlink="http://www.w3.org/1999/xlink" preserveAspectRatio="xMidYMid" width="15" height="25" viewBox="0 0 15 25">
  <defs>
    <style>
      .cls-1 {
        fill: #3c4042;
        fill-rule: evenodd;
      }
    </style>
  </defs>
  <path d="M10.883,10.696 C11.109,11.146 11.250,11.653 11.250,12.199 L15.000,21.799 C15.000,23.566 13.657,24.999 12.000,24.999 L3.000,24.999 C1.343,24.999 -0.000,23.566 -0.000,21.799 L3.750,12.199 C3.750,11.653 3.890,11.146 4.116,10.696 C2.837,9.597 2.000,7.912 2.000,5.998 C2.000,2.684 4.462,-0.002 7.500,-0.002 C10.537,-0.002 13.000,2.684 13.000,5.998 C13.000,7.912 12.163,9.597 10.883,10.696 ZM1.006,21.972 C1.086,23.105 1.950,23.999 3.000,23.999 L12.000,23.999 C13.050,23.999 13.913,23.105 13.994,21.972 L10.250,12.199 C10.250,11.869 10.179,11.559 10.060,11.278 C9.292,11.722 8.430,11.998 7.500,11.998 C6.570,11.998 5.707,11.723 4.939,11.278 C4.821,11.559 4.750,11.869 4.750,12.199 L1.006,21.972 ZM7.500,0.997 C5.014,0.997 3.000,3.236 3.000,5.998 C3.000,8.759 5.014,10.997 7.500,10.997 C9.985,10.997 12.000,8.759 12.000,5.998 C12.000,3.236 9.985,0.997 7.500,0.997 Z" class="cls-1"/>
</svg>
