<svg xmlns="http://www.w3.org/2000/svg" xmlns:xlink="http://www.w3.org/1999/xlink" preserveAspectRatio="xMidYMid" width="19" height="25" viewBox="0 0 19 25">
  <defs>
    <style>
      .cls-1 {
        fill: #3c4042;
        fill-rule: evenodd;
      }
    </style>
  </defs>
  <path d="M19.000,24.997 L15.923,24.997 L3.077,24.997 L-0.000,24.997 L-0.000,21.998 L0.019,21.998 C0.015,21.931 -0.000,21.866 -0.000,21.798 L-0.000,12.198 C-0.000,10.458 1.337,9.049 3.000,9.006 L3.000,6.499 C3.000,2.909 5.910,-0.001 9.500,-0.001 C12.918,-0.001 15.689,2.647 15.949,5.998 L14.949,5.998 C14.692,3.199 12.366,0.999 9.500,0.999 C6.462,0.999 4.000,3.462 4.000,6.499 L4.000,8.997 L15.000,8.997 L15.923,8.997 L16.000,8.997 L16.000,9.006 C17.663,9.049 19.000,10.458 19.000,12.198 L19.000,21.798 C19.000,21.866 18.984,21.931 18.980,21.998 L19.000,21.998 L19.000,24.997 ZM18.000,11.999 C18.000,10.895 17.104,9.999 16.000,9.999 L3.000,9.999 C1.895,9.999 1.000,10.895 1.000,11.999 L1.000,21.997 L1.000,21.997 L1.000,23.996 L2.972,23.996 C2.982,23.996 2.990,23.999 3.000,23.999 L16.000,23.999 C16.009,23.999 16.018,23.996 16.027,23.996 L18.000,23.996 L18.000,22.002 C18.000,22.000 18.000,21.999 18.000,21.999 L18.000,11.999 ZM11.500,17.999 L7.500,17.999 C7.224,17.999 7.000,17.775 7.000,17.500 C7.000,17.223 7.224,16.999 7.500,16.999 L11.500,16.999 C11.776,16.999 12.000,17.223 12.000,17.500 C12.000,17.775 11.776,17.999 11.500,17.999 Z" class="cls-1"/>
</svg>
