<svg xmlns="http://www.w3.org/2000/svg" xmlns:xlink="http://www.w3.org/1999/xlink" preserveAspectRatio="xMidYMid" width="17" height="25" viewBox="0 0 17 25">
  <defs>
    <style>
      .cls-1 {
        fill: #3c4042;
        fill-rule: evenodd;
      }
    </style>
  </defs>
  <path d="M8.500,7.998 C13.194,7.998 17.000,11.803 17.000,16.497 C17.000,21.192 13.194,24.998 8.500,24.998 C3.805,24.998 -0.000,21.192 -0.000,16.497 C-0.000,14.405 0.759,12.492 2.013,11.011 L2.013,6.516 C2.013,2.915 4.917,-0.003 8.500,-0.003 C11.908,-0.003 14.696,2.640 14.960,5.997 L13.949,5.997 C13.692,3.199 11.365,0.999 8.500,0.999 C5.462,0.999 3.000,3.462 3.000,6.499 L3.000,10.023 C4.483,8.762 6.401,7.998 8.500,7.998 ZM1.015,16.497 C1.015,20.640 4.366,23.997 8.500,23.997 C12.633,23.997 15.984,20.640 15.984,16.497 C15.984,12.355 12.633,8.997 8.500,8.997 C4.366,8.997 1.015,12.355 1.015,16.497 ZM11.000,16.499 C11.000,16.775 10.776,16.999 10.500,16.999 L6.500,16.999 C6.224,16.999 6.000,16.775 6.000,16.499 C6.000,16.223 6.224,15.999 6.500,15.999 L10.500,15.999 C10.776,15.999 11.000,16.223 11.000,16.499 Z" class="cls-1"/>
</svg>
