<svg xmlns="http://www.w3.org/2000/svg" xmlns:xlink="http://www.w3.org/1999/xlink" preserveAspectRatio="xMidYMid" width="22" height="25" viewBox="0 0 22 25">
  <defs>
    <style>
      .cls-1 {
        fill: #3c4042;
        fill-rule: evenodd;
      }
    </style>
  </defs>
  <path d="M20.462,24.998 L16.508,24.998 C16.505,24.998 16.503,24.999 16.500,24.999 C16.497,24.999 16.495,24.998 16.492,24.998 L3.546,24.998 C2.697,24.998 2.009,24.298 2.009,23.435 L2.009,20.999 L0.500,20.999 C0.224,20.999 -0.000,20.775 -0.000,20.499 C-0.000,20.222 0.224,19.999 0.500,19.999 L2.009,19.999 L2.009,15.999 L0.500,15.999 C0.224,15.999 -0.000,15.775 -0.000,15.499 C-0.000,15.223 0.224,14.999 0.500,14.999 L2.009,14.999 L2.009,10.000 L0.500,10.000 C0.224,10.000 -0.000,9.775 -0.000,9.499 C-0.000,9.223 0.224,8.999 0.500,8.999 L2.009,8.999 L2.009,4.999 L0.500,4.999 C0.224,4.999 -0.000,4.775 -0.000,4.499 C-0.000,4.223 0.224,3.999 0.500,3.999 L2.009,3.999 L2.009,1.560 C2.009,0.697 2.697,-0.002 3.546,-0.002 L20.462,-0.002 C21.311,-0.002 22.000,0.697 22.000,1.560 L22.000,23.435 C22.000,24.298 21.311,24.998 20.462,24.998 ZM16.000,0.997 L3.760,0.997 C3.333,0.997 2.987,1.349 2.987,1.783 L2.987,3.999 L4.500,3.999 C4.776,3.999 5.000,4.223 5.000,4.499 C5.000,4.775 4.776,4.999 4.500,4.999 L2.987,4.999 L2.987,8.999 L4.500,8.999 C4.776,8.999 5.000,9.223 5.000,9.499 C5.000,9.775 4.776,10.000 4.500,10.000 L2.987,10.000 L2.987,14.999 L4.500,14.999 C4.776,14.999 5.000,15.223 5.000,15.499 C5.000,15.775 4.776,15.999 4.500,15.999 L2.987,15.999 L2.987,19.999 L4.500,19.999 C4.776,19.999 5.000,20.222 5.000,20.499 C5.000,20.775 4.776,20.999 4.500,20.999 L2.987,20.999 L2.987,23.211 C2.987,23.646 3.333,23.997 3.760,23.997 L16.000,23.997 L16.000,0.997 ZM20.991,1.783 C20.991,1.349 20.645,0.997 20.218,0.997 L17.000,0.997 L17.000,23.997 L20.218,23.997 C20.645,23.997 20.991,23.646 20.991,23.211 L20.991,1.783 Z" class="cls-1"/>
</svg>
