<svg xmlns="http://www.w3.org/2000/svg" xmlns:xlink="http://www.w3.org/1999/xlink" preserveAspectRatio="xMidYMid" width="25" height="24" viewBox="0 0 25 24">
  <defs>
    <style>
      .cls-1 {
        fill: #3c4042;
        fill-rule: evenodd;
      }
    </style>
  </defs>
  <path d="M20.357,23.997 L17.357,23.997 C18.414,23.997 19.377,23.610 20.157,22.983 C22.292,22.899 24.000,21.155 24.000,18.999 L24.000,16.999 C24.000,15.241 22.857,13.764 21.280,13.228 C21.149,13.400 21.009,13.561 20.866,13.720 C20.648,13.452 20.407,13.208 20.139,12.995 C21.268,11.731 21.986,9.973 21.986,7.997 C21.986,4.316 19.546,1.332 16.457,1.052 C15.854,0.657 15.195,0.361 14.495,0.186 C14.979,0.065 15.480,-0.003 15.996,-0.003 C19.858,-0.003 22.989,3.579 22.989,7.997 C22.989,9.579 22.582,11.050 21.890,12.292 C23.692,12.960 24.991,14.748 24.991,16.872 L24.991,19.122 C24.991,21.815 22.917,23.997 20.357,23.997 ZM14.890,12.292 C16.692,12.960 17.991,14.748 17.991,16.872 L17.991,19.122 C17.991,21.815 15.917,23.997 13.357,23.997 L4.634,23.997 C2.075,23.997 -0.000,22.815 -0.000,20.122 L-0.000,16.872 C-0.000,14.748 1.299,12.960 3.101,12.292 C2.409,11.050 2.002,9.579 2.002,7.997 C2.002,3.579 5.133,-0.003 8.995,-0.003 C12.858,-0.003 15.989,3.579 15.989,7.997 C15.989,9.579 15.582,11.050 14.890,12.292 ZM1.000,16.999 L1.000,19.999 C1.000,22.208 2.791,22.999 5.000,22.999 L13.000,22.999 C15.209,22.999 17.000,21.208 17.000,18.999 L17.000,16.999 C17.000,15.241 15.857,13.764 14.280,13.228 C12.998,14.921 11.108,15.998 8.995,15.998 C6.884,15.998 4.995,14.922 3.713,13.230 C2.139,13.768 1.000,15.243 1.000,16.999 ZM8.995,0.997 C5.687,0.997 3.004,4.131 3.004,7.997 C3.004,11.863 5.687,14.997 8.995,14.997 C12.304,14.997 14.986,11.863 14.986,7.997 C14.986,4.131 12.304,0.997 8.995,0.997 Z" class="cls-1"/>
</svg>
