<svg xmlns="http://www.w3.org/2000/svg" xmlns:xlink="http://www.w3.org/1999/xlink" preserveAspectRatio="xMidYMid" width="25" height="25" viewBox="0 0 25 25">
  <defs>
    <style>
      .cls-1 {
        fill: #3c4042;
        fill-rule: evenodd;
      }
    </style>
  </defs>
  <path d="M23.437,24.999 L1.562,24.999 C0.700,24.999 -0.000,24.283 -0.000,23.398 C-0.000,22.693 0.449,22.100 1.069,21.888 C1.529,21.620 5.045,19.589 8.246,18.230 C6.286,16.426 5.000,13.413 5.000,9.998 C5.000,4.475 8.358,-0.002 12.500,-0.002 C16.642,-0.002 20.000,4.475 20.000,9.998 C20.000,13.413 18.713,16.426 16.754,18.230 C19.955,19.589 23.472,21.620 23.931,21.888 C24.551,22.100 25.000,22.693 25.000,23.398 C25.000,24.283 24.301,24.999 23.437,24.999 ZM19.000,9.998 C19.000,5.027 16.089,0.997 12.500,0.997 C8.910,0.997 6.000,5.027 6.000,9.998 C6.000,14.968 8.910,18.998 12.500,18.998 C16.089,18.998 19.000,14.968 19.000,9.998 ZM23.614,22.859 L23.521,22.827 L23.436,22.779 C21.590,21.700 18.419,19.998 15.829,18.949 C14.824,19.614 13.697,19.997 12.500,19.997 C11.303,19.997 10.175,19.614 9.171,18.949 C6.581,19.998 3.410,21.701 1.564,22.779 L1.478,22.827 L1.386,22.859 C1.194,22.925 1.000,23.117 1.000,23.398 C1.000,23.716 1.252,23.976 1.562,23.976 L23.437,23.976 C23.748,23.976 24.000,23.716 24.000,23.398 C24.000,23.117 23.806,22.925 23.614,22.859 Z" class="cls-1"/>
</svg>
