<svg xmlns="http://www.w3.org/2000/svg" xmlns:xlink="http://www.w3.org/1999/xlink" preserveAspectRatio="xMidYMid" width="25" height="25" viewBox="0 0 25 25">
  <defs>
    <style>
      .cls-1 {
        fill: #3c4042;
        fill-rule: evenodd;
      }
    </style>
  </defs>
  <path d="M24.500,15.999 L21.500,15.999 C21.224,15.999 21.000,15.775 21.000,15.499 C21.000,15.223 21.224,14.999 21.500,14.999 L24.500,14.999 C24.776,14.999 25.000,15.223 25.000,15.499 C25.000,15.775 24.776,15.999 24.500,15.999 ZM24.500,10.999 L19.500,10.999 C19.224,10.999 19.000,10.776 19.000,10.499 C19.000,10.223 19.224,9.999 19.500,9.999 L24.500,9.999 C24.776,9.999 25.000,10.223 25.000,10.499 C25.000,10.776 24.776,10.999 24.500,10.999 ZM24.500,5.999 L19.500,5.999 C19.224,5.999 19.000,5.775 19.000,5.499 C19.000,5.223 19.224,4.999 19.500,4.999 L24.500,4.999 C24.776,4.999 25.000,5.223 25.000,5.499 C25.000,5.775 24.776,5.999 24.500,5.999 ZM19.375,24.443 C19.375,24.443 19.143,24.998 10.000,24.998 C0.856,24.998 0.628,24.443 0.628,24.443 C-0.523,22.780 0.057,20.006 1.208,18.898 C1.783,18.344 5.630,16.850 7.202,16.254 C4.597,14.806 3.000,11.445 3.000,8.294 C3.000,4.133 4.272,-0.003 9.998,-0.003 C15.723,-0.003 16.995,4.133 16.995,8.294 C16.995,11.343 15.498,14.584 13.042,16.103 C14.087,16.545 18.198,18.310 18.803,18.898 C19.946,20.006 20.517,22.780 19.375,24.443 ZM12.604,17.000 L12.000,17.000 L12.000,16.999 L12.000,15.550 C14.496,14.400 15.994,11.194 15.994,8.308 C15.994,4.717 14.995,0.992 9.998,0.992 C5.000,0.992 4.001,4.717 4.001,8.308 C4.001,11.195 5.501,14.404 8.000,15.552 L8.000,16.999 L7.988,17.023 C5.354,18.006 2.330,19.256 1.874,19.634 C1.132,20.350 0.626,22.338 1.287,23.622 C1.849,23.740 3.794,23.998 10.000,23.998 C16.201,23.998 18.150,23.740 18.714,23.622 C19.370,22.335 18.870,20.346 18.123,19.620 C17.713,19.264 14.976,17.999 12.604,17.000 ZM22.500,20.000 L24.500,20.000 C24.776,20.000 25.000,20.223 25.000,20.499 C25.000,20.775 24.776,20.999 24.500,20.999 L22.500,20.999 C22.224,20.999 22.000,20.775 22.000,20.499 C22.000,20.223 22.224,20.000 22.500,20.000 Z" class="cls-1"/>
</svg>
