<svg xmlns="http://www.w3.org/2000/svg" xmlns:xlink="http://www.w3.org/1999/xlink" preserveAspectRatio="xMidYMid" width="19" height="22" viewBox="0 0 19 22">
  <defs>
    <style>
      .cls-1 {
        fill: #3c4042;
        fill-rule: evenodd;
      }
    </style>
  </defs>
  <path d="M17.974,21.999 C17.984,21.833 18.000,21.668 18.000,21.499 C18.000,16.804 14.194,12.999 9.500,12.999 C4.805,12.999 1.000,16.804 1.000,21.499 C1.000,21.668 1.015,21.833 1.025,21.999 L0.025,21.999 C0.016,21.832 -0.000,21.668 -0.000,21.499 C-0.000,17.197 2.861,13.567 6.783,12.398 C4.552,11.369 3.000,9.118 3.000,6.499 C3.000,2.909 5.910,-0.001 9.500,-0.001 C13.090,-0.001 16.000,2.909 16.000,6.499 C16.000,9.118 14.448,11.369 12.216,12.398 C16.139,13.567 19.000,17.197 19.000,21.499 C19.000,21.668 18.983,21.832 18.974,21.999 L17.974,21.999 ZM15.000,6.499 C15.000,3.462 12.537,0.998 9.500,0.998 C6.462,0.998 4.000,3.462 4.000,6.499 C4.000,9.536 6.462,11.999 9.500,11.999 C12.537,11.999 15.000,9.536 15.000,6.499 Z" class="cls-1"/>
</svg>
