<svg xmlns="http://www.w3.org/2000/svg" xmlns:xlink="http://www.w3.org/1999/xlink" preserveAspectRatio="xMidYMid" width="25" height="22" viewBox="0 0 25 22">
  <defs>
    <style>
      .cls-1 {
        fill: #3c4042;
        fill-rule: evenodd;
      }
    </style>
  </defs>
  <path d="M24.428,19.534 C24.428,19.534 24.102,19.807 20.134,19.932 C20.234,19.616 20.294,19.287 20.303,18.949 C22.432,18.877 23.378,18.765 23.769,18.697 C24.256,17.720 23.848,16.233 23.250,15.672 C22.967,15.511 21.633,15.043 18.289,14.242 L16.539,13.823 L17.821,12.597 C19.163,11.314 20.030,9.031 20.030,6.783 C20.030,2.608 18.760,0.982 15.498,0.982 C14.932,0.982 14.447,1.051 13.997,1.154 C13.497,0.980 12.920,0.871 12.261,0.830 C13.064,0.320 14.097,0.003 15.498,0.003 C20.035,0.003 21.044,3.038 21.044,6.783 C21.044,9.219 20.106,11.789 18.534,13.293 C20.153,13.680 23.430,14.504 23.905,14.924 C24.950,15.846 25.474,18.151 24.428,19.534 ZM15.043,8.783 C15.043,11.219 14.106,13.790 12.534,15.292 C14.153,15.681 17.430,16.504 17.905,16.924 C18.950,17.846 19.474,20.151 18.428,21.534 C18.428,21.534 17.905,21.995 9.540,21.995 C1.176,21.995 0.575,21.534 0.575,21.534 C-0.479,20.151 0.052,17.846 1.105,16.924 C1.596,16.494 4.824,15.694 6.476,15.305 C4.895,13.803 3.953,11.226 3.953,8.783 C3.953,5.038 4.961,2.004 9.498,2.004 C14.035,2.004 15.043,5.038 15.043,8.783 ZM9.498,2.982 C6.237,2.982 4.966,4.608 4.966,8.783 C4.966,11.039 5.838,13.325 7.187,14.607 L8.483,15.840 L6.716,16.256 C3.369,17.043 2.039,17.511 1.760,17.672 C1.157,18.231 0.742,19.716 1.230,20.694 C1.850,20.801 3.813,21.016 9.540,21.016 C15.225,21.016 17.160,20.803 17.769,20.697 C18.256,19.720 17.848,18.234 17.250,17.672 C16.967,17.511 15.633,17.043 12.289,16.242 L10.539,15.823 L11.821,14.597 C13.163,13.314 14.030,11.032 14.030,8.783 C14.030,4.608 12.759,2.982 9.498,2.982 Z" class="cls-1"/>
</svg>
