<svg xmlns="http://www.w3.org/2000/svg" xmlns:xlink="http://www.w3.org/1999/xlink" preserveAspectRatio="xMidYMid" width="22" height="25" viewBox="0 0 22 25">
  <defs>
    <style>
      .cls-1 {
        fill: #3c4042;
        fill-rule: evenodd;
      }
    </style>
  </defs>
  <path d="M15.000,22.000 L15.000,20.999 L22.000,20.999 L22.000,22.000 L15.000,22.000 ZM13.790,16.242 C14.627,16.487 15.977,16.891 17.271,17.313 C16.830,17.475 16.419,17.698 16.047,17.971 C15.319,17.742 14.482,17.487 13.508,17.201 L13.000,17.052 L13.000,15.537 L13.302,15.368 C13.346,15.344 13.390,15.320 13.434,15.297 C13.520,15.250 13.600,15.207 13.662,15.167 L13.912,15.003 L14.210,15.003 L17.721,15.003 C16.873,12.652 17.088,8.819 17.159,7.853 C17.150,2.988 15.364,1.002 11.001,1.002 C6.636,1.002 4.850,2.988 4.842,7.856 C4.955,9.471 5.071,12.860 4.291,15.003 L7.791,15.003 L8.090,15.003 L8.340,15.167 C8.388,15.198 8.456,15.235 8.527,15.273 C8.573,15.299 8.620,15.324 8.666,15.350 L9.000,15.539 L9.000,17.018 L8.458,17.179 C4.501,18.353 2.343,19.159 1.946,19.442 C1.152,20.206 0.622,22.250 1.315,23.579 C1.959,23.709 4.163,23.997 11.050,23.997 C12.324,23.997 13.435,23.988 14.405,23.971 C14.557,24.324 14.751,24.654 14.977,24.959 C13.870,24.983 12.572,24.997 11.050,24.997 C1.358,24.997 0.661,24.424 0.661,24.424 C-0.559,22.707 0.055,19.845 1.276,18.699 C1.888,18.126 6.371,16.755 8.173,16.220 C8.045,16.148 7.914,16.083 7.791,16.003 C6.015,16.003 2.770,16.003 1.990,16.003 C4.477,16.003 3.841,7.912 3.841,7.890 C3.841,3.535 5.143,0.002 11.001,0.002 C16.858,0.002 18.160,3.535 18.160,7.890 C18.160,7.891 17.533,16.003 20.015,16.003 C19.235,16.003 15.985,16.003 14.210,16.003 C14.075,16.091 13.931,16.163 13.790,16.242 Z" class="cls-1"/>
</svg>
