<svg xmlns="http://www.w3.org/2000/svg" xmlns:xlink="http://www.w3.org/1999/xlink" preserveAspectRatio="xMidYMid" width="24" height="24" viewBox="0 0 24 24">
  <defs>
    <style>
      .cls-1 {
        fill: #3c4042;
        fill-rule: evenodd;
      }
    </style>
  </defs>
  <path d="M23.991,19.998 L19.999,19.998 L19.999,23.991 L19.001,23.991 L19.001,19.998 L15.008,19.998 L15.008,19.000 L19.001,19.000 L19.001,15.008 L19.999,15.008 L19.999,19.000 L23.991,19.000 L23.991,19.998 ZM15.000,14.999 L15.000,15.025 C13.517,13.764 11.599,12.999 9.500,12.999 C4.805,12.999 1.000,16.804 1.000,21.499 C1.000,21.668 1.015,21.833 1.025,21.999 L0.025,21.999 C0.016,21.832 -0.000,21.668 -0.000,21.499 C-0.000,17.192 2.868,13.559 6.797,12.395 C4.561,11.367 3.000,9.122 3.000,6.499 C3.000,2.910 5.910,-0.001 9.500,-0.001 C13.090,-0.001 16.000,2.910 16.000,6.499 C16.000,9.122 14.439,11.367 12.202,12.395 C13.829,12.877 15.255,13.799 16.389,14.999 L15.000,14.999 ZM15.000,6.499 C15.000,3.462 12.537,0.999 9.500,0.999 C6.462,0.999 4.000,3.462 4.000,6.499 C4.000,9.536 6.462,11.999 9.500,11.999 C12.537,11.999 15.000,9.536 15.000,6.499 Z" class="cls-1"/>
</svg>
