<svg xmlns="http://www.w3.org/2000/svg" xmlns:xlink="http://www.w3.org/1999/xlink" preserveAspectRatio="xMidYMid" width="21" height="25" viewBox="0 0 21 25">
  <defs>
    <style>
      .cls-1 {
        fill: #3c4042;
        fill-rule: evenodd;
      }
    </style>
  </defs>
  <path d="M20.993,21.767 L18.017,21.767 L18.017,24.743 L16.982,24.743 L16.982,21.767 L14.007,21.767 L14.007,20.732 L16.982,20.732 L16.982,17.756 L18.017,17.756 L18.017,20.732 L20.993,20.732 L20.993,21.767 ZM12.363,14.000 L11.724,14.000 C10.774,14.631 9.675,14.998 8.500,14.998 C7.325,14.998 6.226,14.631 5.275,14.000 L4.636,14.000 C2.631,14.000 1.000,15.570 1.000,17.500 L1.000,20.500 C1.000,22.430 2.631,24.000 4.636,24.000 L12.000,24.000 L12.000,25.000 L4.636,25.000 C2.076,25.000 -0.000,22.985 -0.000,20.500 L-0.000,17.500 C-0.000,15.181 1.807,13.274 4.129,13.028 C2.831,11.656 2.013,9.690 2.013,7.498 C2.013,3.356 4.917,-0.002 8.500,-0.002 C12.082,-0.002 14.986,3.356 14.986,7.498 C14.986,9.690 14.168,11.656 12.871,13.028 C14.569,13.208 15.989,14.279 16.631,15.747 L15.506,15.747 C14.876,14.705 13.705,14.000 12.363,14.000 ZM14.003,7.497 C14.003,3.908 11.539,0.997 8.500,0.997 C5.461,0.997 2.997,3.908 2.997,7.497 C2.997,11.088 5.461,13.997 8.500,13.997 C11.539,13.997 14.003,11.088 14.003,7.497 Z" class="cls-1"/>
</svg>
