<svg xmlns="http://www.w3.org/2000/svg" xmlns:xlink="http://www.w3.org/1999/xlink" preserveAspectRatio="xMidYMid" width="24" height="24" viewBox="0 0 24 24">
  <defs>
    <style>
      .cls-1 {
        fill: #3c4042;
        fill-rule: evenodd;
      }
    </style>
  </defs>
  <path d="M12.000,23.998 C5.372,23.998 -0.000,18.626 -0.000,11.998 C-0.000,5.371 5.372,-0.003 12.000,-0.003 C18.627,-0.003 24.000,5.371 24.000,11.998 C24.000,18.626 18.627,23.998 12.000,23.998 ZM18.962,20.513 C18.914,19.821 18.688,19.147 18.387,18.814 C16.318,17.308 13.694,16.993 13.694,16.993 L13.619,16.502 L13.619,15.513 C15.111,14.596 15.996,12.486 15.996,10.574 C15.996,8.045 15.330,5.995 11.998,5.995 C8.666,5.995 8.000,8.045 8.000,10.574 C8.000,12.489 8.889,14.602 10.384,15.517 L10.384,16.502 L10.291,17.117 C8.270,17.748 6.066,18.523 5.612,18.825 C5.312,19.160 5.087,19.828 5.039,20.513 C6.935,22.065 9.358,22.998 12.000,22.998 C14.642,22.998 17.065,22.065 18.962,20.513 ZM12.000,0.999 C5.925,0.999 1.000,5.923 1.000,11.998 C1.000,15.000 2.206,17.718 4.155,19.703 C4.305,19.049 4.572,18.460 4.922,18.098 C5.327,17.679 8.243,16.717 9.705,16.253 C8.031,15.095 7.007,12.776 7.007,10.576 C7.007,7.495 7.914,4.998 11.998,4.998 C16.082,4.998 16.990,7.495 16.990,10.576 C16.990,12.690 16.040,14.908 14.482,16.108 C15.492,16.474 18.650,17.643 19.086,18.098 C19.434,18.460 19.698,19.047 19.846,19.701 C21.795,17.716 23.000,14.999 23.000,11.998 C23.000,5.923 18.075,0.999 12.000,0.999 Z" class="cls-1"/>
</svg>
