<svg xmlns="http://www.w3.org/2000/svg" xmlns:xlink="http://www.w3.org/1999/xlink" preserveAspectRatio="xMidYMid" width="17" height="25" viewBox="0 0 17 25">
  <defs>
    <style>
      .cls-1 {
        fill: #3c4042;
        fill-rule: evenodd;
      }
    </style>
  </defs>
  <path d="M12.363,25.000 L4.636,25.000 C2.076,25.000 -0.000,22.985 -0.000,20.500 L-0.000,17.500 C-0.000,15.184 1.803,13.279 4.120,13.029 C2.825,11.658 2.013,9.688 2.013,7.498 C2.013,3.356 4.917,-0.002 8.500,-0.002 C12.082,-0.002 14.986,3.356 14.986,7.498 C14.986,9.688 14.174,11.658 12.880,13.029 C15.197,13.279 17.000,15.184 17.000,17.500 L17.000,20.500 C17.000,22.985 14.924,25.000 12.363,25.000 ZM14.003,7.497 C14.003,3.908 11.539,0.997 8.500,0.997 C5.460,0.997 2.997,3.908 2.997,7.497 C2.997,11.088 5.460,13.997 8.500,13.997 C11.539,13.997 14.003,11.088 14.003,7.497 ZM16.000,17.500 C16.000,15.570 14.369,14.000 12.363,14.000 L11.732,14.000 C10.780,14.634 9.677,14.998 8.500,14.998 C7.323,14.998 6.219,14.634 5.268,14.000 L4.636,14.000 C2.631,14.000 1.000,15.570 1.000,17.500 L1.000,20.500 C1.000,22.430 2.631,24.000 4.636,24.000 L12.363,24.000 C14.369,24.000 16.000,22.430 16.000,20.500 L16.000,17.500 Z" class="cls-1"/>
</svg>
