<svg xmlns="http://www.w3.org/2000/svg" xmlns:xlink="http://www.w3.org/1999/xlink" preserveAspectRatio="xMidYMid" width="25" height="24" viewBox="0 0 25 24">
  <defs>
    <style>
      .cls-1 {
        fill: #3c4042;
        fill-rule: evenodd;
      }
    </style>
  </defs>
  <path d="M24.428,21.534 C24.428,21.534 24.136,21.780 20.765,21.915 C20.890,21.600 20.952,21.261 20.976,20.916 C22.638,20.844 23.421,20.748 23.769,20.687 C24.256,19.697 23.848,18.191 23.250,17.622 C22.753,17.331 20.273,16.646 18.000,16.105 L18.000,14.999 L18.000,14.982 C18.175,14.986 18.340,14.989 18.482,14.992 C18.410,15.042 18.345,15.102 18.272,15.149 C19.762,15.507 23.402,16.415 23.905,16.865 C24.950,17.799 25.474,20.134 24.428,21.534 ZM18.663,14.855 C18.458,14.684 18.304,14.368 18.190,13.970 C18.473,13.743 18.727,13.506 18.929,13.277 L19.000,12.999 C19.000,12.999 20.248,12.936 21.000,12.999 C20.836,12.154 20.844,11.208 20.852,10.417 C20.852,10.417 20.887,8.203 20.887,8.119 C20.887,3.783 19.325,1.015 15.498,1.015 C14.799,1.015 14.201,1.137 13.649,1.316 C13.119,1.155 12.527,1.057 11.865,1.030 C12.773,0.396 13.954,0.010 15.498,0.010 C20.708,0.010 21.866,4.263 21.866,8.119 C21.866,8.465 21.838,8.408 21.799,9.413 L21.867,9.413 C21.867,9.413 21.736,13.985 23.000,13.999 C22.558,13.997 20.985,13.955 19.655,13.952 C19.353,14.292 19.016,14.587 18.663,14.855 ZM15.866,10.119 C15.866,10.465 15.838,10.408 15.799,11.412 L15.867,11.412 C15.867,11.412 15.736,15.985 17.000,15.999 C16.558,15.998 14.985,15.956 13.654,15.953 C13.243,16.417 12.780,16.823 12.272,17.149 C13.763,17.507 17.402,18.415 17.905,18.865 C18.950,19.799 19.474,22.133 18.428,23.534 C18.428,23.534 17.905,24.000 9.540,24.000 C1.176,24.000 0.575,23.534 0.575,23.534 C-0.479,22.133 0.052,19.799 1.105,18.865 C1.635,18.395 5.361,17.486 6.840,17.138 C6.403,16.837 5.982,16.488 5.566,16.049 C4.146,16.051 2.441,15.998 2.000,15.999 C3.264,15.987 3.132,11.412 3.132,11.412 L3.197,11.412 C3.157,10.408 3.130,10.527 3.130,10.182 C3.130,6.326 4.288,2.010 9.498,2.010 C14.708,2.010 15.866,6.263 15.866,10.119 ZM9.498,3.015 C5.670,3.015 4.109,5.801 4.109,10.182 C4.109,11.322 4.148,12.417 4.148,12.417 C4.156,13.230 4.176,14.138 4.000,14.999 C4.761,14.962 6.000,14.999 6.000,14.999 L6.067,15.373 C6.628,16.005 7.286,16.434 8.000,16.696 L8.000,16.999 L7.497,18.004 C5.091,18.553 2.287,19.307 1.760,19.623 C1.157,20.187 0.743,21.693 1.230,22.683 C1.850,22.792 3.813,23.009 9.540,23.009 C15.225,23.009 17.160,22.794 17.769,22.687 C18.256,21.697 17.848,20.192 17.250,19.623 C16.718,19.311 13.905,18.544 11.514,17.989 L11.495,17.989 L11.000,16.999 L11.000,16.685 C11.833,16.349 12.481,15.784 12.929,15.277 L13.000,14.999 C13.000,14.999 14.248,14.935 15.000,14.999 C14.836,14.154 14.844,13.208 14.852,12.417 C14.852,12.417 14.887,10.203 14.887,10.119 C14.887,5.783 13.325,3.015 9.498,3.015 Z" class="cls-1"/>
</svg>
