<svg xmlns="http://www.w3.org/2000/svg" xmlns:xlink="http://www.w3.org/1999/xlink" preserveAspectRatio="xMidYMid" width="20" height="24.03" viewBox="0 0 20 24.03">
  <defs>
    <style>
      .cls-1 {
        fill: #3c4042;
        fill-rule: evenodd;
      }
    </style>
  </defs>
  <path d="M17.827,12.950 C15.050,15.791 10.635,15.877 7.723,13.271 L4.887,16.173 L8.376,19.746 L7.679,20.461 L4.189,16.886 L1.392,19.747 L4.890,23.320 L4.190,24.034 L-0.008,19.747 L0.344,19.389 C0.345,19.389 0.344,19.388 0.345,19.388 L7.025,12.555 C4.484,9.576 4.571,5.065 7.345,2.226 C10.241,-0.735 14.935,-0.737 17.829,2.224 C20.723,5.186 20.722,9.989 17.827,12.950 ZM17.145,2.938 C14.635,0.370 10.564,0.371 8.052,2.940 C5.541,5.509 5.540,9.674 8.050,12.241 C10.561,14.809 14.632,14.808 17.143,12.239 C19.655,9.670 19.656,5.506 17.145,2.938 Z" class="cls-1"/>
</svg>
