<svg xmlns="http://www.w3.org/2000/svg" xmlns:xlink="http://www.w3.org/1999/xlink" preserveAspectRatio="xMidYMid" width="23.031" height="19" viewBox="0 0 23.031 19">
  <defs>
    <style>
      .cls-1 {
        fill: #3c4042;
        fill-rule: evenodd;
      }
    </style>
  </defs>
  <path d="M22.864,5.859 L19.225,9.499 L22.832,13.106 C23.032,13.307 23.032,13.631 22.832,13.832 C22.632,14.031 22.308,14.031 22.107,13.832 L18.500,10.224 L14.892,13.832 C14.692,14.031 14.368,14.031 14.168,13.832 C13.967,13.631 13.967,13.307 14.168,13.106 L17.775,9.499 L14.135,5.859 C13.935,5.660 13.935,5.335 14.135,5.135 C14.336,4.934 14.660,4.934 14.860,5.135 L18.500,8.774 L22.140,5.135 C22.340,4.934 22.664,4.934 22.864,5.135 C23.064,5.335 23.064,5.660 22.864,5.859 ZM5.000,13.886 C4.843,13.949 4.679,13.998 4.503,13.998 L1.501,13.998 C0.672,13.998 -0.000,13.252 -0.000,12.332 L-0.000,6.665 C-0.000,5.744 0.672,4.998 1.501,4.998 L4.503,4.998 C4.679,4.998 4.843,5.048 5.000,5.110 L5.000,4.999 L12.000,-0.001 L12.000,18.999 L5.000,13.999 L5.000,13.886 ZM6.003,13.618 L11.000,16.999 L11.000,1.999 L6.003,5.380 L6.003,13.618 ZM5.003,12.940 L5.003,6.057 L5.001,6.057 L5.001,5.987 L3.000,5.987 L3.000,5.999 L2.000,5.999 C1.447,5.999 1.000,6.447 1.000,6.999 L1.000,11.999 C1.000,12.551 1.447,12.999 2.000,12.999 L3.000,12.999 L3.000,13.009 L5.001,13.009 L5.001,12.939 L5.003,12.940 Z" class="cls-1"/>
</svg>
