<svg xmlns="http://www.w3.org/2000/svg" xmlns:xlink="http://www.w3.org/1999/xlink" preserveAspectRatio="xMidYMid" width="12" height="19" viewBox="0 0 12 19">
  <defs>
    <style>
      .cls-1 {
        fill: #3c4042;
        fill-rule: evenodd;
      }
    </style>
  </defs>
  <path d="M5.000,13.999 L5.000,13.887 C4.843,13.949 4.679,13.998 4.503,13.998 L1.501,13.998 C0.672,13.998 -0.000,13.252 -0.000,12.332 L-0.000,6.665 C-0.000,5.744 0.672,4.999 1.501,4.999 L4.503,4.999 C4.679,4.999 4.843,5.048 5.000,5.110 L5.000,4.999 L12.000,-0.001 L12.000,18.999 L5.000,13.999 ZM11.000,1.999 L5.001,6.057 L5.001,5.987 L3.000,5.987 L3.000,5.999 L2.000,5.999 C1.448,5.999 1.000,6.447 1.000,6.999 L1.000,11.999 C1.000,12.551 1.448,12.999 2.000,12.999 L3.000,12.999 L3.000,13.009 L5.001,13.009 L5.001,12.939 L11.000,17.000 L11.000,1.999 Z" class="cls-1"/>
</svg>
