<svg xmlns="http://www.w3.org/2000/svg" xmlns:xlink="http://www.w3.org/1999/xlink" preserveAspectRatio="xMidYMid" width="24" height="22.781" viewBox="0 0 24 22.781">
  <defs>
    <style>
      .cls-1 {
        fill: #3c4042;
        fill-rule: evenodd;
      }
    </style>
  </defs>
  <path d="M14.000,22.795 L14.000,21.785 C19.086,21.055 23.000,16.693 23.000,11.405 C23.000,6.115 19.086,1.753 14.000,1.023 L14.000,0.013 C19.640,0.750 24.000,5.563 24.000,11.405 C24.000,17.246 19.640,22.059 14.000,22.795 ZM5.000,15.793 C4.843,15.855 4.679,15.904 4.502,15.904 L1.501,15.904 C0.672,15.904 -0.000,15.158 -0.000,14.237 L-0.000,8.571 C-0.000,7.651 0.672,6.905 1.501,6.905 L4.502,6.905 C4.679,6.905 4.843,6.954 5.000,7.016 L5.000,6.905 L12.000,1.905 L12.000,20.905 L5.000,15.905 L5.000,15.793 ZM6.003,15.523 L11.000,18.906 L11.000,3.905 L6.003,7.286 L6.003,15.523 ZM5.003,14.846 L5.003,7.963 L5.001,7.963 L5.001,7.893 L3.000,7.893 L3.000,7.905 L2.000,7.905 C1.448,7.905 1.000,8.353 1.000,8.905 L1.000,13.905 C1.000,14.458 1.448,14.905 2.000,14.905 L3.000,14.905 L3.000,14.915 L5.001,14.915 L5.001,14.845 L5.003,14.846 ZM19.000,11.405 C19.000,14.271 16.799,16.597 14.000,16.853 L14.000,15.853 C16.247,15.602 18.000,13.718 18.000,11.405 C18.000,9.090 16.247,7.206 14.000,6.954 L14.000,5.955 C16.799,6.211 19.000,8.538 19.000,11.405 Z" class="cls-1"/>
</svg>
