<svg xmlns="http://www.w3.org/2000/svg" xmlns:xlink="http://www.w3.org/1999/xlink" preserveAspectRatio="xMidYMid" width="19" height="19" viewBox="0 0 19 19">
  <defs>
    <style>
      .cls-1 {
        fill: #3c4042;
        fill-rule: evenodd;
      }
    </style>
  </defs>
  <path d="M14.000,14.947 L14.000,13.947 C16.247,13.696 18.000,11.812 18.000,9.499 C18.000,7.184 16.247,5.300 14.000,5.048 L14.000,4.049 C16.799,4.305 19.000,6.632 19.000,9.499 C19.000,12.365 16.799,14.691 14.000,14.947 ZM5.000,13.887 C4.843,13.949 4.679,13.998 4.503,13.998 L1.501,13.998 C0.672,13.998 -0.000,13.252 -0.000,12.331 L-0.000,6.665 C-0.000,5.745 0.672,4.999 1.501,4.999 L4.503,4.999 C4.679,4.999 4.843,5.048 5.000,5.110 L5.000,4.999 L12.000,-0.001 L12.000,18.999 L5.000,13.999 L5.000,13.887 ZM6.003,13.617 L11.000,17.000 L11.000,1.999 L6.003,5.380 L6.003,13.617 ZM5.003,12.940 L5.003,6.057 L5.001,6.057 L5.001,5.987 L3.000,5.987 L3.000,5.999 L2.000,5.999 C1.447,5.999 1.000,6.447 1.000,6.999 L1.000,11.999 C1.000,12.552 1.447,12.999 2.000,12.999 L3.000,12.999 L3.000,13.009 L5.001,13.009 L5.001,12.939 L5.003,12.940 Z" class="cls-1"/>
</svg>
