<svg xmlns="http://www.w3.org/2000/svg" xmlns:xlink="http://www.w3.org/1999/xlink" preserveAspectRatio="xMidYMid" width="25" height="20" viewBox="0 0 25 20">
  <defs>
    <style>
      .cls-1 {
        fill: #3c4042;
        fill-rule: evenodd;
      }
    </style>
  </defs>
  <path d="M20.011,5.998 L9.994,5.998 L9.994,4.998 L20.011,4.998 L20.011,5.998 ZM20.310,8.997 L6.001,8.997 L6.001,7.999 L20.500,7.999 C22.433,7.999 24.000,6.432 24.000,4.499 C24.000,2.566 22.433,0.999 20.500,0.999 L19.987,0.999 L19.987,-0.002 L20.310,-0.002 C22.900,-0.002 25.000,2.012 25.000,4.497 C25.000,6.982 22.900,8.997 20.310,8.997 ZM25.000,15.497 C25.000,17.982 22.900,19.997 20.310,19.997 L18.987,19.997 L18.987,18.999 L20.500,18.999 C22.433,18.999 24.000,17.432 24.000,15.499 C24.000,13.566 22.433,11.999 20.500,11.999 L4.500,11.999 C3.964,11.999 3.463,12.129 3.009,12.344 L3.009,11.304 C3.529,11.113 4.087,10.997 4.676,10.997 L20.310,10.997 C22.900,10.997 25.000,13.012 25.000,15.497 ZM-0.000,15.324 L-0.000,15.627 C-0.002,15.583 -0.014,15.542 -0.014,15.497 C-0.014,15.439 -0.003,15.382 -0.000,15.324 ZM-0.010,4.462 L-0.010,4.532 C-0.010,4.520 -0.014,4.509 -0.014,4.497 C-0.014,4.486 -0.010,4.475 -0.010,4.462 ZM14.012,14.998 L5.005,14.998 L5.005,13.998 L14.012,13.998 L14.012,14.998 Z" class="cls-1"/>
</svg>
