<svg xmlns="http://www.w3.org/2000/svg" xmlns:xlink="http://www.w3.org/1999/xlink" preserveAspectRatio="xMidYMid" width="25" height="25" viewBox="0 0 25 25">
  <defs>
    <style>
      .cls-1 {
        fill: #3c4042;
        fill-rule: evenodd;
      }
    </style>
  </defs>
  <path d="M17.000,18.867 L17.000,17.857 C20.977,17.148 24.000,13.679 24.000,9.498 C24.000,4.803 20.194,0.998 15.500,0.998 C12.026,0.998 9.043,3.084 7.725,6.070 C7.484,6.041 7.248,5.997 7.000,5.997 C3.686,5.997 1.000,8.684 1.000,11.997 C1.000,14.969 3.165,17.418 6.000,17.897 L6.000,18.897 C2.612,18.408 -0.000,15.521 -0.000,11.998 C-0.000,8.132 3.134,4.998 7.000,4.998 C7.043,4.998 7.083,5.010 7.126,5.010 C8.728,2.027 11.876,-0.002 15.500,-0.002 C20.746,-0.002 25.000,4.251 25.000,9.498 C25.000,14.233 21.532,18.147 17.000,18.867 ZM9.014,18.568 C9.010,18.545 9.000,18.523 9.000,18.499 C9.000,18.488 9.005,18.479 9.006,18.468 C9.008,18.445 9.014,18.423 9.020,18.400 C9.038,18.315 9.071,18.238 9.126,18.176 L12.963,12.247 C13.117,12.009 13.456,11.929 13.722,12.066 C13.988,12.202 14.079,12.506 13.925,12.742 L10.523,17.999 L14.500,17.999 C14.659,17.999 14.795,18.079 14.887,18.196 C14.888,18.196 14.888,18.197 14.889,18.198 C14.923,18.242 14.951,18.290 14.969,18.344 C14.979,18.372 14.981,18.400 14.986,18.430 C14.989,18.453 15.000,18.475 15.000,18.499 C15.000,18.510 14.994,18.520 14.994,18.530 C14.992,18.553 14.985,18.575 14.980,18.598 C14.962,18.683 14.928,18.761 14.873,18.824 L11.036,24.751 C10.883,24.988 10.543,25.069 10.278,24.932 C10.012,24.796 9.921,24.492 10.074,24.256 L13.476,18.999 L9.500,18.999 C9.340,18.999 9.204,18.919 9.112,18.802 C9.112,18.802 9.112,18.801 9.112,18.801 C9.077,18.757 9.049,18.709 9.031,18.654 C9.021,18.626 9.018,18.598 9.014,18.568 Z" class="cls-1"/>
</svg>
