<svg xmlns="http://www.w3.org/2000/svg" xmlns:xlink="http://www.w3.org/1999/xlink" preserveAspectRatio="xMidYMid" width="23" height="23" viewBox="0 0 23 23">
  <defs>
    <style>
      .cls-1 {
        fill: #3c4042;
        fill-rule: evenodd;
      }
    </style>
  </defs>
  <path d="M19.998,11.999 L19.998,11.000 L22.998,11.000 L22.998,11.999 L19.998,11.999 ZM17.156,5.136 L19.277,3.015 L19.984,3.722 L17.863,5.844 L17.156,5.136 ZM11.500,18.998 C7.358,18.998 4.000,15.640 4.000,11.497 C4.000,7.355 7.358,3.997 11.500,3.997 C15.642,3.997 19.000,7.355 19.000,11.497 C19.000,15.640 15.642,18.998 11.500,18.998 ZM11.500,5.008 C7.916,5.008 5.011,7.913 5.011,11.497 C5.011,15.081 7.916,17.985 11.500,17.985 C15.083,17.985 17.989,15.081 17.989,11.497 C17.989,7.913 15.083,5.008 11.500,5.008 ZM11.000,-0.003 L12.000,-0.003 L12.000,2.997 L11.000,2.997 L11.000,-0.003 ZM3.013,3.720 L3.720,3.012 L5.841,5.134 L5.134,5.841 L3.013,3.720 ZM-0.002,11.000 L2.998,11.000 L2.998,11.999 L-0.002,11.999 L-0.002,11.000 ZM5.841,17.865 L3.720,19.986 L3.013,19.279 L5.134,17.158 L5.841,17.865 ZM12.000,22.998 L11.000,22.998 L11.000,19.998 L12.000,19.998 L12.000,22.998 ZM19.984,19.276 L19.277,19.983 L17.155,17.862 L17.863,17.155 L19.984,19.276 Z" class="cls-1"/>
</svg>
