<svg xmlns="http://www.w3.org/2000/svg" xmlns:xlink="http://www.w3.org/1999/xlink" preserveAspectRatio="xMidYMid" width="20" height="20" viewBox="0 0 20 20">
  <defs>
    <style>
      .cls-1 {
        fill: #3c4042;
        fill-rule: evenodd;
      }
    </style>
  </defs>
  <path d="M15.000,5.998 L4.000,5.998 L4.000,4.998 L15.000,4.998 L15.000,5.998 ZM15.312,8.997 L1.000,8.997 L1.000,7.999 L15.500,7.999 C17.433,7.999 19.000,6.432 19.000,4.499 C19.000,2.566 17.433,0.999 15.500,0.999 L15.000,0.999 L15.000,-0.002 L15.312,-0.002 C17.901,-0.002 20.000,2.012 20.000,4.498 C20.000,6.983 17.901,8.997 15.312,8.997 ZM20.000,15.498 C20.000,17.982 17.901,19.998 15.312,19.998 L14.000,19.998 L14.000,18.999 L15.500,18.999 C17.433,18.999 19.000,17.432 19.000,15.499 C19.000,13.566 17.433,11.999 15.500,11.999 L-0.000,11.999 L-0.000,10.998 L15.312,10.998 C17.901,10.998 20.000,13.013 20.000,15.498 ZM12.000,16.999 C12.000,15.895 11.104,14.999 10.000,14.999 L3.000,14.999 L3.000,13.998 L9.800,13.998 C11.567,13.998 13.000,15.341 13.000,16.998 C13.000,18.654 11.567,19.998 9.800,19.998 L9.000,19.998 L9.000,18.999 L10.000,18.999 C11.104,18.999 12.000,18.103 12.000,16.999 Z" class="cls-1"/>
</svg>
