<svg xmlns="http://www.w3.org/2000/svg" xmlns:xlink="http://www.w3.org/1999/xlink" preserveAspectRatio="xMidYMid" width="22" height="24" viewBox="0 0 22 24">
  <defs>
    <style>
      .cls-1 {
        fill: #3c4042;
        fill-rule: evenodd;
      }
    </style>
  </defs>
  <path d="M12.030,1.000 C12.110,1.000 12.189,1.001 12.269,1.003 C10.391,3.063 9.313,5.765 9.313,8.571 C9.313,14.511 13.934,19.395 19.773,19.826 C17.729,21.842 14.959,23.000 12.030,23.000 C5.954,23.000 1.011,18.065 1.011,12.000 C1.011,5.934 5.954,1.000 12.030,1.000 M12.030,-0.000 C5.392,-0.000 0.011,5.372 0.011,12.000 C0.011,18.628 5.392,24.000 12.030,24.000 C16.176,24.000 19.828,21.906 21.989,18.720 C21.535,18.780 21.085,18.857 20.615,18.857 C14.926,18.857 10.313,14.252 10.313,8.571 C10.313,5.155 12.000,2.149 14.567,0.280 C13.748,0.103 12.902,-0.000 12.030,-0.000 L12.030,-0.000 Z" class="cls-1"/>
</svg>
