<svg xmlns="http://www.w3.org/2000/svg" xmlns:xlink="http://www.w3.org/1999/xlink" preserveAspectRatio="xMidYMid" width="25" height="25" viewBox="0 0 25 25">
  <defs>
    <style>
      .cls-1 {
        fill: #3c4042;
        fill-rule: evenodd;
      }
    </style>
  </defs>
  <path d="M16.000,18.972 L16.000,18.998 L7.000,18.998 C3.134,18.998 -0.000,15.864 -0.000,11.997 C-0.000,8.132 3.134,4.998 7.000,4.998 C7.043,4.998 7.083,5.010 7.126,5.010 C8.728,2.027 11.876,-0.002 15.500,-0.002 C20.746,-0.002 25.000,4.251 25.000,9.497 C25.000,14.576 21.012,18.710 16.000,18.972 ZM15.500,0.998 C12.026,0.998 9.043,3.084 7.725,6.070 C7.484,6.041 7.248,5.997 7.000,5.997 C3.686,5.997 1.000,8.684 1.000,11.997 C1.000,14.969 3.165,17.418 6.000,17.897 L6.000,17.998 L17.000,17.998 L17.000,17.857 C20.978,17.148 24.000,13.679 24.000,9.497 C24.000,4.802 20.194,0.998 15.500,0.998 ZM9.001,22.003 L7.998,22.003 L7.998,20.993 L9.001,20.993 L9.001,22.003 ZM11.001,25.003 L9.998,25.003 L9.998,23.993 L11.001,23.993 L11.001,25.003 ZM14.001,22.003 L12.998,22.003 L12.998,20.993 L14.001,20.993 L14.001,22.003 ZM16.001,25.003 L14.998,25.003 L14.998,23.993 L16.001,23.993 L16.001,25.003 ZM19.001,22.003 L17.998,22.003 L17.998,20.993 L19.001,20.993 L19.001,22.003 Z" class="cls-1"/>
</svg>
