<svg xmlns="http://www.w3.org/2000/svg" xmlns:xlink="http://www.w3.org/1999/xlink" preserveAspectRatio="xMidYMid" width="19" height="25" viewBox="0 0 19 25">
  <defs>
    <style>
      .cls-1 {
        fill: #3c4042;
        fill-rule: evenodd;
      }
    </style>
  </defs>
  <path d="M9.499,12.499 C9.499,18.008 13.630,22.553 19.000,23.312 C17.134,24.379 14.975,24.999 12.666,24.999 C5.670,24.999 -0.001,19.403 -0.001,12.499 C-0.001,5.595 5.670,-0.001 12.666,-0.001 C14.975,-0.001 17.134,0.619 19.001,1.686 C13.630,2.445 9.499,6.990 9.499,12.499 ZM1.012,12.499 C1.012,18.840 6.240,23.999 12.666,23.999 C13.786,23.999 14.900,23.836 15.972,23.521 C11.552,21.710 8.485,17.386 8.485,12.499 C8.485,7.612 11.552,3.288 15.972,1.477 C14.900,1.162 13.786,0.999 12.666,0.999 C6.240,0.999 1.012,6.158 1.012,12.499 Z" class="cls-1"/>
</svg>
