<svg xmlns="http://www.w3.org/2000/svg" xmlns:xlink="http://www.w3.org/1999/xlink" preserveAspectRatio="xMidYMid" width="25" height="19" viewBox="0 0 25 19">
  <defs>
    <style>
      .cls-1 {
        fill: #3c4042;
        fill-rule: evenodd;
      }
    </style>
  </defs>
  <path d="M18.000,18.972 L18.000,18.997 L7.000,18.997 C3.134,18.997 -0.000,15.863 -0.000,11.997 C-0.000,8.743 2.224,6.015 5.233,5.231 C6.018,2.222 8.745,-0.002 12.000,-0.002 C14.810,-0.002 17.227,1.658 18.341,4.048 C22.087,4.466 25.000,7.640 25.000,11.497 C25.000,15.471 21.908,18.713 18.000,18.972 ZM17.637,5.011 C16.814,2.679 14.613,0.997 12.000,0.997 C8.997,0.997 6.532,3.209 6.091,6.089 C3.212,6.530 1.000,8.995 1.000,11.997 C1.000,15.311 3.686,17.998 7.000,17.998 L18.000,17.998 L18.000,17.947 C21.352,17.687 24.000,14.916 24.000,11.497 C24.000,7.955 21.162,5.085 17.637,5.011 Z" class="cls-1"/>
</svg>
