<svg xmlns="http://www.w3.org/2000/svg" xmlns:xlink="http://www.w3.org/1999/xlink" preserveAspectRatio="xMidYMid" width="25" height="19" viewBox="0 0 25 19">
  <defs>
    <style>
      .cls-1 {
        fill: #3c4042;
        fill-rule: evenodd;
      }
    </style>
  </defs>
  <path d="M16.000,18.972 L16.000,18.997 L7.000,18.997 L7.000,18.997 C3.134,18.997 -0.000,15.863 -0.000,11.997 C-0.000,8.132 3.134,4.997 7.000,4.997 C7.043,4.997 7.086,5.004 7.129,5.004 C8.732,2.024 11.879,-0.002 15.500,-0.002 C20.747,-0.002 25.000,4.250 25.000,9.497 C25.000,14.576 21.012,18.710 16.000,18.972 ZM15.500,0.998 C12.026,0.998 9.043,3.084 7.725,6.071 C7.484,6.041 7.248,5.997 7.000,5.997 C3.686,5.997 1.000,8.684 1.000,11.997 C1.000,14.969 3.165,17.419 6.000,17.897 L6.000,17.997 L17.000,17.997 L17.000,17.857 C20.977,17.148 24.000,13.679 24.000,9.497 C24.000,4.803 20.194,0.998 15.500,0.998 Z" class="cls-1"/>
</svg>
