<svg xmlns="http://www.w3.org/2000/svg" xmlns:xlink="http://www.w3.org/1999/xlink" preserveAspectRatio="xMidYMid" width="25" height="25" viewBox="0 0 25 25">
  <defs>
    <style>
      .cls-1 {
        fill: #3c4042;
        fill-rule: evenodd;
      }
    </style>
  </defs>
  <path d="M18.000,18.947 L18.000,18.997 L17.504,18.997 C17.502,18.997 17.501,18.997 17.500,18.997 C17.497,18.997 17.495,18.997 17.492,18.997 L7.007,18.997 C7.005,18.997 7.002,18.997 7.000,18.997 C3.134,18.997 -0.000,15.864 -0.000,11.998 C-0.000,8.740 2.235,6.027 5.248,5.245 C6.029,2.232 8.742,-0.003 12.000,-0.003 C14.822,-0.003 17.239,1.676 18.346,4.083 C22.085,4.508 25.000,7.646 25.000,11.498 C25.000,15.468 21.904,18.685 18.000,18.947 ZM17.637,5.012 C16.814,2.679 14.613,0.998 12.000,0.998 C8.997,0.998 6.532,3.210 6.091,6.088 C3.212,6.529 1.000,8.995 1.000,11.998 C1.000,15.311 3.686,17.997 7.000,17.997 L18.000,17.997 L18.000,17.946 C21.352,17.687 24.000,14.916 24.000,11.498 C24.000,7.955 21.162,5.086 17.637,5.012 ZM9.001,22.003 L7.998,22.003 L7.998,20.993 L9.001,20.993 L9.001,22.003 ZM11.002,25.003 L9.998,25.003 L9.998,23.993 L11.002,23.993 L11.002,25.003 ZM14.001,22.003 L12.998,22.003 L12.998,20.993 L14.001,20.993 L14.001,22.003 ZM16.001,25.003 L14.998,25.003 L14.998,23.993 L16.001,23.993 L16.001,25.003 ZM19.001,22.003 L17.998,22.003 L17.998,20.993 L19.001,20.993 L19.001,22.003 Z" class="cls-1"/>
</svg>
