<svg xmlns="http://www.w3.org/2000/svg" xmlns:xlink="http://www.w3.org/1999/xlink" preserveAspectRatio="xMidYMid" width="23" height="23" viewBox="0 0 23 23">
  <defs>
    <style>
      .cls-1 {
        fill: #3c4042;
        fill-rule: evenodd;
      }
    </style>
  </defs>
  <path d="M18.998,11.999 L18.998,10.999 L22.999,10.999 L22.999,11.999 L18.998,11.999 ZM16.449,5.844 L19.277,3.015 L19.984,3.722 L17.156,6.551 L16.449,5.844 ZM11.500,16.997 C8.462,16.997 6.000,14.535 6.000,11.498 C6.000,8.460 8.462,5.997 11.500,5.997 C14.537,5.997 17.000,8.460 17.000,11.498 C17.000,14.535 14.537,16.997 11.500,16.997 ZM11.500,6.988 C9.009,6.988 6.990,9.006 6.990,11.497 C6.990,13.987 9.009,16.007 11.500,16.007 C13.990,16.007 16.010,13.987 16.010,11.497 C16.010,9.006 13.990,6.988 11.500,6.988 ZM11.000,-0.003 L12.000,-0.003 L12.000,3.998 L11.000,3.998 L11.000,-0.003 ZM3.013,3.720 L3.720,3.013 L6.549,5.842 L5.842,6.549 L3.013,3.720 ZM3.999,11.999 L-0.002,11.999 L-0.002,10.999 L3.999,10.999 L3.999,11.999 ZM6.549,17.157 L3.721,19.985 L3.014,19.278 L5.842,16.450 L6.549,17.157 ZM12.000,22.998 L11.000,22.998 L11.000,18.998 L12.000,18.998 L12.000,22.998 ZM19.984,19.276 L19.277,19.983 L16.449,17.155 L17.156,16.448 L19.984,19.276 Z" class="cls-1"/>
</svg>
