<svg xmlns="http://www.w3.org/2000/svg" xmlns:xlink="http://www.w3.org/1999/xlink" preserveAspectRatio="xMidYMid" width="25" height="15" viewBox="0 0 25 15">
  <defs>
    <style>
      .cls-1 {
        fill: #3c4042;
        fill-rule: evenodd;
      }
    </style>
  </defs>
  <path d="M-0.000,14.998 L-0.000,13.998 L24.999,13.998 L24.999,14.998 L-0.000,14.998 ZM20.991,6.253 L23.254,3.990 L24.008,4.745 L21.745,7.007 L20.991,6.253 ZM20.869,11.998 C20.160,8.014 16.687,4.987 12.500,4.987 C8.312,4.987 4.839,8.014 4.130,11.998 L3.129,11.998 C3.850,7.466 7.764,3.997 12.500,3.997 C17.235,3.997 21.150,7.466 21.870,11.998 L20.869,11.998 ZM12.000,-0.001 L13.000,-0.001 L13.000,2.998 L12.000,2.998 L12.000,-0.001 ZM0.991,4.745 L1.746,3.990 L4.008,6.253 L3.254,7.007 L0.991,4.745 Z" class="cls-1"/>
</svg>
