<svg xmlns="http://www.w3.org/2000/svg" xmlns:xlink="http://www.w3.org/1999/xlink" preserveAspectRatio="xMidYMid" width="25" height="23" viewBox="0 0 25 23">
  <defs>
    <style>
      .cls-1 {
        fill: #3c4042;
        fill-rule: evenodd;
      }
    </style>
  </defs>
  <path d="M25.000,15.998 L25.000,16.998 L-0.000,16.998 L-0.000,15.998 L3.512,15.998 C3.183,14.887 2.999,13.715 2.999,12.499 C2.999,5.595 8.670,-0.000 15.666,-0.000 C17.975,-0.000 20.135,0.620 22.001,1.686 C16.630,2.445 12.499,6.990 12.499,12.499 C12.499,13.725 12.713,14.899 13.091,15.998 L25.000,15.998 ZM18.972,1.477 C17.900,1.162 16.786,0.999 15.666,0.999 C9.240,0.999 4.012,6.158 4.012,12.499 C4.012,13.719 4.210,14.894 4.568,15.998 L12.027,15.998 C11.676,14.886 11.486,13.710 11.486,12.499 C11.486,7.611 14.552,3.288 18.972,1.477 ZM3.500,18.999 L15.500,18.999 C15.776,18.999 16.000,19.223 16.000,19.499 C16.000,19.775 15.776,19.999 15.500,19.999 L3.500,19.999 C3.224,19.999 3.000,19.775 3.000,19.499 C3.000,19.223 3.224,18.999 3.500,18.999 ZM5.500,21.999 L13.500,21.999 C13.776,21.999 14.000,22.222 14.000,22.499 C14.000,22.776 13.776,22.999 13.500,22.999 L5.500,22.999 C5.224,22.999 5.000,22.776 5.000,22.499 C5.000,22.222 5.224,21.999 5.500,21.999 Z" class="cls-1"/>
</svg>
