<svg xmlns="http://www.w3.org/2000/svg" xmlns:xlink="http://www.w3.org/1999/xlink" preserveAspectRatio="xMidYMid" width="22" height="24" viewBox="0 0 22 24">
  <defs>
    <style>
      .cls-1 {
        fill: #3c4042;
        fill-rule: evenodd;
      }
    </style>
  </defs>
  <path d="M21.230,10.399 L2.769,11.999 C2.344,11.999 2.000,11.642 2.000,11.199 L2.000,3.996 L3.000,3.996 L3.000,10.976 L11.000,10.282 L11.000,1.717 L3.043,1.027 L2.992,0.997 L2.000,0.997 L2.000,0.799 C2.000,0.358 2.344,-0.001 2.769,-0.001 L21.230,1.599 C21.655,1.599 22.000,1.957 22.000,2.399 L22.000,9.599 C22.000,10.042 21.655,10.399 21.230,10.399 ZM17.000,2.237 L12.000,1.803 L12.000,10.196 L17.000,9.763 L17.000,2.237 ZM21.000,2.583 L18.000,2.323 L18.000,9.676 L21.000,9.416 L21.000,2.583 ZM0.500,23.999 C0.224,23.999 -0.000,23.775 -0.000,23.499 L-0.000,0.499 C-0.000,0.223 0.224,-0.001 0.500,-0.001 C0.776,-0.001 1.000,0.223 1.000,0.499 L1.000,23.499 C1.000,23.775 0.776,23.999 0.500,23.999 Z" class="cls-1"/>
</svg>
