<svg xmlns="http://www.w3.org/2000/svg" xmlns:xlink="http://www.w3.org/1999/xlink" preserveAspectRatio="xMidYMid" width="25" height="23" viewBox="0 0 25 23">
  <defs>
    <style>
      .cls-1 {
        fill: #3c4042;
        fill-rule: evenodd;
      }
    </style>
  </defs>
  <path d="M11.716,23.006 C6.647,23.006 2.244,20.318 0.006,16.371 C1.106,16.599 2.245,16.729 3.417,16.729 C12.125,16.729 19.185,10.054 19.185,1.821 C19.185,1.200 19.133,0.593 19.055,-0.007 C22.634,2.242 24.993,6.084 24.993,10.452 C24.993,17.385 19.050,23.006 11.716,23.006 ZM20.183,2.074 C20.039,10.718 12.574,17.710 3.417,17.710 C2.984,17.710 2.549,17.692 2.111,17.659 C4.418,20.392 7.932,22.025 11.716,22.025 C18.485,22.025 23.993,16.833 23.993,10.452 C23.993,7.252 22.599,4.240 20.183,2.074 Z" class="cls-1"/>
</svg>
