<svg xmlns="http://www.w3.org/2000/svg" xmlns:xlink="http://www.w3.org/1999/xlink" preserveAspectRatio="xMidYMid" width="25" height="25" viewBox="0 0 25 25">
  <defs>
    <style>
      .cls-1 {
        fill: #3c4042;
        fill-rule: evenodd;
      }
    </style>
  </defs>
  <path d="M-0.000,18.998 L-0.000,17.998 L25.000,17.998 L25.000,18.998 L-0.000,18.998 ZM23.453,15.998 C23.806,14.893 24.000,13.718 24.000,12.497 C24.000,6.145 18.851,0.997 12.500,0.997 C6.148,0.997 1.000,6.145 1.000,12.497 C1.000,13.718 1.194,14.893 1.546,15.998 L0.506,15.998 C0.182,14.886 -0.000,13.713 -0.000,12.497 C-0.000,5.594 5.596,-0.003 12.500,-0.003 C19.403,-0.003 25.000,5.594 25.000,12.497 C25.000,13.713 24.818,14.886 24.494,15.998 L23.453,15.998 ZM23.000,21.998 L2.000,21.998 L2.000,20.998 L23.000,20.998 L23.000,21.998 ZM12.500,24.998 C10.759,24.998 9.102,24.640 7.597,23.997 L17.403,23.997 C15.897,24.640 14.240,24.998 12.500,24.998 Z" class="cls-1"/>
</svg>
