<svg xmlns="http://www.w3.org/2000/svg" xmlns:xlink="http://www.w3.org/1999/xlink" preserveAspectRatio="xMidYMid" width="25" height="24" viewBox="0 0 25 24">
  <defs>
    <style>
      .cls-1 {
        fill: #3c4042;
        fill-rule: evenodd;
      }
    </style>
  </defs>
  <path d="M16.000,23.972 L16.000,23.997 L7.000,23.997 L7.000,23.997 C3.134,23.997 -0.000,20.864 -0.000,16.998 C-0.000,15.628 0.408,14.361 1.087,13.282 C0.395,12.009 -0.000,10.550 -0.000,8.997 C-0.000,4.027 4.029,-0.003 9.000,-0.003 C12.590,-0.003 15.680,2.105 17.125,5.146 C21.596,5.919 25.000,9.806 25.000,14.498 C25.000,19.576 21.012,23.710 16.000,23.972 ZM9.000,0.998 C4.581,0.998 1.000,4.578 1.000,8.997 C1.000,10.214 1.283,11.359 1.769,12.389 C3.051,10.934 4.908,9.998 7.000,9.998 C7.043,9.998 7.083,10.010 7.126,10.010 C8.729,7.027 11.876,4.997 15.500,4.997 C15.646,4.997 15.789,5.013 15.934,5.019 C14.554,2.618 11.968,0.998 9.000,0.998 ZM15.500,5.997 C12.026,5.997 9.043,8.084 7.725,11.071 C7.484,11.041 7.248,10.997 7.000,10.997 C3.686,10.997 1.000,13.684 1.000,16.997 C1.000,19.969 3.165,22.418 6.000,22.897 L6.000,22.998 L17.000,22.998 L17.000,22.857 C20.978,22.148 24.000,18.679 24.000,14.498 C24.000,9.803 20.194,5.997 15.500,5.997 Z" class="cls-1"/>
</svg>
