<svg xmlns="http://www.w3.org/2000/svg" xmlns:xlink="http://www.w3.org/1999/xlink" preserveAspectRatio="xMidYMid" width="21" height="20" viewBox="0 0 21 20">
  <defs>
    <style>
      .cls-1 {
        fill: #3c4042;
        fill-rule: evenodd;
      }
    </style>
  </defs>
  <path d="M17.500,6.997 C16.418,6.997 15.463,6.496 14.821,5.725 L6.899,8.696 C6.959,8.954 7.000,9.220 7.000,9.497 C7.000,10.161 6.804,10.775 6.483,11.305 L14.551,14.627 C15.172,13.650 16.257,12.997 17.500,12.997 C19.433,12.997 21.000,14.565 21.000,16.497 C21.000,18.431 19.433,19.997 17.500,19.997 C15.567,19.997 14.000,18.431 14.000,16.497 C14.000,16.164 14.061,15.847 14.148,15.543 L5.809,12.109 C5.192,12.655 4.389,12.997 3.500,12.997 C1.567,12.997 -0.000,11.430 -0.000,9.497 C-0.000,7.564 1.567,5.997 3.500,5.997 C4.800,5.997 5.922,6.715 6.525,7.768 L14.276,4.862 C14.098,4.442 14.000,3.981 14.000,3.497 C14.000,1.564 15.567,-0.003 17.500,-0.003 C19.433,-0.003 21.000,1.564 21.000,3.497 C21.000,5.430 19.433,6.997 17.500,6.997 ZM17.500,18.997 C18.880,18.997 20.000,17.877 20.000,16.496 C20.000,15.116 18.880,13.996 17.500,13.996 C16.119,13.996 15.000,15.116 15.000,16.496 C15.000,17.877 16.119,18.997 17.500,18.997 ZM3.500,6.996 C2.119,6.996 1.000,8.115 1.000,9.496 C1.000,10.877 2.119,11.996 3.500,11.996 C4.880,11.996 6.000,10.877 6.000,9.496 C6.000,8.115 4.880,6.996 3.500,6.996 ZM17.500,0.996 C16.119,0.996 15.000,2.115 15.000,3.496 C15.000,4.877 16.119,5.996 17.500,5.996 C18.880,5.996 20.000,4.877 20.000,3.496 C20.000,2.115 18.880,0.996 17.500,0.996 Z" class="cls-1"/>
</svg>
