<svg xmlns="http://www.w3.org/2000/svg" xmlns:xlink="http://www.w3.org/1999/xlink" preserveAspectRatio="xMidYMid" width="22" height="24" viewBox="0 0 22 24">
  <defs>
    <style>
      .cls-1 {
        fill: #3c4042;
        fill-rule: evenodd;
      }
    </style>
  </defs>
  <path d="M18.000,23.998 L18.000,-0.001 L22.000,-0.001 L22.000,23.998 L18.000,23.998 ZM21.000,0.998 L19.000,0.998 L19.000,22.998 L21.000,22.998 L21.000,0.998 ZM12.000,6.999 L16.000,6.999 L16.000,23.998 L12.000,23.998 L12.000,6.999 ZM13.000,22.998 L15.000,22.998 L15.000,7.999 L13.000,7.999 L13.000,22.998 ZM6.000,3.999 L10.000,3.999 L10.000,23.998 L6.000,23.998 L6.000,3.999 ZM7.000,22.998 L9.000,22.998 L9.000,4.998 L7.000,4.998 L7.000,22.998 ZM-0.000,11.999 L4.000,11.999 L4.000,23.998 L-0.000,23.998 L-0.000,11.999 ZM1.000,22.998 L3.000,22.998 L3.000,12.998 L1.000,12.998 L1.000,22.998 Z" class="cls-1"/>
</svg>
