<svg xmlns="http://www.w3.org/2000/svg" xmlns:xlink="http://www.w3.org/1999/xlink" preserveAspectRatio="xMidYMid" width="23" height="25" viewBox="0 0 23 25">
  <defs>
    <style>
      .cls-1 {
        fill: #3c4042;
        fill-rule: evenodd;
      }
    </style>
  </defs>
  <path d="M21.000,19.999 L15.000,19.999 L15.000,19.999 L13.000,19.999 L13.000,17.999 C13.000,17.999 13.000,17.999 13.000,17.999 L13.000,16.999 L4.000,16.999 L4.000,22.999 C4.000,24.104 3.104,25.000 2.000,25.000 C0.895,25.000 -0.000,24.104 -0.000,22.999 L-0.000,16.999 L-0.000,2.999 L-0.000,1.999 C-0.000,0.894 0.895,-0.001 2.000,-0.001 C3.104,-0.001 4.000,0.894 4.000,1.999 L4.000,2.999 L13.001,2.999 L13.001,2.998 L14.002,2.998 L14.002,6.000 L15.000,6.000 L21.000,6.000 C22.104,6.000 23.000,6.895 23.000,7.999 L23.000,17.999 C23.000,19.104 22.104,19.999 21.000,19.999 ZM3.000,1.999 C3.000,1.447 2.552,0.999 2.000,0.999 C1.448,0.999 1.000,1.447 1.000,1.999 L1.000,22.999 C1.000,23.552 1.448,23.999 2.000,23.999 C2.552,23.999 3.000,23.552 3.000,22.999 L3.000,1.999 ZM13.000,7.999 L13.000,3.999 L4.000,3.999 L4.000,15.999 L13.000,15.999 L13.000,7.999 ZM22.000,7.999 C22.000,7.447 21.552,6.999 21.000,6.999 L15.000,6.999 L15.000,6.999 L14.000,6.999 L14.000,7.999 L14.000,17.999 L14.000,19.000 L18.000,19.000 L18.000,18.999 L21.000,18.999 C21.552,18.999 22.000,18.551 22.000,17.999 L22.000,7.999 Z" class="cls-1"/>
</svg>
