<svg xmlns="http://www.w3.org/2000/svg" xmlns:xlink="http://www.w3.org/1999/xlink" preserveAspectRatio="xMidYMid" width="25" height="25" viewBox="0 0 25 25">
  <defs>
    <style>
      .cls-1 {
        fill: #3c4042;
        fill-rule: evenodd;
      }
    </style>
  </defs>
  <path d="M25.000,5.500 L25.000,24.216 C25.000,24.647 24.650,24.997 24.218,24.997 L8.000,24.997 L8.000,23.998 L23.214,23.998 C23.648,23.998 24.000,23.645 24.000,23.211 L24.000,5.999 L6.000,5.999 L5.000,5.999 L1.000,5.999 L1.000,16.998 L-0.000,16.998 L-0.000,24.216 L-0.000,24.216 L-0.000,0.778 C-0.000,0.347 0.349,-0.003 0.781,-0.003 L24.218,-0.003 C24.650,-0.003 25.000,0.347 25.000,0.778 L25.000,5.499 C25.000,5.499 25.000,5.499 25.000,5.499 C25.000,5.499 25.000,5.499 25.000,5.500 ZM5.000,0.997 L1.785,0.997 C1.351,0.997 1.000,1.349 1.000,1.783 L1.000,4.999 L5.000,4.999 L5.000,0.997 ZM24.000,1.783 C24.000,1.349 23.648,0.997 23.214,0.997 L6.000,0.997 L6.000,4.999 L24.000,4.999 L24.000,1.783 ZM9.578,9.579 C11.729,7.426 15.215,7.426 17.366,9.579 C19.516,11.733 19.516,15.225 17.366,17.379 C15.349,19.399 12.171,19.499 10.008,17.731 L4.730,23.010 L3.990,22.269 L9.264,16.994 C7.459,14.828 7.547,11.613 9.578,9.579 ZM10.302,16.653 C12.060,18.407 14.911,18.407 16.670,16.653 C18.428,14.898 18.428,12.055 16.670,10.301 C14.911,8.546 12.060,8.546 10.302,10.301 C8.543,12.055 8.543,14.898 10.302,16.653 Z" class="cls-1"/>
</svg>
