<svg xmlns="http://www.w3.org/2000/svg" xmlns:xlink="http://www.w3.org/1999/xlink" preserveAspectRatio="xMidYMid" width="17" height="17.97" viewBox="0 0 17 17.97">
  <defs>
    <style>
      .cls-1 {
        fill: #3c4042;
        fill-rule: evenodd;
      }
    </style>
  </defs>
  <path d="M15.975,17.969 C15.980,17.801 16.000,17.638 16.000,17.470 C16.000,8.525 8.879,1.260 -0.000,0.994 L-0.000,-0.006 C9.431,0.261 17.000,7.973 17.000,17.470 C17.000,17.638 16.980,17.801 16.975,17.969 L15.975,17.969 ZM-0.000,13.070 L-0.000,12.070 C2.835,12.549 5.000,14.998 5.000,17.969 L4.000,17.969 C4.000,15.551 2.282,13.533 -0.000,13.070 ZM10.000,17.470 C10.000,11.839 5.565,7.257 -0.000,6.994 L-0.000,5.994 C6.117,6.258 11.000,11.287 11.000,17.470 C11.000,17.638 10.982,17.802 10.975,17.969 L9.975,17.969 C9.983,17.802 10.000,17.638 10.000,17.470 Z" class="cls-1"/>
</svg>
