<svg xmlns="http://www.w3.org/2000/svg" xmlns:xlink="http://www.w3.org/1999/xlink" preserveAspectRatio="xMidYMid" width="25" height="25" viewBox="0 0 25 25">
  <defs>
    <style>
      .cls-1 {
        fill: #3c4042;
        fill-rule: evenodd;
      }
    </style>
  </defs>
  <path d="M21.923,24.997 L8.077,24.997 C6.377,24.997 5.000,23.620 5.000,21.920 L5.000,19.997 L5.000,19.997 L5.000,18.999 L5.000,18.999 L5.000,10.998 L5.000,9.998 L5.000,8.075 C5.000,6.375 6.377,4.998 8.077,4.998 L19.000,4.998 L19.000,4.997 L20.000,4.997 L20.000,4.998 L21.923,4.998 C23.622,4.998 25.000,6.375 25.000,8.075 L25.000,9.998 L25.000,10.998 L25.000,21.920 C25.000,23.620 23.622,24.997 21.923,24.997 ZM24.000,7.999 C24.000,6.894 23.104,5.999 22.000,5.999 L8.000,5.999 C6.895,5.999 6.000,6.894 6.000,7.999 L6.000,9.998 L24.000,9.998 L24.000,7.999 ZM24.000,10.998 L6.000,10.998 L6.000,21.999 C6.000,23.103 6.895,23.999 8.000,23.999 L22.000,23.999 C23.104,23.999 24.000,23.103 24.000,21.999 L24.000,10.998 ZM5.000,5.998 L5.000,5.998 L5.000,4.998 L5.000,4.998 L5.000,5.998 ZM17.000,0.998 L3.000,0.998 C1.895,0.998 1.000,1.895 1.000,2.999 L1.000,4.998 L3.000,4.998 L3.000,5.998 L1.000,5.998 L1.000,16.999 C1.000,18.104 1.895,18.999 3.000,18.999 L3.000,19.989 C1.337,19.947 -0.000,18.594 -0.000,16.921 L-0.000,5.998 L-0.000,4.998 L-0.000,3.074 C-0.000,1.375 1.377,-0.002 3.077,-0.002 L16.923,-0.002 C18.595,-0.002 19.949,1.334 19.992,2.996 L18.999,2.996 C18.998,1.893 18.103,0.998 17.000,0.998 Z" class="cls-1"/>
</svg>
