<svg xmlns="http://www.w3.org/2000/svg" xmlns:xlink="http://www.w3.org/1999/xlink" preserveAspectRatio="xMidYMid" width="25" height="7" viewBox="0 0 25 7">
  <defs>
    <style>
      .cls-1 {
        fill: #3c4042;
        fill-rule: evenodd;
      }
    </style>
  </defs>
  <path d="M24.500,6.999 L17.500,6.999 C17.224,6.999 17.000,6.775 17.000,6.499 C17.000,6.223 17.224,5.999 17.500,5.999 L24.000,5.999 L24.000,0.999 L13.500,0.999 C13.224,0.999 13.000,0.775 13.000,0.499 C13.000,0.223 13.224,-0.001 13.500,-0.001 L24.500,-0.001 C24.776,-0.001 25.000,0.223 25.000,0.499 L25.000,6.499 C25.000,6.775 24.776,6.999 24.500,6.999 ZM16.000,3.500 C16.000,3.775 15.776,3.999 15.500,3.999 L9.500,3.999 C9.224,3.999 9.000,3.775 9.000,3.500 C9.000,3.223 9.224,2.999 9.500,2.999 L15.500,2.999 C15.776,2.999 16.000,3.223 16.000,3.500 ZM7.500,0.999 L1.000,0.999 L1.000,5.999 L11.500,5.999 C11.776,5.999 12.000,6.223 12.000,6.499 C12.000,6.775 11.776,6.999 11.500,6.999 L0.500,6.999 C0.224,6.999 -0.000,6.775 -0.000,6.499 L-0.000,0.499 C-0.000,0.223 0.224,-0.001 0.500,-0.001 L7.500,-0.001 C7.776,-0.001 8.000,0.223 8.000,0.499 C8.000,0.775 7.776,0.999 7.500,0.999 Z" class="cls-1"/>
</svg>
