<svg xmlns="http://www.w3.org/2000/svg" xmlns:xlink="http://www.w3.org/1999/xlink" preserveAspectRatio="xMidYMid" width="23" height="25" viewBox="0 0 23 25">
  <defs>
    <style>
      .cls-1 {
        fill: #3c4042;
        fill-rule: evenodd;
      }
    </style>
  </defs>
  <path d="M-0.000,25.000 L-0.000,6.000 L-0.000,4.999 L-0.000,0.001 L23.000,0.001 L23.000,4.999 L23.000,6.000 L23.000,25.000 L-0.000,25.000 ZM21.997,1.000 L1.002,1.000 L1.002,4.999 L21.997,4.999 L21.997,1.000 ZM21.997,6.000 L1.002,6.000 L1.002,24.000 L21.997,24.000 L21.997,6.000 ZM11.005,8.318 C11.031,8.251 11.070,8.191 11.121,8.142 C11.124,8.133 11.124,8.123 11.131,8.116 C11.229,8.018 11.357,7.979 11.484,7.984 C11.612,7.979 11.740,8.018 11.837,8.116 C11.863,8.142 11.857,8.178 11.875,8.208 L15.853,13.181 C16.038,13.367 16.038,13.668 15.853,13.853 C15.667,14.039 15.367,14.039 15.182,13.853 L11.969,9.835 L11.969,21.499 C11.969,21.776 11.745,21.999 11.469,21.999 C11.192,21.999 10.969,21.776 10.969,21.499 L10.969,9.875 L7.787,13.853 C7.602,14.039 7.301,14.039 7.116,13.853 C6.931,13.668 6.931,13.367 7.116,13.181 L11.005,8.318 Z" class="cls-1"/>
</svg>
