<svg xmlns="http://www.w3.org/2000/svg" xmlns:xlink="http://www.w3.org/1999/xlink" preserveAspectRatio="xMidYMid" width="25.031" height="23" viewBox="0 0 25.031 23">
  <defs>
    <style>
      .cls-1 {
        fill: #3c4042;
        fill-rule: evenodd;
      }
    </style>
  </defs>
  <path d="M24.856,11.849 C24.852,11.853 24.848,11.855 24.844,11.859 C24.816,11.884 24.792,11.913 24.757,11.932 L16.761,17.932 C16.513,18.070 16.196,17.988 16.052,17.750 C15.909,17.510 15.994,17.204 16.242,17.066 L22.995,11.999 L4.500,11.999 C4.224,11.999 4.000,11.775 4.000,11.499 C4.000,11.223 4.224,10.999 4.500,10.999 L22.977,10.999 L16.272,5.932 C16.025,5.794 15.941,5.488 16.083,5.249 C16.226,5.010 16.541,4.928 16.788,5.066 L24.690,11.037 C24.773,11.071 24.839,11.132 24.893,11.204 C24.909,11.222 24.935,11.227 24.948,11.249 C25.068,11.450 25.020,11.693 24.856,11.849 ZM1.000,1.532 L1.000,21.465 C1.000,21.743 1.221,21.971 1.502,21.998 L12.000,20.518 L12.000,21.526 L1.555,22.998 C0.696,22.998 -0.000,22.311 -0.000,21.464 L-0.000,1.531 C-0.000,0.684 0.696,-0.002 1.555,-0.002 L12.000,1.468 L12.000,2.479 L1.503,1.001 C1.221,1.027 1.000,1.256 1.000,1.532 Z" class="cls-1"/>
</svg>
