<svg xmlns="http://www.w3.org/2000/svg" xmlns:xlink="http://www.w3.org/1999/xlink" preserveAspectRatio="xMidYMid" width="24" height="24" viewBox="0 0 24 24">
  <defs>
    <style>
      .cls-1 {
        fill: #3c4042;
        fill-rule: evenodd;
      }
    </style>
  </defs>
  <path d="M22.416,18.998 L21.000,18.998 L21.000,17.998 L22.200,17.998 C22.641,17.998 23.000,17.640 23.000,17.198 L23.000,1.798 C23.000,1.357 22.641,0.998 22.200,0.998 L6.800,0.998 C6.358,0.998 6.000,1.357 6.000,1.798 L6.000,2.997 L5.000,2.997 L5.000,1.581 C5.000,0.707 5.708,-0.002 6.583,-0.002 L22.416,-0.002 C23.291,-0.002 24.000,0.707 24.000,1.581 L24.000,17.415 C24.000,18.289 23.291,18.998 22.416,18.998 ZM19.000,6.536 L19.000,22.459 C19.000,23.309 18.311,23.998 17.461,23.998 L1.538,23.998 C0.688,23.998 -0.000,23.309 -0.000,22.459 L-0.000,6.536 C-0.000,5.687 0.688,4.998 1.538,4.998 L17.461,4.998 C18.311,4.998 19.000,5.687 19.000,6.536 ZM1.772,5.997 C1.346,5.997 1.000,6.344 1.000,6.771 L1.000,22.225 C1.000,22.653 1.346,22.998 1.772,22.998 L17.227,22.998 C17.654,22.998 18.000,22.653 18.000,22.225 L18.000,6.771 C18.000,6.344 17.654,5.997 17.227,5.997 L1.772,5.997 ZM10.000,17.999 L9.000,17.999 L9.000,15.000 L6.000,15.000 L6.000,13.999 L9.000,13.999 L9.000,10.999 L10.000,10.999 L10.000,13.999 L13.000,13.999 L13.000,15.000 L10.000,15.000 L10.000,17.999 Z" class="cls-1"/>
</svg>
