<svg xmlns="http://www.w3.org/2000/svg" xmlns:xlink="http://www.w3.org/1999/xlink" preserveAspectRatio="xMidYMid" width="23" height="25" viewBox="0 0 23 25">
  <defs>
    <style>
      .cls-1 {
        fill: #3c4042;
        fill-rule: evenodd;
      }
    </style>
  </defs>
  <path d="M21.466,16.998 L4.000,16.998 L4.000,22.999 C4.000,24.104 3.104,25.000 2.000,25.000 C0.895,25.000 -0.000,24.104 -0.000,22.999 L-0.000,15.443 C-0.000,15.443 -0.000,15.443 -0.000,15.442 L-0.000,4.553 C-0.000,4.553 -0.000,4.553 -0.000,4.553 L-0.000,1.999 C-0.000,0.894 0.895,-0.001 2.000,-0.001 C3.104,-0.001 4.000,0.894 4.000,1.999 L4.000,2.998 L21.466,2.998 C22.313,2.998 23.000,3.694 23.000,4.553 L23.000,15.442 C23.000,16.301 22.313,16.998 21.466,16.998 ZM3.000,1.999 C3.000,1.447 2.552,0.999 2.000,0.999 C1.447,0.999 1.000,1.447 1.000,1.999 L1.000,22.999 C1.000,23.552 1.447,23.999 2.000,23.999 C2.552,23.999 3.000,23.552 3.000,22.999 L3.000,1.999 ZM21.998,4.855 C21.998,4.381 21.653,3.997 21.229,3.997 L4.000,3.997 L4.000,15.998 L21.229,15.998 C21.653,15.998 21.998,15.614 21.998,15.140 L21.998,4.855 Z" class="cls-1"/>
</svg>
