<svg xmlns="http://www.w3.org/2000/svg" xmlns:xlink="http://www.w3.org/1999/xlink" preserveAspectRatio="xMidYMid" width="25" height="25" viewBox="0 0 25 25">
  <defs>
    <style>
      .cls-1 {
        fill: #3c4042;
        fill-rule: evenodd;
      }
    </style>
  </defs>
  <path d="M24.000,20.156 L24.000,17.832 L24.000,4.998 L24.000,4.164 C24.000,2.415 22.582,0.997 20.833,0.997 L20.000,0.997 L20.000,0.997 L4.842,0.997 C5.640,0.380 6.628,-0.002 7.714,-0.002 L20.285,-0.002 C22.889,-0.002 25.000,2.108 25.000,4.712 L25.000,17.283 C25.000,18.370 24.617,19.358 24.000,20.156 ZM22.000,7.712 L22.000,8.998 L22.000,9.998 L22.000,20.284 C22.000,22.887 19.889,24.997 17.285,24.997 L4.714,24.997 C2.110,24.997 -0.000,22.887 -0.000,20.284 L-0.000,9.998 L-0.000,8.998 L-0.000,7.712 C-0.000,5.109 2.110,2.997 4.714,2.997 L17.285,2.997 C19.889,2.997 22.000,5.109 22.000,7.712 ZM1.000,19.999 C1.000,22.208 2.791,23.999 5.000,23.999 L17.000,23.999 C19.209,23.999 21.000,23.208 21.000,20.999 L21.000,9.998 L1.000,9.998 L1.000,19.999 ZM5.000,3.999 C2.791,3.999 1.000,5.789 1.000,7.999 L1.000,8.998 L21.000,8.998 L21.000,7.999 C21.000,5.789 19.209,3.999 17.000,3.999 L5.000,3.999 ZM16.000,5.998 L17.000,5.998 L17.000,6.998 L16.000,6.998 L16.000,5.998 ZM3.000,5.998 L14.000,5.998 L14.000,6.998 L3.000,6.998 L3.000,5.998 Z" class="cls-1"/>
</svg>
