<svg xmlns="http://www.w3.org/2000/svg" xmlns:xlink="http://www.w3.org/1999/xlink" preserveAspectRatio="xMidYMid" width="23" height="19" viewBox="0 0 23 19">
  <defs>
    <style>
      .cls-1 {
        fill: #3c4042;
        fill-rule: evenodd;
      }
    </style>
  </defs>
  <path d="M22.500,18.999 L0.500,18.999 C0.224,18.999 -0.000,18.775 -0.000,18.499 L-0.000,12.499 C-0.000,12.223 0.224,11.999 0.500,11.999 C0.776,11.999 1.000,12.223 1.000,12.499 L1.000,17.999 L22.000,17.999 L22.000,12.499 C22.000,12.223 22.224,11.999 22.500,11.999 C22.776,11.999 23.000,12.223 23.000,12.499 L23.000,18.499 C23.000,18.775 22.776,18.999 22.500,18.999 ZM11.849,14.846 C11.846,14.849 11.847,14.854 11.844,14.858 C11.745,14.957 11.614,15.005 11.484,15.005 C11.354,15.005 11.224,14.957 11.124,14.858 C11.121,14.854 11.120,14.850 11.119,14.846 L6.141,9.882 C5.945,9.686 5.945,9.368 6.141,9.171 C6.338,8.975 6.657,8.975 6.854,9.171 L10.983,13.288 L10.983,0.500 C10.983,0.223 11.207,-0.001 11.484,-0.001 C11.761,-0.001 11.986,0.223 11.986,0.500 L11.986,13.288 L16.114,9.171 C16.311,8.975 16.630,8.975 16.827,9.171 C17.024,9.368 17.024,9.686 16.827,9.882 L11.849,14.846 Z" class="cls-1"/>
</svg>
