<svg xmlns="http://www.w3.org/2000/svg" xmlns:xlink="http://www.w3.org/1999/xlink" preserveAspectRatio="xMidYMid" width="25" height="11" viewBox="0 0 25 11">
  <defs>
    <style>
      .cls-1 {
        fill: #3c4042;
        fill-rule: evenodd;
      }
    </style>
  </defs>
  <path d="M24.974,4.997 C24.989,5.162 25.000,5.329 25.000,5.498 C25.000,8.535 22.537,10.998 19.500,10.998 C16.462,10.998 14.000,8.535 14.000,5.498 C14.000,4.822 14.127,4.178 14.350,3.580 C13.863,3.306 13.167,2.999 12.467,2.999 C11.787,2.999 11.118,3.299 10.646,3.570 C10.871,4.171 11.000,4.819 11.000,5.498 C11.000,8.535 8.537,10.998 5.500,10.998 C2.462,10.998 -0.000,8.535 -0.000,5.498 C-0.000,5.329 0.010,5.162 0.025,4.997 L-0.000,4.997 L-0.000,0.997 L1.000,0.997 L1.000,2.341 C1.995,0.926 3.638,-0.002 5.500,-0.002 C7.554,-0.002 9.341,1.126 10.286,2.794 C10.719,2.501 11.588,1.999 12.470,1.999 C13.371,1.999 14.268,2.506 14.711,2.797 C15.655,1.127 17.444,-0.002 19.500,-0.002 C21.362,-0.002 23.005,0.926 24.000,2.341 L24.000,0.997 L25.000,0.997 L25.000,4.997 L24.974,4.997 ZM5.500,0.999 C3.014,0.999 1.000,3.013 1.000,5.498 C1.000,7.983 3.014,9.998 5.500,9.998 C7.985,9.998 10.000,7.983 10.000,5.498 C10.000,3.013 7.985,0.999 5.500,0.999 ZM19.500,0.999 C17.014,0.999 15.000,3.013 15.000,5.498 C15.000,7.983 17.014,9.998 19.500,9.998 C21.985,9.998 24.000,7.983 24.000,5.498 C24.000,3.013 21.985,0.999 19.500,0.999 Z" class="cls-1"/>
</svg>
