<svg xmlns="http://www.w3.org/2000/svg" xmlns:xlink="http://www.w3.org/1999/xlink" preserveAspectRatio="xMidYMid" width="25" height="25" viewBox="0 0 25 25">
  <defs>
    <style>
      .cls-1 {
        fill: #3c4042;
        fill-rule: evenodd;
      }
    </style>
  </defs>
  <path d="M24.974,12.998 C24.710,19.660 19.246,24.984 12.522,24.996 C12.515,24.996 12.507,24.999 12.500,24.999 C12.492,24.999 12.485,24.996 12.478,24.996 C5.753,24.984 0.289,19.660 0.025,12.998 L-0.000,12.998 L-0.000,11.998 L0.025,11.998 C0.289,5.328 5.765,-0.002 12.500,-0.002 C19.235,-0.002 24.710,5.328 24.974,11.998 L25.000,11.998 L25.000,12.998 L24.974,12.998 ZM15.991,12.998 L9.009,12.998 C9.031,14.551 9.158,15.965 9.353,17.234 C10.344,17.093 11.406,17.001 12.517,17.001 C13.616,17.001 14.667,17.091 15.648,17.230 C15.842,15.962 15.968,14.549 15.991,12.998 ZM15.991,11.998 C15.968,10.448 15.841,9.035 15.648,7.768 C14.667,7.907 13.616,7.998 12.517,7.998 C11.406,7.998 10.344,7.905 9.353,7.764 C9.158,9.032 9.031,10.446 9.009,11.998 L15.991,11.998 ZM23.977,12.998 L16.987,12.998 C16.964,14.556 16.831,16.028 16.622,17.388 C19.629,17.937 21.746,18.883 21.969,18.986 C23.149,17.268 23.881,15.218 23.977,12.998 ZM21.401,19.745 C20.524,19.393 18.738,18.757 16.459,18.356 C16.002,20.745 15.280,22.682 14.392,23.829 C17.210,23.361 19.673,21.864 21.401,19.745 ZM12.500,23.999 C13.486,23.999 14.776,21.847 15.480,18.204 C14.552,18.079 13.563,18.001 12.533,18.001 C11.480,18.001 10.469,18.083 9.521,18.211 C10.226,21.850 11.514,23.999 12.500,23.999 ZM10.608,23.829 C9.721,22.684 8.999,20.750 8.542,18.364 C6.265,18.765 4.478,19.398 3.600,19.747 C5.328,21.865 7.790,23.361 10.608,23.829 ZM3.030,18.986 C3.253,18.885 5.372,17.942 8.378,17.392 C8.169,16.031 8.035,14.558 8.013,12.998 L1.022,12.998 C1.118,15.218 1.851,17.268 3.030,18.986 ZM1.022,11.998 L8.013,11.998 C8.036,10.439 8.169,8.967 8.378,7.606 C5.360,7.054 3.237,6.107 3.028,6.011 C1.850,7.729 1.118,9.778 1.022,11.998 ZM3.598,5.250 C4.474,5.600 6.263,6.233 8.542,6.635 C9.000,4.246 9.722,2.310 10.611,1.166 C7.790,1.632 5.327,3.130 3.598,5.250 ZM12.500,1.000 C11.514,1.000 10.226,3.149 9.521,6.788 C10.469,6.916 11.480,6.998 12.533,6.998 C13.563,6.998 14.552,6.919 15.480,6.795 C14.776,3.152 13.486,1.000 12.500,1.000 ZM14.389,1.166 C15.278,2.311 16.002,4.250 16.459,6.642 C18.741,6.242 20.528,5.604 21.403,5.252 C19.674,3.131 17.210,1.633 14.389,1.166 ZM21.971,6.011 C21.762,6.108 19.641,7.059 16.622,7.610 C16.831,8.970 16.964,10.440 16.986,11.998 L23.977,11.998 C23.881,9.778 23.150,7.729 21.971,6.011 Z" class="cls-1"/>
</svg>
