<svg xmlns="http://www.w3.org/2000/svg" xmlns:xlink="http://www.w3.org/1999/xlink" preserveAspectRatio="xMidYMid" width="23" height="24" viewBox="0 0 23 24">
  <defs>
    <style>
      .cls-1 {
        fill: #3c4042;
        fill-rule: evenodd;
      }
    </style>
  </defs>
  <path d="M23.000,7.500 L23.000,23.230 C23.000,23.654 22.656,23.997 22.233,23.997 L0.766,23.997 C0.343,23.997 -0.000,23.654 -0.000,23.230 L-0.000,0.764 C-0.000,0.341 0.343,-0.003 0.766,-0.003 L22.233,-0.003 C22.656,-0.003 23.000,0.341 23.000,0.764 L23.000,7.498 C23.000,7.499 23.000,7.499 23.000,7.499 C23.000,7.499 23.000,7.499 23.000,7.500 ZM21.998,1.769 C21.998,1.344 21.653,1.000 21.228,1.000 L1.771,1.000 C1.346,1.000 1.002,1.344 1.002,1.769 L1.002,6.999 L21.998,6.999 L21.998,1.769 ZM21.998,7.999 L1.002,7.999 L1.002,22.225 C1.002,22.651 1.346,22.995 1.771,22.995 L21.228,22.995 C21.653,22.995 21.998,22.651 21.998,22.225 L21.998,7.999 ZM12.000,19.999 L11.000,19.999 L11.000,15.999 L7.000,15.999 L7.000,14.999 L11.000,14.999 L11.000,10.999 L12.000,10.999 L12.000,14.999 L16.000,14.999 L16.000,15.999 L12.000,15.999 L12.000,19.999 ZM5.008,5.005 L3.005,5.005 L3.005,3.002 L5.008,3.002 L5.008,5.005 ZM9.013,5.005 L7.011,5.005 L7.011,3.002 L9.013,3.002 L9.013,5.005 ZM13.019,5.005 L11.016,5.005 L11.016,3.002 L13.019,3.002 L13.019,5.005 Z" class="cls-1"/>
</svg>
