<svg xmlns="http://www.w3.org/2000/svg" xmlns:xlink="http://www.w3.org/1999/xlink" preserveAspectRatio="xMidYMid" width="24" height="25" viewBox="0 0 24 25">
  <defs>
    <style>
      .cls-1 {
        fill: #3c4042;
        fill-rule: evenodd;
      }
    </style>
  </defs>
  <path d="M21.000,24.999 C19.343,24.999 18.000,23.656 18.000,21.999 L18.000,8.999 C18.000,7.343 19.343,5.999 21.000,5.999 C22.657,5.999 24.000,7.343 24.000,8.999 L24.000,21.999 C24.000,23.656 22.657,24.999 21.000,24.999 ZM23.000,8.999 C23.000,7.895 22.104,6.999 21.000,6.999 C19.895,6.999 19.000,7.895 19.000,8.999 L19.000,21.999 C19.000,23.104 19.895,23.999 21.000,23.999 C22.104,23.999 23.000,23.104 23.000,21.999 L23.000,8.999 ZM12.000,24.999 C10.343,24.999 9.000,23.656 9.000,21.999 L9.000,2.999 C9.000,1.342 10.343,-0.001 12.000,-0.001 C13.657,-0.001 15.000,1.342 15.000,2.999 L15.000,21.999 C15.000,23.656 13.657,24.999 12.000,24.999 ZM14.000,2.999 C14.000,1.895 13.104,0.999 12.000,0.999 C10.895,0.999 10.000,1.895 10.000,2.999 L10.000,21.999 C10.000,23.104 10.895,23.999 12.000,23.999 C13.104,23.999 14.000,23.104 14.000,21.999 L14.000,2.999 ZM3.000,24.999 C1.343,24.999 -0.000,23.656 -0.000,21.999 L-0.000,13.999 C-0.000,12.342 1.343,10.999 3.000,10.999 C4.657,10.999 6.000,12.342 6.000,13.999 L6.000,21.999 C6.000,23.656 4.657,24.999 3.000,24.999 ZM5.000,13.999 C5.000,12.895 4.104,11.999 3.000,11.999 C1.895,11.999 1.000,12.895 1.000,13.999 L1.000,21.999 C1.000,23.104 1.895,23.999 3.000,23.999 C4.104,23.999 5.000,23.104 5.000,21.999 L5.000,13.999 Z" class="cls-1"/>
</svg>
