<svg xmlns="http://www.w3.org/2000/svg" xmlns:xlink="http://www.w3.org/1999/xlink" preserveAspectRatio="xMidYMid" width="25" height="23" viewBox="0 0 25 23">
  <defs>
    <style>
      .cls-1 {
        fill: #3c4042;
        fill-rule: evenodd;
      }
    </style>
  </defs>
  <path d="M6.000,22.999 L5.000,22.999 L0.001,22.999 L0.001,-0.002 L5.000,-0.002 L6.000,-0.002 L25.001,-0.002 L25.001,22.999 L6.000,22.999 ZM5.000,1.001 L1.001,1.001 L1.001,21.997 L5.000,21.997 L5.000,1.001 ZM24.001,1.001 L6.000,1.001 L6.000,21.997 L24.001,21.997 L24.001,1.001 ZM8.208,11.093 L13.182,7.115 C13.368,6.930 13.668,6.930 13.854,7.115 C14.040,7.301 14.040,7.601 13.854,7.786 L9.836,10.999 L21.500,10.999 C21.776,10.999 22.000,11.223 22.000,11.499 C22.000,11.775 21.776,11.999 21.500,11.999 L9.875,11.999 L13.854,15.181 C14.040,15.366 14.040,15.667 13.854,15.852 C13.668,16.037 13.368,16.037 13.182,15.852 L8.318,11.963 C8.252,11.936 8.192,11.898 8.143,11.848 C8.134,11.844 8.124,11.844 8.117,11.836 C8.019,11.739 7.980,11.612 7.985,11.484 C7.980,11.356 8.019,11.228 8.117,11.130 C8.142,11.105 8.179,11.111 8.208,11.093 Z" class="cls-1"/>
</svg>
