<svg xmlns="http://www.w3.org/2000/svg" xmlns:xlink="http://www.w3.org/1999/xlink" preserveAspectRatio="xMidYMid" width="19.969" height="19.97" viewBox="0 0 19.969 19.97">
  <defs>
    <style>
      .cls-1 {
        fill: #3c4042;
        fill-rule: evenodd;
      }
    </style>
  </defs>
  <path d="M18.920,6.031 L14.623,10.327 C13.944,11.006 13.059,11.341 12.169,11.349 L13.549,9.969 L13.513,9.933 C13.652,9.841 13.784,9.734 13.907,9.611 L18.204,5.315 C19.192,4.326 19.192,2.723 18.204,1.735 C17.215,0.746 15.612,0.746 14.623,1.735 L10.327,6.031 C10.204,6.153 10.097,6.286 10.005,6.425 L9.969,6.389 L8.589,7.769 C8.597,6.880 8.931,5.994 9.611,5.315 L13.907,1.018 C15.291,-0.365 17.535,-0.365 18.920,1.018 C20.304,2.403 20.304,4.647 18.920,6.031 ZM12.117,8.537 L8.537,12.117 L7.821,11.401 L11.401,7.821 L12.117,8.537 ZM6.425,10.005 C6.285,10.097 6.153,10.205 6.031,10.327 L1.734,14.623 C0.745,15.612 0.745,17.215 1.734,18.204 C2.723,19.193 4.326,19.193 5.314,18.204 L9.611,13.908 C9.734,13.784 9.841,13.653 9.933,13.513 L9.969,13.549 L11.349,12.169 C11.341,13.059 11.006,13.944 10.327,14.623 L6.031,18.920 C4.646,20.304 2.402,20.304 1.018,18.920 C-0.366,17.536 -0.366,15.292 1.018,13.908 L5.314,9.611 C5.994,8.932 6.879,8.598 7.769,8.589 L6.389,9.969 L6.425,10.005 Z" class="cls-1"/>
</svg>
