<svg xmlns="http://www.w3.org/2000/svg" xmlns:xlink="http://www.w3.org/1999/xlink" preserveAspectRatio="xMidYMid" width="24" height="20" viewBox="0 0 24 20">
  <defs>
    <style>
      .cls-1 {
        fill: #3c4042;
        fill-rule: evenodd;
      }
    </style>
  </defs>
  <path d="M20.000,7.997 C18.465,7.997 17.147,7.123 16.477,5.854 L7.883,9.077 C7.953,9.373 8.000,9.679 8.000,9.997 C8.000,10.361 7.935,10.707 7.844,11.041 L16.290,14.519 C16.878,13.043 18.314,11.996 20.000,11.996 C22.209,11.996 24.000,13.788 24.000,15.997 C24.000,18.207 22.209,19.997 20.000,19.997 C17.791,19.997 16.000,18.207 16.000,15.997 C16.000,15.827 16.029,15.666 16.050,15.502 L7.462,11.965 C6.774,13.173 5.489,13.997 4.000,13.997 C1.790,13.997 -0.000,12.206 -0.000,9.997 C-0.000,7.788 1.790,5.997 4.000,5.997 C5.536,5.997 6.854,6.873 7.524,8.143 L16.118,4.921 C16.047,4.623 16.000,4.316 16.000,3.997 C16.000,1.787 17.791,-0.004 20.000,-0.004 C22.209,-0.004 24.000,1.787 24.000,3.997 C24.000,6.206 22.209,7.997 20.000,7.997 ZM19.999,18.996 C21.656,18.996 23.000,17.653 23.000,15.995 C23.000,14.340 21.656,12.996 19.999,12.996 C18.343,12.996 17.000,14.340 17.000,15.995 C17.000,17.653 18.343,18.996 19.999,18.996 ZM4.000,6.995 C2.343,6.995 1.000,8.339 1.000,9.996 C1.000,11.653 2.343,12.996 4.000,12.996 C5.656,12.996 7.000,11.653 7.000,9.996 C7.000,8.339 5.656,6.995 4.000,6.995 ZM19.999,0.995 C18.343,0.995 17.000,2.339 17.000,3.996 C17.000,5.652 18.343,6.996 19.999,6.996 C21.656,6.996 23.000,5.652 23.000,3.996 C23.000,2.339 21.656,0.995 19.999,0.995 Z" class="cls-1"/>
</svg>
