<svg xmlns="http://www.w3.org/2000/svg" xmlns:xlink="http://www.w3.org/1999/xlink" preserveAspectRatio="xMidYMid" width="23" height="25" viewBox="0 0 23 25">
  <defs>
    <style>
      .cls-1 {
        fill: #3c4042;
        fill-rule: evenodd;
      }
    </style>
  </defs>
  <path d="M21.466,24.998 L1.533,24.998 C0.686,24.998 -0.000,24.299 -0.000,23.436 L-0.000,1.561 C-0.000,0.698 0.686,-0.002 1.533,-0.002 L21.466,-0.002 C22.313,-0.002 23.000,0.698 23.000,1.561 L23.000,8.499 C23.000,8.499 23.000,8.499 23.000,8.499 L23.000,16.499 C23.000,16.499 23.000,16.499 23.000,16.499 L23.000,23.436 C23.000,24.299 22.313,24.998 21.466,24.998 ZM21.998,17.000 L3.500,17.000 C3.224,17.000 3.000,16.775 3.000,16.499 C3.000,16.223 3.224,15.999 3.500,15.999 L21.998,15.999 L21.998,8.999 L3.500,8.999 C3.224,8.999 3.000,8.775 3.000,8.499 C3.000,8.223 3.224,7.999 3.500,7.999 L21.998,7.999 L21.998,1.784 C21.998,1.350 21.653,0.998 21.229,0.998 L1.771,0.998 C1.346,0.998 1.002,1.350 1.002,1.784 L1.002,23.212 C1.002,23.646 1.346,23.998 1.771,23.998 L21.229,23.998 C21.653,23.998 21.998,23.646 21.998,23.212 L21.998,17.000 ZM17.000,19.999 L20.000,19.999 L20.000,21.000 L17.000,21.000 L17.000,19.999 ZM20.000,13.000 L17.000,13.000 L17.000,12.000 L20.000,12.000 L20.000,13.000 ZM20.000,5.000 L17.000,5.000 L17.000,4.000 L20.000,4.000 L20.000,5.000 Z" class="cls-1"/>
</svg>
