<svg xmlns="http://www.w3.org/2000/svg" xmlns:xlink="http://www.w3.org/1999/xlink" preserveAspectRatio="xMidYMid" width="21" height="25" viewBox="0 0 21 25">
  <defs>
    <style>
      .cls-1 {
        fill: #3c4042;
        fill-rule: evenodd;
      }
    </style>
  </defs>
  <path d="M13.808,20.457 L14.737,23.999 L17.500,23.999 C17.776,23.999 18.000,24.223 18.000,24.500 C18.000,24.775 17.776,24.999 17.500,24.999 L3.500,24.999 C3.224,24.999 3.000,24.775 3.000,24.500 C3.000,24.223 3.224,23.999 3.500,23.999 L6.262,23.999 L7.192,20.458 C3.015,19.071 -0.000,15.140 -0.000,10.498 C-0.000,4.699 4.701,-0.002 10.500,-0.002 C16.299,-0.002 21.000,4.699 21.000,10.498 C21.000,15.140 17.984,19.071 13.808,20.457 ZM13.742,23.999 L12.880,20.716 C12.114,20.894 11.320,20.998 10.500,20.998 C9.680,20.998 8.885,20.894 8.119,20.716 L7.257,23.999 L13.742,23.999 ZM10.500,0.998 C5.253,0.998 1.000,5.250 1.000,10.498 C1.000,15.744 5.253,19.998 10.500,19.998 C15.747,19.998 20.000,15.744 20.000,10.498 C20.000,5.250 15.747,0.998 10.500,0.998 ZM10.500,14.997 C8.015,14.997 6.000,12.983 6.000,10.498 C6.000,8.012 8.015,5.998 10.500,5.998 C12.985,5.998 15.000,8.012 15.000,10.498 C15.000,12.983 12.985,14.997 10.500,14.997 ZM10.500,6.996 C8.567,6.996 7.000,8.564 7.000,10.497 C7.000,12.430 8.567,13.997 10.500,13.997 C12.433,13.997 14.000,12.430 14.000,10.497 C14.000,8.564 12.433,6.996 10.500,6.996 Z" class="cls-1"/>
</svg>
