<svg xmlns="http://www.w3.org/2000/svg" xmlns:xlink="http://www.w3.org/1999/xlink" preserveAspectRatio="xMidYMid" width="25" height="25" viewBox="0 0 25 25">
  <defs>
    <style>
      .cls-1 {
        fill: #3c4042;
        fill-rule: evenodd;
      }
    </style>
  </defs>
  <path d="M24.974,12.998 C24.710,19.660 19.246,24.984 12.522,24.996 C12.515,24.996 12.507,24.999 12.500,24.999 C12.492,24.999 12.485,24.996 12.478,24.996 C5.753,24.984 0.289,19.660 0.025,12.998 L-0.000,12.998 L-0.000,11.998 L0.025,11.998 C0.289,5.328 5.765,-0.002 12.500,-0.002 C19.235,-0.002 24.710,5.328 24.974,11.998 L25.000,11.998 L25.000,12.998 L24.974,12.998 ZM23.000,17.144 C23.566,15.866 23.913,14.471 23.977,12.998 L16.987,12.998 C16.966,14.408 16.854,15.746 16.680,16.998 L23.000,16.998 L23.000,17.144 ZM22.579,17.998 L16.532,17.998 C16.081,20.557 15.325,22.624 14.392,23.829 C17.934,23.241 20.918,21.034 22.579,17.998 ZM9.009,11.998 L15.991,11.998 C15.970,10.540 15.855,9.206 15.681,7.998 L9.319,7.998 C9.144,9.206 9.030,10.540 9.009,11.998 ZM9.009,12.998 C9.030,14.455 9.144,15.789 9.318,16.998 L15.681,16.998 C15.856,15.789 15.970,14.455 15.991,12.998 L9.009,12.998 ZM12.500,23.999 C13.505,23.999 14.823,21.765 15.518,17.998 L9.482,17.998 C10.176,21.765 11.495,23.999 12.500,23.999 ZM10.608,23.829 C9.675,22.624 8.919,20.557 8.467,17.998 L2.421,17.998 C4.081,21.034 7.066,23.241 10.608,23.829 ZM2.000,17.144 L2.000,16.998 L8.320,16.998 C8.146,15.746 8.033,14.408 8.013,12.998 L1.022,12.998 C1.086,14.471 1.434,15.866 2.000,17.144 ZM8.013,11.998 C8.033,10.588 8.146,9.250 8.320,7.998 L2.000,7.998 L2.000,7.850 C1.433,9.128 1.086,10.525 1.022,11.998 L8.013,11.998 ZM2.420,6.998 L8.468,6.998 C8.920,4.437 9.677,2.369 10.611,1.166 C7.067,1.753 4.080,3.960 2.420,6.998 ZM12.500,1.000 C11.495,1.000 10.177,3.232 9.482,6.998 L15.518,6.998 C14.823,3.232 13.504,1.000 12.500,1.000 ZM14.389,1.166 C15.323,2.369 16.080,4.437 16.532,6.998 L22.580,6.998 C20.919,3.960 17.933,1.753 14.389,1.166 ZM23.000,7.851 L23.000,7.998 L16.679,7.998 C16.854,9.250 16.966,10.588 16.987,11.998 L23.977,11.998 C23.914,10.525 23.566,9.128 23.000,7.851 Z" class="cls-1"/>
</svg>
