<svg xmlns="http://www.w3.org/2000/svg" xmlns:xlink="http://www.w3.org/1999/xlink" preserveAspectRatio="xMidYMid" width="23" height="19" viewBox="0 0 23 19">
  <defs>
    <style>
      .cls-1 {
        fill: #3c4042;
        fill-rule: evenodd;
      }
    </style>
  </defs>
  <path d="M22.500,18.999 L0.500,18.999 C0.224,18.999 -0.000,18.775 -0.000,18.499 L-0.000,12.499 C-0.000,12.223 0.224,11.999 0.500,11.999 C0.776,11.999 1.000,12.223 1.000,12.499 L1.000,17.999 L22.000,17.999 L22.000,12.499 C22.000,12.223 22.224,11.999 22.500,11.999 C22.776,11.999 23.000,12.223 23.000,12.499 L23.000,18.499 C23.000,18.775 22.776,18.999 22.500,18.999 ZM16.117,5.827 L12.000,1.710 L12.000,14.499 C12.000,14.775 11.776,14.999 11.500,14.999 C11.224,14.999 11.000,14.775 11.000,14.499 L11.000,1.710 L6.883,5.827 C6.687,6.023 6.369,6.023 6.172,5.827 C5.976,5.630 5.976,5.312 6.172,5.116 L11.136,0.152 C11.137,0.148 11.138,0.144 11.141,0.140 C11.240,0.041 11.370,-0.007 11.500,-0.006 C11.630,-0.007 11.760,0.041 11.859,0.140 C11.862,0.144 11.861,0.149 11.864,0.152 L16.827,5.116 C17.024,5.312 17.024,5.630 16.827,5.827 C16.631,6.023 16.313,6.023 16.117,5.827 Z" class="cls-1"/>
</svg>
