<svg xmlns="http://www.w3.org/2000/svg" xmlns:xlink="http://www.w3.org/1999/xlink" preserveAspectRatio="xMidYMid" width="22" height="23" viewBox="0 0 22 23">
  <defs>
    <style>
      .cls-1 {
        fill: #3c4042;
        fill-rule: evenodd;
      }
    </style>
  </defs>
  <path d="M18.000,22.998 L18.000,6.999 L22.000,6.999 L22.000,22.998 L18.000,22.998 ZM21.000,7.998 L19.000,7.998 L19.000,21.998 L21.000,21.998 L21.000,7.998 ZM12.000,-0.001 L16.000,-0.001 L16.000,22.998 L12.000,22.998 L12.000,-0.001 ZM13.000,21.998 L15.000,21.998 L15.000,0.999 L13.000,0.999 L13.000,21.998 ZM6.000,2.999 L10.000,2.999 L10.000,22.998 L6.000,22.998 L6.000,2.999 ZM7.000,21.998 L9.000,21.998 L9.000,3.999 L7.000,3.999 L7.000,21.998 ZM-0.000,10.999 L4.000,10.999 L4.000,22.998 L-0.000,22.998 L-0.000,10.999 ZM1.000,21.998 L3.000,21.998 L3.000,11.999 L1.000,11.999 L1.000,21.998 Z" class="cls-1"/>
</svg>
