<svg xmlns="http://www.w3.org/2000/svg" xmlns:xlink="http://www.w3.org/1999/xlink" preserveAspectRatio="xMidYMid" width="25" height="21" viewBox="0 0 25 21">
  <defs>
    <style>
      .cls-1 {
        fill: #3c4042;
        fill-rule: evenodd;
      }
    </style>
  </defs>
  <path d="M24.856,10.855 C24.840,10.872 24.815,10.866 24.797,10.880 L20.791,14.885 C20.604,15.072 20.301,15.072 20.114,14.885 C19.927,14.698 19.927,14.395 20.114,14.208 L23.823,10.499 L20.114,6.791 C19.927,6.603 19.927,6.300 20.114,6.113 C20.301,5.926 20.604,5.926 20.791,6.113 L24.797,10.118 C24.815,10.132 24.840,10.126 24.856,10.143 C24.954,10.241 24.994,10.370 24.989,10.499 C24.994,10.628 24.954,10.756 24.856,10.855 ZM6.970,20.739 C6.827,20.979 6.509,21.061 6.260,20.923 C6.011,20.784 5.926,20.477 6.070,20.237 L18.029,0.260 C18.173,0.019 18.491,-0.062 18.740,0.076 C18.989,0.214 19.074,0.521 18.930,0.761 L6.970,20.739 ZM4.886,14.854 C4.699,15.041 4.396,15.041 4.209,14.854 L0.203,10.863 C0.185,10.850 0.160,10.855 0.144,10.839 C0.045,10.740 0.006,10.612 0.011,10.483 C0.006,10.355 0.045,10.227 0.144,10.129 C0.160,10.112 0.185,10.118 0.203,10.104 L4.209,6.113 C4.396,5.926 4.699,5.926 4.886,6.113 C5.073,6.299 5.073,6.601 4.886,6.788 L1.177,10.484 L4.886,14.180 C5.073,14.365 5.073,14.668 4.886,14.854 Z" class="cls-1"/>
</svg>
