<svg xmlns="http://www.w3.org/2000/svg" xmlns:xlink="http://www.w3.org/1999/xlink" preserveAspectRatio="xMidYMid" width="23" height="25" viewBox="0 0 23 25">
  <defs>
    <style>
      .cls-1 {
        fill: #3c4042;
        fill-rule: evenodd;
      }
    </style>
  </defs>
  <path d="M-0.000,24.998 L-0.000,19.998 L-0.000,18.999 L-0.000,-0.001 L23.000,-0.001 L23.000,18.999 L23.000,19.998 L23.000,24.998 L-0.000,24.998 ZM21.998,0.998 L1.002,0.998 L1.002,18.999 L21.998,18.999 L21.998,0.998 ZM21.998,19.998 L1.002,19.998 L1.002,23.997 L21.998,23.997 L21.998,19.998 ZM7.787,11.145 L11.000,15.163 L11.000,3.500 C11.000,3.223 11.224,2.999 11.500,2.999 C11.776,2.999 12.000,3.223 12.000,3.500 L12.000,15.124 L15.182,11.145 C15.367,10.959 15.667,10.959 15.852,11.145 C16.038,11.330 16.038,11.631 15.852,11.817 L11.963,16.681 C11.937,16.747 11.898,16.807 11.848,16.856 C11.845,16.865 11.844,16.875 11.837,16.883 C11.740,16.980 11.612,17.020 11.484,17.015 C11.357,17.020 11.229,16.980 11.131,16.883 C11.106,16.857 11.112,16.820 11.093,16.791 L7.116,11.817 C6.931,11.631 6.931,11.330 7.116,11.145 C7.301,10.959 7.602,10.959 7.787,11.145 Z" class="cls-1"/>
</svg>
