<svg xmlns="http://www.w3.org/2000/svg" xmlns:xlink="http://www.w3.org/1999/xlink" preserveAspectRatio="xMidYMid" width="25" height="21" viewBox="0 0 25 21">
  <defs>
    <style>
      .cls-1 {
        fill: #3c4042;
        fill-rule: evenodd;
      }
    </style>
  </defs>
  <path d="M20.500,8.997 C18.601,8.997 16.984,7.817 16.324,6.153 L8.856,9.420 C8.941,9.767 9.000,10.124 9.000,10.497 C9.000,10.871 8.941,11.229 8.854,11.577 L16.323,14.845 C16.982,13.179 18.599,11.997 20.500,11.997 C22.985,11.997 25.000,14.012 25.000,16.498 C25.000,18.982 22.985,20.997 20.500,20.997 C18.015,20.997 16.000,18.982 16.000,16.498 C16.000,16.267 16.034,16.046 16.067,15.825 L8.502,12.514 C7.760,13.981 6.256,14.997 4.500,14.997 C2.014,14.997 -0.000,12.982 -0.000,10.497 C-0.000,8.012 2.014,5.997 4.500,5.997 C6.257,5.997 7.763,7.014 8.504,8.483 L16.068,5.174 C16.034,4.951 16.000,4.729 16.000,4.497 C16.000,2.012 18.015,-0.003 20.500,-0.003 C22.985,-0.003 25.000,2.012 25.000,4.497 C25.000,6.982 22.985,8.997 20.500,8.997 ZM20.500,19.996 C22.433,19.996 24.000,18.430 24.000,16.497 C24.000,14.564 22.433,12.996 20.500,12.996 C18.567,12.996 17.000,14.564 17.000,16.497 C17.000,18.430 18.567,19.996 20.500,19.996 ZM4.500,6.996 C2.567,6.996 0.999,8.563 0.999,10.496 C0.999,12.430 2.567,13.996 4.500,13.996 C6.433,13.996 8.000,12.430 8.000,10.496 C8.000,8.563 6.433,6.996 4.500,6.996 ZM20.500,0.997 C18.567,0.997 17.000,2.563 17.000,4.496 C17.000,6.430 18.567,7.997 20.500,7.997 C22.433,7.997 24.000,6.430 24.000,4.496 C24.000,2.563 22.433,0.997 20.500,0.997 Z" class="cls-1"/>
</svg>
