<svg xmlns="http://www.w3.org/2000/svg" xmlns:xlink="http://www.w3.org/1999/xlink" preserveAspectRatio="xMidYMid" width="25" height="23" viewBox="0 0 25 23">
  <defs>
    <style>
      .cls-1 {
        fill: #3c4042;
        fill-rule: evenodd;
      }
    </style>
  </defs>
  <path d="M25.000,3.499 C25.000,3.499 25.000,3.499 25.000,3.500 L25.000,22.231 C25.000,22.654 24.650,22.997 24.218,22.997 L0.781,22.997 C0.350,22.997 -0.000,22.654 -0.000,22.231 L-0.000,0.764 C-0.000,0.341 0.350,-0.003 0.781,-0.003 L24.218,-0.003 C24.650,-0.003 25.000,0.341 25.000,0.764 L25.000,3.499 C25.000,3.499 25.000,3.499 25.000,3.499 ZM1.785,21.996 L23.214,21.996 C23.648,21.996 24.000,21.651 24.000,21.226 L24.000,3.999 L1.000,3.999 L1.000,21.226 C1.000,21.651 1.351,21.996 1.785,21.996 ZM23.214,0.999 L1.785,0.999 C1.351,0.999 1.000,1.344 1.000,1.769 L1.000,2.999 L24.000,2.999 L24.000,1.769 C24.000,1.344 23.648,0.999 23.214,0.999 Z" class="cls-1"/>
</svg>
