<svg xmlns="http://www.w3.org/2000/svg" xmlns:xlink="http://www.w3.org/1999/xlink" preserveAspectRatio="xMidYMid" width="25" height="25" viewBox="0 0 25 25">
  <defs>
    <style>
      .cls-1 {
        fill: #3c4042;
        fill-rule: evenodd;
      }
    </style>
  </defs>
  <path d="M23.812,8.943 L16.732,16.023 C15.168,17.587 12.632,17.587 11.068,16.023 L8.944,13.899 L9.652,13.192 L11.776,15.316 C12.949,16.488 14.851,16.488 16.024,15.316 L23.104,8.235 C24.277,7.063 24.277,5.161 23.104,3.988 L20.980,1.863 C19.807,0.691 17.905,0.691 16.732,1.863 L13.900,4.695 L13.192,3.988 L16.024,1.155 C17.588,-0.409 20.124,-0.409 21.688,1.155 L23.812,3.279 C25.376,4.844 25.376,7.380 23.812,8.943 ZM16.024,11.067 L15.316,11.775 L13.192,9.651 C12.019,8.479 10.117,8.479 8.944,9.651 L1.864,16.732 C0.691,17.904 0.691,19.806 1.864,20.979 L3.988,23.104 C5.161,24.276 7.063,24.276 8.236,23.104 L11.068,20.272 L11.776,20.979 L8.944,23.812 C7.380,25.375 4.844,25.375 3.280,23.812 L1.156,21.688 C-0.408,20.123 -0.408,17.587 1.156,16.023 L8.236,8.943 C9.800,7.380 12.336,7.380 13.900,8.943 L16.024,11.067 Z" class="cls-1"/>
</svg>
