<svg xmlns="http://www.w3.org/2000/svg" xmlns:xlink="http://www.w3.org/1999/xlink" preserveAspectRatio="xMidYMid" width="25" height="22" viewBox="0 0 25 22">
  <defs>
    <style>
      .cls-1 {
        fill: #3c4042;
        fill-rule: evenodd;
      }
    </style>
  </defs>
  <path d="M24.500,14.999 L17.500,14.999 C17.224,14.999 17.000,14.775 17.000,14.499 C17.000,14.223 17.224,13.999 17.500,13.999 L24.000,13.999 L24.000,7.999 L13.500,7.999 C13.224,7.999 13.000,7.775 13.000,7.499 C13.000,7.223 13.224,6.999 13.500,6.999 L24.500,6.999 C24.776,6.999 25.000,7.223 25.000,7.499 L25.000,14.499 C25.000,14.775 24.776,14.999 24.500,14.999 ZM15.119,4.708 C14.954,4.972 14.587,5.063 14.300,4.910 C14.013,4.758 13.915,4.420 14.080,4.157 L15.880,1.290 C16.046,1.026 16.413,0.935 16.700,1.088 C16.987,1.240 17.085,1.577 16.919,1.842 L15.119,4.708 ZM11.500,21.999 C11.224,21.999 11.000,21.775 11.000,21.499 L11.000,17.499 C11.000,17.223 11.224,16.999 11.500,16.999 C11.776,16.999 12.000,17.223 12.000,17.499 L12.000,21.499 C12.000,21.775 11.776,21.999 11.500,21.999 ZM11.500,14.999 L0.500,14.999 C0.224,14.999 -0.000,14.775 -0.000,14.499 L-0.000,7.499 C-0.000,7.223 0.224,6.999 0.500,6.999 L7.500,6.999 C7.776,6.999 8.000,7.223 8.000,7.499 C8.000,7.775 7.776,7.999 7.500,7.999 L1.000,7.999 L1.000,13.999 L11.500,13.999 C11.776,13.999 12.000,14.223 12.000,14.499 C12.000,14.775 11.776,14.999 11.500,14.999 ZM11.500,4.999 C11.224,4.999 11.000,4.776 11.000,4.499 L11.000,0.499 C11.000,0.223 11.224,-0.001 11.500,-0.001 C11.776,-0.001 12.000,0.223 12.000,0.499 L12.000,4.499 C12.000,4.776 11.776,4.999 11.500,4.999 ZM8.700,4.941 C8.413,5.095 8.046,5.004 7.880,4.735 L6.080,1.824 C5.914,1.555 6.013,1.212 6.300,1.058 C6.587,0.902 6.954,0.995 7.119,1.263 L8.920,4.175 C9.085,4.443 8.987,4.786 8.700,4.941 ZM7.880,17.262 C8.046,16.994 8.413,16.903 8.700,17.057 C8.987,17.212 9.085,17.556 8.920,17.823 L7.119,20.735 C6.954,21.003 6.587,21.095 6.300,20.940 C6.013,20.786 5.914,20.443 6.080,20.175 L7.880,17.262 ZM14.300,17.088 C14.587,16.935 14.954,17.026 15.119,17.290 L16.919,20.156 C17.085,20.421 16.987,20.758 16.700,20.910 C16.413,21.062 16.046,20.972 15.880,20.708 L14.080,17.841 C13.915,17.578 14.013,17.240 14.300,17.088 Z" class="cls-1"/>
</svg>
