<svg xmlns="http://www.w3.org/2000/svg" xmlns:xlink="http://www.w3.org/1999/xlink" preserveAspectRatio="xMidYMid" width="25" height="23" viewBox="0 0 25 23">
  <defs>
    <style>
      .cls-1 {
        fill: #3c4042;
        fill-rule: evenodd;
      }
    </style>
  </defs>
  <path d="M19.999,22.999 L18.999,22.999 L-0.001,22.999 L-0.001,-0.002 L18.999,-0.002 L19.999,-0.002 L24.999,-0.002 L24.999,22.999 L19.999,22.999 ZM18.999,1.001 L0.999,1.001 L0.999,21.997 L18.999,21.997 L18.999,1.001 ZM23.999,1.001 L19.999,1.001 L19.999,21.997 L23.999,21.997 L23.999,1.001 ZM3.499,10.968 L15.098,10.968 L11.128,7.786 C10.942,7.601 10.942,7.301 11.128,7.116 C11.313,6.930 11.613,6.930 11.798,7.116 L16.651,11.005 C16.717,11.031 16.777,11.070 16.826,11.120 C16.835,11.123 16.845,11.124 16.852,11.130 C16.950,11.228 16.989,11.356 16.984,11.484 C16.989,11.612 16.950,11.739 16.852,11.836 C16.827,11.862 16.789,11.857 16.760,11.875 L11.798,15.852 C11.613,16.037 11.313,16.037 11.128,15.852 C10.942,15.667 10.942,15.366 11.128,15.181 L15.137,11.968 L3.499,11.968 C3.223,11.968 3.000,11.744 3.000,11.468 C3.000,11.192 3.223,10.968 3.499,10.968 Z" class="cls-1"/>
</svg>
