<svg xmlns="http://www.w3.org/2000/svg" xmlns:xlink="http://www.w3.org/1999/xlink" preserveAspectRatio="xMidYMid" width="25" height="25" viewBox="0 0 25 25">
  <defs>
    <style>
      .cls-1 {
        fill: #3c4042;
        fill-rule: evenodd;
      }
    </style>
  </defs>
  <path d="M25.000,2.999 L25.000,2.999 L25.000,23.436 C25.000,24.299 24.300,24.998 23.437,24.998 L1.562,24.998 C0.699,24.998 -0.000,24.299 -0.000,23.436 L-0.000,1.561 C-0.000,0.698 0.699,-0.002 1.562,-0.002 L23.437,-0.002 C24.300,-0.002 25.000,0.698 25.000,1.561 L25.000,2.999 L25.000,2.999 ZM1.000,22.999 C1.000,23.551 1.448,23.999 2.000,23.999 L23.000,23.999 C23.552,23.999 24.000,23.551 24.000,22.999 L24.000,4.590 L14.000,15.499 L13.000,15.499 L8.421,9.505 L1.000,15.999 L1.000,22.999 ZM24.000,1.999 C24.000,1.447 23.552,0.999 23.000,0.999 L2.000,0.999 C1.448,0.999 1.000,1.447 1.000,1.999 L1.000,14.624 L8.000,8.499 L9.000,8.499 L13.524,14.428 L24.000,2.999 L24.000,1.999 Z" class="cls-1"/>
</svg>
